<svg version="1" xmlns="http://www.w3.org/2000/svg" width="1365.333" height="1365.333" viewBox="0 0 1024.000000 1024.000000"><path d="M272.5 75.4c-1.6.6-3.9 1.9-4.9 2.8-1.1 1-2.3 1.8-2.6 1.8-1.3 0-5 9.7-5 13.1 0 1.9-.4 3.9-.9 4.4-.8.9-1.2 2.9-2.7 15.7-.3 2.7-1 4.8-1.5 4.8s-.9 2.4-.9 5.4c0 3-.4 5.8-1 6.1-.5.3-1 3.1-1 6.1 0 3-.4 5.4-.9 5.4s-1.1 2.8-1.5 6.2c-.3 3.5-1 9-1.6 12.3-1.8 11.1-2.9 17.9-4.4 29-.9 6-2 13.7-2.6 17-.5 3.3-1.3 9.7-1.6 14.3-.4 4.5-1.1 8.5-1.5 8.8-.5.3-.9 3.6-.9 7.3 0 3.7-.4 7.1-.9 7.7-.5.5-1.2 3.9-1.5 7.6-.3 3.8-.9 9.8-1.2 13.5-.3 3.8-1 7.2-1.5 7.7-1.2 1.3-1.2 5.6.1 5.6.6 0 1 1.2 1 2.6 0 1.8 1.5 4.1 4.5 7.2l4.6 4.5h14.8l4.4-4.6c4.8-4.9 5.5-7 6.4-19.2.2-3.9.9-7.4 1.4-7.9.5-.6.9-4.1.9-7.8 0-3.9.4-6.8 1-6.8s1-2.8 1-6.4c0-3.6.4-6.7.9-7 .4-.3 1.1-4.1 1.5-8.3.3-4.3 1-10.5 1.5-13.8.5-3.3 1.6-11.1 2.5-17.3 1.4-10.3 3.1-20.8 5.6-35.1.6-3 1-7.1 1-9.2 0-2.1.5-4.1 1-4.4.6-.3 1-2.8 1-5.5s.5-5.2 1-5.5c.6-.3 1-3 1-6s.5-5.7 1-6c.6-.3 1-2.8 1-5.5s.4-5.1.9-5.4c.4-.3 1.1-3.1 1.5-6.3.4-3.2.9-7.5 1.2-9.7.4-2.2.1-5.6-.7-8-1.5-4.8-7.3-10.6-10.5-10.6-1.3 0-2.6-.5-2.9-1-.8-1.3-4.1-1.1-8 .4zM205.7 99.2c-2.9 2.9-4.8 5.8-5.6 8.8-.7 2.5-1.7 5.3-2.2 6.2-.5 1-.9 3.1-.9 4.8 0 1.6-.4 3-1 3-.5 0-1 1.4-1 3.2 0 1.7-.4 4.5-.9 6.2-1.8 5.7-4.2 15.6-6 24.3-.6 2.9-1.6 7.4-2.1 10-2.7 12.8-6 31.4-6 34 0 1.6-.4 3.3-.9 3.8-.5.6-1.2 3-1.5 5.5-.3 2.5-1 7.2-1.6 10.5-.6 3.3-1.4 8.4-1.7 11.2-.2 2.9-.9 5.3-1.4 5.3-.5 0-.9 2.4-.9 5.4 0 3-.4 5.7-.9 6-.5.3-1.1 3.2-1.4 6.3-.4 3.2-1.1 8-1.6 10.8-2.4 11.8-2.4 12.9-.1 17.8 1.3 2.7 3.8 6 5.7 7.4 2.9 2.2 4.4 2.6 10.5 2.7 4.8 0 7.3-.4 7.6-1.2.2-.7 1-1.2 1.7-1.2 2.1 0 6.3-5.7 7.4-9.8.5-2 1.7-8.7 2.6-14.7.9-6.1 2.1-12.4 2.6-14.1.5-1.7.9-4.9.9-7.2s.5-4.2 1-4.2c.6 0 1-2.4 1-5.3s.4-5.7.9-6.2c.5-.6 1.2-3 1.5-5.5.5-4.5 1.6-11.1 3.6-20.8.5-2.8 1.4-7.3 1.9-10 2.1-11 4.1-21 5.1-25.7.6-2.8 1.4-7.4 1.7-10.3.3-2.8.9-5.2 1.4-5.2.5 0 .9-1.8.9-3.9 0-2.2.5-4.3 1-4.6.6-.3 1-2.1 1-4s.5-3.7 1-4c.6-.3 1-2.4 1-4.6 0-2.1.5-3.9 1-3.9.6 0 1-1.3 1-2.9 0-1.7.5-3.3 1-3.6.6-.3 1-3.7 1-7.6 0-3.9-.4-6.9-1-6.9-.5 0-1-.6-1-1.3 0-1.9-4.5-6.7-6.4-6.7-.9 0-1.6-.5-1.6-1 0-.6-3-1-6.9-1-6.9 0-7.1.1-11.4 4.2zM318.5 128.4c-3.7 1.4-8.9 6.4-10 9.6-.8 2.7-1.7 9.8-3.4 28-.6 6.3-1.5 14.6-2.1 18.5-3.3 22.5-5 36.2-5 40.5 0 2.8-.4 5-.9 5s-1.2 2.8-1.5 6.2c-.3 3.5-1 9.4-1.6 13.3-.6 3.8-1.3 9.2-1.6 12-.3 2.7-.9 5.9-1.4 7-.5 1.1-1.1 4.7-1.4 8-.2 3.3-.9 8.8-1.5 12.2-4.2 24.6-6.2 40.4-5.5 44.8 1.1 7.2 6.7 13.4 12.1 13.5 1.7 0 3.3.6 3.6 1.2.3 1 .9 1 2.6 0 1.1-.6 3.2-1.2 4.6-1.2 1.4 0 2.5-.3 2.5-.8 0-.4 1-1.2 2.2-1.7 1.2-.6 2.6-1.9 3.2-3 .6-1.1 1.3-2.2 1.6-2.5 1.4-1.3 3-9.4 3.6-19 .4-5.8 1-11 1.4-11.5.5-.6 1.1-3.5 1.4-6.5l1.1-11c.3-3 1-6.4 1.5-7.5.5-1.1 1.1-4.5 1.4-7.5.3-3 1-8.2 1.5-11.5.5-3.3 1.4-9.4 2.1-13.5.6-4.1 1.5-10.2 2-13.5.5-3.3 1.5-11.4 2.4-18 .8-6.6 2-15.8 2.7-20.5.6-4.7 1.5-12.3 2-17 .5-4.7 1.4-12.3 2-17 2-17.3 2.2-23.9.5-27.3-2.1-4.4-6-8.7-7.9-8.7-.9 0-1.9-.5-2.2-1-.8-1.3-8.2-1.1-12 .4z"/><path d="M143.5 161.7c-1.6.9-3.3 2.2-3.8 2.9-.4.7-1.3 1.9-2 2.6-.7.7-1.9 2.9-2.6 4.8-.7 1.9-1.7 4.4-2.1 5.5-.4 1.1-1.3 3.8-1.8 6-2 7.4-4.4 16-5.3 18.9-.5 1.6-.9 4.2-.9 5.7s-.4 3-.9 3.3c-.5.3-1.1 2.3-1.4 4.3-.3 2.1-1.1 6-1.7 8.8-.6 2.7-1.4 7-1.6 9.5-.3 2.5-.9 5.4-1.4 6.5-.5 1.1-1.1 3.8-1.4 6-.3 2.2-1 6.7-1.6 10-1.9 11.3-2.9 18-3.9 25.5-.6 4.1-1.5 10.2-2 13.5-.6 3.3-1.5 9.1-2 13-.6 3.8-1.5 10-2.1 13.6-.5 3.6-1 9.2-1 12.5 0 3.3-.4 6.4-1 7-.6.6-1.1 25.2-1.4 65.9-.2 35.8-1 73.5-1.7 84-.6 10.4-1.2 39.2-1.2 64-.1 41.8.5 57.7 3.3 84.5.5 5.2 1.3 13.8 1.8 19 .5 5.2 1.2 10.6 1.5 12 .3 1.4 1.1 6.8 1.7 12 .6 5.2 1.6 11.5 2.1 14s1.4 8.3 2 13c.6 4.7 1.5 11 2 14s1.2 8.1 1.5 11.3c.4 3.1 1 6 1.5 6.3.5.3.9 2.5.9 4.9 0 2.4.5 4.7 1 5 .6.3 1 2.6 1 5s.5 4.7 1 5c.6.3 1 2.2 1 4.1 0 1.9.5 3.4 1 3.4.6 0 1 1.3 1 3 0 1.6.5 3 1 3 .6 0 1 .9 1 2 0 1.2 1.1 4.3 2.5 7s2.5 5.6 2.5 6.5c0 .8.4 1.5.9 1.5s1.1.8 1.4 1.7c.7 2.3 3.7 7.2 6 9.7.9 1.1 1.7 2.4 1.7 2.9 0 .4.6 1.4 1.3 2.2.6.7 2.8 3.2 4.7 5.6 4.8 6 25.3 26.4 32 31.9 3 2.5 6 4.9 6.7 5.5.6.5 2.8 2.3 4.8 4 2 1.6 4.9 4.1 6.5 5.5 1.5 1.4 6.2 5.2 10.5 8.5s9.3 7.5 11.1 9.2c1.8 1.8 3.7 3.3 4.1 3.3.4 0 2.8 1.8 5.3 3.9 3.3 2.9 4.2 4.2 3.4 5.2-.6.8-2.7 5.9-4.8 11.4-2.2 5.5-4.3 10.4-4.7 10.9-.5.6-.9 1.8-.9 2.8 0 1-.4 1.8-1 1.8-.5 0-1 1.1-1 2.5s-.4 2.5-1 2.5-1 2.7-1 6 .4 6 1 6 1 .7 1 1.5c0 1.7 6.5 8.5 12.5 13 2.2 1.6 5.3 4.2 6.9 5.7 1.6 1.6 3.3 2.8 3.8 2.8s1.9 1 3.2 2.3c1.2 1.2 3.5 3.1 5 4.2 1.6 1.1 3.9 3 5.2 4.3 1.3 1.2 2.7 2.2 3.1 2.2.4 0 2.4 1.5 4.4 3.3 2 1.7 5.1 4.3 6.9 5.7 1.8 1.4 3.8 3 4.4 3.5.6.6 3.6 2.8 6.6 5 7.5 5.3 15.9 13.6 16 15.7 0 .9.5 2 1 2.3.6.3 1 2.6 1 5.1 0 4.7 1.3 7.7 4.4 10.6 1.8 1.7 19 1.8 334.6 1.8h332.7l.5-24.2c.6-29.3-1-51.8-4.1-59.3-.5-1.1-1.4-4-2.1-6.5-.6-2.5-1.6-5.3-2.1-6.2-.5-1-.9-2.5-.9-3.3 0-.8-.4-1.5-1-1.5-.5 0-1-.6-1-1.4 0-2.5-11.8-24.4-15-27.8-1.1-1.2-2-2.6-2-3 0-.5-1-1.9-2.2-3.2-1.3-1.2-3.4-3.8-4.8-5.7-3-4.3-31.6-32.9-32.8-32.9-.5 0-2.2-1.3-3.9-2.8-1.6-1.6-4.4-3.7-6.1-4.8-1.8-1-3.2-2.2-3.2-2.6 0-.4-.6-.8-1.2-.8-.7 0-2.6-1.1-4.2-2.5-1.6-1.3-3.7-2.7-4.7-3-1.1-.4-1.9-1.1-1.9-1.6s-.7-.9-1.5-.9-1.5-.4-1.5-.9-.8-1.1-1.7-1.4c-1-.4-4.5-2.2-7.8-4.2s-8.5-4.8-11.5-6.2c-3-1.5-5.6-3.1-5.8-3.5-.2-.4-1.2-.8-2.3-.8-1 0-1.9-.5-1.9-1 0-.6-.9-1-2-1s-2-.5-2-1c0-.6-.6-1-1.3-1-.8 0-2.7-.6-4.3-1.4-20.5-9.8-27.9-10.9-43.9-6.7-4.9 1.3-9.9 2.8-11 3.2-1.1.4-3.1 1-4.5 1.3-1.4.2-4.3 1-6.5 1.6-2.2.7-5.9 1.4-8.2 1.7-2.4.3-4.3.9-4.3 1.4 0 .5-1.7.9-3.8.9-2.1 0-4.2.4-4.7.9-.6.5-2.8 1.1-5 1.4-6.3.9-10.7 1.7-14.5 2.7-1.9.5-9.6 1.8-17 2.9-7.4 1.1-16.6 2.5-20.5 3.1-17.6 2.8-80.6 2.3-102.5-.9-16.1-2.4-27.8-4.3-30.6-5.2-1.7-.5-4.7-.9-6.7-.9s-3.7-.5-3.7-1c0-.6-1.8-1-4-1s-4-.5-4-1c0-.6-1.3-1-2.8-1-1.5 0-3.2-.4-3.7-.8-.6-.4-2.8-1.4-5-2.1-4.2-1.3-7.8-2.7-10.7-4.2-1-.5-2.3-.9-2.9-.9-.5 0-3.5-1.1-6.5-2.5s-6.1-2.5-6.9-2.5c-.8 0-1.5-.5-1.5-1 0-.6-.9-1-2-1s-2-.5-2-1c0-.6-.6-1-1.4-1-.8 0-4-1.4-7.1-3-3.1-1.7-6.3-3-7.1-3-.8 0-1.4-.5-1.4-1 0-.6-.9-1-1.9-1-1.1 0-2.1-.3-2.3-.8-.1-.4-4.9-3-10.5-5.7-5.7-2.8-10.3-5.3-10.3-5.8 0-.4-.8-.7-1.8-.7s-2.8-.9-4-2c-1.2-1.1-2.8-2-3.7-2-.8 0-1.5-.5-1.5-1 0-.6-.9-1-2-1s-2-.3-2-.8c0-.4-2-1.6-4.5-2.7s-4.5-2.3-4.5-2.6c0-.3-2.3-1.6-5-2.9-2.8-1.3-5-2.7-5-3.2 0-.4-.9-.8-2-.8s-2-.5-2-1c0-.6-.6-1-1.4-1-.8 0-1.6-.3-1.8-.8-.1-.4-2.4-1.8-5-3.1-2.7-1.3-4.8-2.8-4.8-3.3 0-.4-.5-.8-1.1-.8-.6 0-4.4-2-8.5-4.5-4-2.5-7.8-4.5-8.4-4.5-.5 0-1-.5-1-1 0-.6-.6-1-1.3-1-.7 0-2.3-.9-3.5-2-1.2-1.1-2.3-2-2.6-2-.2 0-3.3-1.8-6.7-4-3.5-2.2-7.9-4.8-9.6-5.7-1.8-.9-3.3-2-3.3-2.5 0-.4-.7-.8-1.5-.8s-1.5-.5-1.5-1c0-.6-.6-1-1.3-1-.7 0-2.3-.9-3.5-2-1.2-1.1-2.3-2-2.6-2-.7 0-20.9-13-21.6-13.9-.3-.3-1.7-1.2-3.2-2-1.6-.8-2.8-1.8-2.8-2.3 0-.4-.5-.8-1.1-.8-1.6 0-3.9-2.6-3.9-4.4 0-.9-.4-1.6-1-1.6-.5 0-1-.9-1-1.9 0-1.1-.4-2.2-.8-2.5-.4-.3-1.4-2.8-2.2-5.5-.7-2.8-1.7-5.1-2.2-5.1-.4 0-.8-.9-.8-2s-.4-2.8-.9-3.8c-1.1-2.2-2.6-5.9-4.1-10.2-.7-1.9-2.1-5.4-3.1-7.6-1-2.3-2.1-5.5-2.4-7-.7-2.9-1.9-6.4-3.6-9.6-.5-1-.9-2.5-.9-3.3 0-.8-.4-2.3-.9-3.3-1.3-2.5-2.7-6.2-4-10.7-.7-2.2-1.6-4.9-2.1-6-.9-2-6.3-18.9-10.1-32-1.2-3.9-2.5-7.8-3-8.7-.5-1-.9-2.9-.9-4.2 0-1.4-.4-2.8-1-3.1-.5-.3-1-1.9-1-3.6 0-1.6-.4-2.9-1-2.9-.5 0-1-1.5-1-3.4s-.4-3.8-1-4.1c-.5-.3-1-1.9-1-3.6 0-1.6-.4-3.7-.9-4.7-.5-.9-1.7-5.3-2.6-9.7-.9-4.4-2.3-10.9-3.1-14.5-.8-3.6-1.7-10.8-2.1-16l-.6-9.5 3.7-1.4c2-.8 3.6-1.8 3.6-2.3 0-.4.9-.8 2-.8s2-.5 2-1c0-.6.9-1 1.9-1 1.1 0 2.1-.3 2.3-.8.2-.4 2.3-1.8 4.8-3.1 9.8-5.2 13.6-7.4 16.1-9.2 1.5-1 3.2-1.9 3.8-1.9.6 0 1.1-.5 1.1-1 0-.6.7-1 1.5-1s1.5-.5 1.5-1c0-.6.7-1 1.5-1s1.5-.4 1.5-.8c0-.5 1.2-1.5 2.8-2.3 1.5-.8 2.9-1.6 3.2-2 .3-.3 2.3-1.8 4.5-3.4 2.2-1.7 4.2-3.2 4.5-3.5.3-.3 3-2.5 6-5 5.1-4.3 11.7-10.9 15-15.2.8-1.1 3.4-4 5.8-6.5 2.3-2.6 4.2-5 4.2-5.5s.9-1.8 2-3c1-1.1 2.6-3.5 3.5-5.2.9-1.7 2.9-5.4 4.5-8.1 1.6-2.8 2.9-5.8 3-6.8 0-.9.5-1.7 1-1.7.6 0 1-.9 1-1.9 0-1.1.5-2.3 1-2.6.6-.3 1-1.5 1-2.6 0-1 .5-1.9 1-1.9.6 0 1-1.4 1-3 0-1.7.5-3 1-3 .6 0 1-.7 1-1.6 0-1.4 2.9-11.2 5-16.9.4-1.1 2-6.3 3.5-11.5s3.1-10.3 3.6-11.2c.5-1 .9-2.7.9-3.7 0-1.1.5-2.3 1-2.6.6-.3 1-1.7 1-3s.5-2.7 1-3c.6-.3 1-1.7 1-3s.5-2.7 1-3c.6-.3 1-1.7 1-3s.5-2.7 1-3c.6-.3 1-1.9 1-3.5s.5-3.2 1-3.5c.6-.3 1-1.7 1-3.1 0-1.3.5-2.4 1-2.4.6 0 1-1.1 1-2.4 0-1.3.7-4.3 1.5-6.6 1.9-5.5 1.9-14.3 0-18-.8-1.6-3.2-4.2-5.2-5.7-3.1-2.4-4.5-2.8-9.7-2.7-10.8.1-14.5 4-19.7 20.9-1.2 3.8-2.5 7.9-2.9 9-.4 1.1-1.3 4-2 6.5-.6 2.5-1.6 5.3-2.1 6.2-.5 1-.9 2.7-.9 3.8 0 1.1-.4 2-1 2-.5 0-1 1-1 2.1 0 1.2-1.3 6-2.9 10.8-5.5 16.3-8.1 25-8.1 27.1 0 1.1-.4 2-1 2-.5 0-1 1.1-1 2.4 0 1.4-.4 2.8-1 3.1-.5.3-1 1.7-1 3s-.4 2.7-1 3c-.5.3-1 1.5-1 2.6 0 1-.4 2.7-.9 3.7-.5.9-1.4 3-2.1 4.7-.7 1.6-1.9 4.1-2.7 5.5-.8 1.4-1.9 3.7-2.4 5.2-.6 1.6-1.5 2.8-1.9 2.8-.5 0-1.2.9-1.5 2-.3 1.1-1.2 2.6-1.8 3.3-.7.7-3.7 4.2-6.7 7.7-6.4 7.6-16.3 17.3-20.2 19.7-1.6 1-2.8 2.1-2.8 2.5 0 .4-.7.8-1.5.8s-1.5.3-1.5.7c0 .5-2.5 2.4-5.5 4.3s-5.5 3.8-5.5 4.2c0 .5-.5.8-1.1.8-.6 0-2.3.8-3.7 1.9-1.5 1-6.1 3.6-10.2 5.7s-7.7 4.1-8 4.4c-.3.3-3.6 2.1-7.5 4-14 6.9-22.3 13.1-25.4 18.8-1.6 2.9-1.3 28.2.3 37.2 1.7 8.8 6.3 30.8 7.7 36.5.6 2.2 1.3 5.7 1.6 7.7.3 2.1.9 3.8 1.4 3.8.5 0 .9 1.5.9 3.4s.5 3.8 1 4.1c.6.3 1 1.9 1 3.5s.5 3.2 1 3.5c.6.3 1 1.7 1 3s.5 2.7 1 3c.6.3 1 1.9 1 3.6 0 1.6.5 2.9 1 2.9.6 0 1 1 1 2.2 0 1.2.8 4.7 1.9 7.7 1 3.1 3.6 11 5.6 17.6 2.1 6.6 4.2 12.4 4.7 13 .4.5.8 1.9.8 3.2 0 1.3.5 2.3 1 2.3.6 0 1 .7 1 1.5 0 2.4 2.4 9.5 3.2 9.5.5 0 .8 1 .8 2.2 0 1.9 5.6 17.9 7.9 22.8.4.8 1.4 3.6 2.2 6.2.7 2.7 1.7 4.8 2.1 4.8.4 0 .8.9.8 2s.4 2.8.9 3.8c.5.9 1.3 2.8 1.9 4.2.5 1.4 1.9 4.6 3.1 7.2 1.2 2.6 2.1 5.2 2.1 5.7 0 1.6 6.2 14.1 7 14.1.4 0 2 1.1 3.5 2.4 1.5 1.3 4 3 5.4 3.8 4.9 2.5 5.2 3.2 3.5 7.5-2.9 6.9-4.6 10.8-5.5 12.5-.5 1-.9 2.5-.9 3.3 0 .8-.4 1.5-1 1.5-.5 0-1 .7-1 1.5s-1 3.7-2.1 6.3c-2.6 5.6-4.2 9.5-5.9 14.2-.7 1.9-1.7 3.9-2.2 4.5-.4.5-.8 1.5-.8 2.2 0 .7-1.4 4.2-3 7.8-1.7 3.6-3 7.2-3 8 0 .8-.4 1.5-1 1.5-.5 0-1 .7-1 1.5s-.4 2.3-.9 3.3c-1.9 3.7-7.9 18.3-10.9 26.2-.9 2.5-2 4.6-2.4 4.8-.5.2-.8 1.2-.8 2.2 0 1-.4 2.2-1 2.5-.6.3-1 1.7-1 3.1 0 1.3-.4 2.4-1 2.4-.5 0-1 .7-1 1.5s-.4 2.3-.9 3.3c-.5.9-2.2 4.5-3.7 8-1.5 3.4-2.9 6.2-3.1 6.2-.3 0-3.2-2.4-8.2-6.7-2-1.8-3.9-3.3-4.3-3.3-.4 0-2.2-1.3-4-2.9-6.9-6.1-16.8-14.1-17.4-14.1-.3 0-1.8-1.2-3.2-2.8-1.5-1.5-5.4-5-8.7-7.7-6.4-5.4-19.4-18.2-23.5-23.1-7.8-9.5-15-20.8-15-23.6 0-1-.4-1.8-.8-1.8s-1.3-2.1-2.1-4.8c-.7-2.6-1.6-5.6-2.1-6.7-1-2.4-1.9-7.1-2.7-13.8-.3-2.6-.9-4.7-1.4-4.7-.5 0-.9-2.4-.9-5.4 0-3-.4-5.8-1-6.1-.5-.3-1-3.1-1-6.1 0-3-.4-5.4-1-5.4-.5 0-1-2-1-4.4 0-2.5-.9-10-2-16.8-3.7-23.2-4-25.3-5.1-35.8-.6-5.8-1.5-14.1-2-18.5s-1.2-13.9-1.5-21c-.3-7.2-1-13.4-1.5-14-1.2-1.2-1.2-99.2 0-99.9 1.2-.8 2.2-33 3.1-103.1.5-34.1 1.3-65.6 1.8-70 1-7.6 3.2-23 5.3-36 .6-3.3 1.3-9 1.6-12.8.3-3.7 1-7 1.4-7.3.5-.3.9-3 .9-6s.5-5.4 1-5.4c.6 0 1-2.7 1-6s.4-6 .9-6 1.2-2.1 1.4-4.8c1.2-9.7 4.6-26.4 8-39.2.9-3 2.3-8.7 3.3-12.5 1-3.9 2.2-7.2 2.6-7.3.4-.2.8-1.7.8-3.3 0-1.6.5-2.9 1-2.9.6 0 1-2.2 1-5 0-4.7-2.2-10.4-5.4-13.5-4.4-4.4-14.4-5.8-20.1-2.8z"/><path d="M617.9 209.4c-.5.5-4.8 1-26.9 3.2-2.5.3-5.4.9-6.5 1.4-1.1.5-3.8 1.1-6 1.5-2.2.3-5.7.8-7.8 1.1-2 .4-4 1-4.3 1.5-.3.5-1.8.9-3.4.9-1.6 0-3.2.4-3.5 1-.3.5-1.9 1-3.6 1-1.6 0-2.9.4-2.9 1 0 .5-1 1-2.3 1-7.2 0-46.8 18.9-56.4 27-.7.5-1.6 1-2 1-.4 0-2 1-3.5 2.3-4.5 3.8-6.1 5.1-10.8 8.7-4.8 3.7-22.7 21.5-27.3 27.1-1.5 1.9-3.6 4.5-4.7 5.8-1.1 1.3-2 2.7-2 3 0 .3-1 1.7-2.2 3.1-1.3 1.4-2.9 3.7-3.7 5.2-.8 1.5-2.2 3.7-3.3 4.7-1 1.1-1.8 2.7-1.8 3.5 0 .8-.4 1.6-.9 1.8-1.2.4-14.1 25.5-14.1 27.3 0 .8-.4 1.5-1 1.5-.5 0-1 1.1-1 2.5s-.4 2.5-.8 2.5c-.5 0-1.5 2.3-2.2 5.1-.8 2.7-1.8 5.2-2.2 5.5-.4.3-.8 1.4-.8 2.5 0 1-.4 2.7-.9 3.7-1.5 2.8-6.1 20.9-6.1 24.1 0 1.7-.4 3.3-1 3.6-.5.3-1 2.6-1 5.1 0 2.4-.4 4.4-.9 4.4-2.1 0-4.1 35.8-4 72.5 0 29.4.9 63.1 2.5 93.5.3 4.7.9 9.4 1.4 10.5.5 1.1 1.1 4.7 1.4 8 .9 11.3 5.4 33.5 7.7 37.7.5 1 .9 2.5.9 3.3 0 .8.5 2.4 1 3.5.6 1.1 1.5 2.9 2 4 .6 1.1 1 2.7 1 3.5 0 .8.5 1.5 1 1.5.6 0 1 .9 1 2s.4 2 .8 2c.5 0 1.4 1.6 2.2 3.5.8 1.9 1.7 3.5 2 3.5.4 0 1.2 1.1 1.8 2.5 2.8 6.1 14 16.6 22.2 20.7 2.5 1.3 4.7 2.6 4.8 3 .2.5 1 .8 1.8.8s2.2.4 3.2.9c3.4 1.7 8.9 3.1 12.3 3.1 8.5 0 10.8 1 13.6 5.9 1.5 2.5 3 4.8 3.4 5.1.3.3 1.4 2.1 2.4 4s2.6 4.2 3.6 5.1c1.1.9 1.9 1.9 1.9 2.3 0 1.5 10.2 13.5 20 23.5 6.2 6.3 17 15.7 22 19.1 1.2.8 3.3 2.3 4.5 3.3 1.3.9 2.7 1.7 3.2 1.7s1.8.8 2.9 1.8c1 1 3.4 2.5 5.2 3.2 1.7.8 3.2 1.8 3.2 2.2 0 .5.9.8 2 .8s2 .4 2 1c0 .5.9 1 2 1s2 .4 2 1c0 .5.9 1 2 1s2 .4 2 1c0 .5.8 1 1.8 1 .9 0 4.1 1.1 7 2.5 3 1.4 6.5 2.5 7.8 2.5 1.3 0 2.4.4 2.4 1 0 .5 1.3 1 2.9 1 1.7 0 3.2.4 3.5.9.6.8 3 1.4 11.4 2.7 2 .3 4.6.9 5.7 1.4 5.6 2.4 45.4 3.2 58 1.2 3.9-.6 9-1.4 11.5-1.8 2.5-.3 4.9-1 5.4-1.5.6-.5 2.5-.9 4.3-.9 1.8 0 3.3-.5 3.3-1 0-.6 1.1-1 2.5-1 1.3 0 3.4-.4 4.7-.9 1.3-.5 5-1.9 8.3-3.2 6.3-2.3 19.9-8.7 25-11.7 8.6-5 20.6-13.1 22.5-15.2.3-.3 2.1-1.7 4-3 4.5-3.2 21.8-20.5 25-25 1.3-1.9 2.9-4 3.5-4.6.5-.6 1.9-2.3 3-3.8s2.8-3.7 3.7-4.8c1-1.1 2-2.9 2.3-3.9.4-1.1 1.1-1.9 1.6-1.9s.9-.5.9-1c0-.6 1.5-3.2 3.2-5.9 3-4.5 3.6-4.9 8.3-5.5 2.7-.3 6.9-.6 9.3-.6 2.3 0 4.2-.5 4.2-1 0-.6 1.1-1 2.5-1s3.3-.4 4.3-.9c.9-.5 4-1.9 6.7-3.2 2.8-1.3 5.2-2.6 5.5-2.9.3-.3 2.1-1.7 4-3 4.7-3.2 13.7-12.6 14.5-15 .4-1.1 1.1-2 1.6-2s.9-.6.9-1.4c0-.8.4-1.6.8-1.8 1.3-.5 7.8-14.7 10.3-22.3 1.2-3.9 2.6-7.8 3-8.7.5-1 .9-3.1.9-4.8 0-1.6.4-3 .9-3s1.2-2.1 1.5-4.8c.3-2.6.8-7 1.1-9.7.3-2.8 1-5.9 1.5-7 .8-2 1.3-5.6 3.1-26.5.4-5.8 1.4-31.2 2-56.5 1.1-46.1.4-78-2.1-94.5-.6-3.6-1.3-9.1-1.6-12.3-.4-3.1-1-5.7-1.5-5.7s-.9-1.8-.9-3.9c0-2.2-.4-4.3-1-4.6-.5-.3-1-2.1-1-4s-.4-3.7-1-4c-.5-.3-1-1.9-1-3.5s-.4-3.1-.9-3.4c-.4-.3-1.1-2.1-1.4-3.9-.5-3.3-5.2-16.2-8.8-24.4-1.1-2.4-1.9-5-1.9-5.8 0-.8-.4-1.5-1-1.5-.5 0-1-.9-1-2s-.4-2-.8-2c-.5 0-1.4-1.6-2.2-3.5-.8-1.9-1.7-3.5-2.2-3.5-.4 0-.8-.9-.8-2s-.4-2-.8-2c-.5 0-2.1-2.7-3.7-6s-3.2-6-3.7-6c-.4 0-.8-.7-.8-1.5s-.4-1.5-.8-1.5c-.5 0-1.5-1.2-2.3-2.8-.8-1.5-2.4-3.7-3.6-5-1.3-1.3-2.3-2.7-2.3-3.2s-1-1.9-2.2-3.2c-1.3-1.3-4.5-5-7.3-8.3-5.7-6.8-10.1-11.3-16.9-17-2.6-2.2-5.8-4.9-6.9-6-1.2-1.1-3.8-3.1-5.7-4.5-1.9-1.3-3.7-2.7-4-3.1-.8-.9-18-11.9-18.8-11.9-.4 0-1.8-.9-3.2-2-1.4-1.1-3.2-2-4.2-2-.9 0-1.8-.3-2-.8-.4-1-8.7-5.2-10.4-5.2-.8 0-1.4-.5-1.4-1 0-.6-.9-1-1.9-1-1.1 0-2.2-.4-2.5-.9-.3-.5-1.6-1.1-2.8-1.4-1.3-.3-4.8-1.4-7.8-2.6-3-1.2-6.5-2.1-7.7-2.1-1.3 0-2.3-.4-2.3-.9 0-.8-2.2-1.5-9.8-2.8-1.8-.3-3.5-.9-3.8-1.4-.3-.5-2-.9-3.9-.9s-3.7-.5-4-1c-.3-.6-2.3-1-4.4-1-2 0-4.1-.4-4.6-.9-.6-.5-3.9-1.2-7.5-1.5-3.6-.4-10.1-1.2-14.5-1.7-9-1.1-58.7-2.4-59.6-1.5zm79 150.5c11.5 14.1 18.8 22.8 20.6 24.7 1.1 1.1 3.8 4.3 6 6.9 2.2 2.7 5.7 6.7 7.8 8.9 2 2.1 3.7 4.2 3.7 4.5.1.3 3.6 4.4 8 9.1 4.4 4.7 8 8.8 8 9.2 0 .3 4.3 5 9.5 10.5 5.2 5.4 9.5 10 9.5 10.3 0 .3 4.7 5.3 10.5 11.2 5.8 5.8 10.5 11.1 10.5 11.7 0 .6.4 1.9 1 2.9 2.2 4 6.5 19.2 8.1 28.7 2.8 16.9 3.4 23.5 3.3 41 0 27.5-2.7 50.9-8.2 71.5-.8 3-1.7 7-1.9 8.8-.3 1.8-.9 3.5-1.4 3.8-.5.3-.9 1.6-.9 2.9 0 1.3-.4 2.7-1 3-.6.3-1 1.5-1 2.6 0 1-.4 2.7-.9 3.7-.5.9-1.3 2.8-1.9 4.2-4.3 10.7-10.4 23.4-11.4 23.8-.4.2-.8 1.2-.8 2.3 0 1-.3 1.9-.8 1.9-.4 0-1.8 2.1-3.2 4.7-1.4 2.7-2.8 5.2-3.3 5.8-.4.5-2.6 3.5-4.8 6.5-11.1 15.1-22.8 26.6-37.7 37.1-3.9 2.7-7.5 4.9-8.1 4.9-.6 0-1.1.4-1.1 1 0 .5-.9 1-1.9 1-1.1 0-2.1.4-2.3.8-.8 1.9-21.5 10.7-28.1 11.9-1.5.3-3 .9-3.3 1.4-.3.5-2.2.9-4.3.9-2 0-4.1.4-4.7.9-1.4 1.4-10.4 2.2-30.1 2.7-12.3.3-18.3.1-18.3-.6 0-.6-2.3-1-5.4-1-3 0-5.8-.5-6.1-1-.3-.5-1.8-1-3.2-1-2.6 0-9.2-1.6-12.8-3-1.1-.5-4.5-1.7-7.5-2.8-7.1-2.6-17.4-7.4-17.8-8.4-.2-.4-1.2-.8-2.3-.8-1 0-1.9-.4-1.9-.8 0-.5-1.2-1.5-2.7-2.3-1.6-.8-3-1.6-3.3-1.9-.3-.3-4-3.1-8.3-6.4-8-6.1-20.4-17.9-24-23.1-1.2-1.7-2.8-3.7-3.7-4.5-2.1-2-11-15.7-11-16.9 0-.5-.3-1.1-.7-1.3-1.3-.5-7.1-11.4-12.4-23.3-2.1-4.6-7.2-19.2-7.6-21.8-.3-1.5-.9-3-1.4-3.3-.5-.3-.9-1.8-.9-3.4 0-1.6-.4-3.2-1-3.5-.5-.3-1-2.1-1-4s-.4-3.7-1-4c-.5-.3-1-2.4-1-4.5s-.4-4.1-.9-4.4c-.4-.3-1.1-3.4-1.4-6.8-.3-3.5-1.3-11.7-2.2-18.3-2.3-16.7-2.3-60.8 0-79.5.9-7.4 1.9-15.9 2.2-18.8.3-2.8.9-5.2 1.4-5.2.5 0 .9-1 .9-2.2 0-2.6 1.7-8.3 3.6-11.8.9-1.8 2.4-2.7 5.1-3.1 2.1-.4 6.1-1.2 8.8-1.9 2.8-.6 6.5-1.4 8.3-1.7 1.8-.3 3.5-.9 3.8-1.4.3-.5 1.8-.9 3.4-.9 1.6 0 3.2-.5 3.5-1 .3-.6 1.9-1 3.5-1s3.2-.5 3.5-1c.3-.6 1.5-1 2.6-1 1 0 2.7-.4 3.7-.9.9-.5 3.5-1.4 5.7-2.1 2.2-.7 5.8-2.1 7.9-3.1 2.2-1.1 4.3-1.9 4.8-1.9.4 0 3.1-1.1 6-2.5 2.8-1.4 5.8-2.5 6.5-2.5.7 0 1.3-.5 1.3-1 0-.6.6-1 1.4-1 2.1 0 26.9-13.1 34.3-18.2 2.3-1.5 4.6-2.8 5.2-2.8.6 0 1.1-.5 1.1-1 0-.6.7-1 1.5-1s1.5-.5 1.5-1c0-.6.6-1 1.3-1 .7 0 2.8-1.3 4.7-3 1.9-1.6 4.1-2.9 4.8-3 .6 0 1.2-.3 1.2-.8 0-.4 1.6-1.6 3.5-2.6 1.9-1.1 3.5-2.3 3.5-2.8 0-.4.6-.8 1.4-.8.8 0 1.6-.3 1.8-.8.5-1.2 8.6-7.2 9.7-7.2.5 0 1.1-.4 1.3-.8.2-.4 3.9-3.4 8.3-6.7 4.4-3.3 8.7-6.7 9.6-7.7.9-1 2.1-1.8 2.6-1.8.6 0 2.3-1.2 3.9-2.8 1.6-1.5 4.7-4 6.9-5.7 2.2-1.6 4.5-3.3 5-3.7.6-.4 2.1-1.7 3.5-2.8l2.5-1.9 2.9 3.2c1.5 1.8 4.4 5.2 6.5 7.6z"/><path d="M563.5 488c-.3.5-1.5 1-2.6 1-1 0-1.9.4-1.9 1 0 .5-.7 1-1.5 1-1.7 0-8.8 6.7-12.2 11.5-2.4 3.5-5.3 13.6-5.3 18.6 0 4.3 2.3 11.9 5.2 17.2 2.5 4.7 8.5 10.7 10.5 10.7.7 0 1.3.4 1.3.8 0 1.4 12.5 5.2 17.1 5.2 8.1 0 18.2-4.4 24.6-10.8 2.3-2.4 4.3-5 4.3-5.8 0-.8.4-1.4.8-1.4 1 0 3.2-6 3.2-8.8 0-1.1.5-2.4 1-2.7.6-.3 1-2.6 1-5.1 0-2.4-.4-4.4-1-4.4-.5 0-1-1.5-1-3.4s-.4-3.8-1-4.1c-.5-.3-1-1.5-1-2.6 0-2.9-11.7-14.2-17.2-16.7-3.8-1.8-6.7-2.2-14.2-2.2-5.3 0-9.8.4-10.1 1zM694.5 488c-.3.5-1.5 1-2.6 1-1 0-1.9.4-1.9 1 0 .5-.7 1-1.5 1-2.7 0-10.7 7.6-12.7 12.1-.7 1.6-1.6 2.9-2 2.9-.5 0-.8 1.3-.8 3 0 1.6-.4 3-1 3-1.2 0-1.3 15.4-.1 17.8.5.9 1.9 3.8 3.1 6.4 5.2 10.8 18 18.8 29.9 18.8 6.9 0 17.8-4.2 21.2-8.1.9-1.1 2-1.9 2.5-1.9 1.2 0 6.8-8.6 8.5-13 .8-2 1.4-7.1 1.4-12-.1-7.2-.5-9.3-2.8-14-1.5-3-3.7-6.6-5-8.1-3.3-3.7-11.2-8.9-13.6-8.9-1.2 0-2.1-.5-2.1-1 0-.6-4-1-9.9-1-5.6 0-10.3.4-10.6 1zM584.1 636.1c-6.6 4-8.1 7-8.1 15.8 0 6.7.1 7.1 3.8 10.8 2 2.1 4.8 4.4 6.2 5 9.3 4.1 11.9 5.1 15 5.8 1.9.4 4.1 1.1 5 1.6 5 2.7 15.6 4.2 32 4.7 19 .5 26.6-.4 38.8-4.4 4-1.3 7.7-2.4 8.2-2.4.5 0 4-1.5 7.7-3.2 11.6-5.5 15.3-10.1 15.3-18.6 0-6.6-2.3-10.8-7.9-14.4-4-2.5-5.3-2.9-10.1-2.5-4.7.3-8.5 1.6-23.5 7.7-4.3 1.8-8.5 2.3-22 2.7-13.3.4-22.4-.5-26.7-2.8-1-.5-2.7-.9-3.7-.9-1.1 0-2.3-.5-2.6-1-.3-.6-1.3-1-2.1-1s-3.7-1.1-6.6-2.5c-6.6-3.2-13.9-3.3-18.7-.4z"/></svg>