<?xml version="1.0" encoding="utf-8"?>
<!-- Generator: Adobe Illustrator 16.0.4, SVG Export Plug-In . SVG Version: 6.00 Build 0)  -->
<!DOCTYPE svg PUBLIC "-//W3C//DTD SVG 1.1//EN" "http://www.w3.org/Graphics/SVG/1.1/DTD/svg11.dtd">
<svg version="1.1" id="Ebene_1" xmlns="http://www.w3.org/2000/svg" xmlns:xlink="http://www.w3.org/1999/xlink" x="0px" y="0px"
	 width="574.472px" height="248.971px" viewBox="0 0 574.472 248.971" enable-background="new 0 0 574.472 248.971"
	 xml:space="preserve">
<g>
	<defs>
		<rect id="SVGID_1_" width="382.441" height="248.971"/>
	</defs>
	<clipPath id="SVGID_2_">
		<use xlink:href="#SVGID_1_"  overflow="visible"/>
	</clipPath>
	<path clip-path="url(#SVGID_2_)" d="M15.139,56.453h1.193v5.21c0,0.907-0.102,1.626-0.307,2.16c-0.205,0.532-0.574,0.967-1.112,1.3
		c-0.533,0.336-1.236,0.502-2.106,0.502c-0.844,0-1.535-0.146-2.073-0.438c-0.537-0.291-0.92-0.711-1.15-1.263
		c-0.23-0.551-0.345-1.306-0.345-2.262v-5.21h1.194v5.204c0,0.783,0.072,1.361,0.219,1.73c0.144,0.373,0.394,0.658,0.751,0.859
		c0.353,0.201,0.787,0.301,1.3,0.301c0.878,0,1.503-0.198,1.876-0.596c0.373-0.398,0.56-1.163,0.56-2.295V56.453z"/>
	<path clip-path="url(#SVGID_2_)" d="M18.178,65.471v-6.532h0.997v0.929c0.479-0.718,1.172-1.077,2.079-1.077
		c0.394,0,0.754,0.07,1.086,0.214c0.329,0.14,0.577,0.326,0.741,0.556s0.279,0.503,0.344,0.817c0.041,0.206,0.062,0.564,0.062,1.077
		v4.017h-1.108v-3.974c0-0.451-0.043-0.787-0.129-1.013c-0.086-0.222-0.238-0.4-0.459-0.533c-0.217-0.133-0.476-0.201-0.771-0.201
		c-0.472,0-0.878,0.15-1.222,0.449c-0.341,0.299-0.513,0.867-0.513,1.704v3.567H18.178z"/>
</g>
<path d="M25.191,58.938h1.107v6.533h-1.107V58.938z M25.191,56.453h1.107v1.272h-1.107V56.453z"/>
<g>
	<defs>
		<rect id="SVGID_3_" width="382.441" height="248.971"/>
	</defs>
	<clipPath id="SVGID_4_">
		<use xlink:href="#SVGID_3_"  overflow="visible"/>
	</clipPath>
	<path clip-path="url(#SVGID_4_)" d="M32.246,63.078l1.089,0.141c-0.119,0.751-0.423,1.337-0.915,1.765
		c-0.488,0.422-1.091,0.636-1.804,0.636c-0.894,0-1.612-0.292-2.157-0.878c-0.542-0.582-0.814-1.421-0.814-2.512
		c0-0.705,0.117-1.323,0.35-1.853c0.234-0.529,0.591-0.926,1.067-1.188c0.479-0.267,0.998-0.398,1.56-0.398
		c0.71,0,1.29,0.181,1.741,0.538c0.451,0.36,0.74,0.869,0.867,1.529l-1.076,0.166c-0.103-0.438-0.283-0.77-0.546-0.99
		c-0.258-0.221-0.574-0.332-0.943-0.332c-0.558,0-1.011,0.201-1.359,0.599c-0.349,0.401-0.523,1.033-0.523,1.898
		c0,0.878,0.168,1.516,0.504,1.913c0.336,0.397,0.775,0.597,1.317,0.597c0.434,0,0.797-0.133,1.088-0.399
		C31.984,64.042,32.168,63.632,32.246,63.078"/>
	<path clip-path="url(#SVGID_4_)" d="M35.008,62.205c0,0.837,0.183,1.464,0.548,1.88c0.365,0.417,0.824,0.624,1.377,0.624
		c0.55,0,1.007-0.209,1.373-0.628c0.364-0.418,0.547-1.057,0.547-1.913c0-0.809-0.183-1.419-0.552-1.835
		c-0.365-0.416-0.822-0.626-1.368-0.626c-0.553,0-1.012,0.208-1.377,0.621C35.191,60.742,35.008,61.367,35.008,62.205 M33.87,62.205
		c0-1.211,0.336-2.106,1.009-2.688c0.562-0.484,1.247-0.726,2.054-0.726c0.899,0,1.633,0.295,2.203,0.882
		c0.57,0.59,0.855,1.401,0.855,2.439c0,0.84-0.127,1.503-0.377,1.985c-0.255,0.482-0.62,0.854-1.103,1.121
		c-0.48,0.267-1.007,0.399-1.578,0.399c-0.914,0-1.654-0.293-2.216-0.88C34.151,64.152,33.87,63.308,33.87,62.205"/>
	<path clip-path="url(#SVGID_4_)" d="M42.027,62.211c0,0.836,0.176,1.462,0.529,1.876c0.352,0.414,0.769,0.621,1.249,0.621
		c0.484,0,0.894-0.197,1.234-0.594c0.336-0.395,0.506-0.999,0.506-1.812c0-0.894-0.172-1.55-0.516-1.969
		c-0.345-0.418-0.769-0.627-1.273-0.627c-0.493,0-0.903,0.201-1.235,0.604C42.193,60.712,42.027,61.345,42.027,62.211
		 M45.527,65.471v-0.823c-0.414,0.647-1.023,0.972-1.827,0.972c-0.521,0-0.999-0.144-1.437-0.431
		c-0.435-0.287-0.775-0.688-1.013-1.202c-0.242-0.515-0.361-1.107-0.361-1.775c0-0.651,0.108-1.243,0.326-1.775
		c0.217-0.529,0.543-0.938,0.978-1.221c0.434-0.283,0.921-0.425,1.458-0.425c0.394,0,0.744,0.082,1.052,0.251
		c0.307,0.164,0.558,0.381,0.75,0.648v-3.236h1.101v9.018H45.527z"/>
	<path clip-path="url(#SVGID_4_)" d="M49.133,61.577h3.647c-0.049-0.55-0.188-0.962-0.418-1.237
		c-0.353-0.426-0.81-0.639-1.372-0.639c-0.508,0-0.935,0.17-1.283,0.51C49.362,60.553,49.169,61.008,49.133,61.577 M52.768,63.367
		l1.144,0.142c-0.18,0.669-0.514,1.188-1.003,1.557c-0.487,0.369-1.111,0.553-1.869,0.553c-0.956,0-1.715-0.293-2.272-0.881
		c-0.562-0.589-0.841-1.415-0.841-2.477c0-1.1,0.283-1.952,0.849-2.56c0.566-0.606,1.3-0.911,2.202-0.911
		c0.874,0,1.587,0.297,2.141,0.893c0.553,0.595,0.83,1.431,0.83,2.51l-0.006,0.295h-4.872c0.041,0.718,0.244,1.267,0.609,1.649
		c0.365,0.381,0.82,0.571,1.366,0.571c0.406,0,0.752-0.106,1.039-0.319C52.372,64.176,52.6,63.834,52.768,63.367"/>
</g>
<path d="M55.61,64.21h1.261v1.261H55.61V64.21z M55.61,58.938h1.261v1.261H55.61V58.938z"/>
<g>
	<defs>
		<rect id="SVGID_5_" width="382.441" height="248.971"/>
	</defs>
	<clipPath id="SVGID_6_">
		<use xlink:href="#SVGID_5_"  overflow="visible"/>
	</clipPath>
	<path clip-path="url(#SVGID_6_)" d="M66.166,65.471h-1.107v-7.056c-0.267,0.254-0.617,0.509-1.048,0.763
		c-0.435,0.254-0.822,0.445-1.167,0.572v-1.07c0.619-0.292,1.161-0.644,1.624-1.058c0.464-0.415,0.792-0.817,0.985-1.206h0.713
		V65.471z"/>
</g>
<polygon points="69.513,65.471 69.513,56.453 75.597,56.453 75.597,57.518 70.706,57.518 70.706,60.311 74.938,60.311 
	74.938,61.374 70.706,61.374 70.706,65.471 "/>
<g>
	<defs>
		<rect id="SVGID_7_" width="382.441" height="248.971"/>
	</defs>
	<clipPath id="SVGID_8_">
		<use xlink:href="#SVGID_7_"  overflow="visible"/>
	</clipPath>
	<path clip-path="url(#SVGID_8_)" d="M76.704,63.091l1.107-0.148c0.127,0.628,0.343,1.081,0.648,1.356
		c0.306,0.278,0.679,0.416,1.118,0.416c0.52,0,0.959-0.181,1.318-0.541c0.359-0.361,0.539-0.809,0.539-1.342
		c0-0.509-0.166-0.927-0.498-1.257s-0.754-0.497-1.267-0.497c-0.209,0-0.47,0.041-0.781,0.123l0.123-0.971l0.178,0.012
		c0.472,0,0.896-0.123,1.273-0.369c0.378-0.245,0.566-0.626,0.566-1.138c0-0.406-0.137-0.743-0.412-1.009
		c-0.274-0.267-0.629-0.4-1.064-0.4c-0.431,0-0.79,0.136-1.076,0.406c-0.288,0.271-0.472,0.677-0.554,1.218l-1.107-0.196
		c0.135-0.742,0.442-1.316,0.922-1.727c0.48-0.406,1.077-0.611,1.79-0.611c0.493,0,0.946,0.106,1.36,0.315
		c0.414,0.213,0.73,0.501,0.951,0.866c0.218,0.365,0.328,0.752,0.328,1.162c0,0.39-0.104,0.745-0.313,1.064
		s-0.519,0.574-0.929,0.763c0.533,0.123,0.947,0.378,1.242,0.767c0.296,0.386,0.444,0.872,0.444,1.454
		c0,0.787-0.288,1.454-0.862,2.003c-0.574,0.546-1.3,0.821-2.177,0.821c-0.792,0-1.448-0.236-1.973-0.708
		C77.077,64.452,76.778,63.841,76.704,63.091"/>
	<path clip-path="url(#SVGID_8_)" d="M83.704,63.109l1.163-0.099c0.086,0.566,0.287,0.992,0.599,1.275
		c0.315,0.287,0.693,0.429,1.136,0.429c0.533,0,0.984-0.201,1.353-0.603c0.369-0.402,0.553-0.936,0.553-1.601
		c0-0.631-0.178-1.13-0.533-1.495c-0.354-0.364-0.818-0.547-1.392-0.547c-0.357,0-0.679,0.082-0.966,0.244s-0.512,0.371-0.676,0.629
		l-1.04-0.135l0.873-4.632h4.485v1.058H85.66l-0.486,2.424c0.542-0.377,1.11-0.565,1.704-0.565c0.788,0,1.452,0.272,1.993,0.817
		c0.542,0.545,0.812,1.247,0.812,2.104c0,0.815-0.237,1.521-0.713,2.116c-0.578,0.729-1.368,1.095-2.368,1.095
		c-0.821,0-1.491-0.23-2.01-0.689S83.778,63.868,83.704,63.109"/>
</g>
<path d="M94.26,62.297v-4.065l-2.823,4.065H94.26z M94.26,65.471v-2.158h-3.912v-1.016l4.115-5.844h0.904v5.844h1.218v1.016h-1.218
	v2.158H94.26z"/>
<path d="M13.917,45.434v-6.423l-2.141,3.212L13.917,45.434z M13.537,46l-2.14-3.211L9.256,46H13.537z M13.537,38.444H9.256
	l2.141,3.21L13.537,38.444z M8.879,45.434l2.14-3.211l-2.14-3.212V45.434z M8.249,37.815h6.295v8.813H8.249V37.815z"/>
<g>
	<defs>
		<rect id="SVGID_9_" width="382.441" height="248.971"/>
	</defs>
	<clipPath id="SVGID_10_">
		<use xlink:href="#SVGID_9_"  overflow="visible"/>
	</clipPath>
	<path clip-path="url(#SVGID_10_)" d="M14.936,5.856l1.766,0.56C16.431,7.4,15.98,8.132,15.352,8.61
		c-0.631,0.478-1.429,0.715-2.397,0.715c-1.197,0-2.182-0.408-2.952-1.228C9.231,7.281,8.846,6.162,8.846,4.743
		c0-1.502,0.388-2.666,1.163-3.499C10.784,0.416,11.803,0,13.066,0c1.103,0,1.999,0.326,2.688,0.979
		c0.41,0.385,0.718,0.938,0.923,1.661l-1.803,0.43c-0.106-0.467-0.33-0.836-0.666-1.107c-0.34-0.271-0.75-0.405-1.234-0.405
		c-0.669,0-1.21,0.239-1.629,0.72c-0.414,0.479-0.623,1.257-0.623,2.331c0,1.14,0.205,1.952,0.615,2.436
		c0.41,0.484,0.944,0.727,1.6,0.727c0.484,0,0.9-0.154,1.248-0.461C14.534,7,14.784,6.517,14.936,5.856"/>
	<path clip-path="url(#SVGID_10_)" d="M19.624,5.905c0,0.647,0.153,1.144,0.461,1.489c0.308,0.344,0.687,0.517,1.138,0.517
		c0.451,0,0.831-0.173,1.134-0.517c0.308-0.346,0.459-0.846,0.459-1.501c0-0.641-0.151-1.133-0.459-1.477
		C22.054,4.072,21.673,3.9,21.223,3.9c-0.451,0-0.83,0.172-1.138,0.517C19.776,4.761,19.624,5.257,19.624,5.905 M17.852,5.813
		c0-0.574,0.142-1.13,0.425-1.667c0.283-0.537,0.685-0.947,1.201-1.23c0.521-0.283,1.099-0.425,1.739-0.425
		c0.988,0,1.798,0.322,2.43,0.964c0.631,0.642,0.947,1.452,0.947,2.432c0,0.988-0.318,1.809-0.957,2.456
		C23,8.995,22.196,9.319,21.229,9.319c-0.598,0-1.168-0.135-1.714-0.406c-0.541-0.27-0.955-0.668-1.238-1.188
		C17.994,7.199,17.852,6.563,17.852,5.813"/>
	<path clip-path="url(#SVGID_10_)" d="M31.89,9.172h-1.729V5.838c0-0.706-0.036-1.161-0.11-1.37
		c-0.074-0.205-0.193-0.367-0.361-0.481c-0.164-0.115-0.365-0.173-0.599-0.173c-0.299,0-0.568,0.082-0.806,0.246
		c-0.238,0.164-0.4,0.382-0.49,0.652c-0.086,0.271-0.131,0.771-0.131,1.501v2.959h-1.729V2.639h1.606v0.96
		c0.57-0.738,1.288-1.107,2.153-1.107c0.381,0,0.73,0.069,1.045,0.205c0.316,0.14,0.554,0.313,0.718,0.526
		c0.16,0.214,0.275,0.456,0.337,0.727c0.065,0.271,0.096,0.658,0.096,1.163V9.172z"/>
	<path clip-path="url(#SVGID_10_)" d="M36.639,2.639v1.378h-1.181V6.65c0,0.532,0.01,0.845,0.035,0.931L35.644,7.8l0.294,0.086
		c0.16,0,0.391-0.055,0.695-0.166l0.147,1.341c-0.401,0.172-0.857,0.26-1.365,0.26c-0.312,0-0.593-0.055-0.843-0.156
		c-0.25-0.107-0.433-0.242-0.552-0.406c-0.114-0.168-0.196-0.392-0.242-0.675c-0.036-0.201-0.055-0.607-0.055-1.218V4.017H32.93
		V2.639h0.793V1.341l1.735-1.009v2.307H36.639z"/>
	<path clip-path="url(#SVGID_10_)" d="M39.21,5.905c0,0.647,0.153,1.144,0.461,1.489c0.307,0.344,0.687,0.517,1.138,0.517
		c0.451,0,0.83-0.173,1.134-0.517c0.308-0.346,0.459-0.846,0.459-1.501c0-0.641-0.151-1.133-0.459-1.477
		C41.639,4.072,41.26,3.9,40.81,3.9c-0.451,0-0.831,0.172-1.138,0.517C39.363,4.761,39.21,5.257,39.21,5.905 M37.438,5.813
		c0-0.574,0.141-1.13,0.424-1.667c0.283-0.537,0.685-0.947,1.202-1.23c0.521-0.283,1.099-0.425,1.739-0.425
		c0.988,0,1.798,0.322,2.43,0.964c0.631,0.642,0.947,1.452,0.947,2.432c0,0.988-0.318,1.809-0.957,2.456
		c-0.636,0.652-1.44,0.977-2.408,0.977c-0.599,0-1.169-0.135-1.714-0.406c-0.542-0.27-0.956-0.668-1.239-1.188
		C37.58,7.199,37.438,6.563,37.438,5.813"/>
	<path clip-path="url(#SVGID_10_)" d="M49.833,9.172V8.194c-0.238,0.348-0.549,0.623-0.939,0.823
		c-0.386,0.201-0.796,0.303-1.227,0.303c-0.438,0-0.832-0.098-1.181-0.289c-0.348-0.193-0.6-0.464-0.756-0.812
		c-0.156-0.349-0.234-0.831-0.234-1.446V2.639h1.729v3.002c0,0.919,0.032,1.483,0.094,1.69c0.066,0.207,0.181,0.371,0.348,0.492
		c0.169,0.121,0.382,0.18,0.64,0.18c0.296,0,0.56-0.08,0.794-0.242c0.234-0.162,0.394-0.365,0.48-0.603
		c0.086-0.242,0.129-0.828,0.129-1.764V2.639h1.728v6.533H49.833z"/>
	<path clip-path="url(#SVGID_10_)" d="M54.884,9.172h-1.729V2.639h1.606v0.93c0.275-0.439,0.523-0.729,0.74-0.867
		c0.222-0.141,0.47-0.21,0.749-0.21c0.393,0,0.773,0.108,1.137,0.326l-0.534,1.508c-0.292-0.189-0.562-0.283-0.813-0.283
		c-0.242,0-0.447,0.067-0.615,0.201c-0.168,0.133-0.301,0.373-0.396,0.721c-0.098,0.349-0.145,1.079-0.145,2.19V9.172z"/>
	<path clip-path="url(#SVGID_10_)" d="M8.667,27.938l1.882-9.019h1.114l-0.72,3.463c0.414-0.401,0.8-0.688,1.157-0.862
		c0.356-0.174,0.723-0.264,1.101-0.264c0.541,0,0.961,0.145,1.261,0.428c0.299,0.287,0.449,0.662,0.449,1.13
		c0,0.229-0.066,0.651-0.197,1.267l-0.806,3.857h-1.113l0.83-3.955c0.119-0.575,0.179-0.937,0.179-1.083
		c0-0.213-0.074-0.389-0.222-0.523c-0.148-0.135-0.361-0.203-0.639-0.203c-0.403,0-0.786,0.107-1.151,0.318
		c-0.365,0.211-0.652,0.5-0.857,0.865c-0.209,0.369-0.398,0.96-0.57,1.775L9.78,27.938H8.667z"/>
	<path clip-path="url(#SVGID_10_)" d="M20.491,24.629l-0.5,0.142c-0.18,0.032-0.478,0.067-0.896,0.104
		c-0.648,0.058-1.105,0.131-1.372,0.217c-0.266,0.091-0.467,0.23-0.603,0.423c-0.135,0.192-0.203,0.405-0.203,0.64
		c0,0.312,0.109,0.568,0.322,0.769c0.218,0.201,0.523,0.303,0.921,0.303c0.369,0,0.724-0.098,1.064-0.292
		c0.34-0.194,0.609-0.468,0.806-0.816C20.227,25.77,20.379,25.272,20.491,24.629 M20.079,27.126
		c-0.385,0.332-0.757,0.574-1.113,0.73c-0.357,0.151-0.739,0.229-1.145,0.229c-0.602,0-1.089-0.177-1.457-0.533
		c-0.37-0.353-0.554-0.808-0.554-1.361c0-0.365,0.084-0.688,0.248-0.968c0.168-0.281,0.387-0.507,0.662-0.677
		c0.275-0.171,0.611-0.294,1.009-0.367c0.25-0.05,0.724-0.089,1.425-0.116c0.697-0.029,1.2-0.104,1.503-0.223
		c0.086-0.303,0.129-0.556,0.129-0.757c0-0.258-0.094-0.461-0.283-0.608c-0.258-0.205-0.635-0.308-1.131-0.308
		c-0.468,0-0.849,0.104-1.149,0.312c-0.295,0.207-0.512,0.5-0.648,0.881l-1.125-0.098c0.229-0.648,0.592-1.145,1.093-1.489
		c0.496-0.344,1.125-0.518,1.884-0.518c0.808,0,1.448,0.193,1.919,0.579c0.361,0.287,0.542,0.66,0.542,1.119
		c0,0.35-0.052,0.753-0.154,1.212l-0.363,1.624c-0.115,0.518-0.172,0.938-0.172,1.261c0,0.205,0.045,0.501,0.135,0.887h-1.126
		C20.146,27.726,20.104,27.454,20.079,27.126"/>
	<path clip-path="url(#SVGID_10_)" d="M22.674,27.938l1.366-6.533h1.113l-0.228,1.077c0.415-0.464,0.786-0.784,1.11-0.96
		c0.328-0.176,0.681-0.266,1.062-0.266c0.406,0,0.746,0.107,1.017,0.324c0.275,0.214,0.453,0.516,0.539,0.901
		c0.333-0.41,0.683-0.716,1.048-0.921c0.369-0.201,0.755-0.305,1.161-0.305c0.545,0,0.955,0.13,1.226,0.389
		c0.275,0.258,0.41,0.621,0.41,1.089c0,0.201-0.047,0.533-0.142,0.996l-0.879,4.208h-1.114l0.899-4.318
		c0.078-0.353,0.116-0.604,0.116-0.757c0-0.213-0.067-0.381-0.203-0.504c-0.135-0.124-0.326-0.186-0.572-0.186
		c-0.332,0-0.67,0.102-1.015,0.302c-0.344,0.2-0.613,0.464-0.801,0.792c-0.193,0.323-0.359,0.825-0.503,1.503l-0.664,3.168h-1.114
		l0.923-4.411c0.066-0.299,0.098-0.512,0.098-0.639c0-0.215-0.065-0.387-0.2-0.518c-0.132-0.131-0.306-0.197-0.519-0.197
		c-0.316,0-0.646,0.102-0.995,0.302c-0.344,0.2-0.627,0.481-0.844,0.841c-0.218,0.358-0.396,0.87-0.536,1.534l-0.646,3.088H22.674z"
		/>
	<path clip-path="url(#SVGID_10_)" d="M34.824,25.256l-0.007,0.209c0,0.559,0.134,0.982,0.4,1.274
		c0.267,0.291,0.599,0.436,0.997,0.436c0.389,0,0.746-0.135,1.074-0.409c0.324-0.271,0.593-0.697,0.802-1.275s0.314-1.112,0.314-1.6
		c0-0.55-0.131-0.977-0.398-1.279c-0.262-0.304-0.591-0.455-0.98-0.455c-0.402,0-0.771,0.155-1.108,0.463
		c-0.336,0.312-0.617,0.787-0.842,1.431C34.908,24.53,34.824,24.933,34.824,25.256 M33.175,27.938l1.882-9.019h1.114L35.5,22.144
		c0.353-0.324,0.673-0.552,0.96-0.686c0.287-0.133,0.586-0.201,0.898-0.201c0.611,0,1.12,0.229,1.53,0.684
		c0.406,0.456,0.611,1.118,0.611,1.986c0,0.579-0.082,1.108-0.246,1.588c-0.164,0.479-0.367,0.882-0.609,1.21
		c-0.242,0.323-0.492,0.587-0.751,0.778c-0.258,0.197-0.523,0.344-0.793,0.439c-0.271,0.095-0.531,0.144-0.781,0.144
		c-0.431,0-0.811-0.114-1.139-0.341c-0.328-0.229-0.584-0.576-0.768-1.043l-0.259,1.236H33.175z"/>
	<path clip-path="url(#SVGID_10_)" d="M44.642,26.757c-0.783,0.887-1.585,1.329-2.405,1.329c-0.505,0-0.913-0.144-1.22-0.435
		c-0.312-0.287-0.466-0.643-0.466-1.061c0-0.274,0.07-0.745,0.209-1.415l0.788-3.771h1.113l-0.873,4.177
		c-0.074,0.35-0.111,0.619-0.111,0.812c0,0.246,0.074,0.438,0.225,0.576c0.148,0.138,0.37,0.204,0.661,0.204
		c0.311,0,0.615-0.075,0.914-0.227c0.296-0.152,0.554-0.357,0.767-0.615c0.218-0.259,0.392-0.563,0.527-0.917
		c0.091-0.226,0.195-0.621,0.314-1.187l0.591-2.824h1.113l-1.366,6.533h-1.027L44.642,26.757z"/>
	<path clip-path="url(#SVGID_10_)" d="M47.188,27.938l1.366-6.533h0.984l-0.277,1.335c0.336-0.505,0.667-0.878,0.987-1.12
		c0.323-0.242,0.651-0.363,0.988-0.363c0.221,0,0.494,0.08,0.818,0.24L51.6,22.531c-0.193-0.14-0.404-0.209-0.634-0.209
		c-0.39,0-0.789,0.217-1.199,0.652c-0.411,0.434-0.733,1.216-0.966,2.344l-0.554,2.62H47.188z"/>
	<path clip-path="url(#SVGID_10_)" d="M52.712,25.047c0,0.447,0.043,0.784,0.129,1.009c0.123,0.316,0.298,0.559,0.527,0.722
		c0.226,0.169,0.48,0.25,0.759,0.25c0.365,0,0.728-0.127,1.089-0.385c0.361-0.255,0.654-0.652,0.876-1.189
		c0.225-0.537,0.336-1.051,0.336-1.538c0-0.537-0.148-0.963-0.447-1.283c-0.295-0.316-0.665-0.476-1.104-0.476
		c-0.27,0-0.533,0.073-0.787,0.217c-0.254,0.147-0.492,0.37-0.709,0.665c-0.222,0.299-0.386,0.653-0.5,1.067
		C52.771,24.52,52.712,24.834,52.712,25.047 M51.322,28.529l1.126,0.104c-0.008,0.254,0.022,0.445,0.092,0.572l0.332,0.295
		c0.201,0.09,0.462,0.135,0.781,0.135c0.673,0,1.157-0.174,1.452-0.522c0.193-0.233,0.371-0.742,0.535-1.525l0.111-0.529
		c-0.578,0.586-1.193,0.879-1.845,0.879c-0.661,0-1.214-0.241-1.657-0.729c-0.447-0.483-0.669-1.172-0.669-2.062
		c0-0.733,0.177-1.409,0.525-2.023c0.353-0.615,0.769-1.081,1.253-1.394c0.484-0.314,0.982-0.471,1.495-0.471
		c0.857,0,1.518,0.406,1.981,1.218l0.221-1.07h1.022l-1.317,6.306c-0.143,0.693-0.332,1.231-0.566,1.622
		c-0.234,0.385-0.558,0.687-0.976,0.899c-0.414,0.214-0.896,0.32-1.442,0.32c-0.524,0-0.978-0.068-1.355-0.203
		c-0.381-0.135-0.664-0.334-0.849-0.595c-0.188-0.26-0.281-0.558-0.281-0.895L51.322,28.529z"/>
	<path clip-path="url(#SVGID_10_)" d="M59.953,24.1h3.667l0.006-0.246c0-0.558-0.14-0.984-0.418-1.284
		c-0.279-0.295-0.638-0.444-1.077-0.444c-0.476,0-0.911,0.164-1.3,0.492C60.437,22.945,60.146,23.439,59.953,24.1 M63.188,25.718
		l1.083,0.11c-0.156,0.537-0.513,1.049-1.075,1.531c-0.557,0.484-1.226,0.727-2.001,0.727c-0.484,0-0.929-0.112-1.331-0.336
		c-0.406-0.222-0.713-0.548-0.923-0.975c-0.213-0.426-0.317-0.912-0.317-1.458c0-0.713,0.166-1.407,0.494-2.075
		c0.332-0.673,0.759-1.169,1.283-1.497c0.525-0.323,1.093-0.487,1.704-0.487c0.78,0,1.401,0.242,1.866,0.726
		c0.466,0.484,0.7,1.145,0.7,1.981c0,0.319-0.029,0.647-0.086,0.983h-4.811l-0.025,0.346c0,0.61,0.14,1.077,0.421,1.397
		c0.281,0.324,0.625,0.484,1.031,0.484c0.382,0,0.757-0.125,1.126-0.375S62.983,26.189,63.188,25.718"/>
	<path clip-path="url(#SVGID_10_)" d="M65.397,27.938l1.366-6.533h0.984L67.47,22.74c0.336-0.505,0.664-0.878,0.986-1.12
		c0.322-0.242,0.652-0.363,0.989-0.363c0.221,0,0.494,0.08,0.818,0.24l-0.455,1.034c-0.193-0.14-0.404-0.209-0.634-0.209
		c-0.39,0-0.79,0.217-1.2,0.652c-0.41,0.434-0.732,1.216-0.965,2.344l-0.554,2.62H65.397z"/>
	<path clip-path="url(#SVGID_10_)" d="M10.833,80.534h3.057l-0.941-2.498c-0.287-0.759-0.5-1.382-0.64-1.87
		c-0.114,0.578-0.276,1.152-0.486,1.723L10.833,80.534z M8.23,84.237l3.463-9.018h1.286l3.691,9.018h-1.359l-1.052-2.73h-3.771
		l-0.991,2.73H8.23z"/>
	<path clip-path="url(#SVGID_10_)" d="M21.764,84.237v-0.96c-0.509,0.738-1.2,1.108-2.073,1.108c-0.386,0-0.746-0.074-1.079-0.223
		c-0.336-0.147-0.582-0.332-0.746-0.558c-0.16-0.221-0.275-0.496-0.34-0.82c-0.046-0.217-0.068-0.562-0.068-1.032v-4.049h1.107
		v3.623c0,0.578,0.023,0.969,0.068,1.169c0.07,0.291,0.217,0.52,0.443,0.688c0.225,0.164,0.504,0.248,0.836,0.248
		c0.333,0,0.644-0.084,0.935-0.256c0.292-0.168,0.497-0.4,0.62-0.693c0.119-0.294,0.18-0.72,0.18-1.278v-3.5h1.107v6.533H21.764z"/>
	<path clip-path="url(#SVGID_10_)" d="M26.907,83.247l0.16,0.979c-0.312,0.065-0.59,0.099-0.837,0.099
		c-0.401,0-0.713-0.064-0.934-0.191c-0.222-0.127-0.378-0.293-0.468-0.503c-0.09-0.205-0.135-0.641-0.135-1.306v-3.758h-0.813
		v-0.862h0.813v-1.617l1.101-0.665v2.282h1.113v0.862h-1.113v3.819c0,0.316,0.02,0.52,0.057,0.609l0.193,0.215l0.377,0.08
		C26.543,83.29,26.706,83.276,26.907,83.247"/>
	<path clip-path="url(#SVGID_10_)" d="M27.99,84.237V75.22h1.107v3.234c0.517-0.598,1.169-0.897,1.956-0.897
		c0.484,0,0.905,0.095,1.261,0.287c0.357,0.188,0.612,0.454,0.767,0.79c0.152,0.336,0.23,0.823,0.23,1.464v4.14h-1.107v-4.14
		c0-0.554-0.119-0.958-0.361-1.208c-0.238-0.254-0.579-0.379-1.017-0.379c-0.328,0-0.636,0.086-0.927,0.256
		c-0.287,0.17-0.494,0.399-0.617,0.69s-0.185,0.693-0.185,1.206v3.574H27.99z"/>
	<path clip-path="url(#SVGID_10_)" d="M35.722,80.971c0,0.837,0.182,1.464,0.547,1.88c0.366,0.417,0.825,0.624,1.378,0.624
		c0.55,0,1.007-0.209,1.372-0.628c0.365-0.418,0.548-1.056,0.548-1.913c0-0.808-0.183-1.419-0.552-1.835
		c-0.365-0.416-0.822-0.625-1.368-0.625c-0.553,0-1.012,0.207-1.378,0.621C35.904,79.509,35.722,80.134,35.722,80.971
		 M34.584,80.971c0-1.21,0.336-2.105,1.009-2.688c0.562-0.484,1.247-0.727,2.054-0.727c0.899,0,1.633,0.295,2.203,0.882
		c0.57,0.591,0.855,1.402,0.855,2.44c0,0.841-0.127,1.503-0.378,1.985c-0.254,0.481-0.619,0.854-1.103,1.121
		c-0.48,0.267-1.006,0.399-1.577,0.399c-0.914,0-1.654-0.293-2.216-0.879C34.865,82.919,34.584,82.074,34.584,80.971"/>
	<path clip-path="url(#SVGID_10_)" d="M41.99,84.237v-6.533h0.997v0.99c0.254-0.463,0.49-0.769,0.703-0.916
		c0.217-0.147,0.453-0.222,0.711-0.222c0.374,0,0.753,0.119,1.139,0.356l-0.382,1.027c-0.271-0.16-0.541-0.239-0.812-0.239
		c-0.242,0-0.459,0.073-0.652,0.218c-0.193,0.146-0.33,0.348-0.412,0.606c-0.123,0.395-0.185,0.824-0.185,1.292v3.42H41.99z"/>
</g>
<path d="M46.506,82.977h1.261v1.261h-1.261V82.977z M46.506,77.705h1.261v1.261h-1.261V77.705z"/>
<polygon points="53.377,84.237 53.377,75.22 54.57,75.22 54.57,78.923 59.258,78.923 59.258,75.22 60.451,75.22 60.451,84.237 
	59.258,84.237 59.258,79.986 54.57,79.986 54.57,84.237 "/>
<g>
	<defs>
		<rect id="SVGID_11_" width="382.441" height="248.971"/>
	</defs>
	<clipPath id="SVGID_12_">
		<use xlink:href="#SVGID_11_"  overflow="visible"/>
	</clipPath>
	<path clip-path="url(#SVGID_12_)" d="M66.468,80.959c-0.402,0.164-1.005,0.304-1.809,0.418c-0.455,0.065-0.777,0.14-0.966,0.222
		l-0.436,0.359c-0.103,0.159-0.154,0.334-0.154,0.526c0,0.295,0.111,0.541,0.336,0.738c0.221,0.197,0.55,0.295,0.98,0.295
		c0.427,0,0.806-0.092,1.138-0.281c0.333-0.184,0.577-0.44,0.732-0.765c0.119-0.25,0.179-0.619,0.179-1.107V80.959z M66.56,83.432
		c-0.41,0.349-0.806,0.595-1.185,0.738c-0.38,0.144-0.786,0.215-1.22,0.215c-0.718,0-1.269-0.176-1.655-0.524
		c-0.385-0.353-0.578-0.8-0.578-1.346c0-0.319,0.072-0.611,0.217-0.877c0.146-0.263,0.336-0.476,0.574-0.636
		c0.234-0.16,0.501-0.281,0.796-0.363c0.217-0.057,0.545-0.113,0.984-0.166c0.894-0.107,1.552-0.234,1.975-0.381l0.006-0.289
		c0-0.452-0.105-0.77-0.314-0.954c-0.283-0.25-0.703-0.375-1.261-0.375c-0.521,0-0.906,0.092-1.152,0.273
		c-0.25,0.184-0.433,0.506-0.552,0.969l-1.083-0.147c0.099-0.464,0.261-0.837,0.486-1.122c0.226-0.284,0.552-0.504,0.979-0.659
		c0.426-0.152,0.92-0.23,1.482-0.23c0.558,0,1.011,0.066,1.36,0.197c0.348,0.131,0.604,0.297,0.768,0.496
		c0.165,0.198,0.279,0.448,0.345,0.753c0.037,0.188,0.055,0.528,0.055,1.021V81.5c0,1.029,0.023,1.682,0.072,1.955
		c0.045,0.271,0.14,0.532,0.279,0.782h-1.157C66.667,84.008,66.593,83.739,66.56,83.432"/>
	<path clip-path="url(#SVGID_12_)" d="M69.303,84.237v-6.533H70.3v0.93c0.48-0.719,1.173-1.077,2.079-1.077
		c0.394,0,0.755,0.07,1.085,0.214c0.33,0.139,0.578,0.326,0.742,0.555c0.164,0.23,0.279,0.503,0.344,0.818
		c0.041,0.205,0.062,0.563,0.062,1.077v4.017h-1.107v-3.974c0-0.451-0.043-0.787-0.13-1.013c-0.086-0.222-0.24-0.4-0.457-0.533
		c-0.221-0.133-0.478-0.201-0.773-0.201c-0.471,0-0.88,0.149-1.22,0.449c-0.345,0.299-0.515,0.866-0.515,1.704v3.567H69.303z"/>
	<path clip-path="url(#SVGID_12_)" d="M75.867,82.287l1.095-0.172c0.061,0.438,0.232,0.775,0.515,1.01
		c0.278,0.232,0.672,0.35,1.177,0.35c0.508,0,0.885-0.103,1.131-0.312c0.247-0.203,0.37-0.447,0.37-0.727
		c0-0.251-0.109-0.447-0.327-0.591c-0.151-0.099-0.528-0.225-1.131-0.375c-0.812-0.205-1.376-0.382-1.688-0.533
		c-0.316-0.148-0.553-0.357-0.713-0.62c-0.164-0.266-0.244-0.557-0.244-0.877c0-0.291,0.065-0.56,0.198-0.808
		c0.134-0.248,0.316-0.455,0.546-0.619c0.172-0.127,0.406-0.234,0.705-0.324c0.296-0.086,0.615-0.132,0.956-0.132
		c0.513,0,0.964,0.074,1.349,0.222c0.389,0.148,0.675,0.349,0.859,0.6c0.185,0.254,0.312,0.59,0.382,1.013l-1.083,0.146
		c-0.049-0.336-0.193-0.599-0.429-0.786c-0.235-0.189-0.568-0.283-0.998-0.283c-0.509,0-0.872,0.084-1.089,0.252
		c-0.218,0.168-0.326,0.365-0.326,0.591l0.135,0.387c0.09,0.119,0.232,0.218,0.425,0.295c0.11,0.041,0.436,0.137,0.978,0.283
		c0.783,0.21,1.329,0.382,1.638,0.513c0.31,0.136,0.554,0.328,0.73,0.582c0.177,0.256,0.265,0.57,0.265,0.948
		c0,0.369-0.109,0.717-0.322,1.041c-0.218,0.329-0.527,0.579-0.933,0.759c-0.406,0.177-0.866,0.268-1.378,0.268
		c-0.849,0-1.497-0.177-1.942-0.529C76.273,83.504,75.99,82.98,75.867,82.287"/>
	<path clip-path="url(#SVGID_12_)" d="M87.167,80.534h3.057l-0.941-2.498c-0.287-0.759-0.5-1.382-0.64-1.87
		c-0.114,0.578-0.276,1.152-0.486,1.723L87.167,80.534z M84.565,84.237l3.463-9.018h1.286l3.691,9.018h-1.359l-1.052-2.73h-3.771
		l-0.991,2.73H84.565z"/>
</g>
<rect x="93.793" y="75.22" width="1.107" height="9.018"/>
<g>
	<defs>
		<rect id="SVGID_13_" width="382.441" height="248.971"/>
	</defs>
	<clipPath id="SVGID_14_">
		<use xlink:href="#SVGID_13_"  overflow="visible"/>
	</clipPath>
	<path clip-path="url(#SVGID_14_)" d="M97.625,80.922c0,0.783,0.106,1.349,0.319,1.697c0.349,0.57,0.821,0.855,1.415,0.855
		c0.484,0,0.903-0.209,1.255-0.631c0.353-0.419,0.529-1.046,0.529-1.879c0-0.854-0.17-1.482-0.506-1.889
		c-0.34-0.405-0.748-0.608-1.229-0.608c-0.483,0-0.901,0.211-1.254,0.631C97.802,79.52,97.625,80.127,97.625,80.922 M97.638,84.237
		h-1.027V75.22h1.107v3.217c0.467-0.586,1.064-0.88,1.79-0.88c0.402,0,0.781,0.082,1.142,0.242c0.357,0.164,0.652,0.392,0.886,0.685
		c0.23,0.293,0.412,0.646,0.543,1.061c0.132,0.413,0.197,0.856,0.197,1.328c0,1.12-0.277,1.985-0.83,2.597
		c-0.554,0.61-1.218,0.917-1.993,0.917c-0.771,0-1.376-0.322-1.815-0.966V84.237z"/>
	<path clip-path="url(#SVGID_14_)" d="M104.459,80.344h3.648c-0.049-0.55-0.189-0.962-0.418-1.237
		c-0.353-0.426-0.81-0.639-1.372-0.639c-0.508,0-0.937,0.17-1.281,0.51C104.688,79.318,104.496,79.773,104.459,80.344
		 M108.095,82.134l1.144,0.141c-0.18,0.669-0.514,1.188-1.003,1.558c-0.488,0.369-1.111,0.553-1.87,0.553
		c-0.955,0-1.712-0.293-2.274-0.881c-0.558-0.589-0.838-1.415-0.838-2.478c0-1.099,0.283-1.952,0.848-2.559
		c0.566-0.607,1.3-0.911,2.203-0.911c0.873,0,1.587,0.298,2.141,0.892c0.553,0.596,0.83,1.432,0.83,2.511l-0.006,0.295h-4.872
		c0.041,0.718,0.244,1.268,0.609,1.648c0.365,0.382,0.82,0.572,1.365,0.572c0.406,0,0.753-0.106,1.04-0.32
		C107.699,82.941,107.927,82.602,108.095,82.134"/>
	<path clip-path="url(#SVGID_14_)" d="M110.617,84.237v-6.533h0.996v0.99c0.255-0.463,0.491-0.769,0.704-0.916
		c0.217-0.147,0.453-0.222,0.712-0.222c0.373,0,0.752,0.119,1.138,0.356l-0.382,1.027c-0.271-0.16-0.541-0.239-0.812-0.239
		c-0.242,0-0.459,0.073-0.652,0.218c-0.193,0.146-0.33,0.348-0.412,0.606c-0.123,0.395-0.185,0.824-0.185,1.292v3.42H110.617z"/>
	<path clip-path="url(#SVGID_14_)" d="M114.382,82.287l1.095-0.172c0.061,0.438,0.232,0.775,0.515,1.01
		c0.279,0.232,0.672,0.35,1.177,0.35c0.508,0,0.885-0.103,1.132-0.312c0.246-0.203,0.369-0.447,0.369-0.727
		c0-0.251-0.109-0.447-0.326-0.591c-0.152-0.099-0.529-0.225-1.132-0.375c-0.812-0.205-1.376-0.382-1.688-0.533
		c-0.315-0.148-0.553-0.357-0.713-0.62c-0.164-0.266-0.244-0.557-0.244-0.877c0-0.291,0.065-0.56,0.199-0.808
		c0.133-0.248,0.315-0.455,0.545-0.619c0.172-0.127,0.406-0.234,0.705-0.324c0.295-0.086,0.616-0.132,0.956-0.132
		c0.512,0,0.964,0.074,1.349,0.222c0.39,0.148,0.675,0.349,0.859,0.6c0.185,0.254,0.312,0.59,0.382,1.013l-1.083,0.146
		c-0.049-0.336-0.193-0.599-0.428-0.786c-0.236-0.189-0.568-0.283-0.999-0.283c-0.509,0-0.872,0.084-1.089,0.252
		c-0.217,0.168-0.326,0.365-0.326,0.591l0.135,0.387c0.09,0.119,0.232,0.218,0.425,0.295c0.111,0.041,0.437,0.137,0.978,0.283
		c0.783,0.21,1.329,0.382,1.638,0.513c0.31,0.136,0.554,0.328,0.73,0.582c0.177,0.256,0.265,0.57,0.265,0.948
		c0,0.369-0.109,0.717-0.322,1.041c-0.218,0.329-0.527,0.579-0.933,0.759c-0.406,0.177-0.865,0.268-1.378,0.268
		c-0.849,0-1.497-0.177-1.942-0.529C114.788,83.504,114.505,82.98,114.382,82.287"/>
	<path clip-path="url(#SVGID_14_)" d="M31.496,188.581c-1.159,0-2.1,0.94-2.1,2.099v14.629c0,1.158,0.941,2.101,2.1,2.101h88.189
		c1.158,0,2.1-0.942,2.1-2.101V190.68c0-1.158-0.942-2.099-2.1-2.099H31.496z M119.685,211.607H31.496
		c-3.474,0-6.299-2.825-6.299-6.299V190.68c0-3.473,2.825-6.299,6.299-6.299h88.189c3.474,0,6.299,2.826,6.299,6.299v14.629
		C125.984,208.782,123.159,211.607,119.685,211.607"/>
	<path clip-path="url(#SVGID_14_)" d="M34.678,170.091c-2.315,0-4.2,1.885-4.2,4.199v5.892c0,2.314,1.885,4.2,4.2,4.2h81.824
		c2.315,0,4.2-1.886,4.2-4.2v-5.892c0-2.314-1.885-4.199-4.2-4.199H34.678z M116.502,188.58H34.678
		c-4.632,0-8.399-3.767-8.399-8.398v-5.892c0-4.632,3.767-8.398,8.399-8.398h81.824c4.632,0,8.399,3.767,8.399,8.398v5.892
		C124.901,184.813,121.134,188.58,116.502,188.58"/>
</g>
<polygon fill="#FFFFFF" points="104.375,167.991 75.591,194.857 46.807,167.991 "/>
<g>
	<defs>
		<rect id="SVGID_15_" width="382.441" height="248.971"/>
	</defs>
	<clipPath id="SVGID_16_">
		<use xlink:href="#SVGID_15_"  overflow="visible"/>
	</clipPath>
	<path clip-path="url(#SVGID_16_)" d="M52.134,170.091l23.456,21.894l23.458-21.894H52.134z M75.59,196.957
		c-0.515,0-1.029-0.189-1.433-0.564l-28.783-26.865c-0.63-0.589-0.837-1.504-0.521-2.308c0.318-0.801,1.09-1.328,1.954-1.328h57.568
		c0.864,0,1.637,0.527,1.954,1.33c0.316,0.802,0.109,1.717-0.52,2.306l-28.786,26.865C76.619,196.768,76.105,196.957,75.59,196.957"
		/>
	<path clip-path="url(#SVGID_16_)" d="M29.455,165.697h92.27c-1.222-21.869-21.449-39.323-46.135-39.323
		S30.677,143.828,29.455,165.697 M123.884,169.896H27.296c-1.16,0-2.1-0.939-2.1-2.101c0-25.156,22.607-45.622,50.394-45.622
		s50.394,20.466,50.394,45.622C125.984,168.957,125.045,169.896,123.884,169.896"/>
	<path clip-path="url(#SVGID_16_)" fill="#1C1C1C" d="M39.894,106.451c-3.327,0-6.036,2.709-6.036,6.036v121.784
		c0,3.329,2.709,6.038,6.036,6.038h71.392c3.328,0,6.037-2.709,6.037-6.038V112.487c0-3.327-2.709-6.036-6.037-6.036H39.894z
		 M111.286,240.834H39.894c-3.616,0-6.561-2.944-6.561-6.562V112.487c0-3.616,2.945-6.562,6.561-6.562h71.392
		c3.617,0,6.562,2.945,6.562,6.562v121.784C117.848,237.89,114.903,240.834,111.286,240.834"/>
	<path clip-path="url(#SVGID_16_)" fill="#1C1C1C" d="M14.697,131.648c-3.327,0-6.037,2.708-6.037,6.036v71.392
		c0,3.327,2.71,6.036,6.037,6.036h121.785c3.328,0,6.037-2.709,6.037-6.036v-71.392c0-3.328-2.709-6.036-6.037-6.036H14.697z
		 M136.482,215.637H14.697c-3.617,0-6.561-2.944-6.561-6.561v-71.392c0-3.617,2.944-6.562,6.561-6.562h121.785
		c3.617,0,6.561,2.945,6.561,6.562v71.392C143.043,212.692,140.1,215.637,136.482,215.637"/>
	<path clip-path="url(#SVGID_16_)" fill="#1C1C1C" d="M29.396,121.148c-3.328,0-6.037,2.709-6.037,6.037v92.389
		c0,3.328,2.709,6.037,6.037,6.037h92.388c3.328,0,6.037-2.709,6.037-6.037v-92.389c0-3.328-2.709-6.037-6.037-6.037H29.396z
		 M121.785,226.136H29.396c-3.618,0-6.562-2.945-6.562-6.562v-92.389c0-3.616,2.944-6.562,6.562-6.562h92.388
		c3.617,0,6.562,2.945,6.562,6.562v92.389C128.347,223.19,125.401,226.136,121.785,226.136"/>
	<path clip-path="url(#SVGID_16_)" fill="#1C1C1C" d="M75.59,112.75c-33.432,0-60.63,27.198-60.63,60.63s27.198,60.63,60.63,60.63
		s60.63-27.198,60.63-60.63S109.022,112.75,75.59,112.75 M75.59,234.535c-33.721,0-61.155-27.435-61.155-61.155
		s27.434-61.155,61.155-61.155s61.155,27.435,61.155,61.155S109.312,234.535,75.59,234.535"/>
</g>
<path fill="#1C1C1C" d="M8.661,240.31H142.52V106.451H8.661V240.31z M142.782,240.834H8.399l-0.263-0.263V106.188l0.263-0.263
	h134.383l0.262,0.263v134.383L142.782,240.834z"/>
<path fill="#D1D1D1" d="M8.136,240.571v-31.496v-71.392v-31.495l0.263-0.262h134.383l0.262,0.262v134.383l-0.262,0.263h-31.496
	H39.895H8.399L8.136,240.571z M142.782,97.79H8.399H0v8.398v134.383v8.399h8.399h134.383h8.399v-8.399V106.188V97.79H142.782z"/>
<path fill="#1C1C1C" d="M142.782,105.926H8.399l-0.263,0.263v31.496v71.392v31.495l0.263,0.263h31.495h71.392h31.496l0.262-0.263
	V106.188L142.782,105.926z M8.399,106.188h134.383v134.383H8.399V106.188z"/>
<path d="M218.51,45.435v-6.423l-2.14,3.211L218.51,45.435z M218.131,46.001l-2.141-3.212l-2.141,3.212H218.131z M218.131,38.445
	h-4.281l2.141,3.209L218.131,38.445z M213.473,45.435l2.141-3.212l-2.141-3.211V45.435z M212.843,37.816h6.296v8.813h-6.296V37.816z
	"/>
<g>
	<defs>
		<rect id="SVGID_17_" width="382.441" height="248.971"/>
	</defs>
	<clipPath id="SVGID_18_">
		<use xlink:href="#SVGID_17_"  overflow="visible"/>
	</clipPath>
	<path clip-path="url(#SVGID_18_)" d="M213.261,27.939l1.882-9.019h1.114l-0.72,3.463c0.414-0.401,0.8-0.688,1.156-0.862
		s0.724-0.264,1.102-0.264c0.541,0,0.961,0.145,1.261,0.428c0.3,0.287,0.449,0.662,0.449,1.13c0,0.229-0.065,0.651-0.196,1.267
		l-0.807,3.857h-1.113l0.83-3.955c0.119-0.575,0.18-0.936,0.18-1.083c0-0.213-0.074-0.388-0.223-0.523
		c-0.148-0.135-0.361-0.203-0.639-0.203c-0.403,0-0.786,0.107-1.151,0.318c-0.364,0.211-0.651,0.5-0.856,0.865
		c-0.209,0.369-0.398,0.96-0.57,1.775l-0.585,2.806H213.261z"/>
	<path clip-path="url(#SVGID_18_)" d="M225.084,24.63l-0.5,0.142c-0.182,0.033-0.479,0.067-0.896,0.104
		c-0.647,0.058-1.104,0.131-1.371,0.217c-0.268,0.091-0.469,0.23-0.604,0.423s-0.203,0.405-0.203,0.64
		c0,0.312,0.109,0.568,0.322,0.769c0.217,0.201,0.523,0.303,0.921,0.303c0.369,0,0.724-0.098,1.063-0.292
		c0.341-0.194,0.609-0.468,0.807-0.816C224.82,25.771,224.973,25.273,225.084,24.63 M224.672,27.127
		c-0.385,0.332-0.757,0.574-1.113,0.73c-0.356,0.151-0.738,0.229-1.145,0.229c-0.602,0-1.088-0.177-1.458-0.532
		c-0.369-0.354-0.554-0.809-0.554-1.362c0-0.365,0.084-0.688,0.248-0.968c0.168-0.281,0.388-0.507,0.662-0.677
		c0.275-0.171,0.611-0.294,1.01-0.367c0.25-0.05,0.724-0.089,1.425-0.116c0.696-0.029,1.2-0.104,1.503-0.223
		c0.086-0.303,0.129-0.556,0.129-0.757c0-0.258-0.094-0.461-0.283-0.608c-0.258-0.205-0.635-0.308-1.131-0.308
		c-0.468,0-0.849,0.104-1.148,0.312c-0.295,0.207-0.512,0.5-0.648,0.881l-1.125-0.098c0.229-0.648,0.592-1.145,1.093-1.489
		c0.496-0.344,1.125-0.518,1.884-0.518c0.809,0,1.448,0.193,1.92,0.579c0.36,0.287,0.541,0.66,0.541,1.119
		c0,0.35-0.051,0.753-0.153,1.212l-0.363,1.624c-0.114,0.518-0.172,0.938-0.172,1.261c0,0.205,0.045,0.502,0.135,0.887h-1.126
		C224.74,27.727,224.697,27.455,224.672,27.127"/>
	<path clip-path="url(#SVGID_18_)" d="M227.268,27.939l1.366-6.533h1.113l-0.228,1.077c0.414-0.464,0.785-0.784,1.109-0.96
		c0.328-0.176,0.682-0.266,1.062-0.266c0.405,0,0.746,0.107,1.017,0.324c0.274,0.214,0.453,0.516,0.539,0.901
		c0.333-0.41,0.683-0.716,1.048-0.921c0.369-0.201,0.755-0.305,1.161-0.305c0.545,0,0.955,0.131,1.226,0.389
		c0.275,0.258,0.41,0.621,0.41,1.089c0,0.201-0.047,0.533-0.143,0.996l-0.879,4.208h-1.113l0.898-4.318
		c0.078-0.353,0.116-0.604,0.116-0.757c0-0.213-0.067-0.381-0.202-0.504c-0.136-0.123-0.326-0.186-0.572-0.186
		c-0.332,0-0.67,0.102-1.016,0.302c-0.344,0.2-0.613,0.464-0.801,0.792c-0.193,0.323-0.359,0.825-0.503,1.503l-0.664,3.168H231.1
		l0.924-4.411c0.065-0.299,0.099-0.512,0.099-0.639c0-0.215-0.066-0.387-0.201-0.518c-0.132-0.131-0.306-0.197-0.519-0.197
		c-0.316,0-0.646,0.102-0.996,0.302c-0.344,0.2-0.627,0.481-0.844,0.841c-0.218,0.358-0.396,0.87-0.535,1.534l-0.646,3.088H227.268z
		"/>
	<path clip-path="url(#SVGID_18_)" d="M239.418,25.257l-0.008,0.209c0,0.559,0.135,0.982,0.4,1.274
		c0.268,0.291,0.6,0.436,0.997,0.436c0.39,0,0.746-0.135,1.074-0.409c0.323-0.271,0.593-0.697,0.802-1.275s0.314-1.112,0.314-1.6
		c0-0.55-0.131-0.977-0.398-1.279c-0.263-0.304-0.591-0.455-0.98-0.455c-0.401,0-0.771,0.155-1.106,0.463
		c-0.337,0.312-0.618,0.787-0.843,1.431C239.502,24.531,239.418,24.934,239.418,25.257 M237.769,27.939l1.882-9.019h1.114
		l-0.671,3.224c0.354-0.324,0.673-0.552,0.96-0.686c0.287-0.133,0.586-0.201,0.897-0.201c0.611,0,1.121,0.229,1.531,0.684
		c0.405,0.456,0.61,1.118,0.61,1.986c0,0.579-0.082,1.108-0.246,1.588s-0.367,0.882-0.608,1.21
		c-0.242,0.323-0.492,0.587-0.752,0.778c-0.258,0.197-0.522,0.344-0.793,0.439c-0.271,0.095-0.531,0.144-0.781,0.144
		c-0.43,0-0.811-0.114-1.139-0.341c-0.328-0.229-0.584-0.576-0.769-1.043l-0.259,1.236H237.769z"/>
	<path clip-path="url(#SVGID_18_)" d="M249.235,26.758c-0.783,0.887-1.585,1.329-2.405,1.329c-0.505,0-0.913-0.144-1.22-0.435
		c-0.312-0.287-0.466-0.643-0.466-1.061c0-0.274,0.069-0.745,0.209-1.415l0.787-3.771h1.113l-0.873,4.177
		c-0.074,0.35-0.111,0.619-0.111,0.812c0,0.246,0.074,0.438,0.226,0.576c0.147,0.138,0.37,0.204,0.661,0.204
		c0.311,0,0.615-0.075,0.914-0.227c0.296-0.152,0.554-0.357,0.767-0.615c0.218-0.259,0.392-0.563,0.527-0.917
		c0.09-0.226,0.194-0.621,0.313-1.187l0.59-2.824h1.115l-1.367,6.533h-1.026L249.235,26.758z"/>
	<path clip-path="url(#SVGID_18_)" d="M251.781,27.939l1.367-6.533h0.983l-0.276,1.335c0.336-0.504,0.666-0.878,0.985-1.12
		c0.324-0.242,0.651-0.363,0.989-0.363c0.221,0,0.494,0.08,0.818,0.24l-0.455,1.034c-0.193-0.14-0.404-0.209-0.635-0.209
		c-0.39,0-0.789,0.217-1.199,0.652c-0.41,0.434-0.732,1.216-0.965,2.344l-0.555,2.62H251.781z"/>
	<path clip-path="url(#SVGID_18_)" d="M257.306,25.048c0,0.447,0.043,0.784,0.13,1.009c0.122,0.316,0.297,0.559,0.527,0.723
		c0.225,0.168,0.479,0.25,0.758,0.25c0.365,0,0.729-0.128,1.089-0.386c0.36-0.255,0.653-0.652,0.876-1.189
		c0.225-0.537,0.336-1.05,0.336-1.538c0-0.537-0.148-0.963-0.447-1.283c-0.295-0.316-0.664-0.476-1.103-0.476
		c-0.271,0-0.534,0.073-0.788,0.217c-0.254,0.147-0.492,0.37-0.709,0.665c-0.223,0.299-0.387,0.653-0.501,1.067
		C257.363,24.521,257.306,24.835,257.306,25.048 M255.916,28.53l1.125,0.104c-0.008,0.254,0.022,0.445,0.093,0.572l0.332,0.295
		c0.2,0.09,0.462,0.135,0.782,0.135c0.672,0,1.156-0.174,1.451-0.522c0.192-0.233,0.37-0.742,0.534-1.525l0.111-0.529
		c-0.578,0.586-1.193,0.879-1.845,0.879c-0.662,0-1.215-0.241-1.657-0.729c-0.447-0.483-0.669-1.172-0.669-2.062
		c0-0.733,0.177-1.408,0.525-2.023c0.353-0.615,0.769-1.081,1.252-1.393c0.484-0.315,0.982-0.472,1.496-0.472
		c0.856,0,1.516,0.406,1.98,1.218l0.221-1.069h1.021l-1.316,6.305c-0.145,0.693-0.332,1.231-0.566,1.622
		c-0.233,0.385-0.558,0.687-0.976,0.899c-0.414,0.214-0.896,0.32-1.442,0.32c-0.523,0-0.978-0.068-1.354-0.203
		c-0.381-0.135-0.664-0.334-0.849-0.595c-0.188-0.26-0.281-0.558-0.281-0.895L255.916,28.53z"/>
	<path clip-path="url(#SVGID_18_)" d="M264.546,24.101h3.667l0.006-0.246c0-0.558-0.14-0.984-0.418-1.283
		c-0.279-0.296-0.638-0.444-1.076-0.444c-0.477,0-0.91,0.163-1.301,0.491C265.029,22.946,264.738,23.44,264.546,24.101
		 M267.782,25.719l1.083,0.11c-0.156,0.537-0.514,1.049-1.075,1.531c-0.558,0.484-1.226,0.727-2.001,0.727
		c-0.484,0-0.93-0.112-1.331-0.336c-0.406-0.222-0.713-0.548-0.923-0.975c-0.213-0.426-0.317-0.912-0.317-1.458
		c0-0.713,0.166-1.407,0.494-2.075c0.332-0.672,0.759-1.169,1.283-1.497c0.524-0.323,1.093-0.487,1.704-0.487
		c0.779,0,1.4,0.242,1.865,0.726c0.467,0.484,0.701,1.145,0.701,1.981c0,0.319-0.029,0.647-0.088,0.983h-4.81l-0.025,0.346
		c0,0.61,0.14,1.077,0.421,1.397c0.281,0.324,0.625,0.484,1.031,0.484c0.382,0,0.757-0.125,1.126-0.375
		S267.577,26.19,267.782,25.719"/>
	<path clip-path="url(#SVGID_18_)" d="M269.99,27.939l1.366-6.533h0.983l-0.276,1.335c0.336-0.504,0.664-0.878,0.985-1.12
		c0.322-0.242,0.652-0.363,0.99-0.363c0.221,0,0.494,0.08,0.817,0.24l-0.455,1.034c-0.192-0.14-0.403-0.209-0.634-0.209
		c-0.391,0-0.789,0.217-1.199,0.652c-0.41,0.434-0.732,1.216-0.966,2.344l-0.554,2.62H269.99z"/>
	<path clip-path="url(#SVGID_18_)" d="M219.529,5.857l1.766,0.56c-0.271,0.984-0.722,1.716-1.35,2.194
		c-0.631,0.478-1.43,0.715-2.396,0.715c-1.197,0-2.183-0.408-2.953-1.228c-0.771-0.816-1.156-1.937-1.156-3.355
		c0-1.501,0.388-2.665,1.163-3.498c0.774-0.828,1.794-1.244,3.057-1.244c1.103,0,1.999,0.326,2.688,0.979
		c0.41,0.385,0.718,0.938,0.923,1.661l-1.804,0.43c-0.105-0.467-0.33-0.836-0.666-1.107c-0.34-0.271-0.75-0.405-1.233-0.405
		c-0.669,0-1.21,0.239-1.628,0.72c-0.415,0.479-0.624,1.257-0.624,2.331c0,1.14,0.205,1.952,0.614,2.436
		c0.41,0.484,0.945,0.727,1.601,0.727c0.483,0,0.899-0.154,1.248-0.461C219.127,7.001,219.377,6.518,219.529,5.857"/>
	<path clip-path="url(#SVGID_18_)" d="M224.217,5.906c0,0.648,0.154,1.144,0.461,1.489c0.309,0.344,0.688,0.517,1.139,0.517
		s0.83-0.173,1.134-0.517c0.308-0.346,0.459-0.846,0.459-1.501c0-0.641-0.151-1.132-0.459-1.477
		c-0.304-0.345-0.683-0.517-1.134-0.517s-0.83,0.172-1.139,0.517C224.371,4.763,224.217,5.258,224.217,5.906 M222.445,5.814
		c0-0.574,0.142-1.13,0.425-1.667s0.685-0.947,1.201-1.23c0.521-0.283,1.099-0.425,1.739-0.425c0.987,0,1.797,0.322,2.43,0.964
		c0.631,0.643,0.947,1.452,0.947,2.433c0,0.987-0.318,1.808-0.957,2.455c-0.637,0.652-1.44,0.977-2.408,0.977
		c-0.598,0-1.169-0.135-1.715-0.406c-0.541-0.27-0.954-0.668-1.237-1.188C222.587,7.2,222.445,6.564,222.445,5.814"/>
	<path clip-path="url(#SVGID_18_)" d="M236.482,9.173h-1.729V5.839c0-0.706-0.037-1.161-0.109-1.37
		c-0.074-0.205-0.193-0.367-0.361-0.481c-0.164-0.115-0.365-0.172-0.6-0.172c-0.299,0-0.568,0.082-0.806,0.245
		c-0.238,0.164-0.399,0.382-0.49,0.652c-0.086,0.271-0.131,0.771-0.131,1.501v2.959h-1.729V2.64h1.606V3.6
		c0.57-0.738,1.288-1.107,2.153-1.107c0.381,0,0.73,0.07,1.046,0.205c0.315,0.14,0.553,0.313,0.717,0.526
		c0.16,0.215,0.274,0.456,0.337,0.727c0.064,0.271,0.096,0.659,0.096,1.163V9.173z"/>
	<path clip-path="url(#SVGID_18_)" d="M241.232,2.64v1.378h-1.182v2.634c0,0.532,0.01,0.845,0.035,0.931l0.15,0.219l0.295,0.086
		c0.16,0,0.391-0.055,0.695-0.166l0.146,1.342c-0.401,0.172-0.857,0.259-1.365,0.259c-0.312,0-0.593-0.055-0.843-0.156
		c-0.25-0.107-0.433-0.242-0.552-0.406c-0.114-0.168-0.196-0.392-0.241-0.675c-0.037-0.201-0.056-0.607-0.056-1.218V4.018h-0.793
		V2.64h0.793V1.342l1.734-1.009V2.64H241.232z"/>
	<path clip-path="url(#SVGID_18_)" d="M243.804,5.906c0,0.648,0.153,1.144,0.461,1.489c0.308,0.344,0.687,0.517,1.138,0.517
		s0.831-0.173,1.135-0.517c0.308-0.346,0.459-0.846,0.459-1.501c0-0.641-0.151-1.132-0.459-1.477
		c-0.304-0.345-0.684-0.517-1.135-0.517s-0.83,0.172-1.138,0.517S243.804,5.258,243.804,5.906 M242.031,5.814
		c0-0.574,0.141-1.13,0.424-1.667c0.285-0.537,0.686-0.947,1.203-1.23c0.521-0.283,1.099-0.425,1.738-0.425
		c0.988,0,1.799,0.322,2.43,0.964c0.631,0.643,0.947,1.452,0.947,2.433c0,0.987-0.318,1.808-0.957,2.455
		c-0.636,0.652-1.439,0.977-2.408,0.977c-0.599,0-1.168-0.135-1.713-0.406c-0.541-0.27-0.955-0.668-1.24-1.188
		C242.172,7.2,242.031,6.564,242.031,5.814"/>
	<path clip-path="url(#SVGID_18_)" d="M254.427,9.173V8.195c-0.237,0.348-0.55,0.623-0.938,0.823
		c-0.387,0.201-0.797,0.303-1.227,0.303c-0.438,0-0.832-0.098-1.181-0.289c-0.349-0.193-0.601-0.464-0.757-0.812
		s-0.234-0.831-0.234-1.445V2.64h1.729v3.002c0,0.919,0.033,1.483,0.095,1.69c0.065,0.207,0.181,0.371,0.349,0.492
		s0.381,0.18,0.639,0.18c0.297,0,0.561-0.08,0.795-0.242s0.394-0.364,0.479-0.603c0.087-0.242,0.13-0.828,0.13-1.763V2.64h1.729
		v6.533H254.427z"/>
	<path clip-path="url(#SVGID_18_)" d="M259.478,9.173h-1.729V2.64h1.606v0.93c0.274-0.439,0.522-0.729,0.739-0.867
		c0.223-0.14,0.471-0.21,0.75-0.21c0.393,0,0.772,0.108,1.138,0.326l-0.535,1.508c-0.292-0.189-0.562-0.283-0.813-0.283
		c-0.24,0-0.446,0.067-0.614,0.201c-0.168,0.133-0.302,0.373-0.396,0.721c-0.099,0.35-0.146,1.079-0.146,2.19V9.173z"/>
</g>
<polygon points="264.706,7.875 264.706,5.531 262.344,5.531 262.344,3.913 264.706,3.913 264.706,1.57 266.281,1.57 266.281,3.913 
	268.649,3.913 268.649,5.531 266.281,5.531 266.281,7.875 "/>
<g>
	<defs>
		<rect id="SVGID_19_" width="382.441" height="248.971"/>
	</defs>
	<clipPath id="SVGID_20_">
		<use xlink:href="#SVGID_19_"  overflow="visible"/>
	</clipPath>
	<path clip-path="url(#SVGID_20_)" d="M275.865,5.857l1.766,0.56c-0.271,0.984-0.722,1.716-1.35,2.194
		c-0.631,0.478-1.43,0.715-2.396,0.715c-1.197,0-2.183-0.408-2.953-1.228c-0.771-0.816-1.156-1.937-1.156-3.355
		c0-1.501,0.387-2.665,1.162-3.498c0.775-0.828,1.795-1.244,3.058-1.244c1.103,0,1.999,0.326,2.688,0.979
		c0.41,0.385,0.718,0.938,0.923,1.661l-1.804,0.43c-0.105-0.467-0.33-0.836-0.666-1.107c-0.34-0.271-0.75-0.405-1.233-0.405
		c-0.669,0-1.212,0.239-1.628,0.72c-0.417,0.479-0.624,1.257-0.624,2.331c0,1.14,0.205,1.952,0.614,2.436
		c0.41,0.484,0.943,0.727,1.601,0.727c0.483,0,0.899-0.154,1.249-0.461C275.463,7.001,275.713,6.518,275.865,5.857"/>
	<path clip-path="url(#SVGID_20_)" d="M280.553,5.906c0,0.648,0.153,1.144,0.461,1.489c0.309,0.344,0.688,0.517,1.139,0.517
		s0.828-0.173,1.136-0.517c0.304-0.346,0.457-0.846,0.457-1.501c0-0.641-0.153-1.132-0.457-1.477
		c-0.308-0.345-0.685-0.517-1.136-0.517s-0.83,0.172-1.139,0.517C280.706,4.763,280.553,5.258,280.553,5.906 M278.781,5.814
		c0-0.574,0.141-1.13,0.424-1.667s0.684-0.947,1.204-1.23c0.517-0.283,1.097-0.425,1.737-0.425c0.987,0,1.797,0.322,2.43,0.964
		c0.631,0.643,0.947,1.452,0.947,2.433c0,0.987-0.32,1.808-0.955,2.455c-0.641,0.652-1.442,0.977-2.41,0.977
		c-0.6,0-1.172-0.135-1.713-0.406c-0.545-0.27-0.957-0.668-1.24-1.188C278.922,7.2,278.781,6.564,278.781,5.814"/>
</g>
<rect x="286.877" y="0.154" width="1.729" height="9.019"/>
<g>
	<defs>
		<rect id="SVGID_21_" width="382.441" height="248.971"/>
	</defs>
	<clipPath id="SVGID_22_">
		<use xlink:href="#SVGID_21_"  overflow="visible"/>
	</clipPath>
	<path clip-path="url(#SVGID_22_)" d="M291.749,5.906c0,0.648,0.153,1.144,0.461,1.489c0.308,0.344,0.687,0.517,1.138,0.517
		s0.828-0.173,1.137-0.517c0.303-0.346,0.457-0.846,0.457-1.501c0-0.641-0.154-1.132-0.457-1.477
		c-0.309-0.345-0.686-0.517-1.137-0.517s-0.83,0.172-1.138,0.517S291.749,5.258,291.749,5.906 M289.977,5.814
		c0-0.574,0.141-1.13,0.424-1.667s0.684-0.947,1.205-1.23c0.516-0.283,1.096-0.425,1.736-0.425c0.988,0,1.798,0.322,2.43,0.964
		c0.631,0.643,0.947,1.452,0.947,2.433c0,0.987-0.32,1.808-0.955,2.455c-0.64,0.652-1.441,0.977-2.41,0.977
		c-0.599,0-1.171-0.135-1.712-0.406c-0.545-0.27-0.958-0.668-1.241-1.188C290.117,7.2,289.977,6.564,289.977,5.814"/>
	<path clip-path="url(#SVGID_22_)" d="M299.727,9.173h-1.729V2.64h1.605v0.93c0.275-0.439,0.521-0.729,0.742-0.867
		c0.219-0.14,0.469-0.21,0.748-0.21c0.393,0,0.772,0.108,1.137,0.326l-0.534,1.508c-0.292-0.189-0.562-0.283-0.813-0.283
		c-0.24,0-0.447,0.067-0.615,0.201c-0.168,0.133-0.301,0.373-0.396,0.721c-0.098,0.35-0.145,1.079-0.145,2.19V9.173z"/>
	<path clip-path="url(#SVGID_22_)" d="M219.732,56.454h1.193v5.21c0,0.906-0.103,1.626-0.308,2.159s-0.573,0.968-1.112,1.301
		c-0.533,0.336-1.235,0.502-2.104,0.502c-0.845,0-1.536-0.146-2.074-0.438c-0.536-0.291-0.92-0.711-1.149-1.263
		c-0.229-0.551-0.344-1.306-0.344-2.262v-5.21h1.192v5.204c0,0.783,0.071,1.361,0.219,1.73c0.144,0.373,0.394,0.658,0.751,0.859
		c0.354,0.2,0.788,0.301,1.301,0.301c0.877,0,1.502-0.199,1.875-0.596c0.373-0.398,0.561-1.163,0.561-2.295V56.454z"/>
	<path clip-path="url(#SVGID_22_)" d="M222.771,65.472v-6.533h0.996v0.93c0.479-0.718,1.172-1.077,2.08-1.077
		c0.393,0,0.754,0.07,1.086,0.214c0.328,0.139,0.576,0.326,0.74,0.555c0.164,0.23,0.279,0.503,0.344,0.818
		c0.041,0.206,0.062,0.564,0.062,1.077v4.017h-1.107v-3.974c0-0.451-0.043-0.787-0.129-1.013c-0.086-0.222-0.238-0.4-0.459-0.533
		c-0.218-0.133-0.477-0.201-0.771-0.201c-0.473,0-0.879,0.15-1.223,0.449c-0.34,0.299-0.513,0.867-0.513,1.704v3.567H222.771z"/>
</g>
<path d="M229.784,58.938h1.106v6.533h-1.106V58.938z M229.784,56.454h1.106v1.272h-1.106V56.454z"/>
<g>
	<defs>
		<rect id="SVGID_23_" width="382.441" height="248.971"/>
	</defs>
	<clipPath id="SVGID_24_">
		<use xlink:href="#SVGID_23_"  overflow="visible"/>
	</clipPath>
	<path clip-path="url(#SVGID_24_)" d="M236.84,63.079l1.089,0.141c-0.119,0.751-0.422,1.337-0.915,1.765
		c-0.488,0.422-1.091,0.636-1.805,0.636c-0.893,0-1.611-0.292-2.156-0.878c-0.542-0.582-0.814-1.421-0.814-2.512
		c0-0.705,0.117-1.323,0.351-1.853s0.591-0.926,1.067-1.188c0.479-0.267,0.998-0.398,1.56-0.398c0.709,0,1.29,0.181,1.741,0.538
		c0.451,0.36,0.74,0.869,0.867,1.529l-1.076,0.166c-0.104-0.438-0.283-0.77-0.547-0.99c-0.258-0.221-0.573-0.332-0.942-0.332
		c-0.558,0-1.011,0.201-1.358,0.599c-0.35,0.401-0.523,1.033-0.523,1.898c0,0.878,0.168,1.516,0.504,1.913s0.775,0.597,1.316,0.597
		c0.435,0,0.797-0.133,1.088-0.4C236.578,64.043,236.762,63.633,236.84,63.079"/>
	<path clip-path="url(#SVGID_24_)" d="M239.602,62.205c0,0.837,0.184,1.464,0.549,1.88c0.364,0.417,0.823,0.624,1.377,0.624
		c0.549,0,1.006-0.209,1.371-0.628c0.365-0.418,0.549-1.056,0.549-1.913c0-0.808-0.184-1.419-0.553-1.835
		c-0.365-0.416-0.822-0.626-1.367-0.626c-0.554,0-1.013,0.208-1.377,0.622C239.785,60.743,239.602,61.368,239.602,62.205
		 M238.464,62.205c0-1.21,0.336-2.105,1.009-2.688c0.562-0.484,1.247-0.727,2.055-0.727c0.898,0,1.633,0.295,2.202,0.883
		c0.57,0.59,0.854,1.401,0.854,2.439c0,0.84-0.127,1.503-0.377,1.985c-0.254,0.481-0.619,0.854-1.104,1.121
		c-0.479,0.267-1.006,0.399-1.576,0.399c-0.914,0-1.654-0.293-2.217-0.88C238.744,64.153,238.464,63.309,238.464,62.205"/>
	<path clip-path="url(#SVGID_24_)" d="M246.621,62.212c0,0.836,0.176,1.462,0.529,1.876c0.352,0.414,0.769,0.621,1.248,0.621
		c0.483,0,0.895-0.197,1.234-0.594c0.336-0.395,0.506-0.999,0.506-1.812c0-0.894-0.172-1.55-0.516-1.969
		c-0.346-0.418-0.77-0.627-1.273-0.627c-0.492,0-0.902,0.201-1.234,0.603C246.787,60.713,246.621,61.346,246.621,62.212
		 M250.121,65.472v-0.824c-0.414,0.648-1.023,0.973-1.827,0.973c-0.521,0-0.999-0.145-1.437-0.432
		c-0.436-0.286-0.776-0.687-1.014-1.201c-0.242-0.515-0.361-1.107-0.361-1.775c0-0.652,0.108-1.243,0.326-1.776
		c0.217-0.528,0.543-0.937,0.979-1.22s0.921-0.425,1.458-0.425c0.394,0,0.743,0.082,1.052,0.251c0.307,0.164,0.557,0.381,0.75,0.647
		v-3.235h1.102v9.018H250.121z"/>
	<path clip-path="url(#SVGID_24_)" d="M253.725,61.578h3.648c-0.049-0.55-0.188-0.962-0.418-1.236
		c-0.353-0.427-0.81-0.64-1.371-0.64c-0.509,0-0.936,0.17-1.283,0.51C253.955,60.553,253.762,61.008,253.725,61.578 M257.361,63.368
		l1.145,0.141c-0.181,0.669-0.515,1.188-1.004,1.558c-0.488,0.368-1.111,0.553-1.869,0.553c-0.955,0-1.715-0.293-2.272-0.881
		c-0.562-0.589-0.84-1.415-0.84-2.478c0-1.099,0.282-1.952,0.849-2.559c0.566-0.607,1.301-0.911,2.202-0.911
		c0.873,0,1.587,0.298,2.142,0.892c0.553,0.596,0.83,1.432,0.83,2.511l-0.007,0.295h-4.872c0.041,0.718,0.244,1.268,0.609,1.648
		s0.82,0.572,1.365,0.572c0.406,0,0.752-0.107,1.039-0.32S257.193,63.836,257.361,63.368"/>
</g>
<path d="M260.203,64.211h1.261v1.261h-1.261V64.211z M260.203,58.938h1.261v1.261h-1.261V58.938z"/>
<g>
	<defs>
		<rect id="SVGID_25_" width="382.441" height="248.971"/>
	</defs>
	<clipPath id="SVGID_26_">
		<use xlink:href="#SVGID_25_"  overflow="visible"/>
	</clipPath>
	<path clip-path="url(#SVGID_26_)" d="M270.76,65.472h-1.107v-7.056c-0.268,0.254-0.617,0.509-1.048,0.763
		c-0.435,0.254-0.822,0.445-1.167,0.572v-1.07c0.619-0.292,1.161-0.644,1.624-1.058c0.464-0.415,0.792-0.817,0.983-1.206h0.715
		V65.472z"/>
</g>
<polygon points="274.105,65.472 274.105,56.454 280.189,56.454 280.189,57.518 275.299,57.518 275.299,60.311 279.531,60.311 
	279.531,61.375 275.299,61.375 275.299,65.472 "/>
<g>
	<defs>
		<rect id="SVGID_27_" width="382.441" height="248.971"/>
	</defs>
	<clipPath id="SVGID_28_">
		<use xlink:href="#SVGID_27_"  overflow="visible"/>
	</clipPath>
	<path clip-path="url(#SVGID_28_)" d="M281.297,63.092l1.107-0.148c0.127,0.628,0.343,1.081,0.647,1.355
		c0.306,0.279,0.679,0.416,1.118,0.416c0.521,0,0.959-0.181,1.318-0.541s0.539-0.808,0.539-1.341c0-0.509-0.166-0.927-0.498-1.257
		s-0.754-0.497-1.268-0.497c-0.209,0-0.47,0.041-0.781,0.123l0.123-0.971l0.179,0.012c0.472,0,0.896-0.123,1.274-0.369
		c0.377-0.246,0.565-0.626,0.565-1.138c0-0.406-0.138-0.743-0.413-1.009c-0.273-0.268-0.629-0.4-1.064-0.4
		c-0.43,0-0.789,0.135-1.076,0.406c-0.286,0.271-0.471,0.677-0.553,1.218l-1.107-0.197c0.135-0.741,0.443-1.315,0.922-1.726
		c0.48-0.406,1.077-0.611,1.791-0.611c0.492,0,0.945,0.106,1.359,0.315c0.414,0.214,0.729,0.501,0.951,0.866
		c0.217,0.364,0.328,0.752,0.328,1.162c0,0.39-0.105,0.744-0.314,1.064c-0.209,0.319-0.519,0.574-0.928,0.762
		c0.532,0.123,0.946,0.378,1.242,0.768c0.295,0.386,0.443,0.872,0.443,1.454c0,0.787-0.288,1.454-0.862,2.003
		c-0.573,0.546-1.3,0.82-2.177,0.82c-0.792,0-1.448-0.235-1.973-0.708C281.67,64.452,281.371,63.842,281.297,63.092"/>
	<path clip-path="url(#SVGID_28_)" d="M288.297,63.109l1.164-0.099c0.086,0.567,0.287,0.993,0.598,1.276
		c0.316,0.286,0.693,0.428,1.136,0.428c0.534,0,0.985-0.2,1.354-0.603c0.369-0.401,0.553-0.935,0.553-1.6
		c0-0.631-0.178-1.13-0.533-1.495c-0.354-0.365-0.818-0.547-1.393-0.547c-0.356,0-0.678,0.082-0.965,0.244s-0.513,0.371-0.678,0.629
		l-1.039-0.135l0.873-4.632h4.485v1.058h-3.599l-0.486,2.424c0.541-0.377,1.109-0.565,1.704-0.565c0.788,0,1.452,0.272,1.993,0.817
		s0.812,1.247,0.812,2.104c0,0.815-0.237,1.521-0.713,2.115c-0.579,0.73-1.368,1.096-2.369,1.096c-0.819,0-1.489-0.23-2.009-0.689
		S288.371,63.869,288.297,63.109"/>
</g>
<path d="M298.854,62.298v-4.066l-2.824,4.066H298.854z M298.854,65.472v-2.159h-3.912v-1.015l4.115-5.844h0.904v5.844h1.218v1.015
	h-1.218v2.159H298.854z"/>
<g>
	<defs>
		<rect id="SVGID_29_" width="382.441" height="248.971"/>
	</defs>
	<clipPath id="SVGID_30_">
		<use xlink:href="#SVGID_29_"  overflow="visible"/>
	</clipPath>
	<path clip-path="url(#SVGID_30_)" d="M215.426,80.535h3.057l-0.94-2.498c-0.287-0.758-0.5-1.382-0.64-1.87
		c-0.114,0.578-0.276,1.153-0.486,1.724L215.426,80.535z M212.824,84.238l3.463-9.018h1.286l3.69,9.018h-1.359l-1.051-2.731h-3.771
		l-0.99,2.731H212.824z"/>
	<path clip-path="url(#SVGID_30_)" d="M226.357,84.238v-0.96c-0.509,0.738-1.199,1.108-2.072,1.108c-0.387,0-0.746-0.074-1.08-0.223
		c-0.336-0.147-0.582-0.332-0.746-0.558c-0.16-0.221-0.274-0.496-0.34-0.82c-0.046-0.217-0.068-0.562-0.068-1.033v-4.048h1.107
		v3.623c0,0.578,0.023,0.968,0.068,1.169c0.07,0.291,0.217,0.52,0.443,0.688c0.225,0.164,0.504,0.248,0.836,0.248
		s0.644-0.084,0.935-0.256c0.292-0.169,0.497-0.4,0.62-0.693c0.119-0.293,0.18-0.72,0.18-1.278v-3.5h1.107v6.533H226.357z"/>
	<path clip-path="url(#SVGID_30_)" d="M231.5,83.248l0.16,0.978c-0.312,0.066-0.591,0.1-0.837,0.1c-0.401,0-0.713-0.064-0.935-0.191
		s-0.377-0.293-0.467-0.503c-0.091-0.205-0.137-0.641-0.137-1.306v-3.759h-0.812v-0.86h0.812v-1.618l1.102-0.665v2.283h1.113v0.86
		h-1.113v3.82c0,0.316,0.021,0.52,0.058,0.609l0.192,0.215l0.377,0.08C231.137,83.291,231.299,83.276,231.5,83.248"/>
	<path clip-path="url(#SVGID_30_)" d="M232.583,84.238v-9.018h1.106v3.235c0.518-0.599,1.17-0.898,1.957-0.898
		c0.483,0,0.904,0.095,1.262,0.287c0.355,0.188,0.611,0.453,0.766,0.79c0.152,0.336,0.23,0.823,0.23,1.464v4.14h-1.107v-4.14
		c0-0.555-0.119-0.958-0.361-1.208c-0.238-0.254-0.578-0.379-1.017-0.379c-0.328,0-0.636,0.086-0.927,0.256
		c-0.287,0.17-0.494,0.399-0.617,0.69s-0.186,0.693-0.186,1.206v3.574H232.583z"/>
	<path clip-path="url(#SVGID_30_)" d="M240.315,80.972c0,0.837,0.183,1.464,0.548,1.88c0.365,0.417,0.824,0.624,1.377,0.624
		c0.551,0,1.008-0.21,1.372-0.628c0.365-0.418,0.548-1.056,0.548-1.913c0-0.808-0.183-1.419-0.552-1.835
		c-0.365-0.416-0.821-0.626-1.368-0.626c-0.553,0-1.012,0.207-1.377,0.622C240.498,79.51,240.315,80.135,240.315,80.972
		 M239.178,80.972c0-1.21,0.336-2.105,1.009-2.688c0.562-0.484,1.246-0.727,2.054-0.727c0.898,0,1.633,0.295,2.203,0.882
		c0.57,0.591,0.855,1.402,0.855,2.44c0,0.84-0.127,1.503-0.379,1.985c-0.254,0.481-0.619,0.854-1.103,1.12
		c-0.479,0.268-1.006,0.4-1.577,0.4c-0.914,0-1.654-0.293-2.216-0.88C239.459,82.92,239.178,82.075,239.178,80.972"/>
	<path clip-path="url(#SVGID_30_)" d="M246.584,84.238v-6.533h0.996v0.99c0.255-0.463,0.49-0.769,0.703-0.916
		c0.218-0.148,0.453-0.222,0.712-0.222c0.374,0,0.753,0.119,1.138,0.356l-0.381,1.027c-0.271-0.159-0.541-0.239-0.812-0.239
		c-0.242,0-0.459,0.073-0.651,0.217c-0.193,0.147-0.33,0.35-0.412,0.607c-0.123,0.394-0.185,0.824-0.185,1.292v3.42H246.584z"/>
</g>
<path d="M251.1,82.977h1.26v1.261h-1.26V82.977z M251.1,77.706h1.26v1.261h-1.26V77.706z"/>
<polygon points="257.971,84.238 257.971,75.221 259.163,75.221 259.163,78.923 263.852,78.923 263.852,75.221 265.045,75.221 
	265.045,84.238 263.852,84.238 263.852,79.987 259.163,79.987 259.163,84.238 "/>
<g>
	<defs>
		<rect id="SVGID_31_" width="382.441" height="248.971"/>
	</defs>
	<clipPath id="SVGID_32_">
		<use xlink:href="#SVGID_31_"  overflow="visible"/>
	</clipPath>
	<path clip-path="url(#SVGID_32_)" d="M271.061,80.959c-0.401,0.164-1.004,0.305-1.809,0.418c-0.455,0.066-0.777,0.141-0.966,0.223
		l-0.437,0.358c-0.103,0.16-0.153,0.334-0.153,0.527c0,0.295,0.11,0.541,0.336,0.738c0.222,0.196,0.55,0.295,0.979,0.295
		c0.428,0,0.807-0.092,1.139-0.281c0.332-0.184,0.576-0.44,0.731-0.765c0.119-0.25,0.179-0.619,0.179-1.107V80.959z M271.153,83.433
		c-0.41,0.349-0.806,0.595-1.185,0.737c-0.381,0.145-0.787,0.216-1.221,0.216c-0.718,0-1.27-0.177-1.654-0.524
		c-0.387-0.353-0.578-0.8-0.578-1.346c0-0.319,0.07-0.611,0.217-0.877c0.146-0.264,0.336-0.477,0.574-0.637
		c0.233-0.159,0.5-0.28,0.795-0.362c0.218-0.058,0.545-0.113,0.984-0.166c0.895-0.107,1.553-0.234,1.975-0.381l0.006-0.289
		c0-0.452-0.104-0.77-0.313-0.954c-0.282-0.25-0.702-0.375-1.261-0.375c-0.521,0-0.906,0.092-1.152,0.272
		c-0.25,0.185-0.433,0.507-0.552,0.97l-1.083-0.147c0.1-0.464,0.262-0.837,0.486-1.122c0.226-0.285,0.552-0.504,0.978-0.66
		c0.427-0.151,0.921-0.229,1.483-0.229c0.558,0,1.011,0.065,1.359,0.197c0.348,0.131,0.604,0.298,0.769,0.495
		c0.165,0.199,0.278,0.449,0.345,0.754c0.037,0.188,0.055,0.528,0.055,1.021V81.5c0,1.03,0.023,1.683,0.072,1.955
		c0.045,0.272,0.141,0.533,0.279,0.783h-1.157C271.26,84.009,271.186,83.74,271.153,83.433"/>
	<path clip-path="url(#SVGID_32_)" d="M273.896,84.238v-6.533h0.996v0.93c0.48-0.719,1.173-1.077,2.08-1.077
		c0.393,0,0.754,0.069,1.084,0.214c0.331,0.139,0.579,0.326,0.743,0.555c0.164,0.23,0.278,0.503,0.344,0.818
		c0.041,0.206,0.062,0.563,0.062,1.077v4.017h-1.107v-3.974c0-0.451-0.043-0.787-0.129-1.014c-0.086-0.221-0.24-0.399-0.457-0.532
		c-0.221-0.134-0.479-0.201-0.773-0.201c-0.472,0-0.879,0.149-1.22,0.449c-0.345,0.299-0.515,0.866-0.515,1.703v3.568H273.896z"/>
	<path clip-path="url(#SVGID_32_)" d="M280.461,82.288l1.094-0.172c0.062,0.439,0.232,0.775,0.516,1.009
		c0.279,0.233,0.672,0.351,1.177,0.351c0.509,0,0.886-0.103,1.132-0.312c0.246-0.205,0.369-0.449,0.369-0.728
		c0-0.251-0.109-0.447-0.326-0.591c-0.151-0.099-0.529-0.224-1.132-0.375c-0.812-0.205-1.376-0.383-1.688-0.533
		c-0.316-0.148-0.554-0.357-0.714-0.62c-0.164-0.267-0.243-0.558-0.243-0.877c0-0.291,0.065-0.561,0.198-0.809
		c0.134-0.248,0.315-0.455,0.545-0.618c0.173-0.128,0.406-0.234,0.705-0.324c0.297-0.086,0.617-0.132,0.957-0.132
		c0.513,0,0.963,0.073,1.349,0.222c0.39,0.147,0.675,0.348,0.858,0.599c0.186,0.254,0.312,0.59,0.383,1.014l-1.084,0.146
		c-0.049-0.336-0.192-0.599-0.428-0.787c-0.236-0.188-0.568-0.283-0.998-0.283c-0.51,0-0.873,0.084-1.09,0.253
		c-0.217,0.168-0.326,0.364-0.326,0.591l0.135,0.387c0.091,0.119,0.232,0.218,0.426,0.295c0.111,0.041,0.436,0.136,0.979,0.283
		c0.782,0.21,1.328,0.382,1.637,0.513c0.311,0.135,0.555,0.328,0.73,0.582c0.178,0.255,0.266,0.57,0.266,0.948
		c0,0.369-0.109,0.717-0.322,1.041c-0.219,0.329-0.527,0.579-0.934,0.759c-0.406,0.176-0.865,0.267-1.377,0.267
		c-0.85,0-1.498-0.177-1.942-0.528C280.866,83.504,280.584,82.981,280.461,82.288"/>
	<path clip-path="url(#SVGID_32_)" d="M291.761,80.535h3.058l-0.941-2.498c-0.287-0.758-0.5-1.382-0.641-1.87
		c-0.113,0.578-0.275,1.153-0.484,1.724L291.761,80.535z M289.158,84.238l3.463-9.018h1.287l3.69,9.018h-1.36l-1.052-2.731h-3.771
		l-0.99,2.731H289.158z"/>
</g>
<rect x="298.386" y="75.22" width="1.107" height="9.018"/>
<g>
	<defs>
		<rect id="SVGID_33_" width="382.441" height="248.971"/>
	</defs>
	<clipPath id="SVGID_34_">
		<use xlink:href="#SVGID_33_"  overflow="visible"/>
	</clipPath>
	<path clip-path="url(#SVGID_34_)" d="M302.219,80.922c0,0.784,0.105,1.35,0.32,1.698c0.348,0.57,0.82,0.855,1.414,0.855
		c0.483,0,0.902-0.209,1.254-0.631c0.354-0.419,0.529-1.047,0.529-1.88c0-0.853-0.17-1.481-0.506-1.888
		c-0.34-0.406-0.749-0.608-1.228-0.608c-0.484,0-0.903,0.211-1.255,0.631C302.395,79.521,302.219,80.127,302.219,80.922
		 M302.23,84.238h-1.027v-9.018h1.107v3.217c0.467-0.586,1.064-0.88,1.79-0.88c0.402,0,0.781,0.082,1.142,0.241
		c0.357,0.164,0.652,0.393,0.887,0.686c0.23,0.293,0.412,0.646,0.543,1.06c0.132,0.415,0.197,0.857,0.197,1.329
		c0,1.12-0.277,1.985-0.83,2.597c-0.555,0.61-1.219,0.917-1.993,0.917c-0.771,0-1.376-0.322-1.815-0.967V84.238z"/>
	<path clip-path="url(#SVGID_34_)" d="M309.053,80.345h3.647c-0.049-0.551-0.188-0.962-0.418-1.237
		c-0.353-0.426-0.81-0.639-1.372-0.639c-0.508,0-0.938,0.17-1.281,0.51C309.28,79.319,309.09,79.774,309.053,80.345 M312.688,82.135
		l1.144,0.141c-0.18,0.669-0.514,1.188-1.002,1.557c-0.488,0.369-1.111,0.554-1.871,0.554c-0.955,0-1.711-0.293-2.273-0.881
		c-0.557-0.59-0.838-1.415-0.838-2.478c0-1.099,0.283-1.952,0.849-2.559c0.565-0.607,1.3-0.911,2.202-0.911
		c0.873,0,1.587,0.298,2.141,0.892c0.553,0.595,0.83,1.432,0.83,2.51l-0.006,0.296h-4.872c0.041,0.718,0.244,1.268,0.609,1.648
		c0.364,0.381,0.819,0.572,1.366,0.572c0.406,0,0.752-0.107,1.039-0.32S312.521,82.603,312.688,82.135"/>
	<path clip-path="url(#SVGID_34_)" d="M315.211,84.238v-6.533h0.996v0.99c0.254-0.463,0.49-0.769,0.703-0.916
		c0.217-0.148,0.453-0.222,0.711-0.222c0.374,0,0.754,0.119,1.139,0.356l-0.381,1.027c-0.271-0.159-0.541-0.239-0.812-0.239
		c-0.242,0-0.459,0.073-0.652,0.217c-0.193,0.147-0.33,0.35-0.412,0.607c-0.123,0.394-0.185,0.824-0.185,1.292v3.42H315.211z"/>
	<path clip-path="url(#SVGID_34_)" d="M318.975,82.288l1.096-0.172c0.061,0.439,0.232,0.775,0.515,1.009
		c0.279,0.233,0.673,0.351,1.177,0.351c0.508,0,0.885-0.103,1.133-0.312c0.246-0.205,0.369-0.449,0.369-0.728
		c0-0.251-0.109-0.447-0.326-0.591c-0.152-0.099-0.529-0.224-1.133-0.375c-0.812-0.205-1.375-0.383-1.688-0.533
		c-0.316-0.148-0.553-0.357-0.713-0.62c-0.164-0.267-0.244-0.558-0.244-0.877c0-0.291,0.064-0.561,0.198-0.809
		s0.315-0.455,0.546-0.618c0.172-0.128,0.406-0.234,0.705-0.324c0.296-0.086,0.615-0.132,0.956-0.132
		c0.512,0,0.964,0.073,1.349,0.222c0.391,0.147,0.676,0.348,0.859,0.599c0.185,0.254,0.312,0.59,0.382,1.014l-1.083,0.146
		c-0.049-0.336-0.193-0.599-0.43-0.787c-0.234-0.188-0.567-0.283-0.998-0.283c-0.508,0-0.871,0.084-1.088,0.253
		c-0.217,0.168-0.326,0.364-0.326,0.591l0.135,0.387c0.09,0.119,0.232,0.218,0.425,0.295c0.11,0.041,0.437,0.136,0.978,0.283
		c0.783,0.21,1.33,0.382,1.639,0.513c0.311,0.135,0.554,0.328,0.73,0.582c0.176,0.255,0.265,0.57,0.265,0.948
		c0,0.369-0.109,0.717-0.322,1.041c-0.218,0.329-0.526,0.579-0.933,0.759c-0.406,0.176-0.866,0.267-1.379,0.267
		c-0.849,0-1.496-0.177-1.941-0.528C319.381,83.504,319.098,82.981,318.975,82.288"/>
	<path clip-path="url(#SVGID_34_)" fill="#A67838" d="M268.02,184.381h-26.611c-2.315,0-4.199-1.882-4.199-4.198v-5.893
		c0-2.314,1.884-4.198,4.199-4.198h11.301L268.02,184.381z"/>
	<path clip-path="url(#SVGID_34_)" fill="#A67838" d="M311.889,170.091h11.3c2.315,0,4.2,1.885,4.2,4.199v5.893
		c0,2.316-1.885,4.198-4.2,4.198h-26.61L311.889,170.091z"/>
	<path clip-path="url(#SVGID_34_)" fill="#F5AB40" d="M295.259,128.054c-4.119-1.085-8.471-1.677-12.976-1.677
		c-5.438,0-10.639,0.887-15.487,2.443c-4.263,1.365-8.233,3.271-11.817,5.638l-0.117,0.073c-0.828,0.552-1.631,1.125-2.418,1.723
		l-0.428,0.336c-2.199,1.719-4.214,3.615-6.019,5.674c-0.242,0.273-0.492,0.539-0.726,0.82c-0.44,0.526-0.853,1.07-1.266,1.618
		c-0.328,0.435-0.648,0.871-0.957,1.315c-0.35,0.505-0.691,1.009-1.018,1.528c-0.364,0.578-0.701,1.171-1.035,1.766
		c-0.238,0.426-0.494,0.844-0.715,1.281c-0.521,1.013-0.995,2.051-1.424,3.106c-0.142,0.353-0.258,0.716-0.392,1.072
		c-0.293,0.79-0.565,1.585-0.808,2.396c-0.121,0.414-0.234,0.831-0.342,1.249c-0.213,0.813-0.393,1.638-0.551,2.471
		c-0.072,0.381-0.152,0.756-0.211,1.14c-0.189,1.21-0.338,2.431-0.406,3.67h24.608h43.306
		C304.79,152.853,300.42,140.146,295.259,128.054"/>
	<path clip-path="url(#SVGID_34_)" fill="#E37021" d="M295.259,128.054c5.161,12.092,9.531,24.799,8.804,37.643h24.357
		C327.419,147.818,313.714,132.904,295.259,128.054"/>
	<path clip-path="url(#SVGID_34_)" fill="#F5AB40" d="M292.084,188.581l-8.367,7.812c-0.404,0.378-0.919,0.566-1.434,0.566
		s-1.029-0.188-1.432-0.566l-8.37-7.812h-11.704h-19.406h-3.183c-1.155,0-2.099,0.942-2.099,2.1v14.628
		c0,1.159,0.943,2.101,2.099,2.101h23.167h47.5c-0.078-6.277-0.363-12.552-1.056-18.828H292.084z"/>
	<path clip-path="url(#SVGID_34_)" fill="#E37021" d="M326.377,188.581h-3.182H307.8c0.692,6.276,0.978,12.551,1.056,18.828h17.521
		c1.16,0,2.101-0.941,2.101-2.101v-14.628C328.478,189.523,327.537,188.581,326.377,188.581"/>
	<path clip-path="url(#SVGID_34_)" d="M238.188,188.581c-1.157,0-2.099,0.941-2.099,2.1v14.629c0,1.157,0.941,2.1,2.099,2.1h88.188
		c1.16,0,2.101-0.942,2.101-2.1v-14.629c0-1.158-0.94-2.1-2.101-2.1H238.188z M326.377,211.608h-88.188
		c-3.473,0-6.299-2.826-6.299-6.299v-14.629c0-3.474,2.826-6.3,6.299-6.3h88.188c3.475,0,6.3,2.826,6.3,6.3v14.629
		C332.677,208.782,329.852,211.608,326.377,211.608"/>
	<path clip-path="url(#SVGID_34_)" d="M323.195,188.581h-31.529c-1.16,0-2.099-0.939-2.099-2.101c0-1.159,0.938-2.099,2.099-2.099
		h31.529c2.314,0,4.199-1.885,4.199-4.2v-5.891c0-2.315-1.885-4.2-4.199-4.2h-81.824c-2.314,0-4.199,1.885-4.199,4.2v5.891
		c0,2.315,1.885,4.2,4.199,4.2h30.963c1.161,0,2.1,0.939,2.1,2.099c0,1.161-0.938,2.101-2.1,2.101h-30.963
		c-4.632,0-8.398-3.768-8.398-8.399v-5.891c0-4.632,3.767-8.399,8.398-8.399h81.824c4.632,0,8.398,3.768,8.398,8.399v5.891
		C331.594,184.813,327.827,188.581,323.195,188.581"/>
	<path clip-path="url(#SVGID_34_)" d="M258.827,170.091l23.456,21.894l23.458-21.894H258.827z M282.283,196.957
		c-0.516,0-1.029-0.188-1.434-0.563l-28.782-26.866c-0.63-0.588-0.837-1.503-0.521-2.308c0.317-0.801,1.09-1.327,1.953-1.327h57.568
		c0.863,0,1.636,0.526,1.954,1.331c0.315,0.801,0.108,1.716-0.521,2.304l-28.785,26.866
		C283.312,196.769,282.799,196.957,282.283,196.957"/>
	<path clip-path="url(#SVGID_34_)" d="M236.148,165.697h92.27c-1.223-21.869-21.449-39.323-46.135-39.323
		S237.371,143.828,236.148,165.697 M330.577,169.896h-96.589c-1.159,0-2.098-0.939-2.098-2.1c0-25.155,22.606-45.622,50.393-45.622
		c27.787,0,50.394,20.467,50.394,45.622C332.677,168.957,331.738,169.896,330.577,169.896"/>
</g>
<polygon fill="#FCEB2B" points="282.283,191.986 258.827,170.092 305.741,170.092 "/>
<g>
	<defs>
		<rect id="SVGID_35_" width="382.441" height="248.971"/>
	</defs>
	<clipPath id="SVGID_36_">
		<use xlink:href="#SVGID_35_"  overflow="visible"/>
	</clipPath>
	<path clip-path="url(#SVGID_36_)" fill="#1C1C1C" d="M246.588,106.451c-3.328,0-6.036,2.71-6.036,6.037v121.783
		c0,3.329,2.708,6.038,6.036,6.038h71.391c3.328,0,6.036-2.709,6.036-6.038V112.488c0-3.327-2.708-6.037-6.036-6.037H246.588z
		 M317.979,240.834h-71.391c-3.617,0-6.562-2.945-6.562-6.562V112.488c0-3.617,2.945-6.562,6.562-6.562h71.391
		c3.617,0,6.562,2.944,6.562,6.562v121.783C324.541,237.889,321.596,240.834,317.979,240.834"/>
	<path clip-path="url(#SVGID_36_)" fill="#1C1C1C" d="M221.392,131.648c-3.329,0-6.037,2.709-6.037,6.036v71.392
		c0,3.327,2.708,6.036,6.037,6.036h121.784c3.328,0,6.037-2.709,6.037-6.036v-71.392c0-3.327-2.709-6.036-6.037-6.036H221.392z
		 M343.176,215.638H221.392c-3.617,0-6.562-2.944-6.562-6.562v-71.392c0-3.617,2.944-6.562,6.562-6.562h121.784
		c3.617,0,6.562,2.944,6.562,6.562v71.392C349.737,212.693,346.793,215.638,343.176,215.638"/>
	<path clip-path="url(#SVGID_36_)" fill="#1C1C1C" d="M236.09,121.15c-3.328,0-6.037,2.708-6.037,6.035v92.389
		c0,3.328,2.709,6.037,6.037,6.037h92.388c3.327,0,6.036-2.709,6.036-6.037v-92.389c0-3.327-2.709-6.035-6.036-6.035H236.09z
		 M328.478,226.136H236.09c-3.617,0-6.562-2.943-6.562-6.562v-92.389c0-3.616,2.945-6.561,6.562-6.561h92.388
		c3.616,0,6.562,2.944,6.562,6.561v92.389C335.039,223.192,332.094,226.136,328.478,226.136"/>
	<path clip-path="url(#SVGID_36_)" fill="#1C1C1C" d="M282.283,112.751c-33.432,0-60.63,27.198-60.63,60.629
		c0,33.432,27.198,60.63,60.63,60.63s60.63-27.198,60.63-60.63C342.913,139.949,315.715,112.751,282.283,112.751 M282.283,234.535
		c-33.721,0-61.154-27.435-61.154-61.155c0-33.72,27.434-61.154,61.154-61.154s61.155,27.435,61.155,61.154
		C343.438,207.101,316.004,234.535,282.283,234.535"/>
</g>
<path fill="#1C1C1C" d="M215.354,240.31h133.858V106.452H215.354V240.31z M349.475,240.834H215.092l-0.262-0.262V106.188
	l0.262-0.262h134.383l0.263,0.262v134.384L349.475,240.834z"/>
<path fill="#D1D1D1" d="M214.83,240.571v-31.496v-71.391v-31.495l0.262-0.263h134.383l0.263,0.263v134.382l-0.263,0.263h-31.495
	h-71.392h-31.496L214.83,240.571z M349.475,97.79H215.092h-8.398v8.399v134.382v8.399h8.398h134.383h8.4v-8.399V106.189V97.79
	H349.475z"/>
<path fill="#1C1C1C" d="M349.475,105.927H215.092l-0.262,0.263v31.495v71.392v31.495l0.262,0.263h31.496h71.391h31.496l0.262-0.263
	V106.189L349.475,105.927z M215.092,106.189h134.383v134.383H215.092V106.189z"/>
<g>
	<defs>
		<rect id="SVGID_37_" width="382.441" height="248.971"/>
	</defs>
	<clipPath id="SVGID_38_">
		<use xlink:href="#SVGID_37_"  overflow="visible"/>
	</clipPath>
</g>
<line fill="none" stroke="#E27022" stroke-miterlimit="10" x1="283" y1="25.471" x2="434" y2="25.471"/>
<line fill="none" stroke="#E27022" stroke-miterlimit="10" x1="231" y1="43.471" x2="434" y2="43.471"/>
<line fill="none" stroke="#E27022" stroke-miterlimit="10" x1="315" y1="61.471" x2="434" y2="61.471"/>
<text transform="matrix(1 0 0 1 455.1982 28.5039)" font-family="'SFProText-Regular'" font-size="12">title</text>
<text transform="matrix(1 0 0 1 455.1982 46.5039)" font-family="'SFProText-Regular'" font-size="12">emoji</text>
<text transform="matrix(1 0 0 1 455.1982 63.8374)" font-family="'SFProText-Regular'" font-size="12">Unicode (if available)</text>
<line fill="none" stroke="#E27022" stroke-miterlimit="10" x1="368" y1="177.471" x2="434" y2="177.471"/>
<text transform="matrix(1 0 0 1 455.1982 179.8379)"><tspan x="0" y="0" font-family="'SFProText-Regular'" font-size="12">emoji gouped in </tspan><tspan x="0" y="14.399" font-family="'SFProText-Regular'" font-size="12">seperate layer</tspan></text>
</svg>
