<?xml version="1.0" encoding="utf-8"?>
<!-- Generator: Adobe Illustrator 16.0.4, SVG Export Plug-In . SVG Version: 6.00 Build 0)  -->
<!DOCTYPE svg PUBLIC "-//W3C//DTD SVG 1.1//EN" "http://www.w3.org/Graphics/SVG/1.1/DTD/svg11.dtd">
<svg version="1.1" id="Ebene_1" xmlns="http://www.w3.org/2000/svg" xmlns:xlink="http://www.w3.org/1999/xlink" x="0px" y="0px"
	 width="258px" height="152px" viewBox="0 0 258 152" enable-background="new 0 0 258 152" xml:space="preserve">
<rect x="116.8" y="27.7" fill="#E27022" width="11.6" height="1"/>
<polygon fill="#E27022" points="127.1,30.4 126.4,29.7 127.9,28.2 126.4,26.8 127.1,26.1 129.3,28.2 "/>
<rect x="117.8" y="101.5" fill="#E27022" width="11.6" height="1"/>
<polygon fill="#E27022" points="128.1,104.1 127.4,103.4 128.9,102 127.4,100.5 128.1,99.8 130.3,102 "/>
<text transform="matrix(1 0 0 1 49.0469 149.0088)" font-family="'SourceSansPro-Regular'" font-size="7">Emoji</text>
<text transform="matrix(1 0 0 1 185.0469 149.0088)" font-family="'SourceSansPro-Regular'" font-size="7">UI</text>
<path fill="none" stroke="#010103" stroke-width="2" stroke-linecap="round" stroke-linejoin="round" stroke-miterlimit="10" d="
	M87.4,42.6"/>
<path fill="none" stroke="#010103" stroke-width="2" stroke-linecap="round" stroke-linejoin="round" stroke-miterlimit="10" d="
	M153.5,42.4"/>
<polygon id="_x27A1__xFE0F__2_" fill="#3F3F3F" stroke="#1D1D1B" stroke-width="2" stroke-linecap="round" stroke-linejoin="round" stroke-miterlimit="10" points="
	66.1,119.2 83.9,102.7 66.1,86.2 62.3,90.3 72.7,99.9 21.9,99.9 21.9,105.5 72.7,105.5 62.3,115.1 "/>
<g id="_xD83D__xDD00__2_">
	<g>
		<path fill="#3F3F3F" d="M73.6,52.7c-0.3,0-0.5-0.1-0.7-0.3L71,50.5c-0.2-0.2-0.3-0.5-0.3-0.7c0-0.2,0.1-0.5,0.4-0.7l3.3-2.8H69
			c-3.1,0-6-1-8-2.9l-4-3.7c-0.2-0.2-0.3-0.5-0.3-0.7c0-0.3,0.1-0.5,0.3-0.7l2-1.8c0.2-0.2,0.4-0.3,0.7-0.3c0.2,0,0.5,0.1,0.7,0.3
			l4,3.7c1.1,1,2.8,1.6,4.6,1.6h5.5L71.2,39c-0.2-0.2-0.3-0.4-0.4-0.7c-0.1-0.3,0.1-0.5,0.3-0.7l1.9-1.9c0.2-0.2,0.5-0.3,0.7-0.3
			c0.2,0,0.5,0.1,0.6,0.2l9.2,7.8c0.2,0.2,0.4,0.5,0.4,0.8c0,0.3-0.1,0.6-0.4,0.8l-9.2,7.8C74.1,52.6,73.9,52.7,73.6,52.7z"/>
		<path fill="#1D1D1B" d="M73.6,36.1l9.2,7.8l-9.2,7.8l-1.9-1.9l5.4-4.6H69c-2.9,0-5.5-0.9-7.3-2.6l-4-3.7l2-1.8l4,3.7
			c1.2,1.2,3.2,1.8,5.3,1.8h8.2L71.8,38L73.6,36.1 M73.6,34.1c-0.5,0-1,0.2-1.4,0.6l-1.9,1.9c-0.4,0.4-0.6,0.9-0.6,1.5
			s0.3,1.1,0.7,1.4l1.2,1H69c-1.6,0-3.1-0.5-4-1.3l-4-3.7c-0.4-0.4-0.9-0.5-1.4-0.5s-1,0.2-1.4,0.5l-2,1.8c-0.4,0.4-0.6,0.9-0.6,1.5
			c0,0.6,0.2,1.1,0.6,1.5l4,3.7c2.2,2,5.3,3.1,8.7,3.1h2.7l-1.2,1c-0.4,0.4-0.7,0.9-0.7,1.4c0,0.6,0.2,1.1,0.6,1.5l1.9,1.9
			c0.4,0.4,0.9,0.6,1.4,0.6s0.9-0.2,1.3-0.5l9.2-7.8c0.4-0.4,0.7-0.9,0.7-1.5c0-0.6-0.3-1.1-0.7-1.5l-9.2-7.8
			C74.6,34.3,74.1,34.1,73.6,34.1L73.6,34.1z"/>
	</g>
	<g>
		<path fill="#3F3F3F" d="M44.5,27.8c-0.2,0-0.5-0.1-0.7-0.3l-4.3-3.9c-1.1-1-2.8-1.6-4.6-1.6h-12c-0.6,0-1-0.4-1-1v-2.6
			c0-0.6,0.4-1,1-1h12c3.1,0,6,1,8,2.9l4.3,4c0.2,0.2,0.3,0.5,0.3,0.7s-0.1,0.5-0.3,0.7l-2,1.8C45,27.7,44.8,27.8,44.5,27.8z"/>
		<path fill="#1D1D1B" d="M34.9,18.4c2.9,0,5.5,0.9,7.3,2.6l4.3,4l-2,1.8l-4.3-3.9C39,21.7,37,21,34.9,21h-12v-2.6H34.9 M34.9,16.4
			h-12c-1.1,0-2,0.9-2,2V21c0,1.1,0.9,2,2,2h12c1.6,0,3.1,0.5,4,1.3l4.3,3.9c0.4,0.4,0.9,0.5,1.4,0.5s1-0.2,1.3-0.5l2-1.8
			c0.4-0.4,0.7-0.9,0.7-1.5s-0.2-1.1-0.6-1.5l-4.3-4C41.4,17.6,38.3,16.4,34.9,16.4L34.9,16.4z"/>
	</g>
	<g>
		<path fill="#3F3F3F" d="M22.9,46.2c-0.6,0-1-0.4-1-1v-2.6c0-0.6,0.4-1,1-1h12c1.8,0,3.6-0.6,4.6-1.6L61,20.3c2-1.8,4.9-2.9,8-2.9
			h5.5l-3.3-2.8c-0.2-0.2-0.3-0.4-0.4-0.7c-0.1-0.3,0.1-0.5,0.3-0.7l1.9-1.9c0.2-0.2,0.5-0.3,0.7-0.3c0.2,0,0.5,0.1,0.6,0.2l9.2,7.8
			c0.2,0.2,0.4,0.5,0.4,0.8c0,0.3-0.1,0.6-0.4,0.8l-9.2,7.8c-0.2,0.2-0.4,0.2-0.6,0.2c-0.3,0-0.5-0.1-0.7-0.3l-2-2
			c-0.2-0.2-0.3-0.5-0.3-0.7c0-0.2,0.1-0.5,0.4-0.7l3.3-2.8H69c-1.8,0-3.6,0.6-4.6,1.6L42.9,43.4c-2,1.8-4.9,2.9-8,2.9h-12V46.2z"/>
		<path fill="#1D1D1B" d="M73.6,11.9l9.2,7.8l-9.2,7.8l-1.9-1.9l5.4-4.6H69c-2.1,0-4.1,0.7-5.3,1.8L42.2,42.6
			c-1.8,1.7-4.5,2.6-7.3,2.6h-12v-2.6h12c2.1,0,4.1-0.7,5.3-1.8L61.6,21c1.8-1.7,4.5-2.6,7.3-2.6h8.2l-5.4-4.6L73.6,11.9 M73.6,9.9
			c-0.5,0-1,0.2-1.4,0.6l-1.9,1.9c-0.4,0.4-0.6,0.9-0.6,1.5s0.3,1.1,0.7,1.4l1.2,1H69c-3.4,0-6.5,1.1-8.7,3.1L38.9,39.3
			c-0.9,0.8-2.4,1.3-4,1.3h-12c-1.1,0-2,0.9-2,2v2.6c0,1.1,0.9,2,2,2h12c3.4,0,6.5-1.1,8.7-3.1L65,24.3c0.9-0.8,2.4-1.3,4-1.3h2.7
			l-1.2,1c-0.4,0.4-0.7,0.9-0.7,1.4c0,0.6,0.2,1.1,0.6,1.5l1.9,1.9c0.4,0.4,0.9,0.6,1.4,0.6s0.9-0.2,1.3-0.5l9.2-7.8
			c0.4-0.4,0.7-0.9,0.7-1.5s-0.3-1.1-0.7-1.5L75,10.3C74.6,10.1,74.1,9.9,73.6,9.9L73.6,9.9z"/>
	</g>
</g>
<path fill="none" stroke="#1D1D1B" stroke-width="2" stroke-linecap="round" stroke-linejoin="round" stroke-miterlimit="10" d="
	M194.4,40.6l6.899,6.9c1.601,1.6,4.101,2.6,6.7,2.6h12.8"/>
<path fill="none" stroke="#1D1D1B" stroke-width="2" stroke-linecap="round" stroke-linejoin="round" stroke-miterlimit="10" d="
	M159,22.1h12.8c2.601,0,5.101,0.9,6.7,2.6l7,7"/>
<path fill="none" stroke="#1D1D1B" stroke-width="2" stroke-linecap="round" stroke-linejoin="round" stroke-miterlimit="10" d="
	M159,50.1h12.8c2.601,0,5.101-0.9,6.7-2.6l22.8-22.9C202.9,23,205.4,22,208,22h12.8"/>
<polyline fill="none" stroke="#1D1D1B" stroke-width="2" stroke-linecap="round" stroke-linejoin="round" stroke-miterlimit="10" points="
	217.6,25.5 221,22.1 217.6,18.7 "/>
<polyline fill="none" stroke="#1D1D1B" stroke-width="2" stroke-linecap="round" stroke-linejoin="round" stroke-miterlimit="10" points="
	217.6,53.5 221,50.1 217.6,46.7 "/>
<polyline fill="none" stroke="#010103" stroke-width="2" stroke-linecap="round" stroke-linejoin="round" stroke-miterlimit="10" points="
	198.7,86.2 216.5,102.7 154.5,102.7 "/>
<line fill="none" stroke="#010103" stroke-width="2" stroke-linecap="round" stroke-linejoin="round" stroke-miterlimit="10" x1="198.7" y1="119.2" x2="216.5" y2="102.7"/>
</svg>
