<?xml version="1.0" encoding="utf-8"?>
<!-- Generator: Adobe Illustrator 16.0.4, SVG Export Plug-In . SVG Version: 6.00 Build 0)  -->
<!DOCTYPE svg PUBLIC "-//W3C//DTD SVG 1.1//EN" "http://www.w3.org/Graphics/SVG/1.1/DTD/svg11.dtd">
<svg version="1.1" id="Ebene_1" xmlns="http://www.w3.org/2000/svg" xmlns:xlink="http://www.w3.org/1999/xlink" x="0px" y="0px"
	 width="281.8px" height="66.4px" viewBox="0 0 281.8 66.4" enable-background="new 0 0 281.8 66.4" xml:space="preserve">
<g>
	<circle fill="#1D1D1B" cx="273.5" cy="24" r="2"/>
</g>
<g>
	<circle fill="#1D1D1B" cx="237.6" cy="24" r="3"/>
</g>
<g>
	<path fill="#1D1D1B" d="M24,48C10.767,48,0,37.233,0,24S10.767,0,24,0s24,10.767,24,24S37.233,48,24,48z M24,2
		C11.869,2,2,11.869,2,24s9.869,22,22,22s22-9.869,22-22S36.131,2,24,2z"/>
</g>
<g>
	<path fill="#1D1D1B" d="M94,40c-8.822,0-16-7.178-16-16S85.178,8,94,8s16,7.178,16,16S102.822,40,94,40z M94,10
		c-7.72,0-14,6.28-14,14s6.28,14,14,14s14-6.28,14-14S101.72,10,94,10z"/>
</g>
<g>
	<path fill="#1D1D1B" d="M151,35c-6.065,0-11-4.935-11-11s4.934-11,11-11s11,4.935,11,11S157.065,35,151,35z M151,15
		c-4.962,0-8.999,4.038-8.999,9s4.037,9,8.999,9c4.963,0,9-4.038,9-9S155.962,15,151,15z"/>
</g>
<g>
	<path fill="#1D1D1B" d="M199,30c-3.309,0-6-2.691-6-6s2.691-6,6-6s6,2.691,6,6S202.308,30,199,30z M199,20c-2.206,0-4,1.794-4,4
		s1.794,4,4,4s4-1.794,4-4S201.206,20,199,20z"/>
</g>
<g enable-background="new    ">
	<path d="M15.299,63.485c-0.429,0-0.771-0.154-1.025-0.462s-0.381-0.747-0.381-1.316c0-0.275,0.041-0.523,0.123-0.745
		c0.082-0.222,0.19-0.409,0.325-0.563s0.292-0.273,0.469-0.357c0.177-0.084,0.364-0.126,0.56-0.126c0.196,0,0.366,0.035,0.511,0.105
		s0.292,0.166,0.441,0.287l-0.028-0.581v-1.31h0.581v4.984h-0.476l-0.049-0.399h-0.021c-0.136,0.131-0.291,0.244-0.466,0.34
		C15.688,63.437,15.5,63.485,15.299,63.485z M15.425,63.002c0.159,0,0.308-0.038,0.448-0.115s0.28-0.194,0.42-0.354v-1.778
		c-0.145-0.13-0.284-0.223-0.417-0.276s-0.27-0.08-0.41-0.08c-0.135,0-0.262,0.031-0.381,0.095
		c-0.119,0.062-0.223,0.151-0.312,0.266s-0.159,0.251-0.21,0.409c-0.051,0.159-0.077,0.336-0.077,0.532
		c0,0.411,0.082,0.73,0.245,0.959S15.127,63.002,15.425,63.002z"/>
	<path d="M18.323,60.958c-0.117,0-0.216-0.04-0.297-0.122c-0.082-0.082-0.123-0.186-0.123-0.312c0-0.136,0.041-0.244,0.123-0.325
		c0.082-0.082,0.181-0.123,0.297-0.123c0.112,0,0.209,0.041,0.291,0.123c0.082,0.081,0.123,0.189,0.123,0.325
		c0,0.126-0.041,0.229-0.123,0.312S18.435,60.958,18.323,60.958z M18.323,63.485c-0.117,0-0.216-0.041-0.297-0.122
		c-0.082-0.082-0.123-0.186-0.123-0.312c0-0.136,0.041-0.244,0.123-0.326c0.082-0.081,0.181-0.122,0.297-0.122
		c0.112,0,0.209,0.041,0.291,0.122c0.082,0.082,0.123,0.19,0.123,0.326c0,0.126-0.041,0.229-0.123,0.312
		C18.532,63.444,18.435,63.485,18.323,63.485z"/>
	<path d="M22.719,63.401v-1.232H20.71v-0.378l1.911-2.855h0.644v2.771h0.609v0.462h-0.609v1.232H22.719z M21.319,61.707h1.4v-1.295
		c0-0.121,0.003-0.265,0.011-0.431c0.007-0.165,0.015-0.309,0.024-0.43h-0.028c-0.056,0.107-0.114,0.212-0.175,0.314
		s-0.124,0.208-0.189,0.315L21.319,61.707z"/>
	<path d="M25.946,63.485c-0.219,0-0.422-0.044-0.609-0.133c-0.187-0.089-0.349-0.223-0.487-0.402s-0.246-0.404-0.325-0.672
		c-0.08-0.269-0.119-0.583-0.119-0.942c0-0.447,0.047-0.829,0.14-1.145c0.093-0.314,0.219-0.571,0.378-0.77s0.339-0.343,0.542-0.434
		c0.203-0.092,0.417-0.137,0.641-0.137c0.243,0,0.451,0.045,0.626,0.137c0.175,0.091,0.325,0.204,0.452,0.339l-0.322,0.357
		c-0.093-0.107-0.204-0.192-0.333-0.256c-0.128-0.062-0.262-0.095-0.402-0.095c-0.154,0-0.301,0.033-0.441,0.099
		c-0.14,0.065-0.264,0.173-0.371,0.321c-0.107,0.149-0.194,0.345-0.259,0.585s-0.1,0.538-0.105,0.893
		c0.14-0.173,0.303-0.31,0.49-0.409c0.187-0.101,0.371-0.151,0.553-0.151c0.388,0,0.697,0.115,0.928,0.344s0.347,0.573,0.347,1.036
		c0,0.214-0.035,0.409-0.105,0.584c-0.07,0.175-0.166,0.325-0.287,0.451c-0.122,0.126-0.262,0.225-0.42,0.294
		C26.299,63.45,26.128,63.485,25.946,63.485z M25.946,63.03c0.112,0,0.215-0.023,0.308-0.07c0.093-0.046,0.175-0.112,0.245-0.199
		c0.07-0.086,0.125-0.188,0.164-0.308c0.04-0.119,0.06-0.253,0.06-0.402c0-0.294-0.067-0.525-0.203-0.693
		c-0.136-0.168-0.343-0.252-0.623-0.252c-0.145,0-0.301,0.045-0.469,0.137c-0.168,0.091-0.322,0.241-0.462,0.451
		c0.037,0.438,0.139,0.771,0.305,0.997C25.437,62.917,25.662,63.03,25.946,63.03z"/>
	<path d="M28.124,64.836v-4.837h0.476l0.049,0.393h0.021c0.154-0.131,0.323-0.243,0.507-0.336c0.185-0.094,0.377-0.141,0.578-0.141
		c0.219,0,0.413,0.041,0.581,0.123c0.168,0.081,0.308,0.198,0.42,0.35c0.112,0.152,0.197,0.334,0.255,0.546
		c0.059,0.213,0.087,0.452,0.087,0.718c0,0.289-0.04,0.547-0.119,0.773c-0.08,0.227-0.187,0.419-0.322,0.577
		c-0.135,0.159-0.292,0.279-0.469,0.361c-0.178,0.081-0.364,0.122-0.56,0.122c-0.159,0-0.316-0.035-0.473-0.105
		c-0.156-0.069-0.314-0.165-0.473-0.286l0.014,0.595v1.147H28.124z M29.53,63.002c0.14,0,0.27-0.031,0.389-0.094
		c0.119-0.063,0.222-0.152,0.308-0.267c0.086-0.114,0.154-0.255,0.203-0.423c0.049-0.168,0.074-0.357,0.074-0.567
		c0-0.187-0.017-0.357-0.049-0.511c-0.033-0.154-0.085-0.286-0.157-0.396s-0.166-0.195-0.28-0.256
		c-0.114-0.061-0.25-0.091-0.409-0.091c-0.145,0-0.291,0.04-0.438,0.119s-0.305,0.193-0.473,0.343v1.785
		c0.154,0.131,0.303,0.223,0.448,0.276C29.29,62.975,29.418,63.002,29.53,63.002z"/>
	<path d="M31.414,63.401l1.113-1.778l-1.029-1.624h0.623l0.455,0.749c0.052,0.094,0.105,0.188,0.161,0.284
		c0.056,0.096,0.114,0.189,0.175,0.283h0.028c0.051-0.094,0.103-0.188,0.154-0.283s0.103-0.19,0.154-0.284l0.413-0.749h0.602
		l-1.029,1.688l1.106,1.715h-0.623l-0.497-0.791c-0.061-0.103-0.121-0.205-0.182-0.308c-0.061-0.103-0.124-0.203-0.189-0.302H32.82
		c-0.061,0.099-0.119,0.197-0.175,0.298s-0.112,0.204-0.168,0.312l-0.462,0.791H31.414z"/>
</g>
<g enable-background="new    ">
	<path d="M85.299,63.485c-0.429,0-0.771-0.154-1.025-0.462s-0.381-0.747-0.381-1.316c0-0.275,0.041-0.523,0.123-0.745
		c0.082-0.222,0.19-0.409,0.325-0.563s0.292-0.273,0.469-0.357c0.177-0.084,0.364-0.126,0.56-0.126c0.196,0,0.366,0.035,0.511,0.105
		s0.292,0.166,0.441,0.287l-0.028-0.581v-1.31h0.581v4.984h-0.476l-0.049-0.399h-0.021c-0.136,0.131-0.291,0.244-0.466,0.34
		C85.688,63.437,85.5,63.485,85.299,63.485z M85.425,63.002c0.159,0,0.308-0.038,0.448-0.115s0.28-0.194,0.42-0.354v-1.778
		c-0.145-0.13-0.284-0.223-0.417-0.276s-0.27-0.08-0.41-0.08c-0.135,0-0.262,0.031-0.381,0.095
		c-0.119,0.062-0.223,0.151-0.312,0.266s-0.159,0.251-0.21,0.409c-0.051,0.159-0.077,0.336-0.077,0.532
		c0,0.411,0.082,0.73,0.245,0.959S85.127,63.002,85.425,63.002z"/>
	<path d="M88.323,60.958c-0.117,0-0.216-0.04-0.297-0.122c-0.082-0.082-0.123-0.186-0.123-0.312c0-0.136,0.041-0.244,0.123-0.325
		c0.082-0.082,0.181-0.123,0.297-0.123c0.112,0,0.209,0.041,0.291,0.123c0.082,0.081,0.123,0.189,0.123,0.325
		c0,0.126-0.041,0.229-0.123,0.312S88.435,60.958,88.323,60.958z M88.323,63.485c-0.117,0-0.216-0.041-0.297-0.122
		c-0.082-0.082-0.123-0.186-0.123-0.312c0-0.136,0.041-0.244,0.123-0.326c0.082-0.081,0.181-0.122,0.297-0.122
		c0.112,0,0.209,0.041,0.291,0.122c0.082,0.082,0.123,0.19,0.123,0.326c0,0.126-0.041,0.229-0.123,0.312
		C88.532,63.444,88.435,63.485,88.323,63.485z"/>
	<path d="M92.243,63.485c-0.177,0-0.339-0.018-0.486-0.053s-0.281-0.081-0.402-0.14c-0.122-0.059-0.23-0.125-0.326-0.199
		c-0.096-0.075-0.181-0.154-0.255-0.238l0.294-0.378c0.135,0.14,0.292,0.264,0.473,0.371c0.179,0.107,0.402,0.161,0.668,0.161
		c0.271,0,0.492-0.074,0.665-0.221c0.172-0.147,0.259-0.347,0.259-0.599c0-0.131-0.024-0.251-0.074-0.36
		c-0.049-0.109-0.129-0.204-0.241-0.284c-0.112-0.079-0.259-0.14-0.441-0.182c-0.182-0.042-0.406-0.062-0.672-0.062V60.86
		c0.238,0,0.438-0.021,0.599-0.062c0.161-0.043,0.292-0.101,0.392-0.176c0.1-0.074,0.171-0.163,0.213-0.266s0.063-0.212,0.063-0.329
		c0-0.22-0.069-0.392-0.207-0.518s-0.325-0.189-0.563-0.189c-0.187,0-0.358,0.042-0.514,0.126c-0.157,0.084-0.302,0.193-0.438,0.329
		l-0.308-0.364c0.172-0.163,0.363-0.297,0.57-0.402c0.208-0.104,0.445-0.157,0.71-0.157c0.196,0,0.376,0.025,0.539,0.077
		c0.164,0.051,0.305,0.125,0.423,0.22c0.119,0.096,0.211,0.214,0.277,0.354c0.065,0.141,0.098,0.302,0.098,0.483
		c0,0.271-0.075,0.492-0.224,0.665c-0.149,0.173-0.346,0.306-0.588,0.399v0.027c0.136,0.033,0.262,0.081,0.378,0.144
		c0.116,0.063,0.219,0.143,0.308,0.238c0.089,0.096,0.158,0.206,0.207,0.332c0.049,0.126,0.074,0.267,0.074,0.42
		c0,0.196-0.039,0.374-0.116,0.532c-0.077,0.159-0.182,0.293-0.315,0.402c-0.133,0.11-0.288,0.194-0.465,0.252
		C92.64,63.456,92.449,63.485,92.243,63.485z"/>
	<path d="M95.813,63.485c-0.453,0-0.805-0.2-1.057-0.602s-0.378-0.978-0.378-1.729c0-0.751,0.126-1.323,0.378-1.715
		s0.604-0.588,1.057-0.588c0.448,0,0.798,0.196,1.05,0.588s0.378,0.964,0.378,1.715c0,0.752-0.126,1.328-0.378,1.729
		S96.261,63.485,95.813,63.485z M95.813,63.023c0.13,0,0.249-0.036,0.354-0.108s0.196-0.185,0.273-0.336
		c0.077-0.151,0.136-0.346,0.178-0.581s0.063-0.517,0.063-0.844c0-0.326-0.021-0.606-0.063-0.84s-0.102-0.424-0.178-0.57
		c-0.077-0.147-0.168-0.256-0.273-0.326c-0.105-0.069-0.223-0.104-0.354-0.104c-0.131,0-0.25,0.035-0.357,0.104
		c-0.107,0.07-0.2,0.179-0.277,0.326c-0.077,0.146-0.136,0.337-0.178,0.57s-0.063,0.514-0.063,0.84c0,0.653,0.081,1.128,0.241,1.425
		C95.341,62.875,95.552,63.023,95.813,63.023z"/>
	<path d="M98.124,64.836v-4.837h0.476l0.049,0.393h0.021c0.154-0.131,0.323-0.243,0.507-0.336c0.185-0.094,0.377-0.141,0.578-0.141
		c0.219,0,0.413,0.041,0.581,0.123c0.168,0.081,0.308,0.198,0.42,0.35c0.112,0.152,0.197,0.334,0.255,0.546
		c0.059,0.213,0.087,0.452,0.087,0.718c0,0.289-0.04,0.547-0.119,0.773c-0.08,0.227-0.187,0.419-0.322,0.577
		c-0.135,0.159-0.292,0.279-0.469,0.361c-0.178,0.081-0.364,0.122-0.56,0.122c-0.159,0-0.316-0.035-0.473-0.105
		c-0.156-0.069-0.314-0.165-0.473-0.286l0.014,0.595v1.147H98.124z M99.53,63.002c0.14,0,0.27-0.031,0.389-0.094
		c0.119-0.063,0.222-0.152,0.308-0.267c0.086-0.114,0.154-0.255,0.203-0.423c0.049-0.168,0.074-0.357,0.074-0.567
		c0-0.187-0.017-0.357-0.049-0.511c-0.033-0.154-0.085-0.286-0.157-0.396s-0.166-0.195-0.28-0.256
		c-0.114-0.061-0.25-0.091-0.409-0.091c-0.145,0-0.291,0.04-0.438,0.119s-0.305,0.193-0.473,0.343v1.785
		c0.154,0.131,0.303,0.223,0.448,0.276C99.29,62.975,99.418,63.002,99.53,63.002z"/>
	<path d="M101.414,63.401l1.113-1.778l-1.029-1.624h0.623l0.455,0.749c0.052,0.094,0.105,0.188,0.161,0.284
		c0.056,0.096,0.114,0.189,0.175,0.283h0.028c0.051-0.094,0.103-0.188,0.154-0.283s0.103-0.19,0.154-0.284l0.413-0.749h0.602
		l-1.029,1.688l1.106,1.715h-0.623l-0.497-0.791c-0.061-0.103-0.121-0.205-0.182-0.308c-0.061-0.103-0.124-0.203-0.189-0.302h-0.028
		c-0.061,0.099-0.119,0.197-0.175,0.298s-0.112,0.204-0.168,0.312l-0.462,0.791H101.414z"/>
</g>
<g enable-background="new    ">
	<path d="M142.299,63.485c-0.429,0-0.771-0.154-1.025-0.462c-0.254-0.308-0.381-0.747-0.381-1.316c0-0.275,0.041-0.523,0.123-0.745
		c0.082-0.222,0.19-0.409,0.325-0.563c0.136-0.154,0.292-0.273,0.47-0.357c0.177-0.084,0.363-0.126,0.56-0.126
		s0.366,0.035,0.511,0.105s0.291,0.166,0.441,0.287l-0.028-0.581v-1.31h0.581v4.984h-0.477l-0.049-0.399h-0.021
		c-0.136,0.131-0.29,0.244-0.466,0.34C142.688,63.437,142.5,63.485,142.299,63.485z M142.425,63.002
		c0.158,0,0.309-0.038,0.448-0.115s0.28-0.194,0.42-0.354v-1.778c-0.145-0.13-0.284-0.223-0.417-0.276s-0.27-0.08-0.409-0.08
		c-0.136,0-0.263,0.031-0.382,0.095c-0.119,0.062-0.223,0.151-0.311,0.266c-0.09,0.114-0.159,0.251-0.211,0.409
		c-0.051,0.159-0.076,0.336-0.076,0.532c0,0.411,0.081,0.73,0.244,0.959C141.896,62.887,142.126,63.002,142.425,63.002z"/>
	<path d="M145.324,60.958c-0.117,0-0.217-0.04-0.298-0.122c-0.082-0.082-0.122-0.186-0.122-0.312c0-0.136,0.04-0.244,0.122-0.325
		c0.081-0.082,0.181-0.123,0.298-0.123c0.111,0,0.209,0.041,0.29,0.123c0.081,0.081,0.122,0.189,0.122,0.325
		c0,0.126-0.041,0.229-0.122,0.312S145.435,60.958,145.324,60.958z M145.324,63.485c-0.117,0-0.217-0.041-0.298-0.122
		c-0.082-0.082-0.122-0.186-0.122-0.312c0-0.136,0.04-0.244,0.122-0.326c0.081-0.081,0.181-0.122,0.298-0.122
		c0.111,0,0.209,0.041,0.29,0.122c0.081,0.082,0.122,0.19,0.122,0.326c0,0.126-0.041,0.229-0.122,0.312
		C145.533,63.444,145.435,63.485,145.324,63.485z"/>
	<path d="M147.871,63.401v-0.343c0.337-0.336,0.635-0.64,0.896-0.91s0.48-0.521,0.658-0.753c0.178-0.23,0.312-0.443,0.406-0.637
		s0.14-0.382,0.14-0.563c0-0.257-0.069-0.467-0.21-0.63s-0.353-0.245-0.637-0.245c-0.188,0-0.359,0.053-0.518,0.157
		c-0.159,0.105-0.305,0.232-0.435,0.382l-0.329-0.329c0.187-0.205,0.385-0.37,0.596-0.493c0.209-0.124,0.461-0.186,0.756-0.186
		c0.414,0,0.742,0.12,0.979,0.36s0.356,0.559,0.356,0.955c0,0.21-0.045,0.422-0.136,0.634c-0.091,0.213-0.218,0.432-0.378,0.658
		c-0.161,0.227-0.353,0.462-0.574,0.707s-0.465,0.505-0.731,0.78c0.121-0.009,0.247-0.019,0.378-0.028
		c0.131-0.009,0.254-0.014,0.371-0.014h1.295v0.497H147.871z"/>
	<path d="M152.814,63.485c-0.453,0-0.806-0.2-1.058-0.602s-0.378-0.978-0.378-1.729c0-0.751,0.126-1.323,0.378-1.715
		s0.604-0.588,1.058-0.588c0.447,0,0.797,0.196,1.049,0.588s0.379,0.964,0.379,1.715c0,0.752-0.127,1.328-0.379,1.729
		S153.261,63.485,152.814,63.485z M152.814,63.023c0.13,0,0.248-0.036,0.354-0.108c0.104-0.072,0.195-0.185,0.272-0.336
		s0.136-0.346,0.179-0.581c0.041-0.235,0.062-0.517,0.062-0.844c0-0.326-0.021-0.606-0.062-0.84
		c-0.043-0.233-0.102-0.424-0.179-0.57c-0.077-0.147-0.168-0.256-0.272-0.326c-0.105-0.069-0.224-0.104-0.354-0.104
		c-0.131,0-0.25,0.035-0.357,0.104c-0.107,0.07-0.199,0.179-0.277,0.326c-0.076,0.146-0.136,0.337-0.178,0.57
		s-0.062,0.514-0.062,0.84c0,0.653,0.08,1.128,0.24,1.425C152.341,62.875,152.552,63.023,152.814,63.023z"/>
	<path d="M155.124,64.836v-4.837h0.476l0.049,0.393h0.021c0.154-0.131,0.322-0.243,0.508-0.336c0.184-0.094,0.377-0.141,0.577-0.141
		c0.22,0,0.413,0.041,0.581,0.123c0.168,0.081,0.309,0.198,0.42,0.35c0.111,0.152,0.197,0.334,0.256,0.546
		c0.059,0.213,0.087,0.452,0.087,0.718c0,0.289-0.04,0.547-0.118,0.773c-0.08,0.227-0.188,0.419-0.322,0.577
		c-0.136,0.159-0.292,0.279-0.469,0.361c-0.178,0.081-0.365,0.122-0.561,0.122c-0.158,0-0.316-0.035-0.473-0.105
		c-0.156-0.069-0.314-0.165-0.473-0.286l0.014,0.595v1.147H155.124z M156.531,63.002c0.14,0,0.27-0.031,0.389-0.094
		c0.118-0.063,0.221-0.152,0.308-0.267c0.086-0.114,0.153-0.255,0.202-0.423c0.05-0.168,0.074-0.357,0.074-0.567
		c0-0.187-0.017-0.357-0.049-0.511c-0.033-0.154-0.086-0.286-0.158-0.396s-0.165-0.195-0.279-0.256
		c-0.115-0.061-0.251-0.091-0.41-0.091c-0.145,0-0.29,0.04-0.438,0.119c-0.146,0.079-0.305,0.193-0.473,0.343v1.785
		c0.154,0.131,0.304,0.223,0.449,0.276C156.291,62.975,156.418,63.002,156.531,63.002z"/>
	<path d="M158.414,63.401l1.113-1.778l-1.029-1.624h0.623l0.455,0.749c0.051,0.094,0.105,0.188,0.16,0.284
		c0.057,0.096,0.115,0.189,0.176,0.283h0.027c0.052-0.094,0.104-0.188,0.154-0.283s0.103-0.19,0.154-0.284l0.413-0.749h0.602
		l-1.028,1.688l1.105,1.715h-0.623l-0.497-0.791c-0.061-0.103-0.121-0.205-0.182-0.308c-0.062-0.103-0.124-0.203-0.188-0.302h-0.029
		c-0.061,0.099-0.118,0.197-0.174,0.298c-0.057,0.101-0.113,0.204-0.168,0.312l-0.463,0.791H158.414z"/>
</g>
<g enable-background="new    ">
	<path d="M190.299,63.485c-0.429,0-0.771-0.154-1.025-0.462s-0.382-0.747-0.382-1.316c0-0.275,0.041-0.523,0.123-0.745
		s0.189-0.409,0.325-0.563s0.292-0.273,0.47-0.357c0.177-0.084,0.363-0.126,0.56-0.126s0.366,0.035,0.511,0.105
		s0.291,0.166,0.441,0.287l-0.028-0.581v-1.31h0.581v4.984h-0.477l-0.049-0.399h-0.021c-0.136,0.131-0.29,0.244-0.466,0.34
		C190.688,63.437,190.5,63.485,190.299,63.485z M190.425,63.002c0.158,0,0.309-0.038,0.448-0.115s0.28-0.194,0.42-0.354v-1.778
		c-0.145-0.13-0.284-0.223-0.417-0.276s-0.27-0.08-0.409-0.08c-0.136,0-0.263,0.031-0.382,0.095
		c-0.119,0.062-0.223,0.151-0.311,0.266c-0.09,0.114-0.159,0.251-0.211,0.409c-0.051,0.159-0.076,0.336-0.076,0.532
		c0,0.411,0.081,0.73,0.244,0.959C189.896,62.887,190.126,63.002,190.425,63.002z"/>
	<path d="M193.324,60.958c-0.117,0-0.217-0.04-0.298-0.122c-0.082-0.082-0.122-0.186-0.122-0.312c0-0.136,0.04-0.244,0.122-0.325
		c0.081-0.082,0.181-0.123,0.298-0.123c0.111,0,0.209,0.041,0.29,0.123c0.081,0.081,0.122,0.189,0.122,0.325
		c0,0.126-0.041,0.229-0.122,0.312S193.435,60.958,193.324,60.958z M193.324,63.485c-0.117,0-0.217-0.041-0.298-0.122
		c-0.082-0.082-0.122-0.186-0.122-0.312c0-0.136,0.04-0.244,0.122-0.326c0.081-0.081,0.181-0.122,0.298-0.122
		c0.111,0,0.209,0.041,0.29,0.122c0.081,0.082,0.122,0.19,0.122,0.326c0,0.126-0.041,0.229-0.122,0.312
		C193.533,63.444,193.435,63.485,193.324,63.485z"/>
	<path d="M196.144,63.401v-0.476h1.022v-3.29h-0.812v-0.371c0.205-0.037,0.383-0.083,0.535-0.137
		c0.151-0.054,0.287-0.118,0.409-0.192h0.44v3.99h0.925v0.476H196.144z"/>
	<path d="M200.814,63.485c-0.453,0-0.806-0.2-1.058-0.602s-0.378-0.978-0.378-1.729c0-0.751,0.126-1.323,0.378-1.715
		s0.604-0.588,1.058-0.588c0.447,0,0.797,0.196,1.049,0.588s0.379,0.964,0.379,1.715c0,0.752-0.127,1.328-0.379,1.729
		S201.261,63.485,200.814,63.485z M200.814,63.023c0.13,0,0.248-0.036,0.354-0.108c0.104-0.072,0.195-0.185,0.272-0.336
		s0.136-0.346,0.179-0.581c0.041-0.235,0.062-0.517,0.062-0.844c0-0.326-0.021-0.606-0.062-0.84
		c-0.043-0.233-0.102-0.424-0.179-0.57c-0.077-0.147-0.168-0.256-0.272-0.326c-0.105-0.069-0.224-0.104-0.354-0.104
		c-0.131,0-0.25,0.035-0.357,0.104c-0.107,0.07-0.199,0.179-0.277,0.326c-0.076,0.146-0.136,0.337-0.178,0.57
		s-0.062,0.514-0.062,0.84c0,0.653,0.08,1.128,0.24,1.425C200.341,62.875,200.552,63.023,200.814,63.023z"/>
	<path d="M203.124,64.836v-4.837h0.476l0.049,0.393h0.021c0.154-0.131,0.322-0.243,0.508-0.336c0.184-0.094,0.377-0.141,0.577-0.141
		c0.22,0,0.413,0.041,0.581,0.123c0.168,0.081,0.309,0.198,0.42,0.35c0.111,0.152,0.197,0.334,0.256,0.546
		c0.059,0.213,0.087,0.452,0.087,0.718c0,0.289-0.04,0.547-0.118,0.773c-0.08,0.227-0.188,0.419-0.322,0.577
		c-0.136,0.159-0.292,0.279-0.469,0.361c-0.178,0.081-0.365,0.122-0.561,0.122c-0.158,0-0.316-0.035-0.473-0.105
		c-0.156-0.069-0.314-0.165-0.473-0.286l0.014,0.595v1.147H203.124z M204.531,63.002c0.14,0,0.27-0.031,0.389-0.094
		c0.118-0.063,0.221-0.152,0.308-0.267c0.086-0.114,0.153-0.255,0.202-0.423c0.05-0.168,0.074-0.357,0.074-0.567
		c0-0.187-0.017-0.357-0.049-0.511c-0.033-0.154-0.086-0.286-0.158-0.396s-0.165-0.195-0.279-0.256
		c-0.115-0.061-0.251-0.091-0.41-0.091c-0.145,0-0.29,0.04-0.438,0.119c-0.146,0.079-0.305,0.193-0.473,0.343v1.785
		c0.154,0.131,0.304,0.223,0.449,0.276C204.291,62.975,204.418,63.002,204.531,63.002z"/>
	<path d="M206.414,63.401l1.113-1.778l-1.029-1.624h0.623l0.455,0.749c0.051,0.094,0.105,0.188,0.16,0.284
		c0.057,0.096,0.115,0.189,0.176,0.283h0.027c0.052-0.094,0.104-0.188,0.154-0.283s0.103-0.19,0.154-0.284l0.413-0.749h0.602
		l-1.028,1.688l1.105,1.715h-0.623l-0.497-0.791c-0.061-0.103-0.121-0.205-0.182-0.308c-0.062-0.103-0.124-0.203-0.188-0.302h-0.029
		c-0.061,0.099-0.118,0.197-0.174,0.298c-0.057,0.101-0.113,0.204-0.168,0.312l-0.463,0.791H206.414z"/>
</g>
<g enable-background="new    ">
	<path d="M228.884,63.485c-0.43,0-0.771-0.154-1.025-0.462s-0.381-0.747-0.381-1.316c0-0.275,0.04-0.523,0.122-0.745
		c0.081-0.222,0.19-0.409,0.325-0.563s0.291-0.273,0.469-0.357s0.364-0.126,0.561-0.126c0.195,0,0.366,0.035,0.511,0.105
		s0.292,0.166,0.44,0.287l-0.027-0.581v-1.31h0.581v4.984h-0.476l-0.049-0.399h-0.021c-0.136,0.131-0.291,0.244-0.466,0.34
		S229.085,63.485,228.884,63.485z M229.01,63.002c0.159,0,0.308-0.038,0.448-0.115s0.279-0.194,0.42-0.354v-1.778
		c-0.145-0.13-0.283-0.223-0.416-0.276s-0.27-0.08-0.41-0.08c-0.135,0-0.262,0.031-0.381,0.095
		c-0.119,0.062-0.223,0.151-0.312,0.266c-0.088,0.114-0.158,0.251-0.209,0.409c-0.052,0.159-0.078,0.336-0.078,0.532
		c0,0.411,0.082,0.73,0.246,0.959C228.481,62.887,228.712,63.002,229.01,63.002z"/>
	<path d="M231.908,60.958c-0.116,0-0.215-0.04-0.297-0.122s-0.123-0.186-0.123-0.312c0-0.136,0.041-0.244,0.123-0.325
		c0.082-0.082,0.181-0.123,0.297-0.123c0.112,0,0.209,0.041,0.291,0.123c0.082,0.081,0.123,0.189,0.123,0.325
		c0,0.126-0.041,0.229-0.123,0.312S232.02,60.958,231.908,60.958z M231.908,63.485c-0.116,0-0.215-0.041-0.297-0.122
		c-0.082-0.082-0.123-0.186-0.123-0.312c0-0.136,0.041-0.244,0.123-0.326c0.082-0.081,0.181-0.122,0.297-0.122
		c0.112,0,0.209,0.041,0.291,0.122c0.082,0.082,0.123,0.19,0.123,0.326c0,0.126-0.041,0.229-0.123,0.312
		C232.117,63.444,232.02,63.485,231.908,63.485z"/>
	<path d="M236.052,63.485c-0.219,0-0.422-0.044-0.609-0.133c-0.187-0.089-0.349-0.223-0.486-0.402s-0.246-0.404-0.325-0.672
		c-0.079-0.269-0.119-0.583-0.119-0.942c0-0.447,0.047-0.829,0.14-1.145c0.094-0.314,0.22-0.571,0.379-0.77
		c0.158-0.198,0.339-0.343,0.542-0.434c0.203-0.092,0.417-0.137,0.641-0.137c0.243,0,0.451,0.045,0.626,0.137
		c0.176,0.091,0.326,0.204,0.452,0.339l-0.322,0.357c-0.093-0.107-0.204-0.192-0.333-0.256c-0.128-0.062-0.262-0.095-0.402-0.095
		c-0.154,0-0.301,0.033-0.44,0.099s-0.264,0.173-0.371,0.321c-0.107,0.149-0.194,0.345-0.259,0.585
		c-0.066,0.24-0.101,0.538-0.105,0.893c0.141-0.173,0.303-0.31,0.49-0.409c0.187-0.101,0.371-0.151,0.553-0.151
		c0.388,0,0.697,0.115,0.928,0.344s0.347,0.573,0.347,1.036c0,0.214-0.035,0.409-0.104,0.584c-0.07,0.175-0.166,0.325-0.287,0.451
		c-0.122,0.126-0.262,0.225-0.42,0.294C236.405,63.45,236.234,63.485,236.052,63.485z M236.052,63.03
		c0.111,0,0.215-0.023,0.309-0.07c0.093-0.046,0.174-0.112,0.244-0.199c0.07-0.086,0.125-0.188,0.164-0.308
		c0.041-0.119,0.061-0.253,0.061-0.402c0-0.294-0.068-0.525-0.203-0.693c-0.136-0.168-0.344-0.252-0.623-0.252
		c-0.145,0-0.301,0.045-0.469,0.137c-0.168,0.091-0.322,0.241-0.463,0.451c0.037,0.438,0.139,0.771,0.305,0.997
		C235.542,62.917,235.767,63.03,236.052,63.03z"/>
	<path d="M238.23,64.836v-4.837h0.475l0.05,0.393h0.021c0.154-0.131,0.323-0.243,0.508-0.336c0.185-0.094,0.377-0.141,0.578-0.141
		c0.219,0,0.412,0.041,0.58,0.123c0.168,0.081,0.309,0.198,0.42,0.35c0.112,0.152,0.197,0.334,0.256,0.546
		c0.059,0.213,0.088,0.452,0.088,0.718c0,0.289-0.04,0.547-0.119,0.773c-0.08,0.227-0.188,0.419-0.322,0.577
		c-0.135,0.159-0.291,0.279-0.469,0.361c-0.178,0.081-0.364,0.122-0.561,0.122c-0.158,0-0.316-0.035-0.473-0.105
		c-0.156-0.069-0.313-0.165-0.473-0.286l0.015,0.595v1.147H238.23z M239.636,63.002c0.141,0,0.27-0.031,0.389-0.094
		c0.119-0.063,0.222-0.152,0.309-0.267c0.086-0.114,0.153-0.255,0.202-0.423c0.05-0.168,0.073-0.357,0.073-0.567
		c0-0.187-0.016-0.357-0.049-0.511c-0.033-0.154-0.085-0.286-0.157-0.396s-0.165-0.195-0.28-0.256
		c-0.114-0.061-0.25-0.091-0.409-0.091c-0.146,0-0.29,0.04-0.438,0.119s-0.305,0.193-0.473,0.343v1.785
		c0.153,0.131,0.304,0.223,0.448,0.276S239.525,63.002,239.636,63.002z"/>
	<path d="M241.519,63.401l1.113-1.778l-1.029-1.624h0.623l0.455,0.749c0.052,0.094,0.105,0.188,0.161,0.284s0.114,0.189,0.175,0.283
		h0.028c0.052-0.094,0.103-0.188,0.153-0.283c0.052-0.096,0.104-0.19,0.154-0.284l0.414-0.749h0.602l-1.029,1.688l1.105,1.715
		h-0.623l-0.496-0.791c-0.061-0.103-0.121-0.205-0.182-0.308c-0.062-0.103-0.125-0.203-0.189-0.302h-0.028
		c-0.061,0.099-0.118,0.197-0.175,0.298s-0.112,0.204-0.168,0.312l-0.462,0.791H241.519z"/>
</g>
<g enable-background="new    ">
	<path d="M266.504,63.485c-0.429,0-0.771-0.154-1.025-0.462s-0.382-0.747-0.382-1.316c0-0.275,0.041-0.523,0.123-0.745
		s0.189-0.409,0.325-0.563s0.292-0.273,0.47-0.357c0.177-0.084,0.363-0.126,0.56-0.126s0.366,0.035,0.511,0.105
		s0.291,0.166,0.441,0.287l-0.028-0.581v-1.31h0.581v4.984h-0.477l-0.049-0.399h-0.021c-0.136,0.131-0.29,0.244-0.466,0.34
		C266.893,63.437,266.705,63.485,266.504,63.485z M266.63,63.002c0.158,0,0.309-0.038,0.448-0.115s0.28-0.194,0.42-0.354v-1.778
		c-0.145-0.13-0.284-0.223-0.417-0.276s-0.27-0.08-0.409-0.08c-0.136,0-0.263,0.031-0.382,0.095
		c-0.119,0.062-0.223,0.151-0.311,0.266c-0.09,0.114-0.159,0.251-0.211,0.409c-0.051,0.159-0.076,0.336-0.076,0.532
		c0,0.411,0.081,0.73,0.244,0.959C266.101,62.887,266.332,63.002,266.63,63.002z"/>
	<path d="M269.529,60.958c-0.117,0-0.217-0.04-0.298-0.122c-0.082-0.082-0.122-0.186-0.122-0.312c0-0.136,0.04-0.244,0.122-0.325
		c0.081-0.082,0.181-0.123,0.298-0.123c0.111,0,0.209,0.041,0.29,0.123c0.081,0.081,0.122,0.189,0.122,0.325
		c0,0.126-0.041,0.229-0.122,0.312S269.64,60.958,269.529,60.958z M269.529,63.485c-0.117,0-0.217-0.041-0.298-0.122
		c-0.082-0.082-0.122-0.186-0.122-0.312c0-0.136,0.04-0.244,0.122-0.326c0.081-0.081,0.181-0.122,0.298-0.122
		c0.111,0,0.209,0.041,0.29,0.122c0.081,0.082,0.122,0.19,0.122,0.326c0,0.126-0.041,0.229-0.122,0.312
		C269.738,63.444,269.64,63.485,269.529,63.485z"/>
	<path d="M273.924,63.401v-1.232h-2.009v-0.378l1.91-2.855h0.645v2.771h0.609v0.462h-0.609v1.232H273.924z M272.525,61.707h1.399
		v-1.295c0-0.121,0.003-0.265,0.011-0.431c0.007-0.165,0.016-0.309,0.024-0.43h-0.028c-0.056,0.107-0.114,0.212-0.175,0.314
		s-0.124,0.208-0.188,0.315L272.525,61.707z"/>
	<path d="M275.849,64.836v-4.837h0.477l0.049,0.393h0.021c0.153-0.131,0.322-0.243,0.507-0.336c0.185-0.094,0.377-0.141,0.577-0.141
		c0.22,0,0.414,0.041,0.582,0.123c0.168,0.081,0.308,0.198,0.42,0.35c0.111,0.152,0.197,0.334,0.255,0.546
		c0.059,0.213,0.087,0.452,0.087,0.718c0,0.289-0.039,0.547-0.118,0.773s-0.187,0.419-0.322,0.577
		c-0.136,0.159-0.292,0.279-0.469,0.361c-0.178,0.081-0.364,0.122-0.56,0.122c-0.159,0-0.316-0.035-0.473-0.105
		c-0.156-0.069-0.314-0.165-0.473-0.286l0.014,0.595v1.147H275.849z M277.256,63.002c0.14,0,0.27-0.031,0.389-0.094
		c0.118-0.063,0.222-0.152,0.308-0.267s0.154-0.255,0.203-0.423s0.074-0.357,0.074-0.567c0-0.187-0.018-0.357-0.05-0.511
		c-0.032-0.154-0.085-0.286-0.157-0.396s-0.166-0.195-0.28-0.256s-0.251-0.091-0.409-0.091c-0.145,0-0.291,0.04-0.438,0.119
		s-0.305,0.193-0.473,0.343v1.785c0.154,0.131,0.303,0.223,0.448,0.276C277.016,62.975,277.144,63.002,277.256,63.002z"/>
	<path d="M279.14,63.401l1.112-1.778l-1.028-1.624h0.623l0.454,0.749c0.052,0.094,0.105,0.188,0.161,0.284
		c0.057,0.096,0.114,0.189,0.176,0.283h0.027c0.051-0.094,0.103-0.188,0.154-0.283c0.051-0.096,0.102-0.19,0.154-0.284l0.412-0.749
		h0.602l-1.028,1.688l1.106,1.715h-0.623l-0.498-0.791c-0.061-0.103-0.121-0.205-0.182-0.308s-0.123-0.203-0.188-0.302h-0.028
		c-0.061,0.099-0.119,0.197-0.175,0.298s-0.112,0.204-0.168,0.312l-0.462,0.791H279.14z"/>
</g>
</svg>
