<?xml version="1.0" encoding="utf-8"?>
<!-- Generator: Adobe Illustrator 16.0.4, SVG Export Plug-In . SVG Version: 6.00 Build 0)  -->
<!DOCTYPE svg PUBLIC "-//W3C//DTD SVG 1.1//EN" "http://www.w3.org/Graphics/SVG/1.1/DTD/svg11.dtd">
<svg version="1.1" id="Ebene_1" xmlns="http://www.w3.org/2000/svg" xmlns:xlink="http://www.w3.org/1999/xlink" x="0px" y="0px"
	 width="250.5px" height="70.8px" viewBox="0 0 250.5 70.8" enable-background="new 0 0 250.5 70.8" xml:space="preserve">
<g>
	<g>
		<path fill="#E27022" d="M45.8,32.9H33c-7.168,0-13-5.832-13-13s5.832-13,13-13h12.8c0.552,0,1,0.448,1,1s-0.448,1-1,1H33
			c-6.065,0-11,4.935-11,11s4.935,11,11,11h12.8c0.552,0,1,0.448,1,1S46.352,32.9,45.8,32.9z"/>
	</g>
</g>
<g>
	<path d="M33,23.6c-2.041,0-3.7-1.66-3.7-3.7s1.66-3.7,3.7-3.7s3.7,1.66,3.7,3.7S35.041,23.6,33,23.6z M33,17.2
		c-1.489,0-2.7,1.211-2.7,2.7s1.211,2.7,2.7,2.7s2.7-1.211,2.7-2.7S34.489,17.2,33,17.2z"/>
</g>
<g>
	<path d="M121.8,23.6c-2.04,0-3.7-1.66-3.7-3.7s1.66-3.7,3.7-3.7c2.041,0,3.7,1.66,3.7,3.7S123.84,23.6,121.8,23.6z M121.8,17.2
		c-1.489,0-2.7,1.211-2.7,2.7s1.211,2.7,2.7,2.7s2.7-1.211,2.7-2.7S123.289,17.2,121.8,17.2z"/>
</g>
<g>
	<g>
		<path fill="#E27022" d="M109.8,33.6c-0.552,0-1-0.448-1-1V19.9c0-7.168,5.832-13,13-13h12c0.553,0,1,0.448,1,1s-0.447,1-1,1h-12
			c-6.065,0-11,4.935-11,11v12.7C110.8,33.152,110.352,33.6,109.8,33.6z"/>
	</g>
</g>
<g>
	<g>
		<path d="M195.8,32.4c-0.276,0-0.5-0.224-0.5-0.5v-12c0-6.843,5.604-12.496,12.492-12.6L220.596,7.2c0.001,0,0.003,0,0.004,0
			c0.274,0,0.498,0.221,0.5,0.496c0.002,0.276-0.22,0.502-0.496,0.504l-12.8,0.101C201.462,8.396,196.3,13.6,196.3,19.9v12
			C196.3,32.176,196.076,32.4,195.8,32.4z"/>
	</g>
</g>
<g>
	<path fill="#E27022" d="M207.8,23.9c-2.316,0-4.2-1.884-4.2-4.2s1.884-4.2,4.2-4.2s4.2,1.884,4.2,4.2S210.116,23.9,207.8,23.9z
		 M207.8,17.5c-1.213,0-2.2,0.987-2.2,2.2c0,1.213,0.987,2.2,2.2,2.2s2.2-0.987,2.2-2.2C210,18.487,209.013,17.5,207.8,17.5z"/>
</g>
<g>
	<g>
		<path d="M195.8,32.6c-0.276,0-0.5-0.224-0.5-0.5V19.9c0-6.843,5.604-12.496,12.492-12.6L220.596,7.2c0.001,0,0.003,0,0.004,0
			c0.274,0,0.498,0.221,0.5,0.496c0.002,0.276-0.22,0.502-0.496,0.504l-12.8,0.101C201.462,8.396,196.3,13.6,196.3,19.9v12.2
			C196.3,32.376,196.076,32.6,195.8,32.6z"/>
	</g>
</g>
<g>
	<g>
		<path d="M217.8,32.4c-0.276,0-0.5-0.224-0.5-0.5v-1.2c0-0.771,0.729-1.5,1.5-1.5h1.8c0.276,0,0.5,0.224,0.5,0.5
			s-0.224,0.5-0.5,0.5h-1.8c-0.225,0-0.5,0.276-0.5,0.5v1.2C218.3,32.176,218.076,32.4,217.8,32.4z"/>
	</g>
</g>
<g>
	<path fill="#E27022" d="M220.5,20.7H211c-0.553,0-1-0.448-1-1s0.447-1,1-1h9.5c0.553,0,1,0.448,1,1S221.053,20.7,220.5,20.7z"/>
</g>
<g>
	<path fill="#E27022" d="M207.8,32.9c-0.553,0-1-0.448-1-1V23c0-0.552,0.447-1,1-1s1,0.448,1,1v8.9
		C208.8,32.452,208.353,32.9,207.8,32.9z"/>
</g>
<g enable-background="new    ">
	<path d="M21.492,52.214v-2.916H21.9l0.042,0.528h0.018c0.1-0.185,0.221-0.33,0.363-0.438c0.142-0.107,0.297-0.162,0.465-0.162
		c0.116,0,0.22,0.021,0.312,0.061l-0.096,0.432c-0.048-0.016-0.092-0.028-0.132-0.036s-0.09-0.012-0.15-0.012
		c-0.124,0-0.253,0.05-0.387,0.15c-0.134,0.1-0.251,0.273-0.351,0.521v1.872H21.492z"/>
	<path d="M24.648,52.287c-0.18,0-0.351-0.034-0.513-0.103c-0.162-0.067-0.305-0.167-0.429-0.297s-0.223-0.29-0.297-0.479
		c-0.074-0.19-0.111-0.405-0.111-0.646c0-0.244,0.037-0.461,0.111-0.65c0.074-0.19,0.173-0.352,0.297-0.483s0.267-0.232,0.429-0.3
		c0.162-0.068,0.333-0.103,0.513-0.103s0.351,0.034,0.513,0.103c0.162,0.067,0.305,0.168,0.429,0.3s0.223,0.293,0.297,0.483
		c0.074,0.189,0.111,0.406,0.111,0.65c0,0.24-0.037,0.455-0.111,0.646c-0.074,0.189-0.173,0.35-0.297,0.479
		s-0.267,0.229-0.429,0.297C24.999,52.252,24.828,52.287,24.648,52.287z M24.648,51.878c0.124,0,0.238-0.027,0.342-0.081
		s0.193-0.13,0.267-0.228c0.074-0.099,0.131-0.216,0.171-0.352c0.04-0.136,0.06-0.288,0.06-0.456s-0.02-0.321-0.06-0.459
		c-0.04-0.138-0.097-0.257-0.171-0.356c-0.074-0.101-0.163-0.178-0.267-0.231s-0.218-0.081-0.342-0.081s-0.238,0.027-0.342,0.081
		s-0.193,0.131-0.267,0.231c-0.074,0.1-0.131,0.219-0.171,0.356c-0.04,0.138-0.06,0.291-0.06,0.459s0.02,0.32,0.06,0.456
		c0.04,0.136,0.097,0.253,0.171,0.352c0.074,0.098,0.163,0.174,0.267,0.228S24.524,51.878,24.648,51.878z"/>
	<path d="M27.618,52.287c-0.312,0-0.539-0.097-0.681-0.288c-0.142-0.192-0.213-0.477-0.213-0.853v-1.848h0.498v1.782
		c0,0.275,0.042,0.475,0.129,0.597c0.086,0.122,0.225,0.184,0.417,0.184c0.152,0,0.286-0.039,0.402-0.117s0.244-0.203,0.384-0.375
		v-2.07h0.492v2.916h-0.408l-0.042-0.456h-0.018c-0.136,0.16-0.279,0.288-0.429,0.384C27.999,52.239,27.822,52.287,27.618,52.287z"
		/>
	<path d="M30.03,52.214v-2.916h0.408l0.042,0.42h0.018c0.14-0.14,0.287-0.257,0.441-0.351c0.154-0.095,0.333-0.142,0.537-0.142
		c0.308,0,0.533,0.097,0.675,0.288c0.142,0.192,0.213,0.477,0.213,0.853v1.848h-0.492v-1.782c0-0.275-0.044-0.475-0.132-0.597
		c-0.088-0.122-0.228-0.183-0.42-0.183c-0.152,0-0.286,0.037-0.402,0.113c-0.116,0.076-0.248,0.188-0.396,0.336v2.112H30.03z"/>
	<path d="M34.308,52.287c-0.368,0-0.661-0.132-0.879-0.396c-0.218-0.264-0.327-0.64-0.327-1.128c0-0.235,0.035-0.449,0.105-0.639
		c0.07-0.19,0.163-0.352,0.279-0.483c0.116-0.132,0.25-0.233,0.402-0.306s0.312-0.108,0.48-0.108s0.314,0.03,0.438,0.09
		c0.124,0.061,0.25,0.143,0.378,0.246l-0.024-0.498v-1.122h0.498v4.272H35.25l-0.042-0.342H35.19
		c-0.116,0.112-0.249,0.209-0.399,0.291C34.641,52.246,34.48,52.287,34.308,52.287z M34.416,51.873c0.136,0,0.264-0.033,0.384-0.1
		c0.12-0.065,0.24-0.167,0.36-0.303v-1.523c-0.124-0.112-0.243-0.191-0.357-0.237c-0.114-0.046-0.231-0.069-0.351-0.069
		c-0.116,0-0.225,0.027-0.327,0.081s-0.191,0.13-0.267,0.229c-0.076,0.098-0.136,0.215-0.18,0.351s-0.066,0.288-0.066,0.456
		c0,0.352,0.07,0.626,0.21,0.822C33.962,51.774,34.16,51.873,34.416,51.873z"/>
	<path d="M38.994,52.287c-0.192,0-0.372-0.034-0.54-0.103c-0.168-0.067-0.313-0.167-0.435-0.297s-0.218-0.29-0.288-0.479
		c-0.07-0.19-0.105-0.405-0.105-0.646c0-0.244,0.038-0.461,0.114-0.65c0.076-0.19,0.178-0.352,0.306-0.483s0.277-0.232,0.447-0.3
		c0.17-0.068,0.349-0.103,0.537-0.103c0.192,0,0.356,0.034,0.492,0.103c0.136,0.067,0.256,0.147,0.36,0.239l-0.252,0.324
		c-0.084-0.075-0.173-0.138-0.267-0.186c-0.094-0.048-0.199-0.072-0.315-0.072c-0.132,0-0.254,0.027-0.366,0.081
		c-0.112,0.054-0.208,0.131-0.288,0.231c-0.08,0.1-0.143,0.219-0.189,0.356s-0.069,0.291-0.069,0.459s0.022,0.32,0.066,0.456
		s0.105,0.253,0.183,0.352c0.078,0.098,0.173,0.174,0.285,0.228c0.112,0.054,0.234,0.081,0.366,0.081
		c0.136,0,0.261-0.029,0.375-0.087c0.114-0.058,0.217-0.127,0.309-0.207l0.216,0.33c-0.132,0.116-0.278,0.207-0.438,0.272
		C39.337,52.253,39.169,52.287,38.994,52.287z"/>
	<path d="M41.19,52.287c-0.244,0-0.447-0.072-0.609-0.216c-0.162-0.145-0.243-0.349-0.243-0.612c0-0.32,0.142-0.565,0.426-0.735
		c0.284-0.17,0.738-0.289,1.362-0.356c0-0.093-0.009-0.183-0.027-0.271c-0.018-0.088-0.049-0.166-0.093-0.233
		c-0.044-0.068-0.105-0.123-0.183-0.165c-0.078-0.042-0.177-0.063-0.297-0.063c-0.168,0-0.326,0.032-0.474,0.096
		c-0.148,0.064-0.28,0.137-0.396,0.217l-0.192-0.343c0.136-0.088,0.302-0.173,0.498-0.255c0.196-0.082,0.412-0.123,0.648-0.123
		c0.356,0,0.614,0.109,0.774,0.327s0.24,0.509,0.24,0.873v1.788h-0.408l-0.042-0.348h-0.018c-0.14,0.115-0.29,0.215-0.45,0.297
		C41.546,52.246,41.374,52.287,41.19,52.287z M41.334,51.89c0.14,0,0.272-0.033,0.396-0.099c0.124-0.066,0.256-0.163,0.396-0.291
		V50.69c-0.244,0.032-0.449,0.07-0.615,0.114s-0.3,0.096-0.402,0.156c-0.102,0.06-0.176,0.129-0.222,0.207s-0.069,0.163-0.069,0.255
		c0,0.168,0.05,0.288,0.15,0.36C41.068,51.854,41.19,51.89,41.334,51.89z"/>
	<path d="M43.542,53.445v-4.146h0.408l0.042,0.336h0.018c0.132-0.112,0.277-0.208,0.435-0.288c0.158-0.08,0.323-0.12,0.495-0.12
		c0.188,0,0.354,0.035,0.498,0.105s0.264,0.17,0.36,0.3s0.169,0.286,0.219,0.468c0.05,0.183,0.075,0.388,0.075,0.615
		c0,0.248-0.034,0.469-0.102,0.663s-0.16,0.359-0.276,0.495c-0.116,0.136-0.25,0.239-0.402,0.309
		c-0.152,0.07-0.312,0.105-0.48,0.105c-0.136,0-0.271-0.03-0.405-0.09c-0.134-0.061-0.269-0.143-0.405-0.246l0.012,0.51v0.984
		H43.542z M44.748,51.873c0.12,0,0.231-0.027,0.333-0.081c0.102-0.054,0.19-0.13,0.264-0.229c0.074-0.098,0.132-0.219,0.174-0.362
		c0.042-0.145,0.063-0.307,0.063-0.486c0-0.16-0.014-0.306-0.042-0.438c-0.028-0.132-0.073-0.244-0.135-0.339
		c-0.062-0.094-0.142-0.167-0.24-0.219c-0.098-0.052-0.215-0.078-0.351-0.078c-0.124,0-0.249,0.034-0.375,0.103
		c-0.126,0.067-0.261,0.166-0.405,0.294v1.529c0.132,0.112,0.26,0.191,0.384,0.237C44.542,51.849,44.652,51.873,44.748,51.873z"/>
	<path d="M47.634,52.287c-0.208,0-0.406-0.038-0.594-0.114S46.688,52,46.548,51.884l0.246-0.33c0.128,0.104,0.259,0.188,0.393,0.252
		c0.134,0.064,0.289,0.097,0.465,0.097c0.192,0,0.336-0.045,0.432-0.133c0.096-0.088,0.144-0.195,0.144-0.323
		c0-0.076-0.02-0.143-0.06-0.198s-0.091-0.105-0.153-0.147s-0.133-0.079-0.213-0.11c-0.08-0.032-0.16-0.064-0.24-0.097
		c-0.104-0.036-0.208-0.076-0.312-0.123c-0.104-0.046-0.197-0.102-0.279-0.168c-0.082-0.065-0.149-0.143-0.201-0.23
		c-0.052-0.088-0.078-0.194-0.078-0.318c0-0.116,0.023-0.225,0.069-0.327c0.046-0.102,0.112-0.189,0.198-0.264
		s0.191-0.132,0.315-0.174s0.264-0.063,0.42-0.063c0.184,0,0.353,0.032,0.507,0.097c0.154,0.063,0.287,0.142,0.399,0.233
		l-0.234,0.312c-0.1-0.076-0.204-0.139-0.312-0.187c-0.108-0.048-0.226-0.071-0.354-0.071c-0.184,0-0.319,0.042-0.405,0.126
		s-0.129,0.182-0.129,0.294c0,0.067,0.018,0.127,0.054,0.177c0.036,0.05,0.084,0.094,0.144,0.132s0.129,0.072,0.207,0.102
		c0.078,0.03,0.159,0.062,0.243,0.094c0.104,0.04,0.209,0.082,0.315,0.126s0.201,0.099,0.285,0.165
		c0.084,0.065,0.153,0.146,0.207,0.242c0.054,0.097,0.081,0.213,0.081,0.349c0,0.12-0.023,0.231-0.069,0.336
		c-0.046,0.104-0.114,0.196-0.204,0.276c-0.09,0.08-0.202,0.143-0.336,0.188C47.959,52.263,47.806,52.287,47.634,52.287z"/>
</g>
<g enable-background="new    ">
	<path d="M107.16,52.214v-2.916h0.408l0.042,0.528h0.018c0.1-0.185,0.221-0.33,0.363-0.438c0.142-0.107,0.297-0.162,0.465-0.162
		c0.116,0,0.22,0.021,0.312,0.061l-0.096,0.432c-0.048-0.016-0.092-0.028-0.132-0.036s-0.09-0.012-0.15-0.012
		c-0.124,0-0.253,0.05-0.387,0.15c-0.134,0.1-0.251,0.273-0.351,0.521v1.872H107.16z"/>
	<path d="M110.316,52.287c-0.18,0-0.351-0.034-0.513-0.103c-0.162-0.067-0.305-0.167-0.429-0.297s-0.223-0.29-0.297-0.479
		c-0.074-0.19-0.111-0.405-0.111-0.646c0-0.244,0.037-0.461,0.111-0.65c0.074-0.19,0.173-0.352,0.297-0.483s0.267-0.232,0.429-0.3
		c0.162-0.068,0.333-0.103,0.513-0.103s0.351,0.034,0.513,0.103c0.162,0.067,0.305,0.168,0.429,0.3s0.223,0.293,0.297,0.483
		c0.074,0.189,0.111,0.406,0.111,0.65c0,0.24-0.037,0.455-0.111,0.646c-0.074,0.189-0.173,0.35-0.297,0.479
		s-0.267,0.229-0.429,0.297C110.667,52.252,110.496,52.287,110.316,52.287z M110.316,51.878c0.124,0,0.238-0.027,0.342-0.081
		s0.193-0.13,0.267-0.228c0.074-0.099,0.131-0.216,0.171-0.352c0.04-0.136,0.06-0.288,0.06-0.456s-0.02-0.321-0.06-0.459
		c-0.04-0.138-0.097-0.257-0.171-0.356c-0.074-0.101-0.163-0.178-0.267-0.231s-0.218-0.081-0.342-0.081s-0.238,0.027-0.342,0.081
		s-0.193,0.131-0.267,0.231c-0.074,0.1-0.131,0.219-0.171,0.356c-0.04,0.138-0.06,0.291-0.06,0.459s0.02,0.32,0.06,0.456
		c0.04,0.136,0.097,0.253,0.171,0.352c0.074,0.098,0.163,0.174,0.267,0.228S110.192,51.878,110.316,51.878z"/>
	<path d="M113.286,52.287c-0.312,0-0.539-0.097-0.681-0.288c-0.142-0.192-0.213-0.477-0.213-0.853v-1.848h0.498v1.782
		c0,0.275,0.042,0.475,0.129,0.597c0.086,0.122,0.225,0.184,0.417,0.184c0.152,0,0.286-0.039,0.402-0.117s0.244-0.203,0.384-0.375
		v-2.07h0.492v2.916h-0.408l-0.042-0.456h-0.018c-0.136,0.16-0.279,0.288-0.429,0.384C113.667,52.239,113.49,52.287,113.286,52.287z
		"/>
	<path d="M115.698,52.214v-2.916h0.408l0.042,0.42h0.018c0.14-0.14,0.287-0.257,0.441-0.351c0.154-0.095,0.333-0.142,0.537-0.142
		c0.308,0,0.533,0.097,0.675,0.288c0.142,0.192,0.213,0.477,0.213,0.853v1.848h-0.492v-1.782c0-0.275-0.044-0.475-0.132-0.597
		c-0.088-0.122-0.228-0.183-0.42-0.183c-0.152,0-0.286,0.037-0.402,0.113c-0.116,0.076-0.248,0.188-0.396,0.336v2.112H115.698z"/>
	<path d="M119.976,52.287c-0.368,0-0.661-0.132-0.879-0.396c-0.218-0.264-0.327-0.64-0.327-1.128c0-0.235,0.035-0.449,0.105-0.639
		c0.07-0.19,0.163-0.352,0.279-0.483c0.116-0.132,0.25-0.233,0.402-0.306s0.312-0.108,0.48-0.108s0.314,0.03,0.438,0.09
		c0.124,0.061,0.25,0.143,0.378,0.246l-0.024-0.498v-1.122h0.498v4.272h-0.408l-0.042-0.342h-0.018
		c-0.116,0.112-0.249,0.209-0.399,0.291C120.309,52.246,120.148,52.287,119.976,52.287z M120.084,51.873
		c0.136,0,0.264-0.033,0.384-0.1c0.12-0.065,0.24-0.167,0.36-0.303v-1.523c-0.124-0.112-0.243-0.191-0.357-0.237
		c-0.114-0.046-0.231-0.069-0.351-0.069c-0.116,0-0.225,0.027-0.327,0.081s-0.191,0.13-0.267,0.229
		c-0.076,0.098-0.136,0.215-0.18,0.351s-0.066,0.288-0.066,0.456c0,0.352,0.07,0.626,0.21,0.822
		C119.63,51.774,119.828,51.873,120.084,51.873z"/>
	<path d="M124.691,52.287c-0.196,0-0.379-0.035-0.549-0.105c-0.17-0.069-0.318-0.17-0.444-0.3s-0.225-0.289-0.297-0.477
		c-0.072-0.188-0.108-0.402-0.108-0.643s0.037-0.455,0.111-0.645c0.074-0.19,0.172-0.352,0.294-0.483
		c0.122-0.132,0.261-0.232,0.417-0.303c0.156-0.07,0.318-0.105,0.486-0.105c0.184,0,0.349,0.032,0.495,0.097
		c0.146,0.063,0.268,0.155,0.366,0.275c0.098,0.12,0.173,0.265,0.225,0.433c0.052,0.168,0.078,0.355,0.078,0.563
		c0,0.052-0.001,0.104-0.003,0.153s-0.007,0.093-0.015,0.129h-1.968c0.02,0.312,0.117,0.559,0.291,0.741
		c0.174,0.182,0.401,0.272,0.681,0.272c0.14,0,0.269-0.021,0.387-0.062c0.118-0.042,0.231-0.098,0.339-0.165l0.174,0.324
		c-0.128,0.08-0.27,0.149-0.426,0.21C125.069,52.256,124.892,52.287,124.691,52.287z M123.773,50.522h1.56
		c0-0.296-0.063-0.521-0.189-0.675c-0.126-0.153-0.303-0.23-0.531-0.23c-0.104,0-0.203,0.02-0.297,0.06
		c-0.094,0.04-0.179,0.099-0.255,0.177s-0.139,0.174-0.189,0.285C123.823,50.25,123.79,50.378,123.773,50.522z"/>
	<path d="M127.481,52.287c-0.368,0-0.661-0.132-0.879-0.396c-0.218-0.264-0.327-0.64-0.327-1.128c0-0.235,0.035-0.449,0.105-0.639
		c0.07-0.19,0.162-0.352,0.279-0.483c0.115-0.132,0.25-0.233,0.401-0.306s0.312-0.108,0.479-0.108s0.314,0.03,0.438,0.09
		c0.124,0.061,0.25,0.143,0.378,0.246l-0.023-0.498v-1.122h0.498v4.272h-0.408l-0.042-0.342h-0.019
		c-0.115,0.112-0.248,0.209-0.398,0.291S127.654,52.287,127.481,52.287z M127.59,51.873c0.136,0,0.264-0.033,0.384-0.1
		c0.12-0.065,0.24-0.167,0.36-0.303v-1.523c-0.125-0.112-0.243-0.191-0.357-0.237c-0.113-0.046-0.23-0.069-0.352-0.069
		c-0.115,0-0.225,0.027-0.326,0.081s-0.191,0.13-0.268,0.229c-0.076,0.098-0.136,0.215-0.18,0.351s-0.066,0.288-0.066,0.456
		c0,0.352,0.07,0.626,0.211,0.822C127.136,51.774,127.334,51.873,127.59,51.873z"/>
	<path d="M130.8,53.558c-0.181,0-0.345-0.017-0.492-0.051s-0.274-0.085-0.381-0.153c-0.106-0.067-0.188-0.149-0.246-0.246
		c-0.058-0.096-0.087-0.208-0.087-0.336c0-0.124,0.038-0.241,0.113-0.354c0.076-0.112,0.181-0.214,0.312-0.306v-0.024
		c-0.072-0.044-0.133-0.105-0.183-0.183c-0.05-0.078-0.075-0.176-0.075-0.291c0-0.124,0.034-0.232,0.102-0.324
		c0.068-0.092,0.141-0.164,0.217-0.216V51.05c-0.096-0.08-0.184-0.187-0.262-0.321c-0.078-0.134-0.117-0.289-0.117-0.465
		c0-0.16,0.029-0.304,0.088-0.432c0.058-0.128,0.137-0.237,0.236-0.327s0.217-0.159,0.352-0.207
		c0.134-0.048,0.275-0.072,0.423-0.072c0.08,0,0.155,0.007,0.226,0.021c0.069,0.014,0.133,0.031,0.188,0.051h1.014v0.378h-0.6
		c0.067,0.068,0.125,0.154,0.171,0.258c0.046,0.104,0.068,0.219,0.068,0.342c0,0.156-0.027,0.298-0.084,0.424
		c-0.056,0.126-0.131,0.231-0.228,0.317c-0.096,0.086-0.209,0.153-0.339,0.201s-0.27,0.072-0.417,0.072
		c-0.072,0-0.146-0.009-0.222-0.027c-0.076-0.018-0.148-0.043-0.217-0.075c-0.052,0.044-0.096,0.094-0.132,0.147
		s-0.054,0.121-0.054,0.201c0,0.092,0.036,0.168,0.107,0.228c0.072,0.061,0.209,0.09,0.408,0.09h0.564
		c0.34,0,0.595,0.056,0.765,0.165c0.171,0.11,0.255,0.287,0.255,0.531c0,0.136-0.033,0.265-0.102,0.387s-0.166,0.229-0.294,0.321
		s-0.283,0.165-0.466,0.219C131.232,53.532,131.027,53.558,130.8,53.558z M130.871,53.216c0.141,0,0.268-0.017,0.382-0.051
		s0.211-0.078,0.291-0.132c0.079-0.055,0.142-0.117,0.186-0.189s0.066-0.146,0.066-0.222c0-0.137-0.05-0.23-0.15-0.282
		c-0.1-0.052-0.245-0.078-0.438-0.078h-0.504c-0.056,0-0.116-0.003-0.183-0.009c-0.065-0.006-0.131-0.02-0.194-0.039
		c-0.104,0.076-0.181,0.156-0.229,0.24s-0.072,0.168-0.072,0.252c0,0.156,0.075,0.279,0.225,0.372
		C130.4,53.17,130.607,53.216,130.871,53.216z M130.8,50.96c0.084,0,0.163-0.016,0.237-0.048s0.14-0.078,0.197-0.139
		c0.059-0.06,0.104-0.133,0.135-0.219c0.033-0.086,0.049-0.183,0.049-0.291c0-0.216-0.061-0.383-0.18-0.501
		c-0.121-0.118-0.267-0.177-0.438-0.177s-0.317,0.059-0.438,0.177c-0.119,0.118-0.18,0.285-0.18,0.501
		c0,0.108,0.016,0.205,0.048,0.291s0.077,0.159,0.136,0.219c0.058,0.061,0.123,0.106,0.197,0.139S130.716,50.96,130.8,50.96z"/>
	<path d="M133.938,52.287c-0.195,0-0.379-0.035-0.549-0.105c-0.17-0.069-0.318-0.17-0.443-0.3c-0.127-0.13-0.226-0.289-0.298-0.477
		c-0.071-0.188-0.108-0.402-0.108-0.643s0.037-0.455,0.111-0.645c0.074-0.19,0.172-0.352,0.295-0.483
		c0.121-0.132,0.26-0.232,0.416-0.303s0.318-0.105,0.486-0.105c0.184,0,0.35,0.032,0.495,0.097c0.146,0.063,0.269,0.155,0.366,0.275
		s0.173,0.265,0.225,0.433c0.053,0.168,0.078,0.355,0.078,0.563c0,0.052-0.001,0.104-0.003,0.153s-0.007,0.093-0.015,0.129h-1.969
		c0.02,0.312,0.117,0.559,0.291,0.741c0.174,0.182,0.401,0.272,0.682,0.272c0.14,0,0.269-0.021,0.387-0.062
		c0.117-0.042,0.23-0.098,0.339-0.165l0.174,0.324c-0.128,0.08-0.271,0.149-0.426,0.21
		C134.315,52.256,134.138,52.287,133.938,52.287z M133.02,50.522h1.561c0-0.296-0.063-0.521-0.189-0.675
		c-0.126-0.153-0.303-0.23-0.531-0.23c-0.104,0-0.203,0.02-0.297,0.06s-0.179,0.099-0.255,0.177s-0.14,0.174-0.188,0.285
		C133.068,50.25,133.035,50.378,133.02,50.522z"/>
	<path d="M136.494,52.287c-0.209,0-0.406-0.038-0.594-0.114c-0.188-0.076-0.353-0.172-0.492-0.288l0.246-0.33
		c0.127,0.104,0.258,0.188,0.393,0.252c0.134,0.064,0.289,0.097,0.465,0.097c0.191,0,0.336-0.045,0.432-0.133
		s0.145-0.195,0.145-0.323c0-0.076-0.02-0.143-0.061-0.198c-0.039-0.056-0.091-0.105-0.152-0.147
		c-0.062-0.042-0.133-0.079-0.213-0.11c-0.08-0.032-0.16-0.064-0.24-0.097c-0.104-0.036-0.208-0.076-0.312-0.123
		c-0.104-0.046-0.197-0.102-0.279-0.168c-0.082-0.065-0.148-0.143-0.2-0.23s-0.078-0.194-0.078-0.318
		c0-0.116,0.022-0.225,0.069-0.327c0.045-0.102,0.111-0.189,0.197-0.264s0.191-0.132,0.315-0.174s0.265-0.063,0.42-0.063
		c0.185,0,0.353,0.032,0.507,0.097c0.154,0.063,0.287,0.142,0.399,0.233l-0.234,0.312c-0.101-0.076-0.204-0.139-0.312-0.187
		c-0.108-0.048-0.227-0.071-0.354-0.071c-0.185,0-0.319,0.042-0.405,0.126s-0.129,0.182-0.129,0.294
		c0,0.067,0.019,0.127,0.055,0.177c0.035,0.05,0.084,0.094,0.144,0.132s0.129,0.072,0.207,0.102c0.078,0.03,0.159,0.062,0.243,0.094
		c0.104,0.04,0.209,0.082,0.314,0.126c0.106,0.044,0.201,0.099,0.285,0.165c0.084,0.065,0.153,0.146,0.207,0.242
		c0.055,0.097,0.081,0.213,0.081,0.349c0,0.12-0.022,0.231-0.069,0.336c-0.045,0.104-0.113,0.196-0.203,0.276
		s-0.202,0.143-0.336,0.188C136.818,52.263,136.666,52.287,136.494,52.287z"/>
</g>
<g enable-background="new    ">
	<path d="M187.477,52.287c-0.192,0-0.373-0.034-0.541-0.103c-0.168-0.067-0.312-0.167-0.435-0.297s-0.218-0.29-0.288-0.479
		c-0.07-0.19-0.105-0.405-0.105-0.646c0-0.244,0.039-0.461,0.115-0.65c0.075-0.19,0.178-0.352,0.305-0.483
		c0.129-0.132,0.277-0.232,0.447-0.3c0.17-0.068,0.35-0.103,0.537-0.103c0.192,0,0.356,0.034,0.492,0.103
		c0.137,0.067,0.256,0.147,0.36,0.239l-0.253,0.324c-0.084-0.075-0.172-0.138-0.266-0.186c-0.095-0.048-0.199-0.072-0.315-0.072
		c-0.132,0-0.255,0.027-0.366,0.081c-0.112,0.054-0.208,0.131-0.288,0.231c-0.08,0.1-0.144,0.219-0.188,0.356
		c-0.047,0.138-0.069,0.291-0.069,0.459s0.022,0.32,0.065,0.456c0.045,0.136,0.105,0.253,0.184,0.352
		c0.078,0.098,0.173,0.174,0.285,0.228c0.111,0.054,0.234,0.081,0.365,0.081c0.137,0,0.262-0.029,0.375-0.087
		c0.114-0.058,0.217-0.127,0.31-0.207l0.216,0.33c-0.132,0.116-0.277,0.207-0.438,0.272
		C187.82,52.253,187.652,52.287,187.477,52.287z"/>
	<path d="M190.115,52.287c-0.195,0-0.379-0.035-0.549-0.105c-0.17-0.069-0.317-0.17-0.443-0.3s-0.225-0.289-0.297-0.477
		c-0.072-0.188-0.108-0.402-0.108-0.643s0.037-0.455,0.111-0.645c0.073-0.19,0.172-0.352,0.294-0.483
		c0.121-0.132,0.261-0.232,0.417-0.303c0.155-0.07,0.317-0.105,0.485-0.105c0.185,0,0.35,0.032,0.496,0.097
		c0.146,0.063,0.268,0.155,0.365,0.275s0.174,0.265,0.225,0.433c0.053,0.168,0.078,0.355,0.078,0.563c0,0.052,0,0.104-0.002,0.153
		s-0.008,0.093-0.016,0.129h-1.968c0.02,0.312,0.116,0.559,0.291,0.741c0.174,0.182,0.401,0.272,0.681,0.272
		c0.141,0,0.27-0.021,0.387-0.062c0.118-0.042,0.231-0.098,0.34-0.165l0.174,0.324c-0.129,0.08-0.271,0.149-0.426,0.21
		C190.494,52.256,190.316,52.287,190.115,52.287z M189.197,50.522h1.561c0-0.296-0.062-0.521-0.189-0.675
		c-0.125-0.153-0.303-0.23-0.53-0.23c-0.104,0-0.203,0.02-0.298,0.06c-0.094,0.04-0.178,0.099-0.254,0.177s-0.14,0.174-0.189,0.285
		C189.247,50.25,189.214,50.378,189.197,50.522z"/>
	<path d="M191.91,52.214v-2.916h0.408l0.041,0.42h0.019c0.14-0.14,0.287-0.257,0.44-0.351c0.154-0.095,0.334-0.142,0.537-0.142
		c0.309,0,0.533,0.097,0.676,0.288c0.142,0.192,0.213,0.477,0.213,0.853v1.848h-0.492v-1.782c0-0.275-0.044-0.475-0.132-0.597
		c-0.089-0.122-0.228-0.183-0.42-0.183c-0.152,0-0.286,0.037-0.402,0.113s-0.248,0.188-0.396,0.336v2.112H191.91z"/>
	<path d="M196.109,52.287c-0.156,0-0.287-0.024-0.393-0.072s-0.191-0.114-0.258-0.198s-0.113-0.186-0.141-0.306
		c-0.029-0.12-0.043-0.252-0.043-0.396v-1.613h-0.432v-0.372l0.456-0.03l0.06-0.816h0.414v0.816h0.786v0.402h-0.786v1.62
		c0,0.18,0.033,0.318,0.1,0.417c0.065,0.098,0.183,0.146,0.351,0.146c0.052,0,0.108-0.008,0.168-0.023
		c0.06-0.017,0.114-0.034,0.162-0.055l0.097,0.372c-0.08,0.028-0.168,0.053-0.262,0.075
		C196.295,52.275,196.201,52.287,196.109,52.287z"/>
	<path d="M198.318,52.287c-0.196,0-0.379-0.035-0.549-0.105c-0.17-0.069-0.318-0.17-0.444-0.3s-0.226-0.289-0.298-0.477
		c-0.071-0.188-0.107-0.402-0.107-0.643s0.037-0.455,0.111-0.645c0.074-0.19,0.172-0.352,0.294-0.483s0.261-0.232,0.417-0.303
		s0.318-0.105,0.486-0.105c0.184,0,0.349,0.032,0.494,0.097c0.146,0.063,0.269,0.155,0.366,0.275
		c0.099,0.12,0.173,0.265,0.226,0.433c0.052,0.168,0.078,0.355,0.078,0.563c0,0.052-0.002,0.104-0.004,0.153
		s-0.007,0.093-0.015,0.129h-1.968c0.02,0.312,0.117,0.559,0.291,0.741c0.174,0.182,0.4,0.272,0.681,0.272
		c0.14,0,0.269-0.021,0.388-0.062c0.117-0.042,0.23-0.098,0.338-0.165l0.174,0.324c-0.127,0.08-0.27,0.149-0.426,0.21
		C198.695,52.256,198.518,52.287,198.318,52.287z M197.4,50.522h1.56c0-0.296-0.063-0.521-0.188-0.675
		c-0.127-0.153-0.303-0.23-0.531-0.23c-0.104,0-0.203,0.02-0.297,0.06s-0.18,0.099-0.256,0.177s-0.139,0.174-0.188,0.285
		C197.449,50.25,197.416,50.378,197.4,50.522z"/>
	<path d="M200.112,52.214v-2.916h0.407l0.043,0.528h0.018c0.1-0.185,0.221-0.33,0.363-0.438c0.142-0.107,0.297-0.162,0.465-0.162
		c0.115,0,0.22,0.021,0.312,0.061l-0.097,0.432c-0.048-0.016-0.092-0.028-0.132-0.036s-0.09-0.012-0.15-0.012
		c-0.123,0-0.253,0.05-0.387,0.15c-0.134,0.1-0.251,0.273-0.352,0.521v1.872H200.112z"/>
	<path d="M203.315,52.287c-0.196,0-0.379-0.035-0.549-0.105c-0.17-0.069-0.317-0.17-0.444-0.3c-0.125-0.13-0.225-0.289-0.297-0.477
		c-0.072-0.188-0.107-0.402-0.107-0.643s0.037-0.455,0.111-0.645c0.073-0.19,0.172-0.352,0.293-0.483
		c0.122-0.132,0.262-0.232,0.418-0.303c0.155-0.07,0.317-0.105,0.485-0.105c0.185,0,0.349,0.032,0.495,0.097
		c0.146,0.063,0.268,0.155,0.365,0.275c0.099,0.12,0.174,0.265,0.226,0.433s0.078,0.355,0.078,0.563
		c0,0.052-0.001,0.104-0.003,0.153s-0.008,0.093-0.016,0.129h-1.967c0.02,0.312,0.116,0.559,0.291,0.741
		c0.174,0.182,0.4,0.272,0.68,0.272c0.141,0,0.27-0.021,0.388-0.062s0.231-0.098,0.339-0.165l0.174,0.324
		c-0.128,0.08-0.27,0.149-0.426,0.21C203.693,52.256,203.516,52.287,203.315,52.287z M202.397,50.522h1.56
		c0-0.296-0.062-0.521-0.188-0.675c-0.126-0.153-0.303-0.23-0.53-0.23c-0.105,0-0.203,0.02-0.298,0.06
		c-0.094,0.04-0.179,0.099-0.255,0.177s-0.139,0.174-0.189,0.285C202.447,50.25,202.414,50.378,202.397,50.522z"/>
	<path d="M206.105,52.287c-0.367,0-0.66-0.132-0.879-0.396c-0.218-0.264-0.326-0.64-0.326-1.128c0-0.235,0.034-0.449,0.104-0.639
		c0.069-0.19,0.163-0.352,0.278-0.483c0.116-0.132,0.25-0.233,0.402-0.306s0.312-0.108,0.48-0.108s0.313,0.03,0.438,0.09
		c0.124,0.061,0.25,0.143,0.378,0.246l-0.024-0.498v-1.122h0.498v4.272h-0.407l-0.042-0.342h-0.018
		c-0.117,0.112-0.25,0.209-0.399,0.291C206.438,52.246,206.277,52.287,206.105,52.287z M206.214,51.873
		c0.136,0,0.264-0.033,0.384-0.1c0.12-0.065,0.24-0.167,0.359-0.303v-1.523c-0.123-0.112-0.242-0.191-0.356-0.237
		s-0.231-0.069-0.351-0.069c-0.116,0-0.225,0.027-0.327,0.081s-0.191,0.13-0.267,0.229c-0.076,0.098-0.137,0.215-0.181,0.351
		s-0.065,0.288-0.065,0.456c0,0.352,0.069,0.626,0.209,0.822C205.76,51.774,205.957,51.873,206.214,51.873z"/>
	<path d="M210.791,52.287c-0.191,0-0.371-0.034-0.539-0.103c-0.168-0.067-0.313-0.167-0.436-0.297s-0.218-0.29-0.288-0.479
		c-0.069-0.19-0.104-0.405-0.104-0.646c0-0.244,0.037-0.461,0.113-0.65c0.076-0.19,0.178-0.352,0.307-0.483
		c0.127-0.132,0.277-0.232,0.447-0.3c0.17-0.068,0.348-0.103,0.537-0.103c0.191,0,0.355,0.034,0.491,0.103
		c0.136,0.067,0.256,0.147,0.36,0.239l-0.252,0.324c-0.084-0.075-0.174-0.138-0.268-0.186s-0.199-0.072-0.314-0.072
		c-0.133,0-0.254,0.027-0.366,0.081s-0.208,0.131-0.288,0.231c-0.08,0.1-0.143,0.219-0.189,0.356
		c-0.045,0.138-0.068,0.291-0.068,0.459s0.021,0.32,0.066,0.456c0.043,0.136,0.104,0.253,0.183,0.352
		c0.077,0.098,0.173,0.174,0.284,0.228c0.113,0.054,0.234,0.081,0.367,0.081c0.135,0,0.26-0.029,0.375-0.087
		c0.113-0.058,0.217-0.127,0.309-0.207l0.216,0.33c-0.132,0.116-0.278,0.207-0.438,0.272
		C211.135,52.253,210.967,52.287,210.791,52.287z"/>
	<path d="M213.384,52.287c-0.181,0-0.351-0.034-0.513-0.103c-0.162-0.067-0.305-0.167-0.43-0.297
		c-0.123-0.13-0.223-0.29-0.297-0.479c-0.074-0.19-0.111-0.405-0.111-0.646c0-0.244,0.037-0.461,0.111-0.65
		c0.074-0.19,0.174-0.352,0.297-0.483c0.125-0.132,0.268-0.232,0.43-0.3c0.162-0.068,0.332-0.103,0.513-0.103
		s0.351,0.034,0.513,0.103c0.162,0.067,0.305,0.168,0.43,0.3c0.123,0.132,0.223,0.293,0.297,0.483
		c0.074,0.189,0.111,0.406,0.111,0.65c0,0.24-0.037,0.455-0.111,0.646c-0.074,0.189-0.174,0.35-0.297,0.479
		c-0.125,0.13-0.268,0.229-0.43,0.297C213.734,52.252,213.564,52.287,213.384,52.287z M213.384,51.878
		c0.124,0,0.237-0.027,0.342-0.081s0.193-0.13,0.267-0.228c0.074-0.099,0.132-0.216,0.172-0.352c0.039-0.136,0.06-0.288,0.06-0.456
		s-0.021-0.321-0.06-0.459c-0.04-0.138-0.098-0.257-0.172-0.356c-0.073-0.101-0.162-0.178-0.267-0.231s-0.218-0.081-0.342-0.081
		s-0.237,0.027-0.342,0.081s-0.193,0.131-0.267,0.231c-0.074,0.1-0.132,0.219-0.172,0.356c-0.039,0.138-0.06,0.291-0.06,0.459
		s0.021,0.32,0.06,0.456c0.04,0.136,0.098,0.253,0.172,0.352c0.073,0.098,0.162,0.174,0.267,0.228S213.26,51.878,213.384,51.878z"/>
	<path d="M215.502,52.214v-2.916h0.408l0.041,0.42h0.019c0.14-0.14,0.287-0.257,0.44-0.351c0.154-0.095,0.334-0.142,0.537-0.142
		c0.309,0,0.533,0.097,0.676,0.288c0.142,0.192,0.213,0.477,0.213,0.853v1.848h-0.492v-1.782c0-0.275-0.044-0.475-0.132-0.597
		c-0.089-0.122-0.228-0.183-0.42-0.183c-0.152,0-0.286,0.037-0.402,0.113s-0.248,0.188-0.396,0.336v2.112H215.502z"/>
	<path d="M219.701,52.287c-0.156,0-0.287-0.024-0.393-0.072s-0.191-0.114-0.258-0.198s-0.113-0.186-0.141-0.306
		c-0.029-0.12-0.043-0.252-0.043-0.396v-1.613h-0.432v-0.372l0.456-0.03l0.06-0.816h0.414v0.816h0.786v0.402h-0.786v1.62
		c0,0.18,0.033,0.318,0.1,0.417c0.065,0.098,0.183,0.146,0.351,0.146c0.052,0,0.108-0.008,0.168-0.023
		c0.06-0.017,0.114-0.034,0.162-0.055l0.097,0.372c-0.08,0.028-0.168,0.053-0.262,0.075
		C219.887,52.275,219.793,52.287,219.701,52.287z"/>
	<path d="M221.861,52.287c-0.18,0-0.351-0.034-0.513-0.103c-0.161-0.067-0.305-0.167-0.429-0.297s-0.223-0.29-0.297-0.479
		c-0.074-0.19-0.111-0.405-0.111-0.646c0-0.244,0.037-0.461,0.111-0.65c0.074-0.19,0.173-0.352,0.297-0.483s0.268-0.232,0.429-0.3
		c0.162-0.068,0.333-0.103,0.513-0.103c0.181,0,0.352,0.034,0.514,0.103c0.162,0.067,0.305,0.168,0.429,0.3s0.224,0.293,0.298,0.483
		c0.073,0.189,0.11,0.406,0.11,0.65c0,0.24-0.037,0.455-0.11,0.646c-0.074,0.189-0.174,0.35-0.298,0.479s-0.267,0.229-0.429,0.297
		C222.213,52.252,222.042,52.287,221.861,52.287z M221.861,51.878c0.125,0,0.238-0.027,0.342-0.081
		c0.104-0.054,0.193-0.13,0.268-0.228c0.074-0.099,0.131-0.216,0.171-0.352s0.06-0.288,0.06-0.456s-0.02-0.321-0.06-0.459
		s-0.097-0.257-0.171-0.356c-0.074-0.101-0.163-0.178-0.268-0.231c-0.104-0.054-0.217-0.081-0.342-0.081
		c-0.123,0-0.237,0.027-0.342,0.081c-0.104,0.054-0.193,0.131-0.267,0.231c-0.074,0.1-0.132,0.219-0.171,0.356
		c-0.04,0.138-0.061,0.291-0.061,0.459s0.021,0.32,0.061,0.456c0.039,0.136,0.097,0.253,0.171,0.352
		c0.073,0.098,0.163,0.174,0.267,0.228C221.624,51.851,221.738,51.878,221.861,51.878z"/>
	<path d="M224.832,52.287c-0.312,0-0.539-0.097-0.682-0.288c-0.142-0.192-0.213-0.477-0.213-0.853v-1.848h0.498v1.782
		c0,0.275,0.043,0.475,0.129,0.597s0.225,0.184,0.418,0.184c0.151,0,0.285-0.039,0.401-0.117s0.244-0.203,0.384-0.375v-2.07h0.492
		v2.916h-0.408l-0.042-0.456h-0.018c-0.136,0.16-0.279,0.288-0.429,0.384C225.213,52.239,225.035,52.287,224.832,52.287z"/>
	<path d="M227.244,52.214v-2.916h0.407l0.042,0.528h0.018c0.101-0.185,0.222-0.33,0.363-0.438c0.143-0.107,0.297-0.162,0.465-0.162
		c0.116,0,0.221,0.021,0.312,0.061l-0.096,0.432c-0.049-0.016-0.092-0.028-0.133-0.036c-0.039-0.008-0.09-0.012-0.149-0.012
		c-0.124,0-0.253,0.05-0.388,0.15c-0.133,0.1-0.25,0.273-0.351,0.521v1.872H227.244z"/>
</g>
</svg>
