<?xml version="1.0" encoding="utf-8"?>
<!-- Generator: Adobe Illustrator 16.0.4, SVG Export Plug-In . SVG Version: 6.00 Build 0)  -->
<!DOCTYPE svg PUBLIC "-//W3C//DTD SVG 1.1//EN" "http://www.w3.org/Graphics/SVG/1.1/DTD/svg11.dtd">
<svg version="1.1" id="Ebene_1" xmlns="http://www.w3.org/2000/svg" xmlns:xlink="http://www.w3.org/1999/xlink" x="0px" y="0px"
	 width="316.6px" height="72px" viewBox="0 0 316.6 72" enable-background="new 0 0 316.6 72" xml:space="preserve">
<g opacity="0.2">
	<path fill="#1D1D1B" d="M53,4.5c1.4,0,2.5,1.1,2.5,2.5v58c0,1.4-1.1,2.5-2.5,2.5H19c-1.4,0-2.5-1.1-2.5-2.5V7
		c0-1.4,1.1-2.5,2.5-2.5H53 M53,4H19c-1.7,0-3,1.3-3,3v58c0,1.7,1.3,3,3,3h34c1.7,0,3-1.3,3-3V7C56,5.3,54.7,4,53,4L53,4z"/>
</g>
<g opacity="0.2">
	<path fill="#1D1D1B" d="M65,16.5c1.4,0,2.5,1.1,2.5,2.5v34c0,1.4-1.1,2.5-2.5,2.5H7c-1.4,0-2.5-1.1-2.5-2.5V19
		c0-1.4,1.1-2.5,2.5-2.5H65 M65,16H7c-1.7,0-3,1.3-3,3v34c0,1.7,1.3,3,3,3h58c1.7,0,3-1.3,3-3V19C68,17.3,66.7,16,65,16L65,16z"/>
</g>
<g opacity="0.2">
	<path fill="#1D1D1B" d="M58,11.5c1.4,0,2.5,1.1,2.5,2.5v44c0,1.4-1.1,2.5-2.5,2.5H14c-1.4,0-2.5-1.1-2.5-2.5V14
		c0-1.4,1.1-2.5,2.5-2.5H58 M58,11H14c-1.7,0-3,1.3-3,3v44c0,1.7,1.3,3,3,3h44c1.7,0,3-1.3,3-3V14C61,12.3,59.7,11,58,11L58,11z"/>
</g>
<path fill="#060606" d="M34.3,64.7c-0.5,0-1-0.4-1-1V53.1L26.1,46c-0.4-0.4-0.4-1,0-1.4c0.4-0.4,1-0.4,1.4,0L35,52
	c0.2,0.2,0.3,0.4,0.3,0.7v11C35.3,64.2,34.8,64.7,34.3,64.7z"/>
<path fill="#060606" d="M34.3,53.7c-0.2,0-0.5-0.1-0.7-0.3c-0.4-0.4-0.4-1,0-1.4l4.3-4.5c0.4-0.4,1-0.4,1.4,0c0.4,0.4,0.4,1,0,1.4
	L35,53.4C34.8,53.6,34.6,53.7,34.3,53.7z"/>
<path fill="none" stroke="#060606" stroke-width="2" stroke-miterlimit="10" d="M48.3,28.6"/>
<path fill="#060606" d="M39.3,45.3c-4.7,0-9.1-1.2-12.2-3.4c-2.1,1.1-4.5,1.6-6.9,1.6c-6.9,0-12.6-4.4-12.6-9.9
	c0-3.8,2.8-7.3,7.1-8.9c0-0.3,0-0.6,0-1c0-8.8,8.1-16,18.1-16c6.7,0,12.9,3.4,16,8.6c0.3,0,0.7,0,1,0c7,0,12.6,4.4,12.6,9.9
	c0,3.8-2.8,7.3-7.1,8.9c0,0.1,0,0.2,0,0.3C55.3,40.9,48.2,45.3,39.3,45.3z M27.3,39.5l0.5,0.4c2.7,2.1,7,3.4,11.5,3.4
	c7.6,0,14.1-3.6,14.1-7.9c0-0.3,0-0.5-0.1-0.8l-0.2-0.9l0.8-0.3c4-1.3,6.5-4.1,6.5-7.3c0-4.4-4.8-7.9-10.6-7.9c-0.5,0-1,0-1.5,0.1
	l-0.7,0.1l-0.3-0.6c-2.6-5-8.4-8.2-14.6-8.2c-8.9,0-16.1,6.3-16.1,14c0,0.5,0,1,0.1,1.5l0.1,0.8l-0.8,0.2c-3.9,1.3-6.5,4.1-6.5,7.3
	c0,4.4,4.8,7.9,10.7,7.9c2.2,0,4.4-0.6,6.4-1.7L27.3,39.5z"/>
<g>
	<g opacity="0.2">
		<path fill="#1D1D1B" d="M187,16.5c1.4,0,2.5,1.1,2.5,2.5v34c0,1.4-1.1,2.5-2.5,2.5h-58c-1.4,0-2.5-1.1-2.5-2.5V19
			c0-1.4,1.1-2.5,2.5-2.5H187 M187,16h-58c-1.7,0-3,1.3-3,3v34c0,1.7,1.3,3,3,3h58c1.7,0,3-1.3,3-3V19C190,17.3,188.7,16,187,16
			L187,16z"/>
	</g>
</g>
<g>
	<g opacity="0.2">
		<path fill="#1D1D1B" d="M180,11.5c1.4,0,2.5,1.1,2.5,2.5v44c0,1.4-1.1,2.5-2.5,2.5h-44c-1.4,0-2.5-1.1-2.5-2.5V14
			c0-1.4,1.1-2.5,2.5-2.5H180 M180,11h-44c-1.7,0-3,1.3-3,3v44c0,1.7,1.3,3,3,3h44c1.7,0,3-1.3,3-3V14C183,12.3,181.7,11,180,11
			L180,11z"/>
	</g>
</g>
<g>
	<g opacity="0.2">
		<path fill="#1D1D1B" d="M158,7.5c15.7,0,28.5,12.8,28.5,28.5S173.8,64.5,158,64.5S129.5,51.7,129.5,36S142.3,7.5,158,7.5 M158,7
			c-16,0-29,13-29,29c0,16,13,29,29,29c16,0,29-13,29-29C187,20,174.1,7,158,7L158,7z"/>
	</g>
</g>
<g>
	<path fill="#1D1D1B" d="M165,31c-0.6,0-1-0.4-1-1v-8l-6-5l-6,5v8c0,0.6-0.4,1-1,1s-1-0.4-1-1v-8.5c0-0.3,0.1-0.6,0.4-0.8l6.4-5.3
		c0.7-0.6,1.8-0.6,2.5,0l6.4,5.3c0.2,0.2,0.4,0.5,0.4,0.8V30C166,30.6,165.6,31,165,31z"/>
	<path fill="#1D1D1B" d="M158,16c-0.6,0-1-0.4-1-1V7c0-0.6,0.4-1,1-1s1,0.4,1,1v8C159,15.6,158.6,16,158,16z"/>
	<path fill="#1D1D1B" d="M161.5,12h-7c-0.6,0-1-0.4-1-1s0.4-1,1-1h7c0.6,0,1,0.4,1,1S162.1,12,161.5,12z"/>
	<path fill="#1D1D1B" d="M162.1,68H154c-1.1,0-1.9-0.9-1.9-2v-7.1c0-4.4,3.9-7,5.1-7.7c0.6-0.3,1.3-0.3,1.9,0
		c1.2,0.7,5.1,3.3,5.1,7.7V66C164,67.1,163.2,68,162.1,68z M158,53c-1,0.6-4,2.6-4,5.9V66l8.1,0l-0.1-7.1
		C162,55.7,159.3,53.8,158,53z"/>
	<path fill="#1D1D1B" d="M158,49c-3.3,0-6-2.7-6-6s2.7-6,6-6s6,2.7,6,6S161.3,49,158,49z M158,39c-2.2,0-4,1.8-4,4s1.8,4,4,4
		s4-1.8,4-4S160.2,39,158,39z"/>
	<path fill="#1D1D1B" d="M158,29.4l16,14.2V66h-32V43.6L158,29.4 M158,27c-0.2,0-0.4,0.1-0.6,0.2l-17.1,15.1
		c-0.2,0.2-0.3,0.5-0.3,0.7V67c0,0.5,0.4,1,0.9,1h34.1c0.5,0,0.9-0.4,0.9-1V43.1c0-0.3-0.1-0.6-0.3-0.7l-17.1-15.1
		C158.5,27.1,158.3,27,158,27L158,27z"/>
</g>
<g>
	<g opacity="0.2">
		<path fill="#1D1D1B" d="M297.6,4.5c1.4,0,2.5,1.1,2.5,2.5v58c0,1.4-1.1,2.5-2.5,2.5h-34c-1.4,0-2.5-1.1-2.5-2.5V7
			c0-1.4,1.1-2.5,2.5-2.5H297.6 M297.6,4h-34c-1.7,0-3,1.3-3,3v58c0,1.7,1.3,3,3,3h34c1.7,0,3-1.3,3-3V7C300.6,5.3,299.3,4,297.6,4
			L297.6,4z"/>
	</g>
</g>
<g>
	<g opacity="0.2">
		<path fill="#1D1D1B" d="M302.6,11.5c1.4,0,2.5,1.1,2.5,2.5v44c0,1.4-1.1,2.5-2.5,2.5h-44c-1.4,0-2.5-1.1-2.5-2.5V14
			c0-1.4,1.1-2.5,2.5-2.5H302.6 M302.6,11h-44c-1.7,0-3,1.3-3,3v44c0,1.7,1.3,3,3,3h44c1.7,0,3-1.3,3-3V14
			C305.6,12.3,304.3,11,302.6,11L302.6,11z"/>
	</g>
</g>
<g>
	<g opacity="0.2">
		<path fill="#1D1D1B" d="M280.6,7.5c15.7,0,28.5,12.8,28.5,28.5s-12.8,28.5-28.5,28.5S252.1,51.7,252.1,36S264.9,7.5,280.6,7.5
			 M280.6,7c-16,0-29,13-29,29c0,16,13,29,29,29c16,0,29-13,29-29C309.6,20,296.6,7,280.6,7L280.6,7z"/>
	</g>
</g>
<g id="_xD83D__xDE9B__2_">
	<path d="M310.6,50.3v-1c0.3,0,0.5-0.2,0.5-0.5V27.1c0-0.3-0.2-0.5-0.5-0.5v-1c0.8,0,1.5,0.7,1.5,1.5v21.7
		C312.1,49.6,311.5,50.3,310.6,50.3z"/>
	<path d="M310.6,50.8c-0.5,0-1-0.4-1-1s0.4-1,1-1V27.1c-0.5,0-1-0.4-1-1c0-0.5,0.4-1,1-1c1.1,0,2,0.9,2,2v21.7
		C312.6,49.9,311.7,50.8,310.6,50.8z"/>
	<path d="M261.2,55.8c-2.2,0-4-1.8-4-4s1.8-4,4-4s4,1.8,4,4S263.4,55.8,261.2,55.8z M261.2,49.9c-1.1,0-2,0.9-2,2c0,1.1,0.9,2,2,2
		s2-0.9,2-2C263.1,50.8,262.3,49.9,261.2,49.9z"/>
	<path d="M260.7,40.7h-5c-0.5,0-1-0.4-1-1s0.4-1,1-1h4v-4.9c0-0.5,0.4-1,1-1c0.5,0,1,0.4,1,1v5.9C261.7,40.3,261.2,40.7,260.7,40.7z
		"/>
	<path d="M301.9,55.8c-2.2,0-4-1.8-4-4s1.8-4,4-4c2.2,0,4,1.8,4,4S304.1,55.8,301.9,55.8z M301.9,49.9c-1.1,0-2,0.9-2,2
		c0,1.1,0.9,2,2,2c1.1,0,2-0.9,2-2C303.9,50.8,303,49.9,301.9,49.9z"/>
	<path d="M293,55.8c-2.2,0-4-1.8-4-4s1.8-4,4-4s4,1.8,4,4S295.1,55.8,293,55.8z M293,49.9c-1.1,0-2,0.9-2,2c0,1.1,0.9,2,2,2
		c1.1,0,2-0.9,2-2C294.9,50.8,294.1,49.9,293,49.9z"/>
	<path d="M255.2,51.5h-4.4c-1.1,0-2-0.9-2-2l-0.1-6.2c0-0.6,0.1-1.3,0.4-1.8c0.4-0.8,0.6-1.1,0.6-1.3c0.1-0.3,0.9-2.6,2.2-7.3
		c1.6-5.7,10.6-6.6,14.4-6.7c0.6,0,1.1,0.2,1.4,0.6c0.4,0.4,0.6,0.9,0.6,1.4l0,21.1c0,0.5-0.4,1-1,1h0c-0.5,0-1-0.4-1-1l0-21.1
		c-5.4,0.1-11.5,1.6-12.6,5.2c-0.8,2.8-2.1,7.4-2.5,7.9c0,0.1-0.3,0.6-0.5,1.1c-0.1,0.3-0.2,0.6-0.2,0.9l0.1,6.2l4.4,0
		c0.5,0,1,0.4,1,1S255.8,51.5,255.2,51.5z"/>
	<path d="M310.6,50.8h-3.1c-0.5,0-1-0.4-1-1s0.4-1,1-1h3.1V27.1h-38.7v21.7h15.3c0.5,0,1,0.4,1,1s-0.4,1-1,1h-16.3c-0.5,0-1-0.4-1-1
		V27.1c0-1.1,0.9-2,2-2h38.7c1.1,0,2,0.9,2,2v21.7C312.6,49.9,311.7,50.8,310.6,50.8z"/>
</g>
<g>
	<path fill="#8967AA" d="M36,8c15.4,0,28,12.6,28,28S51.4,64,36,64S8,51.4,8,36S20.6,8,36,8 M36,7C20,7,7,20,7,36c0,16,13,29,29,29
		c16,0,29-13,29-29C65,20,52,7,36,7L36,7z"/>
</g>
<g>
	<path fill="#8967AA" d="M175,5c1.1,0,2,0.9,2,2v58c0,1.1-0.9,2-2,2h-34c-1.1,0-2-0.9-2-2V7c0-1.1,0.9-2,2-2H175 M175,4h-34
		c-1.7,0-3,1.3-3,3v58c0,1.7,1.3,3,3,3h34c1.7,0,3-1.3,3-3V7C178,5.3,176.7,4,175,4L175,4z"/>
</g>
<g>
	<path fill="#8967AA" d="M309.6,17c1.1,0,2,0.9,2,2v34c0,1.1-0.9,2-2,2h-58c-1.1,0-2-0.9-2-2V19c0-1.1,0.9-2,2-2H309.6 M309.6,16
		h-58c-1.7,0-3,1.3-3,3v34c0,1.7,1.3,3,3,3h58c1.7,0,3-1.3,3-3V19C312.6,17.3,311.3,16,309.6,16L309.6,16z"/>
</g>
</svg>
