<?xml version="1.0" encoding="utf-8"?>
<!-- Generator: Adobe Illustrator 16.0.4, SVG Export Plug-In . SVG Version: 6.00 Build 0)  -->
<!DOCTYPE svg PUBLIC "-//W3C//DTD SVG 1.1//EN" "http://www.w3.org/Graphics/SVG/1.1/DTD/svg11.dtd">
<svg version="1.1" id="Ebene_1" xmlns="http://www.w3.org/2000/svg" xmlns:xlink="http://www.w3.org/1999/xlink" x="0px" y="0px"
	 width="229.7px" height="65.8px" viewBox="0 0 229.7 65.8" enable-background="new 0 0 229.7 65.8" xml:space="preserve">
<g>
	<g id="_x2702__2_">
		<g>
			<g>
				<path fill="#1D1D1B" d="M29.6,37.9c-0.1,0-0.3,0-0.4-0.1c-0.5-0.2-0.8-0.8-0.5-1.3L40.6,7.8c-4.9,1.6-7.9,6.2-10,10.2
					c-1.2,2.2-4.8,10.1-7.8,16.8c-0.2,0.5-0.8,0.7-1.3,0.5S20.8,34.5,21,34c3-6.7,6.7-14.6,7.8-16.9c1.5-2.9,5.5-10.6,13.3-11.7
					c0.4-0.1,0.7,0.1,0.9,0.4s0.3,0.7,0.1,1L30.5,37.3C30.4,37.7,30,37.9,29.6,37.9z"/>
			</g>
		</g>
		<path fill="#1D1D1B" d="M34.7,45.4 M27.8,41.7c-0.3-0.1-0.5-0.3-0.6-0.5s-0.1-0.6,0-0.8l1.2-2.8l-5.8-1.9c-1.3,3-2.4,5.4-3.1,7.2
			L16,46.5c0.3-1.4,3.6-9.2,5-12.5c0.2-0.5,0.7-0.7,1.2-0.5l7.7,2.5c0.3,0.1,0.5,0.3,0.6,0.5c0.1,0.3,0.1,0.5,0,0.8l-1.2,2.8
			L27.8,41.7z"/>
		<g display="none">
			<path display="inline" fill="#1D1D1B" d="M9.9,45.9c-1.5,0-2.8-0.3-3.9-0.8c-5.1-2.3-7.4-8.3-5.1-13.3c2.3-5.1,8.3-7.4,13.3-5.1
				c2.6,1.1,4.6,3.3,5.5,6c0.2,0.5-0.1,1.1-0.6,1.3c-0.5,0.2-1.1-0.1-1.3-0.6c-0.7-2.1-2.3-3.9-4.4-4.8c-4.1-1.8-8.9,0-10.7,4.1
				c-1.8,4.1,0,8.9,4.1,10.7c1.5,0.7,3.5,0.8,5.9,0.3c0.1,0,0.5-0.1,1.6-0.5c0.5-0.2,1.1,0.1,1.3,0.6c0.2,0.5-0.1,1.1-0.6,1.3
				c-1.3,0.5-1.7,0.6-1.9,0.6C12,45.8,10.9,45.9,9.9,45.9z M10.1,41.2c-2.5,0-4.8-1.7-5.4-4.3c-0.3-1.4-0.1-2.9,0.7-4.2
				s2-2.1,3.5-2.5c1.4-0.3,2.9-0.1,4.2,0.7c1.3,0.8,2.1,2,2.5,3.5c0.7,3-1.2,6-4.2,6.7l0,0C10.9,41.1,10.5,41.2,10.1,41.2z
				 M11.1,40.1L11.1,40.1L11.1,40.1z M10.1,32.1c-0.3,0-0.5,0-0.8,0.1c-0.9,0.2-1.7,0.8-2.2,1.6c-0.5,0.8-0.7,1.8-0.5,2.7
				c0.4,1.9,2.4,3.1,4.3,2.7l0,0c1.9-0.4,3.1-2.3,2.7-4.3c-0.2-0.9-0.8-1.7-1.6-2.2C11.4,32.3,10.8,32.1,10.1,32.1z"/>
		</g>
		<g>
			<path fill="#1D1D1B" d="M34.9,36.2c-0.4,0-0.7-0.2-0.9-0.6c-0.2-0.5,0-1.1,0.5-1.3c3.7-1.7,5.6-2.7,7.1-3.4c4-2.1,8.7-5,10.2-10
				l-12.5,5.2c-0.5,0.2-1.1,0-1.3-0.5c-0.2-0.5,0-1.1,0.5-1.3l14.2-6c0.3-0.1,0.7-0.1,1,0.1c0.3,0.2,0.4,0.6,0.4,0.9
				c-1.2,7.8-8.8,11.8-11.7,13.3c-1.5,0.8-3.5,1.8-7.2,3.5C35.2,36.2,35,36.2,34.9,36.2z"/>
		</g>
	</g>
	<path fill="#8967AA" d="M10.1,41.2c-3,0-5.5-2.5-5.5-5.5c0-3,2.5-5.5,5.5-5.5s5.5,2.5,5.5,5.5C15.6,38.7,13.1,41.2,10.1,41.2z
		 M10.1,32.1c-1.9,0-3.5,1.6-3.5,3.5c0,1.9,1.6,3.5,3.5,3.5s3.5-1.6,3.5-3.5C13.6,33.7,12,32.1,10.1,32.1z"/>
	<path fill="#8967AA" d="M10.1,45.9c-5.5,0-10-4.5-10-10c0-5.5,4.5-10,10-10s10,4.5,10,10C20.1,41.4,15.6,45.9,10.1,45.9z
		 M10.1,27.9c-4.4,0-8,3.6-8,8s3.6,8,8,8s8-3.6,8-8S14.5,27.9,10.1,27.9z"/>
	<path fill="#8967AA" d="M25.8,55.1c-3,0-5.5-2.5-5.5-5.5s2.5-5.5,5.5-5.5s5.5,2.5,5.5,5.5S28.9,55.1,25.8,55.1z M25.8,46
		c-1.9,0-3.5,1.6-3.5,3.5c0,1.9,1.6,3.5,3.5,3.5s3.5-1.6,3.5-3.5C29.3,47.6,27.8,46,25.8,46z"/>
	<path fill="#8967AA" d="M25.6,59.6c-5.5,0-10-4.5-10-10c0-5.5,4.5-10,10-10s10,4.5,10,10C35.6,55.1,31.1,59.6,25.6,59.6z
		 M25.6,41.5c-4.4,0-8,3.6-8,8s3.6,8,8,8s8-3.6,8-8S30,41.5,25.6,41.5z"/>
</g>
<g>
	<path fill="#8967AA" d="M217.5,62c-3.3,0-6-2.7-6-6s2.7-6,6-6s6,2.7,6,6S220.8,62,217.5,62z M217.5,52c-2.2,0-4,1.8-4,4s1.8,4,4,4
		s4-1.8,4-4S219.7,52,217.5,52z"/>
	<path fill="#8967AA" d="M204.5,59.8c-13.2,0-24-10.8-24-24s10.8-24,24-24s24,10.8,24,24S217.8,59.8,204.5,59.8z M204.5,13.8
		c-12.1,0-22,9.9-22,22s9.9,22,22,22s22-9.9,22-22S216.6,13.8,204.5,13.8z"/>
	<circle fill="#8967AA" cx="195.3" cy="35.8" r="2"/>
	<circle fill="#8967AA" cx="204.5" cy="35.8" r="2"/>
	<circle fill="#8967AA" cx="213.7" cy="35.8" r="2"/>
	<circle fill="#8967AA" cx="226.7" cy="62.8" r="3"/>
</g>
<g>
	<g id="_xD83D__xDE16__2_">
		<path fill="#040404" d="M106.8,39.9c-0.4,0-0.7-0.2-0.9-0.6c-0.2-0.5,0-1.1,0.5-1.3c1.4-0.7,4.2-1.1,7.3-1.1
			c2.8,0,5.3,0.4,6.6,1.1c0.5,0.2,0.7,0.8,0.4,1.3c-0.2,0.5-0.8,0.7-1.3,0.4c-1-0.5-3.3-0.9-5.7-0.9c-3.1,0-5.4,0.4-6.4,0.9
			C107.1,39.9,107,39.9,106.8,39.9z"/>
		<path fill="#040404" d="M100.8,21.6c-0.3,0-0.6-0.1-0.8-0.4c-0.4-0.4-0.3-1.1,0.1-1.4c0.7-0.6,2.8-2,5.6-1.9
			c2.3,0.1,3.9,1.2,4.7,1.9c0.4,0.4,0.5,1,0.1,1.4c-0.4,0.4-1,0.5-1.4,0.1c-0.6-0.5-1.8-1.3-3.5-1.4c-2.1-0.1-3.7,0.9-4.2,1.4
			C101.3,21.6,101.1,21.6,100.8,21.6z"/>
		<path fill="#040404" d="M122.3,21.6c-2.6,0-4.5-1.3-5.2-1.9c-0.4-0.4-0.5-1-0.1-1.4c0.4-0.4,1-0.5,1.4-0.1
			c0.6,0.5,2.1,1.5,4.2,1.4c1.7-0.1,2.9-0.9,3.5-1.4c0.4-0.4,1.1-0.3,1.4,0.1c0.4,0.4,0.3,1.1-0.1,1.4c-0.8,0.6-2.4,1.7-4.7,1.9
			C122.6,21.6,122.5,21.6,122.3,21.6z"/>
		<g>
			<path d="M138.9,10.9c-0.1,0-0.2,0-0.2,0c-0.5-0.1-0.9-0.7-0.7-1.2l0.5-1.9c0.1-0.3,0.2-0.5,0.4-0.6c0.2-0.1,0.5-0.2,0.8-0.1
				c1.5,0.4,3-0.4,3.3-1.8c0.3-1.3-0.7-2.7-2.2-3.1c-1.3-0.3-2.6,0.2-3.1,1.3c-0.2,0.5-0.8,0.7-1.3,0.5c-0.5-0.2-0.7-0.8-0.5-1.3
				c0.9-1.9,3.2-2.9,5.4-2.4c2.6,0.6,4.2,3.1,3.6,5.5c-0.5,2.1-2.5,3.5-4.7,3.4l-0.3,1.1C139.7,10.5,139.3,10.9,138.9,10.9z"/>
		</g>
	</g>
	<path fill="#8967AA" d="M113.8,55.9c-13.2,0-24-10.8-24-24s10.8-24,24-24s24,10.8,24,24S127.1,55.9,113.8,55.9z M113.8,9.9
		c-12.1,0-22,9.9-22,22s9.9,22,22,22s22-9.9,22-22S126,9.9,113.8,9.9z"/>
	<circle fill="#8967AA" cx="137.7" cy="14.7" r="2"/>
	<circle fill="#8967AA" cx="122.8" cy="26.6" r="3"/>
	<circle fill="#8967AA" cx="105.5" cy="26.6" r="3"/>
</g>
<path fill="#1D1D1B" d="M46.7,46.5"/>
</svg>
