<?xml version="1.0" encoding="utf-8"?>
<!-- Generator: Adobe Illustrator 16.0.4, SVG Export Plug-In . SVG Version: 6.00 Build 0)  -->
<!DOCTYPE svg PUBLIC "-//W3C//DTD SVG 1.1//EN" "http://www.w3.org/Graphics/SVG/1.1/DTD/svg11.dtd">
<svg version="1.1" id="Ebene_1" xmlns="http://www.w3.org/2000/svg" xmlns:xlink="http://www.w3.org/1999/xlink" x="0px" y="0px"
	 width="258px" height="69px" viewBox="0 0 258 69" enable-background="new 0 0 258 69" xml:space="preserve">
<path fill="#E27022" d="M17.5,10.2c-2.2,0-4-1.8-4-4c0-2.2,1.8-4,4-4s4,1.8,4,4C21.5,8.4,19.8,10.2,17.5,10.2z M17.5,4.2
	c-1.1,0-2,0.9-2,2c0,1.1,0.9,2,2,2s2-0.9,2-2C19.5,5.1,18.6,4.2,17.5,4.2z"/>
<path d="M119.4,10.2c-2.2,0-4-1.8-4-4c0-2.2,1.8-4,4-4c2.2,0,4,1.8,4,4C123.4,8.4,121.6,10.2,119.4,10.2z M119.4,4.2
	c-1.1,0-2,0.9-2,2c0,1.1,0.9,2,2,2s2-0.9,2-2C121.4,5.1,120.5,4.2,119.4,4.2z"/>
<path d="M27.7,41.1c-0.5,0-1-0.399-1-1l-0.9-20c-0.1-2.3-1.9-4.6-3.9-5.1c-2.3-0.5-6.2-0.5-8.6,0c-2,0.5-3.8,2.8-3.9,5.1l-0.9,20
	c0,0.601-0.5,1-1,1c-0.6,0-1-0.5-1-1l0.9-20c0.1-3.2,2.6-6.3,5.5-6.9c2.6-0.6,6.8-0.6,9.4,0c2.9,0.6,5.4,3.8,5.5,6.9l0.9,20
	C28.7,40.6,28.3,41.1,27.7,41.1L27.7,41.1z"/>
<path d="M23.6,66.1c-1.4,0-2.7-1.3-2.9-2.899L17.9,38.6c-0.1-0.5-0.2-0.8-0.3-1c-0.1,0.2-0.3,0.5-0.3,1L14.5,63.2
	c-0.2,1.6-1.4,2.899-2.9,2.899c-0.7,0-1.3-0.3-1.8-0.8C9.2,64.8,8.9,64,9,63.1l2.1-43c0-0.6,0.5-1,1-1c0.6,0,1,0.5,1,1l-2.1,43
	c0,0.301,0.1,0.601,0.3,0.801c0.4,0.399,1.1-0.101,1.2-1L15.3,38.3c0.2-1.7,1.2-2.899,2.3-2.899s2.1,1.199,2.3,2.899L22.7,63
	c0.1,0.8,0.8,1.4,1.2,1c0.2-0.2,0.3-0.5,0.3-0.8l-2.1-43c0-0.6,0.4-1,1-1c0.5,0,1,0.4,1,1l2.1,43c0,0.899-0.2,1.7-0.8,2.3
	C24.9,65.9,24.3,66.1,23.6,66.1z"/>
<path d="M111.8,66.1c-0.7,0-1.3-0.3-1.8-0.8c-0.5-0.6-0.8-1.399-0.7-2.3l4.1-41c0.1-0.5,0.5-0.9,1.1-0.9c0.5,0.1,1,0.5,0.9,1.1
	l-4.1,41c0,0.3,0,0.6,0.2,0.7c0.4,0.5,1.4-0.2,1.6-1l5.5-20.101c0.3-1.2,1.1-2.899,1.8-3.899l2.2-3.101c0.5-0.7,0.9-2.1,0.9-3
	L123,22.7c0-0.6,0.4-1,1-1c0.5,0,1,0.4,1,1l0.5,10.1c0.1,1.3-0.5,3.2-1.2,4.3l-2.2,3.101c-0.6,0.8-1.3,2.3-1.5,3.3l-5.6,20
	C114.6,65,113.2,66.1,111.8,66.1z"/>
<path d="M130.1,63.4c-0.899,0-1.899-0.5-2.5-1.301l-5.3-7.1c-0.7-1-1.6-2.6-2-3.7l-2.2-5.7c-0.2-0.5,0.1-1.1,0.6-1.3
	s1.1,0.101,1.3,0.601l2.2,5.699c0.4,0.9,1.2,2.4,1.8,3.2l5.3,7.101c0.3,0.399,1,0.6,1.3,0.399c0.4-0.2,0.4-0.899,0.2-1.399L126,52
	c-0.6-1.1-1.3-2.8-1.5-4l-1.8-11.5c-0.1-0.5,0.3-1.1,0.8-1.1c0.5-0.101,1.1,0.3,1.1,0.8l1.8,11.5c0.2,1,0.7,2.5,1.2,3.3l4.8,7.9
	c0.8,1.399,0.5,3.199-0.801,4.1C131.1,63.3,130.6,63.4,130.1,63.4z"/>
<path d="M124.3,28.7c-0.5,0-1-0.4-1-0.9l-0.6-10.5c-0.1-1.7-1.6-3.1-3.2-3.1c-1.7,0-3.3,1.4-3.5,3.1l-0.6,4.9
	c-0.1,0.5-0.5,0.9-1.1,0.9c-0.5-0.1-0.9-0.6-0.9-1.1l0.6-4.9c0.3-2.7,2.7-4.9,5.4-4.9c2.8,0,5.1,2.2,5.3,4.9l0.6,10.5
	C125.3,28.2,124.9,28.7,124.3,28.7L124.3,28.7z"/>
<path fill="#E27022" d="M116.3,41c-0.1,0-0.2,0-0.2,0c-0.5-0.1-0.9-0.7-0.7-1.2l2.8-11.6c0.2-1,0.4-2.7,0.4-3.7l-0.1-6.2
	c0-0.6,0.4-1,1-1l0,0c0.5,0,1,0.4,1,1l0.1,6.2c0,1.2-0.2,3-0.5,4.2l-2.8,11.6C117.2,40.7,116.8,41,116.3,41z"/>
<rect x="3.9" y="62" fill="#E27022" width="4" height="1"/>
<polygon fill="#E27022" points="6.7,64.6 6,63.9 7.5,62.5 6,61 6.7,60.3 8.9,62.5 "/>
<rect x="15.6" y="62" fill="#E27022" width="4" height="1"/>
<polygon fill="#E27022" points="16.7,64.6 14.6,62.5 16.7,60.3 17.4,61 16,62.5 17.4,63.9 "/>
<path fill="#E27022" d="M7.5,41.1C7.4,41.1,7.4,41.1,7.5,41.1c-0.6,0-1-0.5-1-1l0.9-19.7c0-0.6,0.5-1,1-1c0.6,0,1,0.5,1,1L8.5,40.2
	C8.4,40.7,8,41.1,7.5,41.1z"/>
<g>
	<path d="M225.4,20.2c-2.2,0-4-1.8-4-4c0-2.2,1.8-4,4-4c2.199,0,4,1.8,4,4C229.4,18.4,227.6,20.2,225.4,20.2z M225.4,14.3
		c-1.101,0-2,0.9-2,2c0,1.1,0.899,2,2,2c1.1,0,2-0.9,2-2C227.4,15.2,226.5,14.3,225.4,14.3z"/>
	<path d="M228.1,57.4c-0.199,0-0.399,0-0.6-0.101c-0.8-0.2-1.4-0.7-1.8-1.5l-4.4-8.2c-0.6-1.1-1.1-2.8-1-3.899c0-1.3,1-2.8,2.2-3.5
		l4.6-2.9C227.7,36.9,228,36,227.9,35.4l-1.5-6.101c-0.101-0.5,0.199-1.1,0.699-1.2s1.101,0.2,1.2,0.7l1.5,6.1
		c0.4,1.5-0.399,3.3-1.7,4.1l-4.6,2.9c-0.7,0.399-1.3,1.399-1.3,1.899c0,0.7,0.3,2.101,0.8,2.9l4.4,8.2c0.1,0.199,0.3,0.399,0.6,0.5
		c0.2,0,0.3,0,0.5-0.101c0.4-0.3,0.6-1,0.4-1.6l-2.601-6.4c-0.6-1.5,0.101-3.3,1.601-3.899l5.5-2.4c0.8-0.3,1.899-1.3,2.3-2.1
		l0.1-0.2c0.4-0.7,0.4-2,0.101-2.7L231.3,25.5c-0.3-0.7-1.2-1.3-1.8-1.3c-0.8,0-1.8,0.5-2.2,1.2l-1.899,2.7c-0.7,1-2,2.3-3,3
		L218.1,34c-0.5,0.3-1.1,0.2-1.399-0.3s-0.2-1.1,0.3-1.4l4.3-2.9c0.8-0.6,2-1.7,2.5-2.5l1.9-2.7c0.8-1.2,2.5-2,3.899-2
		c1.4,0,3,1.1,3.601,2.5l4.6,10.5c0.601,1.3,0.5,3.2-0.2,4.5l-0.1,0.2c-0.6,1.199-2.1,2.5-3.3,3l-5.5,2.399
		c-0.5,0.2-0.8,0.8-0.5,1.3l2.6,6.4c0.601,1.5,0.101,3.2-1.1,4.1C229,57.3,228.6,57.4,228.1,57.4z"/>
	<path fill="#E27022" d="M211.1,68c-6.1,0-11-4.9-11-11s4.9-11,11-11c6.101,0,11,4.9,11,11S217.1,68,211.1,68z M211.1,48
		c-5,0-9,4-9,9s4,9,9,9s9-4,9-9S216,48,211.1,48z"/>
	<path fill="#E27022" d="M243.1,68c-6.1,0-11-4.9-11-11s4.9-11,11-11c6.101,0,11,4.9,11,11S249.1,68,243.1,68z M243.1,48
		c-5,0-9,4-9,9s4,9,9,9s9-4,9-9S248,48,243.1,48z"/>
	<path fill="#E27022" d="M211.2,58.5L211.2,58.5c-0.601,0-1-0.5-1-1.1l2-24c0-0.5,0.5-0.9,1-0.9h3.8c0.6,0,1,0.4,1,1s-0.4,1-1,1
		h-2.8l-1.9,23.1C212.2,58.1,211.8,58.5,211.2,58.5z"/>
	<path d="M225.6,62.2c-0.699,0-1.399-0.3-1.899-0.9c-0.5-0.6-0.8-1.399-0.601-2.3l0.9-6.7l2,0.3l-0.9,6.7c0,0.3,0,0.5,0.2,0.7
		c0.4,0.5,1.601-0.1,1.9-1l1-3.1l1.899,0.6l-1,3.1C228.5,61,227,62.2,225.6,62.2z"/>
	<rect x="230.589" y="41.809" transform="matrix(-0.954 -0.2998 0.2998 -0.954 438.1797 162.9434)" width="2" height="12.101"/>
</g>
</svg>
