<?xml version="1.0" encoding="utf-8"?>
<!-- Generator: Adobe Illustrator 16.0.4, SVG Export Plug-In . SVG Version: 6.00 Build 0)  -->
<!DOCTYPE svg PUBLIC "-//W3C//DTD SVG 1.1//EN" "http://www.w3.org/Graphics/SVG/1.1/DTD/svg11.dtd">
<svg version="1.1" id="Ebene_1" xmlns="http://www.w3.org/2000/svg" xmlns:xlink="http://www.w3.org/1999/xlink" x="0px" y="0px"
	 width="258px" height="69px" viewBox="0 0 258 69" enable-background="new 0 0 258 69" xml:space="preserve">
<path d="M25.3,62.5H16c-8.6,0-15-6.9-15-16C1,38.2,6.1,33,6.3,32.8c0.4-0.4,1-0.4,1.4,0c0.4,0.4,0.4,1,0,1.4c0,0-4.7,4.8-4.7,12.3
	c0,8.1,5.5,14,13,14h9.3c0.6,0,1,0.4,1,1S25.9,62.5,25.3,62.5z"/>
<path d="M7,34.5c-0.2,0-0.4-0.1-0.6-0.2c-0.4-0.3-0.5-1-0.2-1.4l15-19c1.7-2.1,4-2.2,5.4-1.4c1.3,0.7,1.8,2.1,1.3,3.3l-6.5,16.6h3.3
	c0.6,0,1,0.4,1,1s-0.4,1-1,1H20c-0.3,0-0.6-0.2-0.8-0.4s-0.2-0.6-0.1-0.9l7-18c0.2-0.5-0.2-0.7-0.4-0.9c-0.7-0.4-1.9-0.3-2.9,0.9
	l-15,19C7.6,34.4,7.3,34.5,7,34.5z"/>
<path d="M44.2,41.5h-13c-2.8,0-5-2-5-4.5s2.2-4.5,5-4.5h13c2.8,0,5,2,5,4.5S47,41.5,44.2,41.5z M31.2,34.5c-1.7,0-3,1.1-3,2.5
	s1.3,2.5,3,2.5h13c1.7,0,3-1.1,3-2.5s-1.3-2.5-3-2.5H31.2z"/>
<path fill="#FFFFFF" d="M31.9,57.5c-0.6,0-1,0.4-1,0.5s0.4,0.5,1,0.5h7.3c0.6,0,1-0.4,1-0.5s-0.4-0.5-1-0.5H31.9z"/>
<path d="M39.1,62.5h-7c-2.8,0-5-2-5-4.5s2.2-4.5,5-4.5h7c2.8,0,5,2,5,4.5S41.8,62.5,39.1,62.5z M32.1,55.5c-1.7,0-3,1.1-3,2.5
	s1.3,2.5,3,2.5h7c1.7,0,3-1.1,3-2.5s-1.3-2.5-3-2.5H32.1z"/>
<path d="M46,48.8H27c-2.8,0-5-2-5-4.5s2.2-4.5,5-4.5h19c2.8,0,5,2,5,4.5S48.8,48.8,46,48.8z M27,41.8c-1.7,0-3,1.1-3,2.5
	s1.3,2.5,3,2.5h19c1.7,0,3-1.1,3-2.5s-1.3-2.5-3-2.5H27z"/>
<path d="M44,55.5H29c-2.8,0-5-2-5-4.5s2.2-4.5,5-4.5h15c2.8,0,5,2,5,4.5S46.8,55.5,44,55.5z M29,48.5c-1.7,0-3,1.1-3,2.5
	s1.3,2.5,3,2.5h15c1.7,0,3-1.1,3-2.5s-1.3-2.5-3-2.5H29z"/>
<path d="M146.2,32.3C146.2,32.3,146.2,32.3,146.2,32.3c-0.6,0-1-0.5-1-1.1L147,8.2c0.1-0.9-0.2-1.7-0.7-2.2
	c-0.3-0.3-0.8-0.7-1.5-0.7c-1.4,0-2.8,1.4-3.1,3.1l-2.4,17.4c-0.3,2.3-1.4,4.8-3.2,4.8c-1.7,0-2.8-2.5-3.1-4.8l-2.2-17.3
	c-0.2-1.7-1.6-3.1-3-3.1c0,0,0,0,0,0c-0.7,0-1.2,0.4-1.4,0.6c-0.5,0.5-0.7,1.3-0.6,2.2l2.5,21c0.1,0.5-0.3,1-0.9,1.1
	c-0.5,0.1-1-0.3-1.1-0.9l-2.5-21c-0.2-1.4,0.2-2.8,1.1-3.8c0.8-0.9,1.8-1.3,2.9-1.3c0,0,0,0,0,0c2.4,0,4.7,2.2,5,4.8l2.2,17.3
	c0.2,1.7,0.8,2.8,1.1,3c0.3-0.3,0.9-1.3,1.2-3l2.4-17.4c0.4-2.7,2.6-4.8,5-4.8c1.1,0,2.2,0.5,3,1.3c0.9,1,1.3,2.3,1.2,3.8l-1.8,23.1
	C147.2,31.9,146.7,32.3,146.2,32.3z"/>
<path fill="#FFFFFF" d="M116.4,50.3H114c-2.8,0-5-2.2-5-5V34.8c0-2.8,2.2-5,5-5h2.5c2.8,0,5,2.2,5,5v10.5
	C121.4,48.1,119.2,50.3,116.4,50.3z"/>
<path d="M114.7,48.8c-2.5,0-4.5-2.2-4.5-5v-7c0-2.8,2-5,4.5-5s4.5,2.2,4.5,5v7C119.2,46.6,117.2,48.8,114.7,48.8z M114.7,33.8
	c-1.4,0-2.5,1.3-2.5,3v7c0,1.7,1.1,3,2.5,3s2.5-1.3,2.5-3v-7C117.2,35.1,116.1,33.8,114.7,33.8z"/>
<path d="M147.2,50.4c-0.5,0-1-0.4-1-0.9l-0.7-11.1c-0.1-1.7-1.6-3.1-3.2-3.1h-10c-1.7,0-3,1.1-3,2.5c0,1.4,1.4,2.8,3.1,2.9l1,0.1
	c2.4,0.3,4.9,1.6,4.9,3.4v2c0,0.6-0.4,1-1,1s-1-0.4-1-1v-2c0-0.3-1.1-1.2-3.1-1.4l-1-0.1c-2.7-0.3-4.9-2.5-4.9-4.9
	c0-2.5,2.2-4.5,5-4.5h10c2.7,0,5.1,2.2,5.2,4.9l0.7,11.1C148.3,49.9,147.8,50.4,147.2,50.4C147.3,50.4,147.2,50.4,147.2,50.4z"/>
<path d="M131.6,50.2c-0.3,0-0.6-0.1-0.8-0.3c-0.4-0.4-0.3-1,0.1-1.4c2-1.7,3.8-2.6,6.2-3.2c0.5-0.1,1.1,0.2,1.2,0.8
	c0.1,0.5-0.2,1.1-0.8,1.2c-2.1,0.5-3.6,1.3-5.3,2.7C132,50.2,131.8,50.2,131.6,50.2z"/>
<path d="M121.7,53.6c-2.5,0-4.5-2.2-4.5-5v-15c0-2.8,2-5,4.5-5s4.5,2.2,4.5,5v15C126.2,51.3,124.1,53.6,121.7,53.6z M121.7,30.6
	c-1.4,0-2.5,1.3-2.5,3v15c0,1.7,1.1,3,2.5,3s2.5-1.3,2.5-3v-15C124.2,31.9,123,30.6,121.7,30.6z"/>
<path fill="#8967AA" d="M17.1,62.5C7.2,62.5,1,56.2,1,46c0-0.2,0-4.4,2-8.3l1.8,0.9C3,42.1,3,46,3,46c0,9.1,5.3,14.5,14.1,14.5V62.5
	z"/>
<path fill="#8967AA" d="M129.3,67.3c-9,0-16.4-6.1-18-14.7c-0.1-0.5,0.3-1.1,0.9-1.1l0,0c0.5-0.1,1,0.3,1.1,0.8
	c1.4,7.6,8.1,13,16.1,13c9.6,0,16.9-6.8,16.9-15.9h2C148.2,59.6,140.1,67.3,129.3,67.3z"/>
<path d="M231.2,61.7H222c-8.6,0-15-6.9-15-16c0-8.3,5.1-13.5,5.3-13.7c0.4-0.4,1-0.4,1.4,0c0.4,0.4,0.4,1,0,1.4
	c0,0-4.7,4.8-4.7,12.3c0,8.1,5.5,14,13,14h9.2c0.6,0,1,0.4,1,1S231.8,61.7,231.2,61.7z"/>
<path d="M213,33.7c-0.2,0-0.4-0.1-0.6-0.2c-0.4-0.3-0.5-1-0.2-1.4l15-19c1.7-2.1,4-2.2,5.4-1.4c1.3,0.7,1.8,2.1,1.3,3.3l-6.5,16.6
	h3.8c0.6,0,1,0.4,1,1s-0.4,1-1,1H226c-0.3,0-0.6-0.2-0.8-0.4s-0.2-0.6-0.1-0.9l7-18c0.2-0.5-0.2-0.7-0.4-0.9
	c-0.7-0.4-1.9-0.3-2.9,0.9l-15,19C213.6,33.6,213.3,33.7,213,33.7z"/>
<path d="M245.1,62.1h-7c-2.8,0-5-2-5-4.5s2.2-4.5,5-4.5h7c2.8,0,5,2,5,4.5S247.8,62.1,245.1,62.1z M238.1,55.1c-1.7,0-3,1.1-3,2.5
	s1.3,2.5,3,2.5h7c1.7,0,3-1.1,3-2.5s-1.3-2.5-3-2.5H238.1z"/>
<path d="M252,48.1h-19c-2.8,0-5-2-5-4.5s2.2-4.5,5-4.5h19c2.8,0,5,2,5,4.5S254.8,48.1,252,48.1z M233,41.1c-1.7,0-3,1.1-3,2.5
	s1.3,2.5,3,2.5h19c1.7,0,3-1.1,3-2.5s-1.3-2.5-3-2.5H233z"/>
<path d="M250,55.1h-15c-2.8,0-5-2-5-4.5s2.2-4.5,5-4.5h15c2.8,0,5,2,5,4.5S252.8,55.1,250,55.1z M235,48.1c-1.7,0-3,1.1-3,2.5
	s1.3,2.5,3,2.5h15c1.7,0,3-1.1,3-2.5s-1.3-2.5-3-2.5H235z"/>
<path fill="#8967AA" d="M250.2,41h-13c-2.8,0-5-2-5-4.5s2.2-4.5,5-4.5h13c2.8,0,5,2,5,4.5S253,41,250.2,41z M237.2,34
	c-1.7,0-3,1.1-3,2.5s1.3,2.5,3,2.5h13c1.7,0,3-1.1,3-2.5s-1.3-2.5-3-2.5H237.2z"/>
</svg>
