<?xml version="1.0" encoding="utf-8"?>
<!-- Generator: Adobe Illustrator 16.0.4, SVG Export Plug-In . SVG Version: 6.00 Build 0)  -->
<!DOCTYPE svg PUBLIC "-//W3C//DTD SVG 1.1//EN" "http://www.w3.org/Graphics/SVG/1.1/DTD/svg11.dtd">
<svg version="1.1" id="Ebene_1" xmlns="http://www.w3.org/2000/svg" xmlns:xlink="http://www.w3.org/1999/xlink" x="0px" y="0px"
	 width="285.4px" height="122.6px" viewBox="0 0 285.4 122.6" enable-background="new 0 0 285.4 122.6" xml:space="preserve">
<g id="_xD83D__xDC08__xFE0F__2_">
	<path d="M8.4,80.1c-0.4,0-0.7,0-0.9,0c-2.2,0.1-4.3-1.5-5.9-4.6c-0.1-0.2-2.9-5.8-1-8.4l6.1-9.4l-3.1-6c-0.3-0.6-0.3-1.2-0.1-1.8
		c0.2-0.6,0.7-1,1.3-1.2c0.5-0.1,11.7-3.2,18.4,5c0.5,0.6,1.1,1.1,2,1.5c5,2.5,10.5,3.1,16.2,2c17.4-3.5,31.6-2.1,46.1,4.7
		c7,3.3,14.6,2.7,20.3-1.7c4.1-3.1,6.3-7.6,5.6-11.6c-0.9-5.6,1.2-10.8,5.5-13.3c3.7-2.2,8.2-1.8,11.7,1c0.9,0.7,1,2,0.3,2.9
		c-0.7,0.9-2,1-2.9,0.3c-2.2-1.7-4.8-2-7-0.7c-2.8,1.6-4.2,5.2-3.6,9.1c0.9,5.5-1.8,11.5-7.1,15.6c-6.9,5.3-16.1,6.1-24.5,2.1
		c-13.6-6.4-27-7.7-43.5-4.4c-6.6,1.3-13,0.6-18.6-2.2c0,0-0.2-0.1-0.2-0.1c-1.4-0.7-2.5-1.5-3.3-2.6c-3.4-4.1-8.5-4.3-11.6-4.1
		l2.3,4.6c0.3,0.7,0.3,1.4-0.1,2.1L4.1,69.4c-0.1,0.9,0.6,3.9,2.1,5.7c0.6,0.7,1,0.9,1,0.9l0,0c0,0,0.3,0,0.3,0c0,0,4.9,0.3,9.2-1.6
		c1-0.5,2.3,0,2.7,1.1c0.4,1,0,2.3-1.1,2.7C14.5,79.9,10.3,80.1,8.4,80.1z"/>
	<path d="M25,105.4c-0.2,0-0.4,0-0.5-0.1c-1.1-0.3-1.7-1.4-1.4-2.5c1.4-5.3,14.6-8.2,18.9-9c0.4-0.2,1.9-1,2.4-2.4
		c0.4-1.1,0.2-2.4-0.7-4c-0.5-1-0.2-2.3,0.8-2.8c1-0.5,2.3-0.2,2.8,0.8c1.5,2.7,1.8,5.2,0.9,7.4c-1.3,3.4-4.6,4.7-5,4.8
		c-0.1,0-0.2,0.1-0.3,0.1c-7.9,1.4-15.4,4.3-15.9,6C26.8,104.8,26,105.4,25,105.4z"/>
	<path d="M21.2,113.7c-4.6,0-6.5-4.4-6.8-6.7c-1.4-9.4,7.1-15.3,11.3-17.6c-6-9.4-0.4-16.1,2.4-19.5c0.7-0.9,2-1,2.9-0.3
		c0.9,0.7,1,2,0.3,2.9c-3.7,4.4-6.6,9-0.9,16.3c0.4,0.5,0.5,1.2,0.4,1.8c-0.2,0.6-0.6,1.1-1.2,1.4c-0.1,0.1-12.5,5.4-11.2,14.4
		c0.1,0.3,0.6,3.3,2.8,3.2c1.1-0.1,2.1,0.8,2.1,2c0,1.1-0.8,2.1-2,2.1C21.3,113.7,21.2,113.7,21.2,113.7z"/>
	<path d="M44.2,120.2c-1,0-2.1-0.2-3.1-0.9c-3-2-3.8-6.5-2.7-13.8c0.2-1.1,1.2-1.9,2.4-1.7c1.1,0.2,1.9,1.2,1.7,2.4
		c-1,6.1-0.2,9,0.9,9.7c0.6,0.4,1.6,0.1,2.1,0c0.6-1,1.4-4.8,2.1-7.6c1.8-8,3.2-13.8,6.2-15.8c3.6-2.5,14.9-1.4,18.3-1
		c1.1,0.1,1.9,1.2,1.8,2.3c-0.1,1.1-1.2,2-2.3,1.8c-6.1-0.7-13.8-0.9-15.4,0.3c-1.8,1.3-3.5,8.8-4.5,13.3c-1.4,6.3-2.1,9.1-3.7,10.1
		C47,119.7,45.7,120.2,44.2,120.2z"/>
	<path d="M76.8,120.2c-0.8,0-1.6-0.2-2.4-0.6c-3.7-2-3.2-7.5,1.4-16.3c-0.2-0.7-1.3-2.3-1.9-3.1c-0.3-0.4-0.6-0.8-0.8-1.2
		c-2.4-3.5-3.7-7.3-3.9-11.1c-0.1-1.1,0.8-2.1,2-2.2c1.1-0.1,2.1,0.8,2.2,2c0.2,3,1.3,6.1,3.2,8.9c0.2,0.3,0.5,0.7,0.8,1.1
		c1.7,2.4,3.6,5,2.4,7.2c-4.9,9.2-3.3,11-3.3,11c0.3,0.2,1.5,0,2-0.4c2.6-4.7,5.1-7.2,7-9.1c2.9-2.8,4-3.9,2.3-11.1
		c-0.2-1,0.3-2.1,1.3-2.4c0.4-0.1,9.6-3.5,10-14.6c0-1.1,1-2.1,2.1-2c1.1,0,2,1,2,2.1c-0.4,10.9-7.7,15.9-11.1,17.6
		c1.5,7.6-0.4,9.9-3.8,13.3c-1.8,1.8-4,3.9-6.3,8.2C81.2,119,79,120.2,76.8,120.2z M78.4,115.6L78.4,115.6L78.4,115.6z M75.9,103.5
		L75.9,103.5L75.9,103.5z"/>
	<path d="M107.6,120.1c-0.3,0-0.6,0-0.8-0.1c-1.8-0.5-3.1-1.6-3.9-3.2c-1.6-3.5-0.1-8.9,1.2-12.3c-9.8-0.3-14.3-6.2-14.5-6.5
		C89,97,89.2,95.7,90.1,95c0.9-0.7,2.2-0.5,2.9,0.4c0.2,0.3,4.5,5.6,14.2,4.7c0.8-0.1,1.5,0.3,1.9,0.9c0.4,0.6,0.5,1.4,0.2,2.1
		c-1.7,3.5-3.6,9.5-2.5,11.9c0.2,0.4,0.4,0.6,0.8,0.8c1.9-1.8,5.1-11.4,7.3-20.2c-1.7-1.7-5.4-5.5-7-8.8c-0.5-1-0.1-2.3,1-2.8
		c1-0.5,2.3-0.1,2.8,1c1.4,2.9,5.5,7,6.9,8.4c0.6,0.5,0.8,1.3,0.6,2c-1.2,5-5.5,21.6-9.8,24.1C108.7,119.9,108.1,120.1,107.6,120.1z
		"/>
</g>
<g id="_x270C__xFE0F__2_">
	<path fill="#010101" d="M280.1,53.9c-0.1,0-0.1,0-0.2,0c-1.1-0.1-1.8-1-1.8-2.1l3.4-42.5c0.1-1.7-0.3-3.2-1.3-4.3
		c-0.5-0.6-1.5-1.3-2.8-1.3c-3,0.3-5.5,2.7-5.9,5.9L266.9,43c-0.6,4.4-2.8,9.2-6,9.2c-3.3,0-5.4-4.8-6-9.3l-4.3-33.2
		c-0.3-3.2-2.8-5.7-6-5.9c-1.2,0-2.1,0.7-2.6,1.2c-0.9,1-1.3,2.6-1.1,4.2l4.8,40.3c0.1,1-0.6,2-1.7,2.1c-1,0.1-2-0.6-2.1-1.7
		l-4.8-40.3c-0.3-2.7,0.4-5.4,2.1-7.2c1.4-1.6,3.4-2.5,5.6-2.5c5.1,0.4,9.1,4.4,9.6,9.3l4.3,33.2c0.4,3.3,1.6,5.3,2.2,5.8
		c0.6-0.5,1.8-2.5,2.2-5.8l4.6-33.2c0.5-4.9,4.5-8.8,9.5-9.2c0,0,0,0,0,0c2.3,0,4.3,0.9,5.8,2.5c1.7,1.8,2.6,4.5,2.3,7.2L282,52.2
		C281.9,53.2,281,53.9,280.1,53.9z"/>
	<path fill="none" stroke="#010101" stroke-width="2" stroke-linecap="round" stroke-linejoin="round" d="M214.5,87.5"/>
	<path fill="#010101" d="M247.7,122.6c-1.1,0-1.9-0.9-1.9-1.9c0-1.1,0.9-1.9,1.9-1.9c18.4,0,32.4-13.1,32.4-30.4
		c0-1.1,0.9-1.9,1.9-1.9c1.1,0,1.9,0.9,1.9,1.9C283.9,107.8,268.4,122.6,247.7,122.6z"/>
	<path fill="#010101" d="M220,87.2c0,0-0.1,0-0.1,0c-5-0.4-8.8-4.7-8.5-9.7l0-13.2c-0.3-2.3,0.3-4.5,1.7-6.3c1.4-1.8,3.4-3,5.7-3.3
		c4.7-0.6,9.1,2.7,9.7,7.5c0.1,0.7,0.1,1.4,0,2.2v13.3c0.3,4.9-3.5,9.2-8.5,9.6C220.1,87.2,220,87.2,220,87.2z M220,58.4
		c-0.2,0-0.4,0-0.6,0c-1.3,0.2-2.4,0.8-3.2,1.9c-0.8,1-1.1,2.3-1,3.6c0,0.1,0,0.2,0,0.3v13.4c-0.2,3,2,5.5,4.8,5.7
		c2.8-0.3,5-2.8,4.8-5.6l0-13.5c0-0.1,0-0.2,0-0.2c0.1-0.4,0.1-0.9,0-1.3C224.4,60.2,222.4,58.4,220,58.4z"/>
	<path fill="#010101" d="M282,90.7c-1,0-1.9-0.8-1.9-1.8l-1.3-21.5c-0.3-3.1-2.9-5.5-6-5.5c0,0-0.1,0-0.1,0h-19.2
		c-3.2,0-5.7,2-5.7,4.5c0,2.6,2.6,5,5.9,5.3l2,0.2c4.5,0.5,9.3,3,9.3,6.6V83c0,1.1-0.9,1.9-1.9,1.9c-1.1,0-1.9-0.9-1.9-1.9v-4.5
		c0-0.5-2-2.3-5.9-2.8l-2-0.2c-5.3-0.6-9.3-4.5-9.3-9.1c0-4.7,4.2-8.3,9.6-8.3h19.2c5.2-0.2,9.6,3.9,10,9.1l1.3,21.5
		c0.1,1.1-0.7,2-1.8,2C282.1,90.7,282,90.7,282,90.7z"/>
	<path fill="#010101" d="M252,90.8c-0.5,0-1-0.2-1.4-0.6c-0.7-0.8-0.7-2,0.1-2.7c3.4-3.1,7.5-5.2,12-6.1c1-0.2,2.1,0.4,2.3,1.5
		c0.2,1-0.4,2.1-1.5,2.3c-3.8,0.8-7.3,2.6-10.2,5.2C252.9,90.6,252.4,90.8,252,90.8z"/>
	<path fill="#010101" d="M233.4,96.3c0,0-0.1,0-0.1,0c-5-0.4-8.8-4.7-8.5-9.7l0-28.5c-0.3-2.3,0.3-4.5,1.7-6.3
		c1.4-1.8,3.4-3,5.7-3.3c2.3-0.3,4.6,0.3,6.4,1.7c1.8,1.4,3,3.4,3.3,5.7c0.1,0.7,0.1,1.4,0,2.2v28.6c0.3,4.9-3.5,9.2-8.5,9.6
		C233.5,96.3,233.4,96.3,233.4,96.3z M233.4,52.2c-0.2,0-0.4,0-0.7,0c-2.6,0.4-4.5,2.8-4.2,5.4c0,0.1,0,0.2,0,0.3v28.7
		c-0.2,3,2,5.5,4.8,5.7c2.8-0.3,5-2.8,4.8-5.6l0-28.8c0-0.1,0-0.2,0-0.3c0.1-0.4,0.1-0.9,0-1.3c-0.2-1.3-0.8-2.4-1.9-3.2
		C235.5,52.6,234.4,52.2,233.4,52.2z"/>
	<path fill="#1D1E1C" d="M247.2,122.6c-17.3,0-32.1-12.9-34.3-30.1c-0.1-1,0.6-2,1.6-2.2c1.1-0.1,2,0.6,2.2,1.6
		c2.1,15.5,15.5,27,31,26.8c18.5,0,32.4-13.1,32.4-30.4c0-1.1,0.9-1.9,1.9-1.9c1.1,0,1.9,0.9,1.9,1.9c0,19.5-15.6,34.2-36.2,34.2
		C247.6,122.6,247.4,122.6,247.2,122.6z"/>
</g>
<circle fill="none" stroke="#8866A9" stroke-width="3" stroke-miterlimit="10" cx="23" cy="74.5" r="12.9"/>
<circle fill="none" stroke="#8866A9" stroke-width="3" stroke-miterlimit="10" cx="214.5" cy="87.2" r="17.5"/>
</svg>
