<svg width="285.4" height="122.6" viewBox="0 0 285.4 122.6" version="1.1" xmlns="http://www.w3.org/2000/svg">
  <g id="line" transform="matrix(2.058 0 0 2.052 -7.959 3.228)" stroke-miterlimit="10">
    <path fill="none" stroke="#000" stroke-linecap="round" stroke-linejoin="round" stroke-miterlimit="10" stroke-width="2" d="m12.46 35.74c-2.333 1-4.917 0.8333-4.917 0.8333-1.677 0.1458-3.115-4.01-2.485-4.733l3.318-5.1-1.75-3.417s5.008-1.415 7.883 2.09c0.3444 0.42 0.7943 0.7429 1.279 0.9871 0.0298 0.015 0.0602 0.0302 0.0912 0.0456 2.593 1.289 5.546 1.571 8.385 0.9981 7.222-1.458 14.07-1.37 21.7 2.212 7.625 3.583 14.53-2.25 13.64-7.5-0.793-4.647 3.562-7.583 6.75-5"/>
    <path fill="none" stroke="#000" stroke-linecap="round" stroke-linejoin="round" stroke-miterlimit="10" stroke-width="2" d="m16.05 48.82c0.6006-2.206 8.491-3.648 8.491-3.648s3.228-1.201 1.426-4.504"/>
    <path fill="none" stroke="#000" stroke-linecap="round" stroke-linejoin="round" stroke-miterlimit="10" stroke-width="2" d="m18.3 33.24c-1.543 1.834-3.893 4.803-0.44 9.158 0 0-6.756 2.853-6.006 8.033 0 0 0.3624 2.476 2.402 2.402"/>
    <path fill="none" stroke="#000" stroke-linecap="round" stroke-linejoin="round" stroke-miterlimit="10" stroke-width="2" d="m23.5 50.03c-1.156 7.254 2.386 6.055 3.017 5.661 1.148-0.7173 1.848-9.854 3.952-11.31 1.592-1.104 8.167-0.3021 8.167-0.3021"/>
    <path fill="none" stroke="#000" stroke-linecap="round" stroke-linejoin="round" stroke-miterlimit="10" stroke-width="2" d="m38.44 41.33c0.0911 1.742 0.7529 3.402 1.734 4.845 0.6616 0.9727 1.803 2.32 1.453 2.985-4.479 8.5 0.6224 7.022 1.083 6.167 3.188-5.917 6.125-4.104 4.647-10.52 0 0 5.27-1.81 5.52-7.977"/>
    <path fill="none" stroke="#000" stroke-linecap="round" stroke-linejoin="round" stroke-miterlimit="10" stroke-width="2" d="m48.15 45.59s2.367 3.204 7.758 2.693c0 0-3.326 6.762 0 7.62 1.917 0.4941 4.722-11.16 4.722-11.16s-1.839-0.7937-3.951-4.182"/>
  </g>
  <g transform="matrix(1.898 0 0 1.924 179.7 -8.124)">
    <path fill="none" stroke="#000" stroke-linecap="round" stroke-linejoin="round" stroke-width="2" d="m52.62 31.13 1.8-22.18c-0.3427-4.964-6.779-5.02-7.227-0.026l-2.42 17.36c-0.3 2.179-1.278 3.962-2.166 3.962s-1.845-1.785-2.126-3.967l-2.231-17.34c-0.8196-5.278-7.439-4.322-7.037 0.0011l2.527 21.03"/>
    <path fill="none" stroke="#000" stroke-linecap="round" stroke-linejoin="round" stroke-width="2" d="m18.38 49.62"/>
    <path fill="none" stroke="#000" stroke-linecap="round" stroke-linejoin="round" stroke-width="2" d="m53.63 50.08c0 9.872-8.02 16.88-17.89 16.88"/>
    <path fill="none" stroke="#000" stroke-linecap="round" stroke-linejoin="round" stroke-width="2" d="m43.74 47.29v-2.333c0-1.1-1.789-2.2-3.976-2.441l-1.049-0.117c-2.187-0.242-3.976-1.851-3.976-3.774s1.8-3.334 4-3.334h10c2.201-0.0448 4.057 1.632 4.235 3.826l0.657 11.21"/>
    <path fill="none" stroke="#000" stroke-linecap="round" stroke-linejoin="round" stroke-width="2" d="m37.96 50.36c1.63-1.48 3.624-2.5 5.777-2.958"/>
    <path fill="none" stroke="#000" stroke-linecap="round" stroke-miterlimit="10" stroke-width="2" d="m18.53 52.1c1.142 8.6 8.539 14.98 17.21 14.86 9.667 0 17.89-6.833 17.89-16.88"/>
    <path fill="none" stroke="#000" stroke-linecap="round" stroke-linejoin="round" stroke-width="2" d="m31.75 49.72c0 1.258-0.6709 2.42-1.76 3.048s-2.431 0.6288-3.52 0-1.76-1.791-1.76-3.048v-15.96c0-1.258 0.6709-2.42 1.76-3.048s2.431-0.6288 3.52 0c1.089 0.6288 1.76 1.791 1.76 3.049z" paint-order="normal"/>
    <path fill="none" stroke="#000" stroke-linecap="round" stroke-linejoin="round" stroke-width="2" d="m24.71 44.94c0 1.262-0.6709 2.427-1.76 3.058s-2.431 0.6308-3.52 0c-1.089-0.6308-1.76-1.796-1.76-3.058v-7.937c0-1.262 0.6709-2.427 1.76-3.058 1.089-0.6308 2.431-0.6308 3.52 0s1.76 1.796 1.76 3.058z" paint-order="normal"/>
  </g>
  <circle cx="23" cy="74.5" r="12.9" fill="none" stroke="#E27022" stroke-miterlimit="10" stroke-width="3"/>
  <circle cx="214.5" cy="87.2" r="17.5" fill="none" stroke="#E27022" stroke-miterlimit="10" stroke-width="3"/>
</svg>
