<svg width="285.4" height="122.6" viewBox="0 0 285.4 122.6" version="1.1" xmlns="http://www.w3.org/2000/svg">
  <g id="color" transform="matrix(2.058 0 0 2.052 -7.959 3.228)">
    <path fill="#e27022" d="m47.25 44.38 2.658 2.696 5.591 1.245-1.291 4.058 0.75 3.218 2.208-0.7136 2.625-4.979 1.699-5.4c-3.714-2.637-4.903-6.142-6.384-9.809z"/>
    <path fill="#e27022" d="m30.95 43.79-1.819 2.842-1.583 7.534-1.602 1.754-2.94-1.088-0.3333-5.25s0.5-4.511 1-6.547 5.333-2.366 5.333-2.366l1.944 3.121z"/>
    <path fill="#f4aa41" d="m50.8 29.28c-0.0178-0.0229-0.0324-0.0417-0.0436-0.0563 0.0125 0.0162 0.0251 0.0325 0.0436 0.0563z"/>
    <path fill="#f4aa41" d="m51.75 30.51c-0.1079-0.1391-0.1959-0.2526-0.2845-0.3668 0.1603 0.2067 0.2845 0.3668 0.2845 0.3668z"/>
    <path fill="#f4aa41" d="m51.47 30.14c-0.2275-0.2932-0.5278-0.6804-0.6703-0.8642 0.0998 0.1286 0.3097 0.3994 0.6703 0.8642z"/>
    <path fill="#f4aa41" d="m67.14 16.53-2.516-0.3133-4.29 1.557c-0.4949 3.096-1.209 8.033-1.209 8.033l-4.066 3.823-6.591 0.9037-5.66-2.434-15.53-1.146-6.442 1.238-6.324-2.754-4.26-2.829-3.623 0.739 1.75 3.417-3.318 5.1 0.9412 4.237s4.63 0.0092 6.91 0.5499l3.396-1.197c-0.5476 2.351 0.6858 4.811 1.548 6.939-2.867 1.41-4.38 2.611-5.217 4.64-0.3842 0.9322-0.6255 3.266-0.7894 4.648l2.798 2.062s3.938-0.3125 2.344-4.577l2.799-2.733c1.502-0.7944 4.45-2.175 4.45-2.175l14.5 0.7273 2.743 3.189-1.329 7.442 2.556-0.2704 4.885-6.5v-3.489s4.941-5.533 6.021-8.887l0.0119 0.0164s5.806-3.004 8.03-7.525c3.597-5.054-0.6774-9.975 4.438-8.312 1.289 0.4189 2.883-2.184 1.32-3.809-0.2826-0.3119-0.1871-0.2065-0.2826-0.3119z"/>
  </g>
  <g id="line" transform="matrix(2.058 0 0 2.052 -7.959 3.228)" stroke-miterlimit="10">
    <path fill="none" stroke="#000" stroke-linecap="round" stroke-linejoin="round" stroke-miterlimit="10" stroke-width="2" d="m12.46 35.74c-2.333 1-4.917 0.8333-4.917 0.8333-1.677 0.1458-3.115-4.01-2.485-4.733l3.318-5.1-1.75-3.417s5.008-1.415 7.883 2.09c0.3444 0.42 0.7943 0.7429 1.279 0.9871 0.0298 0.015 0.0602 0.0302 0.0912 0.0456 2.593 1.289 5.546 1.571 8.385 0.9981 7.222-1.458 14.07-1.37 21.7 2.212 7.625 3.583 14.53-2.25 13.64-7.5-0.793-4.647 3.562-7.583 6.75-5"/>
    <path fill="none" stroke="#000" stroke-linecap="round" stroke-linejoin="round" stroke-miterlimit="10" stroke-width="2" d="m16.05 48.82c0.6006-2.206 8.491-3.648 8.491-3.648s3.228-1.201 1.426-4.504"/>
    <path fill="none" stroke="#000" stroke-linecap="round" stroke-linejoin="round" stroke-miterlimit="10" stroke-width="2" d="m18.3 33.24c-1.543 1.834-3.893 4.803-0.44 9.158 0 0-6.756 2.853-6.006 8.033 0 0 0.3624 2.476 2.402 2.402"/>
    <path fill="none" stroke="#000" stroke-linecap="round" stroke-linejoin="round" stroke-miterlimit="10" stroke-width="2" d="m23.5 50.03c-1.156 7.254 2.386 6.055 3.017 5.661 1.148-0.7173 1.848-9.854 3.952-11.31 1.592-1.104 8.167-0.3021 8.167-0.3021"/>
    <path fill="none" stroke="#000" stroke-linecap="round" stroke-linejoin="round" stroke-miterlimit="10" stroke-width="2" d="m38.44 41.33c0.0911 1.742 0.7529 3.402 1.734 4.845 0.6616 0.9727 1.803 2.32 1.453 2.985-4.479 8.5 0.6224 7.022 1.083 6.167 3.188-5.917 6.125-4.104 4.647-10.52 0 0 5.27-1.81 5.52-7.977"/>
    <path fill="none" stroke="#000" stroke-linecap="round" stroke-linejoin="round" stroke-miterlimit="10" stroke-width="2" d="m48.15 45.59s2.367 3.204 7.758 2.693c0 0-3.326 6.762 0 7.62 1.917 0.4941 4.722-11.16 4.722-11.16s-1.839-0.7937-3.951-4.182"/>
  </g>
  <g id="skin" transform="matrix(1.898 0 0 1.924 179.7 -8.157)">
    <path fill="#fcea2b" stroke="#fcea2b" stroke-width="2" d="m52.24 37.4 1.906-29.01-1.397-2.065-3.985 0.2361-1.837 4.735-2.375 17.38-1.906 2.125-2.656-2.312-2.5-21.12-2.155-1.694-2.137 0.07921-1.989 3.188 2.943 24.83h-2.557c-2.036-5.827-6.417-2.234-7.105 1.084-4.414-2.323-4.892-0.5945-6.62 2.234l-0.2205 8.076c0.2641 2.848 0.5205 4.681 0.873 6.947l1.697 5.274 6 6.917 8.333 2.666 7.583-0.916 6.917-4.594 3.48-5.344c1.194-6.675 1.056-12.23-0.292-18.71z"/>
  </g>
  <g transform="matrix(1.898 0 0 1.924 179.7 -8.157)">
    <path fill="none" stroke="#000" stroke-linecap="round" stroke-linejoin="round" stroke-width="2" d="m52.62 31.13 1.8-22.18c-0.3427-4.964-6.779-5.02-7.227-0.026l-2.42 17.36c-0.3 2.179-1.278 3.962-2.166 3.962s-1.845-1.785-2.126-3.967l-2.231-17.34c-0.8196-5.278-7.439-4.322-7.037 0.0011l2.527 21.03"/>
    <path fill="none" stroke="#000" stroke-linecap="round" stroke-linejoin="round" stroke-width="2" d="m18.38 49.62"/>
    <path fill="none" stroke="#000" stroke-linecap="round" stroke-linejoin="round" stroke-width="2" d="m53.63 50.08c0 9.872-8.02 16.88-17.89 16.88"/>
    <path fill="none" stroke="#000" stroke-linecap="round" stroke-linejoin="round" stroke-width="2" d="m43.74 47.29v-2.333c0-1.1-1.789-2.2-3.976-2.441l-1.049-0.117c-2.187-0.242-3.976-1.851-3.976-3.774s1.8-3.334 4-3.334h10c2.201-0.0448 4.057 1.632 4.235 3.826l0.657 11.21"/>
    <path fill="none" stroke="#000" stroke-linecap="round" stroke-linejoin="round" stroke-width="2" d="m37.96 50.36c1.63-1.48 3.624-2.5 5.777-2.958"/>
    <path fill="none" stroke="#000" stroke-linecap="round" stroke-miterlimit="10" stroke-width="2" d="m18.53 52.1c1.142 8.6 8.539 14.98 17.21 14.86 9.667 0 17.89-6.833 17.89-16.88"/>
    <path fill="none" stroke="#000" stroke-linecap="round" stroke-linejoin="round" stroke-width="2" d="m31.75 49.72c0 1.258-0.6709 2.42-1.76 3.048s-2.431 0.6288-3.52 0-1.76-1.791-1.76-3.048v-15.96c0-1.258 0.6709-2.42 1.76-3.048s2.431-0.6288 3.52 0c1.089 0.6288 1.76 1.791 1.76 3.049z" paint-order="normal"/>
    <path fill="none" stroke="#000" stroke-linecap="round" stroke-linejoin="round" stroke-width="2" d="m24.71 44.94c0 1.262-0.6709 2.427-1.76 3.058s-2.431 0.6308-3.52 0c-1.089-0.6308-1.76-1.796-1.76-3.058v-7.937c0-1.262 0.6709-2.427 1.76-3.058 1.089-0.6308 2.431-0.6308 3.52 0s1.76 1.796 1.76 3.058z" paint-order="normal"/>
  </g>
</svg>
