<?xml version="1.0" encoding="utf-8"?>
<!-- Generator: Adobe Illustrator 16.0.4, SVG Export Plug-In . SVG Version: 6.00 Build 0)  -->
<!DOCTYPE svg PUBLIC "-//W3C//DTD SVG 1.1//EN" "http://www.w3.org/Graphics/SVG/1.1/DTD/svg11.dtd">
<svg version="1.1" id="Ebene_1" xmlns="http://www.w3.org/2000/svg" xmlns:xlink="http://www.w3.org/1999/xlink" x="0px" y="0px"
	 width="285.4px" height="122.6px" viewBox="0 0 285.4 122.6" enable-background="new 0 0 285.4 122.6" xml:space="preserve">
<g id="_xD83D__xDC08__xFE0F__2_">
	<path d="M8.4,80.1c-0.4,0-0.7,0-0.9,0C5.3,80.2,3.2,78.6,1.6,75.5c-0.101-0.2-2.9-5.8-1-8.4L6.7,57.7l-3.1-6
		C3.3,51.1,3.3,50.5,3.5,49.9c0.2-0.6,0.7-1,1.3-1.199c0.5-0.101,11.7-3.2,18.4,5c0.5,0.6,1.1,1.1,2,1.5c5,2.5,10.5,3.1,16.2,2
		C58.8,53.7,73,55.1,87.5,61.9c7,3.301,14.601,2.7,20.3-1.699C111.9,57.1,114.1,52.6,113.4,48.6c-0.9-5.6,1.2-10.8,5.5-13.3
		c3.7-2.2,8.2-1.8,11.7,1c0.899,0.7,1,2,0.3,2.9c-0.7,0.899-2,1-2.9,0.3c-2.2-1.7-4.8-2-7-0.7c-2.8,1.6-4.2,5.2-3.6,9.1
		c0.899,5.5-1.8,11.5-7.101,15.601c-6.899,5.3-16.1,6.1-24.5,2.1c-13.6-6.399-27-7.7-43.5-4.399c-6.6,1.3-13,0.6-18.6-2.2L23.5,58.9
		C22.1,58.2,21,57.4,20.2,56.3c-3.4-4.1-8.5-4.3-11.6-4.1l2.3,4.6c0.3,0.7,0.3,1.4-0.101,2.1L4.1,69.4C4,70.3,4.7,73.3,6.2,75.1
		c0.6,0.7,1,0.9,1,0.9l0,0h0.3c0,0,4.9,0.3,9.2-1.601c1-0.5,2.3,0,2.7,1.101c0.399,1,0,2.3-1.101,2.7C14.5,79.9,10.3,80.1,8.4,80.1z
		"/>
	<path d="M25,105.4c-0.2,0-0.399,0-0.5-0.1c-1.1-0.3-1.7-1.4-1.399-2.5c1.399-5.3,14.6-8.2,18.899-9c0.4-0.2,1.9-1,2.4-2.4
		c0.399-1.1,0.2-2.399-0.7-4c-0.5-1-0.2-2.3,0.8-2.8s2.3-0.2,2.8,0.8c1.5,2.7,1.801,5.2,0.9,7.4c-1.3,3.4-4.6,4.7-5,4.8
		c-0.1,0-0.2,0.101-0.3,0.101C35,99.1,27.5,102,27,103.7C26.8,104.8,26,105.4,25,105.4z"/>
	<path d="M21.2,113.7c-4.6,0-6.5-4.4-6.8-6.7C13,97.6,21.5,91.7,25.7,89.4c-6-9.399-0.4-16.1,2.4-19.5c0.699-0.899,2-1,2.899-0.3
		c0.9,0.7,1,2,0.3,2.9c-3.699,4.399-6.6,9-0.899,16.3c0.399,0.5,0.5,1.2,0.399,1.8C30.6,91.2,30.2,91.7,29.6,92
		C29.5,92.1,17.1,97.4,18.4,106.4c0.1,0.301,0.6,3.301,2.8,3.2c1.1-0.1,2.1,0.8,2.1,2c0,1.101-0.8,2.101-2,2.101H21.2z"/>
	<path d="M44.2,120.2c-1,0-2.1-0.2-3.1-0.9c-3-2-3.801-6.5-2.7-13.8c0.2-1.101,1.2-1.9,2.399-1.7c1.101,0.2,1.9,1.2,1.7,2.4
		c-1,6.1-0.2,9,0.9,9.699c0.6,0.4,1.6,0.101,2.1,0c0.601-1,1.4-4.8,2.101-7.6c1.8-8,3.199-13.8,6.199-15.8
		c3.601-2.5,14.9-1.4,18.301-1c1.1,0.1,1.899,1.2,1.8,2.3c-0.101,1.1-1.2,2-2.3,1.8C65.5,94.9,57.8,94.7,56.2,95.9
		c-1.8,1.301-3.5,8.801-4.5,13.301c-1.4,6.3-2.1,9.1-3.7,10.1C47,119.7,45.7,120.2,44.2,120.2z"/>
	<path d="M76.8,120.2c-0.8,0-1.6-0.2-2.399-0.601c-3.7-2-3.2-7.5,1.399-16.3c-0.199-0.7-1.3-2.3-1.899-3.1
		C73.6,99.8,73.3,99.4,73.1,99c-2.4-3.5-3.7-7.3-3.9-11.101c-0.1-1.1,0.8-2.1,2-2.199c1.1-0.101,2.1,0.8,2.2,2
		c0.2,3,1.3,6.1,3.2,8.899c0.199,0.3,0.5,0.7,0.8,1.101c1.7,2.399,3.6,5,2.399,7.199c-4.899,9.2-3.3,11-3.3,11
		c0.3,0.2,1.5,0,2-0.399c2.601-4.7,5.101-7.2,7-9.101c2.9-2.8,4-3.899,2.3-11.1c-0.199-1,0.301-2.1,1.301-2.4
		c0.399-0.1,9.6-3.5,10-14.6c0-1.1,1-2.1,2.1-2c1.1,0,2,1,2,2.1C102.8,89.3,95.5,94.3,92.1,96c1.5,7.6-0.4,9.899-3.801,13.3
		c-1.8,1.8-4,3.9-6.3,8.2C81.2,119,79,120.2,76.8,120.2z M78.4,115.6L78.4,115.6L78.4,115.6z M75.9,103.5L75.9,103.5L75.9,103.5z"/>
	<path d="M107.6,120.1c-0.301,0-0.601,0-0.801-0.1c-1.8-0.5-3.1-1.601-3.899-3.2c-1.601-3.5-0.101-8.9,1.2-12.3
		C94.3,104.2,89.8,98.3,89.6,98c-0.601-1-0.4-2.3,0.5-3C91,94.3,92.3,94.5,93,95.4c0.2,0.301,4.5,5.601,14.2,4.7
		c0.8-0.1,1.5,0.3,1.9,0.9c0.399,0.6,0.5,1.399,0.199,2.1c-1.699,3.5-3.6,9.5-2.5,11.9c0.2,0.399,0.4,0.6,0.801,0.8
		c1.899-1.8,5.1-11.4,7.3-20.2c-1.7-1.7-5.4-5.5-7-8.8c-0.5-1-0.101-2.3,1-2.8c1-0.5,2.3-0.101,2.8,1c1.4,2.899,5.5,7,6.9,8.399
		c0.6,0.5,0.8,1.301,0.6,2c-1.2,5-5.5,21.601-9.8,24.101C108.7,119.9,108.1,120.1,107.6,120.1z"/>
</g>
<g id="_x270C__xFE0F__2_">
	<path fill="#010101" d="M280.1,53.9c-0.101,0-0.101,0-0.2,0c-1.101-0.1-1.8-1-1.8-2.1L281.5,9.3c0.101-1.7-0.3-3.2-1.3-4.3
		c-0.5-0.601-1.5-1.3-2.8-1.3c-3,0.3-5.5,2.699-5.9,5.899L266.9,43c-0.601,4.399-2.8,9.2-6,9.2c-3.3,0-5.4-4.801-6-9.301L250.6,9.7
		c-0.301-3.2-2.801-5.7-6-5.9C243.4,3.8,242.5,4.5,242,5c-0.899,1-1.3,2.6-1.1,4.2l4.8,40.3c0.1,1-0.6,2-1.7,2.1
		c-1,0.101-2-0.6-2.1-1.7l-4.8-40.3C236.8,6.9,237.5,4.2,239.2,2.4c1.4-1.6,3.4-2.5,5.6-2.5C249.9,0.3,253.9,4.3,254.4,9.2
		l4.3,33.199c0.4,3.301,1.6,5.301,2.2,5.801c0.6-0.5,1.8-2.5,2.2-5.801L267.7,9.2c0.5-4.9,4.5-8.801,9.5-9.2l0,0
		c2.3,0,4.3,0.899,5.8,2.5c1.7,1.8,2.601,4.5,2.3,7.2L282,52.2C281.9,53.2,281,53.9,280.1,53.9z"/>
	<path fill="none" stroke="#010101" stroke-width="2" stroke-linecap="round" stroke-linejoin="round" d="M214.5,87.5"/>
	<path fill="#010101" d="M247.7,122.6c-1.1,0-1.9-0.899-1.9-1.899c0-1.101,0.9-1.9,1.9-1.9c18.4,0,32.4-13.1,32.4-30.4
		C280.1,87.3,281,86.5,282,86.5c1.101,0,1.9,0.899,1.9,1.899C283.9,107.8,268.4,122.6,247.7,122.6z"/>
	<path fill="#010101" d="M220,87.2h-0.1c-5-0.4-8.8-4.7-8.5-9.7V64.3c-0.3-2.3,0.3-4.5,1.7-6.3c1.399-1.8,3.399-3,5.699-3.3
		c4.7-0.601,9.101,2.699,9.7,7.5c0.101,0.699,0.101,1.399,0,2.199V77.7c0.3,4.899-3.5,9.199-8.5,9.6C220.1,87.2,220,87.2,220,87.2z
		 M220,58.4c-0.2,0-0.399,0-0.6,0c-1.3,0.2-2.4,0.801-3.2,1.9c-0.8,1-1.1,2.3-1,3.6c0,0.101,0,0.2,0,0.301V77.6
		c-0.2,3,2,5.5,4.8,5.7c2.8-0.3,5-2.8,4.8-5.6V64.2c0-0.101,0-0.2,0-0.2c0.101-0.4,0.101-0.9,0-1.3C224.4,60.2,222.4,58.4,220,58.4z
		"/>
	<path fill="#010101" d="M282,90.7c-1,0-1.899-0.801-1.899-1.801L278.8,67.4c-0.3-3.1-2.899-5.5-6-5.5h-0.1h-19.2
		c-3.2,0-5.7,2-5.7,4.5c0,2.601,2.601,5,5.9,5.301l2,0.199c4.5,0.5,9.3,3,9.3,6.601V83c0,1.1-0.899,1.899-1.899,1.899
		C262,84.9,261.2,84,261.2,83v-4.5c0-0.5-2-2.3-5.9-2.8l-2-0.2C248,74.9,244,71,244,66.4c0-4.699,4.2-8.3,9.601-8.3H272.8
		c5.2-0.2,9.601,3.9,10,9.101l1.301,21.5c0.1,1.1-0.7,2-1.801,2C282.1,90.7,282,90.7,282,90.7z"/>
	<path fill="#010101" d="M252,90.8c-0.5,0-1-0.2-1.399-0.6c-0.7-0.801-0.7-2,0.1-2.7c3.4-3.101,7.5-5.2,12-6.101
		c1-0.199,2.1,0.4,2.3,1.5c0.2,1-0.399,2.101-1.5,2.301c-3.8,0.8-7.3,2.6-10.2,5.199C252.9,90.6,252.4,90.8,252,90.8z"/>
	<path fill="#010101" d="M233.4,96.3H233.3c-5-0.4-8.8-4.7-8.5-9.7V58.1c-0.3-2.3,0.301-4.5,1.7-6.3c1.4-1.8,3.4-3,5.7-3.3
		s4.6,0.3,6.4,1.7c1.8,1.399,3,3.399,3.3,5.699c0.1,0.7,0.1,1.4,0,2.2V86.7C242.2,91.6,238.4,95.9,233.4,96.3
		C233.5,96.3,233.4,96.3,233.4,96.3z M233.4,52.2c-0.2,0-0.4,0-0.7,0c-2.6,0.399-4.5,2.8-4.2,5.399c0,0.101,0,0.2,0,0.3v28.7
		c-0.2,3,2,5.5,4.8,5.7c2.801-0.3,5-2.8,4.801-5.6V57.9c0-0.1,0-0.199,0-0.3c0.1-0.399,0.1-0.899,0-1.3c-0.2-1.3-0.801-2.4-1.9-3.2
		C235.5,52.6,234.4,52.2,233.4,52.2z"/>
	<path fill="#1D1E1C" d="M247.2,122.6c-17.3,0-32.1-12.899-34.3-30.1c-0.101-1,0.6-2,1.6-2.2c1.101-0.1,2,0.6,2.2,1.6
		c2.1,15.5,15.5,27,31,26.801c18.5,0,32.4-13.101,32.4-30.4c0-1.1,0.899-1.9,1.899-1.9c1.101,0,1.9,0.9,1.9,1.9
		c0,19.5-15.601,34.2-36.2,34.2C247.6,122.6,247.4,122.6,247.2,122.6z"/>
</g>
<circle fill="none" stroke="#E27022" stroke-width="3" stroke-miterlimit="10" cx="23" cy="74.5" r="12.9"/>
<circle fill="none" stroke="#E27022" stroke-width="3" stroke-miterlimit="10" cx="214.5" cy="87.2" r="17.5"/>
</svg>
