<?xml version="1.0" encoding="utf-8"?>
<!-- Generator: Adobe Illustrator 16.0.4, SVG Export Plug-In . SVG Version: 6.00 Build 0)  -->
<!DOCTYPE svg PUBLIC "-//W3C//DTD SVG 1.1//EN" "http://www.w3.org/Graphics/SVG/1.1/DTD/svg11.dtd">
<svg version="1.1" id="Ebene_1" xmlns="http://www.w3.org/2000/svg" xmlns:xlink="http://www.w3.org/1999/xlink" x="0px" y="0px"
	 width="747px" height="166.5px" viewBox="0 0 747 166.5" enable-background="new 0 0 747 166.5" xml:space="preserve">
<g id="_xD83E__xDDD5__2_">
	<path fill="#8767A9" d="M423.7,75.8c0.2,0,0.8-2.2,0.8-5c0-4.1-2.3-9.4-11.3-9.9c-3.2,2.1-5.9,3.6-9,3.6h0.1c-3.1,0-5.8-1.5-9-3.6
		c-3.5,0-6,1.3-7.5,3.1c-3.6,4.4-2.5,11.8-2.5,11.8"/>
	<path fill="#B399C8" d="M405.8,73.7l-0.5-0.3c-7.9,0-14.4-7.1-14.4-15.1l-1-8.6V43c0-7.9,7.4-14.4,15.4-14.4l0,0
		c7.9,0,15.3,6.4,15.3,14.4l0.1,13.3c0,0.9-0.7,3.8-0.9,4.6c2.3,2.5,1.8,4.9-2.8,9C414.3,72.4,409.7,73.7,405.8,73.7z"/>
	<rect x="400.6" y="69.8" fill="#B399C8" width="15.8" height="6"/>
	<path fill="#FCEA2C" d="M416.3,47.1c-2.3-6.6-6.2-9.2-11.3-12.8c-4,3.8-7.8,4.8-11.3,12.8c0,7.8,5.1,12.6,11.3,12.6
		S416.3,54.9,416.3,47.1z"/>
	<path fill="#000100" d="M411,44c0,1.1-0.9,2-2,2s-2-0.9-2-2c0-1.1,0.9-2,2-2S411,42.9,411,44"/>
	<path fill="#000100" d="M403,44c0,1.1-0.9,2-2,2s-2-0.9-2-2c0-1.1,0.9-2,2-2S403,42.9,403,44"/>
	<path fill="#000100" d="M405,54c-1.2,0-2.3-0.3-3.4-0.9c-0.5-0.2-0.7-0.8-0.4-1.3c0.2-0.5,0.8-0.7,1.3-0.4c1.7,0.9,3.4,0.9,5.1,0
		c0.5-0.2,1.1,0,1.3,0.4c0.2,0.5,0,1.1-0.4,1.3C407.3,53.8,406.1,54,405,54z"/>
	<path fill="none" stroke="#000000" stroke-width="2" stroke-linecap="round" stroke-linejoin="round" stroke-miterlimit="10" d="
		M423.3,68.4c1,3.2,0.5,6.5,0.5,6.5"/>
	<path fill="none" stroke="#000000" stroke-width="2" stroke-linecap="round" stroke-linejoin="round" stroke-miterlimit="10" d="
		M385.9,74.9c0,0-1.1-7.1,3.2-10.8"/>
	<path fill="none" stroke="#000000" stroke-width="2" stroke-linecap="round" stroke-linejoin="round" stroke-miterlimit="10" d="
		M405.1,34.6h-0.2c0,0-13.2,7.4-10.2,16.7c0,0,2.3,8.3,10.3,8.3s10.3-8.3,10.3-8.3C418.3,42,405.1,34.6,405.1,34.6z"/>
	<path fill="none" stroke="#000000" stroke-width="2" stroke-linecap="round" stroke-linejoin="round" stroke-miterlimit="10" d="
		M405,28.7c0,0-13.7-0.6-14.8,14.8c-1.1,15.4,2,19,2,19s3.9,10.1,13.6,11.3c9.7,1.2,15.6-8.8,15.6-8.8s1.9-4.9-5.7-5.3
		c-1.6,1-6.2,4.2-10.8,0"/>
	<path fill="none" stroke="#000000" stroke-width="2" stroke-linecap="round" stroke-linejoin="round" stroke-miterlimit="10" d="
		M405.2,28.7c0,0,13.7-0.6,14.8,14.8c0.3,4.2,0.3,7.6,0.1,10.2l-0.4,2.8"/>
	
		<line fill="none" stroke="#000000" stroke-width="2" stroke-linecap="round" stroke-linejoin="round" stroke-miterlimit="10" x1="401" y1="72.2" x2="401" y2="74.9"/>
	
		<line fill="none" stroke="#000000" stroke-width="2" stroke-linecap="round" stroke-linejoin="round" stroke-miterlimit="10" x1="416.4" y1="70.5" x2="416.4" y2="74.9"/>
	<path fill="none" stroke="#000000" stroke-width="2" stroke-linecap="round" stroke-linejoin="round" stroke-miterlimit="10" d="
		M417.6,63.4c0,0-3.5,5.7-10.8,4.7C401,67.3,391,60,389.9,50.5"/>
</g>
<g id="_xDB80__xDC24__2_">
	<circle fill="#FCEA2B" cx="348.7" cy="32.8" r="4"/>
	<path fill="#FCEA2B" d="M349,42l-3.3,9.4l-1.3,1.8l3.7,6.2l0.9,0.9l1.9,4.3l0.4,16.9c0,0-0.5,3.1-4.3,2.1l-1.5-15.4l-6.5-6.7
		l-6.9,6.3l-13.7,6.8l-1.8-2l6.1-4.5l5.3-3.7l4.1-6.4l4.6-10l4.7-9l3.7-1l2.8,2.1L349,42z"/>
	<g>
		<path fill="none" stroke="#000000" stroke-width="2" stroke-linecap="round" stroke-linejoin="round" stroke-miterlimit="10" d="
			M348.3,29.8c-1.5,0.2-2.7,1.4-2.7,3c0,1.5,1.1,2.8,2.6,3"/>
		<g>
			<path fill="none" stroke="#000000" stroke-width="2" stroke-linecap="round" stroke-linejoin="round" stroke-miterlimit="10" d="
				M347.5,82.7l-1.6-13c-0.1-1.1-0.9-2.6-1.7-3.4l-3.2-3.2c-0.8-0.8-2.1-2-3-2.7l-2.9-2.4c-0.8-0.7-1.5-2.2-1.5-3.3l0,0
				c0-1.1,0.4-2.8,1-3.8l5-9.2"/>
		</g>
		<g>
			<path fill="none" stroke="#000000" stroke-width="2" stroke-linecap="round" stroke-linejoin="round" stroke-miterlimit="10" d="
				M344.8,51c0,0-0.3,0.6-0.6,1.3s-0.1,2.1,0.5,3l3.4,5.4"/>
		</g>
		<g>
			<path fill="none" stroke="#000000" stroke-width="2" stroke-linecap="round" stroke-linejoin="round" stroke-miterlimit="10" d="
				M347.7,43.7"/>
		</g>
		<g>
			<path fill="none" stroke="#000000" stroke-width="2" stroke-linecap="round" stroke-linejoin="round" stroke-miterlimit="10" d="
				M333.7,55.7l-5.9,8.4c-0.6,0.9-1.9,2.1-2.9,2.7l-6.7,4c-0.9,0.6-1.5,1.7-1.2,2.5s1.3,1.2,2.3,0.7l8.5-3.5c1-0.4,2.5-1.4,3.3-2.1
				l7.5-6.7"/>
		</g>
		<path fill="none" stroke="#000000" stroke-width="2" stroke-linecap="round" stroke-linejoin="round" stroke-miterlimit="10" d="
			M339.7,41.7c2-4,4.4-4.2,6-3.6c1.6,0.6,2.4,2.2,2.4,3.8"/>
		<g>
			
				<line fill="none" stroke="#000000" stroke-width="2" stroke-linecap="round" stroke-linejoin="round" stroke-miterlimit="10" x1="344.5" y1="42.8" x2="348.2" y2="48.3"/>
		</g>
	</g>
	<line fill="#FFFFFF" x1="348.8" y1="48.4" x2="348.8" y2="35.8"/>
	<path fill="#FFFFFF" d="M348.8,48.4"/>
	
		<line fill="none" stroke="#000000" stroke-width="2" stroke-linecap="round" stroke-linejoin="round" stroke-miterlimit="10" x1="351.8" y1="20.7" x2="351.8" y2="82.7"/>
	<g>
		
			<line fill="none" stroke="#000000" stroke-width="2" stroke-linecap="round" stroke-linejoin="round" stroke-miterlimit="10" x1="311" y1="36.8" x2="330.4" y2="36.8"/>
		
			<line fill="none" stroke="#000000" stroke-width="2" stroke-linecap="round" stroke-linejoin="round" stroke-miterlimit="10" x1="325.9" y1="31.9" x2="330.7" y2="36.8"/>
		
			<line fill="none" stroke="#000000" stroke-width="2" stroke-linecap="round" stroke-linejoin="round" stroke-miterlimit="10" x1="325.9" y1="41.6" x2="330.7" y2="36.8"/>
	</g>
</g>
<g id="_xDB80__xDC29__3_">
	<circle fill="#FCEA2B" cx="182.6" cy="24.3" r="3"/>
	<g>
		<path fill="#FCEA2B" d="M178.8,41.4l-4.9,41.8h3.3l6.3-26.6h2.2l-0.3,12.6l-2.4,14h3.3l4.3-14l1.3-13.1l-0.5-12.8
			c0,0,3.4,15.2,4.7,16.4s2.9,0.5,2.9,0.5l-5.3-22.5l-2.6-5.2l-3.9-1.4l-10.7,2.3l-7,11.8l-6.6,7.7c0,0,0.2,0.8,2.6,0.8
			c1.8-0.1,4.8-4.1,5.4-4.9c1.6-2.1,6.4-11.2,8.1-11.3C179.2,37.3,179,40.8,178.8,41.4z"/>
	</g>
	<path fill="#A57939" d="M164.7,55.3c0,0,0.6,1,1,2v3l4.1,6l2.9-2l-2.8-5.9c0,0-0.9-1-1.5-1.3c-1.2-0.5-2-0.5-2-0.5
		c-0.7-0.7-0.8-0.9-1.1-1.3s-0.3-1.1-1-0.5"/>
	<circle fill="none" stroke="#000000" stroke-width="2" stroke-miterlimit="10" cx="182.6" cy="24.3" r="3"/>
	<g>
		<path fill="none" stroke="#000000" stroke-width="2" stroke-linecap="round" stroke-linejoin="round" stroke-miterlimit="10" d="
			M189.6,37.2l2,16.9c0.1,1.1,0.2,2.9,0,4l-0.9,9.1c-0.1,1.1-0.5,2.9-0.8,3.9l-3.1,10.2c-0.3,1.1-1.3,1.9-2.2,1.9s-1.5-0.9-1.3-2
			l1.7-10.1c0.2-1.1,0.4-2.9,0.4-4l0.2-8.6c0-1.1-0.4-2-1-2s-1.3,0.9-1.6,1.9l-5.4,22.7c-0.3,1.1-1.2,1.9-2.1,1.9s-1.5-0.9-1.4-2
			l5-43"/>
	</g>
	<g>
		<path fill="none" stroke="#000000" stroke-width="2" stroke-linecap="round" stroke-linejoin="round" stroke-miterlimit="10" d="
			M163.6,52.2c0,0,0.7-0.5,1.5-1s2.6-2.9,4-5.3l4.9-8.4c1.4-2.4,4.3-4.8,6.5-5.3s5.8-1,8-1s4.3,2.2,4.7,4.9l0.6,4.1
			c0.4,2.7,1.3,7.1,2.1,9.8l2.6,9.2"/>
	</g>
	<path fill="none" stroke="#000000" stroke-width="2" stroke-linecap="round" stroke-linejoin="round" stroke-miterlimit="10" d="
		M164.6,55.2c0,0,0.6,1,1,2v3l4.1,6l2.9-2l-3.3-5"/>
</g>
<g id="_xD83D__xDC76__2_">
	<path fill="#92D3F5" d="M540.9,78.5v-1.9c0-8.4,1.1-25.7,4.1-32.1h30c3,6.3,3.9,23.6,3.9,32.1v1.9H540.9z"/>
	<path fill="none" stroke="#040404" stroke-width="2" stroke-miterlimit="10" d="M558,29.2"/>
	<path fill="#61B2E4" d="M578.9,78.5h-12c0,0,0-11.5,0-16.5c0-3-1-4-1-4l5.4-2.9l4.4-8l1.4,3.6L578.9,78.5z"/>
	<path fill="#FCEA2B" d="M568,58c8-4.1,7-10,7-16.3c0-9.1-6.2-15.7-15-15.7s-15,6.5-15,15.7c0,6.3-0.8,12.2,7.1,16.3
		c0,0,3.5,1,7.9,1C565,59,568,58,568,58z"/>
	<circle fill="#EA5A47" cx="559.9" cy="51.5" r="3"/>
	<path fill="none" stroke="#040404" stroke-width="2" stroke-miterlimit="10" d="M558,29.2"/>
	<path fill="none" stroke="#040404" stroke-width="2" stroke-miterlimit="10" d="M557.9,29.2"/>
	<path fill="none" stroke="#000000" stroke-width="2" stroke-linecap="round" stroke-miterlimit="10" d="M550.9,44c0,0,1-1,2-1
		s2,1,2,1"/>
	<path fill="none" stroke="#000000" stroke-width="2" stroke-linecap="round" stroke-miterlimit="10" d="M564.9,44c0,0,1-1,2-1
		s2,1,2,1"/>
	<path fill="none" stroke="#040404" stroke-width="2" stroke-linecap="round" stroke-linejoin="round" d="M579.9,69"/>
	<path fill="none" stroke="#040404" stroke-width="2" stroke-miterlimit="10" d="M557.9,31.2"/>
	<path fill="none" stroke="#040404" stroke-width="2" stroke-linecap="round" stroke-linejoin="round" d="M566.9,53"/>
	<path fill="none" stroke="#040404" stroke-width="2" stroke-linecap="round" stroke-linejoin="round" d="M575.9,46"/>
	<path fill="none" stroke="#040404" stroke-width="2" stroke-linecap="round" stroke-linejoin="round" d="M545.9,42"/>
	<path fill="none" stroke="#040404" stroke-width="2" stroke-linecap="round" stroke-linejoin="round" d="M574.9,45.3
		c3,3,4,21.7,4,29.7v2.5"/>
	<path fill="none" stroke="#040404" stroke-width="2" stroke-linecap="round" stroke-linejoin="round" d="M540.9,77.5V75
		c0-8,1-26.7,4-29.7"/>
	
		<line fill="none" stroke="#040404" stroke-width="2" stroke-linecap="round" stroke-miterlimit="10" x1="555.9" y1="32" x2="554.9" y2="33"/>
	
		<line fill="none" stroke="#040404" stroke-width="2" stroke-linecap="round" stroke-miterlimit="10" x1="559.9" y1="31" x2="558.9" y2="33"/>
	
		<line fill="none" stroke="#040404" stroke-width="2" stroke-linecap="round" stroke-miterlimit="10" x1="563.9" y1="32" x2="564.9" y2="33"/>
	<circle fill="none" stroke="#040404" stroke-width="2" stroke-miterlimit="10" cx="559.9" cy="51.5" r="3"/>
	<path fill="none" stroke="#040404" stroke-width="2" stroke-linecap="round" stroke-linejoin="round" stroke-miterlimit="10" d="
		M556.6,51.6c-1.1-0.3-1.7-0.6-1.7-0.6"/>
	<path fill="none" stroke="#040404" stroke-width="2" stroke-linecap="round" stroke-linejoin="round" stroke-miterlimit="10" d="
		M564.9,51c0,0-0.5,0.3-1.5,0.6"/>
	<path fill="none" stroke="#040404" stroke-width="2" stroke-linecap="round" stroke-linejoin="round" d="M567.9,58c8-3,7-12,7-15.8
		c0-8.8-6.2-15.2-15-15.2s-15,6.3-15,15.2c0,3.8-1,12.8,7.1,15.8C555.7,59.4,564.2,59.3,567.9,58z"/>
</g>
<path fill="#92D3F5" d="M699.4,54.8c0,0-4,1-4,3l2,2c0,0,1,4,1,6s-1,11-1,11h30c0,0-2-15-1-16s3-3,3-3c0-2-4-3-4-3"/>
<path fill="#F1B31C" d="M702.4,54.8c-4,0-4-6-4-13s4-14,14-14s14,7,14,14s0,13-4,13"/>
<path fill="#FCEA2B" d="M701.4,46.8c0,9,4.9,14,11,14c5.9,0,11.1-5,11.1-14c0-3-1-5-1-5c-3-3-7-8-7-8c-4,3-7,6-13,7
	C702.5,40.8,701.4,41.8,701.4,46.8z"/>
<path fill="#FCEA2B" d="M690.4,76.8l2.9-12.3l-0.9-1.2l-4-3l-4-6c0,0-1-1,0-2s2,0,2,0l4,4c1,1,2,1,5,2s3.1,3.2,3,5
	c-0.7,9-1,13.6-1,13.6"/>
<path fill="#FCEA2B" d="M696.4,58.7c0,0-1-2.9-2.1-5.9c-0.4-1.2-1.9-1-1.9-0.2c0,0.6,0,3.7,0,3.7"/>
<path fill="#FCEA2B" d="M728.4,58.7c0,0,1-2.9,2.1-5.9c0.4-1.2,1.9-1,1.9-0.2c0,0.6,0,3.7,0,3.7"/>
<path fill="none" stroke="#040404" stroke-width="2" stroke-linecap="round" stroke-linejoin="round" d="M722.4,54.8c4,0,4-6,4-13
	s-4-14-14-14s-14,7-14,14s0,13,4,13"/>
<path fill="#040404" d="M718.3,45.8c0,1.1-0.9,2-2,2s-2-0.9-2-2c0-1.1,0.9-2,2-2S718.3,44.7,718.3,45.8"/>
<path fill="#040404" d="M710.3,45.8c0,1.1-0.9,2-2,2s-2-0.9-2-2c0-1.1,0.9-2,2-2S710.3,44.7,710.3,45.8"/>
<path fill="none" stroke="#040404" stroke-width="2" stroke-linejoin="round" d="M701.4,46.8c0,9,4.9,14,11,14c5.9,0,11.1-5,11.1-14
	c0-3-1-5-1-5c-3-3-7-8-7-8c-4,3-7,6-13,7C702.4,40.8,701.4,41.8,701.4,46.8z"/>
<path fill="none" stroke="#040404" stroke-width="2" stroke-linecap="round" stroke-linejoin="round" d="M710.5,53.8
	c1.9,0.4,3.9,0,3.9,0"/>
<path fill="none" stroke="#000000" stroke-width="2" stroke-linecap="round" stroke-linejoin="round" stroke-miterlimit="10" d="
	M690.4,75.8l2.9-11.3l-0.9-1.2l-4-3l-4-6c0,0-1-1,0-2s2,0,2,0l4,4c1,1,2,1,5,2s3.1,3.2,3,5c-0.7,9-1,12.6-1,12.6"/>
<path fill="none" stroke="#000000" stroke-width="2" stroke-linecap="round" stroke-linejoin="round" stroke-miterlimit="10" d="
	M696.4,58.7c0,0-1-2.9-2.1-5.9c-0.4-1.2-1.9-1-1.9-0.2c0,0.6,0,3.7,0,3.7"/>
<path fill="none" stroke="#000000" stroke-width="2" stroke-linecap="round" stroke-linejoin="round" stroke-miterlimit="10" d="
	M728.4,58.7c0,0,1-2.9,2.1-5.9c0.4-1.2,1.9-1,1.9-0.2c0,0.6,0,3.7,0,3.7"/>
<line fill="none" stroke="#000000" stroke-width="2" stroke-linecap="round" stroke-linejoin="round" stroke-miterlimit="10" x1="699.4" y1="55.8" x2="702.4" y2="54.8"/>
<line fill="none" stroke="#040404" stroke-width="2" stroke-linecap="round" stroke-linejoin="round" x1="722.9" y1="54.8" x2="725.9" y2="55.8"/>
<g id="_xD83D__xDC68__x200D__xD83C__xDF93__3_">
	<ellipse fill="#FCEA2C" cx="250.9" cy="47.1" rx="11.3" ry="14.2"/>
	<path fill="#F4AA42" d="M260.1,38.4c0,0-3.4-0.2-6.3,0.9l0,0.1c4,3.9,8,3.1,8,3.1l0,0C261.4,41,260.8,39.6,260.1,38.4"/>
	<path fill="#F4AA42" d="M241.7,38.4c-0.7,1.2-1.2,2.6-1.6,4l0,0.1c0,0,4,0.8,8-3.1l0-0.1C245.2,38.3,241.7,38.4,241.7,38.4"/>
	<path fill="#3F3F3F" d="M269.9,77.1c0,0,2-14-10-14c-3.2,2.1-5.9,3.6-9,3.6h0.1c-3.1,0-5.8-1.5-9-3.6c-12,0-10,14-10,14"/>
	<path fill="#000100" d="M257,45.2c0,1.1-0.9,2-2,2s-2-0.9-2-2c0-1.1,0.9-2,2-2S257,44.1,257,45.2"/>
	<path fill="#000100" d="M249,45.2c0,1.1-0.9,2-2,2s-2-0.9-2-2c0-1.1,0.9-2,2-2S249,44.1,249,45.2"/>
	<path fill="#000100" d="M251,55.3c-1.2,0-2.3-0.3-3.4-0.9c-0.5-0.2-0.7-0.8-0.4-1.3c0.2-0.5,0.8-0.7,1.3-0.4c1.7,0.9,3.4,0.9,5.1,0
		c0.5-0.2,1.1,0,1.3,0.4c0.2,0.5,0,1.1-0.4,1.3C253.3,55,252.2,55.3,251,55.3z"/>
	<ellipse fill="none" stroke="#000000" stroke-width="2" stroke-miterlimit="10" cx="251" cy="46.6" rx="11.3" ry="14.2"/>
	<g id="XMLID_7_">
		<g>
			<path fill="#3F3F3F" d="M260.2,30.5v8c0,0-6.7-0.3-9.2,2.6c-2.5-2.9-9.2-2.6-9.2-2.6v-7.9l9.1,0.9L260.2,30.5z"/>
			<polygon fill="#9A9B99" points="236.4,29.9 250.3,27.4 265.4,29.9 260.2,30.5 250.9,31.4 241.8,30.5 			"/>
		</g>
		<g>
			
				<polyline fill="none" stroke="#000000" stroke-width="2" stroke-linecap="round" stroke-linejoin="round" stroke-miterlimit="10" points="
				236.4,29.9 241.8,30.5 250.9,31.4 260.2,30.5 265.4,29.9 			"/>
			<path fill="none" stroke="#000000" stroke-width="2" stroke-linecap="round" stroke-linejoin="round" stroke-miterlimit="10" d="
				M241.8,29.9v0.5v7.9c0,0,6.7-0.3,9.2,2.6"/>
			<path fill="none" stroke="#000000" stroke-width="2" stroke-linecap="round" stroke-linejoin="round" stroke-miterlimit="10" d="
				M260.2,29.9v0.5v8c0,0-6.7-0.3-9.2,2.6"/>
			
				<polyline fill="none" stroke="#000000" stroke-width="2" stroke-linecap="round" stroke-linejoin="round" stroke-miterlimit="10" points="
				265.4,29.9 250.3,27.4 236.4,29.9 			"/>
		</g>
	</g>
	
		<line fill="none" stroke="#000000" stroke-width="2" stroke-linecap="round" stroke-linejoin="round" stroke-miterlimit="10" x1="236.4" y1="30.2" x2="236.4" y2="38.3"/>
	
		<line fill="none" stroke="#000000" stroke-width="2" stroke-linecap="round" stroke-linejoin="round" stroke-miterlimit="10" x1="236.4" y1="38.3" x2="234.4" y2="40.9"/>
	
		<line fill="none" stroke="#000000" stroke-width="2" stroke-linecap="round" stroke-linejoin="round" stroke-miterlimit="10" x1="236.4" y1="38.3" x2="236.4" y2="42.4"/>
	<path fill="none" stroke="#000000" stroke-width="2" stroke-linecap="round" stroke-linejoin="round" stroke-miterlimit="10" d="
		M261.9,42.5c0,0-4,0.8-8-3.1"/>
	<path fill="none" stroke="#000000" stroke-width="2" stroke-linecap="round" stroke-linejoin="round" stroke-miterlimit="10" d="
		M240.2,42.5c0,0,4,0.8,8-3.1"/>
	<path fill="none" stroke="#FFFFFF" stroke-width="2" stroke-linecap="round" stroke-miterlimit="10" d="M259.9,65.1
		c-3.2,2.1-5.9,3.6-9,3.6h0.1c-3.1,0-5.8-1.5-9-3.6"/>
	<path fill="none" stroke="#000000" stroke-width="2" stroke-linecap="round" stroke-linejoin="round" stroke-miterlimit="10" d="
		M269.8,76.1c0,0,2-13-10-13c-3.2,2.1-5.9,3.6-9,3.6h0.1c-3.1,0-5.8-1.5-9-3.6c-12,0-10,13-10,13"/>
</g>
<g id="_xD83E__xDD3C__2_">
	<circle fill="#FCEA2B" cx="36.4" cy="30.8" r="3"/>
	<path fill="#FCEA2B" d="M30.4,32.7c0,2.2-1.8,4-4,4c-2.2,0-4-1.8-4-4s1.8-4,4-4C28.6,28.7,30.4,30.5,30.4,32.7z"/>
	<g>
		<path fill="#FCEA2B" d="M46.4,38.7l9,10v4l-6,5l-5,7l-2.8,12h-3.4l1.2-15l6-11l-9-8.8c0,0-0.8-1.1-2-1.1c-1.2,0-2.8,0.4-5,0.4
			c-1.6,0-5.1-1.1-7.8-2.8c0,0-1.6-1.7-0.1-3.1s0,0,0,0s2,1.2,3.5,1.9c1.7,0.8,5.8,1.8,9.7,0.7c0,0,6.5-2.3,8.3-1.4
			C44.8,37.4,46.4,38.7,46.4,38.7z"/>
	</g>
	<g>
		<polyline fill="#F8EB2B" points="55.4,51.7 56.4,62.7 60.6,74.7 57.6,74.7 51.4,63.7 50.4,57.7 		"/>
	</g>
	<g>
		<path fill="#FCEA2B" d="M22.8,44.9l-5.2,5.8l4,12l-0.8,14h-3.4l-0.8-13l-3-6l-6-5v-4l9-10c0,0,1.8-3,2.6-3.1
			c1.6-0.2,3.3-0.5,4.7,0.1c0.8,0.3,2.2,2.5,2.2,4.9c0,0.6-0.2,1.3-0.5,1.9c0,0.1,3,2.2,4.3,1.2c1.8-1.4,3.6-5.6,4.8-5.6
			c1.4,0-1,6-3,7.6c-3.2,2.5-7.6-0.8-8.1-0.2"/>
	</g>
	<g>
		<polyline fill="#F8EB2B" points="8.4,53.7 8.4,63.7 6.4,74.7 9.4,74.7 12.4,64.7 13.4,58.7 		"/>
	</g>
	<circle fill="none" stroke="#000000" stroke-width="2" stroke-miterlimit="10" cx="36.4" cy="30.8" r="3"/>
	<g>
		<path fill="none" stroke="#000000" stroke-width="2" stroke-linecap="round" stroke-linejoin="round" stroke-miterlimit="10" d="
			M37.4,41.7l6.7,7.5c0.7,0.8,0.9,2.3,0.4,3.3L40.4,60c-0.5,1-1,2.7-1.1,3.7l-0.9,11c-0.1,1.1,0.6,2,1.5,2s1.9-0.9,2.2-1.9l1.9-8.1
			c0.3-1.1,1-2.7,1.6-3.6l2.7-3.7c0.6-0.9,1.9-2.2,2.7-2.9l2.9-2.4c0.8-0.7,1.5-2.2,1.5-3.3l0,0c0-1.1-0.6-2.7-1.3-3.5l-7.7-8.5"/>
	</g>
	<g>
		<path fill="none" stroke="#000000" stroke-width="2" stroke-linecap="round" stroke-linejoin="round" stroke-miterlimit="10" d="
			M41.4,39.7"/>
	</g>
	<g>
		<path fill="none" stroke="#000000" stroke-width="2" stroke-linecap="round" stroke-linejoin="round" stroke-miterlimit="10" d="
			M55.4,51.7l0.8,9c0.1,1.1,0.5,2.8,0.8,3.9l2.9,8.2c0.4,1,0,1.9-0.8,1.9s-1.9-0.8-2.5-1.7l-4.2-7.5c-0.5-1-1.1-2.6-1.3-3.7l-0.7-4"
			/>
	</g>
	<path fill="none" stroke="#000000" stroke-width="2" stroke-linecap="round" stroke-linejoin="round" stroke-miterlimit="10" d="
		M46.4,38.7c-2-2-4.3-2.6-6-2c-3,1-8,2-10,2s-5-1-8-3"/>
	<g>
		<path fill="none" stroke="#000000" stroke-width="2" stroke-linecap="round" stroke-linejoin="round" stroke-miterlimit="10" d="
			M22.8,44.9l-3.9,4.4c-0.7,0.8-1,2.3-0.7,3.4l2.7,8.2c0.3,1,0.6,2.8,0.5,3.9l-0.5,10c-0.1,1.1-0.9,2-1.8,2s-1.8-0.9-1.8-2l-0.6-9
			c-0.1-1.1-0.5-2.8-1-3.8l-1.2-2.4c-0.5-1-1.6-2.4-2.4-3.1L9.1,54c-0.8-0.7-1.5-2.2-1.5-3.3l0,0c0-1.1,0.6-2.7,1.3-3.5l7.7-8.5"/>
	</g>
	<g>
		<path fill="none" stroke="#000000" stroke-width="2" stroke-linecap="round" stroke-linejoin="round" stroke-miterlimit="10" d="
			M21.6,39.7"/>
	</g>
	<g>
		<path fill="none" stroke="#000000" stroke-width="2" stroke-linecap="round" stroke-linejoin="round" stroke-miterlimit="10" d="
			M8.4,53.7v8c0,1.1-0.2,2.9-0.4,4l-1.3,7.1c-0.2,1.1,0.3,2,1.1,2s1.8-0.9,2.1-1.9l1.9-6.2c0.3-1.1,0.7-2.8,0.9-3.9l0.7-4"/>
	</g>
	<path fill="none" stroke="#000000" stroke-width="2" stroke-linecap="round" stroke-linejoin="round" stroke-miterlimit="10" d="
		M19.5,36.5c-0.8,0.3-1.8,1-2.9,2.2"/>
	<path fill="none" stroke="#000000" stroke-width="2" stroke-linecap="round" stroke-miterlimit="10" d="M21.6,39.7c0,0,4.9,4,6.9,4
		c1,0,3,0,4-5"/>
	<path fill="none" stroke="#000000" stroke-width="2" stroke-linecap="round" stroke-miterlimit="10" d="M28.5,34.9
		c0.6-0.5,0.9-1.3,0.9-2.2c0-1.7-1.3-3-3-3c-1.7,0-3,1.3-3,3"/>
	<path fill="none" stroke="#000000" stroke-width="2" stroke-linecap="round" stroke-linejoin="round" stroke-miterlimit="10" d="
		M17,42"/>
</g>
<g id="_xD83D__xDEB4__2_">
	<circle fill="#FCEA2B" cx="481.7" cy="28.2" r="3"/>
	<g>
		<polyline fill="#FCEA2B" points="481.7,38.1 483.8,35.1 487.6,35.2 493.8,49.4 491.8,53.1 489.2,55.6 486.1,66.8 482.7,73.5 
			480.3,71.5 481.2,64.4 477.4,57.5 477.5,54.1 485.6,49.1 482.7,41.6 		"/>
	</g>
	<circle fill="none" stroke="#000000" stroke-width="2" stroke-miterlimit="10" cx="481.7" cy="28.2" r="3"/>
	<g>
		<path fill="none" stroke="#000000" stroke-width="2" stroke-linecap="round" stroke-linejoin="round" stroke-miterlimit="10" d="
			M473.7,45.2l4.3-2.9c0.9-0.6,2.2-1.9,2.8-2.8l1.9-2.7c0.6-0.9,2-1.6,3.1-1.6c1.1,0,2.3,0.9,2.7,1.9l4.6,10.5
			c0.4,1,0.4,2.6-0.1,3.6l-0.1,0.2c-0.5,1-1.8,2.1-2.8,2.5l-5.5,2.4c-1,0.4-1.5,1.6-1.1,2.6l2.6,6.4c0.4,1,0.1,2.3-0.7,2.8
			c-0.8,0.6-1.9,0.2-2.5-0.8l-4.4-8.2c-0.5-1-0.9-2.5-0.9-3.4c0-0.9,0.8-2.1,1.7-2.7l4.6-2.9c0.9-0.6,1.5-1.9,1.2-3l-1.5-6.1"/>
	</g>
	<circle fill="none" stroke="#000000" stroke-width="2" stroke-miterlimit="10" cx="467.4" cy="69.1" r="10.2"/>
	<circle fill="none" stroke="#000000" stroke-width="2" stroke-miterlimit="10" cx="499.4" cy="69.1" r="10.2"/>
	
		<polyline fill="none" stroke="#000000" stroke-width="2" stroke-linecap="round" stroke-linejoin="round" stroke-miterlimit="10" points="
		467.6,69.1 469.6,45.1 473.3,45.1 	"/>
	<g>
		<path fill="none" stroke="#000000" stroke-width="2" stroke-miterlimit="10" d="M485.3,68.1l-1,3.1c-0.3,1.1-1.4,1.9-2.4,1.9
			s-1.7-0.9-1.6-2l0.9-6.7"/>
	</g>
	<g>
		<line fill="none" stroke="#000000" stroke-width="2" stroke-miterlimit="10" x1="489.7" y1="54" x2="486.1" y2="65.6"/>
	</g>
</g>
<g id="_xD83C__xDFC3__2_">
	<circle fill="#FCEA2B" cx="620.8" cy="28.8" r="3"/>
	<g>
		<path fill="#FCEA2B" d="M620.5,38.3c0,0,0.3,3.7,3.3,9c0.2,0.4,1,1.7,1,1.7l-6,11.7l-0.2,18h3.4l1.8-15l6-6l6-5v-4l-6-11"/>
	</g>
	<g>
		<polyline fill="#FCEA2B" points="635.8,51.7 642.8,61.7 653,67.7 652,70.7 639.8,65.7 630.8,57.7 		"/>
	</g>
	<path fill="#FCEA2B" d="M629.8,37.7c-2-4-4.4-4.2-6-3.6c-2.3,0.9-2.9,3.6-2,5.6"/>
	<circle fill="none" stroke="#000000" stroke-width="2" stroke-miterlimit="10" cx="620.8" cy="28.8" r="3"/>
	<g>
		<path fill="none" stroke="#000000" stroke-width="2" stroke-linecap="round" stroke-linejoin="round" stroke-miterlimit="10" d="
			M635.8,51.7l5.9,8.4c0.6,0.9,1.9,2.1,2.9,2.7l6.7,4c0.9,0.6,1.5,1.7,1.2,2.5c-0.3,0.8-1.3,1.2-2.3,0.7l-8.5-3.5
			c-1-0.4-2.5-1.4-3.3-2.1l-7.5-6.7"/>
	</g>
	<g>
		<path fill="none" stroke="#000000" stroke-width="2" stroke-linecap="round" stroke-linejoin="round" stroke-miterlimit="10" d="
			M624.6,47.1c0,0,0.3,0.6,0.6,1.3s0.1,2.1-0.5,3l-4.9,7.6c-0.6,0.9-1.1,2.6-1.1,3.7l-0.2,14c0,1.1,0.7,2,1.7,2s1.8-0.9,2-2l1.3-11
			c0.1-1.1,0.9-2.6,1.7-3.4l3.2-3.2c0.8-0.8,2.1-2,3-2.7l2.9-2.4c0.8-0.7,1.5-2.2,1.5-3.3l0,0c0-1.1-0.4-2.8-1-3.8l-5-9.2"/>
	</g>
	<g>
		<path fill="none" stroke="#000000" stroke-width="2" stroke-linecap="round" stroke-linejoin="round" stroke-miterlimit="10" d="
			M621.8,39.7"/>
	</g>
	<path fill="none" stroke="#000000" stroke-width="2" stroke-linecap="round" stroke-linejoin="round" stroke-miterlimit="10" d="
		M629.8,37.7c-2-4-4.4-4.2-6-3.6c-1.6,0.6-2.4,2.2-2.4,3.8"/>
	<g>
		<path fill="none" stroke="#000000" stroke-width="2" stroke-linecap="round" stroke-linejoin="round" stroke-miterlimit="10" d="
			M624.8,37.7l-1.5,5.1c-0.3,1.1-1.4,1.9-2.5,1.9h-6.9"/>
	</g>
</g>
<g id="_xD83D__xDC69__2_">
	<path fill="#F1B31C" d="M127.5,63.5c1.2-0.7,3.1-8.3,0.4-13c-0.4-0.9-0.8-1.7-1.2-2.6c-1.5-3.3-2-4.5-2.3-10.5
		c0-3.7-3.8-6.8-7.5-7.1c-0.3,0-0.5-0.1-0.7-0.3c-0.1-0.1-2.4-2.7-7.2-2.7c-6.2,0-11.4,3.4-12.7,8.2c-0.5,2-0.7,4.1-0.6,6.2
		c0.2,2-0.1,4.1-0.8,6c-0.2,0.8-0.6,1.5-1.1,2.1c-3.8,4.4-1,14.3-1.2,14C102.7,72.9,118.7,71.7,127.5,63.5z"/>
	<path fill="#FCEA2B" d="M100.1,45.8v1c0,7.6,4.6,13.6,10.5,13.6s10.5-6,10.5-13.6c0-4.7-1.8-7.5-5.3-11.1c-2.8,2.2-5.8,4.1-9,5.8
		C104.1,42.9,100.5,45,100.1,45.8z"/>
	<path fill="#92D3F5" d="M130,77.3c-0.6,0-1-0.4-1-1v-3c0-4.5-4.5-8.8-8.7-9c-6.2,5-12.5,5-18.7,0c-4.2,0.2-9.7,4.5-9.7,9v3
		c0,0.6-0.4,1-1,1"/>
	<g>
		<path fill="none" stroke="#040404" stroke-width="2" stroke-linecap="round" stroke-linejoin="round" d="M93.3,63
			c-3.7-5.9-0.6-10.1,1.2-14.7c1.6-4.2-0.2-6.5,1.3-12c1.5-5.5,7.3-9,13.7-9c5.4,0,8,3,8,3c4.2,0.4,7.4,3.9,7.4,8
			c0.4,7.2,1,7.2,3.4,12.8c1.7,3.9,1.1,8.3-1.4,11.7"/>
		<path fill="none" stroke="#040404" stroke-width="2" stroke-linecap="round" stroke-linejoin="round" d="M91.5,76.2v-3
			c0-5,5-9,10-9c6,5,12,5,18,0c5,0,10,4,10,9v3"/>
		<path fill="#040404" d="M116.5,46.2c0,1.1-0.9,2-2,2c-1.1,0-2-0.9-2-2c0-1.1,0.9-2,2-2C115.6,44.2,116.5,45.1,116.5,46.2"/>
		<path fill="#040404" d="M108.5,46.2c0,1.1-0.9,2-2,2c-1.1,0-2-0.9-2-2c0-1.1,0.9-2,2-2C107.6,44.2,108.5,45.1,108.5,46.2"/>
		<path fill="none" stroke="#040404" stroke-width="2" stroke-linejoin="round" d="M99.5,47.2c0,8,5,14,11,14s11-6,11-14
			c0-5-2-8-6-12c-4,4-16,9-16,11V47.2z"/>
		<path fill="none" stroke="#040404" stroke-width="2" stroke-linecap="round" stroke-linejoin="round" d="M107.5,54.5
			c1.9,1,4.1,1,6,0"/>
	</g>
</g>
<path fill="#FCEA2B" d="M734.5,76.8l-2.9-12.3l0.9-1.2l4-3l4-6l-0.1,0.2l0.1-2.2c-1-1-2,0-2,0l-4,4c-1,1-2,1-5,2s-3.1,3.2-3,5
	c0.7,9,1,13.6,1,13.6"/>
<path fill="none" stroke="#000000" stroke-width="2" stroke-linecap="round" stroke-linejoin="round" stroke-miterlimit="10" d="
	M727.5,75.8c0,0-0.3-3.6-1-12.6c-0.1-1.8,0-4,3-5s4-1,5-2l4-4c0,0,1-1,2,0c0.8,0.8,0.2,1.7,0,2l-4,6l-4,3l-0.9,1.2l2.9,11.3"/>
</svg>
