<?xml version="1.0" encoding="utf-8"?>
<!-- Generator: Adobe Illustrator 16.0.4, SVG Export Plug-In . SVG Version: 6.00 Build 0)  -->
<!DOCTYPE svg PUBLIC "-//W3C//DTD SVG 1.1//EN" "http://www.w3.org/Graphics/SVG/1.1/DTD/svg11.dtd">
<svg version="1.1" id="Ebene_1" xmlns="http://www.w3.org/2000/svg" xmlns:xlink="http://www.w3.org/1999/xlink" x="0px" y="0px"
	 width="241.3px" height="85px" viewBox="16 -1.9 241.3 85" enable-background="new 16 -1.9 241.3 85" xml:space="preserve">
<g>
	<path d="M136.3,21.8c-0.3,0-0.5-0.1-0.7-0.3c-0.4-0.4-0.4-1,0-1.4c0.8-0.8,1.7-2.5,1.7-6.3c0-3.5-3.4-8.3-5-10.3
		c-1.6,2-5,6.8-5,10.3c0,3.8,0.9,5.5,1.7,6.3c0.4,0.4,0.4,1,0,1.4c-0.4,0.4-1,0.4-1.4,0c-1.5-1.5-2.3-4.1-2.3-7.7
		c0-5.3,5.9-12.3,6.2-12.6c0.4-0.4,1.1-0.4,1.5,0c0.3,0.3,6.2,7.3,6.2,12.6c0,3.6-0.8,6.1-2.3,7.7C136.8,21.7,136.5,21.8,136.3,21.8
		z"/>
	<path fill="none" stroke="#FFFFFF" stroke-width="5.9161" stroke-linejoin="round" stroke-miterlimit="10" d="M132.3,23.8"/>
	<path d="M132.3,25.8c-0.5,0-1-0.4-1-1v-8.9c0-0.5,0.4-1,1-1c0.6,0,1,0.4,1,1v8.9C133.3,25.4,132.8,25.8,132.3,25.8z"/>
	<path d="M20.8,60.4c-0.5,0-0.8-0.4-0.8-0.8V25.8c0-0.4,0.4-0.8,0.8-0.8c0.4,0,0.8,0.4,0.8,0.8v33.8C21.7,60.1,21.3,60.4,20.8,60.4z
		"/>
	<path d="M50.6,60.4c-0.5,0-0.8-0.4-0.8-0.8V25.8c0-0.5,0.4-0.8,0.8-0.8c0.5,0,0.8,0.4,0.8,0.8v33.8C51.5,60.1,51.1,60.4,50.6,60.4z
		"/>
	<path d="M145.2,63.6h-25.8c-0.5,0-1-0.4-1-1V24.8c0-0.5,0.4-1,1-1h25.8c0.5,0,1,0.4,1,1v37.8C146.2,63.1,145.7,63.6,145.2,63.6z
		 M120.4,61.6h23.8V25.8h-23.8V61.6z"/>
	<path d="M39.7,20.8c-0.3,0-0.5-0.1-0.7-0.3c-0.4-0.4-0.4-1,0-1.4c0.8-0.8,1.7-2.5,1.7-6.3c0-3.5-3.4-8.3-5-10.3
		c-1.6,2-5,6.8-5,10.3c0,3.8,0.9,5.5,1.7,6.3c0.4,0.4,0.4,1,0,1.4c-0.4,0.4-1,0.4-1.4,0c-1.5-1.5-2.3-4.1-2.3-7.7
		c0-5.3,5.9-12.3,6.2-12.6c0.4-0.4,1.1-0.4,1.5,0c0.3,0.3,6.2,7.3,6.2,12.6c0,3.6-0.8,6.1-2.3,7.7C40.2,20.8,40,20.8,39.7,20.8z"/>
	<path fill="#8967AA" d="M35.7,29.6c-1.6,0-15.7-0.1-15.7-3.8S34.1,22,35.7,22c1.6,0,15.7,0.1,15.7,3.8
		C51.5,29.5,37.3,29.6,35.7,29.6z M21.7,25.8c0.7,0.8,5.7,2.1,14,2.1c8.4,0,13.4-1.3,14-2.1c-0.7-0.8-5.7-2.1-14-2.1
		C27.4,23.7,22.4,25,21.7,25.8z"/>
	<path fill="#8967AA" d="M35.7,63.4c-1.6,0-15.7-0.1-15.7-3.8c0-0.5,0.4-0.8,0.8-0.8c0.4,0,0.8,0.4,0.8,0.8
		c0.4,0.7,5.4,2.1,14.1,2.1c8.6,0,13.7-1.4,14.1-2.2c0-0.5,0.4-0.8,0.8-0.8c0.5,0,0.8,0.4,0.8,0.9C51.5,63.3,37.3,63.4,35.7,63.4z"
		/>
	<rect x="32.8" y="17.9" fill="#FFFFFF" width="5.9" height="7"/>
	<path d="M35.7,25.8c-0.5,0-1-0.4-1-1v-8.9c0-0.5,0.4-1,1-1c0.6,0,1,0.4,1,1v8.9C36.7,25.4,36.3,25.8,35.7,25.8z"/>
	<path fill="#8967AA" d="M145.2,25.8h-25.8c-0.5,0-1-0.4-1-1c0-0.5,0.4-1,1-1h25.8c0.5,0,1,0.4,1,1S145.7,25.8,145.2,25.8z"/>
	<path fill="#8967AA" d="M152.2,63.6h-39.8c-0.5,0-1-0.4-1-1c0-0.6,0.4-1,1-1h39.7c0.5,0,1,0.4,1,1
		C153.1,63.2,152.7,63.6,152.2,63.6z"/>
</g>
<text transform="matrix(1 0 0 1 26.0635 80.1282)" font-family="'SourceSansPro-Regular'" font-size="7">don‘t </text>
<text transform="matrix(1 0 0 1 128.063 80.1282)" font-family="'SourceSansPro-Regular'" font-size="7">do</text>
<text transform="matrix(1 0 0 1 214.5903 80.1282)" font-family="'SourceSansPro-Regular'" font-size="7">exception</text>
<g id="_xD83D__xDCDA__xFE0F__2_">
	<polygon fill="#EA5A47" points="206.8,29.6 230.6,23.3 254.1,29.7 254.2,29.8 230.6,36.2 	"/>
	<path d="M230.6,37.2c-0.1,0-0.2,0-0.3,0L208.4,31c-0.5-0.2-0.9-0.7-0.7-1.2c0.2-0.5,0.7-0.9,1.2-0.7l21.9,6.2
		c0.5,0.2,0.9,0.7,0.7,1.2C231.4,36.9,231,37.2,230.6,37.2z"/>
	<path d="M230.6,45.5c-0.1,0-0.2,0-0.3,0l-25.2-6.7c-0.5-0.1-0.9-0.7-0.7-1.2c0.1-0.5,0.7-0.9,1.2-0.7l25.2,6.7
		c0.5,0.1,0.9,0.7,0.7,1.2C231.5,45.2,231,45.5,230.6,45.5z"/>
	<g>
		<line fill="#FFFFFF" x1="230.6" y1="23.3" x2="254.1" y2="29.7"/>
		<path d="M254.1,30.7c-0.1,0-0.2,0-0.3,0l-23.5-6.4c-0.5-0.1-0.9-0.7-0.7-1.2c0.1-0.5,0.7-0.9,1.2-0.7l23.5,6.4
			c0.5,0.1,0.9,0.7,0.7,1.2C255,30.4,254.6,30.7,254.1,30.7z"/>
	</g>
	<path d="M230.6,37.2c-0.4,0-0.9-0.3-1-0.7c-0.1-0.5,0.2-1.1,0.7-1.2l23.6-6.4c0.5-0.1,1.1,0.2,1.2,0.7c0.1,0.5-0.2,1.1-0.7,1.2
		l-23.6,6.4C230.8,37.2,230.7,37.2,230.6,37.2z"/>
	<g>
		<line fill="#FFFFFF" x1="230.6" y1="23.3" x2="206.8" y2="29.6"/>
		<path d="M206.8,30.7c-0.4,0-0.9-0.3-1-0.8c-0.1-0.5,0.2-1.1,0.7-1.2l23.8-6.3c0.5-0.1,1.1,0.2,1.2,0.7c0.1,0.5-0.2,1.1-0.7,1.2
			L207,30.6C206.9,30.6,206.9,30.7,206.8,30.7z"/>
	</g>
	<path d="M230.6,45.5c-0.4,0-0.9-0.3-1-0.7c-0.1-0.5,0.2-1.1,0.7-1.2l23.6-6.4c0.5-0.1,1.1,0.2,1.2,0.7c0.1,0.5-0.2,1.1-0.7,1.2
		l-23.6,6.4C230.8,45.5,230.7,45.5,230.6,45.5z"/>
	<path d="M206.1,39c-0.1,0-0.2,0-0.3,0c-1.2-0.4-2.1-1.2-2.7-2.5c-0.5-1.2-0.6-2.5-0.2-3.9c0.8-2.8,3.5-4.4,5.9-3.7
		c0.5,0.2,0.8,0.7,0.7,1.3c-0.2,0.5-0.7,0.8-1.3,0.7c-1.3-0.4-2.8,0.7-3.3,2.4c-0.3,0.9-0.2,1.7,0.1,2.5c0.3,0.7,0.8,1.2,1.4,1.3
		c0.5,0.2,0.8,0.7,0.7,1.3C206.9,38.7,206.5,39,206.1,39z"/>
	<path d="M230.6,54.3c-0.1,0-0.2,0-0.3,0l-25.2-6.7c-0.5-0.1-0.9-0.7-0.7-1.2c0.1-0.5,0.7-0.9,1.2-0.7l25.2,6.7
		c0.5,0.1,0.9,0.7,0.7,1.2C231.5,54,231,54.3,230.6,54.3z"/>
	<path d="M230.6,54.3c-0.4,0-0.9-0.3-1-0.7c-0.1-0.5,0.2-1.1,0.7-1.2l23.6-6.4c0.5-0.1,1.1,0.2,1.2,0.7c0.1,0.5-0.2,1.1-0.7,1.2
		l-23.6,6.4C230.8,54.3,230.7,54.3,230.6,54.3z"/>
	<path d="M206.1,47.8c-0.1,0-0.2,0-0.3,0c-1.2-0.4-2.1-1.2-2.7-2.5c-0.5-1.2-0.6-2.5-0.2-3.9s1.2-2.4,2.3-3.1c1.1-0.7,2.4-1,3.6-0.6
		c0.5,0.2,0.8,0.7,0.7,1.3c-0.2,0.5-0.7,0.8-1.3,0.7c-0.6-0.2-1.3-0.1-1.9,0.3c-0.7,0.4-1.2,1.2-1.4,2c-0.3,0.9-0.2,1.7,0.1,2.5
		c0.3,0.7,0.8,1.2,1.4,1.3c0.5,0.2,0.8,0.7,0.7,1.3C206.9,47.5,206.5,47.8,206.1,47.8z"/>
	<path d="M230.6,63.1c-0.1,0-0.2,0-0.3,0l-25.2-6.7c-0.5-0.1-0.9-0.7-0.7-1.2c0.1-0.5,0.7-0.9,1.2-0.7l25.2,6.7
		c0.5,0.1,0.9,0.7,0.7,1.2C231.5,62.8,231.1,63.1,230.6,63.1z"/>
	<path d="M230.6,63.1c-0.4,0-0.9-0.3-1-0.7c-0.1-0.5,0.2-1.1,0.7-1.2l23.6-6.4c0.5-0.1,1.1,0.2,1.2,0.7c0.1,0.5-0.2,1.1-0.7,1.2
		l-23.6,6.4C230.8,63.1,230.7,63.1,230.6,63.1z"/>
	<path d="M206.1,56.6c-0.1,0-0.2,0-0.3,0c-1.2-0.4-2.1-1.2-2.7-2.5c-0.5-1.2-0.6-2.5-0.2-3.9c0.8-2.8,3.5-4.4,5.9-3.7
		c0.5,0.2,0.8,0.7,0.7,1.3c-0.2,0.5-0.7,0.8-1.3,0.7c-1.3-0.4-2.8,0.7-3.3,2.4c-0.3,0.9-0.2,1.7,0.1,2.5c0.3,0.7,0.8,1.2,1.4,1.3
		c0.5,0.2,0.8,0.7,0.7,1.3C207,56.3,206.6,56.6,206.1,56.6z"/>
</g>
</svg>
