<?xml version="1.0" encoding="utf-8"?>
<!-- Generator: Adobe Illustrator 16.0.4, SVG Export Plug-In . SVG Version: 6.00 Build 0)  -->
<!DOCTYPE svg PUBLIC "-//W3C//DTD SVG 1.1//EN" "http://www.w3.org/Graphics/SVG/1.1/DTD/svg11.dtd">
<svg version="1.1" id="Ebene_1" xmlns="http://www.w3.org/2000/svg" xmlns:xlink="http://www.w3.org/1999/xlink" x="0px" y="0px"
	 width="267.15px" height="85px" viewBox="0 0 267.15 85" enable-background="new 0 0 267.15 85" xml:space="preserve">
<g>
	<g>
		<path d="M136.3,21.8c-0.301,0-0.5-0.101-0.699-0.3c-0.399-0.4-0.399-1,0-1.4c0.8-0.8,1.699-2.5,1.699-6.3c0-3.5-3.399-8.3-5-10.3
			c-1.6,2-5,6.8-5,10.3c0,3.8,0.9,5.5,1.699,6.3c0.399,0.4,0.399,1,0,1.4c-0.398,0.4-1,0.4-1.398,0c-1.5-1.5-2.301-4.1-2.301-7.7
			c0-5.3,5.9-12.3,6.199-12.601c0.399-0.399,1.102-0.399,1.5,0C133.3,1.5,139.2,8.5,139.2,13.8c0,3.6-0.802,6.1-2.302,7.7
			C136.8,21.7,136.5,21.8,136.3,21.8z"/>
	</g>
	<g>
		<path fill="none" stroke="#FFFFFF" stroke-width="5.9161" stroke-linejoin="round" stroke-miterlimit="10" d="M132.3,23.8"/>
	</g>
	<g>
		<path d="M132.3,25.8c-0.5,0-1-0.4-1-1v-8.9c0-0.5,0.4-1,1-1c0.601,0,1,0.4,1,1v8.9C133.3,25.4,132.8,25.8,132.3,25.8z"/>
	</g>
	<g>
		<path d="M20.8,60.4C20.3,60.4,20,60,20,59.6V25.8c0-0.4,0.4-0.8,0.8-0.8c0.4,0,0.801,0.4,0.801,0.8V59.6
			C21.7,60.1,21.3,60.4,20.8,60.4z"/>
	</g>
	<g>
		<path d="M50.6,60.4C50.1,60.4,49.8,60,49.8,59.6V25.8c0-0.5,0.4-0.8,0.801-0.8c0.5,0,0.8,0.4,0.8,0.8V59.6
			C51.5,60.1,51.1,60.4,50.6,60.4z"/>
	</g>
	<g>
		<path d="M145.201,63.6H119.4c-0.5,0-1-0.397-1-1V24.8c0-0.5,0.399-1,1-1h25.801c0.5,0,1,0.399,1,1V62.6
			C146.201,63.1,145.701,63.6,145.201,63.6z M120.4,61.6h23.801V25.8H120.4V61.6z"/>
	</g>
	<g>
		<path d="M39.7,20.8c-0.3,0-0.5-0.101-0.7-0.3c-0.399-0.4-0.399-1,0-1.4c0.8-0.8,1.7-2.5,1.7-6.3c0-3.5-3.4-8.3-5-10.3
			c-1.6,2-5,6.8-5,10.3c0,3.8,0.9,5.5,1.7,6.3c0.399,0.4,0.399,1,0,1.4c-0.4,0.4-1,0.4-1.4,0c-1.5-1.5-2.3-4.1-2.3-7.7
			c0-5.3,5.9-12.3,6.2-12.601C35.3-0.2,36-0.2,36.4,0.2c0.3,0.3,6.2,7.3,6.2,12.601c0,3.6-0.801,6.1-2.301,7.7
			C40.2,20.8,40,20.8,39.7,20.8z"/>
	</g>
	<g>
		<path fill="#E27022" d="M35.7,29.6c-1.6,0-15.7-0.1-15.7-3.8C20,22.1,34.1,22,35.7,22s15.7,0.1,15.7,3.8
			C51.5,29.5,37.3,29.6,35.7,29.6z M21.7,25.8c0.7,0.8,5.7,2.1,14,2.1c8.4,0,13.4-1.3,14-2.1C49,25,44,23.7,35.7,23.7
			S22.4,25,21.7,25.8z"/>
	</g>
	<g>
		<path fill="#E27022" d="M35.7,63.4C34.1,63.4,20,63.3,20,59.6c0-0.5,0.4-0.8,0.8-0.8c0.4,0,0.801,0.4,0.801,0.8
			C22,60.3,27,61.7,35.7,61.7c8.6,0,13.7-1.4,14.1-2.2c0-0.5,0.4-0.8,0.801-0.8c0.5,0,0.8,0.399,0.8,0.899
			C51.5,63.3,37.3,63.4,35.7,63.4z"/>
	</g>
	<g>
		<rect x="32.8" y="17.9" fill="#FFFFFF" width="5.9" height="7"/>
	</g>
	<g>
		<path d="M35.7,25.8c-0.5,0-1-0.4-1-1v-8.9c0-0.5,0.4-1,1-1s1,0.4,1,1v8.9C36.7,25.4,36.3,25.8,35.7,25.8z"/>
	</g>
	<g>
		<path fill="#E27022" d="M145.201,25.8H119.4c-0.5,0-1-0.4-1-1c0-0.5,0.399-1,1-1h25.801c0.5,0,1,0.399,1,1
			C146.201,25.4,145.701,25.8,145.201,25.8z"/>
	</g>
	<g>
		<path fill="#E27022" d="M152.201,63.6H112.4c-0.5,0-1-0.397-1-1c0-0.6,0.399-1,1-1h39.7c0.5,0,1,0.4,1,1
			C153.1,63.2,152.701,63.6,152.201,63.6z"/>
	</g>
</g>
<g enable-background="new    ">
	<path d="M27.799,80.211c-0.429,0-0.771-0.154-1.025-0.462s-0.381-0.747-0.381-1.316c0-0.275,0.041-0.523,0.123-0.745
		c0.082-0.222,0.19-0.409,0.325-0.563s0.292-0.273,0.469-0.357c0.177-0.084,0.364-0.126,0.56-0.126c0.196,0,0.366,0.035,0.511,0.105
		s0.292,0.166,0.441,0.287l-0.028-0.581v-1.31h0.581v4.984h-0.476l-0.049-0.399h-0.021c-0.136,0.131-0.291,0.244-0.466,0.34
		C28.188,80.163,28,80.211,27.799,80.211z M27.925,79.728c0.159,0,0.308-0.038,0.448-0.115s0.28-0.194,0.42-0.354V77.48
		c-0.145-0.13-0.284-0.223-0.417-0.276s-0.27-0.08-0.41-0.08c-0.135,0-0.262,0.031-0.381,0.095
		c-0.119,0.062-0.223,0.151-0.312,0.266s-0.159,0.251-0.21,0.409c-0.051,0.159-0.077,0.336-0.077,0.532
		c0,0.411,0.082,0.73,0.245,0.959S27.627,79.728,27.925,79.728z"/>
	<path d="M31.845,80.211c-0.21,0-0.41-0.04-0.599-0.119s-0.356-0.194-0.5-0.347c-0.145-0.151-0.26-0.338-0.346-0.56
		c-0.086-0.222-0.13-0.473-0.13-0.753c0-0.284,0.043-0.537,0.13-0.759c0.086-0.222,0.202-0.41,0.346-0.563
		c0.145-0.154,0.312-0.271,0.5-0.351c0.189-0.079,0.389-0.119,0.599-0.119s0.41,0.04,0.599,0.119c0.189,0.08,0.355,0.196,0.5,0.351
		c0.145,0.153,0.26,0.342,0.346,0.563s0.13,0.475,0.13,0.759c0,0.28-0.043,0.531-0.13,0.753s-0.202,0.408-0.346,0.56
		c-0.145,0.152-0.312,0.268-0.5,0.347S32.055,80.211,31.845,80.211z M31.845,79.735c0.145,0,0.278-0.032,0.399-0.095
		c0.122-0.063,0.225-0.151,0.312-0.267c0.086-0.114,0.153-0.25,0.2-0.409c0.046-0.158,0.07-0.336,0.07-0.532
		c0-0.195-0.023-0.374-0.07-0.535c-0.047-0.161-0.113-0.3-0.2-0.417c-0.086-0.116-0.19-0.206-0.312-0.269
		c-0.121-0.063-0.254-0.095-0.399-0.095s-0.278,0.031-0.399,0.095c-0.122,0.062-0.225,0.152-0.312,0.269
		c-0.086,0.117-0.153,0.256-0.2,0.417c-0.046,0.161-0.07,0.34-0.07,0.535c0,0.196,0.023,0.374,0.07,0.532
		c0.047,0.159,0.113,0.295,0.2,0.409c0.086,0.115,0.19,0.203,0.312,0.267C31.567,79.703,31.7,79.735,31.845,79.735z"/>
	<path d="M34.316,80.127v-3.402h0.476l0.049,0.49h0.021c0.163-0.163,0.334-0.3,0.514-0.409s0.389-0.165,0.627-0.165
		c0.359,0,0.622,0.112,0.787,0.336c0.166,0.225,0.249,0.556,0.249,0.994v2.156h-0.574v-2.079c0-0.322-0.052-0.554-0.154-0.696
		s-0.266-0.214-0.49-0.214c-0.178,0-0.334,0.045-0.469,0.133c-0.135,0.089-0.289,0.22-0.462,0.393v2.464H34.316z"/>
	<path d="M38.411,77.131c-0.14,0-0.249-0.054-0.325-0.161c-0.077-0.107-0.116-0.264-0.116-0.469c0-0.28,0.063-0.522,0.189-0.728
		c0.126-0.206,0.311-0.379,0.553-0.519l0.168,0.273c-0.177,0.116-0.311,0.241-0.399,0.374c-0.089,0.133-0.133,0.298-0.133,0.493
		c0.014-0.004,0.035-0.007,0.063-0.007c0.093,0,0.179,0.03,0.256,0.091c0.077,0.062,0.115,0.149,0.115,0.267
		c0,0.121-0.035,0.216-0.105,0.283S38.518,77.131,38.411,77.131z"/>
	<path d="M40.959,80.211c-0.182,0-0.335-0.028-0.458-0.084s-0.224-0.133-0.301-0.231c-0.077-0.098-0.132-0.217-0.165-0.356
		c-0.033-0.14-0.049-0.294-0.049-0.462v-1.883h-0.504V76.76l0.532-0.035l0.07-0.951h0.483v0.951h0.917v0.47h-0.917v1.89
		c0,0.21,0.039,0.372,0.116,0.486c0.077,0.114,0.213,0.172,0.409,0.172c0.061,0,0.126-0.01,0.196-0.028
		c0.07-0.019,0.133-0.039,0.189-0.062l0.112,0.434c-0.093,0.032-0.195,0.062-0.304,0.088C41.175,80.198,41.067,80.211,40.959,80.211
		z"/>
</g>
<g enable-background="new    ">
	<path d="M129.799,80.211c-0.429,0-0.771-0.154-1.025-0.462s-0.381-0.747-0.381-1.316c0-0.275,0.041-0.523,0.123-0.745
		c0.082-0.222,0.19-0.409,0.325-0.563s0.292-0.273,0.469-0.357c0.177-0.084,0.364-0.126,0.56-0.126c0.196,0,0.366,0.035,0.511,0.105
		s0.292,0.166,0.441,0.287l-0.028-0.581v-1.31h0.581v4.984h-0.476l-0.049-0.399h-0.021c-0.136,0.131-0.291,0.244-0.466,0.34
		C130.187,80.163,129.999,80.211,129.799,80.211z M129.925,79.728c0.159,0,0.308-0.038,0.448-0.115s0.28-0.194,0.42-0.354V77.48
		c-0.145-0.13-0.284-0.223-0.417-0.276s-0.27-0.08-0.41-0.08c-0.135,0-0.262,0.031-0.381,0.095
		c-0.119,0.062-0.223,0.151-0.312,0.266s-0.159,0.251-0.21,0.409c-0.051,0.159-0.077,0.336-0.077,0.532
		c0,0.411,0.082,0.73,0.245,0.959S129.626,79.728,129.925,79.728z"/>
	<path d="M133.844,80.211c-0.21,0-0.41-0.04-0.599-0.119s-0.356-0.194-0.5-0.347c-0.145-0.151-0.26-0.338-0.346-0.56
		c-0.086-0.222-0.13-0.473-0.13-0.753c0-0.284,0.043-0.537,0.13-0.759c0.086-0.222,0.202-0.41,0.346-0.563
		c0.145-0.154,0.312-0.271,0.5-0.351c0.189-0.079,0.389-0.119,0.599-0.119s0.41,0.04,0.599,0.119
		c0.188,0.08,0.355,0.196,0.501,0.351c0.145,0.153,0.26,0.342,0.346,0.563s0.13,0.475,0.13,0.759c0,0.28-0.044,0.531-0.13,0.753
		s-0.201,0.408-0.346,0.56c-0.146,0.152-0.312,0.268-0.501,0.347S134.054,80.211,133.844,80.211z M133.844,79.735
		c0.145,0,0.277-0.032,0.398-0.095c0.122-0.063,0.226-0.151,0.312-0.267c0.086-0.114,0.152-0.25,0.199-0.409
		c0.047-0.158,0.07-0.336,0.07-0.532c0-0.195-0.023-0.374-0.07-0.535s-0.113-0.3-0.199-0.417c-0.087-0.116-0.19-0.206-0.312-0.269
		c-0.121-0.063-0.254-0.095-0.398-0.095s-0.278,0.031-0.399,0.095c-0.122,0.062-0.225,0.152-0.312,0.269
		c-0.086,0.117-0.153,0.256-0.2,0.417c-0.046,0.161-0.07,0.34-0.07,0.535c0,0.196,0.023,0.374,0.07,0.532
		c0.047,0.159,0.113,0.295,0.2,0.409c0.086,0.115,0.19,0.203,0.312,0.267C133.567,79.703,133.7,79.735,133.844,79.735z"/>
</g>
<g enable-background="new    ">
	<path d="M216.544,80.211c-0.229,0-0.443-0.041-0.641-0.122c-0.199-0.082-0.371-0.198-0.519-0.351
		c-0.147-0.151-0.263-0.337-0.347-0.557c-0.084-0.219-0.126-0.469-0.126-0.749c0-0.279,0.044-0.53,0.13-0.752s0.2-0.41,0.343-0.563
		c0.143-0.154,0.305-0.272,0.486-0.354c0.183-0.082,0.371-0.123,0.567-0.123c0.215,0,0.406,0.038,0.577,0.112
		c0.171,0.075,0.313,0.182,0.427,0.322c0.115,0.14,0.202,0.308,0.264,0.504c0.061,0.196,0.09,0.415,0.09,0.658
		c0,0.061-0.001,0.12-0.003,0.178c-0.003,0.059-0.009,0.109-0.018,0.151h-2.296c0.023,0.363,0.137,0.651,0.34,0.864
		c0.203,0.212,0.467,0.318,0.794,0.318c0.163,0,0.313-0.024,0.452-0.073c0.137-0.05,0.27-0.113,0.395-0.192l0.203,0.378
		c-0.148,0.093-0.314,0.175-0.496,0.244C216.984,80.176,216.776,80.211,216.544,80.211z M215.471,78.153h1.82
		c0-0.346-0.073-0.608-0.221-0.788c-0.146-0.18-0.354-0.27-0.619-0.27c-0.121,0-0.236,0.023-0.346,0.07
		c-0.11,0.047-0.209,0.115-0.299,0.206c-0.088,0.092-0.162,0.202-0.22,0.333C215.529,77.836,215.491,77.985,215.471,78.153z"/>
	<path d="M218.111,80.127l1.112-1.778l-1.028-1.624h0.623l0.454,0.749c0.053,0.094,0.105,0.188,0.162,0.284
		c0.056,0.096,0.113,0.189,0.175,0.283h0.028c0.051-0.094,0.102-0.188,0.153-0.283s0.103-0.19,0.154-0.284l0.413-0.749h0.602
		l-1.029,1.688l1.106,1.715h-0.623l-0.497-0.791c-0.061-0.103-0.121-0.205-0.182-0.308s-0.124-0.203-0.189-0.302h-0.027
		c-0.061,0.099-0.119,0.197-0.176,0.298c-0.056,0.101-0.111,0.204-0.168,0.312l-0.461,0.791H218.111z"/>
	<path d="M222.934,80.211c-0.225,0-0.435-0.04-0.631-0.119c-0.195-0.079-0.365-0.194-0.508-0.347
		c-0.142-0.151-0.254-0.338-0.336-0.56c-0.081-0.222-0.122-0.473-0.122-0.753c0-0.284,0.044-0.537,0.134-0.759
		c0.088-0.222,0.207-0.41,0.356-0.563c0.149-0.154,0.323-0.271,0.521-0.351c0.198-0.079,0.407-0.119,0.626-0.119
		c0.225,0,0.416,0.04,0.574,0.119c0.158,0.08,0.299,0.173,0.42,0.28l-0.293,0.378c-0.099-0.089-0.203-0.161-0.312-0.217
		c-0.109-0.057-0.232-0.084-0.367-0.084c-0.154,0-0.297,0.031-0.427,0.095c-0.131,0.062-0.243,0.152-0.337,0.269
		c-0.093,0.117-0.166,0.256-0.22,0.417s-0.081,0.34-0.081,0.535c0,0.196,0.025,0.374,0.078,0.532
		c0.051,0.159,0.122,0.295,0.213,0.409c0.091,0.115,0.201,0.203,0.332,0.267c0.131,0.062,0.273,0.095,0.428,0.095
		c0.158,0,0.305-0.034,0.438-0.102c0.133-0.068,0.253-0.148,0.36-0.242l0.252,0.386c-0.154,0.135-0.325,0.241-0.511,0.318
		C223.335,80.173,223.139,80.211,222.934,80.211z"/>
	<path d="M226.014,80.211c-0.229,0-0.442-0.041-0.641-0.122c-0.198-0.082-0.371-0.198-0.518-0.351
		c-0.147-0.151-0.263-0.337-0.347-0.557c-0.085-0.219-0.126-0.469-0.126-0.749c0-0.279,0.043-0.53,0.129-0.752
		s0.201-0.41,0.344-0.563c0.143-0.154,0.305-0.272,0.486-0.354c0.182-0.082,0.371-0.123,0.566-0.123
		c0.215,0,0.407,0.038,0.578,0.112c0.17,0.075,0.312,0.182,0.427,0.322c0.114,0.14,0.202,0.308,0.263,0.504s0.091,0.415,0.091,0.658
		c0,0.061-0.001,0.12-0.003,0.178c-0.003,0.059-0.009,0.109-0.018,0.151h-2.297c0.023,0.363,0.137,0.651,0.34,0.864
		c0.203,0.212,0.468,0.318,0.795,0.318c0.163,0,0.313-0.024,0.451-0.073c0.138-0.05,0.27-0.113,0.396-0.192l0.203,0.378
		c-0.149,0.093-0.315,0.175-0.497,0.244C226.456,80.176,226.248,80.211,226.014,80.211z M224.943,78.153h1.82
		c0-0.346-0.073-0.608-0.221-0.788s-0.354-0.27-0.62-0.27c-0.121,0-0.236,0.023-0.346,0.07s-0.209,0.115-0.298,0.206
		c-0.089,0.092-0.162,0.202-0.22,0.333C225.001,77.836,224.962,77.985,224.943,78.153z"/>
	<path d="M228.107,81.562v-4.837h0.476l0.049,0.393h0.021c0.154-0.131,0.322-0.243,0.508-0.336c0.184-0.094,0.377-0.141,0.577-0.141
		c0.22,0,0.413,0.041,0.581,0.123c0.168,0.081,0.309,0.198,0.42,0.35c0.111,0.152,0.197,0.334,0.256,0.546
		c0.059,0.213,0.087,0.452,0.087,0.718c0,0.289-0.04,0.547-0.118,0.773c-0.08,0.227-0.188,0.419-0.322,0.577
		c-0.136,0.159-0.292,0.279-0.469,0.361c-0.178,0.081-0.365,0.122-0.561,0.122c-0.158,0-0.316-0.035-0.473-0.105
		c-0.156-0.069-0.314-0.165-0.473-0.286l0.014,0.595v1.147H228.107z M229.514,79.728c0.14,0,0.27-0.031,0.389-0.094
		c0.118-0.063,0.221-0.152,0.308-0.267c0.086-0.114,0.153-0.255,0.202-0.423c0.05-0.168,0.074-0.357,0.074-0.567
		c0-0.187-0.017-0.357-0.049-0.511c-0.033-0.154-0.086-0.286-0.158-0.396s-0.165-0.195-0.279-0.256
		c-0.115-0.061-0.251-0.091-0.41-0.091c-0.145,0-0.29,0.04-0.438,0.119c-0.146,0.079-0.305,0.193-0.473,0.343v1.785
		c0.154,0.131,0.304,0.223,0.449,0.276C229.274,79.701,229.402,79.728,229.514,79.728z"/>
	<path d="M232.944,80.211c-0.182,0-0.335-0.028-0.459-0.084c-0.123-0.056-0.224-0.133-0.301-0.231
		c-0.076-0.098-0.132-0.217-0.164-0.356c-0.033-0.14-0.049-0.294-0.049-0.462v-1.883h-0.504V76.76l0.531-0.035l0.07-0.951h0.482
		v0.951h0.918v0.47h-0.918v1.89c0,0.21,0.039,0.372,0.116,0.486s0.214,0.172,0.409,0.172c0.061,0,0.126-0.01,0.196-0.028
		c0.069-0.019,0.133-0.039,0.188-0.062l0.112,0.434c-0.093,0.032-0.194,0.062-0.304,0.088
		C233.16,80.198,233.052,80.211,232.944,80.211z"/>
	<path d="M234.533,76.025c-0.112,0-0.206-0.035-0.284-0.105c-0.076-0.07-0.115-0.158-0.115-0.266c0-0.112,0.039-0.202,0.115-0.27
		c0.078-0.068,0.172-0.102,0.284-0.102s0.206,0.033,0.283,0.102c0.077,0.067,0.116,0.157,0.116,0.27
		c0,0.107-0.039,0.195-0.116,0.266S234.645,76.025,234.533,76.025z M234.239,80.127v-3.402h0.574v3.402H234.239z"/>
	<path d="M237.284,80.211c-0.21,0-0.41-0.04-0.599-0.119s-0.356-0.194-0.501-0.347c-0.145-0.151-0.26-0.338-0.346-0.56
		s-0.13-0.473-0.13-0.753c0-0.284,0.044-0.537,0.13-0.759s0.201-0.41,0.346-0.563c0.145-0.154,0.312-0.271,0.501-0.351
		c0.188-0.079,0.389-0.119,0.599-0.119s0.41,0.04,0.599,0.119c0.188,0.08,0.355,0.196,0.501,0.351
		c0.145,0.153,0.26,0.342,0.346,0.563s0.13,0.475,0.13,0.759c0,0.28-0.044,0.531-0.13,0.753s-0.201,0.408-0.346,0.56
		c-0.146,0.152-0.312,0.268-0.501,0.347S237.494,80.211,237.284,80.211z M237.284,79.735c0.145,0,0.277-0.032,0.398-0.095
		c0.122-0.063,0.226-0.151,0.312-0.267c0.086-0.114,0.152-0.25,0.199-0.409c0.047-0.158,0.07-0.336,0.07-0.532
		c0-0.195-0.023-0.374-0.07-0.535s-0.113-0.3-0.199-0.417c-0.087-0.116-0.19-0.206-0.312-0.269
		c-0.121-0.063-0.254-0.095-0.398-0.095s-0.277,0.031-0.398,0.095c-0.122,0.062-0.226,0.152-0.312,0.269
		c-0.086,0.117-0.152,0.256-0.199,0.417s-0.07,0.34-0.07,0.535c0,0.196,0.023,0.374,0.07,0.532c0.047,0.159,0.113,0.295,0.199,0.409
		c0.087,0.115,0.19,0.203,0.312,0.267C237.007,79.703,237.139,79.735,237.284,79.735z"/>
	<path d="M239.755,80.127v-3.402h0.477l0.049,0.49h0.021c0.162-0.163,0.334-0.3,0.514-0.409s0.389-0.165,0.627-0.165
		c0.359,0,0.621,0.112,0.787,0.336c0.166,0.225,0.248,0.556,0.248,0.994v2.156h-0.573v-2.079c0-0.322-0.052-0.554-0.154-0.696
		s-0.266-0.214-0.489-0.214c-0.178,0-0.334,0.045-0.47,0.133c-0.136,0.089-0.289,0.22-0.462,0.393v2.464H239.755z"/>
</g>
<g id="_xD83D__xDCDA__xFE0F__2_">
	<g>
		<polygon fill="#EA5A47" points="206.8,29.6 230.6,23.3 254.1,29.7 254.201,29.8 230.6,36.2 		"/>
	</g>
	<g>
		<path d="M230.6,37.2c-0.102,0-0.2,0-0.301,0L208.4,31c-0.5-0.2-0.9-0.7-0.699-1.2c0.199-0.5,0.699-0.9,1.199-0.7l21.899,6.2
			c0.5,0.2,0.9,0.7,0.699,1.2C231.4,36.9,231,37.2,230.6,37.2z"/>
	</g>
	<g>
		<path d="M230.6,45.5c-0.102,0-0.2,0-0.301,0L205.1,38.8c-0.5-0.101-0.899-0.7-0.7-1.2c0.1-0.5,0.7-0.9,1.2-0.7l25.199,6.7
			c0.5,0.103,0.9,0.701,0.699,1.201C231.5,45.199,231,45.5,230.6,45.5z"/>
	</g>
	<g>
		<g>
			<line fill="none" x1="230.6" y1="23.3" x2="254.1" y2="29.7"/>
		</g>
		<g>
			<path d="M254.1,30.7c-0.102,0-0.2,0-0.301,0L230.3,24.3c-0.5-0.101-0.899-0.7-0.699-1.2c0.101-0.5,0.699-0.9,1.199-0.7l23.5,6.4
				c0.5,0.1,0.9,0.7,0.699,1.2C255,30.4,254.6,30.7,254.1,30.7z"/>
		</g>
	</g>
	<g>
		<path d="M230.6,37.2c-0.399,0-0.899-0.3-1-0.7c-0.102-0.5,0.199-1.1,0.699-1.2l23.601-6.4c0.5-0.1,1.1,0.2,1.2,0.7
			c0.1,0.5-0.2,1.1-0.7,1.2L230.8,37.2C230.8,37.2,230.701,37.2,230.6,37.2z"/>
	</g>
	<g>
		<g>
			<line fill="none" x1="230.6" y1="23.3" x2="206.8" y2="29.6"/>
		</g>
		<g>
			<path d="M206.8,30.7c-0.399,0-0.899-0.3-1-0.8c-0.1-0.5,0.199-1.1,0.699-1.2l23.801-6.3c0.5-0.1,1.101,0.2,1.199,0.7
				c0.102,0.5-0.199,1.1-0.699,1.2L207,30.6C206.9,30.6,206.9,30.7,206.8,30.7z"/>
		</g>
	</g>
	<g>
		<path d="M230.6,45.5c-0.399,0-0.899-0.301-1-0.699c-0.102-0.5,0.199-1.102,0.699-1.201l23.601-6.397c0.5-0.1,1.1,0.2,1.2,0.7
			c0.1,0.5-0.2,1.1-0.7,1.2l-23.601,6.4C230.8,45.5,230.701,45.5,230.6,45.5z"/>
	</g>
	<g>
		<path d="M206.1,39c-0.102,0-0.2,0-0.301,0c-1.199-0.4-2.1-1.2-2.699-2.5c-0.5-1.2-0.602-2.5-0.2-3.9c0.801-2.8,3.5-4.4,5.899-3.7
			c0.5,0.2,0.801,0.7,0.699,1.3c-0.199,0.5-0.699,0.8-1.299,0.7c-1.302-0.4-2.802,0.7-3.302,2.4c-0.3,0.899-0.198,1.7,0.101,2.5
			c0.301,0.7,0.801,1.2,1.399,1.3c0.5,0.2,0.802,0.7,0.7,1.3C206.9,38.7,206.5,39,206.1,39z"/>
	</g>
	<g>
		<path d="M230.6,54.3c-0.102,0-0.2,0-0.301,0L205.1,47.6c-0.5-0.1-0.899-0.699-0.7-1.199c0.1-0.5,0.7-0.898,1.2-0.698L230.8,52.4
			c0.5,0.102,0.9,0.699,0.699,1.199C231.5,54,231,54.3,230.6,54.3z"/>
	</g>
	<g>
		<path d="M230.6,54.3c-0.399,0-0.899-0.3-1-0.7c-0.102-0.5,0.199-1.1,0.699-1.199l23.601-6.398c0.5-0.102,1.1,0.2,1.2,0.7
			c0.1,0.5-0.2,1.101-0.7,1.198L230.8,54.3C230.8,54.3,230.701,54.3,230.6,54.3z"/>
	</g>
	<g>
		<path d="M206.1,47.801c-0.102,0-0.2,0-0.301,0c-1.199-0.4-2.1-1.201-2.699-2.5c-0.5-1.201-0.602-2.5-0.2-3.901
			c0.4-1.4,1.2-2.4,2.301-3.1c1.1-0.7,2.399-1,3.6-0.601c0.5,0.2,0.802,0.7,0.699,1.3c-0.199,0.5-0.699,0.8-1.299,0.7
			c-0.601-0.2-1.301-0.1-1.9,0.3c-0.698,0.4-1.198,1.2-1.398,2c-0.3,0.9-0.198,1.699,0.101,2.5c0.302,0.699,0.802,1.199,1.399,1.301
			c0.5,0.199,0.802,0.699,0.7,1.299C206.9,47.5,206.5,47.801,206.1,47.801z"/>
	</g>
	<g>
		<path d="M230.6,63.1c-0.102,0-0.2,0-0.301,0L205.1,56.4c-0.5-0.103-0.899-0.7-0.7-1.2c0.1-0.5,0.7-0.9,1.2-0.7l25.199,6.7
			c0.5,0.1,0.9,0.7,0.699,1.2C231.5,62.8,231.1,63.1,230.6,63.1z"/>
	</g>
	<g>
		<path d="M230.6,63.1c-0.399,0-0.899-0.3-1-0.699c-0.102-0.5,0.199-1.101,0.699-1.198l23.601-6.399c0.5-0.101,1.1,0.199,1.2,0.699
			c0.1,0.5-0.2,1.102-0.7,1.2L230.8,63.1C230.8,63.1,230.701,63.1,230.6,63.1z"/>
	</g>
	<g>
		<path d="M206.1,56.6c-0.102,0-0.2,0-0.301,0c-1.199-0.397-2.1-1.199-2.699-2.5c-0.5-1.199-0.602-2.5-0.2-3.897
			c0.801-2.802,3.5-4.399,5.899-3.7c0.5,0.2,0.801,0.7,0.699,1.301c-0.199,0.5-0.699,0.801-1.299,0.699
			c-1.302-0.398-2.802,0.7-3.302,2.398c-0.3,0.9-0.198,1.699,0.101,2.5c0.301,0.699,0.801,1.199,1.399,1.302
			c0.5,0.198,0.802,0.698,0.7,1.3C207,56.3,206.6,56.6,206.1,56.6z"/>
	</g>
</g>
</svg>
