<?xml version="1.0" encoding="utf-8"?>
<!-- Generator: Adobe Illustrator 16.0.4, SVG Export Plug-In . SVG Version: 6.00 Build 0)  -->
<!DOCTYPE svg PUBLIC "-//W3C//DTD SVG 1.1//EN" "http://www.w3.org/Graphics/SVG/1.1/DTD/svg11.dtd">
<svg version="1.1" id="Ebene_1" xmlns="http://www.w3.org/2000/svg" xmlns:xlink="http://www.w3.org/1999/xlink" x="0px" y="0px"
	 width="389.2px" height="180px" viewBox="0 0 389.2 180" enable-background="new 0 0 389.2 180" xml:space="preserve">
<rect fill="#92D3F5" width="50" height="50"/>
<rect y="49.8" fill="#61B2E4" width="50" height="25"/>
<rect x="100" fill="#EA5A47" width="50" height="50"/>
<rect x="100" y="50" fill="#D22F27" width="50" height="25"/>
<rect x="200" fill="#B1CC33" width="50" height="50"/>
<rect x="200" y="50" fill="#5C9E31" width="50" height="25"/>
<rect x="300" fill="#FCEA2B" width="50" height="50"/>
<rect x="300" y="50" fill="#F1B31C" width="50" height="25"/>
<rect y="105" fill="#D0CFCE" width="50" height="25"/>
<rect y="130" fill="#9B9B9A" width="50" height="25"/>
<rect x="0" y="155" fill="#3F3F3F" width="50" height="25"/>
<text transform="matrix(1 0 0 1 54 7.9648)" font-family="'SourceSansPro-Regular'" font-size="7">#92D3F5</text>
<text transform="matrix(1 0 0 1 54 57.458)" font-family="'SourceSansPro-Regular'" font-size="7">#61B2E4</text>
<text transform="matrix(1 0 0 1 155 7.9648)" font-family="'SourceSansPro-Regular'" font-size="7">#EA5A47</text>
<text transform="matrix(1 0 0 1 155 57.458)" font-family="'SourceSansPro-Regular'" font-size="7">#D22F27</text>
<text transform="matrix(1 0 0 1 255.001 7.9648)" font-family="'SourceSansPro-Regular'" font-size="7">#B1CC33</text>
<text transform="matrix(1 0 0 1 255.001 57.458)" font-family="'SourceSansPro-Regular'" font-size="7">#5C9E31</text>
<text transform="matrix(1 0 0 1 355.002 7.9648)" font-family="'SourceSansPro-Regular'" font-size="7">#FCEA2B</text>
<text transform="matrix(1 0 0 1 355.002 57.458)" font-family="'SourceSansPro-Regular'" font-size="7">#F1B31C</text>
<text transform="matrix(1 0 0 1 54.9995 112.9648)" font-family="'SourceSansPro-Regular'" font-size="7">#D0CFCE</text>
<text transform="matrix(1 0 0 1 54.9995 162.458)" font-family="'SourceSansPro-Regular'" font-size="7">#3F3F3F</text>
<text transform="matrix(1 0 0 1 54.9995 137.7109)" font-family="'SourceSansPro-Regular'" font-size="7">#9B9B9A</text>
</svg>
