<?xml version="1.0" encoding="utf-8"?>
<!-- Generator: Adobe Illustrator 16.0.4, SVG Export Plug-In . SVG Version: 6.00 Build 0)  -->
<!DOCTYPE svg PUBLIC "-//W3C//DTD SVG 1.1//EN" "http://www.w3.org/Graphics/SVG/1.1/DTD/svg11.dtd">
<svg version="1.1" id="Ebene_1" xmlns="http://www.w3.org/2000/svg" xmlns:xlink="http://www.w3.org/1999/xlink" x="0px" y="0px"
	 width="389.2px" height="180px" viewBox="0 0 389.2 180" enable-background="new 0 0 389.2 180" xml:space="preserve">
<g>
	<rect fill="#92D3F5" width="50" height="50"/>
</g>
<g>
	<rect y="49.8" fill="#61B2E4" width="50" height="25"/>
</g>
<g>
	<rect x="100" fill="#EA5A47" width="50" height="50"/>
</g>
<g>
	<rect x="100" y="50" fill="#D22F27" width="50" height="25"/>
</g>
<g>
	<rect x="200" fill="#B1CC33" width="50" height="50"/>
</g>
<g>
	<rect x="200" y="50" fill="#5C9E31" width="50" height="25"/>
</g>
<g>
	<rect x="300" fill="#FCEA2B" width="50" height="50"/>
</g>
<g>
	<rect x="300" y="50" fill="#F1B31C" width="50" height="25"/>
</g>
<g>
	<rect y="105" fill="#D0CFCE" width="50" height="25"/>
</g>
<g>
	<rect y="130" fill="#9B9B9A" width="50" height="25"/>
</g>
<g>
	<rect y="155" fill="#3F3F3F" width="50" height="25"/>
</g>
<g enable-background="new    ">
	<path d="M54.63,7.965l0.175-1.428h-0.56V6.138h0.609l0.126-1.036h-0.595V4.696h0.644l0.161-1.281h0.371L55.4,4.696h0.931
		l0.168-1.281h0.371l-0.168,1.281h0.567v0.405H56.66l-0.126,1.036h0.595v0.399h-0.644L56.31,7.965h-0.371l0.168-1.428h-0.924
		l-0.175,1.428H54.63z M55.232,6.138h0.924l0.126-1.036h-0.924L55.232,6.138z"/>
	<path d="M58.914,8.049c-0.238,0-0.447-0.044-0.626-0.133s-0.33-0.201-0.452-0.336l0.322-0.364c0.093,0.107,0.204,0.193,0.333,0.259
		c0.128,0.065,0.262,0.099,0.402,0.099c0.159,0,0.308-0.033,0.448-0.099c0.14-0.065,0.264-0.174,0.371-0.325
		s0.194-0.349,0.259-0.592c0.065-0.242,0.1-0.543,0.105-0.902c-0.14,0.177-0.304,0.317-0.49,0.42s-0.374,0.153-0.56,0.153
		c-0.387,0-0.695-0.114-0.924-0.343s-0.343-0.574-0.343-1.036c0-0.215,0.035-0.409,0.105-0.584c0.07-0.175,0.165-0.326,0.284-0.452
		s0.259-0.224,0.42-0.294c0.161-0.069,0.33-0.104,0.508-0.104c0.219,0,0.423,0.044,0.612,0.133s0.353,0.223,0.49,0.402
		c0.137,0.18,0.245,0.404,0.322,0.672c0.077,0.269,0.116,0.582,0.116,0.941c0,0.448-0.047,0.83-0.14,1.145
		c-0.093,0.315-0.22,0.572-0.378,0.771c-0.159,0.198-0.34,0.343-0.542,0.434C59.352,8.003,59.138,8.049,58.914,8.049z M59.124,5.795
		c0.149,0,0.307-0.047,0.473-0.14c0.166-0.094,0.321-0.245,0.465-0.455c-0.038-0.438-0.14-0.771-0.308-0.994
		c-0.168-0.225-0.395-0.336-0.679-0.336c-0.107,0-0.209,0.023-0.305,0.069c-0.096,0.047-0.179,0.113-0.249,0.2
		c-0.07,0.086-0.125,0.189-0.165,0.312c-0.04,0.121-0.06,0.254-0.06,0.398c0,0.294,0.068,0.525,0.203,0.693
		S58.844,5.795,59.124,5.795z"/>
	<path d="M61.238,7.965V7.622c0.336-0.336,0.635-0.64,0.896-0.91c0.262-0.271,0.481-0.521,0.658-0.753
		c0.177-0.23,0.312-0.443,0.406-0.637c0.093-0.193,0.14-0.382,0.14-0.563c0-0.257-0.07-0.467-0.21-0.63s-0.353-0.245-0.637-0.245
		c-0.187,0-0.359,0.053-0.518,0.157c-0.159,0.105-0.304,0.232-0.434,0.382L61.21,4.094c0.187-0.205,0.385-0.37,0.595-0.493
		c0.21-0.124,0.462-0.186,0.756-0.186c0.415,0,0.742,0.12,0.98,0.36s0.357,0.559,0.357,0.955c0,0.21-0.045,0.422-0.136,0.634
		c-0.091,0.213-0.217,0.432-0.378,0.658c-0.161,0.227-0.352,0.462-0.574,0.707s-0.465,0.505-0.731,0.78
		c0.121-0.009,0.247-0.019,0.378-0.028c0.13-0.009,0.254-0.014,0.371-0.014h1.295v0.497H61.238z"/>
	<path d="M65.067,7.965V3.373h1.148c0.709,0,1.249,0.195,1.617,0.588c0.369,0.392,0.553,0.954,0.553,1.687
		c0,0.364-0.047,0.689-0.14,0.977c-0.094,0.287-0.231,0.53-0.413,0.729s-0.406,0.35-0.672,0.455
		c-0.266,0.104-0.572,0.157-0.917,0.157H65.067z M65.648,7.489h0.525c0.537,0,0.939-0.161,1.208-0.483
		c0.269-0.322,0.403-0.774,0.403-1.358c0-0.583-0.134-1.028-0.403-1.337c-0.268-0.308-0.671-0.462-1.208-0.462h-0.525V7.489z"/>
	<path d="M70.394,8.049c-0.177,0-0.339-0.018-0.486-0.053s-0.281-0.081-0.402-0.14c-0.122-0.059-0.23-0.125-0.326-0.199
		c-0.096-0.075-0.181-0.154-0.255-0.238l0.294-0.378c0.135,0.14,0.292,0.264,0.473,0.371c0.179,0.107,0.402,0.161,0.668,0.161
		c0.271,0,0.492-0.074,0.665-0.221c0.172-0.147,0.259-0.347,0.259-0.599c0-0.131-0.024-0.251-0.074-0.36
		c-0.049-0.109-0.129-0.204-0.241-0.284c-0.112-0.079-0.259-0.14-0.441-0.182c-0.182-0.042-0.406-0.062-0.672-0.062V5.424
		c0.238,0,0.438-0.021,0.599-0.062c0.161-0.043,0.292-0.101,0.392-0.176c0.1-0.074,0.171-0.163,0.213-0.266s0.063-0.212,0.063-0.329
		c0-0.22-0.069-0.392-0.207-0.518s-0.325-0.189-0.563-0.189c-0.187,0-0.358,0.042-0.514,0.126c-0.157,0.084-0.302,0.193-0.438,0.329
		l-0.308-0.364c0.172-0.163,0.363-0.297,0.57-0.402c0.208-0.104,0.445-0.157,0.71-0.157c0.196,0,0.376,0.025,0.539,0.077
		c0.164,0.051,0.305,0.125,0.423,0.22c0.119,0.096,0.211,0.214,0.277,0.354c0.065,0.141,0.098,0.302,0.098,0.483
		c0,0.271-0.075,0.492-0.224,0.665c-0.149,0.173-0.346,0.306-0.588,0.399v0.027c0.136,0.033,0.262,0.081,0.378,0.144
		c0.116,0.063,0.219,0.143,0.308,0.238c0.089,0.096,0.158,0.206,0.207,0.332c0.049,0.126,0.074,0.267,0.074,0.42
		c0,0.196-0.039,0.374-0.116,0.532c-0.077,0.159-0.182,0.293-0.315,0.402c-0.133,0.11-0.288,0.194-0.465,0.252
		C70.791,8.02,70.599,8.049,70.394,8.049z"/>
	<path d="M72.851,7.965V3.373h2.646v0.49h-2.065v1.554h1.75v0.49h-1.75v2.058H72.851z"/>
	<path d="M77.317,8.049c-0.178,0-0.34-0.018-0.487-0.053s-0.28-0.08-0.399-0.137c-0.119-0.056-0.227-0.119-0.322-0.192
		c-0.096-0.072-0.181-0.147-0.256-0.228l0.28-0.378c0.13,0.136,0.286,0.255,0.465,0.357s0.4,0.154,0.662,0.154
		c0.135,0,0.263-0.024,0.381-0.074c0.119-0.049,0.223-0.117,0.312-0.206c0.089-0.089,0.159-0.196,0.21-0.322s0.077-0.266,0.077-0.42
		c0-0.308-0.086-0.548-0.259-0.721c-0.173-0.173-0.404-0.259-0.693-0.259c-0.154,0-0.286,0.023-0.396,0.069
		c-0.109,0.047-0.232,0.114-0.367,0.203l-0.308-0.196l0.147-2.148h2.233v0.497h-1.729L76.75,5.318
		c0.107-0.056,0.215-0.1,0.322-0.133c0.107-0.032,0.229-0.049,0.364-0.049c0.191,0,0.371,0.028,0.539,0.084s0.315,0.142,0.441,0.256
		s0.225,0.259,0.298,0.434c0.072,0.175,0.108,0.384,0.108,0.627c0,0.242-0.042,0.457-0.126,0.644S78.5,7.525,78.36,7.653
		c-0.14,0.129-0.3,0.227-0.479,0.294C77.701,8.015,77.513,8.049,77.317,8.049z"/>
</g>
<g enable-background="new    ">
	<path d="M54.63,57.457l0.175-1.428h-0.56V55.63h0.609l0.126-1.036h-0.595v-0.405h0.644l0.161-1.281h0.371L55.4,54.188h0.931
		l0.168-1.281h0.371l-0.168,1.281h0.567v0.405H56.66l-0.126,1.036h0.595v0.399h-0.644l-0.175,1.428h-0.371l0.168-1.428h-0.924
		l-0.175,1.428H54.63z M55.232,55.63h0.924l0.126-1.036h-0.924L55.232,55.63z"/>
	<path d="M59.355,57.541c-0.219,0-0.422-0.044-0.609-0.133c-0.187-0.089-0.349-0.223-0.487-0.402s-0.246-0.404-0.325-0.672
		c-0.08-0.269-0.119-0.583-0.119-0.942c0-0.447,0.047-0.829,0.14-1.145c0.093-0.314,0.219-0.571,0.378-0.77s0.339-0.343,0.542-0.434
		c0.203-0.092,0.417-0.137,0.641-0.137c0.243,0,0.451,0.045,0.626,0.137c0.175,0.091,0.325,0.204,0.452,0.339l-0.322,0.357
		c-0.093-0.107-0.204-0.192-0.333-0.256c-0.128-0.062-0.262-0.095-0.402-0.095c-0.154,0-0.301,0.033-0.441,0.099
		c-0.14,0.065-0.264,0.173-0.371,0.321c-0.107,0.149-0.194,0.345-0.259,0.585s-0.1,0.538-0.105,0.893
		c0.14-0.173,0.303-0.31,0.49-0.409c0.187-0.101,0.371-0.151,0.553-0.151c0.388,0,0.697,0.115,0.928,0.344s0.347,0.573,0.347,1.036
		c0,0.214-0.035,0.409-0.105,0.584c-0.07,0.175-0.166,0.325-0.287,0.451c-0.122,0.126-0.262,0.225-0.42,0.294
		C59.708,57.506,59.537,57.541,59.355,57.541z M59.355,57.086c0.112,0,0.215-0.023,0.308-0.07c0.093-0.046,0.175-0.112,0.245-0.199
		c0.07-0.086,0.125-0.188,0.164-0.308c0.04-0.119,0.06-0.253,0.06-0.402c0-0.294-0.067-0.525-0.203-0.693
		c-0.136-0.168-0.343-0.252-0.623-0.252c-0.145,0-0.301,0.045-0.469,0.137c-0.168,0.091-0.322,0.241-0.462,0.451
		c0.037,0.438,0.139,0.771,0.305,0.997C58.845,56.973,59.07,57.086,59.355,57.086z"/>
	<path d="M61.511,57.457v-0.476h1.022v-3.29h-0.812V53.32c0.205-0.037,0.384-0.083,0.535-0.137c0.152-0.054,0.288-0.118,0.41-0.192
		h0.441v3.99h0.924v0.476H61.511z"/>
	<path d="M65.067,57.457v-4.592h1.365c0.233,0,0.447,0.021,0.641,0.062c0.193,0.042,0.359,0.107,0.497,0.196
		s0.245,0.204,0.322,0.347s0.115,0.313,0.115,0.515c0,0.229-0.057,0.435-0.171,0.619s-0.281,0.312-0.5,0.382v0.027
		c0.28,0.052,0.506,0.168,0.679,0.351c0.172,0.182,0.259,0.432,0.259,0.749c0,0.224-0.042,0.42-0.126,0.588s-0.203,0.308-0.357,0.42
		s-0.338,0.196-0.553,0.252c-0.214,0.056-0.45,0.084-0.707,0.084H65.067z M65.648,54.818h0.679c0.392,0,0.674-0.068,0.847-0.203
		c0.173-0.136,0.259-0.319,0.259-0.553c0-0.267-0.09-0.455-0.27-0.567s-0.449-0.168-0.809-0.168h-0.707V54.818z M65.648,56.995
		h0.798c0.397,0,0.705-0.073,0.924-0.221c0.219-0.146,0.329-0.374,0.329-0.683c0-0.284-0.107-0.493-0.322-0.626
		s-0.525-0.2-0.931-0.2h-0.798V56.995z"/>
	<path d="M68.833,57.457v-0.343c0.336-0.336,0.635-0.64,0.896-0.91c0.262-0.271,0.481-0.521,0.658-0.753
		c0.177-0.23,0.312-0.443,0.406-0.637c0.093-0.193,0.14-0.382,0.14-0.563c0-0.257-0.07-0.467-0.21-0.63s-0.353-0.245-0.637-0.245
		c-0.187,0-0.359,0.053-0.518,0.157c-0.159,0.105-0.304,0.232-0.434,0.382l-0.329-0.329c0.187-0.205,0.385-0.37,0.595-0.493
		c0.21-0.124,0.462-0.186,0.756-0.186c0.415,0,0.742,0.12,0.98,0.36s0.357,0.559,0.357,0.955c0,0.21-0.045,0.422-0.136,0.634
		c-0.091,0.213-0.217,0.432-0.378,0.658c-0.161,0.227-0.352,0.462-0.574,0.707s-0.465,0.505-0.731,0.78
		c0.121-0.009,0.247-0.019,0.378-0.028c0.13-0.009,0.254-0.014,0.371-0.014h1.295v0.497H68.833z"/>
	<path d="M72.662,57.457v-4.592h2.646v0.49h-2.065v1.441h1.743v0.497h-1.743v1.666h2.135v0.497H72.662z"/>
	<path d="M77.849,57.457v-1.232H75.84v-0.378l1.911-2.855h0.644v2.771h0.609v0.462h-0.609v1.232H77.849z M76.449,55.763h1.4v-1.295
		c0-0.121,0.003-0.265,0.011-0.431c0.007-0.165,0.015-0.309,0.024-0.43h-0.028c-0.056,0.107-0.114,0.212-0.175,0.314
		s-0.124,0.208-0.189,0.315L76.449,55.763z"/>
</g>
<g enable-background="new    ">
	<path d="M155.63,7.965l0.175-1.428h-0.56V6.138h0.609l0.126-1.036h-0.595V4.696h0.644l0.161-1.281h0.371L156.4,4.696h0.931
		l0.168-1.281h0.371l-0.168,1.281h0.567v0.405h-0.609l-0.126,1.036h0.595v0.399h-0.644l-0.175,1.428h-0.371l0.168-1.428h-0.924
		l-0.175,1.428H155.63z M156.232,6.138h0.924l0.126-1.036h-0.924L156.232,6.138z"/>
	<path d="M159.109,7.965V3.373h2.646v0.49h-2.065v1.441h1.743v0.497h-1.743v1.666h2.135v0.497H159.109z"/>
	<path d="M162.189,7.965l1.554-4.592h0.658l1.554,4.592h-0.623l-0.434-1.4h-1.673l-0.441,1.4H162.189z M163.589,5.396l-0.217,0.7
		h1.379l-0.217-0.7c-0.084-0.256-0.164-0.512-0.238-0.767c-0.075-0.254-0.149-0.514-0.224-0.78h-0.028
		c-0.07,0.267-0.143,0.526-0.217,0.78C163.752,4.884,163.673,5.14,163.589,5.396z"/>
	<path d="M167.614,8.049c-0.178,0-0.34-0.018-0.487-0.053s-0.28-0.08-0.399-0.137c-0.119-0.056-0.227-0.119-0.322-0.192
		c-0.096-0.072-0.181-0.147-0.256-0.228l0.28-0.378c0.13,0.136,0.286,0.255,0.465,0.357s0.4,0.154,0.662,0.154
		c0.135,0,0.263-0.024,0.381-0.074c0.119-0.049,0.223-0.117,0.312-0.206c0.089-0.089,0.159-0.196,0.21-0.322s0.077-0.266,0.077-0.42
		c0-0.308-0.086-0.548-0.259-0.721c-0.173-0.173-0.404-0.259-0.693-0.259c-0.154,0-0.286,0.023-0.396,0.069
		c-0.109,0.047-0.232,0.114-0.367,0.203l-0.308-0.196l0.147-2.148h2.233v0.497h-1.729l-0.119,1.322
		c0.107-0.056,0.215-0.1,0.322-0.133c0.107-0.032,0.229-0.049,0.364-0.049c0.191,0,0.371,0.028,0.539,0.084s0.315,0.142,0.441,0.256
		s0.225,0.259,0.298,0.434c0.072,0.175,0.108,0.384,0.108,0.627c0,0.242-0.042,0.457-0.126,0.644s-0.196,0.345-0.336,0.473
		c-0.14,0.129-0.3,0.227-0.479,0.294C167.998,8.015,167.81,8.049,167.614,8.049z"/>
	<path d="M169.476,7.965l1.554-4.592h0.658l1.554,4.592h-0.623l-0.434-1.4h-1.673l-0.441,1.4H169.476z M170.875,5.396l-0.217,0.7
		h1.379l-0.217-0.7c-0.084-0.256-0.164-0.512-0.238-0.767c-0.075-0.254-0.149-0.514-0.224-0.78h-0.028
		c-0.07,0.267-0.143,0.526-0.217,0.78C171.039,4.884,170.959,5.14,170.875,5.396z"/>
	<path d="M175.391,7.965V6.732h-2.009V6.354l1.911-2.855h0.644v2.771h0.609v0.462h-0.609v1.232H175.391z M173.991,6.271h1.4V4.976
		c0-0.121,0.003-0.265,0.011-0.431c0.007-0.165,0.015-0.309,0.024-0.43h-0.028c-0.056,0.107-0.114,0.212-0.175,0.314
		s-0.124,0.208-0.189,0.315L173.991,6.271z"/>
	<path d="M177.98,7.965c0.019-0.42,0.056-0.805,0.112-1.155c0.056-0.35,0.134-0.683,0.234-0.997c0.101-0.315,0.229-0.62,0.385-0.914
		c0.156-0.294,0.344-0.595,0.563-0.902h-2.226V3.499h2.877v0.356c-0.266,0.336-0.482,0.658-0.647,0.967
		c-0.166,0.308-0.297,0.621-0.396,0.941c-0.098,0.319-0.169,0.657-0.213,1.015c-0.044,0.357-0.076,0.753-0.095,1.187H177.98z"/>
</g>
<g enable-background="new    ">
	<path d="M155.63,57.457l0.175-1.428h-0.56V55.63h0.609l0.126-1.036h-0.595v-0.405h0.644l0.161-1.281h0.371l-0.161,1.281h0.931
		l0.168-1.281h0.371l-0.168,1.281h0.567v0.405h-0.609l-0.126,1.036h0.595v0.399h-0.644l-0.175,1.428h-0.371l0.168-1.428h-0.924
		l-0.175,1.428H155.63z M156.232,55.63h0.924l0.126-1.036h-0.924L156.232,55.63z"/>
	<path d="M159.109,57.457v-4.592h1.148c0.709,0,1.249,0.195,1.617,0.588c0.369,0.392,0.553,0.954,0.553,1.687
		c0,0.364-0.047,0.689-0.14,0.977c-0.094,0.287-0.231,0.53-0.413,0.729s-0.406,0.35-0.672,0.455
		c-0.266,0.104-0.572,0.157-0.917,0.157H159.109z M159.69,56.981h0.525c0.537,0,0.939-0.161,1.208-0.483
		c0.269-0.322,0.403-0.774,0.403-1.358c0-0.583-0.134-1.028-0.403-1.337c-0.268-0.308-0.671-0.462-1.208-0.462h-0.525V56.981z"/>
	<path d="M163.063,57.457v-0.343c0.336-0.336,0.635-0.64,0.896-0.91c0.262-0.271,0.481-0.521,0.658-0.753
		c0.177-0.23,0.312-0.443,0.406-0.637c0.093-0.193,0.14-0.382,0.14-0.563c0-0.257-0.07-0.467-0.21-0.63s-0.353-0.245-0.637-0.245
		c-0.187,0-0.359,0.053-0.518,0.157c-0.159,0.105-0.304,0.232-0.434,0.382l-0.329-0.329c0.187-0.205,0.385-0.37,0.595-0.493
		c0.21-0.124,0.462-0.186,0.756-0.186c0.415,0,0.742,0.12,0.98,0.36s0.357,0.559,0.357,0.955c0,0.21-0.045,0.422-0.136,0.634
		c-0.091,0.213-0.217,0.432-0.378,0.658c-0.161,0.227-0.352,0.462-0.574,0.707s-0.465,0.505-0.731,0.78
		c0.121-0.009,0.247-0.019,0.378-0.028c0.13-0.009,0.254-0.014,0.371-0.014h1.295v0.497H163.063z"/>
	<path d="M166.542,57.457v-0.343c0.336-0.336,0.635-0.64,0.896-0.91c0.262-0.271,0.481-0.521,0.658-0.753
		c0.177-0.23,0.312-0.443,0.406-0.637c0.093-0.193,0.14-0.382,0.14-0.563c0-0.257-0.07-0.467-0.21-0.63s-0.353-0.245-0.637-0.245
		c-0.187,0-0.359,0.053-0.518,0.157c-0.159,0.105-0.304,0.232-0.434,0.382l-0.329-0.329c0.187-0.205,0.385-0.37,0.595-0.493
		c0.21-0.124,0.462-0.186,0.756-0.186c0.415,0,0.742,0.12,0.98,0.36s0.357,0.559,0.357,0.955c0,0.21-0.045,0.422-0.136,0.634
		c-0.091,0.213-0.217,0.432-0.378,0.658c-0.161,0.227-0.352,0.462-0.574,0.707s-0.465,0.505-0.731,0.78
		c0.121-0.009,0.247-0.019,0.378-0.028c0.13-0.009,0.254-0.014,0.371-0.014h1.295v0.497H166.542z"/>
	<path d="M170.372,57.457v-4.592h2.646v0.49h-2.065v1.554h1.75v0.49h-1.75v2.058H170.372z"/>
	<path d="M173.479,57.457v-0.343c0.336-0.336,0.635-0.64,0.896-0.91c0.262-0.271,0.481-0.521,0.658-0.753
		c0.177-0.23,0.312-0.443,0.406-0.637c0.093-0.193,0.14-0.382,0.14-0.563c0-0.257-0.07-0.467-0.21-0.63s-0.353-0.245-0.637-0.245
		c-0.187,0-0.359,0.053-0.518,0.157c-0.159,0.105-0.304,0.232-0.434,0.382l-0.329-0.329c0.187-0.205,0.385-0.37,0.595-0.493
		c0.21-0.124,0.462-0.186,0.756-0.186c0.415,0,0.742,0.12,0.98,0.36s0.357,0.559,0.357,0.955c0,0.21-0.045,0.422-0.136,0.634
		c-0.091,0.213-0.217,0.432-0.378,0.658c-0.161,0.227-0.352,0.462-0.574,0.707s-0.465,0.505-0.731,0.78
		c0.121-0.009,0.247-0.019,0.378-0.028c0.13-0.009,0.254-0.014,0.371-0.014h1.295v0.497H173.479z"/>
	<path d="M177.917,57.457c0.019-0.42,0.056-0.805,0.112-1.155c0.056-0.35,0.134-0.683,0.234-0.997
		c0.101-0.315,0.229-0.62,0.385-0.914c0.156-0.294,0.344-0.595,0.563-0.902h-2.226v-0.497h2.877v0.356
		c-0.266,0.336-0.482,0.658-0.647,0.967c-0.166,0.308-0.297,0.621-0.396,0.941c-0.098,0.319-0.169,0.657-0.213,1.015
		c-0.044,0.357-0.076,0.753-0.095,1.187H177.917z"/>
</g>
<g enable-background="new    ">
	<path d="M255.631,7.965l0.175-1.428h-0.56V6.138h0.608l0.126-1.036h-0.596V4.696h0.645l0.161-1.281h0.371l-0.161,1.281h0.932
		l0.168-1.281h0.371l-0.168,1.281h0.566v0.405h-0.609l-0.125,1.036h0.594v0.399h-0.644l-0.175,1.428h-0.371l0.168-1.428h-0.924
		l-0.176,1.428H255.631z M256.233,6.138h0.924l0.127-1.036h-0.925L256.233,6.138z"/>
	<path d="M259.11,7.965V3.373h1.365c0.233,0,0.447,0.021,0.641,0.062s0.359,0.107,0.496,0.196c0.139,0.089,0.246,0.204,0.322,0.347
		c0.078,0.143,0.115,0.313,0.115,0.515c0,0.229-0.057,0.435-0.171,0.619s-0.281,0.312-0.501,0.382v0.027
		c0.281,0.052,0.507,0.168,0.68,0.351c0.172,0.182,0.259,0.432,0.259,0.749c0,0.224-0.042,0.42-0.126,0.588s-0.203,0.308-0.357,0.42
		c-0.153,0.112-0.338,0.196-0.553,0.252s-0.45,0.084-0.707,0.084H259.11z M259.691,5.326h0.679c0.393,0,0.675-0.068,0.848-0.203
		c0.172-0.136,0.259-0.319,0.259-0.553c0-0.267-0.09-0.455-0.27-0.567s-0.449-0.168-0.809-0.168h-0.707V5.326z M259.691,7.503h0.798
		c0.396,0,0.705-0.073,0.924-0.221c0.22-0.146,0.33-0.374,0.33-0.683c0-0.284-0.107-0.493-0.322-0.626s-0.525-0.2-0.932-0.2h-0.798
		V7.503z"/>
	<path d="M263.149,7.965V7.489h1.021v-3.29h-0.812V3.828c0.205-0.037,0.384-0.083,0.535-0.137s0.288-0.118,0.409-0.192h0.441v3.99
		h0.924v0.476H263.149z"/>
	<path d="M268.441,8.049c-0.29,0-0.556-0.054-0.798-0.161c-0.243-0.107-0.454-0.263-0.634-0.466c-0.18-0.202-0.319-0.452-0.42-0.748
		c-0.101-0.297-0.151-0.632-0.151-1.005c0-0.369,0.053-0.7,0.154-0.994c0.104-0.294,0.246-0.544,0.428-0.749
		s0.396-0.362,0.644-0.473c0.247-0.109,0.519-0.164,0.812-0.164c0.281,0,0.527,0.057,0.739,0.171
		c0.212,0.115,0.386,0.247,0.521,0.396l-0.315,0.378c-0.121-0.13-0.259-0.235-0.412-0.314c-0.154-0.079-0.33-0.119-0.525-0.119
		c-0.22,0-0.418,0.043-0.596,0.13c-0.177,0.086-0.328,0.21-0.455,0.371c-0.125,0.16-0.223,0.355-0.29,0.584
		s-0.102,0.485-0.102,0.771c0,0.289,0.034,0.549,0.102,0.78c0.067,0.23,0.162,0.428,0.284,0.591c0.121,0.164,0.27,0.29,0.443,0.379
		c0.176,0.088,0.373,0.133,0.592,0.133c0.225,0,0.42-0.046,0.588-0.137s0.327-0.218,0.477-0.382l0.322,0.364
		c-0.183,0.21-0.388,0.373-0.616,0.49C269.002,7.99,268.739,8.049,268.441,8.049z"/>
	<path d="M272.235,8.049c-0.289,0-0.555-0.054-0.798-0.161s-0.454-0.263-0.634-0.466c-0.18-0.202-0.319-0.452-0.42-0.748
		c-0.1-0.297-0.15-0.632-0.15-1.005c0-0.369,0.052-0.7,0.154-0.994s0.245-0.544,0.427-0.749c0.183-0.205,0.397-0.362,0.644-0.473
		c0.248-0.109,0.519-0.164,0.812-0.164c0.28,0,0.526,0.057,0.738,0.171c0.213,0.115,0.387,0.247,0.521,0.396l-0.314,0.378
		c-0.121-0.13-0.26-0.235-0.413-0.314c-0.154-0.079-0.329-0.119-0.524-0.119c-0.221,0-0.418,0.043-0.596,0.13
		c-0.178,0.086-0.329,0.21-0.455,0.371c-0.126,0.16-0.223,0.355-0.291,0.584c-0.066,0.229-0.102,0.485-0.102,0.771
		c0,0.289,0.035,0.549,0.102,0.78c0.068,0.23,0.162,0.428,0.284,0.591c0.121,0.164,0.27,0.29,0.444,0.379
		c0.176,0.088,0.372,0.133,0.592,0.133c0.224,0,0.42-0.046,0.588-0.137s0.326-0.218,0.477-0.382l0.321,0.364
		c-0.183,0.21-0.388,0.373-0.616,0.49C272.797,7.99,272.534,8.049,272.235,8.049z"/>
	<path d="M275.518,8.049c-0.178,0-0.34-0.018-0.486-0.053c-0.147-0.035-0.281-0.081-0.402-0.14c-0.122-0.059-0.23-0.125-0.326-0.199
		c-0.096-0.075-0.181-0.154-0.256-0.238l0.295-0.378c0.135,0.14,0.292,0.264,0.473,0.371c0.179,0.107,0.402,0.161,0.668,0.161
		c0.271,0,0.492-0.074,0.665-0.221c0.173-0.147,0.259-0.347,0.259-0.599c0-0.131-0.024-0.251-0.074-0.36
		c-0.049-0.109-0.129-0.204-0.24-0.284c-0.113-0.079-0.26-0.14-0.441-0.182s-0.406-0.062-0.672-0.062V5.424
		c0.238,0,0.438-0.021,0.598-0.062c0.162-0.043,0.292-0.101,0.393-0.176c0.1-0.074,0.172-0.163,0.213-0.266
		c0.043-0.103,0.063-0.212,0.063-0.329c0-0.22-0.069-0.392-0.206-0.518c-0.139-0.126-0.326-0.189-0.564-0.189
		c-0.186,0-0.357,0.042-0.514,0.126s-0.303,0.193-0.438,0.329l-0.309-0.364c0.173-0.163,0.363-0.297,0.57-0.402
		c0.208-0.104,0.445-0.157,0.711-0.157c0.196,0,0.376,0.025,0.539,0.077c0.164,0.051,0.305,0.125,0.424,0.22
		c0.119,0.096,0.211,0.214,0.276,0.354c0.065,0.141,0.098,0.302,0.098,0.483c0,0.271-0.075,0.492-0.224,0.665
		c-0.149,0.173-0.346,0.306-0.588,0.399v0.027c0.135,0.033,0.262,0.081,0.378,0.144c0.116,0.063,0.22,0.143,0.308,0.238
		c0.089,0.096,0.158,0.206,0.207,0.332s0.073,0.267,0.073,0.42c0,0.196-0.038,0.374-0.116,0.532
		c-0.076,0.159-0.182,0.293-0.314,0.402c-0.133,0.11-0.288,0.194-0.465,0.252C275.915,8.02,275.723,8.049,275.518,8.049z"/>
	<path d="M278.997,8.049c-0.178,0-0.34-0.018-0.486-0.053s-0.281-0.081-0.402-0.14s-0.23-0.125-0.326-0.199
		c-0.096-0.075-0.18-0.154-0.255-0.238l0.294-0.378c0.135,0.14,0.293,0.264,0.473,0.371s0.402,0.161,0.668,0.161
		c0.271,0,0.492-0.074,0.666-0.221c0.172-0.147,0.258-0.347,0.258-0.599c0-0.131-0.023-0.251-0.073-0.36
		c-0.049-0.109-0.13-0.204-0.241-0.284c-0.112-0.079-0.26-0.14-0.441-0.182s-0.406-0.062-0.672-0.062V5.424
		c0.238,0,0.438-0.021,0.599-0.062c0.161-0.043,0.292-0.101,0.392-0.176c0.101-0.074,0.172-0.163,0.214-0.266
		s0.063-0.212,0.063-0.329c0-0.22-0.069-0.392-0.207-0.518s-0.325-0.189-0.563-0.189c-0.187,0-0.358,0.042-0.515,0.126
		s-0.302,0.193-0.438,0.329l-0.308-0.364c0.173-0.163,0.362-0.297,0.57-0.402c0.208-0.104,0.444-0.157,0.71-0.157
		c0.197,0,0.377,0.025,0.539,0.077c0.164,0.051,0.305,0.125,0.424,0.22c0.119,0.096,0.211,0.214,0.277,0.354
		c0.064,0.141,0.098,0.302,0.098,0.483c0,0.271-0.075,0.492-0.225,0.665c-0.148,0.173-0.346,0.306-0.588,0.399v0.027
		c0.136,0.033,0.262,0.081,0.379,0.144c0.115,0.063,0.219,0.143,0.307,0.238c0.09,0.096,0.158,0.206,0.207,0.332
		s0.074,0.267,0.074,0.42c0,0.196-0.039,0.374-0.116,0.532c-0.077,0.159-0.182,0.293-0.315,0.402
		c-0.133,0.11-0.287,0.194-0.465,0.252C279.393,8.02,279.202,8.049,278.997,8.049z"/>
</g>
<g enable-background="new    ">
	<path d="M255.631,57.457l0.175-1.428h-0.56V55.63h0.608l0.126-1.036h-0.596v-0.405h0.645l0.161-1.281h0.371l-0.161,1.281h0.932
		l0.168-1.281h0.371l-0.168,1.281h0.566v0.405h-0.609l-0.125,1.036h0.594v0.399h-0.644l-0.175,1.428h-0.371l0.168-1.428h-0.924
		l-0.176,1.428H255.631z M256.233,55.63h0.924l0.127-1.036h-0.925L256.233,55.63z"/>
	<path d="M260.118,57.541c-0.178,0-0.34-0.018-0.486-0.053s-0.279-0.08-0.398-0.137c-0.119-0.056-0.227-0.119-0.322-0.192
		c-0.096-0.072-0.182-0.147-0.256-0.228l0.28-0.378c0.13,0.136,0.286,0.255,0.466,0.357s0.4,0.154,0.661,0.154
		c0.136,0,0.263-0.024,0.382-0.074c0.119-0.049,0.223-0.117,0.311-0.206c0.09-0.089,0.159-0.196,0.211-0.322
		c0.051-0.126,0.076-0.266,0.076-0.42c0-0.308-0.086-0.548-0.258-0.721c-0.174-0.173-0.404-0.259-0.693-0.259
		c-0.154,0-0.286,0.023-0.396,0.069c-0.109,0.047-0.231,0.114-0.367,0.203l-0.308-0.196l0.147-2.148h2.232v0.497h-1.729
		l-0.119,1.322c0.107-0.056,0.215-0.1,0.322-0.133c0.107-0.032,0.229-0.049,0.363-0.049c0.191,0,0.371,0.028,0.539,0.084
		s0.314,0.142,0.441,0.256c0.125,0.114,0.225,0.259,0.297,0.434s0.109,0.384,0.109,0.627c0,0.242-0.043,0.457-0.127,0.644
		s-0.195,0.345-0.336,0.473c-0.14,0.129-0.3,0.227-0.479,0.294C260.502,57.507,260.314,57.541,260.118,57.541z"/>
	<path d="M264.325,57.541c-0.289,0-0.555-0.054-0.798-0.161s-0.454-0.263-0.634-0.466c-0.18-0.202-0.319-0.452-0.42-0.748
		c-0.1-0.297-0.15-0.632-0.15-1.005c0-0.369,0.052-0.7,0.154-0.994s0.245-0.544,0.427-0.749c0.183-0.205,0.397-0.362,0.644-0.473
		c0.248-0.109,0.519-0.164,0.812-0.164c0.28,0,0.526,0.057,0.738,0.171c0.213,0.115,0.387,0.247,0.521,0.396l-0.314,0.378
		c-0.121-0.13-0.26-0.235-0.413-0.314c-0.154-0.079-0.329-0.119-0.524-0.119c-0.221,0-0.418,0.043-0.596,0.13
		c-0.178,0.086-0.329,0.21-0.455,0.371c-0.126,0.16-0.223,0.355-0.291,0.584c-0.066,0.229-0.102,0.485-0.102,0.771
		c0,0.289,0.035,0.549,0.102,0.78c0.068,0.23,0.162,0.428,0.284,0.591c0.121,0.164,0.27,0.29,0.444,0.379
		c0.176,0.088,0.372,0.133,0.592,0.133c0.224,0,0.42-0.046,0.588-0.137s0.326-0.218,0.477-0.382l0.321,0.364
		c-0.183,0.21-0.388,0.373-0.616,0.49C264.887,57.482,264.624,57.541,264.325,57.541z"/>
	<path d="M267.391,57.541c-0.238,0-0.447-0.044-0.627-0.133s-0.33-0.201-0.451-0.336l0.322-0.364
		c0.094,0.107,0.204,0.193,0.332,0.259c0.129,0.065,0.263,0.099,0.402,0.099c0.159,0,0.309-0.033,0.448-0.099
		s0.264-0.174,0.371-0.325s0.194-0.349,0.259-0.592c0.065-0.242,0.101-0.543,0.105-0.902c-0.141,0.177-0.304,0.317-0.49,0.42
		s-0.373,0.153-0.561,0.153c-0.387,0-0.695-0.114-0.924-0.343s-0.343-0.574-0.343-1.036c0-0.215,0.035-0.409,0.104-0.584
		c0.07-0.175,0.165-0.326,0.284-0.452s0.259-0.224,0.42-0.294c0.161-0.069,0.33-0.104,0.508-0.104c0.22,0,0.423,0.044,0.612,0.133
		s0.353,0.223,0.49,0.402c0.137,0.18,0.244,0.404,0.322,0.672c0.076,0.269,0.115,0.582,0.115,0.941c0,0.448-0.047,0.83-0.141,1.145
		c-0.093,0.315-0.219,0.572-0.377,0.771c-0.159,0.198-0.34,0.343-0.543,0.434S267.616,57.541,267.391,57.541z M267.601,55.287
		c0.149,0,0.307-0.047,0.473-0.14c0.165-0.094,0.321-0.245,0.466-0.455c-0.038-0.438-0.141-0.771-0.309-0.994
		c-0.168-0.225-0.395-0.336-0.679-0.336c-0.107,0-0.209,0.023-0.305,0.069c-0.096,0.047-0.179,0.113-0.249,0.2
		c-0.069,0.086-0.125,0.189-0.164,0.312c-0.039,0.121-0.06,0.254-0.06,0.398c0,0.294,0.067,0.525,0.203,0.693
		S267.321,55.287,267.601,55.287z"/>
	<path d="M270.065,57.457v-4.592h2.646v0.49h-2.065v1.441h1.743v0.497h-1.743v1.666h2.136v0.497H270.065z"/>
	<path d="M274.776,57.541c-0.178,0-0.34-0.018-0.486-0.053s-0.281-0.081-0.402-0.14s-0.23-0.125-0.326-0.199
		c-0.096-0.075-0.18-0.154-0.255-0.238l0.294-0.378c0.135,0.14,0.293,0.264,0.473,0.371s0.402,0.161,0.668,0.161
		c0.271,0,0.492-0.074,0.666-0.221c0.172-0.147,0.258-0.347,0.258-0.599c0-0.131-0.023-0.251-0.073-0.36
		c-0.049-0.109-0.13-0.204-0.241-0.284c-0.112-0.079-0.26-0.14-0.441-0.182s-0.406-0.062-0.672-0.062v-0.441
		c0.238,0,0.438-0.021,0.599-0.062c0.161-0.043,0.292-0.101,0.392-0.176c0.101-0.074,0.172-0.163,0.214-0.266
		s0.063-0.212,0.063-0.329c0-0.22-0.069-0.392-0.207-0.518s-0.325-0.189-0.563-0.189c-0.187,0-0.358,0.042-0.515,0.126
		s-0.302,0.193-0.438,0.329l-0.308-0.364c0.173-0.163,0.362-0.297,0.57-0.402c0.208-0.104,0.444-0.157,0.71-0.157
		c0.197,0,0.377,0.025,0.539,0.077c0.164,0.051,0.305,0.125,0.424,0.22c0.119,0.096,0.211,0.214,0.277,0.354
		c0.064,0.141,0.098,0.302,0.098,0.483c0,0.271-0.075,0.492-0.225,0.665c-0.148,0.173-0.346,0.306-0.588,0.399v0.027
		c0.136,0.033,0.262,0.081,0.379,0.144c0.115,0.063,0.219,0.143,0.307,0.238c0.09,0.096,0.158,0.206,0.207,0.332
		s0.074,0.267,0.074,0.42c0,0.196-0.039,0.374-0.116,0.532c-0.077,0.159-0.182,0.293-0.315,0.402
		c-0.133,0.11-0.287,0.194-0.465,0.252C275.172,57.512,274.981,57.541,274.776,57.541z"/>
	<path d="M277.156,57.457v-0.476h1.022v-3.29h-0.812V53.32c0.205-0.037,0.384-0.083,0.535-0.137c0.152-0.054,0.288-0.118,0.41-0.192
		h0.44v3.99h0.925v0.476H277.156z"/>
</g>
<g enable-background="new    ">
	<path d="M355.631,7.965l0.176-1.428h-0.561V6.138h0.609l0.126-1.036h-0.595V4.696h0.644l0.161-1.281h0.371l-0.161,1.281h0.931
		l0.168-1.281h0.371l-0.168,1.281h0.567v0.405h-0.608l-0.127,1.036h0.596v0.399h-0.645l-0.175,1.428h-0.371l0.168-1.428h-0.924
		l-0.175,1.428H355.631z M356.234,6.138h0.924l0.126-1.036h-0.924L356.234,6.138z"/>
	<path d="M359.111,7.965V3.373h2.646v0.49h-2.064v1.554h1.75v0.49h-1.75v2.058H359.111z"/>
	<path d="M364.235,8.049c-0.289,0-0.556-0.054-0.799-0.161c-0.242-0.107-0.453-0.263-0.633-0.466c-0.18-0.202-0.32-0.452-0.42-0.748
		c-0.101-0.297-0.15-0.632-0.15-1.005c0-0.369,0.051-0.7,0.154-0.994c0.102-0.294,0.244-0.544,0.426-0.749
		c0.183-0.205,0.397-0.362,0.645-0.473c0.248-0.109,0.518-0.164,0.812-0.164c0.279,0,0.525,0.057,0.738,0.171
		c0.212,0.115,0.386,0.247,0.521,0.396l-0.314,0.378c-0.122-0.13-0.26-0.235-0.414-0.314S364.473,3.8,364.277,3.8
		c-0.22,0-0.418,0.043-0.595,0.13c-0.178,0.086-0.33,0.21-0.455,0.371c-0.127,0.16-0.223,0.355-0.291,0.584
		c-0.067,0.229-0.102,0.485-0.102,0.771c0,0.289,0.034,0.549,0.102,0.78c0.068,0.23,0.162,0.428,0.283,0.591
		c0.121,0.164,0.27,0.29,0.445,0.379c0.175,0.088,0.371,0.133,0.592,0.133c0.223,0,0.42-0.046,0.588-0.137s0.326-0.218,0.476-0.382
		l0.321,0.364c-0.182,0.21-0.387,0.373-0.615,0.49C364.797,7.99,364.534,8.049,364.235,8.049z"/>
	<path d="M366.496,7.965V3.373h2.646v0.49h-2.064v1.441h1.743v0.497h-1.743v1.666h2.135v0.497H366.496z"/>
	<path d="M369.576,7.965l1.554-4.592h0.658l1.555,4.592h-0.623l-0.435-1.4h-1.673l-0.441,1.4H369.576z M370.975,5.396l-0.217,0.7
		h1.379l-0.217-0.7c-0.084-0.256-0.163-0.512-0.238-0.767c-0.074-0.254-0.148-0.514-0.224-0.78h-0.028
		c-0.069,0.267-0.143,0.526-0.217,0.78C371.139,4.884,371.059,5.14,370.975,5.396z"/>
	<path d="M373.643,7.965V7.622c0.336-0.336,0.635-0.64,0.896-0.91c0.262-0.271,0.481-0.521,0.658-0.753
		c0.177-0.23,0.312-0.443,0.406-0.637c0.093-0.193,0.14-0.382,0.14-0.563c0-0.257-0.07-0.467-0.21-0.63s-0.353-0.245-0.637-0.245
		c-0.187,0-0.359,0.053-0.519,0.157c-0.158,0.105-0.303,0.232-0.434,0.382l-0.329-0.329c0.187-0.205,0.386-0.37,0.595-0.493
		c0.211-0.124,0.463-0.186,0.756-0.186c0.416,0,0.742,0.12,0.98,0.36s0.357,0.559,0.357,0.955c0,0.21-0.046,0.422-0.137,0.634
		c-0.092,0.213-0.217,0.432-0.379,0.658c-0.16,0.227-0.352,0.462-0.573,0.707s-0.466,0.505-0.731,0.78
		c0.121-0.009,0.247-0.019,0.378-0.028c0.13-0.009,0.255-0.014,0.371-0.014h1.295v0.497H373.643z"/>
	<path d="M377.471,7.965V3.373h1.365c0.234,0,0.447,0.021,0.641,0.062s0.359,0.107,0.497,0.196s0.245,0.204,0.322,0.347
		s0.115,0.313,0.115,0.515c0,0.229-0.058,0.435-0.171,0.619c-0.115,0.185-0.281,0.312-0.501,0.382v0.027
		c0.28,0.052,0.507,0.168,0.679,0.351c0.173,0.182,0.26,0.432,0.26,0.749c0,0.224-0.043,0.42-0.127,0.588s-0.203,0.308-0.356,0.42
		s-0.339,0.196-0.554,0.252c-0.214,0.056-0.449,0.084-0.707,0.084H377.471z M378.053,5.326h0.679c0.392,0,0.675-0.068,0.847-0.203
		c0.173-0.136,0.26-0.319,0.26-0.553c0-0.267-0.09-0.455-0.27-0.567s-0.449-0.168-0.809-0.168h-0.707V5.326z M378.053,7.503h0.797
		c0.397,0,0.705-0.073,0.925-0.221c0.22-0.146,0.329-0.374,0.329-0.683c0-0.284-0.107-0.493-0.322-0.626s-0.525-0.2-0.932-0.2
		h-0.797V7.503z"/>
</g>
<g enable-background="new    ">
	<path d="M355.631,57.457l0.176-1.428h-0.561V55.63h0.609l0.126-1.036h-0.595v-0.405h0.644l0.161-1.281h0.371l-0.161,1.281h0.931
		l0.168-1.281h0.371l-0.168,1.281h0.567v0.405h-0.608l-0.127,1.036h0.596v0.399h-0.645l-0.175,1.428h-0.371l0.168-1.428h-0.924
		l-0.175,1.428H355.631z M356.234,55.63h0.924l0.126-1.036h-0.924L356.234,55.63z"/>
	<path d="M359.111,57.457v-4.592h2.646v0.49h-2.064v1.554h1.75v0.49h-1.75v2.058H359.111z"/>
	<path d="M362.493,57.457v-0.476h1.021v-3.29h-0.812V53.32c0.205-0.037,0.385-0.083,0.535-0.137c0.152-0.054,0.289-0.118,0.41-0.192
		h0.441v3.99h0.924v0.476H362.493z"/>
	<path d="M366.047,57.457v-4.592h1.365c0.234,0,0.447,0.021,0.641,0.062s0.359,0.107,0.497,0.196s0.245,0.204,0.322,0.347
		s0.115,0.313,0.115,0.515c0,0.229-0.058,0.435-0.171,0.619c-0.115,0.185-0.281,0.312-0.501,0.382v0.027
		c0.28,0.052,0.507,0.168,0.679,0.351c0.173,0.182,0.26,0.432,0.26,0.749c0,0.224-0.043,0.42-0.127,0.588s-0.203,0.308-0.356,0.42
		s-0.339,0.196-0.554,0.252c-0.214,0.056-0.449,0.084-0.707,0.084H366.047z M366.629,54.818h0.679c0.392,0,0.675-0.068,0.847-0.203
		c0.173-0.136,0.26-0.319,0.26-0.553c0-0.267-0.09-0.455-0.27-0.567s-0.449-0.168-0.809-0.168h-0.707V54.818z M366.629,56.995h0.797
		c0.397,0,0.705-0.073,0.925-0.221c0.22-0.146,0.329-0.374,0.329-0.683c0-0.284-0.107-0.493-0.322-0.626s-0.525-0.2-0.932-0.2
		h-0.797V56.995z"/>
	<path d="M371.186,57.541c-0.178,0-0.34-0.018-0.486-0.053c-0.147-0.035-0.281-0.081-0.402-0.14
		c-0.122-0.059-0.23-0.125-0.326-0.199c-0.096-0.075-0.181-0.154-0.256-0.238l0.295-0.378c0.135,0.14,0.292,0.264,0.473,0.371
		c0.179,0.107,0.402,0.161,0.668,0.161c0.271,0,0.492-0.074,0.665-0.221c0.173-0.147,0.259-0.347,0.259-0.599
		c0-0.131-0.024-0.251-0.074-0.36c-0.049-0.109-0.129-0.204-0.24-0.284c-0.113-0.079-0.26-0.14-0.441-0.182
		s-0.406-0.062-0.672-0.062v-0.441c0.238,0,0.438-0.021,0.598-0.062c0.162-0.043,0.292-0.101,0.393-0.176
		c0.1-0.074,0.172-0.163,0.213-0.266c0.043-0.103,0.063-0.212,0.063-0.329c0-0.22-0.069-0.392-0.206-0.518
		c-0.139-0.126-0.326-0.189-0.564-0.189c-0.186,0-0.357,0.042-0.514,0.126s-0.303,0.193-0.438,0.329l-0.309-0.364
		c0.173-0.163,0.363-0.297,0.57-0.402c0.208-0.104,0.445-0.157,0.711-0.157c0.196,0,0.376,0.025,0.539,0.077
		c0.164,0.051,0.305,0.125,0.424,0.22c0.119,0.096,0.211,0.214,0.276,0.354c0.065,0.141,0.098,0.302,0.098,0.483
		c0,0.271-0.075,0.492-0.224,0.665c-0.149,0.173-0.346,0.306-0.588,0.399v0.027c0.135,0.033,0.262,0.081,0.378,0.144
		c0.116,0.063,0.22,0.143,0.308,0.238c0.089,0.096,0.158,0.206,0.207,0.332s0.073,0.267,0.073,0.42c0,0.196-0.038,0.374-0.116,0.532
		c-0.076,0.159-0.182,0.293-0.314,0.402c-0.133,0.11-0.288,0.194-0.465,0.252C371.583,57.512,371.391,57.541,371.186,57.541z"/>
	<path d="M373.566,57.457v-0.476h1.022v-3.29h-0.812V53.32c0.205-0.037,0.384-0.083,0.535-0.137c0.152-0.054,0.288-0.118,0.41-0.192
		h0.44v3.99h0.925v0.476H373.566z"/>
	<path d="M378.858,57.541c-0.289,0-0.556-0.054-0.799-0.161c-0.242-0.107-0.453-0.263-0.633-0.466
		c-0.18-0.202-0.32-0.452-0.42-0.748c-0.101-0.297-0.15-0.632-0.15-1.005c0-0.369,0.051-0.7,0.154-0.994
		c0.102-0.294,0.244-0.544,0.426-0.749c0.183-0.205,0.397-0.362,0.645-0.473c0.248-0.109,0.518-0.164,0.812-0.164
		c0.279,0,0.525,0.057,0.738,0.171c0.212,0.115,0.386,0.247,0.521,0.396l-0.314,0.378c-0.122-0.13-0.26-0.235-0.414-0.314
		s-0.328-0.119-0.524-0.119c-0.22,0-0.418,0.043-0.595,0.13c-0.178,0.086-0.33,0.21-0.455,0.371
		c-0.127,0.16-0.223,0.355-0.291,0.584c-0.067,0.229-0.102,0.485-0.102,0.771c0,0.289,0.034,0.549,0.102,0.78
		c0.068,0.23,0.162,0.428,0.283,0.591c0.121,0.164,0.27,0.29,0.445,0.379c0.175,0.088,0.371,0.133,0.592,0.133
		c0.223,0,0.42-0.046,0.588-0.137s0.326-0.218,0.476-0.382l0.321,0.364c-0.182,0.21-0.387,0.373-0.615,0.49
		C379.42,57.482,379.157,57.541,378.858,57.541z"/>
</g>
<g enable-background="new    ">
	<path d="M55.629,112.964l0.175-1.428h-0.56v-0.399h0.609l0.126-1.036h-0.595v-0.405h0.644l0.161-1.281h0.371l-0.161,1.281h0.931
		l0.168-1.281h0.371l-0.168,1.281h0.567v0.405H57.66l-0.126,1.036h0.595v0.399h-0.644l-0.175,1.428h-0.371l0.168-1.428h-0.924
		l-0.175,1.428H55.629z M56.231,111.137h0.924l0.126-1.036h-0.924L56.231,111.137z"/>
	<path d="M59.108,112.964v-4.592h1.148c0.709,0,1.249,0.195,1.617,0.588c0.369,0.392,0.553,0.954,0.553,1.687
		c0,0.364-0.047,0.689-0.14,0.977c-0.094,0.287-0.231,0.53-0.413,0.729s-0.406,0.35-0.672,0.455
		c-0.266,0.104-0.572,0.157-0.917,0.157H59.108z M59.689,112.488h0.525c0.537,0,0.939-0.161,1.208-0.483
		c0.269-0.322,0.403-0.774,0.403-1.358c0-0.583-0.134-1.028-0.403-1.337c-0.268-0.308-0.671-0.462-1.208-0.462h-0.525V112.488z"/>
	<path d="M64.526,113.048c-0.453,0-0.805-0.2-1.057-0.602s-0.378-0.978-0.378-1.729c0-0.751,0.126-1.323,0.378-1.715
		s0.604-0.588,1.057-0.588c0.448,0,0.798,0.196,1.05,0.588s0.378,0.964,0.378,1.715c0,0.752-0.126,1.328-0.378,1.729
		S64.974,113.048,64.526,113.048z M64.526,112.586c0.13,0,0.249-0.036,0.354-0.108s0.196-0.185,0.273-0.336
		c0.077-0.151,0.136-0.346,0.178-0.581s0.063-0.517,0.063-0.844c0-0.326-0.021-0.606-0.063-0.84s-0.102-0.424-0.178-0.57
		c-0.077-0.147-0.168-0.256-0.273-0.326c-0.105-0.069-0.223-0.104-0.354-0.104c-0.131,0-0.25,0.035-0.357,0.104
		c-0.107,0.07-0.2,0.179-0.277,0.326c-0.077,0.146-0.136,0.337-0.178,0.57s-0.063,0.514-0.063,0.84c0,0.653,0.081,1.128,0.241,1.425
		C64.054,112.438,64.265,112.586,64.526,112.586z"/>
	<path d="M68.628,113.048c-0.29,0-0.556-0.054-0.798-0.161s-0.454-0.263-0.633-0.466c-0.18-0.202-0.32-0.452-0.42-0.748
		c-0.101-0.297-0.151-0.632-0.151-1.005c0-0.369,0.052-0.7,0.154-0.994s0.245-0.544,0.427-0.749
		c0.182-0.205,0.397-0.362,0.644-0.473c0.248-0.109,0.518-0.164,0.812-0.164c0.28,0,0.526,0.057,0.739,0.171
		c0.212,0.115,0.386,0.247,0.521,0.396l-0.315,0.378c-0.122-0.13-0.259-0.235-0.413-0.314c-0.154-0.079-0.329-0.119-0.525-0.119
		c-0.22,0-0.418,0.043-0.595,0.13c-0.177,0.086-0.329,0.21-0.455,0.371c-0.126,0.16-0.223,0.355-0.291,0.584
		c-0.067,0.229-0.102,0.485-0.102,0.771c0,0.289,0.034,0.549,0.102,0.78c0.068,0.23,0.162,0.428,0.284,0.591
		c0.121,0.164,0.27,0.29,0.444,0.379c0.175,0.088,0.372,0.133,0.592,0.133c0.224,0,0.42-0.046,0.588-0.137s0.327-0.218,0.476-0.382
		l0.322,0.364c-0.182,0.21-0.387,0.373-0.616,0.49C69.19,112.989,68.927,113.048,68.628,113.048z"/>
	<path d="M70.889,112.964v-4.592h2.646v0.49H71.47v1.554h1.75v0.49h-1.75v2.058H70.889z"/>
	<path d="M76.014,113.048c-0.29,0-0.556-0.054-0.798-0.161s-0.454-0.263-0.633-0.466c-0.18-0.202-0.32-0.452-0.42-0.748
		c-0.101-0.297-0.151-0.632-0.151-1.005c0-0.369,0.052-0.7,0.154-0.994s0.245-0.544,0.427-0.749
		c0.182-0.205,0.397-0.362,0.644-0.473c0.248-0.109,0.518-0.164,0.812-0.164c0.28,0,0.526,0.057,0.739,0.171
		c0.212,0.115,0.386,0.247,0.521,0.396l-0.315,0.378c-0.122-0.13-0.259-0.235-0.413-0.314c-0.154-0.079-0.329-0.119-0.525-0.119
		c-0.22,0-0.418,0.043-0.595,0.13c-0.177,0.086-0.329,0.21-0.455,0.371c-0.126,0.16-0.223,0.355-0.291,0.584
		c-0.067,0.229-0.102,0.485-0.102,0.771c0,0.289,0.034,0.549,0.102,0.78c0.068,0.23,0.162,0.428,0.284,0.591
		c0.121,0.164,0.27,0.29,0.444,0.379c0.175,0.088,0.372,0.133,0.592,0.133c0.224,0,0.42-0.046,0.588-0.137s0.327-0.218,0.476-0.382
		l0.322,0.364c-0.182,0.21-0.387,0.373-0.616,0.49C76.576,112.989,76.312,113.048,76.014,113.048z"/>
	<path d="M78.274,112.964v-4.592h2.646v0.49h-2.065v1.441h1.743v0.497h-1.743v1.666h2.135v0.497H78.274z"/>
</g>
<g enable-background="new    ">
	<path d="M55.629,162.457l0.175-1.428h-0.56v-0.399h0.609l0.126-1.036h-0.595v-0.405h0.644l0.161-1.281h0.371l-0.161,1.281h0.931
		l0.168-1.281h0.371l-0.168,1.281h0.567v0.405H57.66l-0.126,1.036h0.595v0.399h-0.644l-0.175,1.428h-0.371l0.168-1.428h-0.924
		l-0.175,1.428H55.629z M56.231,160.63h0.924l0.126-1.036h-0.924L56.231,160.63z"/>
	<path d="M60.13,162.541c-0.177,0-0.339-0.018-0.486-0.053s-0.281-0.081-0.402-0.14c-0.122-0.059-0.23-0.125-0.326-0.199
		c-0.096-0.075-0.181-0.154-0.255-0.238l0.294-0.378c0.135,0.14,0.292,0.264,0.473,0.371c0.179,0.107,0.402,0.161,0.668,0.161
		c0.271,0,0.492-0.074,0.665-0.221c0.172-0.147,0.259-0.347,0.259-0.599c0-0.131-0.024-0.251-0.074-0.36
		c-0.049-0.109-0.129-0.204-0.241-0.284c-0.112-0.079-0.259-0.14-0.441-0.182c-0.182-0.042-0.406-0.062-0.672-0.062v-0.441
		c0.238,0,0.438-0.021,0.599-0.062c0.161-0.043,0.292-0.101,0.392-0.176c0.1-0.074,0.171-0.163,0.213-0.266s0.063-0.212,0.063-0.329
		c0-0.22-0.069-0.392-0.207-0.518s-0.325-0.189-0.563-0.189c-0.187,0-0.358,0.042-0.514,0.126c-0.157,0.084-0.302,0.193-0.438,0.329
		l-0.308-0.364c0.172-0.163,0.363-0.297,0.57-0.402c0.208-0.104,0.445-0.157,0.71-0.157c0.196,0,0.376,0.025,0.539,0.077
		c0.164,0.051,0.305,0.125,0.423,0.22c0.119,0.096,0.211,0.214,0.277,0.354c0.065,0.141,0.098,0.302,0.098,0.483
		c0,0.271-0.075,0.492-0.224,0.665c-0.149,0.173-0.346,0.306-0.588,0.399v0.027c0.136,0.033,0.262,0.081,0.378,0.144
		c0.116,0.063,0.219,0.143,0.308,0.238c0.089,0.096,0.158,0.206,0.207,0.332c0.049,0.126,0.074,0.267,0.074,0.42
		c0,0.196-0.039,0.374-0.116,0.532c-0.077,0.159-0.182,0.293-0.315,0.402c-0.133,0.11-0.288,0.194-0.465,0.252
		C60.527,162.512,60.336,162.541,60.13,162.541z"/>
	<path d="M62.587,162.457v-4.592h2.646v0.49h-2.065v1.554h1.75v0.49h-1.75v2.058H62.587z"/>
	<path d="M67.067,162.541c-0.177,0-0.339-0.018-0.486-0.053s-0.281-0.081-0.402-0.14c-0.122-0.059-0.23-0.125-0.326-0.199
		c-0.096-0.075-0.181-0.154-0.255-0.238l0.294-0.378c0.135,0.14,0.292,0.264,0.473,0.371c0.179,0.107,0.402,0.161,0.668,0.161
		c0.271,0,0.492-0.074,0.665-0.221c0.172-0.147,0.259-0.347,0.259-0.599c0-0.131-0.024-0.251-0.074-0.36
		c-0.049-0.109-0.129-0.204-0.241-0.284c-0.112-0.079-0.259-0.14-0.441-0.182c-0.182-0.042-0.406-0.062-0.672-0.062v-0.441
		c0.238,0,0.438-0.021,0.599-0.062c0.161-0.043,0.292-0.101,0.392-0.176c0.1-0.074,0.171-0.163,0.213-0.266s0.063-0.212,0.063-0.329
		c0-0.22-0.069-0.392-0.207-0.518s-0.325-0.189-0.563-0.189c-0.187,0-0.358,0.042-0.514,0.126c-0.157,0.084-0.302,0.193-0.438,0.329
		l-0.308-0.364c0.172-0.163,0.363-0.297,0.57-0.402c0.208-0.104,0.445-0.157,0.71-0.157c0.196,0,0.376,0.025,0.539,0.077
		c0.164,0.051,0.305,0.125,0.423,0.22c0.119,0.096,0.211,0.214,0.277,0.354c0.065,0.141,0.098,0.302,0.098,0.483
		c0,0.271-0.075,0.492-0.224,0.665c-0.149,0.173-0.346,0.306-0.588,0.399v0.027c0.136,0.033,0.262,0.081,0.378,0.144
		c0.116,0.063,0.219,0.143,0.308,0.238c0.089,0.096,0.158,0.206,0.207,0.332c0.049,0.126,0.074,0.267,0.074,0.42
		c0,0.196-0.039,0.374-0.116,0.532c-0.077,0.159-0.182,0.293-0.315,0.402c-0.133,0.11-0.288,0.194-0.465,0.252
		C67.464,162.512,67.273,162.541,67.067,162.541z"/>
	<path d="M69.524,162.457v-4.592h2.646v0.49h-2.065v1.554h1.75v0.49h-1.75v2.058H69.524z"/>
	<path d="M74.004,162.541c-0.177,0-0.339-0.018-0.486-0.053s-0.281-0.081-0.402-0.14c-0.122-0.059-0.23-0.125-0.326-0.199
		c-0.096-0.075-0.181-0.154-0.255-0.238l0.294-0.378c0.135,0.14,0.292,0.264,0.473,0.371c0.179,0.107,0.402,0.161,0.668,0.161
		c0.271,0,0.492-0.074,0.665-0.221c0.172-0.147,0.259-0.347,0.259-0.599c0-0.131-0.024-0.251-0.074-0.36
		c-0.049-0.109-0.129-0.204-0.241-0.284c-0.112-0.079-0.259-0.14-0.441-0.182c-0.182-0.042-0.406-0.062-0.672-0.062v-0.441
		c0.238,0,0.438-0.021,0.599-0.062c0.161-0.043,0.292-0.101,0.392-0.176c0.1-0.074,0.171-0.163,0.213-0.266s0.063-0.212,0.063-0.329
		c0-0.22-0.069-0.392-0.207-0.518s-0.325-0.189-0.563-0.189c-0.187,0-0.358,0.042-0.514,0.126c-0.157,0.084-0.302,0.193-0.438,0.329
		l-0.308-0.364c0.172-0.163,0.363-0.297,0.57-0.402c0.208-0.104,0.445-0.157,0.71-0.157c0.196,0,0.376,0.025,0.539,0.077
		c0.164,0.051,0.305,0.125,0.423,0.22c0.119,0.096,0.211,0.214,0.277,0.354c0.065,0.141,0.098,0.302,0.098,0.483
		c0,0.271-0.075,0.492-0.224,0.665c-0.149,0.173-0.346,0.306-0.588,0.399v0.027c0.136,0.033,0.262,0.081,0.378,0.144
		c0.116,0.063,0.219,0.143,0.308,0.238c0.089,0.096,0.158,0.206,0.207,0.332c0.049,0.126,0.074,0.267,0.074,0.42
		c0,0.196-0.039,0.374-0.116,0.532c-0.077,0.159-0.182,0.293-0.315,0.402c-0.133,0.11-0.288,0.194-0.465,0.252
		C74.401,162.512,74.209,162.541,74.004,162.541z"/>
	<path d="M76.461,162.457v-4.592h2.646v0.49h-2.065v1.554h1.75v0.49h-1.75v2.058H76.461z"/>
</g>
<g enable-background="new    ">
	<path d="M55.629,137.711l0.175-1.428h-0.56v-0.399h0.609l0.126-1.036h-0.595v-0.405h0.644l0.161-1.281h0.371l-0.161,1.281h0.931
		l0.168-1.281h0.371l-0.168,1.281h0.567v0.405H57.66l-0.126,1.036h0.595v0.399h-0.644l-0.175,1.428h-0.371l0.168-1.428h-0.924
		l-0.175,1.428H55.629z M56.231,135.884h0.924l0.126-1.036h-0.924L56.231,135.884z"/>
	<path d="M59.914,137.795c-0.238,0-0.447-0.044-0.626-0.133s-0.33-0.201-0.452-0.336l0.322-0.364
		c0.093,0.107,0.204,0.193,0.333,0.259c0.128,0.065,0.262,0.099,0.402,0.099c0.159,0,0.308-0.033,0.448-0.099
		c0.14-0.065,0.264-0.174,0.371-0.325s0.194-0.349,0.259-0.592c0.065-0.242,0.1-0.543,0.105-0.902
		c-0.14,0.177-0.304,0.317-0.49,0.42s-0.374,0.153-0.56,0.153c-0.387,0-0.695-0.114-0.924-0.343s-0.343-0.574-0.343-1.036
		c0-0.215,0.035-0.409,0.105-0.584c0.07-0.175,0.165-0.326,0.284-0.452s0.259-0.224,0.42-0.294c0.161-0.069,0.33-0.104,0.508-0.104
		c0.219,0,0.423,0.044,0.612,0.133s0.353,0.223,0.49,0.402c0.137,0.18,0.245,0.404,0.322,0.672c0.077,0.269,0.116,0.582,0.116,0.941
		c0,0.448-0.047,0.83-0.14,1.145c-0.093,0.315-0.22,0.572-0.378,0.771c-0.159,0.198-0.34,0.343-0.542,0.434
		C60.351,137.749,60.138,137.795,59.914,137.795z M60.124,135.541c0.149,0,0.307-0.047,0.473-0.14
		c0.166-0.094,0.321-0.245,0.465-0.455c-0.038-0.438-0.14-0.771-0.308-0.994c-0.168-0.225-0.395-0.336-0.679-0.336
		c-0.107,0-0.209,0.023-0.305,0.069c-0.096,0.047-0.179,0.113-0.249,0.2c-0.07,0.086-0.125,0.189-0.165,0.312
		c-0.04,0.121-0.06,0.254-0.06,0.398c0,0.294,0.068,0.525,0.203,0.693S59.844,135.541,60.124,135.541z"/>
	<path d="M62.587,137.711v-4.592h1.365c0.233,0,0.447,0.021,0.641,0.062c0.193,0.042,0.359,0.107,0.497,0.196
		s0.245,0.204,0.322,0.347s0.115,0.313,0.115,0.515c0,0.229-0.057,0.435-0.171,0.619s-0.281,0.312-0.5,0.382v0.027
		c0.28,0.052,0.506,0.168,0.679,0.351c0.172,0.182,0.259,0.432,0.259,0.749c0,0.224-0.042,0.42-0.126,0.588s-0.203,0.308-0.357,0.42
		s-0.338,0.196-0.553,0.252c-0.214,0.056-0.45,0.084-0.707,0.084H62.587z M63.168,135.072h0.679c0.392,0,0.674-0.068,0.847-0.203
		c0.173-0.136,0.259-0.319,0.259-0.553c0-0.267-0.09-0.455-0.27-0.567s-0.449-0.168-0.809-0.168h-0.707V135.072z M63.168,137.249
		h0.798c0.397,0,0.705-0.073,0.924-0.221c0.219-0.146,0.329-0.374,0.329-0.683c0-0.284-0.107-0.493-0.322-0.626
		s-0.525-0.2-0.931-0.2h-0.798V137.249z"/>
	<path d="M67.508,137.795c-0.238,0-0.447-0.044-0.626-0.133s-0.33-0.201-0.452-0.336l0.322-0.364
		c0.093,0.107,0.204,0.193,0.333,0.259c0.128,0.065,0.262,0.099,0.402,0.099c0.159,0,0.308-0.033,0.448-0.099
		c0.14-0.065,0.264-0.174,0.371-0.325s0.194-0.349,0.259-0.592c0.065-0.242,0.1-0.543,0.105-0.902
		c-0.14,0.177-0.304,0.317-0.49,0.42s-0.374,0.153-0.56,0.153c-0.387,0-0.695-0.114-0.924-0.343s-0.343-0.574-0.343-1.036
		c0-0.215,0.035-0.409,0.105-0.584c0.07-0.175,0.165-0.326,0.284-0.452s0.259-0.224,0.42-0.294c0.161-0.069,0.33-0.104,0.508-0.104
		c0.219,0,0.423,0.044,0.612,0.133s0.353,0.223,0.49,0.402c0.137,0.18,0.245,0.404,0.322,0.672c0.077,0.269,0.116,0.582,0.116,0.941
		c0,0.448-0.047,0.83-0.14,1.145c-0.093,0.315-0.22,0.572-0.378,0.771c-0.159,0.198-0.34,0.343-0.542,0.434
		C67.946,137.749,67.732,137.795,67.508,137.795z M67.718,135.541c0.149,0,0.307-0.047,0.473-0.14
		c0.166-0.094,0.321-0.245,0.465-0.455c-0.038-0.438-0.14-0.771-0.308-0.994c-0.168-0.225-0.395-0.336-0.679-0.336
		c-0.107,0-0.209,0.023-0.305,0.069c-0.096,0.047-0.179,0.113-0.249,0.2c-0.07,0.086-0.125,0.189-0.165,0.312
		c-0.04,0.121-0.06,0.254-0.06,0.398c0,0.294,0.068,0.525,0.203,0.693S67.438,135.541,67.718,135.541z"/>
	<path d="M70.182,137.711v-4.592h1.365c0.233,0,0.447,0.021,0.641,0.062c0.193,0.042,0.359,0.107,0.497,0.196
		s0.245,0.204,0.322,0.347s0.115,0.313,0.115,0.515c0,0.229-0.057,0.435-0.171,0.619s-0.281,0.312-0.5,0.382v0.027
		c0.28,0.052,0.506,0.168,0.679,0.351c0.172,0.182,0.259,0.432,0.259,0.749c0,0.224-0.042,0.42-0.126,0.588s-0.203,0.308-0.357,0.42
		s-0.338,0.196-0.553,0.252c-0.214,0.056-0.45,0.084-0.707,0.084H70.182z M70.763,135.072h0.679c0.392,0,0.674-0.068,0.847-0.203
		c0.173-0.136,0.259-0.319,0.259-0.553c0-0.267-0.09-0.455-0.27-0.567s-0.449-0.168-0.809-0.168h-0.707V135.072z M70.763,137.249
		h0.798c0.397,0,0.705-0.073,0.924-0.221c0.219-0.146,0.329-0.374,0.329-0.683c0-0.284-0.107-0.493-0.322-0.626
		s-0.525-0.2-0.931-0.2h-0.798V137.249z"/>
	<path d="M75.104,137.795c-0.238,0-0.447-0.044-0.626-0.133s-0.33-0.201-0.452-0.336l0.322-0.364
		c0.093,0.107,0.204,0.193,0.333,0.259c0.128,0.065,0.262,0.099,0.402,0.099c0.159,0,0.308-0.033,0.448-0.099
		c0.14-0.065,0.264-0.174,0.371-0.325s0.194-0.349,0.259-0.592c0.065-0.242,0.1-0.543,0.105-0.902
		c-0.14,0.177-0.304,0.317-0.49,0.42s-0.374,0.153-0.56,0.153c-0.387,0-0.695-0.114-0.924-0.343s-0.343-0.574-0.343-1.036
		c0-0.215,0.035-0.409,0.105-0.584c0.07-0.175,0.165-0.326,0.284-0.452s0.259-0.224,0.42-0.294c0.161-0.069,0.33-0.104,0.508-0.104
		c0.219,0,0.423,0.044,0.612,0.133s0.353,0.223,0.49,0.402c0.137,0.18,0.245,0.404,0.322,0.672c0.077,0.269,0.116,0.582,0.116,0.941
		c0,0.448-0.047,0.83-0.14,1.145c-0.093,0.315-0.22,0.572-0.378,0.771c-0.159,0.198-0.34,0.343-0.542,0.434
		C75.541,137.749,75.328,137.795,75.104,137.795z M75.313,135.541c0.149,0,0.307-0.047,0.473-0.14
		c0.166-0.094,0.321-0.245,0.465-0.455c-0.038-0.438-0.14-0.771-0.308-0.994c-0.168-0.225-0.395-0.336-0.679-0.336
		c-0.107,0-0.209,0.023-0.305,0.069c-0.096,0.047-0.179,0.113-0.249,0.2c-0.07,0.086-0.125,0.189-0.165,0.312
		c-0.04,0.121-0.06,0.254-0.06,0.398c0,0.294,0.068,0.525,0.203,0.693S75.034,135.541,75.313,135.541z"/>
	<path d="M77.168,137.711l1.554-4.592h0.658l1.554,4.592h-0.623l-0.434-1.4h-1.673l-0.441,1.4H77.168z M78.568,135.142l-0.217,0.7
		h1.379l-0.217-0.7c-0.084-0.256-0.164-0.512-0.238-0.767c-0.075-0.254-0.149-0.514-0.224-0.78h-0.028
		c-0.07,0.267-0.143,0.526-0.217,0.78C78.732,134.63,78.652,134.886,78.568,135.142z"/>
</g>
</svg>
