<?xml version="1.0" encoding="utf-8"?>
<!-- Generator: Adobe Illustrator 16.0.4, SVG Export Plug-In . SVG Version: 6.00 Build 0)  -->
<!DOCTYPE svg PUBLIC "-//W3C//DTD SVG 1.1//EN" "http://www.w3.org/Graphics/SVG/1.1/DTD/svg11.dtd">
<svg version="1.1" id="Ebene_1" xmlns="http://www.w3.org/2000/svg" xmlns:xlink="http://www.w3.org/1999/xlink" x="0px" y="0px"
	 width="387.7px" height="75px" viewBox="0 0 387.7 75" enable-background="new 0 0 387.7 75" xml:space="preserve">
<g>
	<rect fill="#FFA7C0" width="50" height="50"/>
</g>
<g>
	<rect y="49.9" fill="#E67A94" width="50" height="25"/>
</g>
<g>
	<rect x="200" fill="#F4AA41" width="50" height="50"/>
</g>
<g>
	<rect x="200" y="50" fill="#E27022" width="50" height="25"/>
</g>
<g>
	<rect x="100" fill="#B399C8" width="50" height="50"/>
</g>
<g>
	<rect x="100" y="50" fill="#8967AA" width="50" height="25"/>
</g>
<g>
	<rect x="300" fill="#A57939" width="50" height="50"/>
</g>
<g>
	<rect x="300" y="50" fill="#6A462F" width="50" height="25"/>
</g>
<g enable-background="new    ">
	<path d="M54.797,7.248l0.175-1.428h-0.56V5.421h0.609l0.126-1.036h-0.595V3.979h0.644l0.161-1.281h0.371l-0.161,1.281h0.931
		l0.168-1.281h0.371l-0.168,1.281h0.567v0.405h-0.609l-0.126,1.036h0.595V5.82h-0.644l-0.175,1.428h-0.371l0.168-1.428H55.35
		l-0.175,1.428H54.797z M55.399,5.421h0.924l0.126-1.036h-0.924L55.399,5.421z"/>
	<path d="M58.276,7.248V2.656h2.646v0.49h-2.065V4.7h1.75v0.49h-1.75v2.058H58.276z"/>
	<path d="M61.734,7.248V2.656h2.646v0.49h-2.065V4.7h1.75v0.49h-1.75v2.058H61.734z"/>
	<path d="M64.324,7.248l1.554-4.592h0.658l1.554,4.592h-0.623l-0.434-1.4H65.36l-0.441,1.4H64.324z M65.724,4.679l-0.217,0.7h1.379
		l-0.217-0.7c-0.084-0.256-0.164-0.512-0.238-0.767c-0.075-0.254-0.149-0.514-0.224-0.78h-0.028c-0.07,0.267-0.143,0.526-0.217,0.78
		C65.887,4.167,65.808,4.423,65.724,4.679z"/>
	<path d="M69.35,7.248c0.019-0.42,0.056-0.805,0.112-1.155c0.056-0.35,0.134-0.683,0.234-0.997c0.101-0.315,0.229-0.62,0.385-0.914
		c0.156-0.294,0.344-0.595,0.563-0.902h-2.226V2.782h2.877v0.356c-0.266,0.336-0.482,0.658-0.647,0.967
		c-0.166,0.308-0.297,0.621-0.396,0.941c-0.098,0.319-0.169,0.657-0.213,1.015c-0.044,0.357-0.076,0.753-0.095,1.187H69.35z"/>
	<path d="M73.956,7.332c-0.29,0-0.556-0.054-0.798-0.161s-0.454-0.263-0.633-0.466c-0.18-0.202-0.32-0.452-0.42-0.748
		c-0.101-0.297-0.151-0.632-0.151-1.005c0-0.369,0.052-0.7,0.154-0.994s0.245-0.544,0.427-0.749
		c0.182-0.205,0.397-0.362,0.644-0.473c0.248-0.109,0.518-0.164,0.812-0.164c0.28,0,0.526,0.057,0.739,0.171
		c0.212,0.115,0.386,0.247,0.521,0.396l-0.315,0.378c-0.122-0.13-0.259-0.235-0.413-0.314c-0.154-0.079-0.329-0.119-0.525-0.119
		c-0.22,0-0.418,0.043-0.595,0.13c-0.177,0.086-0.329,0.21-0.455,0.371c-0.126,0.16-0.223,0.355-0.291,0.584
		c-0.067,0.229-0.102,0.485-0.102,0.771c0,0.289,0.034,0.549,0.102,0.78c0.068,0.23,0.162,0.428,0.284,0.591
		c0.121,0.164,0.27,0.29,0.444,0.379c0.175,0.088,0.372,0.133,0.592,0.133c0.224,0,0.42-0.046,0.588-0.137s0.327-0.218,0.476-0.382
		l0.322,0.364c-0.182,0.21-0.387,0.373-0.616,0.49C74.518,7.273,74.254,7.332,73.956,7.332z"/>
	<path d="M77.33,7.332c-0.453,0-0.805-0.2-1.057-0.602s-0.378-0.978-0.378-1.729c0-0.751,0.126-1.323,0.378-1.715
		s0.604-0.588,1.057-0.588c0.448,0,0.798,0.196,1.05,0.588s0.378,0.964,0.378,1.715c0,0.752-0.126,1.328-0.378,1.729
		S77.778,7.332,77.33,7.332z M77.33,6.87c0.13,0,0.249-0.036,0.354-0.108s0.196-0.185,0.273-0.336
		c0.077-0.151,0.136-0.346,0.178-0.581s0.063-0.517,0.063-0.844c0-0.326-0.021-0.606-0.063-0.84s-0.102-0.424-0.178-0.57
		c-0.077-0.147-0.168-0.256-0.273-0.326C77.579,3.195,77.46,3.16,77.33,3.16c-0.131,0-0.25,0.035-0.357,0.104
		c-0.107,0.07-0.2,0.179-0.277,0.326c-0.077,0.146-0.136,0.337-0.178,0.57s-0.063,0.514-0.063,0.84c0,0.653,0.081,1.128,0.241,1.425
		C76.857,6.722,77.068,6.87,77.33,6.87z"/>
</g>
<g enable-background="new    ">
	<path d="M54.797,56.908l0.175-1.428h-0.56v-0.399h0.609l0.126-1.036h-0.595V53.64h0.644l0.161-1.281h0.371l-0.161,1.281h0.931
		l0.168-1.281h0.371l-0.168,1.281h0.567v0.405h-0.609l-0.126,1.036h0.595v0.399h-0.644l-0.175,1.428h-0.371l0.168-1.428H55.35
		l-0.175,1.428H54.797z M55.399,55.081h0.924l0.126-1.036h-0.924L55.399,55.081z"/>
	<path d="M58.276,56.908v-4.592h2.646v0.49h-2.065v1.441H60.6v0.497h-1.743v1.666h2.135v0.497H58.276z"/>
	<path d="M63.211,56.992c-0.219,0-0.422-0.044-0.609-0.133c-0.187-0.089-0.349-0.223-0.487-0.402s-0.246-0.404-0.325-0.672
		c-0.08-0.269-0.119-0.583-0.119-0.942c0-0.447,0.047-0.829,0.14-1.145c0.093-0.314,0.219-0.571,0.378-0.77s0.339-0.343,0.542-0.434
		c0.203-0.092,0.417-0.137,0.641-0.137c0.243,0,0.451,0.045,0.626,0.137c0.175,0.091,0.325,0.204,0.452,0.339l-0.322,0.357
		c-0.093-0.107-0.204-0.192-0.333-0.256c-0.128-0.062-0.262-0.095-0.402-0.095c-0.154,0-0.301,0.033-0.441,0.099
		c-0.14,0.065-0.264,0.173-0.371,0.321c-0.107,0.149-0.194,0.345-0.259,0.585s-0.1,0.538-0.105,0.893
		c0.14-0.173,0.303-0.31,0.49-0.409c0.187-0.101,0.371-0.151,0.553-0.151c0.388,0,0.697,0.115,0.928,0.344s0.347,0.573,0.347,1.036
		c0,0.214-0.035,0.409-0.105,0.584c-0.07,0.175-0.166,0.325-0.287,0.451c-0.122,0.126-0.262,0.225-0.42,0.294
		C63.563,56.957,63.393,56.992,63.211,56.992z M63.211,56.537c0.112,0,0.215-0.023,0.308-0.07c0.093-0.046,0.175-0.112,0.245-0.199
		c0.07-0.086,0.125-0.188,0.164-0.308c0.04-0.119,0.06-0.253,0.06-0.402c0-0.294-0.067-0.525-0.203-0.693
		c-0.136-0.168-0.343-0.252-0.623-0.252c-0.145,0-0.301,0.045-0.469,0.137c-0.168,0.091-0.322,0.241-0.462,0.451
		c0.037,0.438,0.139,0.771,0.305,0.997C62.701,56.424,62.926,56.537,63.211,56.537z"/>
	<path d="M66.053,56.908c0.019-0.42,0.056-0.805,0.112-1.155c0.056-0.35,0.134-0.683,0.234-0.997
		c0.101-0.315,0.229-0.62,0.385-0.914c0.156-0.294,0.344-0.595,0.563-0.902h-2.226v-0.497h2.877v0.356
		c-0.266,0.336-0.482,0.658-0.647,0.967c-0.166,0.308-0.297,0.621-0.396,0.941c-0.098,0.319-0.169,0.657-0.213,1.015
		c-0.044,0.357-0.076,0.753-0.095,1.187H66.053z"/>
	<path d="M68.314,56.908l1.554-4.592h0.658l1.554,4.592h-0.623l-0.434-1.4H69.35l-0.441,1.4H68.314z M69.714,54.339l-0.217,0.7
		h1.379l-0.217-0.7c-0.084-0.256-0.164-0.512-0.238-0.767c-0.075-0.254-0.149-0.514-0.224-0.78h-0.028
		c-0.07,0.267-0.143,0.526-0.217,0.78C69.877,53.827,69.798,54.083,69.714,54.339z"/>
	<path d="M73.536,56.992c-0.238,0-0.447-0.044-0.626-0.133s-0.33-0.201-0.452-0.336l0.322-0.364
		c0.093,0.107,0.204,0.193,0.333,0.259c0.128,0.065,0.262,0.099,0.402,0.099c0.159,0,0.308-0.033,0.448-0.099
		c0.14-0.065,0.264-0.174,0.371-0.325s0.194-0.349,0.259-0.592c0.065-0.242,0.1-0.543,0.105-0.902
		c-0.14,0.177-0.304,0.317-0.49,0.42s-0.374,0.153-0.56,0.153c-0.387,0-0.695-0.114-0.924-0.343s-0.343-0.574-0.343-1.036
		c0-0.215,0.035-0.409,0.105-0.584c0.07-0.175,0.165-0.326,0.284-0.452s0.259-0.224,0.42-0.294c0.161-0.069,0.33-0.104,0.508-0.104
		c0.219,0,0.423,0.044,0.612,0.133s0.353,0.223,0.49,0.402c0.137,0.18,0.245,0.404,0.322,0.672c0.077,0.269,0.116,0.582,0.116,0.941
		c0,0.448-0.047,0.83-0.14,1.145c-0.093,0.315-0.22,0.572-0.378,0.771c-0.159,0.198-0.34,0.343-0.542,0.434
		C73.973,56.946,73.76,56.992,73.536,56.992z M73.746,54.738c0.149,0,0.307-0.047,0.473-0.14c0.166-0.094,0.321-0.245,0.465-0.455
		c-0.038-0.438-0.14-0.771-0.308-0.994c-0.168-0.225-0.395-0.336-0.679-0.336c-0.107,0-0.209,0.023-0.305,0.069
		c-0.096,0.047-0.179,0.113-0.249,0.2c-0.07,0.086-0.125,0.189-0.165,0.312c-0.04,0.121-0.06,0.254-0.06,0.398
		c0,0.294,0.068,0.525,0.203,0.693S73.466,54.738,73.746,54.738z"/>
	<path d="M77.708,56.908v-1.232h-2.009v-0.378l1.911-2.855h0.644v2.771h0.609v0.462h-0.609v1.232H77.708z M76.308,55.214h1.4v-1.295
		c0-0.121,0.003-0.265,0.011-0.431c0.007-0.165,0.015-0.309,0.024-0.43h-0.028c-0.056,0.107-0.114,0.212-0.175,0.314
		s-0.124,0.208-0.189,0.315L76.308,55.214z"/>
</g>
<g enable-background="new    ">
	<path d="M155.63,7.248l0.175-1.428h-0.56V5.421h0.609l0.126-1.036h-0.595V3.979h0.644l0.161-1.281h0.371L156.4,3.979h0.931
		l0.168-1.281h0.371l-0.168,1.281h0.567v0.405h-0.609l-0.126,1.036h0.595V5.82h-0.644l-0.175,1.428h-0.371l0.168-1.428h-0.924
		l-0.175,1.428H155.63z M156.232,5.421h0.924l0.126-1.036h-0.924L156.232,5.421z"/>
	<path d="M159.109,7.248V2.656h1.365c0.233,0,0.447,0.021,0.641,0.062c0.193,0.042,0.359,0.107,0.497,0.196s0.245,0.204,0.322,0.347
		s0.115,0.313,0.115,0.515c0,0.229-0.057,0.435-0.171,0.619s-0.281,0.312-0.5,0.382v0.027c0.28,0.052,0.506,0.168,0.679,0.351
		c0.172,0.182,0.259,0.432,0.259,0.749c0,0.224-0.042,0.42-0.126,0.588s-0.203,0.308-0.357,0.42s-0.338,0.196-0.553,0.252
		c-0.214,0.056-0.45,0.084-0.707,0.084H159.109z M159.69,4.609h0.679c0.392,0,0.674-0.068,0.847-0.203
		c0.173-0.136,0.259-0.319,0.259-0.553c0-0.267-0.09-0.455-0.27-0.567s-0.449-0.168-0.809-0.168h-0.707V4.609z M159.69,6.786h0.798
		c0.397,0,0.705-0.073,0.924-0.221c0.219-0.146,0.329-0.374,0.329-0.683c0-0.284-0.107-0.493-0.322-0.626s-0.525-0.2-0.931-0.2
		h-0.798V6.786z"/>
	<path d="M164.247,7.332c-0.177,0-0.339-0.018-0.486-0.053s-0.281-0.081-0.402-0.14c-0.122-0.059-0.23-0.125-0.326-0.199
		c-0.096-0.075-0.181-0.154-0.255-0.238l0.294-0.378c0.135,0.14,0.292,0.264,0.473,0.371c0.179,0.107,0.402,0.161,0.668,0.161
		c0.271,0,0.492-0.074,0.665-0.221c0.172-0.147,0.259-0.347,0.259-0.599c0-0.131-0.024-0.251-0.074-0.36
		c-0.049-0.109-0.129-0.204-0.241-0.284c-0.112-0.079-0.259-0.14-0.441-0.182c-0.182-0.042-0.406-0.062-0.672-0.062V4.707
		c0.238,0,0.438-0.021,0.599-0.062c0.161-0.043,0.292-0.101,0.392-0.176c0.1-0.074,0.171-0.163,0.213-0.266s0.063-0.212,0.063-0.329
		c0-0.22-0.069-0.392-0.207-0.518s-0.325-0.189-0.563-0.189c-0.187,0-0.358,0.042-0.514,0.126c-0.157,0.084-0.302,0.193-0.438,0.329
		l-0.308-0.364c0.172-0.163,0.363-0.297,0.57-0.402c0.208-0.104,0.445-0.157,0.71-0.157c0.196,0,0.376,0.025,0.539,0.077
		c0.164,0.051,0.305,0.125,0.423,0.22c0.119,0.096,0.211,0.214,0.277,0.354c0.065,0.141,0.098,0.302,0.098,0.483
		c0,0.271-0.075,0.492-0.224,0.665c-0.149,0.173-0.346,0.306-0.588,0.399v0.027c0.136,0.033,0.262,0.081,0.378,0.144
		c0.116,0.063,0.219,0.143,0.308,0.238c0.089,0.096,0.158,0.206,0.207,0.332c0.049,0.126,0.074,0.267,0.074,0.42
		c0,0.196-0.039,0.374-0.116,0.532c-0.077,0.159-0.182,0.293-0.315,0.402c-0.133,0.11-0.288,0.194-0.465,0.252
		C164.644,7.303,164.452,7.332,164.247,7.332z"/>
	<path d="M167.509,7.332c-0.238,0-0.447-0.044-0.626-0.133s-0.33-0.201-0.452-0.336l0.322-0.364
		c0.093,0.107,0.204,0.193,0.333,0.259c0.128,0.065,0.262,0.099,0.402,0.099c0.159,0,0.308-0.033,0.448-0.099
		c0.14-0.065,0.264-0.174,0.371-0.325s0.194-0.349,0.259-0.592c0.065-0.242,0.1-0.543,0.105-0.902
		c-0.14,0.177-0.304,0.317-0.49,0.42s-0.374,0.153-0.56,0.153c-0.387,0-0.695-0.114-0.924-0.343s-0.343-0.574-0.343-1.036
		c0-0.215,0.035-0.409,0.105-0.584c0.07-0.175,0.165-0.326,0.284-0.452s0.259-0.224,0.42-0.294c0.161-0.069,0.33-0.104,0.508-0.104
		c0.219,0,0.423,0.044,0.612,0.133s0.353,0.223,0.49,0.402c0.137,0.18,0.245,0.404,0.322,0.672c0.077,0.269,0.116,0.582,0.116,0.941
		c0,0.448-0.047,0.83-0.14,1.145c-0.093,0.315-0.22,0.572-0.378,0.771c-0.159,0.198-0.34,0.343-0.542,0.434
		C167.946,7.286,167.733,7.332,167.509,7.332z M167.719,5.078c0.149,0,0.307-0.047,0.473-0.14c0.166-0.094,0.321-0.245,0.465-0.455
		c-0.038-0.438-0.14-0.771-0.308-0.994c-0.168-0.225-0.395-0.336-0.679-0.336c-0.107,0-0.209,0.023-0.305,0.069
		c-0.096,0.047-0.179,0.113-0.249,0.2c-0.07,0.086-0.125,0.189-0.165,0.312c-0.04,0.121-0.06,0.254-0.06,0.398
		c0,0.294,0.068,0.525,0.203,0.693S167.439,5.078,167.719,5.078z"/>
	<path d="M170.988,7.332c-0.238,0-0.447-0.044-0.626-0.133s-0.33-0.201-0.452-0.336l0.322-0.364
		c0.093,0.107,0.204,0.193,0.333,0.259c0.128,0.065,0.262,0.099,0.402,0.099c0.159,0,0.308-0.033,0.448-0.099
		c0.14-0.065,0.264-0.174,0.371-0.325s0.194-0.349,0.259-0.592c0.065-0.242,0.1-0.543,0.105-0.902
		c-0.14,0.177-0.304,0.317-0.49,0.42s-0.374,0.153-0.56,0.153c-0.387,0-0.695-0.114-0.924-0.343s-0.343-0.574-0.343-1.036
		c0-0.215,0.035-0.409,0.105-0.584c0.07-0.175,0.165-0.326,0.284-0.452s0.259-0.224,0.42-0.294c0.161-0.069,0.33-0.104,0.508-0.104
		c0.219,0,0.423,0.044,0.612,0.133s0.353,0.223,0.49,0.402c0.137,0.18,0.245,0.404,0.322,0.672c0.077,0.269,0.116,0.582,0.116,0.941
		c0,0.448-0.047,0.83-0.14,1.145c-0.093,0.315-0.22,0.572-0.378,0.771c-0.159,0.198-0.34,0.343-0.542,0.434
		C171.425,7.286,171.212,7.332,170.988,7.332z M171.198,5.078c0.149,0,0.307-0.047,0.473-0.14c0.166-0.094,0.321-0.245,0.465-0.455
		c-0.038-0.438-0.14-0.771-0.308-0.994c-0.168-0.225-0.395-0.336-0.679-0.336c-0.107,0-0.209,0.023-0.305,0.069
		c-0.096,0.047-0.179,0.113-0.249,0.2c-0.07,0.086-0.125,0.189-0.165,0.312c-0.04,0.121-0.06,0.254-0.06,0.398
		c0,0.294,0.068,0.525,0.203,0.693S170.918,5.078,171.198,5.078z"/>
	<path d="M175.398,7.332c-0.29,0-0.556-0.054-0.798-0.161s-0.454-0.263-0.633-0.466c-0.18-0.202-0.32-0.452-0.42-0.748
		c-0.101-0.297-0.151-0.632-0.151-1.005c0-0.369,0.052-0.7,0.154-0.994s0.245-0.544,0.427-0.749
		c0.182-0.205,0.397-0.362,0.644-0.473c0.248-0.109,0.518-0.164,0.812-0.164c0.28,0,0.526,0.057,0.739,0.171
		c0.212,0.115,0.386,0.247,0.521,0.396l-0.315,0.378c-0.122-0.13-0.259-0.235-0.413-0.314c-0.154-0.079-0.329-0.119-0.525-0.119
		c-0.22,0-0.418,0.043-0.595,0.13c-0.177,0.086-0.329,0.21-0.455,0.371c-0.126,0.16-0.223,0.355-0.291,0.584
		c-0.067,0.229-0.102,0.485-0.102,0.771c0,0.289,0.034,0.549,0.102,0.78c0.068,0.23,0.162,0.428,0.284,0.591
		c0.121,0.164,0.27,0.29,0.444,0.379c0.175,0.088,0.372,0.133,0.592,0.133c0.224,0,0.42-0.046,0.588-0.137s0.327-0.218,0.476-0.382
		l0.322,0.364c-0.182,0.21-0.387,0.373-0.616,0.49C175.96,7.273,175.696,7.332,175.398,7.332z"/>
	<path d="M178.779,7.332c-0.21,0-0.405-0.03-0.584-0.091s-0.333-0.146-0.462-0.256c-0.128-0.109-0.23-0.239-0.305-0.389
		s-0.112-0.312-0.112-0.489c0-0.145,0.024-0.279,0.073-0.403c0.049-0.123,0.112-0.235,0.189-0.336
		c0.077-0.1,0.166-0.188,0.266-0.266c0.101-0.077,0.204-0.144,0.312-0.199V4.875c-0.164-0.116-0.308-0.258-0.434-0.424
		c-0.126-0.165-0.189-0.367-0.189-0.605c0-0.172,0.033-0.329,0.098-0.469s0.154-0.26,0.266-0.36
		c0.112-0.101,0.245-0.179,0.399-0.234c0.154-0.057,0.322-0.084,0.504-0.084c0.196,0,0.371,0.029,0.525,0.087
		c0.154,0.059,0.286,0.141,0.396,0.245c0.11,0.105,0.194,0.231,0.252,0.378c0.059,0.147,0.087,0.308,0.087,0.479
		c0,0.117-0.02,0.229-0.059,0.336c-0.04,0.107-0.089,0.208-0.147,0.302c-0.059,0.093-0.124,0.177-0.196,0.252
		c-0.072,0.074-0.144,0.138-0.213,0.188v0.028c0.098,0.056,0.193,0.12,0.287,0.192c0.093,0.072,0.176,0.154,0.249,0.245
		c0.072,0.091,0.13,0.194,0.175,0.312c0.044,0.116,0.066,0.25,0.066,0.398c0,0.168-0.035,0.325-0.105,0.47
		c-0.07,0.145-0.168,0.271-0.294,0.378s-0.278,0.191-0.455,0.252S178.993,7.332,178.779,7.332z M178.793,6.905
		c0.261,0,0.472-0.072,0.633-0.217c0.161-0.146,0.242-0.334,0.242-0.567c0-0.145-0.033-0.269-0.098-0.371s-0.154-0.192-0.266-0.27
		c-0.112-0.077-0.241-0.146-0.388-0.21c-0.147-0.062-0.3-0.127-0.458-0.192c-0.178,0.121-0.326,0.263-0.445,0.424
		c-0.119,0.16-0.178,0.344-0.178,0.549c0,0.126,0.024,0.24,0.073,0.344c0.049,0.103,0.117,0.192,0.203,0.269
		c0.086,0.077,0.188,0.137,0.305,0.179C178.531,6.884,178.657,6.905,178.793,6.905z M179.094,4.812
		c0.149-0.136,0.265-0.278,0.347-0.428c0.082-0.149,0.123-0.306,0.123-0.469c0-0.224-0.068-0.412-0.203-0.563
		s-0.327-0.228-0.574-0.228c-0.21,0-0.382,0.065-0.518,0.196c-0.135,0.131-0.203,0.306-0.203,0.524c0,0.136,0.028,0.251,0.084,0.347
		c0.056,0.096,0.132,0.181,0.228,0.256c0.095,0.074,0.205,0.141,0.329,0.199C178.829,4.706,178.958,4.761,179.094,4.812z"/>
</g>
<g enable-background="new    ">
	<path d="M155.63,56.908l0.175-1.428h-0.56v-0.399h0.609l0.126-1.036h-0.595V53.64h0.644l0.161-1.281h0.371L156.4,53.64h0.931
		l0.168-1.281h0.371l-0.168,1.281h0.567v0.405h-0.609l-0.126,1.036h0.595v0.399h-0.644l-0.175,1.428h-0.371l0.168-1.428h-0.924
		l-0.175,1.428H155.63z M156.232,55.081h0.924l0.126-1.036h-0.924L156.232,55.081z"/>
	<path d="M160.229,56.992c-0.21,0-0.405-0.03-0.584-0.091s-0.333-0.146-0.462-0.256c-0.128-0.109-0.23-0.239-0.305-0.389
		s-0.112-0.312-0.112-0.489c0-0.145,0.024-0.279,0.073-0.403c0.049-0.123,0.112-0.235,0.189-0.336
		c0.077-0.1,0.166-0.188,0.266-0.266c0.101-0.077,0.204-0.144,0.312-0.199v-0.028c-0.164-0.116-0.308-0.258-0.434-0.424
		c-0.126-0.165-0.189-0.367-0.189-0.605c0-0.172,0.033-0.329,0.098-0.469s0.154-0.26,0.266-0.36
		c0.112-0.101,0.245-0.179,0.399-0.234c0.154-0.057,0.322-0.084,0.504-0.084c0.196,0,0.371,0.029,0.525,0.087
		c0.154,0.059,0.286,0.141,0.396,0.245c0.11,0.105,0.194,0.231,0.252,0.378c0.059,0.147,0.087,0.308,0.087,0.479
		c0,0.117-0.02,0.229-0.059,0.336c-0.04,0.107-0.089,0.208-0.147,0.302c-0.059,0.093-0.124,0.177-0.196,0.252
		c-0.072,0.074-0.144,0.138-0.213,0.188v0.028c0.098,0.056,0.193,0.12,0.287,0.192c0.093,0.072,0.176,0.154,0.249,0.245
		c0.072,0.091,0.13,0.194,0.175,0.312c0.044,0.116,0.066,0.25,0.066,0.398c0,0.168-0.035,0.325-0.105,0.47
		c-0.07,0.145-0.168,0.271-0.294,0.378s-0.278,0.191-0.455,0.252S160.443,56.992,160.229,56.992z M160.243,56.565
		c0.261,0,0.472-0.072,0.633-0.217c0.161-0.146,0.242-0.334,0.242-0.567c0-0.145-0.033-0.269-0.098-0.371s-0.154-0.192-0.266-0.27
		c-0.112-0.077-0.241-0.146-0.388-0.21c-0.147-0.062-0.3-0.127-0.458-0.192c-0.178,0.121-0.326,0.263-0.445,0.424
		c-0.119,0.16-0.178,0.344-0.178,0.549c0,0.126,0.024,0.24,0.073,0.344c0.049,0.103,0.117,0.192,0.203,0.269
		c0.086,0.077,0.188,0.137,0.305,0.179C159.981,56.544,160.107,56.565,160.243,56.565z M160.544,54.473
		c0.149-0.136,0.265-0.278,0.347-0.428c0.082-0.149,0.123-0.306,0.123-0.469c0-0.224-0.068-0.412-0.203-0.563
		s-0.327-0.228-0.574-0.228c-0.21,0-0.382,0.065-0.518,0.196c-0.135,0.131-0.203,0.306-0.203,0.524c0,0.136,0.028,0.251,0.084,0.347
		c0.056,0.096,0.132,0.181,0.228,0.256c0.095,0.074,0.205,0.141,0.329,0.199C160.279,54.366,160.409,54.421,160.544,54.473z"/>
	<path d="M163.393,56.992c-0.238,0-0.447-0.044-0.626-0.133s-0.33-0.201-0.452-0.336l0.322-0.364
		c0.093,0.107,0.204,0.193,0.333,0.259c0.128,0.065,0.262,0.099,0.402,0.099c0.159,0,0.308-0.033,0.448-0.099
		c0.14-0.065,0.264-0.174,0.371-0.325s0.194-0.349,0.259-0.592c0.065-0.242,0.1-0.543,0.105-0.902
		c-0.14,0.177-0.304,0.317-0.49,0.42s-0.374,0.153-0.56,0.153c-0.387,0-0.695-0.114-0.924-0.343s-0.343-0.574-0.343-1.036
		c0-0.215,0.035-0.409,0.105-0.584c0.07-0.175,0.165-0.326,0.284-0.452s0.259-0.224,0.42-0.294c0.161-0.069,0.33-0.104,0.508-0.104
		c0.219,0,0.423,0.044,0.612,0.133s0.353,0.223,0.49,0.402c0.137,0.18,0.245,0.404,0.322,0.672c0.077,0.269,0.116,0.582,0.116,0.941
		c0,0.448-0.047,0.83-0.14,1.145c-0.093,0.315-0.22,0.572-0.378,0.771c-0.159,0.198-0.34,0.343-0.542,0.434
		C163.831,56.946,163.617,56.992,163.393,56.992z M163.603,54.738c0.149,0,0.307-0.047,0.473-0.14
		c0.166-0.094,0.321-0.245,0.465-0.455c-0.038-0.438-0.14-0.771-0.308-0.994c-0.168-0.225-0.395-0.336-0.679-0.336
		c-0.107,0-0.209,0.023-0.305,0.069c-0.096,0.047-0.179,0.113-0.249,0.2c-0.07,0.086-0.125,0.189-0.165,0.312
		c-0.04,0.121-0.06,0.254-0.06,0.398c0,0.294,0.068,0.525,0.203,0.693S163.323,54.738,163.603,54.738z"/>
	<path d="M167.313,56.992c-0.219,0-0.422-0.044-0.609-0.133c-0.187-0.089-0.349-0.223-0.487-0.402s-0.246-0.404-0.325-0.672
		c-0.08-0.269-0.119-0.583-0.119-0.942c0-0.447,0.047-0.829,0.14-1.145c0.093-0.314,0.219-0.571,0.378-0.77s0.339-0.343,0.542-0.434
		c0.203-0.092,0.417-0.137,0.641-0.137c0.243,0,0.451,0.045,0.626,0.137c0.175,0.091,0.325,0.204,0.452,0.339l-0.322,0.357
		c-0.093-0.107-0.204-0.192-0.333-0.256c-0.128-0.062-0.262-0.095-0.402-0.095c-0.154,0-0.301,0.033-0.441,0.099
		c-0.14,0.065-0.264,0.173-0.371,0.321c-0.107,0.149-0.194,0.345-0.259,0.585s-0.1,0.538-0.105,0.893
		c0.14-0.173,0.303-0.31,0.49-0.409c0.187-0.101,0.371-0.151,0.553-0.151c0.388,0,0.697,0.115,0.928,0.344s0.347,0.573,0.347,1.036
		c0,0.214-0.035,0.409-0.105,0.584c-0.07,0.175-0.166,0.325-0.287,0.451c-0.122,0.126-0.262,0.225-0.42,0.294
		C167.666,56.957,167.495,56.992,167.313,56.992z M167.313,56.537c0.112,0,0.215-0.023,0.308-0.07
		c0.093-0.046,0.175-0.112,0.245-0.199c0.07-0.086,0.125-0.188,0.164-0.308c0.04-0.119,0.06-0.253,0.06-0.402
		c0-0.294-0.067-0.525-0.203-0.693c-0.136-0.168-0.343-0.252-0.623-0.252c-0.145,0-0.301,0.045-0.469,0.137
		c-0.168,0.091-0.322,0.241-0.462,0.451c0.037,0.438,0.139,0.771,0.305,0.997C166.803,56.424,167.028,56.537,167.313,56.537z"/>
	<path d="M170.155,56.908c0.019-0.42,0.056-0.805,0.112-1.155c0.056-0.35,0.134-0.683,0.234-0.997
		c0.101-0.315,0.229-0.62,0.385-0.914c0.156-0.294,0.344-0.595,0.563-0.902h-2.226v-0.497h2.877v0.356
		c-0.266,0.336-0.482,0.658-0.647,0.967c-0.166,0.308-0.297,0.621-0.396,0.941c-0.098,0.319-0.169,0.657-0.213,1.015
		c-0.044,0.357-0.076,0.753-0.095,1.187H170.155z"/>
	<path d="M172.416,56.908l1.554-4.592h0.658l1.554,4.592h-0.623l-0.434-1.4h-1.673l-0.441,1.4H172.416z M173.816,54.339l-0.217,0.7
		h1.379l-0.217-0.7c-0.084-0.256-0.164-0.512-0.238-0.767c-0.075-0.254-0.149-0.514-0.224-0.78h-0.028
		c-0.07,0.267-0.143,0.526-0.217,0.78C173.979,53.827,173.9,54.083,173.816,54.339z"/>
	<path d="M176.182,56.908l1.554-4.592h0.658l1.554,4.592h-0.623l-0.434-1.4h-1.673l-0.441,1.4H176.182z M177.582,54.339l-0.217,0.7
		h1.379l-0.217-0.7c-0.084-0.256-0.164-0.512-0.238-0.767c-0.075-0.254-0.149-0.514-0.224-0.78h-0.028
		c-0.07,0.267-0.143,0.526-0.217,0.78C177.745,53.827,177.666,54.083,177.582,54.339z"/>
</g>
<g enable-background="new    ">
	<path d="M255.631,7.248l0.175-1.428h-0.56V5.421h0.608l0.126-1.036h-0.596V3.979h0.645l0.161-1.281h0.371l-0.161,1.281h0.932
		l0.168-1.281h0.371l-0.168,1.281h0.566v0.405h-0.609l-0.125,1.036h0.594V5.82h-0.644l-0.175,1.428h-0.371l0.168-1.428h-0.924
		l-0.176,1.428H255.631z M256.233,5.421h0.924l0.127-1.036h-0.925L256.233,5.421z"/>
	<path d="M259.11,7.248V2.656h2.646v0.49h-2.065V4.7h1.75v0.49h-1.75v2.058H259.11z"/>
	<path d="M264.066,7.248V6.016h-2.009V5.638l1.91-2.855h0.645v2.771h0.609v0.462h-0.609v1.232H264.066z M262.667,5.554h1.399V4.259
		c0-0.121,0.003-0.265,0.011-0.431c0.007-0.165,0.016-0.309,0.024-0.43h-0.028c-0.056,0.107-0.114,0.212-0.175,0.314
		s-0.124,0.208-0.188,0.315L262.667,5.554z"/>
	<path d="M265.438,7.248l1.555-4.592h0.657l1.554,4.592h-0.623l-0.434-1.4h-1.673l-0.44,1.4H265.438z M266.838,4.679l-0.217,0.7H268
		l-0.217-0.7c-0.084-0.256-0.164-0.512-0.238-0.767c-0.075-0.254-0.15-0.514-0.225-0.78h-0.027c-0.07,0.267-0.143,0.526-0.217,0.78
		C267.001,4.167,266.922,4.423,266.838,4.679z"/>
	<path d="M269.204,7.248l1.555-4.592h0.657l1.554,4.592h-0.623l-0.434-1.4h-1.673l-0.44,1.4H269.204z M270.604,4.679l-0.217,0.7
		h1.379l-0.217-0.7c-0.084-0.256-0.164-0.512-0.238-0.767c-0.075-0.254-0.15-0.514-0.225-0.78h-0.027
		c-0.07,0.267-0.143,0.526-0.217,0.78C270.767,4.167,270.688,4.423,270.604,4.679z"/>
	<path d="M275.119,7.248V6.016h-2.009V5.638l1.91-2.855h0.645v2.771h0.609v0.462h-0.609v1.232H275.119z M273.719,5.554h1.399V4.259
		c0-0.121,0.003-0.265,0.011-0.431c0.007-0.165,0.016-0.309,0.024-0.43h-0.028c-0.056,0.107-0.114,0.212-0.175,0.314
		s-0.124,0.208-0.188,0.315L273.719,5.554z"/>
	<path d="M277.023,7.248V6.772h1.022v-3.29h-0.812V3.111c0.205-0.037,0.384-0.083,0.535-0.137c0.152-0.054,0.288-0.118,0.41-0.192
		h0.44v3.99h0.925v0.476H277.023z"/>
</g>
<g enable-background="new    ">
	<path d="M255.631,56.908l0.175-1.428h-0.56v-0.399h0.608l0.126-1.036h-0.596V53.64h0.645l0.161-1.281h0.371l-0.161,1.281h0.932
		l0.168-1.281h0.371l-0.168,1.281h0.566v0.405h-0.609l-0.125,1.036h0.594v0.399h-0.644l-0.175,1.428h-0.371l0.168-1.428h-0.924
		l-0.176,1.428H255.631z M256.233,55.081h0.924l0.127-1.036h-0.925L256.233,55.081z"/>
	<path d="M259.11,56.908v-4.592h2.646v0.49h-2.065v1.441h1.743v0.497h-1.743v1.666h2.136v0.497H259.11z"/>
	<path d="M262.449,56.908v-0.343c0.337-0.336,0.635-0.64,0.896-0.91c0.262-0.271,0.481-0.521,0.658-0.753
		c0.178-0.23,0.312-0.443,0.406-0.637s0.141-0.382,0.141-0.563c0-0.257-0.07-0.467-0.211-0.63c-0.14-0.163-0.352-0.245-0.637-0.245
		c-0.187,0-0.359,0.053-0.518,0.157c-0.158,0.105-0.304,0.232-0.434,0.382l-0.33-0.329c0.188-0.205,0.386-0.37,0.596-0.493
		c0.21-0.124,0.462-0.186,0.756-0.186c0.415,0,0.742,0.12,0.98,0.36c0.237,0.24,0.356,0.559,0.356,0.955
		c0,0.21-0.046,0.422-0.136,0.634c-0.092,0.213-0.218,0.432-0.379,0.658c-0.16,0.227-0.352,0.462-0.574,0.707
		c-0.221,0.245-0.465,0.505-0.73,0.78c0.121-0.009,0.246-0.019,0.377-0.028c0.131-0.009,0.255-0.014,0.371-0.014h1.295v0.497
		H262.449z"/>
	<path d="M266.887,56.908c0.019-0.42,0.056-0.805,0.111-1.155c0.057-0.35,0.135-0.683,0.234-0.997
		c0.102-0.315,0.229-0.62,0.386-0.914c0.156-0.294,0.344-0.595,0.563-0.902h-2.227v-0.497h2.877v0.356
		c-0.266,0.336-0.481,0.658-0.646,0.967c-0.166,0.308-0.298,0.621-0.396,0.941c-0.098,0.319-0.169,0.657-0.213,1.015
		c-0.045,0.357-0.076,0.753-0.095,1.187H266.887z"/>
	<path d="M270.87,56.992c-0.452,0-0.805-0.2-1.057-0.602s-0.378-0.978-0.378-1.729c0-0.751,0.126-1.323,0.378-1.715
		s0.604-0.588,1.057-0.588c0.448,0,0.799,0.196,1.051,0.588s0.377,0.964,0.377,1.715c0,0.752-0.125,1.328-0.377,1.729
		S271.318,56.992,270.87,56.992z M270.87,56.53c0.131,0,0.249-0.036,0.354-0.108c0.105-0.072,0.196-0.185,0.273-0.336
		c0.076-0.151,0.137-0.346,0.178-0.581c0.043-0.235,0.063-0.517,0.063-0.844c0-0.326-0.021-0.606-0.063-0.84
		c-0.041-0.233-0.102-0.424-0.178-0.57c-0.077-0.147-0.168-0.256-0.273-0.326c-0.104-0.069-0.223-0.104-0.354-0.104
		s-0.25,0.035-0.356,0.104c-0.107,0.07-0.2,0.179-0.276,0.326c-0.077,0.146-0.137,0.337-0.179,0.57s-0.063,0.514-0.063,0.84
		c0,0.653,0.081,1.128,0.242,1.425C270.397,56.382,270.608,56.53,270.87,56.53z"/>
	<path d="M272.885,56.908v-0.343c0.337-0.336,0.635-0.64,0.896-0.91s0.48-0.521,0.658-0.753c0.178-0.23,0.312-0.443,0.406-0.637
		s0.14-0.382,0.14-0.563c0-0.257-0.069-0.467-0.21-0.63s-0.353-0.245-0.637-0.245c-0.188,0-0.359,0.053-0.518,0.157
		c-0.159,0.105-0.305,0.232-0.435,0.382l-0.329-0.329c0.187-0.205,0.385-0.37,0.596-0.493c0.209-0.124,0.461-0.186,0.756-0.186
		c0.414,0,0.742,0.12,0.979,0.36s0.356,0.559,0.356,0.955c0,0.21-0.045,0.422-0.136,0.634c-0.091,0.213-0.218,0.432-0.378,0.658
		c-0.161,0.227-0.353,0.462-0.574,0.707s-0.465,0.505-0.731,0.78c0.121-0.009,0.247-0.019,0.378-0.028
		c0.131-0.009,0.254-0.014,0.371-0.014h1.295v0.497H272.885z"/>
	<path d="M276.365,56.908v-0.343c0.337-0.336,0.635-0.64,0.896-0.91c0.262-0.271,0.481-0.521,0.658-0.753
		c0.178-0.23,0.312-0.443,0.406-0.637s0.141-0.382,0.141-0.563c0-0.257-0.07-0.467-0.211-0.63c-0.14-0.163-0.352-0.245-0.637-0.245
		c-0.187,0-0.359,0.053-0.518,0.157c-0.158,0.105-0.304,0.232-0.434,0.382l-0.33-0.329c0.188-0.205,0.386-0.37,0.596-0.493
		c0.21-0.124,0.462-0.186,0.756-0.186c0.415,0,0.742,0.12,0.98,0.36c0.237,0.24,0.356,0.559,0.356,0.955
		c0,0.21-0.046,0.422-0.136,0.634c-0.092,0.213-0.218,0.432-0.379,0.658c-0.16,0.227-0.352,0.462-0.574,0.707
		c-0.221,0.245-0.465,0.505-0.73,0.78c0.121-0.009,0.246-0.019,0.377-0.028c0.131-0.009,0.255-0.014,0.371-0.014h1.295v0.497
		H276.365z"/>
</g>
<g enable-background="new    ">
	<path d="M355.631,7.248l0.176-1.428h-0.561V5.421h0.609l0.126-1.036h-0.595V3.979h0.644l0.161-1.281h0.371l-0.161,1.281h0.931
		l0.168-1.281h0.371l-0.168,1.281h0.567v0.405h-0.608l-0.127,1.036h0.596V5.82h-0.645l-0.175,1.428h-0.371l0.168-1.428h-0.924
		l-0.175,1.428H355.631z M356.234,5.421h0.924l0.126-1.036h-0.924L356.234,5.421z"/>
	<path d="M358.502,7.248l1.554-4.592h0.657l1.555,4.592h-0.623l-0.434-1.4h-1.674l-0.44,1.4H358.502z M359.902,4.679l-0.217,0.7
		h1.379l-0.217-0.7c-0.084-0.256-0.163-0.512-0.238-0.767c-0.075-0.254-0.149-0.514-0.224-0.78h-0.028
		c-0.069,0.267-0.143,0.526-0.217,0.78C360.065,4.167,359.986,4.423,359.902,4.679z"/>
	<path d="M363.927,7.332c-0.178,0-0.34-0.018-0.487-0.053c-0.146-0.035-0.279-0.08-0.398-0.137
		c-0.119-0.056-0.227-0.119-0.322-0.192c-0.096-0.072-0.181-0.147-0.256-0.228l0.281-0.378c0.13,0.136,0.285,0.255,0.465,0.357
		s0.4,0.154,0.662,0.154c0.135,0,0.262-0.024,0.381-0.074c0.119-0.049,0.223-0.117,0.312-0.206s0.159-0.196,0.21-0.322
		s0.077-0.266,0.077-0.42c0-0.308-0.087-0.548-0.259-0.721c-0.173-0.173-0.404-0.259-0.693-0.259c-0.154,0-0.285,0.023-0.396,0.069
		c-0.109,0.047-0.231,0.114-0.367,0.203l-0.308-0.196l0.146-2.148h2.232v0.497h-1.729l-0.119,1.322
		c0.107-0.056,0.215-0.1,0.322-0.133c0.107-0.032,0.229-0.049,0.363-0.049c0.191,0,0.371,0.028,0.539,0.084s0.315,0.142,0.441,0.256
		s0.225,0.259,0.298,0.434c0.072,0.175,0.108,0.384,0.108,0.627c0,0.242-0.042,0.457-0.126,0.644s-0.196,0.345-0.336,0.473
		c-0.14,0.129-0.3,0.227-0.479,0.294S364.124,7.332,363.927,7.332z"/>
	<path d="M367.006,7.248c0.02-0.42,0.057-0.805,0.112-1.155c0.056-0.35,0.134-0.683,0.234-0.997c0.101-0.315,0.229-0.62,0.386-0.914
		c0.156-0.294,0.344-0.595,0.562-0.902h-2.226V2.782h2.877v0.356c-0.267,0.336-0.481,0.658-0.647,0.967
		c-0.166,0.308-0.297,0.621-0.396,0.941c-0.099,0.319-0.169,0.657-0.214,1.015c-0.044,0.357-0.076,0.753-0.094,1.187H367.006z"/>
	<path d="M370.682,7.332c-0.238,0-0.447-0.044-0.627-0.133s-0.33-0.201-0.451-0.336l0.322-0.364
		c0.093,0.107,0.203,0.193,0.332,0.259c0.128,0.065,0.262,0.099,0.402,0.099c0.158,0,0.309-0.033,0.447-0.099
		c0.141-0.065,0.264-0.174,0.371-0.325s0.194-0.349,0.26-0.592c0.064-0.242,0.1-0.543,0.105-0.902
		c-0.141,0.177-0.305,0.317-0.49,0.42c-0.188,0.103-0.374,0.153-0.561,0.153c-0.387,0-0.695-0.114-0.924-0.343
		s-0.344-0.574-0.344-1.036c0-0.215,0.035-0.409,0.105-0.584s0.164-0.326,0.283-0.452s0.26-0.224,0.42-0.294
		c0.162-0.069,0.33-0.104,0.508-0.104c0.22,0,0.424,0.044,0.613,0.133c0.188,0.089,0.352,0.223,0.49,0.402
		c0.137,0.18,0.244,0.404,0.321,0.672c0.077,0.269,0.116,0.582,0.116,0.941c0,0.448-0.047,0.83-0.141,1.145
		c-0.094,0.315-0.22,0.572-0.378,0.771c-0.159,0.198-0.34,0.343-0.542,0.434C371.12,7.286,370.906,7.332,370.682,7.332z
		 M370.891,5.078c0.15,0,0.307-0.047,0.473-0.14c0.166-0.094,0.321-0.245,0.466-0.455c-0.038-0.438-0.14-0.771-0.308-0.994
		c-0.168-0.225-0.395-0.336-0.68-0.336c-0.107,0-0.209,0.023-0.305,0.069c-0.096,0.047-0.178,0.113-0.248,0.2
		c-0.07,0.086-0.125,0.189-0.164,0.312c-0.04,0.121-0.061,0.254-0.061,0.398c0,0.294,0.068,0.525,0.203,0.693
		C370.404,4.994,370.612,5.078,370.891,5.078z"/>
	<path d="M374.377,7.332c-0.178,0-0.34-0.018-0.486-0.053s-0.281-0.081-0.402-0.14s-0.23-0.125-0.326-0.199
		c-0.096-0.075-0.18-0.154-0.255-0.238l0.294-0.378c0.135,0.14,0.293,0.264,0.473,0.371s0.402,0.161,0.668,0.161
		c0.271,0,0.492-0.074,0.666-0.221c0.172-0.147,0.258-0.347,0.258-0.599c0-0.131-0.023-0.251-0.073-0.36
		c-0.049-0.109-0.13-0.204-0.241-0.284c-0.112-0.079-0.26-0.14-0.441-0.182s-0.406-0.062-0.672-0.062V4.707
		c0.238,0,0.438-0.021,0.599-0.062c0.161-0.043,0.292-0.101,0.392-0.176c0.101-0.074,0.172-0.163,0.214-0.266
		s0.063-0.212,0.063-0.329c0-0.22-0.069-0.392-0.207-0.518s-0.325-0.189-0.563-0.189c-0.187,0-0.358,0.042-0.515,0.126
		s-0.302,0.193-0.438,0.329l-0.308-0.364c0.173-0.163,0.362-0.297,0.57-0.402c0.208-0.104,0.444-0.157,0.71-0.157
		c0.197,0,0.377,0.025,0.539,0.077c0.164,0.051,0.305,0.125,0.424,0.22c0.119,0.096,0.211,0.214,0.277,0.354
		c0.064,0.141,0.098,0.302,0.098,0.483c0,0.271-0.075,0.492-0.225,0.665c-0.148,0.173-0.346,0.306-0.588,0.399v0.027
		c0.136,0.033,0.262,0.081,0.379,0.144c0.115,0.063,0.219,0.143,0.307,0.238c0.09,0.096,0.158,0.206,0.207,0.332
		s0.074,0.267,0.074,0.42c0,0.196-0.039,0.374-0.116,0.532c-0.077,0.159-0.182,0.293-0.315,0.402
		c-0.133,0.11-0.287,0.194-0.465,0.252C374.774,7.303,374.583,7.332,374.377,7.332z"/>
	<path d="M377.639,7.332c-0.238,0-0.446-0.044-0.626-0.133s-0.33-0.201-0.452-0.336l0.322-0.364
		c0.094,0.107,0.205,0.193,0.333,0.259s0.263,0.099,0.402,0.099c0.159,0,0.308-0.033,0.448-0.099
		c0.14-0.065,0.264-0.174,0.371-0.325s0.193-0.349,0.259-0.592c0.065-0.242,0.101-0.543,0.104-0.902
		c-0.14,0.177-0.303,0.317-0.49,0.42c-0.186,0.103-0.373,0.153-0.56,0.153c-0.388,0-0.695-0.114-0.924-0.343
		s-0.343-0.574-0.343-1.036c0-0.215,0.035-0.409,0.104-0.584c0.07-0.175,0.165-0.326,0.284-0.452s0.259-0.224,0.42-0.294
		c0.16-0.069,0.33-0.104,0.508-0.104c0.219,0,0.423,0.044,0.611,0.133c0.189,0.089,0.354,0.223,0.49,0.402
		c0.138,0.18,0.245,0.404,0.322,0.672c0.077,0.269,0.115,0.582,0.115,0.941c0,0.448-0.047,0.83-0.14,1.145
		c-0.093,0.315-0.22,0.572-0.378,0.771s-0.34,0.343-0.543,0.434S377.864,7.332,377.639,7.332z M377.85,5.078
		c0.148,0,0.307-0.047,0.473-0.14c0.165-0.094,0.32-0.245,0.465-0.455c-0.037-0.438-0.141-0.771-0.309-0.994
		c-0.168-0.225-0.395-0.336-0.678-0.336c-0.107,0-0.209,0.023-0.305,0.069c-0.096,0.047-0.18,0.113-0.249,0.2
		c-0.069,0.086-0.125,0.189-0.165,0.312c-0.039,0.121-0.059,0.254-0.059,0.398c0,0.294,0.067,0.525,0.203,0.693
		C377.362,4.994,377.57,5.078,377.85,5.078z"/>
</g>
<g enable-background="new    ">
	<path d="M355.631,56.908l0.176-1.428h-0.561v-0.399h0.609l0.126-1.036h-0.595V53.64h0.644l0.161-1.281h0.371l-0.161,1.281h0.931
		l0.168-1.281h0.371l-0.168,1.281h0.567v0.405h-0.608l-0.127,1.036h0.596v0.399h-0.645l-0.175,1.428h-0.371l0.168-1.428h-0.924
		l-0.175,1.428H355.631z M356.234,55.081h0.924l0.126-1.036h-0.924L356.234,55.081z"/>
	<path d="M360.357,56.992c-0.22,0-0.423-0.044-0.608-0.133c-0.188-0.089-0.35-0.223-0.487-0.402s-0.246-0.404-0.325-0.672
		c-0.08-0.269-0.119-0.583-0.119-0.942c0-0.447,0.047-0.829,0.141-1.145c0.093-0.314,0.219-0.571,0.377-0.77
		c0.159-0.198,0.34-0.343,0.543-0.434c0.203-0.092,0.416-0.137,0.641-0.137c0.242,0,0.451,0.045,0.627,0.137
		c0.174,0.091,0.324,0.204,0.451,0.339l-0.322,0.357c-0.094-0.107-0.204-0.192-0.332-0.256c-0.129-0.062-0.263-0.095-0.402-0.095
		c-0.154,0-0.302,0.033-0.441,0.099c-0.141,0.065-0.264,0.173-0.371,0.321c-0.107,0.149-0.193,0.345-0.26,0.585
		c-0.064,0.24-0.1,0.538-0.104,0.893c0.14-0.173,0.304-0.31,0.49-0.409c0.187-0.101,0.371-0.151,0.553-0.151
		c0.388,0,0.696,0.115,0.928,0.344s0.347,0.573,0.347,1.036c0,0.214-0.035,0.409-0.105,0.584s-0.166,0.325-0.287,0.451
		s-0.262,0.225-0.42,0.294C360.709,56.957,360.54,56.992,360.357,56.992z M360.357,56.537c0.112,0,0.215-0.023,0.308-0.07
		c0.094-0.046,0.176-0.112,0.246-0.199c0.069-0.086,0.124-0.188,0.164-0.308c0.039-0.119,0.059-0.253,0.059-0.402
		c0-0.294-0.066-0.525-0.202-0.693s-0.343-0.252-0.623-0.252c-0.146,0-0.302,0.045-0.47,0.137c-0.168,0.091-0.321,0.241-0.461,0.451
		c0.037,0.438,0.139,0.771,0.305,0.997C359.847,56.424,360.073,56.537,360.357,56.537z"/>
	<path d="M361.981,56.908l1.555-4.592h0.657l1.554,4.592h-0.623l-0.434-1.4h-1.673l-0.44,1.4H361.981z M363.381,54.339l-0.217,0.7
		h1.379l-0.217-0.7c-0.084-0.256-0.164-0.512-0.238-0.767c-0.075-0.254-0.15-0.514-0.225-0.78h-0.027
		c-0.07,0.267-0.143,0.526-0.217,0.78C363.544,53.827,363.465,54.083,363.381,54.339z"/>
	<path d="M367.895,56.908v-1.232h-2.008v-0.378l1.91-2.855h0.645v2.771h0.609v0.462h-0.609v1.232H367.895z M366.496,55.214h1.399
		v-1.295c0-0.121,0.004-0.265,0.012-0.431c0.006-0.165,0.015-0.309,0.023-0.43h-0.027c-0.057,0.107-0.115,0.212-0.176,0.314
		s-0.123,0.208-0.188,0.315L366.496,55.214z"/>
	<path d="M371.123,56.992c-0.22,0-0.423-0.044-0.608-0.133c-0.188-0.089-0.35-0.223-0.487-0.402s-0.246-0.404-0.325-0.672
		c-0.08-0.269-0.119-0.583-0.119-0.942c0-0.447,0.047-0.829,0.141-1.145c0.093-0.314,0.219-0.571,0.377-0.77
		c0.159-0.198,0.34-0.343,0.543-0.434c0.203-0.092,0.416-0.137,0.641-0.137c0.242,0,0.451,0.045,0.627,0.137
		c0.174,0.091,0.324,0.204,0.451,0.339l-0.322,0.357c-0.094-0.107-0.204-0.192-0.332-0.256c-0.129-0.062-0.263-0.095-0.402-0.095
		c-0.154,0-0.302,0.033-0.441,0.099c-0.141,0.065-0.264,0.173-0.371,0.321c-0.107,0.149-0.193,0.345-0.26,0.585
		c-0.064,0.24-0.1,0.538-0.104,0.893c0.14-0.173,0.304-0.31,0.49-0.409c0.187-0.101,0.371-0.151,0.553-0.151
		c0.388,0,0.696,0.115,0.928,0.344s0.347,0.573,0.347,1.036c0,0.214-0.035,0.409-0.105,0.584s-0.166,0.325-0.287,0.451
		s-0.262,0.225-0.42,0.294C371.475,56.957,371.305,56.992,371.123,56.992z M371.123,56.537c0.112,0,0.215-0.023,0.308-0.07
		c0.094-0.046,0.176-0.112,0.246-0.199c0.069-0.086,0.124-0.188,0.164-0.308c0.039-0.119,0.059-0.253,0.059-0.402
		c0-0.294-0.066-0.525-0.202-0.693s-0.343-0.252-0.623-0.252c-0.146,0-0.302,0.045-0.47,0.137c-0.168,0.091-0.321,0.241-0.461,0.451
		c0.037,0.438,0.139,0.771,0.305,0.997C370.613,56.424,370.838,56.537,371.123,56.537z"/>
	<path d="M373.005,56.908v-0.343c0.337-0.336,0.635-0.64,0.896-0.91c0.262-0.271,0.481-0.521,0.658-0.753
		c0.178-0.23,0.312-0.443,0.406-0.637s0.141-0.382,0.141-0.563c0-0.257-0.07-0.467-0.211-0.63c-0.14-0.163-0.352-0.245-0.637-0.245
		c-0.187,0-0.359,0.053-0.518,0.157c-0.158,0.105-0.304,0.232-0.434,0.382l-0.33-0.329c0.188-0.205,0.386-0.37,0.596-0.493
		c0.21-0.124,0.462-0.186,0.756-0.186c0.415,0,0.742,0.12,0.98,0.36c0.237,0.24,0.356,0.559,0.356,0.955
		c0,0.21-0.046,0.422-0.136,0.634c-0.092,0.213-0.218,0.432-0.379,0.658c-0.16,0.227-0.352,0.462-0.574,0.707
		c-0.221,0.245-0.465,0.505-0.73,0.78c0.121-0.009,0.246-0.019,0.377-0.028c0.131-0.009,0.255-0.014,0.371-0.014h1.295v0.497
		H373.005z"/>
	<path d="M376.834,56.908v-4.592h2.646v0.49h-2.065v1.554h1.75v0.49h-1.75v2.058H376.834z"/>
</g>
</svg>
