<?xml version="1.0" encoding="utf-8"?>
<!-- Generator: Adobe Illustrator 16.0.4, SVG Export Plug-In . SVG Version: 6.00 Build 0)  -->
<!DOCTYPE svg PUBLIC "-//W3C//DTD SVG 1.1//EN" "http://www.w3.org/Graphics/SVG/1.1/DTD/svg11.dtd">
<svg version="1.1" id="Ebene_1" xmlns="http://www.w3.org/2000/svg" xmlns:xlink="http://www.w3.org/1999/xlink" x="0px" y="0px"
	 width="387.7px" height="75px" viewBox="0 0 387.7 75" enable-background="new 0 0 387.7 75" xml:space="preserve">
<rect fill="#FFA7C0" width="50" height="50"/>
<rect y="49.9" fill="#E67A94" width="50" height="25"/>
<rect x="200" fill="#F4AA41" width="50" height="50"/>
<rect x="200" y="50" fill="#E27022" width="50" height="25"/>
<rect x="100" fill="#B399C8" width="50" height="50"/>
<rect x="100" y="50" fill="#8967AA" width="50" height="25"/>
<rect x="300" fill="#A57939" width="50" height="50"/>
<rect x="300" y="50" fill="#6A462F" width="50" height="25"/>
<text transform="matrix(1 0 0 1 54.167 7.249)" font-family="'SourceSansPro-Regular'" font-size="7">#FFA7C0</text>
<text transform="matrix(1 0 0 1 54.167 56.9092)" font-family="'SourceSansPro-Regular'" font-size="7">#E67A94</text>
<text transform="matrix(1 0 0 1 155 7.249)" font-family="'SourceSansPro-Regular'" font-size="7">#B399C8</text>
<text transform="matrix(1 0 0 1 155 56.9092)" font-family="'SourceSansPro-Regular'" font-size="7">#8967AA</text>
<text transform="matrix(1 0 0 1 255.001 7.249)" font-family="'SourceSansPro-Regular'" font-size="7">#F4AA41</text>
<text transform="matrix(1 0 0 1 255.001 56.9092)" font-family="'SourceSansPro-Regular'" font-size="7">#E27022</text>
<text transform="matrix(1 0 0 1 355.002 7.249)" font-family="'SourceSansPro-Regular'" font-size="7">#A57939</text>
<text transform="matrix(1 0 0 1 355.002 56.9092)" font-family="'SourceSansPro-Regular'" font-size="7">#6A462F</text>
</svg>
