<?xml version="1.0" encoding="utf-8"?>
<!-- Generator: Adobe Illustrator 16.0.4, SVG Export Plug-In . SVG Version: 6.00 Build 0)  -->
<!DOCTYPE svg PUBLIC "-//W3C//DTD SVG 1.1//EN" "http://www.w3.org/Graphics/SVG/1.1/DTD/svg11.dtd">
<svg version="1.1" id="Ebene_1" xmlns="http://www.w3.org/2000/svg" xmlns:xlink="http://www.w3.org/1999/xlink" x="0px" y="0px"
	 width="206.5px" height="75.9px" viewBox="0 0 206.5 75.9" enable-background="new 0 0 206.5 75.9" xml:space="preserve">
<g id="_xD83C__xDF46_">
	<g>
		<path fill="#8967AA" d="M63.7,18.4c0.2,11.6-3.4,22-9.1,27.2c-0.1,0.1-0.2,0.2-0.3,0.3c-0.2,0.2-0.4,0.4-0.6,0.6
			c-0.3,0.301-0.6,0.601-0.9,0.9c-0.4,0.3-0.7,0.6-1.1,1c-0.2,0.2-0.4,0.3-0.6,0.4C50.5,49.2,50,49.6,49.4,50
			c-0.2,0.101-0.4,0.301-0.6,0.4c-6.1,3.899-13.6,5.8-21.3,5c-0.8-0.101-1.6-0.2-2.4-0.4c-1.2-0.3-2.3-0.7-3.3-1.2
			C57.7,53.5,54.5,21.301,54.4,18L63.7,18.4z"/>
		<path fill="#8967AA" d="M31,56.6c-1.2,0-2.4-0.101-3.7-0.2c-0.9-0.101-1.7-0.2-2.5-0.4c-1.2-0.3-2.4-0.7-3.6-1.3
			c-0.4-0.2-0.6-0.7-0.5-1.1c0.1-0.4,0.5-0.801,1-0.801c10.6-0.1,18.7-2.999,24.1-8.699c3.9-4.101,8.3-11.8,7.6-25.5
			c0-0.2,0-0.4,0-0.601c0-0.3,0.1-0.5,0.3-0.699C53.9,17.1,54.2,17,54.4,17l9.3,0.301c0.5,0,1,0.399,1,1
			c0.2,11.699-3.4,22.399-9.5,28v0.1c-0.1,0.1-0.2,0.2-0.2,0.2c-0.2,0.2-0.4,0.399-0.6,0.6c-0.3,0.3-0.6,0.601-0.9,0.9
			c-0.4,0.3-0.7,0.6-1.1,1c-0.1,0.1-0.3,0.2-0.4,0.3l-0.2,0.1c-0.6,0.5-1.2,0.9-1.8,1.301L49.7,51c-0.2,0.101-0.3,0.2-0.5,0.301
			C43.8,54.8,37.5,56.6,31,56.6z M27.9,54.5c7.1,0.7,14.3-1,20.3-4.899c0.2-0.101,0.3-0.2,0.4-0.3l0.2-0.101
			c0.5-0.399,1.1-0.8,1.6-1.2l0.2-0.199c0.1-0.101,0.2-0.2,0.3-0.301c0.4-0.3,0.7-0.6,1.1-0.899c0.3-0.3,0.6-0.601,0.9-0.8
			c0.2-0.2,0.4-0.4,0.6-0.601c0.1-0.1,0.2-0.2,0.2-0.2l0.1-0.1c5.5-5,8.9-14.8,8.8-25.5l-7.3-0.2c0.6,14-4.1,22.101-8.2,26.4
			C42.6,50.4,36.1,53.4,27.9,54.5z"/>
	</g>
	<g>
		<path fill="#B399C8" d="M46.4,17.2h-0.2C46.3,17,46.3,17,46.4,17.2z"/>
		<path fill="#B399C8" d="M46.4,18.2C46.4,18.2,46.3,18.2,46.4,18.2h-0.3c-0.4,0-0.7-0.3-0.8-0.6c-0.1-0.3-0.1-0.7,0.2-1
			c0.4-0.5,0.9-0.5,1.1-0.4c0.4,0.101,0.7,0.4,0.9,0.8c0.1,0.301,0.1,0.7-0.1,0.9C47,18,46.7,18.2,46.4,18.2z M46.2,17.2l-0.8,0.3
			c0.1,0.2,0.3,0.5,0.7,0.5c0.3,0.101,0.7-0.1,0.8-0.199L46.2,17.2z"/>
	</g>
	<g>
		<path fill="#B399C8" d="M21.7,53.8c-0.1,0-0.2-0.1-0.3-0.1c-5.3-2.899-8.4-8.8-7.1-14.899c1.6-7.5,9.1-12.4,16.9-10.9
			c0,0,8.1,2.6,13.4-3.8c1.8-2.2,2.2-6.2,1.8-6.9L57.2,18l-3-1.399C54.3,19.7,57.7,53.6,21.7,53.8z"/>
		<path fill="#B399C8" d="M21.7,54.8c-0.1,0-0.3,0-0.4-0.1c-0.1-0.1-0.3-0.1-0.4-0.2c-5.9-3.199-9-9.6-7.6-16
			c1.7-8,9.8-13.3,18.1-11.6h0.1c0.3,0.1,7.5,2.3,12.3-3.5c1.5-1.9,1.9-5.3,1.7-5.9c-0.2-0.3-0.1-0.699,0.1-1
			c0.2-0.3,0.6-0.399,0.9-0.399l6.8,0.5V16.5c0-0.399,0.2-0.699,0.5-0.899c0.3-0.2,0.7-0.2,1-0.101l3,1.4c0.4,0.2,0.7,0.7,0.5,1.2
			c-0.1,0.5-0.5,0.8-1,0.7L55.5,18.7C55.8,32.9,51.1,41,47,45.4C41.1,51.6,32.6,54.8,21.7,54.8L21.7,54.8z M28.3,28.6
			c-6.2,0-11.8,4.2-13.1,10.399C14,44.5,16.7,50.1,21.8,52.8l0,0C32,52.7,39.9,49.801,45.2,44.1c3.9-4.101,8.4-11.9,8-25.5l-5.8-0.4
			c0,1.9-0.7,4.7-2.2,6.5C40,31.301,31.8,29.1,31,28.9C30.1,28.7,29.2,28.6,28.3,28.6z"/>
	</g>
	<path d="M31,56.6c-1.2,0-2.4-0.101-3.6-0.2c-0.8-0.101-1.7-0.2-2.5-0.4C16.8,54.1,11.7,46.5,13.4,38.6
		c1.7-8.101,9.8-13.3,18.1-11.7c0.1,0,7.3,1.8,12-2.9c0.4-0.399,1-0.399,1.4,0c0.4,0.4,0.4,1,0,1.4c-5.4,5.5-13.5,3.5-13.8,3.4
		C23.8,27.5,16.8,32,15.3,39c-1.4,6.801,3,13.5,10,15.101c0.7,0.1,1.5,0.3,2.3,0.3c15.8,1.7,30.7-8.8,33.9-24l0.1-0.4
		c0.4-1.699,0.7-3.5,0.8-5.1c0-0.6,0.5-1,1.1-0.9c0.6,0,1,0.5,0.9,1.101c-0.1,1.8-0.5,3.6-0.9,5.399l-0.1,0.4
		C60.3,45.9,46.4,56.6,31,56.6z"/>
	<g>
		<path fill="#5C9E31" d="M64.8,20.801c0,0-3.7,0.5-6.8-1.801c-0.5,3.801-3.5,6-3.5,6s-3-2.199-3.5-6c-0.7,0.5-1.5,0.9-2.2,1.2
			c-2.4,0.9-4.6,0.601-4.6,0.601s-0.6-4.5,2.6-7.7c0.7-0.7,1.4-1.2,2.1-1.5c2.8-1.4,10.3-1.7,13.5,1.5
			C65.4,16.301,64.8,20.801,64.8,20.801z"/>
		<path fill="#5C9E31" d="M54.4,26c-0.2,0-0.4-0.1-0.6-0.199c-0.1-0.101-2.6-2-3.6-5.2c-0.4,0.2-0.8,0.399-1.2,0.5
			c-2.6,1-5,0.7-5.1,0.7c-0.4-0.101-0.8-0.4-0.9-0.9c0-0.2-0.7-5,2.8-8.5c0.7-0.7,1.4-1.2,2.3-1.7c3-1.6,11.1-1.899,14.7,1.7
			c3.5,3.5,2.9,8.3,2.8,8.5c-0.1,0.4-0.4,0.8-0.8,0.8c-0.1,0-3.2,0.4-6.3-1.2c-1,3.2-3.5,5.101-3.6,5.2C54.9,25.9,54.6,26,54.4,26z
			 M50.9,18c0.1,0,0.3,0,0.4,0.101c0.3,0.1,0.6,0.399,0.6,0.8c0.3,2.3,1.7,4,2.5,4.8c0.8-0.8,2.2-2.5,2.5-4.8c0-0.4,0.3-0.6,0.6-0.8
			c0.3-0.101,0.7-0.101,1,0.1c1.9,1.4,4.1,1.7,5.2,1.7l0,0c0-1.3-0.3-4-2.3-6c-2.9-2.9-9.9-2.6-12.3-1.3c-0.7,0.399-1.3,0.8-1.8,1.3
			c-2,2-2.3,4.7-2.3,6c0.8,0,2-0.1,3.3-0.6C49,19,49.7,18.7,50.2,18.2C50.5,18.1,50.7,18,50.9,18z M64.8,20.801L64.8,20.801
			L64.8,20.801z M64.8,20.801L64.8,20.801L64.8,20.801z"/>
	</g>
	<path fill="#FFFFFF" stroke="#000000" stroke-width="2" stroke-miterlimit="10" d="M40.9,33.4"/>
	<path d="M53.9,7.5c-0.3,0-0.7-0.199-0.9-0.5c-0.6-1-1.5-1.5-2.9-1.5c-0.6,0-1-0.399-1-1c0-0.6,0.4-1,1-1c2.6,0,4,1.301,4.7,2.5
		c0.3,0.5,0.1,1.101-0.4,1.4C54.2,7.5,54,7.5,53.9,7.5z"/>
	<path fill="none" stroke="#000000" stroke-width="2" stroke-miterlimit="10" d="M32,11.6"/>
	<path fill="#B1CC33" d="M54.4,25c0,0-3-2.199-3.5-6c-0.7,0.5-1.5,0.9-2.2,1.2c-2.4,0.9-4.6,0.601-4.6,0.601s-0.6-4.5,2.6-7.7
		c0.7-0.7,1.4-1.2,2.1-1.5c2.8-1.4,5.6-1,5.6-1V25z"/>
	<path d="M54.4,26c-0.2,0-0.4-0.1-0.6-0.199c-0.1-0.101-2.6-2-3.6-5.2c-0.4,0.2-0.8,0.399-1.2,0.5c-2.6,1-5,0.7-5.1,0.7
		c-0.4-0.101-0.8-0.4-0.9-0.9c0-0.2-0.7-5,2.8-8.5c0.7-0.7,1.4-1.2,2.3-1.7c3-1.6,11.1-1.899,14.7,1.7c3.5,3.5,2.9,8.3,2.8,8.5
		c-0.1,0.4-0.4,0.8-0.8,0.8c-0.1,0-3.2,0.4-6.3-1.2c-1,3.2-3.5,5.101-3.6,5.2C54.9,25.9,54.6,26,54.4,26z M50.9,18
		c0.1,0,0.3,0,0.4,0.101c0.3,0.1,0.6,0.399,0.6,0.8c0.3,2.3,1.7,4,2.5,4.8c0.8-0.8,2.2-2.5,2.5-4.8c0-0.4,0.3-0.6,0.6-0.8
		c0.3-0.101,0.7-0.101,1,0.1c1.9,1.4,4.1,1.7,5.2,1.7l0,0c0-1.3-0.3-4-2.3-6c-2.9-2.9-9.9-2.6-12.3-1.3c-0.7,0.399-1.3,0.8-1.8,1.3
		c-2,2-2.3,4.7-2.3,6c0.8,0,2-0.1,3.3-0.6C49,19,49.7,18.7,50.2,18.2C50.5,18.1,50.7,18,50.9,18z M64.8,20.801L64.8,20.801
		L64.8,20.801z M64.8,20.801L64.8,20.801L64.8,20.801z"/>
	<path d="M44.1,25.7c-0.3,0-0.5-0.1-0.7-0.3c-0.4-0.4-0.4-1,0-1.4c0.1-0.1,0.2-0.199,0.3-0.399c0.4-0.4,1-0.4,1.4-0.101
		c0.4,0.4,0.4,1,0.1,1.4c-0.1,0.1-0.3,0.3-0.4,0.4C44.6,25.6,44.3,25.7,44.1,25.7z"/>
</g>
<g id="_xD83D__xDC12__2_">
	<path fill="#A57939" d="M164,18.4c-1.3-2.4-3.5-3.9-5-4.6c-0.8-0.4-1.7-0.7-2.6-0.9c-3-0.7-5.101-2-6.2-2.8
		c-0.7-0.5-1.2-1.3-1.3-2.2c-0.2-1.8,1.3-2.5,4.1-2.2c2.4,0.3,3.9,2.101,4.7,3.2c0.5,0.8,1.1,1.6,1.899,1.9
		c2.2,1,2.4-2.101,2.4-2.101l-1.6-1.2l-3.7-3.6l-4-1.4L149,3.6l-1.9,1.6l-0.8,3.101l3,4.3l4.601,2.1l5,1.9l2.699,2.6L162.4,22
		l-1.7,1.7H158l-4.8-1.899L148,20.7l-3,1.4l-2,0.1l0.5-2.8l-1-1.2H140l-1.6,1.3l-2.101-2.1l-3.1-1.1l-4.601,3.5L127.2,24l0.399,3
		l1.4,3.7l2.1,3.3l-0.899,2.4l-4.8,5.5l-6.301,3.2l-5.199,2l-1.801,2.1l1.101,1.2l6.5-1.2l6.8-1.8l6.2-1.4l4.2-5.8l1.6-3.399
		l2.8,2.3l2,2.6l-1.7,4.9L140.2,49l-4.5,1.101l-2.4,1.7L134.4,53.5l4.1,1.101L142.1,54l5.101,1l5.3-1.6l1.9-6.7l0.199-5.3l5.4-3.3
		L163.7,32l0.5-3c0,0-0.7-1.5-1.9-3.199C166.4,22.9,164,18.4,164,18.4z"/>
	<path fill="#6A462F" d="M161,37.2l-0.4,2.601l2.301,3.8l6.6,2.1l0.6,3.7V54.8l-2.199,0.9l-2.601-1.2l-0.399-3.6
		c0,0-1.301-0.8-1.5-0.8c-0.2,0-7.101-3.7-7.101-3.7s-1.8-2.1-1.399-5.5L161,37.2"/>
	<polygon fill="#F4AA41" points="131.2,24.4 135.5,24.7 136.6,27.5 135.3,30 135,32.2 130.1,32.2 129.2,29.6 127.8,26.6 129,24.7 	
		"/>
	<path fill="none" stroke="#000000" stroke-width="2" stroke-linecap="round" stroke-linejoin="round" stroke-miterlimit="10" d="
		M161,9c-6.2-10.1-13.9-5.699-14.6-2.5c-0.601,2.801,0.5,6.2,9.3,8.601c3.3,0.899,5.2,2.7,6.3,4.6c1.3,2.2-0.9,4.9-3.4,4.101
		c-4.699-1.601-9.399-5-15-0.9"/>
	<path fill="none" stroke="#000000" stroke-width="2" stroke-linecap="round" stroke-linejoin="round" stroke-miterlimit="10" d="
		M140.4,28.801c5,0.3,2.8-9.7,2.8-9.7c-0.5-0.8-2.3-1.8-4.601,1.2c-1-3.5-5.1-3.7-5.1-3.7c-1.6,0.8-6.5,3-5.5,9"/>
	<path fill="none" stroke="#000000" stroke-width="2" stroke-linecap="round" stroke-linejoin="round" stroke-miterlimit="10" d="
		M129.2,29.6c0,0-3-3.8,0.8-4.601c3.8-0.8,5.3,0,5.3,0s3,0.801,0,4.601c0,0,1.101,3.399-2.7,3.399C128.8,33,129.2,29.6,129.2,29.6z"
		/>
	<path fill="none" stroke="#000000" stroke-width="2" stroke-linecap="round" stroke-linejoin="round" stroke-miterlimit="10" d="
		M136.4,39.801l-3.301,6c0,0-7.899,1.8-10.3,2.399c-1.8,0.5-5.399,1.601-7,2.101c-0.7,0.199-1.5,0.199-2.2-0.2
		c-1.1-0.601-1.899-2.8,5.801-5.2c6.8-2.2,11.8-7.6,12.1-12"/>
	<path fill="none" stroke="#000000" stroke-width="2" stroke-linecap="round" stroke-linejoin="round" stroke-miterlimit="10" d="
		M144.3,31c0,0,7.9,7.9,5.5,11.5C148,45.2,145.3,50.1,143.9,52.6c-0.5,0.899-1.4,1.5-2.5,1.5h-5c-2.601,0-2.9-3.9-0.301-4.2
		c0.2,0,0.301,0,0.5,0c1.101,0,4.101-0.6,4.601-1.6l3.1-6.9c0,0-2.899-4.3-6.1-4.9"/>
	<path fill="none" stroke="#000000" stroke-width="2" stroke-linecap="round" stroke-linejoin="round" stroke-miterlimit="10" d="
		M163.7,29.2c0,0,3,6.7-9.101,12.101c0,0,0.101,5.699-1.3,11c-0.3,0.999-1.2,1.6-2.2,1.399h-3.3"/>
	<path fill="none" stroke="#000000" stroke-width="2" stroke-linecap="round" stroke-linejoin="round" stroke-miterlimit="10" d="
		M157.4,46c1,3,6,4.2,8,4l0.1,2.8c0,1.301,1.2,2.4,2.5,2.301l0,0c1-0.101,2-0.7,2.1-1.7C170.4,50,169.4,46,169.4,46
		c-9.7-1.8-9.301-7.199-9.301-7.199"/>
</g>
<g enable-background="new    ">
	<path d="M58.269,68.558c-0.139,0-0.271-0.025-0.396-0.076s-0.235-0.114-0.328-0.191l0.164-0.221
		c0.085,0.069,0.173,0.126,0.262,0.168c0.089,0.043,0.192,0.064,0.31,0.064c0.128,0,0.224-0.029,0.288-0.088
		c0.064-0.059,0.096-0.131,0.096-0.216c0-0.051-0.013-0.095-0.04-0.132c-0.026-0.038-0.061-0.07-0.102-0.099
		c-0.041-0.027-0.088-0.053-0.142-0.074c-0.054-0.021-0.107-0.042-0.16-0.063c-0.069-0.024-0.139-0.052-0.208-0.082
		s-0.131-0.068-0.186-0.112s-0.1-0.095-0.134-0.153c-0.035-0.06-0.052-0.13-0.052-0.213c0-0.077,0.015-0.149,0.046-0.218
		c0.031-0.067,0.075-0.126,0.132-0.176c0.057-0.05,0.127-0.088,0.21-0.116c0.083-0.027,0.176-0.042,0.28-0.042
		c0.123,0,0.235,0.021,0.338,0.064c0.103,0.042,0.191,0.095,0.266,0.155l-0.156,0.208c-0.067-0.05-0.136-0.092-0.208-0.124
		c-0.072-0.031-0.151-0.048-0.236-0.048c-0.123,0-0.212,0.028-0.27,0.084c-0.057,0.057-0.086,0.122-0.086,0.196
		c0,0.046,0.012,0.085,0.036,0.118s0.056,0.062,0.096,0.088c0.04,0.025,0.086,0.048,0.138,0.068c0.052,0.02,0.106,0.04,0.162,0.062
		c0.069,0.026,0.139,0.055,0.21,0.084s0.134,0.066,0.19,0.11s0.102,0.098,0.138,0.162c0.036,0.063,0.054,0.141,0.054,0.231
		c0,0.08-0.015,0.155-0.046,0.225s-0.076,0.13-0.136,0.184c-0.06,0.054-0.135,0.096-0.224,0.126S58.383,68.558,58.269,68.558z"/>
	<path d="M59.437,68.51v-2.848h0.328v0.775l-0.012,0.4c0.093-0.088,0.19-0.163,0.292-0.227c0.101-0.062,0.22-0.094,0.356-0.094
		c0.205,0,0.355,0.064,0.45,0.192c0.094,0.128,0.142,0.317,0.142,0.567v1.232h-0.328v-1.188c0-0.184-0.029-0.316-0.088-0.397
		c-0.059-0.081-0.152-0.122-0.28-0.122c-0.102,0-0.191,0.025-0.268,0.076s-0.166,0.125-0.264,0.224v1.408H59.437z"/>
	<path d="M62.061,68.558c-0.163,0-0.298-0.048-0.406-0.144c-0.108-0.097-0.162-0.232-0.162-0.408c0-0.214,0.095-0.377,0.284-0.49
		c0.189-0.113,0.492-0.192,0.908-0.238c0-0.061-0.006-0.121-0.018-0.18c-0.012-0.059-0.033-0.11-0.062-0.156
		c-0.029-0.045-0.07-0.082-0.122-0.109c-0.052-0.028-0.118-0.042-0.198-0.042c-0.112,0-0.217,0.021-0.316,0.063
		c-0.099,0.043-0.187,0.091-0.264,0.145l-0.128-0.229c0.091-0.059,0.201-0.115,0.332-0.17c0.13-0.055,0.274-0.082,0.432-0.082
		c0.237,0,0.409,0.073,0.516,0.218c0.107,0.146,0.16,0.34,0.16,0.582v1.192h-0.272l-0.028-0.232h-0.012
		c-0.093,0.078-0.193,0.144-0.3,0.198C62.298,68.531,62.183,68.558,62.061,68.558z M62.157,68.295c0.093,0,0.181-0.022,0.264-0.066
		c0.083-0.044,0.17-0.108,0.264-0.193v-0.54c-0.163,0.021-0.299,0.046-0.41,0.075c-0.111,0.03-0.2,0.064-0.268,0.104
		c-0.068,0.04-0.118,0.086-0.148,0.138c-0.031,0.052-0.046,0.109-0.046,0.17c0,0.112,0.034,0.192,0.1,0.24
		C61.979,68.27,62.061,68.295,62.157,68.295z"/>
	<path d="M64.293,68.558c-0.246,0-0.441-0.088-0.586-0.264c-0.145-0.176-0.218-0.427-0.218-0.752c0-0.157,0.023-0.3,0.07-0.426
		c0.047-0.127,0.109-0.234,0.186-0.322c0.078-0.088,0.167-0.156,0.268-0.204c0.102-0.048,0.208-0.072,0.32-0.072
		c0.112,0,0.209,0.021,0.292,0.061c0.083,0.04,0.167,0.095,0.252,0.164l-0.016-0.332v-0.748h0.332v2.848h-0.272l-0.028-0.228h-0.012
		c-0.078,0.074-0.166,0.139-0.266,0.193S64.407,68.558,64.293,68.558z M64.365,68.283c0.091,0,0.176-0.022,0.256-0.066
		c0.08-0.044,0.16-0.111,0.24-0.202v-1.016c-0.083-0.075-0.162-0.128-0.238-0.158c-0.076-0.03-0.154-0.046-0.234-0.046
		c-0.077,0-0.15,0.018-0.218,0.054c-0.068,0.036-0.127,0.087-0.178,0.152s-0.091,0.144-0.12,0.233
		c-0.029,0.091-0.044,0.192-0.044,0.305c0,0.234,0.047,0.417,0.14,0.548S64.194,68.283,64.365,68.283z"/>
	<path d="M66.604,68.558c-0.12,0-0.234-0.022-0.342-0.067c-0.108-0.046-0.204-0.111-0.286-0.198s-0.149-0.193-0.198-0.32
		s-0.074-0.27-0.074-0.43c0-0.163,0.024-0.308,0.074-0.435c0.049-0.126,0.116-0.233,0.198-0.321s0.178-0.155,0.286-0.2
		c0.108-0.046,0.222-0.068,0.342-0.068s0.234,0.022,0.342,0.068c0.108,0.045,0.204,0.112,0.286,0.2s0.149,0.195,0.198,0.321
		c0.049,0.127,0.074,0.271,0.074,0.435c0,0.16-0.024,0.303-0.074,0.43s-0.116,0.233-0.198,0.32s-0.178,0.152-0.286,0.198
		C66.838,68.536,66.725,68.558,66.604,68.558z M66.604,68.287c0.083,0,0.159-0.019,0.228-0.055s0.128-0.086,0.178-0.151
		c0.049-0.065,0.087-0.144,0.114-0.234s0.04-0.192,0.04-0.304c0-0.112-0.013-0.214-0.04-0.307c-0.027-0.092-0.064-0.171-0.114-0.237
		c-0.05-0.067-0.109-0.118-0.178-0.154s-0.146-0.054-0.228-0.054s-0.159,0.018-0.228,0.054s-0.128,0.087-0.178,0.154
		c-0.05,0.066-0.087,0.146-0.114,0.237c-0.027,0.093-0.04,0.194-0.04,0.307c0,0.111,0.013,0.213,0.04,0.304s0.064,0.169,0.114,0.234
		c0.049,0.065,0.108,0.115,0.178,0.151S66.522,68.287,66.604,68.287z"/>
	<path d="M68.309,68.51l-0.54-1.944h0.336l0.288,1.124c0.021,0.094,0.041,0.185,0.06,0.272c0.019,0.088,0.038,0.177,0.056,0.268
		h0.016c0.021-0.091,0.042-0.181,0.064-0.27c0.021-0.09,0.044-0.18,0.068-0.271l0.3-1.124h0.32l0.304,1.124
		c0.024,0.094,0.047,0.185,0.07,0.272c0.022,0.088,0.044,0.177,0.066,0.268h0.016c0.021-0.091,0.041-0.18,0.06-0.268
		c0.019-0.088,0.039-0.179,0.06-0.272l0.284-1.124h0.312l-0.52,1.944h-0.4l-0.28-1.044c-0.024-0.094-0.046-0.186-0.066-0.276
		c-0.02-0.09-0.042-0.185-0.066-0.283h-0.016c-0.021,0.099-0.043,0.193-0.064,0.285c-0.021,0.093-0.045,0.185-0.072,0.278
		l-0.272,1.04H68.309z"/>
	<path d="M71.84,66.167c-0.064,0-0.118-0.021-0.162-0.061s-0.066-0.09-0.066-0.151c0-0.064,0.022-0.115,0.066-0.154
		s0.098-0.058,0.162-0.058s0.118,0.019,0.162,0.058c0.044,0.039,0.066,0.09,0.066,0.154c0,0.062-0.022,0.111-0.066,0.151
		C71.958,66.146,71.904,66.167,71.84,66.167z M71.672,68.51v-1.944H72v1.944H71.672z"/>
	<path d="M72.656,68.51v-1.944h0.272l0.028,0.28h0.012c0.093-0.093,0.191-0.171,0.294-0.234c0.103-0.062,0.222-0.094,0.358-0.094
		c0.205,0,0.355,0.064,0.45,0.192c0.094,0.128,0.142,0.317,0.142,0.567v1.232h-0.328v-1.188c0-0.184-0.029-0.316-0.088-0.397
		c-0.059-0.081-0.152-0.122-0.28-0.122c-0.102,0-0.191,0.025-0.268,0.076s-0.166,0.125-0.264,0.224v1.408H72.656z"/>
</g>
<g enable-background="new    ">
	<path d="M58.373,73.358c-0.104,0-0.191-0.016-0.262-0.048c-0.071-0.032-0.128-0.076-0.172-0.132
		c-0.044-0.057-0.075-0.124-0.094-0.204s-0.028-0.168-0.028-0.264v-1.076h-0.288v-0.248l0.304-0.021l0.04-0.544h0.276v0.544h0.524
		v0.269h-0.524v1.08c0,0.12,0.022,0.212,0.066,0.277c0.044,0.065,0.122,0.099,0.234,0.099c0.035,0,0.072-0.006,0.112-0.017
		s0.076-0.022,0.108-0.036l0.064,0.248c-0.053,0.02-0.111,0.036-0.174,0.051S58.434,73.358,58.373,73.358z"/>
	<path d="M59.113,73.31v-2.848h0.328v0.775l-0.012,0.4c0.093-0.088,0.19-0.163,0.292-0.227c0.101-0.062,0.22-0.094,0.356-0.094
		c0.205,0,0.355,0.064,0.45,0.192c0.094,0.128,0.142,0.317,0.142,0.567v1.232h-0.328v-1.188c0-0.184-0.029-0.316-0.088-0.397
		c-0.059-0.081-0.152-0.122-0.28-0.122c-0.102,0-0.191,0.025-0.268,0.076s-0.166,0.125-0.264,0.224v1.408H59.113z"/>
	<path d="M62.077,73.358c-0.131,0-0.253-0.023-0.366-0.07c-0.113-0.046-0.212-0.113-0.296-0.199
		c-0.084-0.087-0.15-0.193-0.198-0.318c-0.048-0.125-0.072-0.268-0.072-0.428s0.024-0.304,0.074-0.431
		c0.049-0.126,0.115-0.233,0.196-0.321c0.081-0.088,0.174-0.155,0.278-0.202s0.212-0.07,0.324-0.07c0.123,0,0.232,0.021,0.33,0.064
		c0.097,0.042,0.178,0.104,0.244,0.184s0.115,0.176,0.15,0.288s0.052,0.237,0.052,0.376c0,0.035,0,0.068-0.002,0.103
		c-0.001,0.033-0.005,0.062-0.01,0.086h-1.312c0.014,0.208,0.078,0.372,0.194,0.493c0.116,0.122,0.267,0.183,0.454,0.183
		c0.094,0,0.18-0.015,0.258-0.042c0.079-0.028,0.154-0.064,0.226-0.11l0.116,0.216c-0.085,0.054-0.18,0.101-0.284,0.141
		S62.21,73.358,62.077,73.358z M61.464,72.182h1.04c0-0.197-0.042-0.348-0.126-0.45s-0.202-0.154-0.354-0.154
		c-0.069,0-0.135,0.014-0.198,0.04c-0.063,0.027-0.12,0.066-0.17,0.118c-0.05,0.052-0.092,0.115-0.126,0.19
		C61.497,72.001,61.475,72.087,61.464,72.182z"/>
	<path d="M64.073,73.31v-1.944h0.272l0.028,0.353h0.012c0.066-0.123,0.147-0.22,0.242-0.292s0.198-0.108,0.31-0.108
		c0.078,0,0.147,0.014,0.208,0.04l-0.064,0.288c-0.032-0.011-0.062-0.019-0.088-0.024c-0.027-0.005-0.06-0.008-0.1-0.008
		c-0.083,0-0.168,0.033-0.258,0.101c-0.089,0.066-0.167,0.183-0.234,0.348v1.248H64.073z"/>
	<path d="M65.628,70.967c-0.064,0-0.118-0.021-0.162-0.061s-0.066-0.09-0.066-0.151c0-0.064,0.022-0.115,0.066-0.154
		s0.098-0.058,0.162-0.058s0.118,0.019,0.162,0.058c0.044,0.039,0.066,0.09,0.066,0.154c0,0.062-0.022,0.111-0.066,0.151
		C65.746,70.946,65.692,70.967,65.628,70.967z M65.46,73.31v-1.944h0.328v1.944H65.46z"/>
	<path d="M67.1,74.207c-0.12,0-0.229-0.012-0.328-0.034c-0.099-0.023-0.183-0.057-0.254-0.103c-0.07-0.045-0.125-0.1-0.164-0.164
		c-0.039-0.063-0.058-0.139-0.058-0.224c0-0.083,0.025-0.161,0.076-0.236c0.051-0.074,0.12-0.143,0.208-0.204v-0.016
		c-0.048-0.029-0.088-0.07-0.122-0.122c-0.033-0.052-0.05-0.116-0.05-0.194c0-0.082,0.022-0.154,0.068-0.216
		s0.093-0.109,0.144-0.144v-0.017c-0.064-0.053-0.122-0.124-0.174-0.214c-0.052-0.089-0.078-0.192-0.078-0.31
		c0-0.106,0.02-0.203,0.058-0.288s0.091-0.158,0.158-0.218c0.067-0.061,0.145-0.106,0.234-0.139
		c0.089-0.031,0.183-0.048,0.282-0.048c0.053,0,0.104,0.005,0.15,0.015c0.047,0.009,0.089,0.021,0.126,0.033h0.676v0.252h-0.4
		c0.045,0.046,0.083,0.104,0.114,0.173s0.046,0.145,0.046,0.228c0,0.104-0.019,0.198-0.056,0.282
		c-0.038,0.084-0.088,0.154-0.152,0.212s-0.139,0.102-0.226,0.134c-0.087,0.032-0.18,0.048-0.278,0.048
		c-0.048,0-0.097-0.006-0.148-0.018c-0.051-0.013-0.099-0.029-0.144-0.05c-0.035,0.029-0.064,0.062-0.088,0.098
		s-0.036,0.081-0.036,0.134c0,0.062,0.024,0.112,0.072,0.152c0.048,0.04,0.139,0.06,0.272,0.06h0.376c0.227,0,0.396,0.037,0.51,0.11
		s0.17,0.191,0.17,0.354c0,0.091-0.022,0.177-0.068,0.259c-0.045,0.081-0.11,0.152-0.196,0.214c-0.085,0.061-0.189,0.109-0.31,0.146
		C67.389,74.188,67.252,74.207,67.1,74.207z M67.148,73.978c0.093,0,0.178-0.012,0.254-0.034c0.076-0.022,0.141-0.052,0.194-0.088
		s0.095-0.078,0.124-0.126s0.044-0.098,0.044-0.147c0-0.091-0.033-0.154-0.1-0.188c-0.066-0.035-0.164-0.052-0.292-0.052h-0.336
		c-0.037,0-0.078-0.002-0.122-0.006s-0.087-0.013-0.13-0.026c-0.069,0.051-0.12,0.104-0.152,0.16
		c-0.032,0.056-0.048,0.112-0.048,0.168c0,0.104,0.05,0.187,0.15,0.248C66.834,73.948,66.972,73.978,67.148,73.978z M67.1,72.474
		c0.056,0,0.109-0.011,0.158-0.032s0.093-0.052,0.132-0.092s0.069-0.089,0.09-0.146c0.021-0.057,0.032-0.121,0.032-0.193
		c0-0.145-0.04-0.256-0.12-0.334c-0.08-0.079-0.177-0.118-0.292-0.118s-0.212,0.039-0.292,0.118c-0.08,0.078-0.12,0.189-0.12,0.334
		c0,0.072,0.011,0.137,0.032,0.193c0.021,0.058,0.051,0.106,0.09,0.146s0.083,0.07,0.132,0.092S67.044,72.474,67.1,72.474z"/>
	<path d="M68.46,73.31v-2.848h0.328v0.775l-0.012,0.4c0.093-0.088,0.19-0.163,0.292-0.227c0.101-0.062,0.22-0.094,0.356-0.094
		c0.205,0,0.355,0.064,0.45,0.192c0.094,0.128,0.142,0.317,0.142,0.567v1.232h-0.328v-1.188c0-0.184-0.029-0.316-0.088-0.397
		c-0.059-0.081-0.152-0.122-0.28-0.122c-0.102,0-0.191,0.025-0.268,0.076s-0.166,0.125-0.264,0.224v1.408H68.46z"/>
	<path d="M71.249,73.358c-0.104,0-0.191-0.016-0.262-0.048c-0.071-0.032-0.128-0.076-0.172-0.132
		c-0.044-0.057-0.075-0.124-0.094-0.204s-0.028-0.168-0.028-0.264v-1.076h-0.288v-0.248l0.304-0.021l0.04-0.544h0.276v0.544h0.524
		v0.269h-0.524v1.08c0,0.12,0.022,0.212,0.066,0.277c0.044,0.065,0.122,0.099,0.234,0.099c0.035,0,0.072-0.006,0.112-0.017
		s0.076-0.022,0.108-0.036l0.064,0.248c-0.053,0.02-0.111,0.036-0.174,0.051S71.31,73.358,71.249,73.358z"/>
	<path d="M73.404,73.358c-0.101,0-0.194-0.01-0.278-0.03c-0.084-0.02-0.161-0.046-0.23-0.079c-0.069-0.034-0.131-0.072-0.186-0.114
		c-0.055-0.043-0.104-0.088-0.146-0.136l0.168-0.217c0.077,0.08,0.167,0.151,0.27,0.212c0.103,0.062,0.23,0.093,0.382,0.093
		c0.155,0,0.281-0.042,0.38-0.126c0.099-0.084,0.148-0.198,0.148-0.343c0-0.074-0.014-0.143-0.042-0.206
		c-0.028-0.062-0.074-0.116-0.138-0.161c-0.064-0.046-0.148-0.08-0.252-0.104s-0.232-0.036-0.384-0.036v-0.252
		c0.136,0,0.25-0.012,0.342-0.036c0.092-0.023,0.167-0.057,0.224-0.1c0.057-0.043,0.098-0.094,0.122-0.152
		c0.024-0.059,0.036-0.121,0.036-0.188c0-0.126-0.039-0.225-0.118-0.296c-0.079-0.072-0.186-0.108-0.322-0.108
		c-0.106,0-0.205,0.024-0.294,0.072s-0.173,0.11-0.25,0.188l-0.176-0.208c0.099-0.093,0.207-0.17,0.326-0.229
		c0.119-0.061,0.254-0.09,0.406-0.09c0.112,0,0.214,0.015,0.308,0.044c0.093,0.029,0.174,0.071,0.242,0.126s0.121,0.122,0.158,0.202
		c0.037,0.079,0.056,0.172,0.056,0.275c0,0.155-0.042,0.281-0.128,0.38s-0.197,0.175-0.336,0.229v0.016
		c0.077,0.019,0.149,0.046,0.216,0.082c0.066,0.036,0.125,0.081,0.176,0.136s0.09,0.118,0.118,0.19
		c0.028,0.072,0.042,0.152,0.042,0.24c0,0.111-0.022,0.213-0.066,0.304c-0.044,0.091-0.104,0.167-0.18,0.229
		c-0.076,0.063-0.165,0.111-0.266,0.145S73.522,73.358,73.404,73.358z"/>
	<path d="M74.776,73.31v-1.944h0.272l0.028,0.353h0.012c0.066-0.123,0.147-0.22,0.242-0.292s0.198-0.108,0.31-0.108
		c0.078,0,0.147,0.014,0.208,0.04l-0.064,0.288c-0.032-0.011-0.062-0.019-0.088-0.024c-0.027-0.005-0.06-0.008-0.1-0.008
		c-0.083,0-0.168,0.033-0.258,0.101c-0.089,0.066-0.167,0.183-0.234,0.348v1.248H74.776z"/>
	<path d="M76.789,73.358c-0.246,0-0.441-0.088-0.586-0.264c-0.145-0.176-0.218-0.427-0.218-0.752c0-0.157,0.023-0.3,0.07-0.426
		c0.047-0.127,0.109-0.234,0.186-0.322c0.078-0.088,0.167-0.156,0.268-0.204c0.102-0.048,0.208-0.072,0.32-0.072
		c0.112,0,0.209,0.021,0.292,0.061c0.083,0.04,0.167,0.095,0.252,0.164l-0.016-0.332v-0.748h0.332v2.848h-0.272l-0.028-0.228h-0.012
		c-0.078,0.074-0.166,0.139-0.266,0.193S76.903,73.358,76.789,73.358z M76.86,73.083c0.091,0,0.176-0.022,0.256-0.066
		c0.08-0.044,0.16-0.111,0.24-0.202v-1.016c-0.083-0.075-0.162-0.128-0.238-0.158c-0.076-0.03-0.154-0.046-0.234-0.046
		c-0.077,0-0.15,0.018-0.218,0.054c-0.068,0.036-0.127,0.087-0.178,0.152s-0.091,0.144-0.12,0.233
		c-0.029,0.091-0.044,0.192-0.044,0.305c0,0.234,0.047,0.417,0.14,0.548S76.69,73.083,76.86,73.083z"/>
</g>
<g enable-background="new    ">
	<path d="M169.377,67.558c-0.139,0-0.271-0.025-0.396-0.076c-0.125-0.051-0.234-0.114-0.328-0.191l0.164-0.221
		c0.086,0.069,0.174,0.126,0.263,0.168c0.089,0.043,0.192,0.064,0.31,0.064c0.129,0,0.225-0.029,0.289-0.088
		c0.063-0.059,0.096-0.131,0.096-0.216c0-0.051-0.014-0.095-0.041-0.132c-0.025-0.038-0.061-0.07-0.102-0.099
		c-0.041-0.027-0.088-0.053-0.142-0.074c-0.054-0.021-0.106-0.042-0.16-0.063c-0.069-0.024-0.139-0.052-0.208-0.082
		s-0.131-0.068-0.186-0.112s-0.1-0.095-0.135-0.153c-0.035-0.06-0.052-0.13-0.052-0.213c0-0.077,0.015-0.149,0.046-0.218
		c0.031-0.067,0.074-0.126,0.133-0.176c0.057-0.05,0.127-0.088,0.209-0.116c0.083-0.027,0.176-0.042,0.28-0.042
		c0.122,0,0.235,0.021,0.338,0.064c0.103,0.042,0.191,0.095,0.267,0.155l-0.156,0.208c-0.066-0.05-0.137-0.092-0.208-0.124
		c-0.072-0.031-0.151-0.048-0.236-0.048c-0.122,0-0.212,0.028-0.271,0.084c-0.057,0.057-0.086,0.122-0.086,0.196
		c0,0.046,0.013,0.085,0.037,0.118c0.023,0.033,0.056,0.062,0.096,0.088c0.039,0.025,0.086,0.048,0.138,0.068
		c0.052,0.02,0.106,0.04,0.162,0.062c0.069,0.026,0.14,0.055,0.21,0.084s0.134,0.066,0.189,0.11
		c0.057,0.044,0.103,0.098,0.139,0.162c0.035,0.063,0.054,0.141,0.054,0.231c0,0.08-0.015,0.155-0.046,0.225
		s-0.076,0.13-0.136,0.184s-0.135,0.096-0.224,0.126C169.594,67.543,169.492,67.558,169.377,67.558z"/>
	<path d="M170.545,67.51v-2.848h0.328v0.775l-0.012,0.4c0.093-0.088,0.189-0.163,0.291-0.227c0.102-0.062,0.221-0.094,0.356-0.094
		c0.205,0,0.355,0.064,0.45,0.192c0.094,0.128,0.142,0.317,0.142,0.567v1.232h-0.327v-1.188c0-0.184-0.029-0.316-0.089-0.397
		c-0.059-0.081-0.151-0.122-0.28-0.122c-0.102,0-0.19,0.025-0.268,0.076s-0.166,0.125-0.264,0.224v1.408H170.545z"/>
	<path d="M173.169,67.558c-0.163,0-0.298-0.048-0.405-0.144c-0.108-0.097-0.162-0.232-0.162-0.408c0-0.214,0.094-0.377,0.283-0.49
		s0.492-0.192,0.908-0.238c0-0.061-0.006-0.121-0.018-0.18s-0.033-0.11-0.062-0.156c-0.029-0.045-0.07-0.082-0.121-0.109
		c-0.053-0.028-0.119-0.042-0.199-0.042c-0.111,0-0.217,0.021-0.315,0.063c-0.099,0.043-0.187,0.091-0.265,0.145l-0.127-0.229
		c0.09-0.059,0.201-0.115,0.332-0.17c0.13-0.055,0.273-0.082,0.432-0.082c0.237,0,0.409,0.073,0.516,0.218
		c0.107,0.146,0.16,0.34,0.16,0.582v1.192h-0.271l-0.028-0.232h-0.013c-0.093,0.078-0.193,0.144-0.299,0.198
		C173.406,67.531,173.291,67.558,173.169,67.558z M173.266,67.295c0.093,0,0.181-0.022,0.264-0.066
		c0.082-0.044,0.17-0.108,0.264-0.193v-0.54c-0.162,0.021-0.299,0.046-0.41,0.075c-0.11,0.03-0.199,0.064-0.268,0.104
		s-0.117,0.086-0.148,0.138c-0.03,0.052-0.046,0.109-0.046,0.17c0,0.112,0.034,0.192,0.101,0.24S173.169,67.295,173.266,67.295z"/>
	<path d="M175.401,67.558c-0.245,0-0.44-0.088-0.587-0.264c-0.145-0.176-0.217-0.427-0.217-0.752c0-0.157,0.023-0.3,0.069-0.426
		c0.047-0.127,0.108-0.234,0.187-0.322c0.077-0.088,0.166-0.156,0.268-0.204s0.208-0.072,0.32-0.072
		c0.111,0,0.209,0.021,0.292,0.061s0.167,0.095,0.252,0.164l-0.017-0.332v-0.748h0.332v2.848h-0.271l-0.028-0.228h-0.012
		c-0.077,0.074-0.166,0.139-0.267,0.193C175.623,67.531,175.516,67.558,175.401,67.558z M175.473,67.283
		c0.092,0,0.177-0.022,0.256-0.066c0.08-0.044,0.16-0.111,0.24-0.202v-1.016c-0.082-0.075-0.162-0.128-0.238-0.158
		c-0.075-0.03-0.153-0.046-0.233-0.046c-0.077,0-0.149,0.018-0.218,0.054s-0.127,0.087-0.178,0.152s-0.092,0.144-0.121,0.233
		c-0.029,0.091-0.043,0.192-0.043,0.305c0,0.234,0.047,0.417,0.14,0.548S175.303,67.283,175.473,67.283z"/>
	<path d="M177.713,67.558c-0.12,0-0.234-0.022-0.342-0.067c-0.108-0.046-0.203-0.111-0.286-0.198s-0.149-0.193-0.198-0.32
		s-0.074-0.27-0.074-0.43c0-0.163,0.025-0.308,0.074-0.435c0.049-0.126,0.115-0.233,0.198-0.321s0.178-0.155,0.286-0.2
		c0.107-0.046,0.222-0.068,0.342-0.068s0.234,0.022,0.342,0.068c0.108,0.045,0.203,0.112,0.286,0.2s0.149,0.195,0.198,0.321
		c0.049,0.127,0.074,0.271,0.074,0.435c0,0.16-0.025,0.303-0.074,0.43s-0.115,0.233-0.198,0.32s-0.178,0.152-0.286,0.198
		C177.947,67.536,177.833,67.558,177.713,67.558z M177.713,67.287c0.082,0,0.158-0.019,0.229-0.055
		c0.068-0.036,0.128-0.086,0.178-0.151c0.049-0.065,0.087-0.144,0.113-0.234c0.027-0.091,0.041-0.192,0.041-0.304
		c0-0.112-0.014-0.214-0.041-0.307c-0.026-0.092-0.064-0.171-0.113-0.237c-0.05-0.067-0.109-0.118-0.178-0.154
		c-0.07-0.036-0.146-0.054-0.229-0.054s-0.158,0.018-0.229,0.054c-0.068,0.036-0.128,0.087-0.178,0.154
		c-0.049,0.066-0.087,0.146-0.113,0.237c-0.027,0.093-0.041,0.194-0.041,0.307c0,0.111,0.014,0.213,0.041,0.304
		c0.026,0.091,0.064,0.169,0.113,0.234c0.05,0.065,0.109,0.115,0.178,0.151C177.555,67.268,177.631,67.287,177.713,67.287z"/>
	<path d="M179.417,67.51l-0.54-1.944h0.336l0.288,1.124c0.021,0.094,0.041,0.185,0.06,0.272c0.02,0.088,0.037,0.177,0.057,0.268
		h0.016c0.021-0.091,0.043-0.181,0.064-0.27c0.021-0.09,0.043-0.18,0.067-0.271l0.3-1.124h0.32l0.305,1.124
		c0.023,0.094,0.047,0.185,0.069,0.272s0.044,0.177,0.065,0.268h0.017c0.021-0.091,0.041-0.18,0.06-0.268
		c0.02-0.088,0.039-0.179,0.061-0.272l0.283-1.124h0.312l-0.52,1.944h-0.4l-0.279-1.044c-0.025-0.094-0.047-0.186-0.066-0.276
		c-0.02-0.09-0.043-0.185-0.066-0.283h-0.016c-0.021,0.099-0.043,0.193-0.064,0.285c-0.021,0.093-0.045,0.185-0.072,0.278
		l-0.271,1.04H179.417z"/>
	<path d="M182.949,65.167c-0.064,0-0.119-0.021-0.162-0.061c-0.045-0.04-0.066-0.09-0.066-0.151c0-0.064,0.021-0.115,0.066-0.154
		c0.043-0.039,0.098-0.058,0.162-0.058c0.063,0,0.117,0.019,0.162,0.058c0.043,0.039,0.065,0.09,0.065,0.154
		c0,0.062-0.022,0.111-0.065,0.151C183.066,65.146,183.013,65.167,182.949,65.167z M182.781,67.51v-1.944h0.327v1.944H182.781z"/>
	<path d="M183.765,67.51v-1.944h0.272l0.027,0.28h0.012c0.094-0.093,0.191-0.171,0.295-0.234c0.102-0.062,0.221-0.094,0.357-0.094
		c0.205,0,0.355,0.064,0.45,0.192s0.142,0.317,0.142,0.567v1.232h-0.328v-1.188c0-0.184-0.029-0.316-0.088-0.397
		s-0.152-0.122-0.279-0.122c-0.102,0-0.191,0.025-0.269,0.076s-0.165,0.125-0.265,0.224v1.408H183.765z"/>
</g>
<g enable-background="new    ">
	<path d="M169.48,72.358c-0.104,0-0.191-0.016-0.262-0.048s-0.128-0.076-0.172-0.132c-0.044-0.057-0.075-0.124-0.094-0.204
		s-0.028-0.168-0.028-0.264v-1.076h-0.288v-0.248l0.305-0.021l0.039-0.544h0.276v0.544h0.524v0.269h-0.524v1.08
		c0,0.12,0.022,0.212,0.066,0.277s0.122,0.099,0.233,0.099c0.035,0,0.072-0.006,0.112-0.017s0.076-0.022,0.108-0.036l0.063,0.248
		c-0.054,0.02-0.111,0.036-0.174,0.051S169.543,72.358,169.48,72.358z"/>
	<path d="M170.221,72.31v-2.848h0.328v0.775l-0.012,0.4c0.094-0.088,0.19-0.163,0.292-0.227c0.101-0.062,0.22-0.094,0.356-0.094
		c0.205,0,0.355,0.064,0.449,0.192c0.095,0.128,0.143,0.317,0.143,0.567v1.232h-0.328v-1.188c0-0.184-0.029-0.316-0.088-0.397
		s-0.152-0.122-0.28-0.122c-0.102,0-0.19,0.025-0.269,0.076c-0.076,0.051-0.165,0.125-0.264,0.224v1.408H170.221z"/>
	<path d="M173.186,72.358c-0.131,0-0.254-0.023-0.367-0.07c-0.113-0.046-0.211-0.113-0.295-0.199
		c-0.084-0.087-0.15-0.193-0.199-0.318c-0.047-0.125-0.071-0.268-0.071-0.428s0.024-0.304,0.073-0.431
		c0.05-0.126,0.115-0.233,0.197-0.321c0.08-0.088,0.174-0.155,0.277-0.202s0.212-0.07,0.324-0.07c0.123,0,0.232,0.021,0.33,0.064
		c0.098,0.042,0.178,0.104,0.244,0.184c0.064,0.08,0.115,0.176,0.149,0.288s0.052,0.237,0.052,0.376c0,0.035,0,0.068-0.002,0.103
		c-0.001,0.033-0.004,0.062-0.01,0.086h-1.312c0.014,0.208,0.078,0.372,0.195,0.493c0.115,0.122,0.267,0.183,0.453,0.183
		c0.094,0,0.18-0.015,0.258-0.042c0.079-0.028,0.154-0.064,0.227-0.11l0.115,0.216c-0.085,0.054-0.18,0.101-0.283,0.141
		S173.318,72.358,173.186,72.358z M172.572,71.182h1.041c0-0.197-0.043-0.348-0.127-0.45s-0.201-0.154-0.354-0.154
		c-0.069,0-0.135,0.014-0.197,0.04c-0.063,0.027-0.12,0.066-0.171,0.118c-0.05,0.052-0.093,0.115-0.126,0.19
		C172.605,71.001,172.584,71.087,172.572,71.182z"/>
	<path d="M176.041,72.358c-0.091,0-0.185-0.021-0.282-0.065c-0.097-0.044-0.188-0.105-0.274-0.183h-0.012l-0.027,0.2h-0.264v-2.848
		h0.327v0.775l-0.008,0.353c0.088-0.077,0.185-0.143,0.288-0.194s0.211-0.078,0.32-0.078c0.125,0,0.236,0.023,0.332,0.07
		s0.176,0.113,0.242,0.2c0.064,0.086,0.114,0.19,0.147,0.312s0.05,0.257,0.05,0.406c0,0.165-0.022,0.313-0.068,0.444
		c-0.045,0.13-0.105,0.241-0.184,0.332c-0.077,0.09-0.166,0.159-0.268,0.205C176.26,72.335,176.152,72.358,176.041,72.358z
		 M175.984,72.083c0.08,0,0.154-0.019,0.223-0.055s0.127-0.086,0.176-0.151s0.088-0.146,0.116-0.242
		c0.028-0.097,0.042-0.204,0.042-0.324c0-0.106-0.01-0.204-0.027-0.292c-0.02-0.088-0.049-0.163-0.091-0.226
		c-0.041-0.063-0.095-0.111-0.159-0.146c-0.066-0.034-0.145-0.052-0.234-0.052c-0.158,0-0.331,0.088-0.521,0.264v1.021
		c0.085,0.074,0.171,0.127,0.255,0.157C175.848,72.067,175.921,72.083,175.984,72.083z"/>
	<path d="M177.785,72.358c-0.163,0-0.299-0.048-0.406-0.144c-0.107-0.097-0.162-0.232-0.162-0.408c0-0.214,0.095-0.377,0.284-0.49
		c0.188-0.113,0.491-0.192,0.907-0.238c0-0.061-0.006-0.121-0.018-0.18s-0.033-0.11-0.062-0.156
		c-0.029-0.045-0.069-0.082-0.121-0.109c-0.053-0.028-0.118-0.042-0.198-0.042c-0.112,0-0.218,0.021-0.315,0.063
		c-0.1,0.043-0.188,0.091-0.265,0.145l-0.128-0.229c0.091-0.059,0.201-0.115,0.332-0.17s0.274-0.082,0.432-0.082
		c0.238,0,0.41,0.073,0.516,0.218c0.107,0.146,0.16,0.34,0.16,0.582v1.192h-0.271l-0.027-0.232h-0.013
		c-0.093,0.078-0.193,0.144-0.3,0.198C178.021,72.331,177.907,72.358,177.785,72.358z M177.881,72.094
		c0.094,0,0.182-0.022,0.264-0.066c0.083-0.044,0.171-0.108,0.264-0.193v-0.54c-0.162,0.021-0.299,0.046-0.409,0.075
		c-0.11,0.03-0.2,0.064-0.269,0.104s-0.117,0.086-0.147,0.138s-0.046,0.109-0.046,0.17c0,0.112,0.033,0.192,0.1,0.24
		S177.785,72.094,177.881,72.094z"/>
	<path d="M180.121,72.358c-0.129,0-0.248-0.022-0.36-0.067c-0.112-0.046-0.208-0.111-0.29-0.198
		c-0.081-0.087-0.145-0.193-0.191-0.32s-0.07-0.27-0.07-0.43c0-0.163,0.025-0.308,0.076-0.435c0.051-0.126,0.118-0.233,0.203-0.321
		c0.086-0.088,0.186-0.155,0.299-0.2c0.113-0.046,0.232-0.068,0.357-0.068c0.129,0,0.238,0.022,0.328,0.068
		c0.091,0.045,0.171,0.099,0.24,0.16l-0.168,0.216c-0.057-0.051-0.115-0.092-0.178-0.124s-0.133-0.048-0.211-0.048
		c-0.088,0-0.169,0.018-0.243,0.054c-0.075,0.036-0.139,0.087-0.192,0.154c-0.053,0.066-0.096,0.146-0.126,0.237
		c-0.03,0.093-0.046,0.194-0.046,0.307c0,0.111,0.015,0.213,0.044,0.304s0.07,0.169,0.122,0.234
		c0.053,0.065,0.115,0.115,0.189,0.151c0.075,0.036,0.156,0.055,0.244,0.055c0.092,0,0.174-0.02,0.25-0.059
		c0.076-0.038,0.145-0.084,0.207-0.138l0.144,0.22c-0.088,0.077-0.186,0.139-0.292,0.183
		C180.35,72.337,180.238,72.358,180.121,72.358z"/>
	<path d="M181.177,72.31v-2.848h0.323v1.928h0.013l0.828-1.024h0.364l-0.652,0.78l0.74,1.164h-0.36l-0.567-0.936l-0.365,0.424v0.512
		H181.177z"/>
	<path d="M183.773,73.207c-0.121,0-0.23-0.012-0.328-0.034c-0.1-0.023-0.184-0.057-0.254-0.103c-0.07-0.045-0.125-0.1-0.164-0.164
		c-0.039-0.063-0.059-0.139-0.059-0.224c0-0.083,0.025-0.161,0.076-0.236c0.051-0.074,0.12-0.143,0.208-0.204v-0.016
		c-0.048-0.029-0.089-0.07-0.122-0.122s-0.05-0.116-0.05-0.194c0-0.082,0.022-0.154,0.067-0.216
		c0.046-0.062,0.094-0.109,0.145-0.144v-0.017c-0.064-0.053-0.122-0.124-0.174-0.214c-0.053-0.089-0.078-0.192-0.078-0.31
		c0-0.106,0.02-0.203,0.059-0.288c0.038-0.085,0.091-0.158,0.157-0.218c0.067-0.061,0.146-0.106,0.234-0.139
		c0.089-0.031,0.183-0.048,0.282-0.048c0.053,0,0.104,0.005,0.149,0.015c0.047,0.009,0.089,0.021,0.126,0.033h0.676v0.252h-0.399
		c0.046,0.046,0.083,0.104,0.114,0.173c0.03,0.069,0.045,0.145,0.045,0.228c0,0.104-0.018,0.198-0.055,0.282
		c-0.038,0.084-0.089,0.154-0.152,0.212c-0.064,0.058-0.14,0.102-0.227,0.134c-0.086,0.032-0.18,0.048-0.277,0.048
		c-0.049,0-0.098-0.006-0.148-0.018c-0.051-0.013-0.099-0.029-0.145-0.05c-0.034,0.029-0.063,0.062-0.088,0.098
		c-0.023,0.036-0.035,0.081-0.035,0.134c0,0.062,0.023,0.112,0.072,0.152c0.047,0.04,0.139,0.06,0.271,0.06h0.376
		c0.227,0,0.396,0.037,0.51,0.11s0.17,0.191,0.17,0.354c0,0.091-0.022,0.177-0.067,0.259c-0.046,0.081-0.111,0.152-0.196,0.214
		c-0.085,0.061-0.188,0.109-0.31,0.146C184.062,73.188,183.926,73.207,183.773,73.207z M183.821,72.978
		c0.093,0,0.178-0.012,0.254-0.034c0.075-0.022,0.141-0.052,0.194-0.088c0.053-0.036,0.094-0.078,0.123-0.126
		s0.045-0.098,0.045-0.147c0-0.091-0.033-0.154-0.101-0.188c-0.066-0.035-0.164-0.052-0.292-0.052h-0.336
		c-0.037,0-0.078-0.002-0.122-0.006s-0.087-0.013-0.13-0.026c-0.069,0.051-0.12,0.104-0.152,0.16
		c-0.031,0.056-0.048,0.112-0.048,0.168c0,0.104,0.05,0.187,0.15,0.248C183.507,72.948,183.645,72.978,183.821,72.978z
		 M183.773,71.474c0.056,0,0.108-0.011,0.158-0.032c0.049-0.021,0.093-0.052,0.131-0.092c0.039-0.04,0.069-0.089,0.09-0.146
		c0.021-0.057,0.033-0.121,0.033-0.193c0-0.145-0.041-0.256-0.121-0.334c-0.08-0.079-0.177-0.118-0.291-0.118
		c-0.115,0-0.213,0.039-0.293,0.118c-0.08,0.078-0.119,0.189-0.119,0.334c0,0.072,0.01,0.137,0.031,0.193
		c0.021,0.058,0.052,0.106,0.09,0.146c0.039,0.04,0.084,0.07,0.133,0.092S183.717,71.474,183.773,71.474z"/>
	<path d="M185.133,72.31v-1.944h0.271l0.028,0.353h0.013c0.066-0.123,0.146-0.22,0.241-0.292s0.198-0.108,0.31-0.108
		c0.078,0,0.147,0.014,0.209,0.04l-0.064,0.288c-0.031-0.011-0.062-0.019-0.088-0.024c-0.027-0.005-0.061-0.008-0.1-0.008
		c-0.083,0-0.169,0.033-0.258,0.101c-0.09,0.066-0.168,0.183-0.234,0.348v1.248H185.133z"/>
	<path d="M187.236,72.358c-0.119,0-0.233-0.022-0.342-0.067c-0.107-0.046-0.203-0.111-0.285-0.198
		c-0.083-0.087-0.149-0.193-0.199-0.32c-0.049-0.127-0.073-0.27-0.073-0.43c0-0.163,0.024-0.308,0.073-0.435
		c0.05-0.126,0.116-0.233,0.199-0.321c0.082-0.088,0.178-0.155,0.285-0.2c0.108-0.046,0.223-0.068,0.342-0.068
		c0.121,0,0.234,0.022,0.342,0.068c0.109,0.045,0.204,0.112,0.287,0.2c0.082,0.088,0.148,0.195,0.197,0.321
		c0.05,0.127,0.074,0.271,0.074,0.435c0,0.16-0.024,0.303-0.074,0.43c-0.049,0.127-0.115,0.233-0.197,0.32
		c-0.083,0.087-0.178,0.152-0.287,0.198C187.471,72.336,187.357,72.358,187.236,72.358z M187.236,72.087
		c0.083,0,0.159-0.019,0.229-0.055s0.129-0.086,0.178-0.151c0.05-0.065,0.088-0.144,0.114-0.234s0.04-0.192,0.04-0.304
		c0-0.112-0.014-0.214-0.04-0.307c-0.026-0.092-0.064-0.171-0.114-0.237c-0.049-0.067-0.108-0.118-0.178-0.154
		s-0.146-0.054-0.229-0.054c-0.082,0-0.158,0.018-0.228,0.054s-0.128,0.087-0.178,0.154c-0.05,0.066-0.087,0.146-0.114,0.237
		c-0.027,0.093-0.04,0.194-0.04,0.307c0,0.111,0.013,0.213,0.04,0.304s0.064,0.169,0.114,0.234s0.108,0.115,0.178,0.151
		S187.154,72.087,187.236,72.087z"/>
	<path d="M189.217,72.358c-0.208,0-0.359-0.063-0.454-0.191c-0.095-0.129-0.142-0.317-0.142-0.568v-1.232h0.332v1.188
		c0,0.184,0.028,0.316,0.086,0.397c0.057,0.082,0.15,0.122,0.277,0.122c0.102,0,0.191-0.025,0.269-0.078
		c0.077-0.052,0.163-0.135,0.256-0.25v-1.38h0.328v1.944h-0.272l-0.027-0.304h-0.012c-0.092,0.106-0.187,0.191-0.287,0.256
		C189.471,72.326,189.354,72.358,189.217,72.358z"/>
	<path d="M190.824,72.31v-1.944h0.272l0.028,0.28h0.012c0.094-0.093,0.191-0.171,0.294-0.234c0.103-0.062,0.222-0.094,0.358-0.094
		c0.205,0,0.355,0.064,0.449,0.192c0.095,0.128,0.143,0.317,0.143,0.567v1.232h-0.328v-1.188c0-0.184-0.029-0.316-0.088-0.397
		s-0.152-0.122-0.28-0.122c-0.102,0-0.19,0.025-0.269,0.076c-0.076,0.051-0.165,0.125-0.264,0.224v1.408H190.824z"/>
	<path d="M193.677,72.358c-0.245,0-0.44-0.088-0.587-0.264c-0.145-0.176-0.217-0.427-0.217-0.752c0-0.157,0.023-0.3,0.069-0.426
		c0.047-0.127,0.108-0.234,0.187-0.322c0.077-0.088,0.166-0.156,0.268-0.204s0.208-0.072,0.32-0.072
		c0.111,0,0.209,0.021,0.292,0.061s0.167,0.095,0.252,0.164l-0.017-0.332v-0.748h0.332v2.848h-0.271l-0.028-0.228h-0.012
		c-0.077,0.074-0.166,0.139-0.267,0.193C193.898,72.331,193.791,72.358,193.677,72.358z M193.748,72.083
		c0.092,0,0.177-0.022,0.256-0.066c0.08-0.044,0.16-0.111,0.24-0.202v-1.016c-0.082-0.075-0.162-0.128-0.238-0.158
		c-0.075-0.03-0.153-0.046-0.233-0.046c-0.077,0-0.149,0.018-0.218,0.054s-0.127,0.087-0.178,0.152s-0.092,0.144-0.121,0.233
		c-0.029,0.091-0.043,0.192-0.043,0.305c0,0.234,0.047,0.417,0.14,0.548S193.578,72.083,193.748,72.083z"/>
</g>
</svg>
