<?xml version="1.0" encoding="utf-8"?>
<!-- Generator: Adobe Illustrator 16.0.4, SVG Export Plug-In . SVG Version: 6.00 Build 0)  -->
<!DOCTYPE svg PUBLIC "-//W3C//DTD SVG 1.1//EN" "http://www.w3.org/Graphics/SVG/1.1/DTD/svg11.dtd">
<svg version="1.1" id="Ebene_1" xmlns="http://www.w3.org/2000/svg" xmlns:xlink="http://www.w3.org/1999/xlink" x="0px" y="0px"
	 width="206.5px" height="75.9px" viewBox="0 0 206.5 75.9" enable-background="new 0 0 206.5 75.9" xml:space="preserve">
<g id="_xD83C__xDF46_">
	<g>
		<path fill="#8967AA" d="M63.7,18.4c0.2,11.6-3.4,22-9.1,27.2c-0.1,0.1-0.2,0.2-0.3,0.3c-0.2,0.2-0.4,0.4-0.6,0.6
			c-0.3,0.3-0.6,0.6-0.9,0.9c-0.4,0.3-0.7,0.6-1.1,1c-0.2,0.2-0.4,0.3-0.6,0.4c-0.6,0.4-1.1,0.8-1.7,1.2c-0.2,0.1-0.4,0.3-0.6,0.4
			c-6.1,3.9-13.6,5.8-21.3,5c-0.8-0.1-1.6-0.2-2.4-0.4c-1.2-0.3-2.3-0.7-3.3-1.2c35.9-0.3,32.7-32.5,32.6-35.8L63.7,18.4z"/>
		<path fill="#8967AA" d="M31,56.6c-1.2,0-2.4-0.1-3.7-0.2c-0.9-0.1-1.7-0.2-2.5-0.4c-1.2-0.3-2.4-0.7-3.6-1.3
			c-0.4-0.2-0.6-0.7-0.5-1.1s0.5-0.8,1-0.8c10.6-0.1,18.7-3,24.1-8.7c3.9-4.1,8.3-11.8,7.6-25.5c0-0.2,0-0.4,0-0.6
			c0-0.3,0.1-0.5,0.3-0.7c0.2-0.2,0.5-0.3,0.7-0.3l9.3,0.3c0.5,0,1,0.4,1,1c0.2,11.7-3.4,22.4-9.5,28l0,0.1
			c-0.1,0.1-0.2,0.2-0.2,0.2c-0.2,0.2-0.4,0.4-0.6,0.6c-0.3,0.3-0.6,0.6-0.9,0.9c-0.4,0.3-0.7,0.6-1.1,1c-0.1,0.1-0.3,0.2-0.4,0.3
			l-0.2,0.1c-0.6,0.5-1.2,0.9-1.8,1.3L49.7,51c-0.2,0.1-0.3,0.2-0.5,0.3C43.8,54.8,37.5,56.6,31,56.6z M27.9,54.5
			c7.1,0.7,14.3-1,20.3-4.9c0.2-0.1,0.3-0.2,0.4-0.3l0.2-0.1c0.5-0.4,1.1-0.8,1.6-1.2l0.2-0.2c0.1-0.1,0.2-0.2,0.3-0.3
			c0.4-0.3,0.7-0.6,1.1-0.9c0.3-0.3,0.6-0.6,0.9-0.8c0.2-0.2,0.4-0.4,0.6-0.6c0.1-0.1,0.2-0.2,0.2-0.2l0.1-0.1
			c5.5-5,8.9-14.8,8.8-25.5l-7.3-0.2c0.6,14-4.1,22.1-8.2,26.4C42.6,50.4,36.1,53.4,27.9,54.5z"/>
	</g>
	<g>
		<path fill="#B399C8" d="M46.4,17.2l-0.2,0C46.3,17,46.3,17,46.4,17.2z"/>
		<path fill="#B399C8" d="M46.4,18.2C46.4,18.2,46.3,18.2,46.4,18.2l-0.3,0c-0.4,0-0.7-0.3-0.8-0.6c-0.1-0.3-0.1-0.7,0.2-1
			c0.4-0.5,0.9-0.5,1.1-0.4c0.4,0.1,0.7,0.4,0.9,0.8c0.1,0.3,0.1,0.7-0.1,0.9C47,18,46.7,18.2,46.4,18.2z M46.2,17.2l-0.8,0.3
			c0.1,0.2,0.3,0.5,0.7,0.5c0.3,0.1,0.7-0.1,0.8-0.2L46.2,17.2z"/>
	</g>
	<g>
		<path fill="#B399C8" d="M21.7,53.8c-0.1,0-0.2-0.1-0.3-0.1c-5.3-2.9-8.4-8.8-7.1-14.9c1.6-7.5,9.1-12.4,16.9-10.9
			c0,0,8.1,2.6,13.4-3.8c1.8-2.2,2.2-6.2,1.8-6.9l10.8,0.8l-3-1.4C54.3,19.7,57.7,53.6,21.7,53.8z"/>
		<path fill="#B399C8" d="M21.7,54.8c-0.1,0-0.3,0-0.4-0.1c-0.1-0.1-0.3-0.1-0.4-0.2c-5.9-3.2-9-9.6-7.6-16
			c1.7-8,9.8-13.3,18.1-11.6c0,0,0.1,0,0.1,0c0.3,0.1,7.5,2.3,12.3-3.5c1.5-1.9,1.9-5.3,1.7-5.9c-0.2-0.3-0.1-0.7,0.1-1
			c0.2-0.3,0.6-0.4,0.9-0.4l6.8,0.5c0,0,0-0.1,0-0.1c0-0.4,0.2-0.7,0.5-0.9c0.3-0.2,0.7-0.2,1-0.1l3,1.4c0.4,0.2,0.7,0.7,0.5,1.2
			c-0.1,0.5-0.5,0.8-1,0.7l-1.8-0.1c0.3,14.2-4.4,22.3-8.5,26.7C41.1,51.6,32.6,54.8,21.7,54.8C21.7,54.8,21.7,54.8,21.7,54.8z
			 M28.3,28.6c-6.2,0-11.8,4.2-13.1,10.4c-1.2,5.5,1.5,11.1,6.6,13.8c0,0,0,0,0,0c10.2-0.1,18.1-3,23.4-8.7c3.9-4.1,8.4-11.9,8-25.5
			l-5.8-0.4c0,1.9-0.7,4.7-2.2,6.5C40,31.3,31.8,29.1,31,28.9C30.1,28.7,29.2,28.6,28.3,28.6z"/>
	</g>
	<path d="M31,56.6c-1.2,0-2.4-0.1-3.6-0.2c-0.8-0.1-1.7-0.2-2.5-0.4c-8.1-1.9-13.2-9.5-11.5-17.4c1.7-8.1,9.8-13.3,18.1-11.7
		c0.1,0,7.3,1.8,12-2.9c0.4-0.4,1-0.4,1.4,0c0.4,0.4,0.4,1,0,1.4c-5.4,5.5-13.5,3.5-13.8,3.4C23.8,27.5,16.8,32,15.3,39
		c-1.4,6.8,3,13.5,10,15.1c0.7,0.1,1.5,0.3,2.3,0.3c15.8,1.7,30.7-8.8,33.9-24l0.1-0.4c0.4-1.7,0.7-3.5,0.8-5.1c0-0.6,0.5-1,1.1-0.9
		c0.6,0,1,0.5,0.9,1.1c-0.1,1.8-0.5,3.6-0.9,5.4l-0.1,0.4C60.3,45.9,46.4,56.6,31,56.6z"/>
	<g>
		<path fill="#5C9E31" d="M64.8,20.8c0,0-3.7,0.5-6.8-1.8c-0.5,3.8-3.5,6-3.5,6s-3-2.2-3.5-6c-0.7,0.5-1.5,0.9-2.2,1.2
			c-2.4,0.9-4.6,0.6-4.6,0.6s-0.6-4.5,2.6-7.7c0.7-0.7,1.4-1.2,2.1-1.5c2.8-1.4,10.3-1.7,13.5,1.5C65.4,16.3,64.8,20.8,64.8,20.8z"
			/>
		<path fill="#5C9E31" d="M54.4,26c-0.2,0-0.4-0.1-0.6-0.2c-0.1-0.1-2.6-2-3.6-5.2c-0.4,0.2-0.8,0.4-1.2,0.5c-2.6,1-5,0.7-5.1,0.7
			c-0.4-0.1-0.8-0.4-0.9-0.9c0-0.2-0.7-5,2.8-8.5c0.7-0.7,1.4-1.2,2.3-1.7c3-1.6,11.1-1.9,14.7,1.7c3.5,3.5,2.9,8.3,2.8,8.5
			c-0.1,0.4-0.4,0.8-0.8,0.8c-0.1,0-3.2,0.4-6.3-1.2c-1,3.2-3.5,5.1-3.6,5.2C54.9,25.9,54.6,26,54.4,26z M50.9,18
			c0.1,0,0.3,0,0.4,0.1c0.3,0.1,0.6,0.4,0.6,0.8c0.3,2.3,1.7,4,2.5,4.8c0.8-0.8,2.2-2.5,2.5-4.8c0-0.4,0.3-0.6,0.6-0.8
			c0.3-0.1,0.7-0.1,1,0.1c1.9,1.4,4.1,1.7,5.2,1.7c0,0,0,0,0,0c0-1.3-0.3-4-2.3-6c-2.9-2.9-9.9-2.6-12.3-1.3
			c-0.7,0.4-1.3,0.8-1.8,1.3c-2,2-2.3,4.7-2.3,6c0.8,0,2-0.1,3.3-0.6c0.7-0.3,1.4-0.6,1.9-1.1C50.5,18.1,50.7,18,50.9,18z
			 M64.8,20.8L64.8,20.8L64.8,20.8z M64.8,20.8L64.8,20.8L64.8,20.8z"/>
	</g>
	<path fill="#FFFFFF" stroke="#000000" stroke-width="2" stroke-miterlimit="10" d="M40.9,33.4"/>
	<path d="M53.9,7.5c-0.3,0-0.7-0.2-0.9-0.5c-0.6-1-1.5-1.5-2.9-1.5c-0.6,0-1-0.4-1-1s0.4-1,1-1c2.6,0,4,1.3,4.7,2.5
		c0.3,0.5,0.1,1.1-0.4,1.4C54.2,7.5,54,7.5,53.9,7.5z"/>
	<path fill="none" stroke="#000000" stroke-width="2" stroke-miterlimit="10" d="M32,11.6"/>
	<path fill="#B1CC33" d="M54.4,25c0,0-3-2.2-3.5-6c-0.7,0.5-1.5,0.9-2.2,1.2c-2.4,0.9-4.6,0.6-4.6,0.6s-0.6-4.5,2.6-7.7
		c0.7-0.7,1.4-1.2,2.1-1.5c2.8-1.4,5.6-1,5.6-1L54.4,25z"/>
	<path d="M54.4,26c-0.2,0-0.4-0.1-0.6-0.2c-0.1-0.1-2.6-2-3.6-5.2c-0.4,0.2-0.8,0.4-1.2,0.5c-2.6,1-5,0.7-5.1,0.7
		c-0.4-0.1-0.8-0.4-0.9-0.9c0-0.2-0.7-5,2.8-8.5c0.7-0.7,1.4-1.2,2.3-1.7c3-1.6,11.1-1.9,14.7,1.7c3.5,3.5,2.9,8.3,2.8,8.5
		c-0.1,0.4-0.4,0.8-0.8,0.8c-0.1,0-3.2,0.4-6.3-1.2c-1,3.2-3.5,5.1-3.6,5.2C54.9,25.9,54.6,26,54.4,26z M50.9,18
		c0.1,0,0.3,0,0.4,0.1c0.3,0.1,0.6,0.4,0.6,0.8c0.3,2.3,1.7,4,2.5,4.8c0.8-0.8,2.2-2.5,2.5-4.8c0-0.4,0.3-0.6,0.6-0.8
		c0.3-0.1,0.7-0.1,1,0.1c1.9,1.4,4.1,1.7,5.2,1.7c0,0,0,0,0,0c0-1.3-0.3-4-2.3-6c-2.9-2.9-9.9-2.6-12.3-1.3
		c-0.7,0.4-1.3,0.8-1.8,1.3c-2,2-2.3,4.7-2.3,6c0.8,0,2-0.1,3.3-0.6c0.7-0.3,1.4-0.6,1.9-1.1C50.5,18.1,50.7,18,50.9,18z M64.8,20.8
		L64.8,20.8L64.8,20.8z M64.8,20.8L64.8,20.8L64.8,20.8z"/>
	<path d="M44.1,25.7c-0.3,0-0.5-0.1-0.7-0.3c-0.4-0.4-0.4-1,0-1.4c0.1-0.1,0.2-0.2,0.3-0.4c0.4-0.4,1-0.4,1.4-0.1
		c0.4,0.4,0.4,1,0.1,1.4c-0.1,0.1-0.3,0.3-0.4,0.4C44.6,25.6,44.3,25.7,44.1,25.7z"/>
</g>
<g id="_xD83D__xDC12__2_">
	<path fill="#A57939" d="M164,18.4c-1.3-2.4-3.5-3.9-5-4.6c-0.8-0.4-1.7-0.7-2.6-0.9c-3-0.7-5.1-2-6.2-2.8c-0.7-0.5-1.2-1.3-1.3-2.2
		c-0.2-1.8,1.3-2.5,4.1-2.2c2.4,0.3,3.9,2.1,4.7,3.2c0.5,0.8,1.1,1.6,1.9,1.9c2.2,1,2.4-2.1,2.4-2.1l-1.6-1.2l-3.7-3.6l-4-1.4
		L149,3.6l-1.9,1.6l-0.8,3.1l3,4.3l4.6,2.1l5,1.9l2.7,2.6l0.8,2.8l-1.7,1.7l-2.7,0l-4.8-1.9l-5.2-1.1l-3,1.4l-2,0.1l0.5-2.8l-1-1.2
		h-2.5l-1.6,1.3l-2.1-2.1l-3.1-1.1l-4.6,3.5l-1.4,4.2l0.4,3l1.4,3.7l2.1,3.3l-0.9,2.4l-4.8,5.5l-6.3,3.2l-5.2,2l-1.8,2.1l1.1,1.2
		l6.5-1.2l6.8-1.8l6.2-1.4l4.2-5.8l1.6-3.4l2.8,2.3l2,2.6l-1.7,4.9l-1.4,2.4l-4.5,1.1l-2.4,1.7l1.1,1.7l4.1,1.1l3.6-0.6l5.1,1
		l5.3-1.6l1.9-6.7l0.2-5.3l5.4-3.3l3.7-6.1l0.5-3c0,0-0.7-1.5-1.9-3.2C166.4,22.9,164,18.4,164,18.4z"/>
	<path fill="#6A462F" d="M161,37.2l-0.4,2.6l2.3,3.8l6.6,2.1l0.6,3.7v5.4l-2.2,0.9l-2.6-1.2l-0.4-3.6c0,0-1.3-0.8-1.5-0.8
		c-0.2,0-7.1-3.7-7.1-3.7s-1.8-2.1-1.4-5.5L161,37.2"/>
	<polygon fill="#F4AA41" points="131.2,24.4 135.5,24.7 136.6,27.5 135.3,30 135,32.2 130.1,32.2 129.2,29.6 127.8,26.6 129,24.7 	
		"/>
	<path fill="none" stroke="#000000" stroke-width="2" stroke-linecap="round" stroke-linejoin="round" stroke-miterlimit="10" d="
		M161,9c-6.2-10.1-13.9-5.7-14.6-2.5c-0.6,2.8,0.5,6.2,9.3,8.6c3.3,0.9,5.2,2.7,6.3,4.6c1.3,2.2-0.9,4.9-3.4,4.1
		c-4.7-1.6-9.4-5-15-0.9"/>
	<path fill="none" stroke="#000000" stroke-width="2" stroke-linecap="round" stroke-linejoin="round" stroke-miterlimit="10" d="
		M140.4,28.8c5,0.3,2.8-9.7,2.8-9.7c-0.5-0.8-2.3-1.8-4.6,1.2c-1-3.5-5.1-3.7-5.1-3.7c-1.6,0.8-6.5,3-5.5,9"/>
	<path fill="none" stroke="#000000" stroke-width="2" stroke-linecap="round" stroke-linejoin="round" stroke-miterlimit="10" d="
		M129.2,29.6c0,0-3-3.8,0.8-4.6c3.8-0.8,5.3,0,5.3,0s3,0.8,0,4.6c0,0,1.1,3.4-2.7,3.4C128.8,33,129.2,29.6,129.2,29.6z"/>
	<path fill="none" stroke="#000000" stroke-width="2" stroke-linecap="round" stroke-linejoin="round" stroke-miterlimit="10" d="
		M136.4,39.8l-3.3,6c0,0-7.9,1.8-10.3,2.4c-1.8,0.5-5.4,1.6-7,2.1c-0.7,0.2-1.5,0.2-2.2-0.2c-1.1-0.6-1.9-2.8,5.8-5.2
		c6.8-2.2,11.8-7.6,12.1-12"/>
	<path fill="none" stroke="#000000" stroke-width="2" stroke-linecap="round" stroke-linejoin="round" stroke-miterlimit="10" d="
		M144.3,31c0,0,7.9,7.9,5.5,11.5c-1.8,2.7-4.5,7.6-5.9,10.1c-0.5,0.9-1.4,1.5-2.5,1.5h-5c-2.6,0-2.9-3.9-0.3-4.2c0.2,0,0.3,0,0.5,0
		c1.1,0,4.1-0.6,4.6-1.6l3.1-6.9c0,0-2.9-4.3-6.1-4.9"/>
	<path fill="none" stroke="#000000" stroke-width="2" stroke-linecap="round" stroke-linejoin="round" stroke-miterlimit="10" d="
		M163.7,29.2c0,0,3,6.7-9.1,12.1c0,0,0.1,5.7-1.3,11c-0.3,1-1.2,1.6-2.2,1.4l-3.3,0"/>
	<path fill="none" stroke="#000000" stroke-width="2" stroke-linecap="round" stroke-linejoin="round" stroke-miterlimit="10" d="
		M157.4,46c1,3,6,4.2,8,4l0.1,2.8c0,1.3,1.2,2.4,2.5,2.3l0,0c1-0.1,2-0.7,2.1-1.7c0.3-3.4-0.7-7.4-0.7-7.4c-9.7-1.8-9.3-7.2-9.3-7.2
		"/>
</g>
<text transform="matrix(1 0 0 1 57.4326 68.5098)" enable-background="new    "><tspan x="0" y="0" font-family="'SourceSansPro-Regular'" font-size="4">shadow in </tspan><tspan x="0" y="4.8" font-family="'SourceSansPro-Regular'" font-size="4">the right 3rd</tspan></text>
<text transform="matrix(1 0 0 1 168.541 67.5098)" enable-background="new    "><tspan x="0" y="0" font-family="'SourceSansPro-Regular'" font-size="4">shadow in </tspan><tspan x="0" y="4.8" font-family="'SourceSansPro-Regular'" font-size="4">the background</tspan></text>
</svg>
