<?xml version="1.0" encoding="utf-8"?>
<!-- Generator: Adobe Illustrator 16.0.0, SVG Export Plug-In . SVG Version: 6.00 Build 0)  -->
<!DOCTYPE svg PUBLIC "-//W3C//DTD SVG 1.1//EN" "http://www.w3.org/Graphics/SVG/1.1/DTD/svg11.dtd">
<svg version="1.1" id="Ebene_1" xmlns="http://www.w3.org/2000/svg" xmlns:xlink="http://www.w3.org/1999/xlink" x="0px" y="0px"
	 width="1600px" height="900px" viewBox="0 0 1600 900" enable-background="new 0 0 1600 900" xml:space="preserve">
<rect fill="#FFA7C0" width="1600" height="900"/>
<path fill="#E67A93" d="M1290.821,462.569c0,76.426-61.958,138.385-138.385,138.385c-76.428,0-138.384-61.959-138.384-138.385
	c0-76.428,61.956-138.385,138.384-138.385c49.305,0,86.558,27.812,111.069,66.636c6.623,10.49,14.145,22.597,17.776,34.741
	C1285.04,438.138,1290.821,448.771,1290.821,462.569"/>
<path fill="#B1CC33" d="M1127.994,311.972c-81.321,7.315-145.523,91.896-145.523,195.414c0,108.325,70.248,196.138,156.909,196.138
	c86.659,0,156.911-87.812,156.911-196.138c0-24.882-3.856-48.589-10.622-70.493c-6.511,0.942-13.118,1.591-19.887,1.591
	C1193.361,438.484,1134.029,382.829,1127.994,311.972"/>
<path fill="none" stroke="#000000" stroke-width="27.6769" stroke-linecap="round" stroke-linejoin="round" stroke-miterlimit="10" d="
	M1127.994,311.972c-81.321,7.315-145.523,91.896-145.523,195.414c0,108.325,70.248,196.138,156.909,196.138
	c86.659,0,156.911-87.812,156.911-196.138c0-24.882-3.856-48.589-10.622-70.493c-6.511,0.942-13.118,1.591-19.887,1.591
	C1193.361,438.484,1134.029,382.829,1127.994,311.972z"/>
<path fill="#B0CB34" d="M1401.445,917.441c0,0,27.678-174.409-138.385-174.409c-44.169,29.449-82.012,49.799-124.546,49.711h1.73
	c-42.534,0.088-80.376-20.262-124.546-49.711c-166.062,0-138.386,174.409-138.386,174.409"/>
<path fill="none" stroke="#000000" stroke-width="27.6769" stroke-linecap="round" stroke-linejoin="round" stroke-miterlimit="10" d="
	M1269.234,424.168c1.973-13.385-6.036-25.922-18.385-30.167c2.623-3.541,4.537-7.673,5.222-12.337
	c2.227-15.106-8.239-29.19-23.347-31.415c-5.394-0.796-10.626,0.086-15.265,2.159c-0.745-12.823-10.395-23.82-23.595-25.765
	c-8.894-1.311-17.358,1.854-23.33,7.694c-4.22-5.926-10.715-10.22-18.469-11.362c-7.267-1.072-14.295,0.794-19.883,4.701"/>
<path fill="none" stroke="#000000" stroke-width="27.6769" stroke-linecap="round" stroke-linejoin="round" stroke-miterlimit="10" d="
	M1127.994,311.972c0.377,4.428,0.964,8.797,1.747,13.097c11.427,62.697,65.029,110.669,130.377,113.3
	c1.879,0.076,3.765,0.115,5.664,0.115c6.769,0,13.376-0.648,19.887-1.591"/>
<path fill="#CFCFCE" d="M1282.664,742.618l-12.559,12.247c-22.047,37.972-47.349,64.83-73.97,80.401l-27.716,79.498l-27.679-63.454
	c-46.18,0.28-92.357-31.585-129.363-96.445l-7.611-12.618c-151.264,9.378-125.09,175.574-125.09,175.574l43.633-0.096l28.841-66.182
	l21.152,66.573l431.478-0.685"/>
<path fill="#FCEA2C" d="M1084.03,604.545c0,0,110.707-43.035,110.707,0C1194.737,690.931,1084.03,604.545,1084.03,604.545"/>
<path fill="none" stroke="#000000" stroke-width="27.6769" stroke-linecap="round" stroke-linejoin="round" stroke-miterlimit="10" d="
	M1084.03,604.545c0,0,110.707-43.035,110.707,0C1194.737,690.931,1084.03,604.545,1084.03,604.545z"/>
<line fill="none" stroke="#000000" stroke-width="27.6769" stroke-linecap="round" stroke-linejoin="round" stroke-miterlimit="10" x1="1186.891" y1="628.299" x2="1127.395" y2="628.299"/>
<line fill="none" stroke="#000000" stroke-width="20.7576" stroke-linecap="round" stroke-linejoin="round" stroke-miterlimit="10" x1="1152.437" y1="628.299" x2="1152.437" y2="587.812"/>
<path fill="#9A9B99" d="M1229.437,804.186c88.653,22.986,90.415,69.665,98.722,113.256h70.754c0,0,26.188-164.73-125.23-174.014
	c-4.243-0.261-8.628-0.396-13.154-0.396"/>
<path fill="none" stroke="#000000" stroke-width="27.6769" stroke-linecap="round" stroke-linejoin="round" stroke-miterlimit="10" d="
	M1010.016,751.596c37.008,64.858,83.185,96.725,129.364,96.442l27.681,55.608l27.716-71.653
	c26.619-15.569,51.922-42.427,73.969-80.397"/>
<line fill="none" stroke="#000000" stroke-width="27.6769" stroke-linecap="round" stroke-linejoin="round" stroke-miterlimit="10" x1="1243.854" y1="866.664" x2="1233.397" y2="903.513"/>
<polyline fill="none" stroke="#000000" stroke-width="27.6769" stroke-linecap="round" stroke-linejoin="round" stroke-miterlimit="10" points="
	920.948,903.076 949.787,853.763 970.939,903.076 "/>
<path d="M1402.311,917.549c-7.643,0-13.838-6.196-13.838-13.84v-41.514c0-61.606-62.219-108.087-119.728-110.601
	c-85.87,69.354-172.86,69.354-258.729,0c-57.509,2.514-119.728,48.994-119.728,110.601v41.514c0,7.644-6.195,13.84-13.839,13.84
	c-7.641,0-13.838-6.196-13.838-13.84v-41.514c0-73.687,71.133-138.354,152.218-138.385h0.005c3.236,0,6.372,1.134,8.86,3.208
	c77.841,64.867,153.531,64.867,231.373,0c2.487-2.074,5.623-3.208,8.858-3.208h0.006c81.086,0.031,152.218,64.698,152.218,138.385
	v41.514C1416.149,911.353,1409.953,917.549,1402.311,917.549"/>
<path fill="#5C9E32" d="M1056.353,488.77v28.244c0,14.153,9.603,27.532,23.612,29.529c17.072,2.435,31.741-10.769,31.741-27.389
	V488.77c0-0.438-0.354-0.791-0.791-0.791h-53.774C1056.705,487.979,1056.353,488.332,1056.353,488.77"/>
<path fill="#5C9E32" d="M1167.061,487.979v31.178c0,15.283,12.404,27.676,27.677,27.676c15.271,0,27.677-12.393,27.677-27.676
	v-31.178H1167.061z"/>
<path fill="#FFFFFF" d="M1222.414,488.556c0,15.285-12.405,27.678-27.677,27.678s-27.677-12.393-27.677-27.678
	c0-15.271,12.405-27.676,27.677-27.676S1222.414,473.285,1222.414,488.556"/>
<path fill="none" stroke="#000000" stroke-width="20.7576" stroke-miterlimit="10" d="M1222.414,488.556
	c0,15.285-12.405,27.678-27.677,27.678s-27.677-12.393-27.677-27.678c0-15.271,12.405-27.676,27.677-27.676
	S1222.414,473.285,1222.414,488.556"/>
<path fill="#FFFFFF" d="M1111.706,488.556c0,15.285-12.405,27.678-27.676,27.678c-15.272,0-27.678-12.393-27.678-27.678
	c0-15.271,12.405-27.676,27.678-27.676C1099.301,460.88,1111.706,473.285,1111.706,488.556"/>
<path fill="none" stroke="#000000" stroke-width="20.7576" stroke-miterlimit="10" d="M1111.706,488.556
	c0,15.285-12.405,27.678-27.676,27.678c-15.272,0-27.678-12.393-27.678-27.678c0-15.271,12.405-27.676,27.678-27.676
	C1099.301,460.88,1111.706,473.285,1111.706,488.556"/>
</svg>
