<svg id="Ebene_1" data-name="Ebene 1" xmlns="http://www.w3.org/2000/svg" viewBox="0 0 1920 1080">
  <rect x="1" y="2" width="1924" height="1076" fill="#fff"/>
  <g>
    <g id="color">
      <path d="M195.234,302.708l-.017,180.3894,179.5671-.0305,91.2587-67.9827c-.0408-.2754,1.44-22.2678,1.44-22.2678l-.017-90.281Z" fill="#fff"/>
      <path d="M192.0788,303.6656l275.3865-1.13.017-90.1084s-37.0717-5.6414-33.9368-5.6414H413.3713l.2983,32.5689c9.7964,2.5741,12.1967,17.418,12.1967,17.4208-.1276,12.3679-15.1908,14.2751-15.2612,14.261-10.481-2.1368-14.116-7.2383-14-15.811.0817-6.0274.2609-7.5024,4.5868-11.7258,2.9052-2.832,3.5949-3.4335,7.4341-4.4024l-.1582-32.3115H253.9024l.4027,32.3115c9.7964,2.5742,13.0027,4.8126,12.9046,15.341-.1163,12.3736-15.348,18.5139-15.42,18.5139-12.5069-.1214-16.969-5.8565-16.8527-18.2989.0556-6.0279,4.9719-10.516,9.2978-14.7395,2.9052-2.832,3.9641-4.6382,7.8034-5.607l-1.3585-27.521H229.4477c1.2149,0-34.2137,5.6414-34.2137,5.6414Z" fill="#ea5a47"/>
      <path d="M467.4653,415.0842H371.8461s-5.0985,34.4433-5.5068,31.7253v30.6137l8.4448,5.6437Z" fill="#d0cfce"/>
    </g>
    <g id="line">
      <path d="M251.9691,278.593h-.2271a22.658,22.658,0,0,1-22.4686-22.7851v-.0028a22.7137,22.7137,0,0,1,38.8831-15.5887,22.4907,22.4907,0,0,1-.3046,31.9185A22.5934,22.5934,0,0,1,251.9691,278.593Zm-11.352-22.68a11.3307,11.3307,0,0,0,11.2356,11.3953,10.703,10.703,0,0,0,8.0536-3.229,11.1717,11.1717,0,0,0,3.3981-7.9459,11.3272,11.3272,0,0,0-11.2356-11.3954,11.5139,11.5139,0,0,0-11.4517,11.175Z"/>
      <path d="M388.3923,218.0705H274.673a5.6427,5.6427,0,1,1,0-11.2852H388.3923a5.6427,5.6427,0,1,1,0,11.2852Z"/>
      <path d="M467.4823,308.3515H195.234a5.6576,5.6576,0,0,1-5.6718-5.6426v-90.281a5.6576,5.6576,0,0,1,5.6718-5.6426h34.2111a5.6427,5.6427,0,1,1,0,11.2852H200.9059v78.9959H461.8105V218.0705h-28.265a5.6427,5.6427,0,1,1,0-11.2852h33.9368a5.6558,5.6558,0,0,1,5.6719,5.6426v90.281A5.6558,5.6558,0,0,1,467.4823,308.3515Z"/>
      <path d="M252.0383,256.8631a5.6575,5.6575,0,0,1-5.6718-5.6426v-58.17a5.6719,5.6719,0,0,1,11.3436,0v58.17A5.6576,5.6576,0,0,1,252.0383,256.8631Z"/>
      <path d="M410.7861,278.5875h-.2216a22.66,22.66,0,0,1-22.4713-22.7851v-.0056a22.664,22.664,0,0,1,22.6874-22.35h.2215a22.5756,22.5756,0,0,1,15.9742,6.7639,22.4907,22.4907,0,0,1-.3046,31.9185A22.6163,22.6163,0,0,1,410.7861,278.5875Zm-11.3492-22.68a11.3313,11.3313,0,0,0,11.2384,11.3953,10.9149,10.9149,0,0,0,8.048-3.2291,11.2436,11.2436,0,0,0,.1551-15.9606,11.2865,11.2865,0,0,0-7.9871-3.3806h-.1107a11.3338,11.3338,0,0,0-11.3437,11.175Z"/>
      <path d="M410.8526,256.8631a5.6558,5.6558,0,0,1-5.6719-5.6426v-58.17a5.6719,5.6719,0,0,1,11.3437,0v58.17A5.6558,5.6558,0,0,1,410.8526,256.8631Z"/>
      <path d="M348.2685,442.63H321.2691a5.6374,5.6374,0,0,1-4.2428-9.3841l54.2175-60.8283c6.78-7.6043,7.0012-19.0547.5041-25.5211a26.3075,26.3075,0,0,0-44.2753,13.1945,5.6692,5.6692,0,0,1-11.111-2.2592,37.6715,37.6715,0,0,1,63.4066-18.917c10.8452,10.7948,10.8286,28.797-.0387,40.9858l-45.8511,51.4443h14.39a5.6426,5.6426,0,1,1,0,11.2851Z"/>
      <path d="M287.9609,442.63a5.6558,5.6558,0,0,1-5.6719-5.6426V344.8849l-19.6963,14.6822a5.71,5.71,0,0,1-7.94-1.1351,5.6241,5.6241,0,0,1,1.1382-7.8991L284.56,329.0923a5.6734,5.6734,0,0,1,9.0727,4.5157V436.987A5.6558,5.6558,0,0,1,287.9609,442.63Z"/>
      <path d="M195.2174,488.74a5.6872,5.6872,0,0,1-4.01-1.6531,5.6234,5.6234,0,0,1-1.6617-3.9894V302.5353a5.6719,5.6719,0,0,1,11.3437,0V477.4548l172.0273-.0331,88.8773-65.187V302.5353a5.6719,5.6719,0,0,1,11.3437,0V415.0835a5.6435,5.6435,0,0,1-2.3042,4.5405l-92.6825,67.9808a5.6863,5.6863,0,0,1-3.3677,1.1021Z"/>
      <path d="M371.8476,451.6445a5.6541,5.6541,0,0,1-5.6719-5.6426V415.0835a5.654,5.654,0,0,1,5.6719-5.6425h94.1946a5.6426,5.6426,0,1,1,0,11.2851H377.5194v25.2758A5.654,5.654,0,0,1,371.8476,451.6445Z"/>
    </g>
  </g>
  <g>
    <g id="color-2" data-name="color">
      <g id="_1F5C2" data-name=" 1F5C2">
        <rect x="790.3243" y="218.9388" width="358.5056" height="260.5632" fill="#d0cfce"/>
        <rect x="790.3243" y="218.9388" width="358.5056" height="28.9515" fill="#9b9b9a"/>
        <rect x="790.3243" y="247.8903" width="358.5056" height="28.9515" fill="#9b9b9a"/>
        <path d="M837.3961,182.75h42.0885a11.2747,11.2747,0,0,1,11.2213,11.3272v24.8621H826.1748V194.0767A11.2747,11.2747,0,0,1,837.3961,182.75Z" fill="#b1cc33"/>
        <path d="M930.6075,211.7009h42.0886a11.2746,11.2746,0,0,1,11.2212,11.3273V247.89h-64.531V223.0282a11.2746,11.2746,0,0,1,11.2212-11.3273Z" fill="#ea5a47"/>
        <path d="M851.7363,240.6524h42.0886A11.2746,11.2746,0,0,1,905.0461,251.98v24.8621h-64.531V251.98a11.2746,11.2746,0,0,1,11.2212-11.3273Z" fill="#92d3f5"/>
      </g>
    </g>
    <g id="line-2" data-name="line">
      <g id="_1F5C2-2" data-name=" 1F5C2-2">
        <path d="M1148.83,284.08H790.3243a7.2382,7.2382,0,0,1,0-14.4757H1148.83a7.2382,7.2382,0,0,1,0,14.4757Z"/>
        <path d="M1148.83,255.1282H904.2758a7.2382,7.2382,0,0,1,0-14.4758H1148.83a7.2382,7.2382,0,0,1,0,14.4758Z"/>
        <path d="M841.2888,255.1282H790.3243a7.2382,7.2382,0,0,1,0-14.4758h50.9645a7.2382,7.2382,0,0,1,0,14.4758Z"/>
        <path d="M1148.83,486.74H790.3243a7.2022,7.2022,0,0,1-7.17-7.2378V218.9388a7.2046,7.2046,0,0,1,7.17-7.2379h129.062a7.2382,7.2382,0,0,1,0,14.4758H797.4944V472.2642H1141.66V226.1767H983.1471a7.2382,7.2382,0,0,1,0-14.4758H1148.83a7.2023,7.2023,0,0,1,7.17,7.2379V479.5021A7.2,7.2,0,0,1,1148.83,486.74Z"/>
        <path d="M890.7059,226.1767H826.1748a7.2046,7.2046,0,0,1-7.17-7.2379V194.0763a18.4972,18.4972,0,0,1,18.3909-18.5647H879.485a18.4972,18.4972,0,0,1,18.391,18.5647v24.8625A7.2046,7.2046,0,0,1,890.7059,226.1767ZM833.345,211.7009h50.1907V194.0763a4.0744,4.0744,0,0,0-4.0507-4.089H837.3956a4.0744,4.0744,0,0,0-4.0506,4.089Z"/>
        <path d="M983.9173,255.1282h-64.531a7.2046,7.2046,0,0,1-7.17-7.2379V223.0278a18.4971,18.4971,0,0,1,18.3909-18.5647h42.0894a18.4971,18.4971,0,0,1,18.3909,18.5647V247.89A7.2023,7.2023,0,0,1,983.9173,255.1282Zm-57.3609-14.4758h50.1908V223.0278a4.0744,4.0744,0,0,0-4.0507-4.089H930.6071a4.0744,4.0744,0,0,0-4.0507,4.089Z"/>
        <path d="M905.0461,284.08h-64.531a7.2045,7.2045,0,0,1-7.17-7.2378V251.9793a18.4972,18.4972,0,0,1,18.3909-18.5648h42.0894a18.4972,18.4972,0,0,1,18.3909,18.5648v24.8625A7.2046,7.2046,0,0,1,905.0461,284.08Zm-57.3609-14.4757H897.876V251.9793a4.0745,4.0745,0,0,0-4.0507-4.089H851.7359a4.0744,4.0744,0,0,0-4.0507,4.089Z"/>
      </g>
    </g>
  </g>
  <g>
    <g id="color-3" data-name="color">
      <rect x="1460.4949" y="207.8823" width="209.1678" height="275.3795" fill="#fff"/>
      <polyline points="1584.869 369.768 1644.578 306.381 1683.571 347.776 1624.369 410.625" fill="#f4aa41"/>
      <polyline points="1574.35 406.788 1584.715 375.086 1618.837 411.309 1588.974 422.313" fill="#a57939"/>
      <polyline points="1662.466 284.624 1683.5 262.294 1725.046 306.399 1704.191 328.54" fill="#ea5a47"/>
      <polyline points="1640.714 310.483 1665.073 284.625 1704.065 326.019 1679.913 351.659" fill="#d0cfce"/>
    </g>
    <g id="line-3" data-name="line">
      <polygon points="1575.031 408.879 1587.646 422.271 1569.331 429.452 1575.031 408.879"/>
      <path d="M1634.5125,261.182H1491.77a5.6225,5.6225,0,0,1,0-11.2249h142.7423a5.6225,5.6225,0,0,1,0,11.2249Z"/>
      <path d="M1627.1142,306.0815H1491.77a5.6225,5.6225,0,0,1,0-11.2249h135.344a5.6225,5.6225,0,0,1,0,11.2249Z"/>
      <path d="M1582.2284,350.981H1491.77a5.6224,5.6224,0,0,1,0-11.2248h90.4582a5.6224,5.6224,0,0,1,0,11.2248Z"/>
      <path d="M1556.3057,395.8806H1491.77a5.6225,5.6225,0,0,1,0-11.2249h64.5355a5.6225,5.6225,0,0,1,0,11.2249Z"/>
      <path d="M1545.41,440.78H1491.77a5.6225,5.6225,0,0,1,0-11.2249H1545.41a5.6225,5.6225,0,0,1,0,11.2249Z"/>
      <polygon points="1575.031 408.879 1587.646 422.271 1569.331 429.452 1575.031 408.879"/>
      <path d="M1588.8936,427.96a5.1335,5.1335,0,0,1-3.7275-1.6333L1570.55,410.8928a5.86,5.86,0,0,1-1.2649-5.8262l10.4393-31.8276a5.6747,5.6747,0,0,1,1.2546-2.1211l82.42-87.4971a5.0707,5.0707,0,0,1,7.4758,0l34.1213,36.2232a5.8578,5.8578,0,0,1,0,7.9364l-82.42,87.4971a5.2121,5.2121,0,0,1-2.0032,1.3318l-29.9445,11.0386A5.0257,5.0257,0,0,1,1588.8936,427.96Zm-8.529-22.5375,9.9178,10.474,25.6749-9.4655,77.8247-82.6191-26.6455-28.2869-77.8247,82.6191Z"/>
      <path d="M1714.5676,315.2949a5.1257,5.1257,0,0,1-3.7379-1.6415,5.8613,5.8613,0,0,1,0-7.9391l4.884-5.19L1689.0683,272.24,1684.587,277a5.075,5.075,0,0,1-7.4758.0028,5.8611,5.8611,0,0,1,0-7.9391l8.2192-8.7311a5.215,5.215,0,0,1,7.4758,0l34.1212,36.2233a5.8575,5.8575,0,0,1,0,7.9363l-8.6219,9.1586A5.118,5.118,0,0,1,1714.5676,315.2949Z"/>
      <path d="M1620.8258,414.8061a5.1182,5.1182,0,0,1-3.7379-1.6443l-34.1212-36.2232a5.8576,5.8576,0,0,1,0-7.9364,5.0709,5.0709,0,0,1,7.4758,0l34.1212,36.2233a5.8575,5.8575,0,0,1,0,7.9363A5.1179,5.1179,0,0,1,1620.8258,414.8061Z"/>
      <path d="M1566.99,435.7377a5.1326,5.1326,0,0,1-3.7354-1.6443,5.8543,5.8543,0,0,1-1.28-5.744l7.3131-23.2828a5.2113,5.2113,0,0,1,6.6885-3.5462,5.6915,5.6915,0,0,1,3.34,7.0978l-3.96,12.617,11.9365-4.2422a5.2237,5.2237,0,0,1,6.6911,3.5407,5.6953,5.6953,0,0,1-3.3352,7.1032l-21.9808,7.81A4.9531,4.9531,0,0,1,1566.99,435.7377Z"/>
      <path d="M1677.772,353.6941a5.112,5.112,0,0,1-3.7379-1.6388L1641.25,317.2461a5.8577,5.8577,0,0,1,0-7.9363,5.0707,5.0707,0,0,1,7.4758,0l32.7841,34.8064a5.8613,5.8613,0,0,1,0,7.9391A5.112,5.112,0,0,1,1677.772,353.6941Z"/>
      <path d="M1666.233,485.74H1460.05a5.5159,5.5159,0,0,1-5.341-5.6727V210.67a5.5118,5.5118,0,0,1,5.341-5.67H1666.233a5.5156,5.5156,0,0,1,5.3436,5.67v47.4591a5.3529,5.3529,0,1,1-10.6871,0V216.34H1465.3906V474.3945H1660.89V392.2467a5.3531,5.3531,0,1,1,10.6871,0v87.8205A5.52,5.52,0,0,1,1666.233,485.74Z"/>
    </g>
  </g>
  <g id="line-4" data-name="line">
    <g id="_1F587" data-name=" 1F587">
      <path d="M828.7884,850.328a6.2492,6.2492,0,0,1-2.3907-.4715,6.0723,6.0723,0,0,1-3.3476-7.993l62.1214-146.3622c13.5117-32.0524,43.7917-46.54,73.64-35.2042a56.0918,56.0918,0,0,1,7.3878,3.6294,6.0508,6.0508,0,0,1,2.1507,8.3809,6.2708,6.2708,0,0,1-8.53,2.1132,43.1857,43.1857,0,0,0-5.6259-2.7728c-27.0509-10.2672-48.4212,6.9245-57.5344,28.5454L834.5327,846.5674A6.2266,6.2266,0,0,1,828.7884,850.328Z"/>
      <path d="M875.9,935.9761a38.91,38.91,0,0,1-14.52-2.8115c-19.7786-8.375-28.989-30.2168-21.0727-49.7784l68.0753-160.4886a22.58,22.58,0,0,1,28.9859-11.8223,21.84,21.84,0,0,1,12.2936,28.5872L904.5066,845.7913a6.25,6.25,0,0,1-8.1411,3.2832,6.0783,6.0783,0,0,1-3.3415-7.9989l45.1314-106.0692a9.657,9.657,0,0,0-5.4649-12.6013,9.9873,9.9873,0,0,0-12.8344,5.2232L851.83,887.9946a26.0819,26.0819,0,0,0,14.3684,33.9,26.48,26.48,0,0,0,33.9829-13.825l73.7771-175.63a54.8175,54.8175,0,0,0,3.144-35.3743,6.1056,6.1056,0,0,1,4.5627-7.39,6.2167,6.2167,0,0,1,7.5214,4.483,66.7976,66.7976,0,0,1-3.7759,43.06L911.6573,912.7912A38.9263,38.9263,0,0,1,875.9,935.9761Z"/>
      <path d="M1087.3164,936c-22.4122,0-43.3057-14.72-53.9012-39.8513L978.8577,767.19a6.0738,6.0738,0,0,1,3.3567-7.99,6.2512,6.2512,0,0,1,8.132,3.2981L1044.91,891.4628c9.4351,22.379,32.297,39.6185,57.7288,29.2557,26.5132-11.5387,29.2471-38.5381,20.134-60.153l-61.4166-146.67a6.0747,6.0747,0,0,1,3.384-7.978,6.2624,6.2624,0,0,1,8.1229,3.3279l61.41,146.6517c13.5118,32.0494,2.5213,63.3288-26.7319,76.0554A53.5435,53.5435,0,0,1,1087.3164,936Z"/>
      <path d="M1077.5411,883.0937a22.6764,22.6764,0,0,1-8.6879-1.743,22.0172,22.0172,0,0,1-12.0051-11.9626L1012.4428,763.05a6.0741,6.0741,0,0,1,3.39-7.975,6.2637,6.2637,0,0,1,8.1167,3.3369l44.4176,106.3557a9.7387,9.7387,0,0,0,5.3281,5.3187,10.01,10.01,0,0,0,7.57.0537,9.7188,9.7188,0,0,0,5.3889-5.2232,9.4683,9.4683,0,0,0,.0547-7.4378L1019.308,696.6205a26.87,26.87,0,0,0-34.551-13.9891,25.684,25.684,0,0,0-14.0738,33.3865l2.2753,5.39a6.0708,6.0708,0,0,1-3.36,7.987,6.2531,6.2531,0,0,1-8.129-3.301l-2.2995-5.4411a37.9155,37.9155,0,0,1,20.8813-49.34c20.0276-7.8079,42.2516,1.2327,50.7208,20.5614l67.3644,160.7692a21.5916,21.5916,0,0,1-.0182,17.0306,22.0331,22.0331,0,0,1-12.1752,11.7954A22.6786,22.6786,0,0,1,1077.5411,883.0937Z"/>
    </g>
  </g>
  <g id="color-4" data-name="color">
    <path d="M1531.1341,873.0706c-2.6985,13.1262-2.1795,24.3618,1.5128,32.4932,10.1912,22.444,37.0412,32.5732,59.8824,22.5406a44.5991,44.5991,0,0,0,23.8623-24.7751,43.6116,43.6116,0,0,0-.9392-34.1148c-5.4456-11.9934-12.2586-21.2371-25.1368-24.8951-1.5356-.4347-.195-5.5188.4162-6.9634l4.1656-13.7223-37.7-12.3427C1540.2224,848.9986,1531.8714,869.4613,1531.1341,873.0706Zm49.7767-9.7847a23.1845,23.1845,0,0,1,14.5745,10.1647,22.4925,22.4925,0,0,1,2.9888,17.3239,22.8211,22.8211,0,0,1-10.338,14.3316,23.5054,23.5054,0,0,1-12.3737,3.5244,23.8747,23.8747,0,0,1-5.2432-.5854,23.1859,23.1859,0,0,1-14.5746-10.1653,22.4888,22.4888,0,0,1-2.9888-17.3233,22.8184,22.8184,0,0,1,10.3381-14.3317A23.5676,23.5676,0,0,1,1580.9108,863.2859Z" fill="#ea5a47"/>
    <path d="M1593.2562,824.0888l60.1985-146.58c-10.85,3.3912-22.6,6.05-32.249,15.68-12.12,12.0957-20.9624,31.1837-20.9624,31.1837s-37.6282,80.6026-39.4539,84.6159C1560.7229,809.1346,1593.2562,824.0888,1593.2562,824.0888Z" fill="#d0cfce"/>
    <path d="M1712.3429,738.3353s-75.8651,25.2717-73.49,24.1559c-.0064-.0029-.0134-.0205-.0193-.0229l-19.5787,8.0425-25.4826,63.2579,28.325-13.3887.0079-.0741c-.509.1659,46.7095-27.5228,47.5718-27.96C1689.6436,782.2071,1704.5421,762.3717,1712.3429,738.3353Z" fill="#9b9b9a"/>
    <path d="M1517.9622,779.2384c-20.2524-8.89-51.597,1.0108-60.6376,20.9165-9.0412,19.92-.8866,50.8932,19.3658,59.7837,7.33,3.22,19.56,5.1524,31.406,2.7989.5086-.1,16.7021-1.1089,14.7731.1239l11.3377-5.1866c5.8455-14.4956,23.4-55.3343,24.8362-58.485l-13.5842,6.4092-.0308.0561C1545.3411,807.04,1528.1757,783.7268,1517.9622,779.2384Zm-1.233,50.4971a22.3931,22.3931,0,0,1-14.0754,9.8179,22.8614,22.8614,0,0,1-5.02.561,22.5028,22.5028,0,0,1-21.978-17.2408,21.7019,21.7019,0,0,1,2.8865-16.7306,22.3919,22.3919,0,0,1,14.0755-9.8174,22.7478,22.7478,0,0,1,17.0141,2.8389,22.0384,22.0384,0,0,1,9.9838,13.8409A21.7192,21.7192,0,0,1,1516.7292,829.7355Z" fill="#d22f27"/>
  </g>
  <g id="line-5" data-name="line">
    <path d="M1599.1494,825.8212a5.1855,5.1855,0,0,1-1.9591-.3833,5.0044,5.0044,0,0,1-2.7687-6.5754l61.0017-144.7486c-25.2483,7.8925-40.4712,31.3-51.1163,51.5643-5.8972,11.2294-24.4886,50.7632-39.7865,84.6037a5.1516,5.1516,0,0,1-6.7543,2.5555,5.0007,5.0007,0,0,1-2.5963-6.6442c15.36-33.9831,34.0716-73.7651,40.0413-85.1345,7.6415-14.5491,27.9421-53.1959,67.9884-59.0023a5.1185,5.1185,0,0,1,4.7828,1.8847,4.972,4.972,0,0,1,.69,5.02l-64.7949,153.7541A5.1214,5.1214,0,0,1,1599.1494,825.8212Z"/>
    <path d="M1578.0992,934.9454a52.5185,52.5185,0,0,1-18.5139-3.3861,51.035,51.035,0,0,1-28.7391-26.7736c-4.313-9.4946-5.01-21.55-2.0741-35.8259,1.4743-7.175,18.9512-46.2838,26.3953-62.7666a5.1469,5.1469,0,0,1,6.26-2.7423l39.3017,12.5514a5.0739,5.0739,0,0,1,3.0686,2.6832,4.9488,4.9488,0,0,1,.0749,4.04l-6.0672,14.34a51.1878,51.1878,0,0,1,27.5023,26.2625h0a49.7519,49.7519,0,0,1,1.0745,38.9122,50.8847,50.8847,0,0,1-27.2224,28.2626A52.3338,52.3338,0,0,1,1578.0992,934.9454Zm-15.4453-120.5206c-15.5328,34.5187-23.1742,53.2376-23.8514,56.53-2.4689,12.0108-1.9891,22.2868,1.3893,29.7321,9.3207,20.5373,33.8993,29.7812,54.7945,20.6257a40.8127,40.8127,0,0,0,21.8349-22.67,39.9051,39.9051,0,0,0-.86-31.2162h0a41.1967,41.1967,0,0,0-26.3877-22.5423,5.0955,5.0955,0,0,1-3.1911-2.6587,4.9571,4.9571,0,0,1-.1124-4.1134l6.0222-14.2222Zm17.152,97.644a29.08,29.08,0,0,1-6.38-.7125,28.225,28.225,0,0,1-17.7393-12.3745,27.3677,27.3677,0,0,1-3.6458-21.0876,27.7966,27.7966,0,0,1,12.5892-17.4461,28.665,28.665,0,0,1,21.445-3.5777,28.2191,28.2191,0,0,1,17.7367,12.3744,27.3808,27.3808,0,0,1,3.6434,21.0877h0a27.7813,27.7813,0,0,1-12.5842,17.4461A28.6071,28.6071,0,0,1,1579.8059,912.0688Zm-.0949-45.8463a18.2713,18.2713,0,0,0-9.6356,2.7471,17.78,17.78,0,0,0-8.0537,11.1655,17.5082,17.5082,0,0,0,2.3314,13.49,18.0769,18.0769,0,0,0,11.3522,7.922,18.2915,18.2915,0,0,0,13.7211-2.295,17.7663,17.7663,0,0,0,8.0513-11.1606h0a17.4976,17.4976,0,0,0-2.3314-13.49,18.0721,18.0721,0,0,0-11.35-7.922A18.6443,18.6443,0,0,0,1579.711,866.2225Z"/>
    <path d="M1498.1364,866.134a49.3035,49.3035,0,0,1-19.9508-3.789c-26.0428-11.4309-37.7749-41.5659-26.15-67.1748,11.6221-25.6114,42.27-37.1479,68.3157-25.7146a51.323,51.323,0,0,1,27.9121,30.2112,5.0106,5.0106,0,0,1-3.216,6.374,5.1273,5.1273,0,0,1-6.4845-3.16,41.1583,41.1583,0,0,0-22.3846-24.2354c-20.88-9.1678-45.4714.0836-54.797,20.6233a40.5789,40.5789,0,0,0,20.9777,53.8863c7.5565,3.3221,18.0166,3.7939,30.2335,1.3613a64.4035,64.4035,0,0,0,8.0787-2.7619,5.1415,5.1415,0,0,1,6.6194,2.8749,5.0071,5.0071,0,0,1-2.9211,6.5116c-6.3621,2.4228-8.556,3.0076-9.758,3.2435A84.9445,84.9445,0,0,1,1498.1364,866.134Zm1.0195-23.9233a28.605,28.605,0,0,1-15.063-4.29,27.7866,27.7866,0,0,1,8.7934-50.9131,28.6727,28.6727,0,0,1,21.445,3.5826,27.7849,27.7849,0,0,1,12.5892,17.446,27.3775,27.3775,0,0,1-3.6433,21.0877,28.225,28.225,0,0,1-17.7393,12.3745A29.0855,29.0855,0,0,1,1499.1559,842.2107Zm.09-45.8463a18.6152,18.6152,0,0,0-4.0806.457,17.7769,17.7769,0,0,0-5.6274,32.5726,18.3481,18.3481,0,0,0,13.7211,2.295,18.0834,18.0834,0,0,0,11.3522-7.922,17.5071,17.5071,0,0,0,2.3289-13.49,17.7712,17.7712,0,0,0-8.0537-11.1655A18.2883,18.2883,0,0,0,1499.2459,796.3644Z"/>
    <path d="M1626.0169,817.0392a5.12,5.12,0,0,1-4.6528-2.929,4.9953,4.9953,0,0,1,2.5088-6.6737c18.6414-8.4233,28.8916-13.4876,36.4581-17.3306,20.5954-10.4529,44.3743-25.41,52.4206-50.203l-63.7154,26.3018a5.1508,5.1508,0,0,1-6.6969-2.6906,5,5,0,0,1,2.7388-6.5877l72.9111-30.1007a5.1869,5.1869,0,0,1,5.1176.6634,4.9907,4.9907,0,0,1,1.9241,4.7105c-5.9073,39.3839-45.209,59.3388-60.0021,66.848-7.6714,3.8971-18.0516,9.0229-36.8779,17.53A5.1564,5.1564,0,0,1,1626.0169,817.0392Z"/>
  </g>
  <g>
    <g id="color-5" data-name="color">
      <path d="M197.2388,667.3088l1.6241,259.03,248.89-259.03Zm33.8375,107.9549V708.0859a5.0792,5.0792,0,0,1,1.5584-3.6453,5.355,5.355,0,0,1,1.7259-1.1147,5.4745,5.4745,0,0,1,2.034-.3921H236.4l67.1834.0427a5.4643,5.4643,0,0,1,1.548.2247,5.2611,5.2611,0,0,1,3.3443,2.92,5.0256,5.0256,0,0,1-1.08,5.5948l-67.1834,67.1358h0a5.456,5.456,0,0,1-5.8171,1.1875,5.2251,5.2251,0,0,1-3.082-3.2545,4.997,4.997,0,0,1-.2365-1.5206Z" fill="#d0cfce"/>
      <polygon points="444.729 669.018 401.059 670.117 197.803 883.121 197.331 928.743 444.729 669.018" fill="#9b9b9a"/>
      <line x1="240.3853" y1="846.8462" x2="232.0772" y2="838.6826" fill="none"/>
      <line x1="276.1724" y1="809.0195" x2="267.8643" y2="800.8566" fill="none"/>
      <line x1="294.0654" y1="790.1071" x2="285.7579" y2="781.9435" fill="none"/>
      <line x1="311.9596" y1="771.1941" x2="303.6515" y2="763.0299" fill="none"/>
      <line x1="329.8525" y1="752.2804" x2="321.5451" y2="744.1168" fill="none"/>
      <line x1="365.6403" y1="714.4544" x2="357.3322" y2="706.2908" fill="none"/>
      <line x1="258.8454" y1="828.4901" x2="244.6686" y2="814.5591" fill="none"/>
      <line x1="348.3139" y1="733.925" x2="334.1358" y2="719.9933" fill="none"/>
    </g>
    <g id="line-6" data-name="line">
      <path d="M196.6286,937.4339a6.2665,6.2665,0,0,1-2.42-.481,6.5724,6.5724,0,0,1-4.025-6.0871V667.9726a6.6408,6.6408,0,0,1,1.8882-4.6471,6.3951,6.3951,0,0,1,4.5567-1.9211h.0032l249.9311.1668a6.4435,6.4435,0,0,1,5.9288,4.0089,6.67,6.67,0,0,1-1.3092,7.1326L201.2546,935.4391A6.3771,6.3771,0,0,1,196.6286,937.4339Zm6.4449-262.89V914.657L431.3444,674.6979Z"/>
      <path d="M231.9244,794.8491a6.3271,6.3271,0,0,1-2.42-.4811,6.569,6.569,0,0,1-4.0249-6.0871V702.6382a6.6412,6.6412,0,0,1,1.8882-4.6471,6.3949,6.3949,0,0,1,4.5567-1.921h.0032l81.4169.0545a6.4444,6.4444,0,0,1,5.932,4.0089,6.6582,6.6582,0,0,1-1.3091,7.1326L236.55,792.8542A6.39,6.39,0,0,1,231.9244,794.8491Zm6.4449-85.6395V772.069l59.7568-62.8177Z"/>
      <path d="M240.3865,853.4141a6.3559,6.3559,0,0,1-4.4749-1.8409l-8.3079-8.1653a6.6588,6.6588,0,0,1-.1636-9.2878,6.37,6.37,0,0,1,9.1134-.1668l8.3079,8.1653a6.6588,6.6588,0,0,1,.1636,9.2878A6.3762,6.3762,0,0,1,240.3865,853.4141Z"/>
      <path d="M276.1732,815.5894a6.3555,6.3555,0,0,1-4.4749-1.8409l-8.3079-8.1653a6.6587,6.6587,0,0,1-.1636-9.2877,6.3779,6.3779,0,0,1,9.1134-.1668l8.3079,8.1653a6.6588,6.6588,0,0,1,.1636,9.2878A6.3765,6.3765,0,0,1,276.1732,815.5894Z"/>
      <path d="M294.0665,796.6739a6.3432,6.3432,0,0,1-4.4717-1.8409l-8.3079-8.1621a6.6521,6.6521,0,0,1-.1668-9.2846,6.3607,6.3607,0,0,1,9.11-.17l8.3078,8.1621a6.6519,6.6519,0,0,1,.1668,9.2845A6.3622,6.3622,0,0,1,294.0665,796.6739Z"/>
      <path d="M311.96,777.7616a6.3436,6.3436,0,0,1-4.4718-1.8409l-8.3078-8.1621a6.652,6.652,0,0,1-.1668-9.2846,6.3606,6.3606,0,0,1,9.11-.17l8.3079,8.1621a6.6521,6.6521,0,0,1,.1668,9.2846A6.3626,6.3626,0,0,1,311.96,777.7616Z"/>
      <path d="M329.85,758.8492a6.37,6.37,0,0,1-4.4749-1.8408l-8.3047-8.1653a6.6589,6.6589,0,0,1-.1637-9.2878,6.369,6.369,0,0,1,9.11-.1668l8.3078,8.1653a6.6559,6.6559,0,0,1,.1637,9.2878A6.3763,6.3763,0,0,1,329.85,758.8492Z"/>
      <path d="M365.6431,721.0214a6.3561,6.3561,0,0,1-4.4749-1.8409l-8.3079-8.1621a6.652,6.652,0,0,1-.1636-9.2846,6.3588,6.3588,0,0,1,9.1135-.17l8.3078,8.1621a6.652,6.652,0,0,1,.1637,9.2846A6.3675,6.3675,0,0,1,365.6431,721.0214Z"/>
      <path d="M258.8463,835.0566a6.3559,6.3559,0,0,1-4.4749-1.8409L240.1945,819.284a6.6587,6.6587,0,0,1-.1636-9.2878,6.364,6.364,0,0,1,9.1134-.1667l14.1769,13.9316a6.6587,6.6587,0,0,1,.1636,9.2878A6.3762,6.3762,0,0,1,258.8463,835.0566Z"/>
      <path d="M348.3162,740.4917a6.356,6.356,0,0,1-4.4749-1.8408l-14.18-13.9317a6.6519,6.6519,0,0,1-.1636-9.2846,6.3614,6.3614,0,0,1,9.1134-.17l14.18,13.9317a6.652,6.652,0,0,1,.1637,9.2846A6.3675,6.3675,0,0,1,348.3162,740.4917Z"/>
    </g>
  </g>
</svg>
