<?xml version="1.0" encoding="utf-8"?>
<!-- Generator: Adobe Illustrator 16.0.0, SVG Export Plug-In . SVG Version: 6.00 Build 0)  -->
<!DOCTYPE svg PUBLIC "-//W3C//DTD SVG 1.1//EN" "http://www.w3.org/Graphics/SVG/1.1/DTD/svg11.dtd">
<svg version="1.1" id="Ebene_1" xmlns="http://www.w3.org/2000/svg" xmlns:xlink="http://www.w3.org/1999/xlink" x="0px" y="0px"
	 width="30px" height="30px" viewBox="0 0 30 30" enable-background="new 0 0 30 30" xml:space="preserve">
<g id="_xDB80__xDC2D_">
	
		<path fill="#92D3F5" stroke="#1D1D1B" stroke-width="1.5" stroke-linecap="round" stroke-linejoin="round" stroke-miterlimit="10" d="
		M26.565,5.716c0,0-1.25,1.007-2.976,1.198c0,0-2.733-3.068-6.664-0.383c-1.778,1.248-1.921,3.836-1.631,4.796
		c0,0-5.323,0.43-9.978-5.036c0,0-2.062,3.596,1.346,6.474c0,0-1.008,0.145-1.968-0.623c0,0-0.48,3.741,3.693,4.749
		c0,0-0.29,0.48-1.968,0c0,0,0.289,3.021,4.221,3.453c0,0-2.157,2.206-6.954,1.916c0,0,7.961,5.95,16.547-1.246
		c4.795-4.076,4.652-9.927,4.557-10.837c0,0,1.869-1.44,2.396-2.35c0,0-1.488,0.48-2.686,0.48
		C24.597,8.306,26.18,7.441,26.565,5.716z"/>
</g>
</svg>
