<?xml version="1.0" encoding="utf-8"?>
<!-- Generator: Adobe Illustrator 16.0.0, SVG Export Plug-In . SVG Version: 6.00 Build 0)  -->
<!DOCTYPE svg PUBLIC "-//W3C//DTD SVG 1.1//EN" "http://www.w3.org/Graphics/SVG/1.1/DTD/svg11.dtd">
<svg version="1.1" id="Ebene_1" xmlns="http://www.w3.org/2000/svg" xmlns:xlink="http://www.w3.org/1999/xlink" x="0px" y="0px"
	 width="30px" height="30px" viewBox="0 0 30 30" enable-background="new 0 0 30 30" xml:space="preserve">
<path fill="#EA5A47" stroke="#000000" stroke-width="1.5" stroke-linecap="round" stroke-linejoin="round" stroke-miterlimit="10" d="
	M20.494,6.04c1.403,1.031,2.394,2.558,2.64,4.455l0,0c0.125,0.784,0.125,1.568,0.084,2.311c-0.126,1.816-0.744,3.589-1.734,4.951
	c-0.989,1.362-2.392,2.353-4.126,2.56c-0.411,0.041-0.865,0.082-1.32,0.041l0,0c-1.031-0.082-1.608-0.495-2.311-0.949
	c-0.122-0.082-0.248-0.164-0.411-0.289c-0.246,1.359-0.578,2.722-1.032,3.878c-0.494,1.32-1.238,2.435-2.27,3.178l-0.33,0.248
	l-0.04-0.373c-0.454-3.343,0.248-6.023,0.948-8.664c0.247-0.907,0.494-1.815,0.66-2.682c-0.413-0.742-0.536-1.732-0.371-2.681
	c0.083-0.66,0.33-1.28,0.661-1.816c0.328-0.536,0.823-0.907,1.36-1.072c0.413-0.124,0.908-0.124,1.445,0.082l0,0
	c1.73,0.702,1.113,2.559,0.535,4.456c-0.207,0.578-0.372,1.197-0.495,1.733c-0.206,1.114-0.082,2.022,1.155,2.268l0,0
	c0.701,0.123,1.319,0,1.855-0.329c0.743-0.454,1.321-1.279,1.734-2.228c0.413-0.991,0.618-2.146,0.66-3.26
	c0-1.486-0.373-2.847-1.156-3.673c-0.906-0.907-2.021-1.36-3.135-1.444c-1.114-0.082-2.228,0.166-3.26,0.702
	c-0.99,0.536-1.898,1.279-2.477,2.268c-0.659,1.032-0.948,2.312-0.742,3.672c0.083,0.413,0.248,0.743,0.454,1.073
	c0.414,0.701,0.825,1.32,0.082,2.641l-0.082,0.164l-0.164-0.041c-1.156-0.248-1.98-0.825-2.475-1.609
	c-0.496-0.783-0.703-1.773-0.744-2.929l0,0c0.041-2.188,0.824-4.126,2.146-5.57c1.319-1.444,3.177-2.434,5.364-2.64
	c0.206-0.041,0.411-0.041,0.659-0.041c0.206,0,0.412,0,0.66,0C16.987,4.348,18.967,4.926,20.494,6.04L20.494,6.04z"/>
</svg>
