<?xml version="1.0" encoding="utf-8"?>
<!-- Generator: Adobe Illustrator 16.0.0, SVG Export Plug-In . SVG Version: 6.00 Build 0)  -->
<!DOCTYPE svg PUBLIC "-//W3C//DTD SVG 1.1//EN" "http://www.w3.org/Graphics/SVG/1.1/DTD/svg11.dtd">
<svg version="1.1" id="Ebene_1" xmlns="http://www.w3.org/2000/svg" xmlns:xlink="http://www.w3.org/1999/xlink" x="0px" y="0px"
	 width="30px" height="30px" viewBox="0 0 30 30" enable-background="new 0 0 30 30" xml:space="preserve">
<circle fill="none" stroke="#C0C0C0" stroke-width="1.5" stroke-linecap="round" stroke-linejoin="round" stroke-miterlimit="10" cx="15" cy="15" r="10.5"/>
<path fill="none" stroke="#C0C0C0" stroke-width="1.5" stroke-linecap="round" stroke-linejoin="round" stroke-miterlimit="10" d="
	M20.024,5.775c-0.188,0.337-0.601,0.788-0.899,0.975C18.674,7.013,18.412,6.862,18,7.125c-0.488,0.3-0.451,0.712-0.75,0.75
	c-0.301,0.038-0.264-0.75-0.375-1.125C16.688,6.188,16.799,6.188,16.5,6c-0.413-0.263-1.201-0.413-1.875,0
	c-0.264,0.15-0.301,0.263-1.125,1.5c-0.639,0.938-0.826,1.163-0.75,1.5c0.074,0.337,0,0.638,0.375,0.75
	c0.449,0.112,0.524-0.112,0.75-0.375c0.486-0.562,0.899-1.425,1.125-1.5C15.225,7.8,15.787,8.362,15.75,9
	c0,0.45-0.338,0.712-0.75,1.125c-0.264,0.263-1.088,0.562-2.25,0.75c-0.639,0.112-0.525,0.337-0.788,0.6
	c-0.3,0.375-0.188,0.825-0.487,1.237c-0.375,0.525-1.312,0.675-1.388,1.013c-0.075,0.3,0.75,0.525,1.125,0.525
	c0.337,0,0.413-0.3,1.125-0.75c0.263-0.188,0.675-0.487,1.013-0.45c0.188,0,0.675,0.113,0.862,0.263
	c0.226,0.188-0.075,0.675-0.149,1.2c-0.076,0.525-1.088,0.712-1.463,0.75c-0.6,0.112-1.537-0.188-2.1,0.337
	c-0.375,0.375-0.413,0.675-0.451,1.275c0,0.15,0.338,1.125,0.75,1.5c0.413,0.375,0.863-0.3,1.5,0c0.639,0.338,0.938,1.013,1.125,1.5
	c0.188,0.488,0.076,0.451,0.375,1.875c0.15,0.713,0.113,0.412,0.375,1.5c0.226,0.9,0.226,1.051,0.375,1.125
	c0.451,0.264,1.463-0.299,1.875-1.125c0.264-0.525,0.076-0.75,0.375-1.875c0.15-0.562,0.226-0.861,0.375-1.125
	c0.639-1.162,1.838-1.162,1.875-1.875c0.038-0.487-0.524-0.713-0.375-1.125c0.113-0.412,0.676-0.412,0.75-0.75
	c0.113-0.487-0.824-0.862-0.75-1.125c0.113-0.3,1.538-0.375,2.25,0.375c0.226,0.263,0.188,0.375,0.75,1.5
	c0.525,1.05,0.676,1.125,0.75,1.125c0.15-0.037,0.113-0.412,0.375-1.125c0.113-0.338,0.413-1.125,0.75-1.125
	c0.226,0,0.264,0.375,0.75,0.75c0.264,0.225,0.676,0.338,0.863,0.375c0.15-0.713,0.262-1.5,0.262-2.25
	C25.5,11.025,23.287,7.538,20.024,5.775"/>
</svg>
