<?xml version="1.0" encoding="utf-8"?>
<!-- Generator: Adobe Illustrator 23.0.0, SVG Export Plug-In . SVG Version: 6.00 Build 0)  -->
<svg version="1.1" id="Ebene_1" xmlns="http://www.w3.org/2000/svg" xmlns:xlink="http://www.w3.org/1999/xlink" x="0px" y="0px"
	 viewBox="0 0 55 65" style="enable-background:new 0 0 55 65;" xml:space="preserve">
<style type="text/css">
	.st0{fill:#1D1D1B;}
	.st1{fill:#FFE8BC;}
	.st2{fill:none;stroke:#000000;stroke-width:2;stroke-linecap:round;stroke-linejoin:round;}
	.st3{fill:#A07725;}
	.st4{fill:none;stroke:#000000;stroke-width:2;stroke-linecap:round;stroke-linejoin:round;stroke-miterlimit:10;}
	.st5{fill:#1C1C1B;}
	.st6{fill:none;stroke:#A07725;stroke-linecap:round;stroke-linejoin:round;stroke-miterlimit:10;}
	.st7{fill:#424242;}
</style>
<path class="st0" d="M7.5,65v-9.8c0-5,5.3-12.7,10.3-12.7c6,5,11.7,8.7,17.7,3.7c5,0,10,4,10,9V65H7.5z"/>
<path d="M36,46c-3.2,2.1-4.9,3-8.9,3.6C40.1,50,40.1,61,40.8,65H46C46,65,48,46,36,46"/>
<path class="st1" d="M20.5,40.9c-1,11,2.7,10.7,6.2,16.1c2.8-6.8,9.4-3.9,8.9-14.9"/>
<path class="st2" d="M7.7,64v-9c0-5,5.1-14.8,10.1-14.8c0.8,0.6,2,6,2.6,7.9c1.8,5.8,4.4,5.4,6.3,8.9c2-3.7,5.5-4,6.1-10
	c0.2-2.2,2.4-5.7,3.3-6.4c5,0,9.7,9.5,9.7,14.4v9"/>
<path class="st3" d="M29.8,41.8c4.2,2.6,1.9,7.7,3.7,9.6c4.5,4.8,2.5,8.5,1.4,9.9c5.6-1.2,8.5-8.3,8.5-8.6c1.3,1.2,2.3-1.2,5.5,7.1
	c0.2-2.7,2.5-4,0.2-10.3C47.4,44.6,45.4,41,45,39c-0.9-4.6-2.7-8.5-3.6-12.2c-2.4-10.3-4.3-17-11.1-16.6
	c-15.6,0.9-17.6,6.6-18.9,13.2c-1.6,7.4-3,16.2-5.4,22.5c-0.6,1.5,1.2,4.5-0.6,7.8c-0.6,1.1-1.5,2.5-1.4,4.6c0.1,1.1,0,2.4,0.7,2.5
	C8.2,61.4,12.4,50,12.4,50s-0.8,8.3,1.1,8.3c-0.6-1.1,5.3-1.9,4.4-9c-0.6-5,3.2-7,5.9-7.1"/>
<path class="st1" d="M16.6,26.6v1c0,7.7,4.7,13.8,10.8,13.8c6,0,9.8-6.2,9.8-13.9c0-4.7-1.2-10.4-6-12.6c-6,1.1-9.2,1.9-12.5,3.6
	C15.9,19.9,17.1,25.8,16.6,26.6"/>
<path class="st4" d="M24.2,34.5c1.4,2.1,4.2,2,6,0"/>
<path class="st2" d="M16.2,20.5v7.7c0,8,5,14,11,14c5.7,0,9.9-7.3,9.8-12.6c0-2.1-0.5-6.9-0.5-7.4"/>
<path class="st4" d="M49.6,59.6c1.9-3-0.2-11.8-2.9-16.7c-2.2-4.1-4-10.2-5.3-16.1c-1.4-6.6-2.2-13-7.3-16.7
	c-3-2.1-14.9,1.3-18.3,2.8c-2.6,1.2-7,24.5-8.9,29.3c-1.7,4.5-0.5,8-1.6,10.5c-1.4,3.4-1.4,5.5-0.7,7"/>
<path class="st5" d="M33.1,27c0,1.1-0.9,2-2,2c-1.1,0-2-0.9-2-2s0.9-2,2-2C32.2,25,33.1,25.9,33.1,27"/>
<path class="st5" d="M25.1,27c0,1.1-0.9,2-2,2s-2-0.9-2-2s0.9-2,2-2S25.1,25.9,25.1,27"/>
<path d="M33.1,27c0,1.1-0.9,2-2,2c-1.1,0-2-0.9-2-2s0.9-2,2-2C32.2,25,33.1,25.9,33.1,27"/>
<path d="M25.1,27c0,1.1-0.9,2-2,2s-2-0.9-2-2s0.9-2,2-2S25.1,25.9,25.1,27"/>
<path class="st6" d="M20.4,23.9l1.6-0.6c0,0,1.6-0.1,2.8,0.4"/>
<path class="st6" d="M33.4,23.9l-1.6-0.6c0,0-1.6-0.1-2.8,0.4"/>
<path class="st2" d="M31.1,14.8c-3.1,1.6-9.8,1.9-12.5,3.6c-3.9,2.3-6.4,4.8-6.6,5.4"/>
<path class="st2" d="M31.1,14.8c4.4,1.6,7.8,12.4,7.2,20.5"/>
<path class="st4" d="M23.1,41.7c-3.3,2.3-5.7,2.9-5.1,8.7c0.3,3.5-2.9,6-4.4,7.8"/>
<path class="st4" d="M29.8,41.8c4.2,2.6,1.7,7,3.5,8.9c4.5,4.8,2.6,8.4,1.5,9.8"/>
<path class="st7" d="M41,24.9C40.5,24,41,8.5,25.7,8.5c-13.9,0-12.8,14.8-13.9,16.6C12.9,23.3,14.4,15,25.7,15
	C37.5,14.9,40.6,23.9,41,24.9"/>
<path class="st7" d="M35.3,13.9c-0.3-0.5,0.8-8.8-9.5-8.8c-9.3,0-8.6,7.7-9.3,8.8c0.8-1,1.7-6,9.3-6C33.7,7.9,35,13.3,35.3,13.9"/>
<path class="st4" d="M40.8,24.9C40.3,24,41.2,8.5,25.9,8.5C12,8.5,12.7,23.2,11.6,25c1.1-1.8,3-10,14.3-10
	C37.6,14.9,40.3,23.9,40.8,24.9z"/>
<path class="st4" d="M15.5,13.2c3.9-11.1,18-10.6,21.3-0.1"/>
</svg>
