<svg id="Ebene_2" data-name="Ebene 2" xmlns="http://www.w3.org/2000/svg" viewBox="0 0 55 65">
  <title>daniel_quiros</title>
  <g id="line">
    <path d="M35.7664,13.7836h1.2c.72.12,2.28.36,2.4.96.24,1.08-4.44,2.64-4.68,2.76-.12,0-1.44.48-1.44.48h0c-6.84,2.04-7.2,1.8-12.6,0,0,0-2.88,0-7.32,8.04v.36c-2.76-4.2-1.8-9.24,2.4-12.36a14.28,14.28,0,0,1,16.56-1.08h1.2v.96h2.28Z" fill="#69462e"/>
    <path d="M49.9268,64.7851s2.4-17.52-12-17.52c-3.84,2.52-7.08,4.44-10.8,4.44h.12c-3.72,0-6.96-1.8-10.8-4.44-14.4,0-12,17.5205-12,17.5205" fill="#9b9b9a"/>
    <path d="M38.6464,46.9046c-3.72,2.52-6,3.84-10.8,4.56,15.4805.48,15.4805,8.64,16.3205,13.32h6S52.8069,46.9046,38.6464,46.9046Z" fill="#3f3f3f"/>
    <path d="M49.5668,64.7851h-.24a1.189,1.189,0,0,1-.96-1.32c0-.12.96-6.84-2.52-11.16a10.2494,10.2494,0,0,0-7.8-3.24c-3.96,2.64-7.2,4.2-10.8,4.32h-.12c-3.72,0-6.96-1.68-10.8-4.32a9.9085,9.9085,0,0,0-7.8,3.24c-3.6,4.08-2.52,11.04-2.52,11.16a1.189,1.189,0,0,1-.96,1.32,1.189,1.189,0,0,1-1.32-.96h0c0-.36-1.2-7.92,3.12-13.08a12.5579,12.5579,0,0,1,9.96-4.08,1.7056,1.7056,0,0,1,.72.24c3.84,2.52,6.84,4.08,9.96,4.08s6.24-1.56,9.96-4.08a1.7056,1.7056,0,0,1,.72-.24c4.44,0,7.68,1.32,9.96,4.08,4.32,4.92,3.12,12.72,3.12,13.08A3.421,3.421,0,0,1,49.5668,64.7851Z"/>
    <g id="_" data-name=" ">
      <line x1="31.2062" y1="61.065" x2="22.806" y2="61.065" fill="none" stroke="#d22f27" stroke-linecap="round" stroke-linejoin="round"/>
      <line x1="31.2062" y1="62.5051" x2="22.806" y2="62.5051" fill="none" stroke="#d22f27" stroke-linecap="round" stroke-linejoin="round"/>
      <g>
        <path d="M26.4061,59.385h0a1.2026,1.2026,0,0,1-1.2-1.2h0v-1.8a1.2027,1.2027,0,0,1,1.2-1.2h0a1.2026,1.2026,0,0,1,1.2,1.2h0v1.92a1.1839,1.1839,0,0,1-1.2,1.08Z" fill="none" stroke="#d22f27" stroke-linecap="round" stroke-linejoin="round"/>
        <path d="M30.0062,59.385h0a1.2025,1.2025,0,0,1-1.2-1.2h0v-1.8a1.2026,1.2026,0,0,1,1.2-1.2h0a1.2026,1.2026,0,0,1,1.2,1.2h0v1.92a1.108,1.108,0,0,1-1.2,1.08Z" fill="none" stroke="#d22f27" stroke-linecap="round" stroke-linejoin="round"/>
        <polyline points="22.806 56.025 23.886 55.185 23.886 59.385" fill="none" stroke="#d22f27" stroke-linecap="round" stroke-linejoin="round"/>
      </g>
    </g>
    <path d="M40.9265,30.3441a18.1613,18.1613,0,0,1-2.28,10.32,9.0544,9.0544,0,0,1-2.52,3.12,12.5986,12.5986,0,0,1-8.88,2.88h-.36a12.5986,12.5986,0,0,1-8.88-2.88,15.9491,15.9491,0,0,1-2.52-3.12,18.1613,18.1613,0,0,1-2.28-10.32c.12-1.32.12-2.4.12-2.76a35.0119,35.0119,0,0,0,2.52,6.72s2.4,3.48,3.24-1.44a29.1412,29.1412,0,0,1,15.72,0c.96,4.92,3.24,1.44,3.24,1.44s2.28-4.32,2.52-6.72A10.8958,10.8958,0,0,1,40.9265,30.3441Zm-9.96,6.84.96-.84a2.5632,2.5632,0,0,1-.96,2.04c-.72.48-1.56.12-3.6,0h-2.4c-1.08-.84-2.16-1.68-1.92-2.28.48-1.68,9-1.2,9.12-.12s-7.68,1.68-8.28,1.2h-.12A6.1235,6.1235,0,0,0,30.9662,37.1843Z" fill="#69462e"/>
    <path d="M34.8063,16.0637c1.44.12,3.84,1.8,6,10.44v.48a34.3589,34.3589,0,0,1-2.52,6.96,2.906,2.906,0,0,1-3.6,2.04h-.12a2.4375,2.4375,0,0,1-1.2-2.4h-12a3.1326,3.1326,0,0,1-1.2,2.4c-1.2.6-3.12,0-4.08-2.04a34.3589,34.3589,0,0,1-2.52-6.96v-.48c3.36-13.32,7.8-9.72,7.8-9.72a12.5217,12.5217,0,0,0,5.16,1.2A13.4691,13.4691,0,0,0,34.8063,16.0637Zm-.24,10.44a2.4,2.4,0,1,0-2.4,2.4A2.4071,2.4071,0,0,0,34.5663,26.504Zm-9.6,0a2.4,2.4,0,1,0-2.4,2.4A2.4071,2.4071,0,0,0,24.966,26.504Z" fill="#ead478"/>
    <g>
      <path d="M32.1663,24.1039a2.4,2.4,0,1,1-2.4,2.4A2.4071,2.4071,0,0,1,32.1663,24.1039Z" fill="#000100"/>
      <path d="M32.0462,35.8643a1.0835,1.0835,0,0,1-.48,1.56h0a8.756,8.756,0,0,1-4.2,1.08,7.9809,7.9809,0,0,1-4.08-1.08,1.18,1.18,0,0,1-.48-1.56,1.1462,1.1462,0,0,1,1.56-.48,6.1854,6.1854,0,0,0,6.12,0,1.1068,1.1068,0,0,1,1.56.48Z" fill="#000100"/>
      <path d="M22.566,24.1039a2.4,2.4,0,1,1-2.4,2.4A2.4071,2.4071,0,0,1,22.566,24.1039Z" fill="#000100"/>
    </g>
    <g>
      <path d="M13.3257,26.864c0,.48,0,1.68-.12,2.88a19.366,19.366,0,0,0,2.28,10.68,16.7379,16.7379,0,0,0,2.52,3.24,11.9947,11.9947,0,0,0,8.88,3" fill="none" stroke="#000" stroke-linecap="round" stroke-linejoin="round" stroke-width="2"/>
      <path d="M40.8065,26.864c0,.48.12,1.68.12,2.88a19.366,19.366,0,0,1-2.28,10.68,10.7672,10.7672,0,0,1-2.52,3.24,11.9947,11.9947,0,0,1-8.88,3h-.36" fill="none" stroke="#000" stroke-linecap="round" stroke-linejoin="round" stroke-width="2"/>
      <path d="M13.3257,25.664a10.6452,10.6452,0,0,1,2.4-11.16c3.84-4.08,15.48-2.04,15.48-2.04,5.64.6,6.96,1.32,6.96,1.92.12.72-1.92,1.92-3.12,2.28a10.5183,10.5183,0,0,0-1.44.48h0a12.9877,12.9877,0,0,1-7.32,1.44c-2.76-.36-3.84-1.56-5.64-1.44-1.92.12-4.56,1.56-7.56,8.04" fill="none" stroke="#000" stroke-linecap="round" stroke-linejoin="round" stroke-width="2"/>
      <path d="M36.9664,14.3836c.12,0,1.2,2.4-1.2,2.4,1.44.12,2.88.96,5.16,9.6" fill="none" stroke="#000" stroke-linecap="round" stroke-linejoin="round" stroke-width="2"/>
      <path d="M39.3665,26.384c.12,2.04,0,6-2.64,8.4-.36.24-1.68,1.56-2.64,1.2-.84-.36-.48-1.56-1.32-2.4-.72-.6-2.16-.96-5.28,0" fill="none" stroke="#000" stroke-linecap="round" stroke-linejoin="round" stroke-width="2"/>
      <path d="M14.1657,26.384c-.12,2.04,0,6,2.88,8.4.36.24,1.92,1.56,2.88,1.2s.48-1.56,1.44-2.4c.72-.6,2.28-.96,5.88,0" fill="none" stroke="#000" stroke-linecap="round" stroke-linejoin="round" stroke-width="2"/>
    </g>
  </g>
</svg>
