<?xml version="1.0" encoding="utf-8"?>
<!-- Generator: Adobe Illustrator 24.0.0, SVG Export Plug-In . SVG Version: 6.00 Build 0)  -->
<svg version="1.1" id="Ebene_1" xmlns="http://www.w3.org/2000/svg" xmlns:xlink="http://www.w3.org/1999/xlink" x="0px" y="0px"
	 viewBox="0 0 55 65" style="enable-background:new 0 0 55 65;" xml:space="preserve">
<style type="text/css">
	.st0{fill:#3F3F3F;}
	.st1{fill:none;stroke:#030404;stroke-width:2;stroke-linecap:round;stroke-linejoin:round;}
	.st2{fill:#1C1C1B;}
	.st3{fill:#FFE8BC;}
	.st4{fill:none;stroke:#1C1C1B;stroke-width:2;stroke-linecap:round;stroke-linejoin:round;}
	.st5{fill:none;stroke:#CC9966;stroke-linecap:round;stroke-linejoin:round;stroke-miterlimit:10;}
	.st6{fill:none;stroke:#1C1C1B;stroke-width:2;stroke-linejoin:round;}
	.st7{fill:none;stroke:#FCEA2B;stroke-width:1.0001;stroke-linecap:round;}
	.st8{fill:none;stroke:#FCEA2B;stroke-linecap:round;stroke-linejoin:round;}
	.st9{fill:none;stroke:#FCEA2B;stroke-linecap:round;}
</style>
<path class="st0" d="M46.1,65c-0.6,0,0-10.1,0-10.1c0-4.5-5.5-8.8-9.7-8.9c-6.2,5-12.1,5-18.3,0c-4.2,0.2-9.9,3.4-9.9,7.8
	c0,0,0.4,11.2-0.1,11.2"/>
<path d="M36.4,46.5c-3.2,2.1-4.9,3-8.9,3.6c13.1,0.4,13.4,10.8,14.2,14.8h5.1C46.7,64.9,48.4,46.5,36.4,46.5"/>
<path class="st1" d="M8.1,64v-9c0-5,5-9,10-9c6,5,12,5,18,0c5,0,10,4,10,9v9"/>
<path class="st2" d="M33.5,27.9c0,1.1-0.9,2-2,2c-1.1,0-2-0.9-2-2s0.9-2,2-2C32.6,25.9,33.5,26.8,33.5,27.9"/>
<path class="st2" d="M25.5,27.9c0,1.1-0.9,2-2,2s-2-0.9-2-2s0.9-2,2-2S25.5,26.8,25.5,27.9"/>
<path class="st3" d="M15.3,28.4c-0.1,8,5.5,14.9,12.5,14.9c7.1,0,9.7-6.2,11.1-14c0.9-5.3-3.4-15.9-3.6-15.6c-9.5-8-13.1-2.3-17,2.3
	C18.2,16.1,15.3,23.4,15.3,28.4"/>
<path d="M33.5,27.9c0,1.1-0.9,2-2,2c-1.1,0-2-0.9-2-2s0.9-2,2-2C32.6,25.9,33.5,26.8,33.5,27.9"/>
<path d="M25.5,27.9c0,1.1-0.9,2-2,2s-2-0.9-2-2s0.9-2,2-2S25.5,26.8,25.5,27.9"/>
<path class="st4" d="M24.5,37.2c2.1,0.8,4.1,0.8,6,0"/>
<path class="st5" d="M19.9,24.6l1.6-0.6c0,0,2.4-0.5,3.9,0.1"/>
<path class="st5" d="M35.2,24.6L33.5,24c0,0-2.4-0.5-3.9,0.1"/>
<path class="st6" d="M38.5,24.6c0.1,3.6-0.2,9.4-1.7,12.6c-1.9,4-4.7,5.7-9.2,5.7c-3.6,0-8.2-3-9.7-6.6c-1.6-3.9-2-8.4-2-12.2
	c0-5.3,3.6-14,12.1-14C35.6,10.2,38.4,20.2,38.5,24.6z"/>
<circle class="st7" cx="22" cy="59.8" r="2.8"/>
<circle class="st7" cx="33" cy="59.8" r="2.8"/>
<g>
	<path class="st8" d="M30,55.2h-4.6c-0.1,0-0.2,0.1-0.1,0.2l1.7,3.8c0.1,0.1,0.2,0.1,0.3,0l3.2-3.6c0.1-0.1,0.1-0.3,0.1-0.4
		l-0.7-1.8"/>
</g>
<line class="st9" x1="23.8" y1="53.5" x2="25.8" y2="53.5"/>
</svg>
