<svg id="Ebene_2" data-name="Ebene 2" xmlns="http://www.w3.org/2000/svg" viewBox="0 0 55 65">
  <title>florian_nagel</title>
  <g id="line">
    <path d="M20.4,15.7125s4.7837.7232,14.3733-.5562a58.2685,58.2685,0,0,1,2.0581,8.9,17.3535,17.3535,0,0,1-.3893,7.0977c-1.691,5.8629-6.1187,9.2114-10.0124,9.2114h.089c-3.8715,0-8.2992-3.3374-10.0125-9.2114a13.8039,13.8039,0,0,1-.4227-1.9913,16.2091,16.2091,0,0,1,.801-7.4092Z" fill="#ffe8bc"/>
    <path d="M30.3121,32.7a6.508,6.508,0,0,1-7.2423,0" fill="none" stroke="#000" stroke-linecap="round" stroke-linejoin="round" stroke-width="2"/>
    <path d="M46.9661,65.2184c-.6341,0,0-10.602,0-10.602,0-4.717-5.8183-9.2337-10.2683-9.3338-6.5637,5.24-12.8047,5.24-19.3684,0-4.45.2113-10.48,3.56-10.48,8.1768,0,0,.4228,11.759-.1112,11.759" fill="#3f3f3f"/>
    <path d="M36.22,45.8388a19.3351,19.3351,0,0,1-9.3338,3.7268c13.7392.4228,14.0619,11.3363,14.8962,15.5749h5.3845c-.1,0,3.3375-20.0248-10.9136-19.3017" opacity="0.4" style="isolation: isolate"/>
    <path d="M7.1167,64.0948V54.65c0-5.24,5.251-9.445,10.4908-9.445q9.445,7.8763,18.9123,0c5.24,0,10.4908,4.2052,10.4908,9.445v9.4451" fill="none" stroke="#030404" stroke-linecap="round" stroke-linejoin="round" stroke-width="2"/>
    <path d="M36.9092,23.6669a56.8429,56.8429,0,0,0-1.335-6.1744,2.8035,2.8035,0,0,0-2.9369-2.047,72.4767,72.4767,0,0,1-11.1917-.1779A2.7812,2.7812,0,0,0,18.6087,17.07l-1.6131,4.272a2.7615,2.7615,0,0,0-.178.9011l-.1223,4.0161a13.1382,13.1382,0,0,0,2.8924,8.6551l1.7355,2.225A6.8084,6.8084,0,0,0,26.63,39.6756h.9122a5.3509,5.3509,0,0,0,4.1941-2.0136l1.5909-2.0136a15.2524,15.2524,0,0,0,3.26-7.9877l.3337-3.2262A3.0341,3.0341,0,0,0,36.9092,23.6669Z" fill="none" stroke="#000" stroke-linejoin="round" stroke-width="2"/>
    <path d="M32.9821,24.7349A2.1026,2.1026,0,1,1,30.88,22.6322h.011a2.1027,2.1027,0,0,1,2.0915,2.1027"/>
    <path d="M24.5939,24.7349a2.1026,2.1026,0,1,1-2.1026-2.1027h0a2.1026,2.1026,0,0,1,2.1026,2.1027"/>
    <path d="M37.3876,23.4221c.1557.5563-2.7034-7.1088-6.9865-6.8974a36.9891,36.9891,0,0,1-8.9,0,1.7688,1.7688,0,0,0-1.8245.9345l-3.3374,6.6749S12.3788,9.5827,23.9932,10.9956C23.9265,11.0067,40.3468,6.1785,37.3876,23.4221Z" fill="#f9e664" stroke="#000" stroke-linejoin="round" stroke-width="2"/>
    <path d="M33.9389,23.1551a5.3958,5.3958,0,0,0-4.35-2.403" fill="none" stroke="#f9e664" stroke-linecap="round" stroke-miterlimit="10" stroke-width="0.75"/>
    <path d="M19.5766,23.1551a5.3957,5.3957,0,0,1,4.35-2.403" fill="none" stroke="#f9e664" stroke-linecap="round" stroke-miterlimit="10" stroke-width="0.75"/>
    <path d="M17.741,22.8659h7.1756a.712.712,0,0,1,.712.712v2.7144a1.4129,1.4129,0,0,1-1.4129,1.4129H18.6532a.623.623,0,0,1-.6007-.4561l-.9234-3.6156a.623.623,0,0,1,.6119-.7676Z" fill="none" stroke="#000" stroke-linejoin="round" stroke-width="0.5"/>
    <path d="M35.73,22.8659H28.41a.59.59,0,0,0-.59.5785v2.8368a1.4239,1.4239,0,0,0,1.424,1.424H34.74a.59.59,0,0,0,.5673-.4339l.9456-3.7268a.5448.5448,0,0,0-.5228-.6786Z" fill="none" stroke="#000" stroke-linejoin="round" stroke-width="0.5"/>
    <polyline points="26.585 23.422 26.585 23.422 26.585 23.422" fill="none" stroke="#000" stroke-linejoin="round"/>
    <line x1="17.1291" y1="22.8659" x2="36.1305" y2="22.8659" fill="none" stroke="#000" stroke-linejoin="round"/>
  </g>
</svg>
