<svg id="Ebene_2" data-name="Ebene 2" xmlns="http://www.w3.org/2000/svg" viewBox="0 0 55 65">
  <title>hend_hourani</title>
  <path d="M19.0927,43.98s4.1441,3.53,7.0784,3.7559-.5327,5.1192-.5327,5.1192h0l-8.5771-4.74Z" fill="#6e2f37"/>
  <path d="M35.0462,13.96s-4.9657-6.4013-9.7779-2.2572L12.6283,17.49s-4.442.8306-1.58,14.0755c0,0,.2257,9.0285-2.1127,11.5836h0s-4.433,6.013.0813,8.8028,1.2008,1.12,1.2008,1.12l4.8935-1.7335,1.95-3.2322,3.5392-2.7086s-4.3608-8.0534-4.442-11.9628c0,0-.0723-6.8526,5.5706-4.9657s6.3922-7.6742,7.2228-7.8277,1.8057-3.6837,7.3763,4.2163,2.9343,8.4959,3.16,9.48-3.9906,14.3012-12.342,13.48-1.4446,4.6587-1.4446,4.6587,2.1759,2.9343,9.7057-2.7086c0,0,2.0314-1.9592,3.16.8306h0a9.3426,9.3426,0,0,1,3.8371,1.4266c1.21,1.0473,6.5457-7.8188,5.7873-10.3829h0S42.63,31.936,43.226,24.2617h0S43.849,15.8381,35.0462,13.96Z" fill="#662b2b"/>
  <path d="M32.7168,20.1989s-5.2095-2.0314-6.6992,7.295c0,0-1.4265,1.8057-5.4171.6049h0a4.6316,4.6316,0,0,0-4.6677,3.6837c-.9751,3.9184,3.16,15.8721,10.6717,15.9534,0,0,13.0914.9751,12.1885-18.0571a27.89,27.89,0,0,0-5.8324-9.3535" fill="#c7ac84"/>
  <path d="M39.1812,32.0082c0,8.6945-4.9747,15.6916-11.6739,15.6916S15.9779,41.01,15.9779,32.3061" fill="none" stroke="#000" stroke-miterlimit="10" stroke-width="2"/>
  <path d="M32.9786,20.3253s6.6179,5.5254,6.13,13.1275" fill="none" stroke="#000" stroke-linecap="round" stroke-miterlimit="10" stroke-width="2"/>
  <path d="M6.3806,64.89S5.6312,50.3,16.6731,51.6543c0,0-1.4355-3.0878.5959-3.3135h0l10.0126,5.5706,8.1257-4.1441s1.4265-1.8779,3.16.8306h0s10.6988,1.9592,8.9653,14.211" fill="#3a46d0"/>
  <path d="M17.1516,51.564c-2.3745-3.2774.7042-3.4128.7042-3.4128,5.7693,3.6114,5.7783,3.6566,8.8029,5.02s.7313,4.3427.7313,4.3427" fill="none" stroke="#000" stroke-linecap="round" stroke-miterlimit="10" stroke-width="2"/>
  <path d="M33.3127,20.4968s-5.0741-2.7085-6.2026,3.6114-5.6429,4.0629-5.6429,4.0629-5.083-.9029-5.5344,4.4059" fill="none" stroke="#000" stroke-miterlimit="10" stroke-width="2"/>
  <path d="M8.4842,51.7626c-3.6114-2.1488,1.02-10.0487,1.02-10.0487a24.9461,24.9461,0,0,0,.6772-14.6714C8.15,18.5828,14.47,16.5514,14.47,16.5514A29.24,29.24,0,0,0,24.9613,11.694c5.8685-4.0628,10.3828,2.7086,10.3828,2.7086" fill="none" stroke="#000" stroke-linecap="round" stroke-miterlimit="10" stroke-width="2"/>
  <path d="M34.7843,13.9511s9.3626.1174,8.5771,13.2088a26.3272,26.3272,0,0,0,3.8372,12.2968c3.72,5.8686-3.16,10.7259-3.16,10.7259" fill="none" stroke="#000" stroke-linecap="round" stroke-miterlimit="10" stroke-width="2"/>
  <path d="M22.5236,55.0219a1.3543,1.3543,0,1,0,1.3543-1.3542A1.3542,1.3542,0,0,0,22.5236,55.0219Z"/>
  <path d="M29.7464,55.0219a1.3543,1.3543,0,1,0,1.3543-1.3542A1.3542,1.3542,0,0,0,29.7464,55.0219Z"/>
  <path d="M26.8844,58.11s-9.1459-.2257-9.7418-5.7512c0,0,.4875-1.2459-1.58-1.21S5.74,52.7648,6.7417,64.4658" fill="none" stroke="#000" stroke-linecap="round" stroke-miterlimit="10" stroke-width="2"/>
  <path d="M27.399,58.11s9.1369-.2257,9.7418-5.7512c0,0-.4876-1.2459,1.58-1.21s9.823,1.6161,8.8479,13.3171" fill="none" stroke="#000" stroke-linecap="round" stroke-miterlimit="10" stroke-width="2"/>
  <path d="M28.1484,53.767l6.8075-4.0087s4.2253-1.9231,3.5482,1.4085" fill="none" stroke="#000" stroke-linecap="round" stroke-miterlimit="10" stroke-width="2"/>
  <path d="M24.1036,55.3289s1.58,5.047.56,9.11" fill="none" stroke="#000" stroke-linecap="round" stroke-miterlimit="10" stroke-width="2"/>
  <path d="M31.3264,55.3289s1.58,5.047.56,9.11" fill="none" stroke="#000" stroke-linecap="round" stroke-miterlimit="10" stroke-width="2"/>
  <path d="M34.8475,28.0176l-1.4445-.5508a7.7842,7.7842,0,0,0-3.4941.0452" fill="none" stroke="#662b2b" stroke-linecap="round" stroke-linejoin="round"/>
  <path d="M25.0877,40.9555a5.7515,5.7515,0,0,0,5.4171,0" fill="none" stroke="#000" stroke-linecap="round" stroke-linejoin="round" stroke-width="2"/>
  <path d="M33.1231,32.9652A1.8057,1.8057,0,1,1,31.3174,31.16a1.8057,1.8057,0,0,1,1.8057,1.8057"/>
  <path d="M25.9,32.9652A1.8058,1.8058,0,1,1,24.0945,31.16,1.8057,1.8057,0,0,1,25.9,32.9652"/>
  <path d="M33.6919,32.0714c-.09.09-.2077.623-.7494.7133a1.9416,1.9416,0,0,1-1.4446-.09" fill="none" stroke="#000100" stroke-linecap="round" stroke-linejoin="round"/>
  <path d="M32.9245,30.8255c-.2709.343-.3792.7854-.9029.9028s-.1806,1.0834-.5417.9029" fill="none" stroke="#000100" stroke-linecap="round" stroke-linejoin="round"/>
  <path d="M21.7562,32.3061a1.5347,1.5347,0,0,0,.9028.4515,1.9415,1.9415,0,0,0,1.4446-.09" fill="none" stroke="#000100" stroke-linecap="round" stroke-linejoin="round"/>
  <path d="M22.6139,30.997a1.6611,1.6611,0,0,0,.9028.7042c.5417.1806.1806,1.0835.5417.9029" fill="none" stroke="#000100" stroke-linecap="round" stroke-linejoin="round"/>
</svg>
