<svg id="Ebene_2" data-name="Ebene 2" xmlns="http://www.w3.org/2000/svg" viewBox="0 0 55 65">
  <title>jonas_dunkel</title>
  <g id="line">
    <path d="M36.7719,25.1977l-1.48-6.7346a48.19,48.19,0,0,1-14.4908-1.0425l-3.1275,7.4018s.8965-9.5181-2.9086-10.2165c0,0,2.158-4.41,9.8412-1.9287,0,0,1.48-7.36,9.7266.1668C34.3429,12.8128,43.0061,12.646,36.7719,25.1977Z" fill="#bf926a"/>
    <path d="M20.8007,16.7951s5.2751,2.5959,14.2615,1.397a54.6148,54.6148,0,0,1,1.9286,8.34,16.2616,16.2616,0,0,1-.3649,6.6512c-1.5846,5.494-5.7337,8.632-9.3825,8.632h.0834c-3.6279,0-7.7771-3.1275-9.3826-8.632a12.9272,12.9272,0,0,1-.3961-1.8661,15.1877,15.1877,0,0,1,.7506-6.943Z" fill="#ffe8bc"/>
    <path d="M31.893,34.4343a10.6753,10.6753,0,0,1-8.8405,0" fill="none" stroke="#000" stroke-linecap="round" stroke-linejoin="round" stroke-width="2"/>
    <path d="M38.8256,19.9018c.5213-1.8974.6151-4.17-.5942-5.7442a3.7111,3.7111,0,0,0-3.8885-1.3448,2.6582,2.6582,0,0,0-1.5951,3.0336h0" fill="none" stroke="#000" stroke-linecap="round" stroke-linejoin="round" stroke-width="2"/>
    <path d="M31.9347,10.8216s-2.7-2.6688-5.6608-.9487a3.19,3.19,0,0,0-1.6159,2.1684A2.4811,2.4811,0,0,0,26.1175,14.7" fill="none" stroke="#000" stroke-linecap="round" stroke-linejoin="round" stroke-width="2"/>
    <path d="M46.4881,65.1049c-.5943,0,0-9.9351,0-9.9351,0-4.42-5.4524-8.6528-9.6224-8.7466-6.1508,4.91-11.9992,4.91-18.15,0-4.17.198-9.82,3.336-9.82,7.6624,0,0,.3961,11.0193-.1043,11.0193" fill="#131311"/>
    <path d="M36.4174,46.7151A18.2333,18.2333,0,0,1,27.6708,50.26c12.875.3857,13.1773,10.6127,13.9592,14.5951h5.0457c-.0938,0,1.5742-18.0875-10.227-18.0875" fill="#1d1d1b"/>
    <path d="M9.1455,64.0519V55.2011c0-4.91,4.9206-8.8509,9.8308-8.8509q8.8509,7.3809,17.7226,0c4.91,0,9.8309,3.9407,9.8309,8.8509v8.8508" fill="none" stroke="#030404" stroke-linecap="round" stroke-linejoin="round" stroke-width="2"/>
    <path d="M20.53,16.7951s10.4251,3.482,15.0851,1.397a53.0433,53.0433,0,0,1,2.085,8.34,15.2521,15.2521,0,0,1-.4066,6.62c-1.6784,5.494-6.0673,8.6319-9.9142,8.6319h.0938a10.5084,10.5084,0,0,1-9.9142-8.6319c-.8132-4.5037-.4274-6.5366.344-8.7571Z" fill="none" stroke="#000" stroke-linejoin="round" stroke-width="2"/>
    <path d="M33.3837,27.1681a1.97,1.97,0,1,1-1.97-1.97h.01a1.97,1.97,0,0,1,1.96,1.97"/>
    <path d="M25.5232,27.1681a1.97,1.97,0,1,1-1.97-1.97h0a1.97,1.97,0,0,1,1.97,1.97"/>
    <path d="M17.2979,26.4592S18.0068,16.42,14.775,15.0646c0-.5317,5.0457-4.41,7.5582-2.721" fill="none" stroke="#000" stroke-linecap="round" stroke-linejoin="round" stroke-width="2"/>
    <path d="M20.686,25.2916a5.0353,5.0353,0,0,1,4.42-1.4387" fill="none" stroke="#c96" stroke-linecap="round" stroke-miterlimit="10" stroke-width="0.75"/>
    <path d="M34.4888,25.2916a5.0353,5.0353,0,0,0-4.42-1.4387" fill="none" stroke="#c96" stroke-linecap="round" stroke-miterlimit="10" stroke-width="0.75"/>
  </g>
</svg>
