<?xml version="1.0" encoding="utf-8"?>
<!-- Generator: Adobe Illustrator 16.0.4, SVG Export Plug-In . SVG Version: 6.00 Build 0)  -->
<!DOCTYPE svg PUBLIC "-//W3C//DTD SVG 1.1//EN" "http://www.w3.org/Graphics/SVG/1.1/DTD/svg11.dtd">
<svg version="1.1" id="Ebene_1" xmlns="http://www.w3.org/2000/svg" xmlns:xlink="http://www.w3.org/1999/xlink" x="0px" y="0px"
	 width="55px" height="65px" viewBox="0 0 55 65" enable-background="new 0 0 55 65" xml:space="preserve">
<path fill="#5A5E5F" d="M14.8,14.2c-1.3,0.4-5,1.5-6.6,4c-2.1,3.1,0.1,7,5.5,9.5"/>
<path fill="#83674C" d="M15.4,33.7c-4.2-17.2,1.7-23.5,10.5-23.5c10,0,15.5,7.3,11.1,22.9"/>
<path fill="#1C1C1B" d="M31.7,27.8c0,1.1-0.9,2-2,2c-1.1,0-2-0.9-2-2c0-1.1,0.9-2,2-2C30.9,25.8,31.7,26.7,31.7,27.8"/>
<path fill="#1C1C1B" d="M23.7,27.8c0,1.1-0.9,2-2,2c-1.1,0-2-0.9-2-2c0-1.1,0.9-2,2-2C22.9,25.8,23.7,26.7,23.7,27.8"/>
<path fill="#FFE8BC" d="M14.8,28.8c-0.1,8,4.1,14,11,14c7.1,0,11.1-6,11.1-14c0-5-3-10-3-10c-8,0-10,3-16,1
	C17.9,19.8,14.9,23.8,14.8,28.8"/>
<path d="M31.7,27.8c0,1.1-0.9,2-2,2c-1.1,0-2-0.9-2-2c0-1.1,0.9-2,2-2C30.9,25.8,31.7,26.7,31.7,27.8"/>
<path d="M23.7,27.8c0,1.1-0.9,2-2,2c-1.1,0-2-0.9-2-2c0-1.1,0.9-2,2-2C22.9,25.8,23.7,26.7,23.7,27.8"/>
<path fill="none" stroke="#1C1C1B" stroke-width="2" stroke-linejoin="round" d="M14.8,28.8c-0.1,8,4.9,14,11,14
	c5.9,0,11.1-6,11.1-14c0-5-3-11-3-11c-8,0-10,3-16,1C17.9,18.8,14.9,23.8,14.8,28.8z"/>
<path fill="none" stroke="#1C1C1B" stroke-width="2" stroke-linecap="round" stroke-linejoin="round" d="M22.7,37.1
	c2.1,0.8,4.1,0.8,6,0"/>
<path fill="#83674C" d="M27,35.7l6.2,0.5c0.5,0-7.6-6-15,0l6.3-0.4L27,35.7z"/>
<path fill="none" stroke="#1C1C1B" stroke-linecap="round" stroke-linejoin="round" d="M26.9,35.7l6.2,0.5c0.5,0-7.6-6-15,0l6.3-0.4
	L26.9,35.7z"/>
<path fill="none" stroke="#1D1D1B" stroke-width="2" stroke-linecap="round" stroke-linejoin="round" stroke-miterlimit="10" d="
	M14.8,31.9C10.6,17.8,17.3,10,26.1,10c10,0,14.8,6.3,10.5,21.9"/>
<path fill="#BEAFD5" d="M14.9,18.9c-1.1,0.3,0-14.1,11.1-14.1c12.9,0,12.2,12.9,12.2,14.1c-1.6-0.2-4.8-1-5.7-2
	c-3.9-4.5,2.3-4.8-5.9-6c-5.2,0.4-3.4,6.8-5.1,6.9C18.5,18.1,16.3,18.4,14.9,18.9"/>
<path fill="none" stroke="#1D1D1B" stroke-width="2" stroke-linecap="round" stroke-linejoin="round" stroke-miterlimit="10" d="
	M22.4,17.2c0-0.2-0.5-3.9,1.5-5.4c1.6-1.2,4.8-1.4,6.6,0c1.3,1.1,1.6,3.8,1.1,5.5 M27.2,17.3c5.1-0.2,8.7,1.1,11,1.5
	c0-1.2,0.7-14.1-12.2-14.1c-11.2,0-12.2,14.5-11.1,14.1C17.1,18.2,21.5,17.6,27.2,17.3z M14.8,13.9c-1.4,0.4-4.9,1.6-6.6,4.1
	c-2.3,3.2,0.1,7.3,6,9.9"/>
<path fill="#9AD2F3" d="M45,64.9c-0.6,0,0-10.1,0-10.1c0-4.5-5.5-8.8-9.7-8.9c-6.2,5-12.1,4.9-18.3-0.1c-4.2,0.2-9.9,3.4-9.9,7.8
	c0,0,0.4,11.2-0.1,11.2"/>
<path fill="#54B4E4" d="M35.3,46.4c-3.2,2.1-4.9,3-8.9,3.6c13.1,0.4,13.1,11.4,13.8,15.4h5.1C45.3,65.4,47.3,46.4,35.3,46.4"/>
<path fill="none" stroke="#030404" stroke-width="2" stroke-linecap="round" stroke-linejoin="round" d="M7,63.9v-9c0-5,5-9,10-9
	c6,5,12,5,18,0c5,0,10,4,10,9v9"/>
</svg>
