<svg id="Ebene_2" data-name="Ebene 2" xmlns="http://www.w3.org/2000/svg" viewBox="0 0 55 65">
  <title>laura_schiesser</title>
  <g id="hair">
    <path d="M8.2314,49.0032A16.4666,16.4666,0,0,0,10.184,50.95c5.3581,4.5086,12.1417,4.2513,16.6307,4.0163,6.4516-.3377,13.5219-.7079,17.1785-5.9539a14.3361,14.3361,0,0,0,2.492-7.8656,19.43,19.43,0,0,0-1.145-5.6456c-.3184-.8368-.4555-1.1036-1.2374-2.8793a29.9442,29.9442,0,0,1-1.548-3.9826c-.993-3.5016-.28-4.6523-.9631-7.5264-.6968-2.9322-2.7636-6.4264-5.879-7.9827-2.2364-1.1172-2.5569-.0087-8.0936-1.301-2.9916-.6983-3.599-1.1856-5.3612-1.0539a11.2884,11.2884,0,0,0-5.8059,2.4314,12.5883,12.5883,0,0,0-4.9575,5.8669c-.118.3245-.2395.6892-.3488,1.1153-.6342,2.4744.3583,3.6707-.2548,5.6386-.3092.9926-.5343.6431-.8468,1.6392-.6636,2.1153.4487,3.3785-.1821,5.4063a5.52,5.52,0,0,1-.9811,1.7568,16.5957,16.5957,0,0,0-1.9192,8.1245A17.1547,17.1547,0,0,0,8.2314,49.0032Z" fill="#513021"/>
  </g>
  <g id="skin">
    <g id="skin-2" data-name="skin">
      <path d="M15.3045,28.6634,14.5869,32.73c-.2909,7.8839,5.691,14.1054,12.1275,14.1565,8.3757.0664,13.38-10.3488,11.8821-15.7135-.4535-1.6246-2.2114-3.5767-5.727-7.4808-1.97-2.1877-3.6938-3.911-4.9025-5.0781a2.1639,2.1639,0,0,0-1.44-.2417c-1.1488.2592-1.5916,1.6439-2.3716,3-.9308,1.6184-2.009,2.4524-3.7137,4.0713A15.7976,15.7976,0,0,1,15.3045,28.6634Z" fill="#ffe8bc"/>
    </g>
  </g>
  <g id="color">
    <g id="color-2" data-name="color">
      <path d="M47.5632,64.8466A1.0816,1.0816,0,0,1,46.494,63.753V60.4722c0-4.8679-4.8114-9.6354-9.25-9.834-6.6345,5.482-13.3556,5.482-19.9942,0-4.444.2-10.32,4.9661-10.32,9.834V63.753A1.0809,1.0809,0,0,1,5.86,64.8466" fill="#fff" stroke="#fff" stroke-miterlimit="10"/>
    </g>
    <g>
      <line x1="47.3753" y1="64.237" x2="6.5453" y2="64.237" fill="none" stroke="#1f355b" stroke-linecap="round" stroke-linejoin="round"/>
      <line x1="7.4266" y1="62.0487" x2="46.494" y2="62.0487" fill="none" stroke="#1f355b" stroke-linecap="round" stroke-linejoin="round"/>
      <line x1="7.4266" y1="59.8605" x2="46.494" y2="59.8605" fill="none" stroke="#1f355b" stroke-linecap="round" stroke-linejoin="round"/>
      <line x1="7.4266" y1="57.6724" x2="46.494" y2="57.6724" fill="none" stroke="#1f355b" stroke-linecap="round" stroke-linejoin="round"/>
      <line x1="44.5067" y1="55.4842" x2="8.6194" y2="55.4842" fill="none" stroke="#1f355b" stroke-linecap="round" stroke-linejoin="round"/>
      <path d="M20.214,53.2908H9.9207" stroke="#1f355b" stroke-linecap="round" stroke-linejoin="round"/>
      <path d="M43.5449,53.2833H33.2334" stroke="#1f355b" stroke-linecap="round" stroke-linejoin="round"/>
    </g>
  </g>
  <g id="line">
    <g>
      <path d="M9.1355,48.4134c-1.9883-2.49-2.274-4.3912-2.1738-5.66.1179-1.4925.7446-1.7875,1.0843-4.3286a37.86,37.86,0,0,1,.3631-3.937c.3752-1.707.7082-1.6109,1.0815-3.2282.525-2.2746-.0971-2.6234.4153-4.7652.3734-1.5613.748-1.56,1.3357-3.5564.192-.6524.2908-1.1426.3465-1.4155a19.6691,19.6691,0,0,1,.908-3.4567,8.6605,8.6605,0,0,1,1.314-2.1649,12.1539,12.1539,0,0,1,8.5207-4.32,12.4525,12.4525,0,0,1,5.88,1.0679,8.9311,8.9311,0,0,1,5.6064-.3692,9.1223,9.1223,0,0,1,3.8336,2.1991,11.3524,11.3524,0,0,1,3.3644,5.57,29.3978,29.3978,0,0,0,.9322,4.2341c.5243,1.3322.8652,1.5832,1.3591,3.0676.4342,1.305.28,1.5049.7349,3.2059.5456,2.0385.83,1.9839,1.128,3.3173.4058,1.814-.0614,2.1783.0705,4.6873.1437,2.7313.7316,2.9522.6346,4.5071a8.1038,8.1038,0,0,1-2.6693,5.1955" fill="none" stroke="#000" stroke-linecap="round" stroke-linejoin="round" stroke-width="2"/>
      <path d="M33.129,30.8828a2.1389,2.1389,0,1,1-2.1384-2.1872,2.1634,2.1634,0,0,1,2.1384,2.1872"/>
      <path d="M24.5754,30.8828a2.1389,2.1389,0,1,1-2.1384-2.1872,2.1634,2.1634,0,0,1,2.1384,2.1872"/>
      <path d="M23.5062,39.9051a6.6822,6.6822,0,0,0,6.4152,0" fill="none" stroke="#000" stroke-linecap="round" stroke-linejoin="round" stroke-width="2"/>
      <path d="M15.3045,28.6634a9.3843,9.3843,0,0,0-.8071,2.1529,14.4454,14.4454,0,0,0-.272,2.3,30.0118,30.0118,0,0,0-.3737,3.8749c.0717,1.3637.3191,1.2508.3393,2.4784.0238,1.4487-.349,1.8066-.3593,3.1843a8.1341,8.1341,0,0,0,.4057,2.565" fill="none" stroke="#000" stroke-linecap="round" stroke-miterlimit="10" stroke-width="2"/>
      <path d="M37.5627,27.8889a6.9033,6.9033,0,0,1,1.6679,2.2176c.3828.8222.3146,1.1306.897,4.19.323,1.6967.36,1.76.44,2.4242.1751,1.4467-.04,1.5277.1448,2.8192.1766,1.2337.41,1.4148.5192,2.4254a7.6184,7.6184,0,0,1-.1751,2.607" fill="none" stroke="#000" stroke-linecap="round" stroke-miterlimit="10" stroke-width="2"/>
      <path d="M19.4308,30.0255a2.88,2.88,0,0,0,1.8909.48" fill="none" stroke="#000" stroke-linecap="round" stroke-miterlimit="10"/>
      <path d="M20.07,28.5848a2.9657,2.9657,0,0,0,.59.59,2.9212,2.9212,0,0,0,1.0433.4963" fill="none" stroke="#000" stroke-linecap="round" stroke-miterlimit="10"/>
      <path d="M33.9966,30.0255a2.88,2.88,0,0,1-1.8908.48" fill="none" stroke="#000" stroke-linecap="round" stroke-miterlimit="10"/>
      <path d="M33.3579,28.5848a2.9639,2.9639,0,0,1-.59.59,2.9209,2.9209,0,0,1-1.0432.4963" fill="none" stroke="#000" stroke-linecap="round" stroke-miterlimit="10"/>
      <path d="M6.399,63.6911V60.41c0-5.4617,5.3543-9.8425,10.692-9.8425q9.6228,8.2021,19.2456,0c5.34,0,10.692,4.3808,10.692,9.8425v3.2808" fill="none" stroke="#000" stroke-linecap="round" stroke-linejoin="round" stroke-width="2"/>
      <path d="M14.3127,31.7857c-.8419,6.2365,4.42,15.3683,12.4011,15.5013,8.633.1439,14.1452-10.4389,12.7153-16.4084-.8033-3.354-3.1916-2.72-8.4062-10.1726-.667-.9532-1.7285-2.5353-3.2511-2.5932-.9121-.0347-1.4372.5669-3.6948,2.6972,0,0-.1088.1032-4.832,4.4257-.9067.83-2.2464,2.0259-3.9407,3.4278A9.7089,9.7089,0,0,0,14.3127,31.7857Z" fill="none" stroke="#000" stroke-linejoin="round" stroke-width="2"/>
    </g>
    <path d="M29.2726,27.6238a4.4879,4.4879,0,0,1,5.6663.6069" fill="none" stroke="#513021" stroke-linecap="round" stroke-miterlimit="10"/>
    <path d="M24.155,27.6238a4.488,4.488,0,0,0-5.6664.6069" fill="none" stroke="#513021" stroke-linecap="round" stroke-miterlimit="10"/>
  </g>
</svg>
