<?xml version="1.0" encoding="utf-8"?>
<!-- Generator: Adobe Illustrator 28.0.0, SVG Export Plug-In . SVG Version: 6.00 Build 0)  -->
<svg version="1.1" id="Ebene_1" xmlns="http://www.w3.org/2000/svg" xmlns:xlink="http://www.w3.org/1999/xlink" x="0px" y="0px"
	 viewBox="0 0 55 65" style="enable-background:new 0 0 55 65;" xml:space="preserve">
<style type="text/css">
	.st0{fill:#6A462F;}
	.st1{fill:#B399C8;}
	.st2{fill:#FFE8BC;}
	.st3{fill:none;stroke:#6A462F;stroke-width:0.75;stroke-linecap:round;stroke-miterlimit:10;}
	.st4{fill:none;stroke:#000000;stroke-width:2;stroke-linecap:round;stroke-linejoin:round;}
	.st5{fill:none;stroke:#000000;stroke-width:2;stroke-linejoin:round;}
</style>
<g id="color">
	<path class="st0" d="M17,48.7c-4.1,0-4.1-7.2-4.1-15.7S17,16.1,27.2,16.1S41.5,24.6,41.5,33s0,15.7-4.1,15.7"/>
	<path class="st1" d="M8.8,65v-4c0-5,5-9,10-9c6,5,12,5,18,0c5,0,10,4,10,9v4"/>
</g>
<g id="skin">
	<g id="skin-2">
		<path class="st2" d="M15.9,35.3c0,9,4.9,14,11,14c5.9,0,11.1-5,11.1-14c0-3-1-5-1-5c-3-3-9.9-7.8-9.9-7.8c-4,3-4.1,5.8-10.1,6.8
			C17,29.3,15.9,30.3,15.9,35.3z"/>
	</g>
</g>
<g id="hair">
	<path class="st3" d="M20.5,31c0.1-0.2,2-1.6,4-0.4"/>
	<path class="st3" d="M29.8,30.8c0.1-0.2,2.1-1.4,4,0"/>
</g>
<g id="line">
	<g id="line-2">
		<path class="st4" d="M16.1,48.9c-4,0-2.9-11.9-2.9-18.9s4-14,14-14s13.6,7,14,14c0.4,7.3,1,19.1-3,19.1"/>
		<path class="st4" d="M8.2,64v-3c0-5,5-9,10-9c6,5,12,5,18,0c5,0,10,4,10,9v3"/>
		<path d="M33.2,34c0,1.1-0.9,2-2,2s-2-0.9-2-2c0-1.1,0.9-2,2-2S33.2,32.9,33.2,34"/>
		<path d="M25.2,34c0,1.1-0.9,2-2,2s-2-0.9-2-2c0-1.1,0.9-2,2-2C24.2,32,25.2,32.9,25.2,34"/>
		<path class="st5" d="M16.1,35c0,9,4.9,14,11,14c6,0,11.1-5,11.1-14c0-3-1-5-1-5c-6.7-4.7-9.9-7.8-9.9-7.8
			c-3.3,2.9-1.8,2.4-10.1,6.8C17.2,29,16.1,30,16.1,35z"/>
		<path class="st4" d="M24.2,42c1.9,0.9,4,1,6,0"/>
	</g>
</g>
</svg>
