<svg width="55" height="65" version="1.1" viewBox="0 0 55 65" xmlns="http://www.w3.org/2000/svg">
  <g transform="translate(-10 10)">
    <g id="color">
      <path d="M16.7465,61.9976V56c-.0429-3.5763.9449-11.1823,10.1237-11.1823l5.06,2.8064,3.878,12.884,3.878-12.884,5.06-2.8064c9,0,10.125,7.3125,10.125,10.9687v6.2112Z" fill="#ea5a47"/>
      <path d="M54.5138,52.3435a1.895,1.895,0,0,0-.54.2175A1.8239,1.8239,0,0,0,54,52.299a1.8457,1.8457,0,1,0-3.6913,0,1.8223,1.8223,0,0,0,.0224.2231,1.8249,1.8249,0,0,0-.8622-.2231,1.841,1.841,0,0,0-.2326,3.6679,1.842,1.842,0,1,0,2.9244,2.1569,1.8364,1.8364,0,0,0,2.2647.8974Z" fill="#fff"/>
      <path d="M16.88,53.18a1.8365,1.8365,0,0,0,2.6675-.6922,1.8416,1.8416,0,1,0,2.93-2.1519A1.84,1.84,0,1,0,21.36,46.9254a1.8254,1.8254,0,0,0,.0264-.262c0-.3.0432-.9755-.198-.8326C18.3555,47.51,16.88,53.18,16.88,53.18Z" fill="#fff"/>
      <polygon points="26.87 44.818 26.462 53.812 29.93 52.909 29.01 56.716 35.808 60.508 31.93 47.624 26.87 44.818" fill="#d22f27"/>
      <polygon points="44.745 44.818 45.154 53.812 41.685 52.909 42.605 56.716 35.808 60.508 39.686 47.624 44.745 44.818" fill="#d22f27"/>
      <path d="M27.9817,61.9976a.9983.9983,0,0,0,.8565-.4824,2.8277,2.8277,0,0,0,.4082-1.4638,2.8578,2.8578,0,0,0-2.9346-2.8448,2.8459,2.8459,0,0,0-5.3291-.001h-.0205a2.8445,2.8445,0,0,0-2.44,4.3077.9984.9984,0,0,0,.8048.4826Z" fill="#fff"/>
    </g>
    <g id="skin">
      <path d="M42.9975,15.4176l-.3131-.8352L33.93,20.4841l-8.29,3.0687-.1384.479a10.26,10.26,0,0,0-.5046,4.3128c0,6.0909,2.5633,10.22,6.1254,12.0314a9.6715,9.6715,0,0,0,4.4048,1.0416c5.7712,0,10.47-4.6689,10.47-13.073C45.9975,23.2716,42.9975,15.4176,42.9975,15.4176Z" fill="#ffe9c1"/>
      <path d="M30.0527,46.583l1.07-6.207a9.86,9.86,0,0,0,9.65-.46l1.0251,6.5364-2.1126,1.1718-3.878,12.1953L31.93,47.6241Z" fill="#ffe9c1"/>
    </g>
    <g id="hair">
      <path d="M50.0547,45.9833C51.1094,26.9667,48,16,47,13s-3-3-3-3a29.7558,29.7558,0,0,0-19,5c-8,5-4.7882,31.8787-4.7882,31.8787a9.6,9.6,0,0,1,6.6584-2.061l2.7756,2.061,1.307-6.5956c-8.41-6.2238-5.3022-16.6927-5.3022-16.6927,9.9785-2.6646,15.4131-7.594,16.9149-9.1247,0,0,4.5659,9.7761,3.0777,17.6589a11.4358,11.4358,0,0,1-4.555,7.581L42,47l3.2711-2.1823Z"/>
    </g>
    <g id="line">
      <path d="M25.6162,23.2673A10.1742,10.1742,0,0,0,25,27.927C25,36.3311,29.88,41,35.53,41,41.3014,41,46,36.3311,46,27.927,46,22.854,43,15,43,15q-.5456,0-1.0695.0127" fill="none" stroke="#000" stroke-linejoin="round" stroke-width="2"/>
      <path d="M41.93,26.9649a2,2,0,1,1-2-2,2.0007,2.0007,0,0,1,2,2"/>
      <path d="M33.93,26.9649a2,2,0,1,1-2-2,2.0007,2.0007,0,0,1,2,2"/>
      <path d="M35.93,36.9674a7.6529,7.6529,0,0,1-3.4473-.858,1,1,0,0,1,.8946-1.789,5.3772,5.3772,0,0,0,5.1054,0,1,1,0,0,1,.8946,1.789A7.6529,7.6529,0,0,1,35.93,36.9674Z"/>
      <path d="M44.7452,44.8177c9,0,10.125,7.3125,10.125,10.9687V61" fill="none" stroke="#000" stroke-linecap="round" stroke-linejoin="round" stroke-width="2"/>
      <path d="M16.7465,61V56c-.0429-3.5763.9449-11.1823,10.1237-11.1823" fill="none" stroke="#000" stroke-linecap="round" stroke-linejoin="round" stroke-width="2"/>
      <path d="M20.2118,46.8787S17,20,25,15a29.7558,29.7558,0,0,1,19-5s2,0,3,3,4.1094,13.9667,3.0547,32.9833" fill="none" stroke="#000" stroke-linejoin="round" stroke-width="2"/>
      <line x1="31" y1="40" x2="30" y2="46" fill="none" stroke="#000" stroke-linejoin="round" stroke-width="2"/>
      <path d="M43,14s-5.9375,7-19,10" fill="none" stroke="#000" stroke-linecap="round" stroke-linejoin="round" stroke-width="2"/>
      <line x1="41" y1="39" x2="42" y2="47" fill="none" stroke="#000" stroke-linejoin="round" stroke-width="2"/>
      <path d="M54.514,52.3435a1.89,1.89,0,0,0-.5406.2175A1.8239,1.8239,0,0,0,54,52.299a1.8457,1.8457,0,1,0-3.6913,0,1.8223,1.8223,0,0,0,.0224.2231,1.8249,1.8249,0,0,0-.8622-.2231,1.841,1.841,0,0,0-.2326,3.6679,1.842,1.842,0,1,0,2.9244,2.1569,1.8365,1.8365,0,0,0,2.6676.6921" fill="none" stroke="#000" stroke-linejoin="round" stroke-width="2"/>
      <path d="M16.88,53.18a1.8365,1.8365,0,0,0,2.6675-.6922,1.8416,1.8416,0,1,0,2.93-2.1519A1.84,1.84,0,1,0,21.36,46.9254a1.8254,1.8254,0,0,0,.0264-.262,1.8456,1.8456,0,0,0-.0805-.5407" fill="none" stroke="#000" stroke-linecap="round" stroke-linejoin="round" stroke-width="2"/>
      <path d="M27.983,60.9974a1.82,1.82,0,0,0,.2631-.9462,1.8347,1.8347,0,0,0-2.78-1.5837,1.8239,1.8239,0,0,0,.0264-.262,1.8457,1.8457,0,0,0-3.6914,0,1.824,1.824,0,0,0,.0225.2232,1.8246,1.8246,0,0,0-.8623-.2232,1.8457,1.8457,0,0,0-1.8456,1.8457,1.82,1.82,0,0,0,.2625.9454" fill="none" stroke="#000" stroke-linecap="round" stroke-linejoin="round" stroke-width="2"/>
      <polygon points="26.87 44.818 26.462 53.812 29.93 52.909 29.01 56.716 35.808 60.508 31.93 47.624 26.87 44.818" fill="none" stroke="#000" stroke-linejoin="round" stroke-width="2"/>
      <polygon points="44.745 44.818 45.154 53.812 41.685 52.909 42.605 56.716 35.808 60.508 39.686 47.624 44.745 44.818" fill="none" stroke="#000" stroke-linejoin="round" stroke-width="2"/>
    </g>
  </g>
</svg>
