<svg id="Ebene_2" data-name="Ebene 2" xmlns="http://www.w3.org/2000/svg" viewBox="0 0 55 65">
  <title>marleen_heine</title>
  <path d="M45.5176,42.6985c.27-1.4708-1.7928-2.969-2.0373-4.4821-.3077-1.9074,1.979-4.1808,2.0373-6.112.0548-1.8188-2.13-3.2955-2.0373-5.0933.4991-9.6682-3.7691-15.1021-6.112-15.28C29.5246,9.94,19.338,9.167,15.9764,13.4455c-.4041.5206-1.682,1.4363-2.0373,1.99-2.056,3.2034-2.8027,9.55-3.0926,14.0115-.0934,1.4363-1.4471,2.5364-.9821,3.8985,1.0187,2.9847,1.0006,5.1677,0,8.955" fill="#fcea2b"/>
  <path d="M7.8271,64.7016V54.7188c0-5.0934,5.0933-9.168,10.1866-9.168q9.168,7.64,18.3359,0c5.0933,0,10.1867,4.0746,10.1867,9.168v9.9828Z" fill="#ffa7c0"/>
  <path d="M36.859,45.3471c-3.26,2.1391-4.9915,3.0559-9.0661,3.6671C41.0355,49.4217,41.0355,60.627,41.85,64.7016h5.1952S49.0829,45.3471,36.859,45.3471" fill="#e67a94"/>
  <path d="M20.3566,48.1993c-1.4347,6.6272,4.0017,5.4946,6.8251,8.353,2.9042-2.5886,7.7875-1.4852,6.825-8.353" fill="#ffe8bc"/>
  <path d="M20.3566,48.1993c-1.7011,6.4357,1.8682,5.8109,6.8251,8.353,5.3588-2.49,8.1726-1.879,6.825-8.353" fill="none" stroke="#1e1e1c" stroke-linecap="round" stroke-linejoin="round" stroke-width="2"/>
  <path d="M8.0308,63.683V54.515c0-5.0933,5.0933-9.1679,10.1866-9.1679q9.168,7.64,18.336,0c5.0933,0,10.1866,4.0746,10.1866,9.1679v9.168" fill="none" stroke="#1d1d1c" stroke-linecap="round" stroke-linejoin="round" stroke-width="2"/>
  <path d="M15.9764,28.03v1.0187c0,7.8437,5.8064,14.0575,12.02,14.0575,6.112,0,10.696-8.2523,10.0848-16.0949.0566-1.23-2.8338-9.6172-9.8811-11.2053-5.415-1.4572-6.8,2.3268-9.1679,5.0934-2.75,1.4261-2.5467,6.2138-3.056,7.1306" fill="#ffe8bc"/>
  <path d="M34.0067,27.4186a2.0373,2.0373,0,1,1-2.0373-2.0373,2.0373,2.0373,0,0,1,2.0373,2.0373" fill="#010101"/>
  <path d="M25.8574,27.4186A2.0373,2.0373,0,1,1,23.82,25.3813a2.0373,2.0373,0,0,1,2.0373,2.0373" fill="#010101"/>
  <path d="M15.9764,29.0485c0,8.1493,5.9082,13.8538,12.02,13.8538,5.25,0,9.916-5.006,10.39-12.8352" fill="none" stroke="#010101" stroke-linecap="round" stroke-linejoin="round" stroke-width="2"/>
  <path d="M24.635,35.16c1.4261,1.7216,4.2784,1.64,6.112,0" fill="none" stroke="#010101" stroke-linecap="round" stroke-linejoin="round" stroke-width="2"/>
  <path d="M15.9764,35.16c-.1477-.0461-2.6869-18.9063,11.2053-19.3546C39.736,15.401,39.4158,34.7229,39.4056,35.16" fill="none" stroke="#010101" stroke-linecap="round" stroke-linejoin="round" stroke-width="2"/>
  <path d="M21.07,23.9551s3.056-1.0186,5.0933,0" fill="none" stroke="#a57939" stroke-linecap="round" stroke-miterlimit="10"/>
  <path d="M29.219,23.9551s3.056-1.0186,5.0933,0" fill="none" stroke="#a57939" stroke-linecap="round" stroke-miterlimit="10"/>
  <path d="M8.4776,42.05s3.3739-2.54,2.768-4.7361c-.5068-1.8368-3.5736-3.7861-1.3812-7.2463,1.17-1.8465,1.7069-3.3222,1.6258-8.1669-.1029-6.151,4.6442-12.302,16.3027-11.3377" fill="none" stroke="#010101" stroke-linecap="round" stroke-miterlimit="10" stroke-width="2"/>
  <path d="M46.1288,42.05s-3.3739-2.54-2.768-4.7361c.5068-1.8368,3.5736-3.7861,1.3812-7.2463-1.17-1.8465-1.7069-3.3222-1.6258-8.1669.1026-6.1515-4.6444-12.3025-16.3027-11.3376" fill="none" stroke="#010101" stroke-linecap="round" stroke-miterlimit="10" stroke-width="2"/>
</svg>
