<?xml version="1.0" encoding="utf-8"?>
<!-- Generator: Adobe Illustrator 23.0.3, SVG Export Plug-In . SVG Version: 6.00 Build 0)  -->
<svg version="1.1" id="Ebene_1" xmlns="http://www.w3.org/2000/svg" xmlns:xlink="http://www.w3.org/1999/xlink" x="0px" y="0px"
	 viewBox="0 0 55 65" style="enable-background:new 0 0 55 65;" xml:space="preserve">
<style type="text/css">
	.st0{fill:#FFE8BC;}
	.st1{fill:#FFFDFE;}
	.st2{fill:#D8D8D8;}
	.st3{fill:none;stroke:#030404;stroke-width:2;stroke-linecap:round;stroke-linejoin:round;}
	.st4{fill:none;stroke:#000000;stroke-width:2;stroke-linecap:round;stroke-linejoin:round;stroke-miterlimit:10;}
	.st5{fill:none;stroke:#000000;stroke-width:2;stroke-linejoin:round;}
	.st6{fill:#A58667;stroke:#000000;stroke-width:2;stroke-linecap:round;stroke-miterlimit:10;}
	.st7{fill:none;stroke:#A58667;stroke-width:0.75;stroke-linecap:round;stroke-miterlimit:10;}
	.st8{fill:#C1C1C1;}
	.st9{fill:none;stroke:#000000;stroke-linecap:round;stroke-miterlimit:10;}
	.st10{fill:#848383;stroke:#000000;stroke-width:0.5;stroke-linecap:round;stroke-linejoin:round;stroke-miterlimit:10;}
</style>
<path class="st0" d="M18.1,22c-1.3,3.6-1.6,7.5-1,11.3l0,0c1,6.2,6.1,9.5,9.9,9.5h-0.1c3.8,0,8.2-3.5,9.9-9.5
	c0.7-2.4,0.7-4.9,0.4-7.3c-0.6-4.6-3.2-9.7-3.2-9.7c-6.2,2.5-13.9,0-13.9,0L18.1,22z"/>
<title>sam_eckert</title>
<g id="body">
	<path id="Path" class="st1" d="M46.3,64.7c-0.6,0,0-10,0-10c0-4.4-5.5-8.7-9.7-8.9c-6.2,5-12.1,4.9-18.3-0.1
		c-4.2,0.2-9.9,3.4-9.9,7.8c0,0,0.4,11.2-0.1,11.2"/>
	<path class="st2" d="M36.6,44.7c-3.2,2.2-4.9,3.2-8.9,3.8c13.1,0.4,13.1,12,13.8,16.2h5.1C46.6,64.7,48.6,44.7,36.6,44.7"/>
	<path class="st3" d="M8.3,63.6v-9c0-5,5-9,10-9c6,5,12,5,18,0c5,0,10,4,10,9v9"/>
</g>
<path class="st0" d="M28.1,42.7"/>
<path class="st4" d="M24.7,36.2c2.9,1.9,6.3,0,7.6-1.4"/>
<path d="M24.7,26.6c0,1.1-0.9,2-2,2s-2-0.9-2-2s0.9-2,2-2S24.7,25.5,24.7,26.6"/>
<path d="M33.4,26.6c0,1.1-0.9,2-2,2c-1.1,0-2-0.9-2-2s0.9-2,2-2C32.5,24.6,33.4,25.5,33.4,26.6"/>
<path class="st5" d="M18.4,21.7c-1.3,3.7-1.7,7.6-1.1,11.5c0,0,0,0,0,0.1c1,6.2,6,9.5,9.8,9.5h-0.1c3.8,0,8.1-3.5,9.8-9.5
	c0.7-2.4,0.7-4.9,0.4-7.3c-0.6-4.6-3.1-9.7-3.1-9.7c-6.2,2.5-13.8,0-13.8,0L18.4,21.7z"/>
<path class="st6" d="M25.9,11c-2.6,0.1-5.6,0.8-7.6,3c-0.9,1.1-1.3,2.5-1.2,3.9l0.4,6.2l2.6-7.9c0,0,7.6,2.4,13.9,0l2.8,7.9l0.3-5.5
	v-1.2c0-1.7-0.9-3.4-2.4-4.2c0,0,0,0,0,0c0,0,0,0-0.1,0C32.1,11.6,29,10.8,25.9,11z"/>
<path class="st7" d="M19.2,24.6c0,0,2.8-1.5,5.5-0.6"/>
<path class="st7" d="M35.1,24.6c0,0-2.7-1.6-5.5-0.5"/>
<path class="st8" d="M15.5,25.2c0,0-1.1,2-0.2,3.8l0.1,3.8l-1.1-0.4l0-3C14.2,29.3,12.8,25.7,15.5,25.2z"/>
<path class="st9" d="M17.1,24.8C17.1,24.8,17.1,24.8,17.1,24.8c-2-0.2-3.4,1.3-3,3.2c0.1,0.7,0.4,1.1,0.4,1.1l0.1,2.5
	c0.1,0.6,0.5,1,1.1,1.1l1.2,0.1C16.8,32.8,16.3,26.5,17.1,24.8z"/>
<line class="st10" x1="13.1" y1="24.3" x2="11.9" y2="23"/>
<line class="st10" x1="12.3" y1="25.4" x2="10.6" y2="24.7"/>
<line class="st10" x1="12.1" y1="26.6" x2="10.3" y2="26.9"/>
<ellipse cx="15.2" cy="27.3" rx="0.3" ry="0.6"/>
</svg>
