<?xml version="1.0" encoding="utf-8"?>
<!-- Generator: Adobe Illustrator 23.0.3, SVG Export Plug-In . SVG Version: 6.00 Build 0)  -->
<svg version="1.1" id="Ebene_1" xmlns="http://www.w3.org/2000/svg" xmlns:xlink="http://www.w3.org/1999/xlink" x="0px" y="0px"
	 viewBox="0 0 55 65" style="enable-background:new 0 0 55 65;" xml:space="preserve">
<style type="text/css">
	.st0{fill:none;stroke:#000000;stroke-width:2;stroke-linecap:round;stroke-linejoin:round;}
	.st1{fill:#E0BB95;}
	.st2{fill:none;stroke:#000000;stroke-width:2;stroke-linejoin:round;}
	.st3{fill:none;stroke:#000000;stroke-width:2;stroke-linecap:round;stroke-linejoin:round;stroke-miterlimit:10;}
	.st4{fill:#1C1C1B;}
	.st5{fill:#FFFFFF;}
	.st6{fill:#D0CFCE;}
	.st7{fill:none;stroke:#000000;stroke-linecap:round;stroke-linejoin:round;stroke-miterlimit:10;}
	.st8{fill:#781E32;}
</style>
<path d="M9.5,47.1c1.1,1,2.4,1.9,3.6,2.7c1.7-1.2,3.6-2,5.4-2.1c6.2,5,12.5,5,18.7,0c1.4,0.1,2.9,0.6,4.2,1.5c1.1-0.7,2.1-1.5,3-2.3
	c1.2-0.7,3.1-8.3,0.4-13c-0.4-0.9-0.8-1.7-1.2-2.6c-1.5-3.3-2-4.5-2.3-10.5c0-3.7-3.8-6.8-7.5-7.1c-0.3,0-0.5-0.1-0.7-0.3
	c-0.1-0.1-2.4-2.7-7.2-2.7c-6.2,0-11.4,3.4-12.7,8.2c-0.5,2-0.7,4.1-0.6,6.2c0.2,2-0.1,4.1-0.8,6c-0.2,0.8-0.6,1.5-1.1,2.1
	C6.9,37.5,9.7,47.4,9.5,47.1z"/>
<path class="st0" d="M10.2,47.3c-3.7-5.9-0.6-10.1,1.2-14.7c1.6-4.2-0.2-6.5,1.3-12c1.5-5.5,7.3-9,13.7-9c5.4,0,8,3,8,3
	c4.2,0.4,7.4,3.9,7.4,8c0.4,7.2,1,7.2,3.4,12.8c1.7,3.9,1.1,8.3-1.4,11.7"/>
<g id="skin_3_">
	<path class="st1" d="M16.9,27.2v1c0,7.6,4.6,13.6,10.5,13.6c5.9,0,10.5-6,10.5-13.6c0-4.7-1.8-7.5-5.3-11.1c-2.8,2.2-5.8,4.1-9,5.8
		C21,24.3,17.4,26.3,16.9,27.2z"/>
</g>
<path class="st2" d="M16.4,28.6c0,8,5,14,11,14s11-6,11-14c0-5-2-8-6-12c-4,4-16,9-16,11C16.4,27.6,16.4,28.6,16.4,28.6z"/>
<path class="st3" d="M24.4,35.5c1.9,1,4.1,1,6,0"/>
<path class="st4" d="M33.4,27c0,1.1-0.9,2-2,2c-1.1,0-2-0.9-2-2s0.9-2,2-2C32.5,25,33.4,25.9,33.4,27"/>
<path class="st4" d="M25.4,27c0,1.1-0.9,2-2,2s-2-0.9-2-2s0.9-2,2-2S25.4,25.9,25.4,27"/>
<path d="M33.4,27c0,1.1-0.9,2-2,2c-1.1,0-2-0.9-2-2s0.9-2,2-2C32.5,25,33.4,25.9,33.4,27"/>
<path d="M25.4,27c0,1.1-0.9,2-2,2s-2-0.9-2-2s0.9-2,2-2S25.4,25.9,25.4,27"/>
<path class="st5" d="M8.1,64.7v-9.8c0-5,5-9,10-9c6,5,12,5,17.9,0c5,0,10,4,10,9v9.8H8.1z"/>
<path class="st6" d="M36.5,45.8c-3.2,2.1-4.9,3-8.9,3.6c13.1,0.4,13.1,11.4,13.8,15.4h5.1C46.4,64.7,48.4,45.8,36.5,45.8"/>
<path class="st0" d="M8.2,63.7v-9c0-5,5-9,10-9c6,5,12,5,18,0c5,0,10,4,10,9v9"/>
<path class="st7" d="M20.1,23.9l1.6-0.6c0,0,2.4-0.5,3.9,0.1"/>
<path class="st7" d="M35.3,23.9l-1.6-0.6c0,0-2.4-0.5-3.9,0.1"/>
<path class="st8" d="M36.5,55.7C36.5,55.8,36.5,55.8,36.5,55.7c-0.1,0.1-0.1,0.2-0.1,0.4c0,0.1,0,0.2,0,0.3c0.1,0.1,0.2,0.2,0.3,0.2
	c0.1,0,0.2,0,0.3,0c0.1,0,0.2-0.1,0.3-0.1c0.4-0.1,0.9-0.2,1.3-0.3c0.4-0.1,0.8-0.2,1.2-0.3c0.1,0,0.2-0.1,0.3-0.1c0,0,0,0,0,0
	c0,0,0,0,0,0c-0.8,0.3-1.6,0.7-2.4,1c-0.2,0.1-0.5,0.2-0.7,0.3c-0.1,0.1-0.3,0.1-0.4,0.1c-0.1,0-0.2,0-0.4,0
	c-0.2-0.1-0.3-0.2-0.3-0.3c0-0.1,0-0.2,0-0.3c0-0.2,0.1-0.3,0.2-0.4C36.2,56.1,36.3,55.9,36.5,55.7C36.5,55.8,36.5,55.8,36.5,55.7
	C36.5,55.7,36.5,55.7,36.5,55.7z"/>
</svg>
