<svg id="Ebene_2" data-name="Ebene 2" xmlns="http://www.w3.org/2000/svg" viewBox="0 0 55 65"><defs><style>.cls-1{fill:#3f3f3f;}.cls-2{fill:#d0cfce;}.cls-3{fill:#9b9b9a;}.cls-4{fill:#ffe8bc;}.cls-5{fill:#d22f27;}.cls-6,.cls-7{fill:none;stroke:#000;stroke-linecap:round;}.cls-6{stroke-linejoin:round;stroke-width:2px;}.cls-7{stroke-miterlimit:10;}</style></defs><title>abby_esquivel</title><g id="color"><path class="cls-1" d="M3.58,62.21c-3.33-3.14-.19-9.42,1.34-12.66A47.21,47.21,0,0,0,9.87,32.32c.38-4.47-.1-8.76,1.43-13A13.91,13.91,0,0,1,23.67,9.76c3.14-.29,9.9.29,11.43,3.81,4.47-.1,6.95,3.33,8,7.33C44.43,26.23,44.52,31.75,46,37c1,3.71,1.62,8.85,3.9,12,0,0,6.19,10.76,1.43,13"/><path class="cls-2" d="M6.16,64.59S4.54,49.36,17.77,49.36c3.52,2.29,6.57,4,10,4h-.1c3.43,0,6.95-2.76,9.23-5.24,15.43,3.34,12.19,16.47,12.19,16.47"/><path class="cls-3" d="M34.14,51l3-2s8.86-1.43,11,8.66l1,7H42.62S44.81,53.55,34.14,51Z"/></g><g id="skin"><path class="cls-4" d="M33,17c-2.19,4.1-12.95,9.52-18.18,12h.09a19.32,19.32,0,0,0-.09,2.28C14.82,39.94,20.44,47,27.29,47S39.76,40,39.76,31.27a25.26,25.26,0,0,0-.29-3.8A15.35,15.35,0,0,0,33.1,17.28"/><path class="cls-5" d="M27.29,40.32a9,9,0,0,1-3.81-1,1.07,1.07,0,0,1,.95-1.91,5.9,5.9,0,0,0,5.62,0A1.07,1.07,0,0,1,31,39.37,7,7,0,0,1,27.29,40.32Z"/></g><g id="line"><path class="cls-6" d="M33,17c-2.19,4.1-12.95,9.52-18.18,12h.09a19.32,19.32,0,0,0-.09,2.28C14.82,39.94,20.44,47,27.29,47S39.76,40,39.76,31.27a25.26,25.26,0,0,0-.29-3.8A15.35,15.35,0,0,0,33.1,17.28"/><path class="cls-6" d="M17.2,49c3.52,2.29,6.57,4,10,4H27.1c3.43,0,6.38-1.62,10-4"/><path class="cls-6" d="M6.16,63.36S4,49,17.2,49"/><path class="cls-6" d="M37.29,49c13.32,0,11,14.38,11,14.38"/><path d="M34,29.28a2.19,2.19,0,1,1-2.19-2.19h0A2.15,2.15,0,0,1,34,29.28"/><path class="cls-6" d="M3.58,62.21c-3.33-3.14-.19-9.42,1.34-12.66A47.21,47.21,0,0,0,9.87,32.32c.38-4.47-.1-8.76,1.43-13A13.91,13.91,0,0,1,23.67,9.76c3.14-.29,9.9.29,11.43,3.81,4.47-.1,6.95,3.33,8,7.33,1.14,4.47,1.34,9.14,2.29,13.61a66.57,66.57,0,0,0,5.23,16c1.72,3.24,4.57,8.86.57,11.62"/><path class="cls-7" d="M29.48,24.8a5.18,5.18,0,0,1,5.9.67"/><path class="cls-7" d="M26,24.8a7.69,7.69,0,0,0-1.53-.57"/><path class="cls-7" d="M32.43,28a2.87,2.87,0,0,0,1.62-1.53"/><path class="cls-7" d="M33.29,28.7a2.5,2.5,0,0,0,2-1"/><path d="M21.29,29.28a2.19,2.19,0,1,1,2.19,2.19,2.15,2.15,0,0,1-2.19-2.19"/><path class="cls-7" d="M22.82,28a2.81,2.81,0,0,1-1.62-1.53"/><path class="cls-7" d="M22,28.7a2.5,2.5,0,0,1-2-1"/></g></svg>