<?xml version="1.0" encoding="utf-8"?>
<!-- Generator: Adobe Illustrator 24.0.0, SVG Export Plug-In . SVG Version: 6.00 Build 0)  -->
<svg version="1.0" xmlns="http://www.w3.org/2000/svg" xmlns:xlink="http://www.w3.org/1999/xlink" x="0px" y="0px"
	 viewBox="0 0 55 65" style="enable-background:new 0 0 55 65;" xml:space="preserve">
<style type="text/css">
	.st0{fill:#E8E8E8;}
	.st1{fill:none;stroke:#030404;stroke-width:2;stroke-linecap:round;stroke-linejoin:round;}
	.st2{fill:#010101;}
	.st3{fill:#1D1D1C;}
	.st4{fill:#FFE8BC;}
	.st5{fill:none;stroke:#010101;stroke-width:2;stroke-linejoin:round;}
	.st6{fill:none;stroke:#010101;stroke-width:2;stroke-linecap:round;stroke-linejoin:round;}
	.st7{fill:none;stroke:#1D1D1B;stroke-linecap:round;stroke-linejoin:round;}
	.st8{fill:none;stroke:#1D1D1C;stroke-width:2;stroke-linecap:round;stroke-linejoin:round;}
	.st9{display:none;fill:#FFFFFF;}
	.st10{fill:none;stroke:#030404;stroke-linecap:round;stroke-linejoin:round;}
</style>
<g id="Ebene_2_1_">
	<title>vincent_seitz</title>
	<path class="st0" d="M37.8,63.2c-0.5-0.9,9.1-17.1-11.1-16.7c-17.3,0.3-12.6,15-11,16.7C16.2,60.6,14.8,52,26.6,53
		C39.6,54.2,37.3,62.3,37.8,63.2"/>
	<path class="st1" d="M37.9,62.7c2.2-3.3,5.1-16.1-11-16.1c-16.8,0-13.1,15.1-11,16.7C15.2,60,15,52.5,26.8,52.5
		C39.1,52.5,37.4,61.9,37.9,62.7z"/>
	<path class="st2" d="M17.6,35.9c-1.9-6.9-1.9-8.7-2.9-14.5C13.6,15.6,18.6,9.9,27,9.9s11.8,5.7,11.8,11.7
		c-1.1,6.6-0.5,7.8-2.4,14.3"/>
	<path class="st3" d="M32.8,28.1c0,1.1-0.9,2-2,2s-2-0.9-2-2s0.9-2,2-2S32.8,27,32.8,28.1"/>
	<path class="st3" d="M24.8,28.1c0,1.1-0.9,2-2,2s-2-0.9-2-2s0.9-2,2-2S24.8,27,24.8,28.1"/>
	<path class="st4" d="M15.9,29.1c-0.1,8,4,14,10.8,14c6.9,0,10.9-6,10.9-14c0-5-2.9-10-2.9-10c-7.8,0-8.5-0.3-14.4-2.3
		C20.2,16.8,16,24.1,15.9,29.1"/>
	<path class="st2" d="M32.2,28.1c0,1.1-0.9,2-2,2s-2-0.9-2-2s0.9-2,2-2S32.2,27,32.2,28.1"/>
	<path class="st2" d="M25.5,28.1c0,1.1-0.9,2-2,2s-2-0.9-2-2s0.9-2,2-2S25.5,27,25.5,28.1"/>
	<path class="st5" d="M16.8,29.1c-0.1,8,4.4,14,10,14c5.3,0,10.1-6,10.1-14c0-5-2.4-14.1-2.4-14.1c-7.2,0-8.1,3.8-13.6,1.8
		C20.8,16.8,16.9,24.1,16.8,29.1z"/>
	<path class="st6" d="M23.1,36.2c2.4,1,5,0.9,7.3-0.2"/>
	<path class="st7" d="M20,25.3l1.6-0.6c1.3-0.3,2.6-0.3,3.9,0"/>
	<path class="st7" d="M33.9,25.3l-1.6-0.6c-1.3-0.3-2.6-0.3-3.9,0"/>
	<path class="st0" d="M38,29.1c-0.5-0.9,9.1-17.1-11.1-16.7c-17.3,0.3-12.6,15-11,16.7c0.5-2.6-0.9-11.2,10.9-10.2
		C39.8,20.1,37.5,28.2,38,29.1"/>
	<path class="st0" d="M37.5,15.3c-0.4-0.4-0.4-6.4-10.5-6.4c-9.2,0-9.5,5-10.2,6c0.8-0.8,2.6-3.5,10.2-3.5
		C34.8,11.2,37.1,14.9,37.5,15.3"/>
	<path class="st8" d="M38,28.5c2.2-3.3,5.1-16.1-11-16.1c-16.8,0-13.1,15.1-11,16.7c-0.7-3.2-0.9-10.7,10.9-10.7
		C39.2,18.4,37.5,27.8,38,28.5z"/>
	<path class="st8" d="M17.4,14.6C21.2,6.2,34,7,37.2,15"/>
	<g>
		<path class="st0" d="M45.9,65c-0.6,0,0-10.1,0-10.1c0-4.5-5.5-8.8-9.7-8.9c-6.2,5-12.1,4.9-18.3-0.1C13.7,46.1,8,49.3,8,53.7
			c0,0,0.4,11.2-0.1,11.2"/>
	</g>
	<path class="st1" d="M7.9,63.9v-9c0-5,5-9,10-9c6,5,12,5,18,0c5,0,10,4,10,9v9"/>
</g>
<g id="Ebene_3">
	<circle class="st9" cx="36.3" cy="56.1" r="3.8"/>
	<polyline class="st10" points="31.7,55.5 29.4,57.1 31.7,58.7 	"/>
	<polyline class="st10" points="35.2,58.7 37.5,57.1 35.2,55.5 	"/>
	<line class="st10" x1="33" y1="59.4" x2="33.9" y2="54.9"/>
</g>
</svg>
