<?xml version="1.0" encoding="utf-8"?>
<!-- Generator: Adobe Illustrator 23.1.1, SVG Export Plug-In . SVG Version: 6.00 Build 0)  -->
<svg version="1.1" id="Ebene_1" xmlns="http://www.w3.org/2000/svg" xmlns:xlink="http://www.w3.org/1999/xlink" x="0px" y="0px"
	 viewBox="0 0 55 65" enable-background="new 0 0 55 65" xml:space="preserve">
<g>
	<path fill="#7BA200" d="M6.2278,65v-8.8085c0-4.4043,5.5979-7.9277,11.1959-7.9277c6.7175,4.4043,13.4351,4.4043,20.1526,0
		c5.5979,0,11.1959,3.5234,11.1959,7.9277V65"/>
	<path fill="#557000" d="M48.7722,65H43.846c-0.8957-3.5234-1.6794-13.0815-16.346-13.4339v0.0008
		c3.3588,0,6.7175-1.1011,10.0763-3.3032c5.5979,0,11.1959,3.5234,11.1959,7.9277V65z"/>
	<path fill="none" stroke="#030404" stroke-width="2" stroke-linecap="round" stroke-linejoin="round" d="M6.2278,64v-7.8085
		c0-4.4043,5.5979-7.9277,11.1959-7.9277c6.7175,4.4043,13.4351,4.4043,20.1526,0c5.5979,0,11.1959,3.5234,11.1959,7.9277V64"/>
</g>
<g>
	<path fill="#DB9654" d="M40.0017,30.9553l0.0134-0.2127c-0.2465,4.144-1.0989,7.892-3.3949,10.5984
		c-2.6813,3.1606-3.8934,4.9227-9.1068,4.9227c-5.3607,0-6.751-2.2542-9.6495-5.8457c-2.0018-2.4804-2.671-5.9331-2.8657-9.6755
		h0.0003l-0.0003-0.9079c0.1725,2.1336,3.1745,5.2574,6.8919,5.4618c0.9025,0.0496,2.2643-2.0184,5.6165-2.0221
		c3.3522,0.0038,4.3735,2.1493,5.2895,2.0221c4.6832-0.65,7.0087-3.3087,7.1988-5.3411L40.0017,30.9553z"/>
	<path fill="#FFE8BC" d="M39.995,29.9554c0.0604-1.0151,0.0843-1.2659,0.0843-2.319c0-15.4972-4.2644-19.3812-12.586-19.3812
		c-8.7826,0-12.586,4.5931-12.586,19.3812c0,0.5713,0.0552,1.5849,0.091,2.1983c0.1725,2.1336,3.1745,5.2574,6.8919,5.4618
		c0.9025,0.0496,2.2643-2.0184,5.6165-2.0221c3.3522,0.0038,4.3735,2.1493,5.2895,2.0221
		C37.4794,34.6465,39.8049,31.9878,39.995,29.9554z"/>
	<path fill="none" stroke="#000000" stroke-linecap="round" stroke-linejoin="round" d="M14.9949,29.8347
		c0.1725,2.1336,3.1745,5.2574,6.8919,5.4618c0.9025,0.0496,2.2643-2.0184,5.6165-2.0221c3.3522,0.0038,4.3735,2.1493,5.2895,2.0221
		c4.6832-0.65,7.0087-3.3087,7.1988-5.3411"/>
	<path fill="none" stroke="#000000" stroke-width="2" stroke-linecap="round" stroke-linejoin="round" d="M40.0927,27.6364
		c0,5.352-0.621,10.3354-3.4793,13.7046c-2.6813,3.1606-3.8934,4.9227-9.1068,4.9227c-5.3607,0-6.751-2.2542-9.6495-5.8457
		c-2.5466-3.1554-2.9366-7.8846-2.9366-12.7816c0-14.7881,3.8034-19.3812,12.586-19.3812
		C35.8283,8.2552,40.0927,12.1392,40.0927,27.6364z"/>
	<path fill="none" stroke="#000000" stroke-width="2" stroke-linecap="round" stroke-linejoin="round" d="M23.598,37.8532
		c2.2604,0.8666,5.6905,0.8666,7.8173,0"/>
</g>
<g>
	<path fill="#000100" d="M32.3001,23.1039c1.3255,0,2.4,1.0745,2.4,2.4s-1.0745,2.4-2.4,2.4c-1.3255,0-2.4-1.0745-2.4-2.4l0,0
		C29.904,24.18,30.9763,23.1078,32.3001,23.1039z"/>
	<path fill="#000100" d="M22.6998,23.1039c1.3255,0,2.4,1.0745,2.4,2.4s-1.0745,2.4-2.4,2.4s-2.4-1.0745-2.4-2.4l0,0
		C20.3037,24.18,21.376,23.1078,22.6998,23.1039z"/>
	<path fill="none" stroke="#CC9966" stroke-linecap="round" stroke-linejoin="round" stroke-miterlimit="10" d="M19.8643,21.6
		L21.043,21c0,0,1.7681-0.5,2.8731,0.1"/>
	<path fill="none" stroke="#CC9966" stroke-linecap="round" stroke-linejoin="round" stroke-miterlimit="10" d="M35.1357,21.6
		L33.8833,21c0,0-1.7681-0.5-2.8731,0.1"/>
</g>
</svg>
