<?xml version="1.0" encoding="utf-8"?>
<!-- Generator: Adobe Illustrator 16.0.4, SVG Export Plug-In . SVG Version: 6.00 Build 0)  -->
<!DOCTYPE svg PUBLIC "-//W3C//DTD SVG 1.1//EN" "http://www.w3.org/Graphics/SVG/1.1/DTD/svg11.dtd">
<svg version="1.1" id="Ebene_1" xmlns="http://www.w3.org/2000/svg" xmlns:xlink="http://www.w3.org/1999/xlink" x="0px" y="0px"
	 width="55px" height="65px" viewBox="0 0 55 65" enable-background="new 0 0 55 65" xml:space="preserve">
<path d="M45.625,44.719c1.984,0.751,2.592-3.744,1.192-6.244c-0.9-1.6-0.9-3-0.9-4.699c0-1.7,0.6-7.3,0.1-7.9
	c-7-7.2-2.5-13.8-16.199-14.3c-8.101-0.3-14.4,3.5-14.4,8c-0.1,5.1-5.4,7.4-5.4,10.3c0,0.366,0.741,6.017,0.422,10.315
	c-0.204,2.744-2.054,5.193-1.294,4.935C12.859,43.859,42.625,43.584,45.625,44.719z"/>
<path fill="#FFE8BC" d="M18.4,27v1c0,7.7,4.7,13.8,10.8,13.8c6,0,10.8-6,10.8-13.8c0-4.7-1.9-8.4-6.6-10.6
	c-4.301,1-8.2,0.1-11.5,1.7C19.1,20.6,18.9,26.1,18.4,27"/>
<path fill="none" stroke="#000000" stroke-width="2" stroke-linecap="round" stroke-linejoin="round" stroke-miterlimit="10" d="
	M25.9,35.8c1.9,1,4.1,1,6,0"/>
<path fill="none" stroke="#030404" stroke-width="2" stroke-linejoin="round" d="M17.9,28.6c0,8,5,14,11,14c6,0,11.5-6,11-14
	C39.3,18,35.8,17.7,29,18.3c-6.7-0.7-11,1.5-11,9.3v1H17.9z"/>
<path fill="none" stroke="#000000" stroke-width="2" stroke-linecap="round" stroke-linejoin="round" stroke-miterlimit="10" d="
	M46.1,43.9C48.2,42.8,47.7,39.1,45.9,35c-1.4-3.3,1.8-7.8-2-11.7c-4.301-4.4-3.2-8.4-8.101-10.8c-2.399-1.2-3.6-0.8-6.399-0.8
	c-2.2,0-5.2,0.8-6.9,1.4c-4.5,1.7-5.9,3.1-7.7,7.3c-0.7,1.6-2,4.6-3.3,6.2c-3,3.7-2.2,6.8-1.7,8.1c1.8,5-0.2,9-1,9.5"/>
<path fill="#1C1C1B" d="M34.9,27.3c0,1.1-0.9,2-2,2c-1.101,0-2-0.9-2-2c0-1.1,0.899-2,2-2C34,25.3,34.9,26.2,34.9,27.3"/>
<path fill="#1C1C1B" d="M26.9,27.3c0,1.1-0.9,2-2,2s-2-0.9-2-2c0-1.1,0.9-2,2-2S26.9,26.2,26.9,27.3"/>
<path d="M34.9,27.3c0,1.1-0.9,2-2,2c-1.101,0-2-0.9-2-2c0-1.1,0.899-2,2-2C34,25.3,34.9,26.2,34.9,27.3"/>
<path d="M26.9,27.3c0,1.1-0.9,2-2,2s-2-0.9-2-2c0-1.1,0.9-2,2-2S26.9,26.2,26.9,27.3"/>
<path fill="#FFFFFF" d="M9.6,65v-9.8c0-5,5-9,10-9c6,5,12,5,18,0c5,0,10,4,10,9V65H9.6z"/>
<path fill="#D7D8DE" d="M38,46c-3.2,2.1-4.9,3-8.9,3.6C42.2,50,42.2,61,42.9,65H48C48,65,50,46,38,46"/>
<path fill="#FFE8BC" d="M21.9,48.8c-0.7,6,5,6.601,6.8,10.101c2-3.7,7-4.101,6.6-10.101"/>
<path fill="none" stroke="#1D1D1B" stroke-width="2" stroke-linecap="round" stroke-linejoin="round" stroke-miterlimit="10" d="
	M21.9,48.8c-0.7,6,5,6.601,6.8,10.101c2-3.7,7-4.101,6.6-10.101"/>
<path fill="none" stroke="#1C1C1B" stroke-width="2" stroke-linecap="round" stroke-linejoin="round" d="M9.7,64v-9c0-5,5-9,10-9
	c6,5,12,5,18,0c5,0,10,4,10,9v9"/>
<path fill="none" stroke="#000000" stroke-linecap="round" stroke-linejoin="round" stroke-miterlimit="10" d="M21.6,24.2l1.6-0.6
	c0,0,2.4-0.5,3.9,0.1"/>
<path fill="none" stroke="#000000" stroke-linecap="round" stroke-linejoin="round" stroke-miterlimit="10" d="M36.8,24.2l-1.6-0.6
	c0,0-2.4-0.5-3.9,0.1"/>
</svg>
