<?xml version="1.0" encoding="utf-8"?>
<!-- Generator: Adobe Illustrator 16.0.4, SVG Export Plug-In . SVG Version: 6.00 Build 0)  -->
<!DOCTYPE svg PUBLIC "-//W3C//DTD SVG 1.1//EN" "http://www.w3.org/Graphics/SVG/1.1/DTD/svg11.dtd">
<svg version="1.1" id="Ebene_1" xmlns="http://www.w3.org/2000/svg" xmlns:xlink="http://www.w3.org/1999/xlink" x="0px" y="0px"
	 width="55px" height="65px" viewBox="0 0 55 65" enable-background="new 0 0 55 65" xml:space="preserve">
<path fill="#CC9966" d="M24.9,13.1c-0.3-0.5-0.7-2.5-0.4-4.6C25,5,29.1,4.2,31,4.6c2,0.4,5.7,1.9,6.2,4.5c0.4,2.2-0.5,3.8-2.7,5.9"
	/>
<path fill="none" stroke="#1C1C1B" stroke-width="2" stroke-linecap="round" stroke-linejoin="round" d="M24.9,13.3
	c-0.3-0.5-0.7-2.5-0.4-4.6C25,5.2,29.1,4.4,31,4.8c2,0.4,5.7,1.9,6.2,4.5c0.4,2.2-0.5,3.8-2.7,5.9"/>
<path fill="#CC9966" d="M16.5,34.1C12.3,17,18.2,10.6,27,10.6c10,0,15.5,7.3,11.1,22.9"/>
<path fill="#1C1C1B" d="M32.9,28.2c0,1.1-0.9,2-2,2s-2-0.9-2-2c0-1.1,0.9-2,2-2C32,26.3,32.9,27.1,32.9,28.2"/>
<path fill="#1C1C1B" d="M24.9,28.2c0,1.1-0.9,2-2,2c-1.1,0-2-0.9-2-2c0-1.1,0.9-2,2-2C24,26.3,24.9,27.1,24.9,28.2"/>
<path fill="#FFE8BC" d="M16,29.2c-0.1,8,4.1,14,11,14c7.1,0,11.1-6,11.1-14c0-5-3-10-3-10c-8,0-10,3-16,1C19,20.3,16,24.3,16,29.2"
	/>
<path d="M32.9,28.2c0,1.1-0.9,2-2,2s-2-0.9-2-2c0-1.1,0.9-2,2-2C32,26.3,32.9,27.1,32.9,28.2"/>
<path d="M24.9,28.2c0,1.1-0.9,2-2,2c-1.1,0-2-0.9-2-2c0-1.1,0.9-2,2-2C24,26.3,24.9,27.1,24.9,28.2"/>
<path d="M25.3,39.8c0,0.2-0.2,0.4-0.4,0.4s-0.4-0.2-0.4-0.4s0.2-0.4,0.4-0.4S25.3,39.6,25.3,39.8"/>
<path fill="none" stroke="#1C1C1B" stroke-width="2" stroke-linejoin="round" d="M16,29.2c-0.1,8,4.9,14,11,14c5.9,0,11.1-6,11.1-14
	c0-5-3-11-3-11c-8,0-10,3-16,1C19,19.3,16,24.3,16,29.2z"/>
<path fill="none" stroke="#1C1C1B" stroke-width="2" stroke-linecap="round" stroke-linejoin="round" d="M23.9,37.5
	c2.1,0.8,4.1,0.8,6,0"/>
<path fill="none" stroke="#1D1D1B" stroke-width="2" stroke-linecap="round" stroke-linejoin="round" stroke-miterlimit="10" d="
	M16,32.3c-4.2-14.1,2.5-21.9,11.3-21.9c10,0,14.8,6.3,10.5,21.9"/>
<path fill="none" stroke="#000000" stroke-linecap="round" stroke-linejoin="round" stroke-miterlimit="10" d="M25.5,28.1
	c-0.1,2.2-1.3,3.1-3.5,3.1c-2.2,0-4-1.3-4-3.5c0-1,0.1-1.7,0.1-1.7c0.7-0.7,2.7-0.7,3.8-0.7c1.3,0,3.6,0.2,3.6,0.2
	S25.6,27.1,25.5,28.1z"/>
<path fill="none" stroke="#000000" stroke-linecap="round" stroke-linejoin="round" stroke-miterlimit="10" d="M28,28.1
	c0.1,2.2,1.3,3.1,3.5,3.1c2.2,0,4-1.3,4-3.5c0-1-0.1-1.7-0.1-1.7c-0.7-0.7-2.7-0.7-3.8-0.7c-1.3,0-3.6,0.2-3.6,0.2S28,27.1,28,28.1z
	"/>
<line fill="none" stroke="#000000" stroke-linecap="round" stroke-linejoin="round" stroke-miterlimit="10" x1="15.2" y1="27.7" x2="18" y2="27.7"/>
<line fill="none" stroke="#000000" stroke-linecap="round" stroke-linejoin="round" stroke-miterlimit="10" x1="35.9" y1="27.5" x2="38.8" y2="27.5"/>
<path d="M29,39.8c0,0.2-0.2,0.4-0.4,0.4s-0.4-0.2-0.4-0.4s0.2-0.4,0.4-0.4S29,39.6,29,39.8"/>
<path d="M23.1,40.2c0,0.2-0.2,0.4-0.4,0.4c-0.2,0-0.4-0.2-0.4-0.4s0.2-0.4,0.4-0.4C22.9,39.8,23.1,40,23.1,40.2"/>
<path d="M22.2,37.8c0,0.2-0.2,0.4-0.4,0.4c-0.2,0-0.4-0.2-0.4-0.4s0.2-0.4,0.4-0.4C22,37.4,22.2,37.6,22.2,37.8"/>
<path d="M21.1,37.8c0,0.2-0.2,0.4-0.4,0.4c-0.2,0-0.4-0.2-0.4-0.4s0.2-0.4,0.4-0.4C21,37.4,21.1,37.6,21.1,37.8"/>
<path d="M22.2,38.9c0,0.2-0.2,0.4-0.4,0.4c-0.2,0-0.4-0.2-0.4-0.4c0-0.2,0.2-0.4,0.4-0.4C22,38.5,22.2,38.7,22.2,38.9"/>
<path d="M23.7,39.4c0,0.2-0.2,0.4-0.4,0.4c-0.2,0-0.4-0.2-0.4-0.4c0-0.2,0.2-0.4,0.4-0.4C23.5,39,23.7,39.1,23.7,39.4"/>
<path d="M20.1,36.6c0,0.2-0.2,0.4-0.4,0.4c-0.2,0-0.4-0.2-0.4-0.4c0-0.2,0.2-0.4,0.4-0.4C19.9,36.2,20.1,36.4,20.1,36.6"/>
<path d="M21,36.3c0,0.2-0.2,0.4-0.4,0.4c-0.2,0-0.4-0.2-0.4-0.4s0.2-0.4,0.4-0.4C20.8,35.9,21,36.1,21,36.3"/>
<path d="M24.3,40.8c0,0.2-0.2,0.4-0.4,0.4s-0.4-0.2-0.4-0.4s0.2-0.4,0.4-0.4S24.3,40.5,24.3,40.8"/>
<path d="M28.5,40.8c0,0.2,0.2,0.4,0.4,0.4s0.4-0.2,0.4-0.4s-0.2-0.4-0.4-0.4S28.5,40.5,28.5,40.8"/>
<path d="M29.9,39.4c0,0.2,0.2,0.4,0.4,0.4c0.2,0,0.4-0.2,0.4-0.4c0-0.2-0.2-0.4-0.4-0.4C30.1,38.9,29.9,39.1,29.9,39.4"/>
<path d="M27,41.2c0,0.2,0.2,0.4,0.4,0.4s0.4-0.2,0.4-0.4s-0.2-0.4-0.4-0.4C27.1,40.8,27,41,27,41.2"/>
<path d="M30.7,40.2c0,0.2,0.2,0.4,0.4,0.4s0.4-0.2,0.4-0.4s-0.2-0.4-0.4-0.4S30.7,40,30.7,40.2"/>
<path d="M32.6,37.8c0,0.2,0.2,0.4,0.4,0.4c0.2,0,0.4-0.2,0.4-0.4s-0.2-0.4-0.4-0.4C32.8,37.4,32.6,37.6,32.6,37.8"/>
<path d="M31.5,38.9c0,0.2,0.2,0.4,0.4,0.4s0.4-0.2,0.4-0.4c0-0.2-0.2-0.4-0.4-0.4S31.5,38.7,31.5,38.9"/>
<path d="M29.5,40.8c0,0.2,0.2,0.4,0.4,0.4s0.4-0.2,0.4-0.4s-0.2-0.4-0.4-0.4S29.5,40.5,29.5,40.8"/>
<path d="M33.6,36.6c0,0.2,0.2,0.4,0.4,0.4c0.2,0,0.4-0.2,0.4-0.4c0-0.2-0.2-0.4-0.4-0.4C33.8,36.2,33.6,36.4,33.6,36.6"/>
<path d="M26.5,40.2c0,0.2,0.2,0.4,0.4,0.4s0.4-0.2,0.4-0.4s-0.2-0.4-0.4-0.4S26.5,40,26.5,40.2"/>
<path d="M25.1,40.8c0,0.2,0.2,0.4,0.4,0.4c0.2,0,0.4-0.2,0.4-0.4s-0.2-0.4-0.4-0.4C25.3,40.4,25.1,40.5,25.1,40.8"/>
<path fill="#9AD2F3" d="M45.7,65.1c-0.6,0,0-10.1,0-10.1c0-4.5-5.5-8.8-9.7-8.9c-6.2,5-12.1,4.9-18.3-0.1c-4.2,0.2-9.9,3.4-9.9,7.8
	c0,0,0.4,11.2-0.1,11.2"/>
<path fill="#54B4E4" d="M36,46.6c-3.2,2.1-4.9,3-8.9,3.6c13.1,0.4,13.1,11.4,13.8,15.4H46C46,65.6,48,46.6,36,46.6"/>
<path fill="none" stroke="#030404" stroke-width="2" stroke-linecap="round" stroke-linejoin="round" d="M7.7,64v-9c0-5,5-9,10-9
	c6,5,12,5,18,0c5,0,10,4,10,9v9"/>
<path fill="#9AD2F3" d="M24.2,49.7l0.3,6.3l-6.9-7.6c0,0-0.2-2.7-0.3-4.5C20.3,46.6,24.2,49.7,24.2,49.7"/>
<path fill="none" stroke="#1D1D1B" stroke-width="2" stroke-linecap="round" stroke-linejoin="round" stroke-miterlimit="10" d="
	M24.2,49.7l0.3,6.3l-6.9-7.6c0,0-0.2-2.7-0.3-4.5C20.3,46.6,24.2,49.7,24.2,49.7z"/>
<path fill="#9AD2F3" d="M28.2,49.7L28,56l6.9-7.6c0,0,0.2-2.7,0.3-4.5C32.1,46.6,28.2,49.7,28.2,49.7"/>
<path fill="none" stroke="#1D1D1B" stroke-width="2" stroke-linecap="round" stroke-linejoin="round" stroke-miterlimit="10" d="
	M28.2,49.7L28,56l6.9-7.6c0,0,0.2-2.7,0.3-4.5C32.1,46.6,28.2,49.7,28.2,49.7z"/>
</svg>
