<?xml version="1.0" encoding="utf-8"?>
<!-- Generator: Adobe Illustrator 16.0.4, SVG Export Plug-In . SVG Version: 6.00 Build 0)  -->
<!DOCTYPE svg PUBLIC "-//W3C//DTD SVG 1.1//EN" "http://www.w3.org/Graphics/SVG/1.1/DTD/svg11.dtd">
<svg version="1.1" id="Ebene_1" xmlns="http://www.w3.org/2000/svg" xmlns:xlink="http://www.w3.org/1999/xlink" x="0px" y="0px"
	 width="55px" height="65px" viewBox="0 0 55 65" enable-background="new 0 0 55 65" xml:space="preserve">
<path d="M17,33.8c-4.2-17.2,1.7-23.5,10.5-23.5c10,0,15.5,7.3,11.1,22.9"/>
<path fill="#1C1C1B" d="M33.4,27.9c0,1.1-0.9,2-2,2c-1.1,0-2-0.9-2-2s0.9-2,2-2C32.5,25.9,33.4,26.8,33.4,27.9"/>
<path fill="#1C1C1B" d="M25.4,27.9c0,1.1-0.9,2-2,2c-1.1,0-2-0.9-2-2s0.9-2,2-2C24.5,25.9,25.4,26.8,25.4,27.9"/>
<path fill="#E4AE67" d="M16.4,28.9c-0.1,8,4.1,14,11,14c7.1,0,11.1-6,11.1-14c0-5-3-10-3-10c-8,0-10,3-16,1
	C19.5,19.9,16.5,23.9,16.4,28.9"/>
<path d="M33.4,27.9c0,1.1-0.9,2-2,2c-1.1,0-2-0.9-2-2s0.9-2,2-2C32.5,25.9,33.4,26.8,33.4,27.9"/>
<path d="M25.4,27.9c0,1.1-0.9,2-2,2c-1.1,0-2-0.9-2-2s0.9-2,2-2C24.5,25.9,25.4,26.8,25.4,27.9"/>
<path fill="none" stroke="#000000" stroke-width="2" stroke-linejoin="round" d="M16.4,28.9c-0.1,8,4.9,14,11,14
	c5.9,0,11.1-6,11.1-14c0-5-3-11-3-11c-8,0-10,3-16,1C19.5,18.9,16.5,23.9,16.4,28.9z"/>
<path fill="none" stroke="#000000" stroke-width="2" stroke-linecap="round" stroke-linejoin="round" d="M24,35.9
	c1.3,1.8,5.5,1.7,6.9,0"/>
<path fill="none" stroke="#000000" stroke-width="2" stroke-linecap="round" stroke-linejoin="round" stroke-miterlimit="10" d="
	M16.4,32C12.3,17.9,19,10.2,27.8,10.2c10,0,14.8,6.3,10.5,21.9"/>
<path d="M24.1,8.3c-0.1,0.2-6.6,2.9-5.5,5.6c0.7,1.8,0,2.9,0.9,3.3c2.4,1,13.1-1.3,13.9-1.5c2.1-0.3,0.9-0.7-0.4-1.1
	c-3.1-1.2-3.1-1.2-5.1-1.9C25.9,11.8,25.1,8.8,24.1,8.3"/>
<path fill="none" stroke="#000000" stroke-width="2" stroke-linecap="round" stroke-linejoin="round" stroke-miterlimit="10" d="
	M35.5,17.9c-0.7-4.1-5.6-4.6-7.6-5.4c-1.9-0.7-3-3.3-4-3.8c-0.1,0.2-4.2,1.5-5.3,4.1c-0.5,1.3,0.9,4.8,0.9,6"/>
<path fill="#E37861" d="M46.2,65c-0.6,0,0-10.1,0-10.1c0-4.5-5.5-8.8-9.7-8.9c-6.1,5-12,5-18.3,0c-4.2,0.2-9.9,3.4-9.9,7.8
	c0,0,0.5,11.2-0.1,11.2"/>
<path fill="#CD4D41" d="M36.6,46.5c-3.2,2.1-4.9,3-8.9,3.6c13.1,0.4,13.1,11.4,13.8,15.4h5.1C46.6,65.5,48.6,46.5,36.6,46.5"/>
<path fill="none" stroke="#030404" stroke-width="2" stroke-linecap="round" stroke-linejoin="round" d="M8.2,64v-9c0-5,5-9,10-9
	c6,5,12,5,18,0c5,0,10,4,10,9v9"/>
<path fill="none" stroke="#000000" stroke-linecap="round" stroke-linejoin="round" stroke-miterlimit="10" d="M20,24.4l1.6-0.6
	c0,0,2.4-0.5,3.9,0"/>
<path fill="none" stroke="#000000" stroke-linecap="round" stroke-linejoin="round" stroke-miterlimit="10" d="M35.2,24.4l-1.6-0.6
	c0,0-2.4-0.5-3.9,0"/>
</svg>
