<svg id="Ebene_1" data-name="Ebene 1" xmlns="http://www.w3.org/2000/svg" viewBox="0 0 55 65">
  <title>Zeichenfläche 1</title>
  <path d="M32.42,42.9031A11.1553,11.1553,0,0,1,23,42.807l-1.1481,4.6644s6.2371,4.9232,11.5391-.3788Z" fill="#ffe8bc"/>
  <path d="M8.722,64.963V55.131c0-4.994,5.007-9,10-9q9,7.5,18,0c4.991,0,10,4.006,10,9v9.832Z" fill="#9b9b9a"/>
  <path d="M37.184,46c-3.17,2.113-1.2065,2.41-5.2695,3,13.063.41,8.4978,11.963,9.2588,15.963l6.01.037c.001,0,2.001-19-9.999-19" fill="#3f3f3f"/>
  <path d="M34.46,48.813l-.188-.949a20.1455,20.1455,0,0,0,2.604-1.854c4.994,0,10,4.007,10,9v9" fill="none" stroke="#000" stroke-linecap="round" stroke-linejoin="round" stroke-width="2"/>
  <path d="M8.875,64.008v-9c0-4.994,5.008-9,10-9a20.5216,20.5216,0,0,0,2.25,1.641" fill="none" stroke="#000" stroke-linecap="round" stroke-linejoin="round" stroke-width="2"/>
  <path d="M41.031,61.707c.151-19.439,5.07-48.064-6.723-49.11-6.312-.559-14.604,1.473-18.991,6.073-5.631,5.906-3.679,30.588-1.994,43.018,3.276.039,1.498-.077,4.815.001-.048-2.925,4.005-16.931,3.956-19.856,5.898-.238,5.13-.361,11.028-.602.191,3.067,3.125,17.396,3.318,20.465,1.764.148,2.83-.137,4.591.011" fill="#493628"/>
  <path d="M17.228,28.07v.966c0,7.721,4.73,13.771,10.77,13.771s10.314-5.252,9.779-12.954c-.264-3.822.156-10.444-4.672-12.687-4.564-.63-9.99,2.556-13.228,4.243-2.713,1.528-2.176,5.816-2.649,6.661" fill="#ffe8bc"/>
  <path d="M24.768,36.916a6.375,6.375,0,0,0,6,0" fill="none" stroke="#000" stroke-linecap="round" stroke-linejoin="round" stroke-width="2"/>
  <path d="M33.727,28.434a2,2,0,1,1-2-2,2.0007,2.0007,0,0,1,2,2" fill="#1c1c1b"/>
  <path d="M25.726,28.434a2,2,0,1,1-2-2,2.0007,2.0007,0,0,1,2,2" fill="#1c1c1b"/>
  <path d="M33.727,28.434a2,2,0,1,1-2-2,2.0007,2.0007,0,0,1,2,2"/>
  <path d="M25.726,28.434a2,2,0,1,1-2-2,2.0007,2.0007,0,0,1,2,2"/>
  <path d="M33.094,41.771c.285,3.844,3.062,15.127,3.348,18.971" fill="none" stroke="#000" stroke-linecap="round" stroke-linejoin="round" stroke-width="2"/>
  <path d="M41.066,60.666c1.928-13.158,1.875-47.281-4.728-48.619-8.639-1.751-20.025,3.07-22.928,9.441-3.213,7.053-1.123,27.504-.087,39.219" fill="none" stroke="#000" stroke-linecap="round" stroke-linejoin="round" stroke-width="2"/>
  <path d="M22.392,42.086c-.566,3.812-3.687,14.773-4.253,18.586" fill="none" stroke="#000" stroke-linecap="round" stroke-linejoin="round" stroke-width="2"/>
  <path d="M20.8512,24.85a5.3969,5.3969,0,0,1,1.49-.4948,5.0044,5.0044,0,0,1,3.3851.671" fill="none" stroke="#83674c" stroke-linecap="round" stroke-linejoin="round"/>
  <path d="M34.3528,24.85a5.3957,5.3957,0,0,0-1.49-.4948,5.0043,5.0043,0,0,0-3.3851.671" fill="none" stroke="#83674c" stroke-linecap="round" stroke-linejoin="round"/>
  <path d="M21.8516,48.1437a10.8248,10.8248,0,0,0,11.6982,0" fill="none" stroke="#000" stroke-linecap="round" stroke-miterlimit="10" stroke-width="2"/>
  <path d="M26.8759,28.8394a2.9709,2.9709,0,0,1-2.9622,2.9622H22.09a2.97,2.97,0,0,1-2.9611-2.9611" fill="none" stroke="#d0cfce" stroke-miterlimit="10"/>
  <path d="M36.442,28.8394A2.9709,2.9709,0,0,1,33.48,31.8016H31.6557a2.97,2.97,0,0,1-2.9611-2.9611" fill="none" stroke="#d0cfce" stroke-miterlimit="10"/>
  <path d="M19.1285,28.847V27.1591a.9083.9083,0,0,1,.9056-.9057h5.9372a.9073.9073,0,0,1,.9046.9046v1.6879" fill="none" stroke="#000" stroke-linecap="round" stroke-linejoin="round"/>
  <path d="M28.6946,28.847V27.1591a.9083.9083,0,0,1,.9056-.9057h5.9372a.9073.9073,0,0,1,.9046.9046v1.6879" fill="none" stroke="#000" stroke-linecap="round" stroke-linejoin="round"/>
  <line x1="18.7896" y1="28.2934" x2="17.6281" y2="27.7807" fill="none" stroke="#000" stroke-linecap="round" stroke-linejoin="round"/>
  <path d="M16.5349,30.1436s-1.2659-3.4443-2.2868-.5552,2.6436,4.8491,2.6436,4.8491" fill="#ffe8bc"/>
  <path d="M16.4112,29.7467s-1.2659-3.4443-2.2868-.5553,2.6436,4.8492,2.6436,4.8492" fill="none" stroke="#000" stroke-linecap="round" stroke-linejoin="round"/>
  <path d="M38.179,30.1436s1.2659-3.4443,2.2867-.5552-2.6435,4.8491-2.6435,4.8491" fill="#ffe8bc"/>
  <path d="M38.3027,29.7467s1.2659-3.4443,2.2868-.5553-2.6436,4.8492-2.6436,4.8492" fill="none" stroke="#000" stroke-linecap="round" stroke-linejoin="round"/>
  <path d="M16.768,29.666c0,8,5,14,11,14s9.837-5.814,10.011-13.813c.076-3.641-3.365-12.496-3.365-12.496S16.769,16.332,16.769,28.666l-.001,1Z" fill="none" stroke="#000" stroke-linejoin="round" stroke-width="2"/>
</svg>
