<?xml version="1.0" encoding="utf-8"?>
<!-- Generator: Adobe Illustrator 16.0.4, SVG Export Plug-In . SVG Version: 6.00 Build 0)  -->
<!DOCTYPE svg PUBLIC "-//W3C//DTD SVG 1.1//EN" "http://www.w3.org/Graphics/SVG/1.1/DTD/svg11.dtd">
<svg version="1.1" id="Ebene_1" xmlns="http://www.w3.org/2000/svg" xmlns:xlink="http://www.w3.org/1999/xlink" x="0px" y="0px"
	 width="55px" height="65px" viewBox="0 0 55 65" enable-background="new 0 0 55 65" xml:space="preserve">
<path fill="#CC9966" d="M6.5,46.9C6.7,47.2,8,35.8,9.3,33.7c0.4-0.9,2.3-7.8,4.8-13.9c1.4-3.4,3.3-8,6.5-7.1
	c0.3,0.1,0.5-0.1,0.7-0.3c0.1-0.1,2.4-2.7,7.2-2.7c6.2,0,11.4,3.4,12.7,8.2c0.5,2,2.1,2.4,1.9,4.5c-0.2,2,1.6,7.7,1.8,8.5
	c0.8,3.6,3.2,9.1,3.7,11.9c1.6,9,1.4,21.3,1.4,21.3H4.9C4.9,64.1,3.9,48.3,6.5,46.9"/>
<path fill="#FFE8BC" d="M39.4,27.9c0,0-3.4,17.8-13.5,14.8c-5.4-1.6-8.4-6.6-8.4-13.9c0-4.4,1.7-8.7,5.1-12.1
	c3.4,1.1,7.4,3.1,10.4,4.7C35.4,22.8,38.9,27.1,39.4,27.9"/>
<path fill="none" stroke="#030404" stroke-width="2" stroke-linecap="round" stroke-linejoin="round" d="M50.1,64.1
	c0.5-2.1-0.1-15.4-0.8-18.9c-0.7-3.5-2.5-9.8-4.3-14.4c-1.6-4.2-1.3-6.9-3.7-12.2c-1.8-3.9-3.5-8.1-12.7-9c-5.4-0.5-8,2-8,2
	c-7.7-0.3-8.4,15.2-10.8,20.9c-1.8,4.1-2.6,12.9-3.7,15.8c-1,2.6-1.1,14-1,15.7"/>
<path fill="none" stroke="#030404" stroke-width="2" stroke-linecap="round" stroke-linejoin="round" d="M24.5,36c1.9,1,4.1,1,6,0"
	/>
<path d="M33.7,27.9c0,1.1-0.9,2-2,2c-1.1,0-2-0.9-2-2s0.9-2,2-2C32.8,25.9,33.7,26.8,33.7,27.9"/>
<path d="M25.7,27.9c0,1.1-0.9,2-2,2c-1.1,0-2-0.9-2-2s0.9-2,2-2C24.8,25.9,25.7,26.8,25.7,27.9"/>
<path fill="none" stroke="#CC9966" stroke-linecap="round" stroke-linejoin="round" stroke-miterlimit="10" d="M20.4,24.4l1.6-0.6
	c0,0,2.4-0.5,3.9,0"/>
<path fill="none" stroke="#CC9966" stroke-linecap="round" stroke-linejoin="round" stroke-miterlimit="10" d="M35.6,24.4L34,23.8
	c0,0-2.4-0.5-3.9,0"/>
<path fill="none" stroke="#030404" stroke-width="2" stroke-linejoin="round" d="M38.5,28.7c0,8-5,14-11,14s-11-6-11-14
	c0-5,2-8,6-12c7.2,1.5,16,9,16,11V28.7z"/>
<path fill="#AAAFB5" d="M8.3,64.7v-9.8c0-5,5-9,10-9c6,5,12,5,18,0c5,0,10,4,10,9v9.8H8.3z"/>
<path fill="#5A5E5F" d="M36.8,45.7c-3.2,2.1-4.9,3-8.9,3.6c13.1,0.4,13.1,11.4,13.8,15.4h5.1C46.8,64.7,48.8,45.7,36.8,45.7"/>
<path fill="#FFE8BC" d="M20.6,48.5c-0.7,6,5,6.6,6.8,10.1c2-3.7,7-4.1,6.6-10.1"/>
<path fill="none" stroke="#1D1D1B" stroke-width="2" stroke-linecap="round" stroke-linejoin="round" stroke-miterlimit="10" d="
	M20.6,48.5c-0.7,6,5,6.6,6.8,10.1c2-3.7,7-4.1,6.6-10.1"/>
<path fill="none" stroke="#1C1C1B" stroke-width="2" stroke-linecap="round" stroke-linejoin="round" d="M8.4,63.7v-9c0-5,5-9,10-9
	c6,5,12,5,18,0c5,0,10,4,10,9v9"/>
</svg>
