<svg id="Ebene_1" data-name="Ebene 1" xmlns="http://www.w3.org/2000/svg" viewBox="0 0 1920 1080">
  <title>ZeichenflaÌˆche 17</title>
  <rect x="-6" y="-22" width="1944" height="1107" fill="#61b2e4"/>
  <polyline points="571.297 303.496 473.941 271.045 447 279.617 510.067 336.56" fill="#9a9997"/>
  <path d="M501.4921,328.4774a4.7424,4.7424,0,0,1-3.193-1.2318l-49.5967-44.6965a4.7756,4.7756,0,0,1,1.5516-8.0305l18.369-6.7329a4.827,4.827,0,0,1,3.2289-.0209l76.5372,26.9405A4.7732,4.7732,0,1,1,545.22,303.71L470.3,277.3439l-9.319,3.4173,43.71,39.3928a4.7761,4.7761,0,0,1-3.1991,8.3234Z" stroke="#000" stroke-miterlimit="10" stroke-width="5"/>
  <path d="M685.1839,248.39l83.2726-28.1657s82.66-1.2246,63.0667,20.2058S676,315.13,635.5878,330.4374s-90.0078,23.2674-124.2965,23.88c-30.0026-.6123,3.6738-18.9812,3.6738-18.9812s38.5748-21.43,55.1068-29.39l15.92-11.6336" fill="#cdcbcb"/>
  <polyline points="712.737 276.555 561.5 259.411 549.254 268.595 655.794 306.558" fill="#9a9997"/>
  <path d="M651.5052,310.1085a4.7566,4.7566,0,0,1-1.6145-.2811L547.6387,273.09a4.7758,4.7758,0,0,1-1.25-8.3144l12.246-9.1845a4.8047,4.8047,0,0,1,3.2678-.9358l151.2388,12.8589a4.7747,4.7747,0,0,1,4.353,5.16,4.8594,4.8594,0,0,1-5.1662,4.353L562.9073,264.3236l-3.6983,2.7745L653.12,300.8343a4.7776,4.7776,0,0,1-1.6144,9.2742Z" stroke="#000" stroke-miterlimit="10" stroke-width="5"/>
  <path d="M510.3746,357.8844c-6.676,0-13.9261-.9686-15.4539-6.7209-1.5427-5.7941,4.64-12.533,18.3689-20.0193,1.5487-.861,38.8547-21.5739,55.3221-29.5027l17.3375-7.4325a4.7749,4.7749,0,1,1,3.7611,8.7779l-17.1461,7.3488c-16.025,7.72-54.2847,28.9586-54.6674,29.1738A64.1621,64.1621,0,0,0,505.6,348.0482a40.3178,40.3178,0,0,0,6.2067.2751c29.2875-.5262,78.9889-7.02,122.7018-23.5771,59.7619-22.6383,177.2406-70.3216,194.1027-88.7653,1.4291-1.5517,1.68-2.4755,1.6085-2.6369-1.2677-2.9987-15.3673-8.0813-47.8119-8.9573a54.8877,54.8877,0,0,0-23.87,3.9674l-67.8849,27.5205a4.7746,4.7746,0,1,1-3.5877-8.85l67.9627-27.5534a64.457,64.457,0,0,1,27.8285-4.6251c33.4431.9029,52.3981,5.8778,56.1592,14.7782,1.2138,2.8612,1.6084,7.4056-3.3665,12.8141-22.2018,24.2826-179.8506,84.46-197.7561,91.2407-44.861,16.9877-95.86,23.6489-125.9038,24.187C511.4569,357.8785,510.9158,357.8844,510.3746,357.8844Z" stroke="#000" stroke-miterlimit="10" stroke-width="5"/>
  <g>
    <path d="M445,377q-6.94,2.9367-13.6943,6.1292" fill="none" stroke="#d22f27" stroke-linecap="round" stroke-linejoin="round" stroke-width="14"/>
    <path d="M404.5728,397.5774c-42.59,26.4117-72.4444,64.4427-66.4258,123.2272,6.4951,63.4414,50.7114,116.7708,99.7573,157.5324,167.6318,139.3174,404.5444,172.9549,618.8718,133.2862,95.0186-17.5865,189.6465-49.4388,265.1206-109.7835s129.5616-152.6041,126.9439-249.201-71.1143-192.5069-166.0449-210.5965c-103.1575-19.6538-204.5325,50.0165-269.3067,128.0994" fill="none" stroke="#d22f27" stroke-linecap="round" stroke-linejoin="round" stroke-width="14" stroke-dasharray="30.3995 30.3995"/>
    <path d="M1003.9863,381.9913Q999.3428,387.9842,995,394" fill="none" stroke="#d22f27" stroke-linecap="round" stroke-linejoin="round" stroke-width="14"/>
  </g>
  <g id="_" data-name="ðŸŒï¸">
    <g>
      <circle cx="1003.6972" cy="523.5" r="184.8966" fill="#91d2f4"/>
      <path d="M1003.6972,715c-105.594,0-191.5-85.9093-191.5-191.5,0-105.5939,85.906-191.5,191.5-191.5,105.5906,0,191.5,85.9061,191.5,191.5C1195.1972,629.0907,1109.2878,715,1003.6972,715Zm0-369.7931c-98.31,0-178.2931,79.983-178.2931,178.2931s79.9829,178.2931,178.2931,178.2931S1181.99,621.81,1181.99,523.5,1102.0073,345.2069,1003.6972,345.2069Z"/>
    </g>
    <g>
      <path d="M1092.1834,361.0552c-3.3017,5.9431-10.5655,13.8672-15.8483,17.1689-7.9242,4.6225-12.5466,1.9811-19.81,6.6035-8.5844,5.2827-7.9241,12.5465-13.2069,13.2069s-4.6224-13.2069-6.6034-19.81c-3.3017-9.9051-1.3207-9.9051-6.6034-13.2069-7.2638-4.6224-21.1311-7.2638-33.0173,0-4.6224,2.6414-5.2827,4.6225-19.81,26.4138-11.2259,16.5087-14.5276,20.4707-13.2069,26.4138s0,11.2259,6.6034,13.2069c7.9242,1.9811,9.2449-1.981,13.2069-6.6034,8.5845-9.9052,15.8483-25.0931,19.81-26.4138s13.8672,8.5845,13.2069,19.81c0,7.9242-5.9432,12.5466-13.2069,19.81-4.6225,4.6224-19.15,9.9051-39.6207,13.2069-11.2259,1.981-9.2449,5.9431-13.8673,10.5655-5.2827,6.6034-3.3017,14.5276-8.5845,21.7914-6.6034,9.2448-23.112,11.8862-24.4327,17.8293-1.3207,5.2827,13.2069,9.2448,19.81,9.2448,5.9431,0,7.2638-5.2828,19.81-13.2069,4.6224-3.3017,11.8862-8.5845,17.8293-7.9241,3.3017,0,11.8862,1.981,15.1879,4.6224,3.9621,3.3017-1.3207,11.8862-2.6414,21.131s-19.15,12.5466-25.7534,13.2069c-10.5655,1.981-27.0741-3.3017-36.9793,5.9431-6.6035,6.6035-7.2638,11.8862-7.9242,22.4518,0,2.6414,5.9431,19.81,13.2069,26.4138s15.188-5.2828,26.4138,0c11.2259,5.9431,16.5086,17.8293,19.81,26.4138s1.3207,7.9241,6.6034,33.0172c2.6414,12.5466,1.981,7.2638,6.6035,26.4138,3.962,15.8483,3.962,18.49,6.6034,19.81,7.9242,4.6225,25.7535-5.2827,33.0173-19.81,4.6224-9.2449,1.3207-13.2069,6.6034-33.0173,2.6414-9.9051,3.9621-15.1879,6.6035-19.81,11.2258-20.4707,32.3569-20.4707,33.0172-33.0172.66-8.5845-9.2448-12.5466-6.6035-19.81,1.9811-7.2638,11.8862-7.2638,13.2069-13.2069,1.9811-8.5845-14.5275-15.1879-13.2069-19.81,1.9811-5.2828,27.0742-6.6035,39.6207,6.6034,3.9621,4.6224,3.3018,6.6035,13.2069,26.4138,9.2449,18.49,11.8862,19.81,13.2069,19.81,2.6414-.66,1.9811-7.2638,6.6035-19.81,1.981-5.9431,7.2638-19.81,13.2069-19.81,3.962,0,4.6224,6.6034,13.2069,13.2069,4.6224,3.962,11.8862,5.9431,15.1879,6.6034,2.6414-12.5465,4.6224-26.4138,4.6224-39.6207,1.3207-69.9966-37.64-131.4086-95.09-162.4448" fill="#b0cb33"/>
      <path d="M1000.5276,696.3375a15.8,15.8,0,0,1-8.0834-2.0507c-4.456-2.2119-5.3234-5.836-7.6385-15.5155-.5449-2.2764-1.2059-5.0364-2.0442-8.3962-2.2054-9.1442-3.1889-12.6394-3.9111-15.206-.8222-2.9148-1.3252-4.6946-2.7471-11.4464-2.5569-12.1493-3.4469-18.3916-4.0337-22.5187a33.9907,33.9907,0,0,0-2.27-9.4861c-3.3662-8.7508-7.9867-18.3142-16.7376-22.9508-2.7729-1.3026-5.2782-.5481-9.46.9028-4.685,1.6315-11.7753,4.0885-18.3078-1.8508-8.3865-7.6288-15.3672-26.5556-15.3672-31.3019.7094-11.5689,1.5606-18.8237,9.86-27.1231,8.79-8.2092,20.4972-7.8287,29.8961-7.5,3.9917.129,7.7481.2612,10.5372-.2612,11.1175-1.1382,20.065-5.0848,20.4326-7.6514a69.5557,69.5557,0,0,1,2.5053-10.292,53.2755,53.2755,0,0,0,1.4413-5.4169,33.0971,33.0971,0,0,0-9.9568-2.5086,6.7875,6.7875,0,0,1-.7254-.0387c-3.3276-.39-9.8633,4.3045-13.01,6.5519-.1031.0709-.461.3257-.5674.39a74.0952,74.0952,0,0,0-10.5049,8.0319c-3.592,3.1856-6.9872,6.1972-12.8329,6.1972-6.01,0-19.3074-2.6505-24.2954-9.0346a9.669,9.669,0,0,1-1.9217-8.4124c1.2865-5.7876,7.0935-8.6863,13.2391-11.7591,4.585-2.2893,9.7827-4.8881,12.23-8.3091,1.8379-2.5312,2.4667-5.3589,3.1921-8.6284.9286-4.1819,1.983-8.9185,5.6072-13.4487a5.9952,5.9952,0,0,1,.4868-.5449,12.4974,12.4974,0,0,0,1.9185-2.673c2.544-4.2787,5.4621-7.9641,15.47-9.7278,21.6547-3.492,33.44-8.7122,36.1-11.3723l2.8084-2.7665c5.7168-5.5781,8.4639-8.4348,8.4639-12.375a16.6781,16.6781,0,0,0-5.0654-12.3266c-1.48,1.9475-3.5049,5.0686-5.1074,7.5385a143.009,143.009,0,0,1-11.25,15.7154c-.5385.6288-1.0415,1.2736-1.5187,1.88-2.9728,3.7886-7.4837,9.4989-18.2788,6.8066-9.486-2.8374-10.3888-10.305-10.9272-14.7675-.1322-1.0866-.2612-2.2345-.5224-3.4113-1.8153-8.1512,1.7025-13.294,11.1014-27.0329l9.773-14.6127c8.6186-13.0618,10.1728-15.4156,15.3124-18.35,13.8195-8.4478,30.38-5.8651,39.84.1644,5.3524,3.3436,6.3713,5.6555,7.5579,10.5049.3547,1.4348.8319,3.3791,1.7605,6.1811a57.112,57.112,0,0,1,1.6379,8.9314c.071.5578.1548,1.1962.2451,1.8637a27.4776,27.4776,0,0,1,8.2027-7.7256,29.28,29.28,0,0,1,12.1364-4.2077,19.84,19.84,0,0,0,7.8094-2.4763c4.1336-2.5859,10.6016-9.6311,13.4068-14.674a6.6041,6.6041,0,0,1,8.9121-2.602,186.8177,186.8177,0,0,1,98.5487,168.3814,201.3955,201.3955,0,0,1-4.7656,40.8557,6.5816,6.5816,0,0,1-7.7513,5.1138c-2.6827-.5353-11.9236-2.6956-18.1917-8.0609a43.2744,43.2744,0,0,1-9.4151-10.2663c-1.6444,2.2377-4.0562,6.7776-6.4358,13.9356a93.3229,93.3229,0,0,0-3.6886,12.9167c-1.0834,4.8559-2.199,9.8794-7.59,11.2207a6.6459,6.6459,0,0,1-1.5929.1935c-5.4426,0-9.1506-3.5468-19.1138-23.46-4.45-8.8992-6.8227-14.3032-8.39-17.8822-1.941-4.4174-2.3989-5.41-3.9208-7.1838-6.2616-6.5841-17.3405-8.422-24.0987-8.0609,4.7527,4.1594,11.0273,10.2212,9.1313,18.45-1.2575,5.6555-5.83,8.2607-9.1635,10.1567-2.36,1.3477-3.8177,2.2441-4.1078,3.3017-.3483,1.0253.5481,2.38,1.8378,4.23,2.3151,3.3211,5.4814,7.8739,4.9784,14.3548-.49,9.4086-7.9254,13.9356-15.1157,18.3142-6.4551,3.9337-13.7679,8.39-18.6947,17.3663-2.1152,3.7145-3.3469,8.3253-5.5717,16.6892l-.4449,1.6509a101.1817,101.1817,0,0,0-3.3276,19.0816c-.4449,5.0171-.8318,9.3506-3.7466,15.1867-5.4169,10.84-16.3152,20.2875-27.12,23.5054A24.8253,24.8253,0,0,1,1000.5276,696.3375Zm-1.0092-13.3552a8.56,8.56,0,0,0,4.2884-.4063c6.2488-1.8636,14.8062-8.2156,19.0752-16.7536,1.7992-3.5919,2.012-6.0295,2.4118-10.4533a112.6828,112.6828,0,0,1,3.7209-21.3129l.4385-1.6509c2.4311-9.1184,3.895-14.6256,6.81-19.7265,6.5647-11.9817,16.27-17.8886,23.3507-22.2028,6.0295-3.6693,8.68-5.5265,8.8024-7.8932.1419-1.8637-.8577-3.392-2.6375-5.9521-2.4312-3.4952-6.1133-8.7831-3.5726-15.767,1.5864-5.907,6.7389-8.8412,10.1438-10.7822a15.357,15.357,0,0,0,2.9664-1.9475c-.2773-1.0705-4.269-4.5335-5.9779-6.0167-4.0111-3.4758-9.0024-7.8029-7.2806-13.8292,1.5541-4.2077,5.1783-6.6776,10.9241-7.8448,11.6656-2.3763,29.5865.9286,39.84,11.7173,3.076,3.5725,4.1207,5.965,6.21,10.7241,1.5219,3.4565,3.8112,8.68,8.1124,17.2825,1.9991,3.9982,3.6306,7.0677,4.9462,9.4151.6706-2.515,1.5477-5.4556,2.76-8.7444,8.0351-24.131,16.5925-24.131,19.4041-24.131,5.4233,0,8.235,4.0175,10.2856,6.9452a31.0954,31.0954,0,0,0,6.9453,7.6288,22.1386,22.1386,0,0,0,6.0746,3.463,177.019,177.019,0,0,0,3.1083-31.2439,173.6231,173.6231,0,0,0-86.38-153.6914c-4.1981,5.5523-9.8794,11.1562-14.4515,14.0162a32.8315,32.8315,0,0,1-12.53,4.2078c-2.7407.4449-4.7268.7641-7.2354,2.3634a16.6879,16.6879,0,0,0-5.8683,6.3939c-1.7218,2.8181-4.3335,7.0806-10.0664,7.7964-10.1115,1.2866-11.6979-10.6822-12.62-17.8209a49.3087,49.3087,0,0,0-1.1286-6.6454c-1.0317-3.0824-1.5863-5.3491-1.999-7.0258-.1677-.6932-.2709-1.222-.4257-1.6605a14.27,14.27,0,0,1-1.3542-.8158c-5.146-3.2759-16.2958-5.9424-26.072.0323-2.4376,1.3961-3.0438,2.1893-11.0111,14.258l-9.8955,14.7933c-7.9674,11.6527-9.6279,14.3708-9.1088,16.7085a47.4867,47.4867,0,0,1,.7416,4.6979,16.6221,16.6221,0,0,0,.6062,3.3662c-.0032-.0129.2128.1031.7061.2515a4.9135,4.9135,0,0,0,2.2377.2063,14.2246,14.2246,0,0,0,2.1539-2.4311c.59-.7481,1.2123-1.538,1.9056-2.3506A132.9716,132.9716,0,0,0,989.049,405.87c5.117-7.8867,8.2059-12.6458,12.5588-14.1,2.357-.7964,6.1746-.9641,10.9563,2.6923,5.8683,4.498,11.53,13.5906,10.93,23.77.0129,9.2926-6.0295,15.1931-12.4331,21.4387l-2.6955,2.6536c-6.0327,6.036-22.2,11.6625-43.2384,15.0577-4.7656.8415-5.1557,1.4993-6.32,3.4565a25.3992,25.3992,0,0,1-3.6177,4.94c-1.5735,2.0958-2.141,4.643-2.85,7.8383-.8706,3.9112-1.9508,8.7767-5.375,13.4842-4.3206,6.0489-11.3723,9.5731-17.0374,12.4041-1.1.5513-2.4634,1.2317-3.6822,1.8959a34.263,34.263,0,0,0,10.7564,2.2893c.6739,0,1.1317-.2644,4.0691-2.8729a86.87,86.87,0,0,1,12.2138-9.3119c5.3621-3.8434,13.5035-9.6376,21.7353-8.9411,4.3141.1193,14.0968,2.1958,18.9333,6.065,6.0263,5.017,3.7112,12.7006,1.8508,18.872a58.4161,58.4161,0,0,0-2.08,8.3511c-2.1087,14.7545-24.7436,18.153-31.6308,18.843-3.6435.7029-8.3285.5546-12.8522.4-8.0512-.2708-15.6477-.5288-20.2811,3.7983-4.4625,4.4689-5.1557,7.3837-5.8038,17.463.7029,3.6693,5.9424,17.07,11.024,21.6869.5.4579.7384.6578,5.1009-.8512,4.6334-1.5993,11.63-4.024,19.6814-.2386,14.5837,7.7191,20.5938,23.3442,23.16,30.0186a46.4024,46.4024,0,0,1,3.0212,12.3686c.5643,3.96,1.4155,9.9438,3.8821,21.6611,1.3155,6.2423,1.7766,7.8932,2.5343,10.5887.7481,2.65,1.7638,6.2552,4.0272,15.6381.8384,3.3533,1.509,6.1585,2.0636,8.4735C998.4,678.8358,999.067,681.6152,999.5184,682.9823Zm-.79-.3031c.0291.0194.0581.0323.0871.0516C998.7865,682.7115,998.7575,682.6986,998.7284,682.6792Z"/>
    </g>
  </g>
</svg>
