<svg id="Ebene_1" data-name="Ebene 1" xmlns="http://www.w3.org/2000/svg" viewBox="0 0 1920 1080">
  <rect x="1" width="1918" height="1081" fill="#ffa7c0"/>
  <g>
    <g id="color">
      <path d="M1263.7916,332.5905a180.594,180.594,0,1,0,113.2541,228.9146A180.5932,180.5932,0,0,0,1263.7916,332.5905ZM1186.02,562.6694a62.2738,62.2738,0,1,1,78.9361-39.0531A62.2764,62.2764,0,0,1,1186.02,562.6694Z" fill="#fcea2b"/>
      <path d="M1186.02,562.6694a62.345,62.345,0,1,0-36.109-31.9262l2.8234.9544-2.8234-.9544A62.046,62.046,0,0,0,1186.02,562.6694Z" fill="none"/>
      <path d="M1264.956,523.6163a62.2447,62.2447,0,1,0-78.9361,39.0531A62.2767,62.2767,0,0,0,1264.956,523.6163Z" fill="none"/>
      <path d="M1263.7916,332.5905a180.4562,180.4562,0,0,0-236.2984,143.6258l15.1115,5.108a31.1386,31.1386,0,0,1,19.5265,39.468,31.1369,31.1369,0,1,0,58.9946,19.9415,18.6834,18.6834,0,0,1,23.6809-11.7159l5.1042,1.7253a62.2447,62.2447,0,1,1,36.109,31.9262,31.1388,31.1388,0,0,1,19.5266,39.4681,31.1369,31.1369,0,1,0,58.9946,19.9414,18.6821,18.6821,0,1,1,35.3967,11.9649c-2.4362,7.2074.3372,15.3731,5.6147,20.2321a180.5432,180.5432,0,0,0-41.7609-321.6854Z" fill="#f1b31c"/>
      <circle cx="1086.144" cy="430.3063" r="12.4548" fill="#fff"/>
      <circle cx="1105.5876" cy="489.4669" r="12.4548" fill="#fff"/>
      <circle cx="1292.3761" cy="559.179" r="12.4548" fill="#fff"/>
      <circle cx="1343.7261" cy="523.9482" r="12.4548" fill="#fff"/>
      <circle cx="1310.4894" cy="466.6988" r="12.4548" fill="#fff"/>
      <circle cx="1285.2294" cy="385.8516" r="12.4548" fill="#fff"/>
      <circle cx="1220.1693" cy="403.301" r="12.4548" fill="#fff"/>
      <circle cx="1149.3758" cy="379.3713" r="12.4548" fill="#fff"/>
    </g>
    <g id="line">
      <path d="M1080.1615,448.0047a18.6822,18.6822,0,1,1,23.6809-11.716A18.7026,18.7026,0,0,1,1080.1615,448.0047Zm7.9766-23.5979a6.2274,6.2274,0,1,0,3.9053,7.8936A6.2356,6.2356,0,0,0,1088.1381,424.4068Z"/>
      <path d="M1099.6051,507.1652a18.6821,18.6821,0,1,1,23.6808-11.7159A18.7026,18.7026,0,0,1,1099.6051,507.1652Zm7.9766-23.5978a6.2274,6.2274,0,1,0,3.9053,7.8936A6.2335,6.2335,0,0,0,1107.5817,483.5674Z"/>
      <path d="M1286.3937,576.8774a18.6821,18.6821,0,1,1,23.6808-11.7159A18.7024,18.7024,0,0,1,1286.3937,576.8774ZM1294.37,553.28a6.2274,6.2274,0,1,0,3.9053,7.8936A6.2315,6.2315,0,0,0,1294.37,553.28Z"/>
      <path d="M1337.7436,541.6466a18.6821,18.6821,0,1,1,23.6809-11.7159A18.7026,18.7026,0,0,1,1337.7436,541.6466Zm7.9766-23.5978a6.2274,6.2274,0,1,0,3.9053,7.8936A6.2335,6.2335,0,0,0,1345.72,518.0488Z"/>
      <path d="M1304.507,484.3972a18.6821,18.6821,0,1,1,23.6808-11.7159A18.7025,18.7025,0,0,1,1304.507,484.3972Zm7.9766-23.5978a6.2274,6.2274,0,1,0,3.9053,7.8936A6.2335,6.2335,0,0,0,1312.4836,460.7994Z"/>
      <path d="M1279.2469,403.55a18.6822,18.6822,0,1,1,23.6809-11.716A18.7026,18.7026,0,0,1,1279.2469,403.55Zm7.9766-23.5979a6.2274,6.2274,0,1,0,3.9053,7.8937A6.2336,6.2336,0,0,0,1287.2235,379.9521Z"/>
      <path d="M1214.1869,420.9994a18.6821,18.6821,0,1,1,23.6808-11.7159A18.7025,18.7025,0,0,1,1214.1869,420.9994Zm7.9766-23.5978a6.2274,6.2274,0,1,0,3.9053,7.8936A6.2355,6.2355,0,0,0,1222.1635,397.4016Z"/>
      <path d="M1143.3934,397.07a18.6821,18.6821,0,1,1,23.6808-11.7159A18.7025,18.7025,0,0,1,1143.3934,397.07Zm7.9766-23.5978a6.2274,6.2274,0,1,0,3.9053,7.8936A6.2355,6.2355,0,0,0,1151.37,373.4718Z"/>
      <path d="M1146.1369,680.6586C1048.5481,647.6715,995.99,541.4392,1028.9776,443.85S1168.197,293.7039,1265.7858,326.691,1415.9323,465.91,1382.9452,563.4993,1243.7258,713.6458,1146.1369,680.6586ZM1261.7975,338.49c-91.0844-30.7886-190.2325,18.2643-221.021,109.3487s18.2643,190.2325,109.3487,221.021,190.2325-18.2643,221.021-109.3487S1352.8819,369.2785,1261.7975,338.49Z"/>
      <path d="M1184.0257,568.5689a68.5012,68.5012,0,1,1,86.83-42.9584A68.5787,68.5787,0,0,1,1184.0257,568.5689Zm39.883-117.9892a56.0464,56.0464,0,1,0,35.1478,71.0425A56.1116,56.1116,0,0,0,1223.9087,450.58Z"/>
      <path d="M1079.6636,566.16a37.4051,37.4051,0,0,1-23.4318-47.3616,24.9361,24.9361,0,0,0-15.6213-31.5744l-11.7989-3.9883a6.2274,6.2274,0,0,1,3.9883-11.799l11.7989,3.9883a37.4053,37.4053,0,0,1,23.4319,47.3617,24.91,24.91,0,0,0,47.1957,15.9532,24.9361,24.9361,0,0,1,31.5744-15.6213l3.9349,1.33a6.2274,6.2274,0,0,1-3.9883,11.7989l-3.9349-1.33a12.469,12.469,0,0,0-15.7872,7.8107A37.4051,37.4051,0,0,1,1079.6636,566.16Z"/>
      <path d="M1223.0789,647.505a37.4053,37.4053,0,0,1-23.4319-47.3617,24.9341,24.9341,0,0,0-15.6213-31.5744,6.2274,6.2274,0,0,1,3.9883-11.7989,37.405,37.405,0,0,1,23.4319,47.3616,24.91,24.91,0,1,0,47.1957,15.9532,24.91,24.91,0,0,1,47.1957,15.9532,12.4408,12.4408,0,0,0,3.5018,13.2844,6.2238,6.2238,0,0,1-8.2779,9.2961,24.8546,24.8546,0,0,1-7.0228-26.5688,12.4548,12.4548,0,0,0-23.5979-7.9766A37.4051,37.4051,0,0,1,1223.0789,647.505Z"/>
    </g>
  </g>
  <g>
    <g id="color-2" data-name="color">
      <path d="M758.9516,504.7421v23.3428H551.3942V504.7421h5.8444a17.7507,17.7507,0,0,1,.5836-5.8356,18.276,18.276,0,0,1,13.5971-12.7219l22.0006-5.077a17.6367,17.6367,0,0,1-18.7326-13.4221c-2.1592-9.3955,3.9683-18.8493,13.7723-21.1252l22-5.0771c-8.7535.5836-16.8068-4.96-18.7325-13.4221-2.1593-9.3954,4.0266-18.8492,13.83-21.1252l22.1173-5.077a17.5164,17.5164,0,0,1-18.8493-13.3638c-2.2175-9.3954,3.9683-18.9076,13.7723-21.1252l7.3529-1.6923h.0584c11.7881-2.9178,24.2765-30.1705,12.6051-41.8419h17.5071a17.4836,17.4836,0,0,1,17.507,17.5071c0,9.6872-5.8357,14.7059-15.698,16.9235l16.1649-3.7349c9.804-2.2759,19.4912,3.56,21.65,12.9553a17.6389,17.6389,0,0,1-10.7377,20.1915l6.1275-1.4006c9.804-2.2759,19.55,3.5014,21.7088,12.9552a17.7018,17.7018,0,0,1-10.796,20.1332l6.1858-1.4006c9.804-2.2175,19.4912,3.56,21.65,13.0136,1.9842,8.52-2.9178,17.04-11.0878,20.3082l6.4776-1.5173c9.804-2.2759,19.4912,3.56,21.65,12.9553,2.2176,9.4538-3.9682,18.9076-13.7722,21.1835l-13.9473,3.21,12.78.1167a17.319,17.319,0,0,1,16.4567,11.6714C753.1428,500.7155,758.9516,502.7,758.9516,504.7421Z" fill="#fff"/>
      <rect x="543.408" y="528.0849" width="221.7563" height="58.3569" fill="#fcea2b"/>
      <path d="M747.6572,586.4418,724.3145,656.47c-5.0946,15.2843-13.0679,29.1785-29.1785,29.1785h-81.7c-16.1106,0-24.0839-13.8942-29.1784-29.1785l-23.3428-70.0283" fill="#fcea2b"/>
      <rect x="691.2436" y="528.0849" width="73.9207" height="58.3569" fill="#f1b31c"/>
      <path d="M697.2158,586.4418l-19.5869,76.0408c-2.1825,8.4857-4.9066,16.6236-8.5656,23.166H695.136c16.1106,0,24.0839-13.8942,29.1785-29.1785l23.3427-70.0283Z" fill="#f1b31c"/>
    </g>
    <g id="line-2" data-name="line">
      <path d="M765.1643,592.2775H543.408a5.8342,5.8342,0,0,1-5.8357-5.8357V528.0849a5.8342,5.8342,0,0,1,5.8357-5.8357H765.1643A5.8323,5.8323,0,0,1,771,528.0849v58.3569A5.8323,5.8323,0,0,1,765.1643,592.2775ZM549.2437,580.6061H759.3286V533.9206H549.2437Z"/>
      <path d="M753.4929,510.5778a5.8341,5.8341,0,0,1-5.8357-5.8357,11.6847,11.6847,0,0,0-11.6714-11.6713L722.998,492.98a5.8358,5.8358,0,0,1,.04-11.6714h.04l12.9479.0912a23.3592,23.3592,0,0,1,23.3029,23.3427A5.8341,5.8341,0,0,1,753.4929,510.5778Z"/>
      <path d="M626.23,407.9a23.6578,23.6578,0,0,1-23.2317-18.06c-2.9064-12.6089,5.2886-25.3,18.2679-28.2952l55.49-12.8111a24.3672,24.3672,0,0,1,18.0941,2.79,22.9877,22.9877,0,0,1,7.5,32.4838,24.389,24.389,0,0,1-15.0394,10.44l-55.49,12.8112A24.8134,24.8134,0,0,1,626.23,407.9Zm56.1457-47.9051a13.1358,13.1358,0,0,0-2.9406.3363l-55.49,12.8111h0c-6.5879,1.5216-10.7795,7.81-9.3491,14.0222,1.4362,6.2,7.9671,10.0016,14.5465,8.4971l55.49-12.8112a12.548,12.548,0,0,0,7.7505-5.3455,11.0959,11.0959,0,0,0-3.6416-15.7633A12.3551,12.3551,0,0,0,682.3761,359.9953Zm-59.77,7.3488h0Z"/>
      <path d="M609.1279,447.4994a24.2139,24.2139,0,0,1-12.4635-3.4393,22.994,22.994,0,0,1-7.5-32.4839,24.3966,24.3966,0,0,1,15.04-10.4375l89.6041-20.6871a24.3479,24.3479,0,0,1,18.094,2.79,22.9739,22.9739,0,0,1,7.5,32.4838,24.362,24.362,0,0,1-15.0337,10.44l-89.61,20.687A24.9775,24.9775,0,0,1,609.1279,447.4994Zm90.2994-55.7867a13.1372,13.1372,0,0,0-2.9407.3362l-89.604,20.6871h0a12.5341,12.5341,0,0,0-7.7477,5.3455,11.0876,11.0876,0,0,0,3.6387,15.7633,12.55,12.55,0,0,0,9.3064,1.41l89.61-20.687a12.5406,12.5406,0,0,0,7.7448-5.3485,11.0883,11.0883,0,0,0-3.6359-15.7632A12.4148,12.4148,0,0,0,699.4273,391.7127Zm-93.884,15.2246h0Z"/>
      <path d="M592.111,487.11a23.6578,23.6578,0,0,1-23.2317-18.06c-2.9064-12.6088,5.2886-25.3,18.2679-28.2951l123.7235-28.563a24.3262,24.3262,0,0,1,18.0941,2.79,22.9865,22.9865,0,0,1,7.5,32.4839,24.39,24.39,0,0,1-15.0395,10.44l-123.7235,28.563A24.8134,24.8134,0,0,1,592.111,487.11ZM716.49,423.45a13.1406,13.1406,0,0,0-2.9407.3391L589.8257,452.352c-6.5879,1.5216-10.7795,7.81-9.3491,14.0222,1.4362,6.2061,7.9842,10.0158,14.5465,8.4971l123.7235-28.563a12.5481,12.5481,0,0,0,7.7505-5.3456,11.1,11.1,0,0,0-3.6416-15.7661A12.37,12.37,0,0,0,716.49,423.45Z"/>
      <path d="M557.2279,510.6747a5.9463,5.9463,0,0,1-5.93-5.5308c-.8207-11.6343,7.0837-22.0377,18.795-24.7333l157.84-36.4446c12.9593-3,25.8959,4.8156,28.8194,17.4245a22.9432,22.9432,0,0,1-3.2313,17.8518,24.362,24.362,0,0,1-15.0337,10.44l-83.1985,19.2053a5.9513,5.9513,0,0,1-2.6785-11.5973l83.1985-19.2053a12.5362,12.5362,0,0,0,7.7448-5.3456,11.1338,11.1338,0,0,0,1.5957-8.6709c-1.43-6.209-7.9329-10.01-14.5379-8.5057l-157.843,36.4446c-5.8727,1.3535-9.9959,6.6392-9.6,12.2983a5.9523,5.9523,0,0,1-5.5165,6.3571C557.51,510.669,557.3675,510.6747,557.2279,510.6747Z"/>
      <path d="M661.94,364.0786a5.8354,5.8354,0,0,1-1.26-11.5318c9.768-2.1712,11.1129-6.6677,11.1129-11.204a11.6847,11.6847,0,0,0-11.6713-11.6714H642.6148a5.8357,5.8357,0,1,1,0-11.6714h17.5071a23.3677,23.3677,0,0,1,23.3427,23.3428c0,8.2549-3.5162,18.8776-20.2539,22.5962A5.8883,5.8883,0,0,1,661.94,364.0786Z"/>
      <path d="M629.9632,371.4929a5.8359,5.8359,0,0,1-1.3393-11.5147c3.6929-.8748,9.2921-7.6023,11.737-16.2219.926-3.26,2.593-11.3295-1.8721-15.7946a5.835,5.835,0,0,1,8.252-8.252c6.2232,6.2232,7.99,16.1479,4.8469,27.2323-2.8694,10.1155-10.4375,22.0633-20.2739,24.3942A5.9419,5.9419,0,0,1,629.9632,371.4929Z"/>
      <path d="M695.136,691.4843h-81.7c-23.659,0-31.9795-24.967-34.7149-33.1677l-23.3428-70.0283a5.8363,5.8363,0,0,1,11.073-3.6929l23.3428,70.0283c5.8072,17.4216,13.0989,25.1892,23.6419,25.1892h81.7c10.543,0,17.8376-7.7676,23.6448-25.1892l23.3428-70.0283a5.8336,5.8336,0,1,1,11.0673,3.6929l-23.3428,70.0283C727.1183,666.5173,718.7922,691.4843,695.136,691.4843Z"/>
    </g>
  </g>
</svg>
