<?xml version="1.0" encoding="utf-8"?>
<!-- Generator: Adobe Illustrator 16.0.0, SVG Export Plug-In . SVG Version: 6.00 Build 0)  -->
<!DOCTYPE svg PUBLIC "-//W3C//DTD SVG 1.1//EN" "http://www.w3.org/Graphics/SVG/1.1/DTD/svg11.dtd">
<svg version="1.1" id="Ebene_1" xmlns="http://www.w3.org/2000/svg" xmlns:xlink="http://www.w3.org/1999/xlink" x="0px" y="0px"
	 width="1600px" height="900px" viewBox="0 0 1600 900" enable-background="new 0 0 1600 900" xml:space="preserve">
<g>
	<defs>
		<rect id="SVGID_1_" x="-3" y="-389.264" width="1673.821" height="1589.264"/>
	</defs>
	<clipPath id="SVGID_2_">
		<use xlink:href="#SVGID_1_"  overflow="visible"/>
	</clipPath>
	<g clip-path="url(#SVGID_2_)" enable-background="new    ">
		<g>
			<defs>
				<rect id="SVGID_3_" x="-3" y="-392.207" width="1673.821" height="1595.15"/>
			</defs>
			<clipPath id="SVGID_4_">
				<use xlink:href="#SVGID_3_"  overflow="visible"/>
			</clipPath>
			<g clip-path="url(#SVGID_4_)">
				<defs>
					<rect id="SVGID_5_" x="-3" y="-389.264" width="1673.821" height="1589.264"/>
				</defs>
				<clipPath id="SVGID_6_">
					<use xlink:href="#SVGID_5_"  overflow="visible"/>
				</clipPath>
				<rect x="-3" y="-392.21" clip-path="url(#SVGID_6_)" fill="#FAEAD8" width="1673.821" height="1595.153"/>
				<rect y="909.435" clip-path="url(#SVGID_6_)" fill="#FFF7EE" width="1377.904" height="293.509"/>
			</g>
			<g clip-path="url(#SVGID_4_)">
				<defs>
					<rect id="SVGID_7_" x="-3" y="-389.264" width="1673.821" height="1589.264"/>
				</defs>
				<clipPath id="SVGID_8_">
					<use xlink:href="#SVGID_7_"  overflow="visible"/>
				</clipPath>
				<g opacity="0.2" clip-path="url(#SVGID_8_)" enable-background="new    ">
					<g>
						<defs>
							<rect id="SVGID_9_" x="968.816" y="41.897" width="359.056" height="864.966"/>
						</defs>
						<clipPath id="SVGID_10_">
							<use xlink:href="#SVGID_9_"  overflow="visible"/>
						</clipPath>
						<g clip-path="url(#SVGID_10_)">
							<defs>
								<rect id="SVGID_11_" x="966.917" y="40.884" width="362.147" height="868.042"/>
							</defs>
							<clipPath id="SVGID_12_">
								<use xlink:href="#SVGID_11_"  overflow="visible"/>
							</clipPath>
							<rect x="969.17" y="43.137" clip-path="url(#SVGID_12_)" fill="#80ADB1" width="357.643" height="863.537"/>
						</g>
					</g>
				</g>
			</g>
			<g clip-path="url(#SVGID_4_)">
				<defs>
					<rect id="SVGID_13_" x="-3" y="-389.264" width="1673.821" height="1589.264"/>
				</defs>
				<clipPath id="SVGID_14_">
					<use xlink:href="#SVGID_13_"  overflow="visible"/>
				</clipPath>
				<g opacity="0.2" clip-path="url(#SVGID_14_)" enable-background="new    ">
					<g>
						<defs>
							<rect id="SVGID_15_" x="584.745" y="41.897" width="359.056" height="864.966"/>
						</defs>
						<clipPath id="SVGID_16_">
							<use xlink:href="#SVGID_15_"  overflow="visible"/>
						</clipPath>
						<g clip-path="url(#SVGID_16_)">
							<defs>
								<rect id="SVGID_17_" x="575.887" y="33.807" width="369.989" height="875.119"/>
							</defs>
							<clipPath id="SVGID_18_">
								<use xlink:href="#SVGID_17_"  overflow="visible"/>
							</clipPath>
							<rect x="585.98" y="43.137" clip-path="url(#SVGID_18_)" fill="#80ADB1" width="357.643" height="863.537"/>
						</g>
					</g>
				</g>
				<g clip-path="url(#SVGID_14_)">
					<path fill="#1D1D1B" d="M980.535,55.194h3.731c4.035,0,6.631,2.006,6.631,6.545s-2.596,6.667-6.469,6.667h-3.894V55.194z
						 M984.084,65.995c2.251,0,3.752-1.095,3.752-4.256s-1.501-4.134-3.752-4.134h-0.568v8.39H984.084z"/>
					<path fill="#1D1D1B" d="M993.066,64.597v-6.241h2.98v5.856c0,1.438,0.386,1.904,1.258,1.904c0.75,0,1.196-0.324,1.784-1.114
						v-6.646h2.981v10.051h-2.434l-0.223-1.398h-0.062c-0.852,1.014-1.784,1.642-3.163,1.642
						C993.999,68.649,993.066,67.109,993.066,64.597z"/>
					<path fill="#1D1D1B" d="M1004.685,58.355h2.434l0.202,1.763h0.081c0.73-1.357,1.825-2.006,2.859-2.006
						c0.568,0,0.913,0.081,1.196,0.203l-0.486,2.574c-0.365-0.102-0.669-0.162-1.095-0.162c-0.751,0-1.684,0.486-2.211,1.844v5.836
						h-2.98V58.355z"/>
					<path fill="#1D1D1B" d="M1012.086,65.61c0-2.107,1.684-3.262,5.658-3.667c-0.062-0.892-0.487-1.459-1.582-1.459
						c-0.852,0-1.684,0.344-2.656,0.912l-1.075-1.965c1.277-0.771,2.718-1.317,4.299-1.317c2.576,0,3.995,1.459,3.995,4.539v5.755
						h-2.434l-0.202-1.033h-0.081c-0.852,0.75-1.785,1.276-2.921,1.276C1013.242,68.649,1012.086,67.312,1012.086,65.61z
						 M1017.744,65.488v-1.763c-2.109,0.283-2.799,0.892-2.799,1.661c0,0.648,0.446,0.953,1.156,0.953
						C1016.771,66.339,1017.217,66.015,1017.744,65.488z"/>
					<path fill="#1D1D1B" d="M1023.644,64.759v-4.073h-1.379v-2.208l1.541-0.122l0.345-2.675h2.475v2.675h2.413v2.33h-2.413v4.033
						c0,1.135,0.507,1.601,1.298,1.601c0.324,0,0.689-0.102,0.953-0.203l0.466,2.168c-0.527,0.162-1.257,0.365-2.23,0.365
						C1024.617,68.649,1023.644,67.089,1023.644,64.759z"/>
					<path fill="#1D1D1B" d="M1030.761,55.316c0-0.912,0.729-1.54,1.724-1.54c1.014,0,1.724,0.628,1.724,1.54s-0.71,1.56-1.724,1.56
						C1031.49,56.876,1030.761,56.228,1030.761,55.316z M1031.004,58.355h2.98v10.051h-2.98V58.355z"/>
					<path fill="#1D1D1B" d="M1036.013,63.381c0-3.344,2.352-5.269,4.907-5.269c2.535,0,4.887,1.925,4.887,5.269
						s-2.352,5.269-4.887,5.269C1038.364,68.649,1036.013,66.725,1036.013,63.381z M1042.766,63.381
						c0-1.743-0.629-2.857-1.846-2.857c-1.237,0-1.846,1.115-1.846,2.857s0.608,2.857,1.846,2.857
						C1042.137,66.238,1042.766,65.124,1042.766,63.381z"/>
					<path fill="#1D1D1B" d="M1047.854,58.355h2.434l0.202,1.276h0.081c0.853-0.811,1.866-1.52,3.225-1.52
						c2.19,0,3.123,1.54,3.123,4.053v6.241h-2.981V62.55c0-1.459-0.385-1.904-1.236-1.904c-0.751,0-1.217,0.344-1.866,0.973v6.788
						h-2.98V58.355z"/>
					<path fill="#1D1D1B" d="M1069.186,56.512c-0.345-0.122-0.71-0.203-1.034-0.203c-0.729,0-1.156,0.405-1.156,1.439v0.608h1.806
						v2.33h-1.806v7.721h-2.98v-7.721h-1.339v-2.208l1.339-0.101v-0.547c0-2.127,0.993-3.871,3.711-3.871
						c0.831,0,1.562,0.203,2.008,0.365L1069.186,56.512z"/>
					<path fill="#1D1D1B" d="M1070.422,58.355h2.434l0.202,1.763h0.081c0.73-1.357,1.825-2.006,2.859-2.006
						c0.568,0,0.913,0.081,1.196,0.203l-0.486,2.574c-0.365-0.102-0.669-0.162-1.095-0.162c-0.751,0-1.684,0.486-2.211,1.844v5.836
						h-2.98V58.355z"/>
					<path fill="#1D1D1B" d="M1077.296,63.381c0-3.344,2.352-5.269,4.907-5.269c2.535,0,4.887,1.925,4.887,5.269
						s-2.352,5.269-4.887,5.269C1079.647,68.649,1077.296,66.725,1077.296,63.381z M1084.049,63.381
						c0-1.743-0.629-2.857-1.846-2.857c-1.237,0-1.846,1.115-1.846,2.857s0.608,2.857,1.846,2.857
						C1083.42,66.238,1084.049,65.124,1084.049,63.381z"/>
					<path fill="#1D1D1B" d="M1089.138,58.355h2.434l0.202,1.297h0.081c0.832-0.831,1.724-1.54,3.042-1.54
						c1.42,0,2.271,0.608,2.778,1.682c0.893-0.912,1.825-1.682,3.164-1.682c2.169,0,3.143,1.54,3.143,4.053v6.241h-2.98V62.55
						c0-1.459-0.386-1.904-1.237-1.904c-0.507,0-1.075,0.324-1.724,0.973v6.788h-2.981V62.55c0-1.459-0.385-1.904-1.236-1.904
						c-0.487,0-1.075,0.324-1.704,0.973v6.788h-2.98V58.355z"/>
					<path fill="#1D1D1B" d="M1110.813,55.194h2.981v5.086h4.562v-5.086h3.001v13.212h-3.001v-5.512h-4.562v5.512h-2.981V55.194z"/>
					<path fill="#1D1D1B" d="M1123.77,65.61c0-2.107,1.684-3.262,5.658-3.667c-0.062-0.892-0.487-1.459-1.582-1.459
						c-0.852,0-1.684,0.344-2.656,0.912l-1.075-1.965c1.277-0.771,2.718-1.317,4.299-1.317c2.576,0,3.995,1.459,3.995,4.539v5.755
						h-2.434l-0.202-1.033h-0.081c-0.852,0.75-1.785,1.276-2.921,1.276C1124.926,68.649,1123.77,67.312,1123.77,65.61z
						 M1129.428,65.488v-1.763c-2.109,0.283-2.799,0.892-2.799,1.661c0,0.648,0.446,0.953,1.156,0.953
						C1128.454,66.339,1128.9,66.015,1129.428,65.488z"/>
					<path fill="#1D1D1B" d="M1134.923,58.355h2.434l0.202,1.297h0.081c0.832-0.831,1.724-1.54,3.042-1.54
						c1.42,0,2.271,0.608,2.778,1.682c0.893-0.912,1.825-1.682,3.164-1.682c2.169,0,3.143,1.54,3.143,4.053v6.241h-2.98V62.55
						c0-1.459-0.386-1.904-1.237-1.904c-0.507,0-1.075,0.324-1.724,0.973v6.788h-2.981V62.55c0-1.459-0.385-1.904-1.236-1.904
						c-0.487,0-1.075,0.324-1.704,0.973v6.788h-2.98V58.355z"/>
					<path fill="#1D1D1B" d="M1154.956,67.332h-0.081l-0.243,1.074h-2.332V54.201h2.98v3.485l-0.081,1.54
						c0.771-0.688,1.724-1.114,2.657-1.114c2.433,0,3.954,2.006,3.954,5.086c0,3.465-2.068,5.451-4.238,5.451
						C1156.68,68.649,1155.747,68.204,1154.956,67.332z M1158.748,63.259c0-1.803-0.547-2.715-1.744-2.715
						c-0.608,0-1.155,0.284-1.724,0.912v4.113c0.527,0.486,1.096,0.648,1.603,0.648
						C1157.917,66.218,1158.748,65.326,1158.748,63.259z"/>
					<path fill="#1D1D1B" d="M1163.817,64.597v-6.241h2.98v5.856c0,1.438,0.386,1.904,1.258,1.904c0.75,0,1.196-0.324,1.784-1.114
						v-6.646h2.981v10.051h-2.434l-0.223-1.398h-0.062c-0.852,1.014-1.784,1.642-3.163,1.642
						C1164.75,68.649,1163.817,67.109,1163.817,64.597z"/>
					<path fill="#1D1D1B" d="M1175.436,58.355h2.434l0.202,1.763h0.081c0.73-1.357,1.825-2.006,2.859-2.006
						c0.568,0,0.913,0.081,1.196,0.203l-0.486,2.574c-0.365-0.102-0.669-0.162-1.095-0.162c-0.751,0-1.684,0.486-2.211,1.844v5.836
						h-2.98V58.355z"/>
					<path fill="#1D1D1B" d="M1183.141,71.223l0.974-1.965c0.953,0.527,1.967,0.75,2.778,0.75c1.48,0,2.027-0.668,2.129-1.621
						l0.081-1.256c-0.669,0.607-1.562,1.013-2.494,1.013c-2.494,0-4.116-2.046-4.116-4.944c0-3.08,2.129-5.086,4.238-5.086
						c1.014,0,1.825,0.345,2.575,1.175h0.081l0.223-0.932h2.394v9.949c0,2.614-1.846,4.033-5.11,4.033
						C1185.797,72.337,1184.297,71.973,1183.141,71.223z M1189.021,64.799v-3.607c-0.527-0.486-1.115-0.648-1.663-0.648
						c-0.993,0-1.845,0.932-1.845,2.614c0,1.661,0.71,2.594,1.865,2.594C1188.028,65.752,1188.494,65.509,1189.021,64.799z"/>
					<path fill="#1D1D1B" d="M1198.937,62.773c0-3.566,0.974-6.484,2.677-9.26l1.866,0.77c-1.48,2.635-2.13,5.613-2.13,8.491
						s0.649,5.856,2.13,8.491l-1.866,0.77C1199.91,69.257,1198.937,66.339,1198.937,62.773z"/>
					<path fill="#1D1D1B" d="M1206.013,55.194h3.731c4.035,0,6.631,2.006,6.631,6.545s-2.596,6.667-6.469,6.667h-3.894V55.194z
						 M1209.562,65.995c2.251,0,3.752-1.095,3.752-4.256s-1.501-4.134-3.752-4.134h-0.567v8.39H1209.562z"/>
					<path fill="#1D1D1B" d="M1218.301,71.264c1.5-2.635,2.149-5.613,2.149-8.491s-0.649-5.856-2.149-8.491l1.865-0.77
						c1.703,2.776,2.677,5.694,2.677,9.26s-0.974,6.484-2.677,9.26L1218.301,71.264z"/>
				</g>
				<g clip-path="url(#SVGID_14_)">
					<path fill="#1D1D1B" d="M980.697,89.069v-4.073h-1.379v-2.208l1.541-0.122l0.345-2.675h2.475v2.675h2.413v2.33h-2.413v4.033
						c0,1.135,0.507,1.601,1.298,1.601c0.324,0,0.689-0.102,0.953-0.203l0.466,2.168c-0.527,0.162-1.257,0.365-2.23,0.365
						C981.671,92.96,980.697,91.399,980.697,89.069z"/>
					<path fill="#1D1D1B" d="M987.369,87.691c0-3.344,2.352-5.269,4.907-5.269c2.535,0,4.887,1.925,4.887,5.269
						s-2.352,5.269-4.887,5.269C989.721,92.96,987.369,91.035,987.369,87.691z M994.122,87.691c0-1.743-0.629-2.857-1.846-2.857
						c-1.237,0-1.846,1.115-1.846,2.857s0.608,2.857,1.846,2.857C993.493,90.549,994.122,89.434,994.122,87.691z"/>
					<path fill="#1D1D1B" d="M1003.509,79.505h2.981v10.699h5.231v2.513h-8.213V79.505z"/>
					<path fill="#1D1D1B" d="M1013.525,79.626c0-0.912,0.729-1.54,1.724-1.54c1.014,0,1.724,0.628,1.724,1.54s-0.71,1.56-1.724,1.56
						C1014.255,81.187,1013.525,80.538,1013.525,79.626z M1013.769,82.666h2.98v10.051h-2.98V82.666z"/>
					<path fill="#1D1D1B" d="M1018.473,91.562l1.339-1.864c0.912,0.689,1.743,1.054,2.596,1.054c0.892,0,1.277-0.324,1.277-0.851
						c0-0.669-1.014-0.973-2.048-1.378c-1.217-0.466-2.657-1.297-2.657-2.959c0-1.864,1.521-3.141,3.854-3.141
						c1.541,0,2.677,0.628,3.549,1.276l-1.339,1.783c-0.729-0.526-1.419-0.851-2.129-0.851c-0.771,0-1.136,0.283-1.136,0.79
						c0,0.648,0.933,0.892,1.967,1.276c1.277,0.466,2.718,1.176,2.718,3.02c0,1.824-1.44,3.242-4.137,3.242
						C1021.008,92.96,1019.486,92.393,1018.473,91.562z"/>
					<path fill="#1D1D1B" d="M1031.004,91.643h-0.081l-0.243,1.074h-2.332V78.512h2.98v3.485l-0.081,1.54
						c0.771-0.688,1.724-1.114,2.657-1.114c2.433,0,3.954,2.006,3.954,5.086c0,3.465-2.068,5.451-4.238,5.451
						C1032.728,92.96,1031.795,92.514,1031.004,91.643z M1034.796,87.57c0-1.803-0.547-2.715-1.744-2.715
						c-0.608,0-1.155,0.284-1.724,0.912v4.113c0.527,0.486,1.096,0.648,1.603,0.648C1033.965,90.528,1034.796,89.637,1034.796,87.57
						z"/>
					<path fill="#1D1D1B" d="M1039.379,87.691c0-3.344,2.352-5.269,4.907-5.269c2.535,0,4.887,1.925,4.887,5.269
						s-2.352,5.269-4.887,5.269C1041.73,92.96,1039.379,91.035,1039.379,87.691z M1046.132,87.691c0-1.743-0.629-2.857-1.846-2.857
						c-1.237,0-1.846,1.115-1.846,2.857s0.608,2.857,1.846,2.857C1045.503,90.549,1046.132,89.434,1046.132,87.691z"/>
					<path fill="#1D1D1B" d="M1050.753,89.92c0-2.107,1.684-3.262,5.658-3.667c-0.062-0.892-0.487-1.459-1.582-1.459
						c-0.852,0-1.683,0.344-2.656,0.912l-1.075-1.965c1.277-0.771,2.718-1.317,4.299-1.317c2.576,0,3.995,1.459,3.995,4.539v5.755
						h-2.434l-0.202-1.033h-0.081c-0.852,0.75-1.785,1.276-2.921,1.276C1051.909,92.96,1050.753,91.623,1050.753,89.92z
						 M1056.411,89.799v-1.763c-2.109,0.283-2.799,0.892-2.799,1.661c0,0.648,0.446,0.953,1.156,0.953
						C1055.438,90.65,1055.884,90.326,1056.411,89.799z"/>
					<path fill="#1D1D1B" d="M1066.103,87.083c0-3.566,0.974-6.484,2.677-9.26l1.866,0.77c-1.48,2.635-2.13,5.613-2.13,8.491
						s0.649,5.856,2.13,8.491l-1.866,0.77C1067.076,93.568,1066.103,90.65,1066.103,87.083z"/>
					<path fill="#1D1D1B" d="M1073.18,79.505h4.542c2.9,0,5.253,1.054,5.253,4.255c0,3.1-2.373,4.478-5.171,4.478h-1.644v4.479
						h-2.98V79.505z M1077.621,85.868c1.643,0,2.434-0.729,2.434-2.107s-0.893-1.884-2.515-1.884h-1.38v3.992H1077.621z"/>
					<path fill="#1D1D1B" d="M1084.677,95.574c1.5-2.635,2.149-5.613,2.149-8.491s-0.649-5.856-2.149-8.491l1.865-0.77
						c1.704,2.776,2.677,5.694,2.677,9.26s-0.973,6.484-2.677,9.26L1084.677,95.574z"/>
					<path fill="#1D1D1B" d="M1096.193,87.083c0-3.566,0.974-6.484,2.677-9.26l1.866,0.77c-1.48,2.635-2.13,5.613-2.13,8.491
						s0.649,5.856,2.13,8.491l-1.866,0.77C1097.167,93.568,1096.193,90.65,1096.193,87.083z"/>
					<path fill="#1D1D1B" d="M1102.784,79.626c0-0.912,0.729-1.54,1.724-1.54c1.014,0,1.724,0.628,1.724,1.54s-0.71,1.56-1.724,1.56
						C1103.514,81.187,1102.784,80.538,1102.784,79.626z M1103.027,82.666h2.98v10.051h-2.98V82.666z"/>
					<path fill="#1D1D1B" d="M1108.623,82.666h2.434l0.202,1.276h0.081c0.853-0.811,1.866-1.52,3.225-1.52
						c2.19,0,3.123,1.54,3.123,4.053v6.241h-2.981V86.86c0-1.459-0.385-1.904-1.236-1.904c-0.751,0-1.217,0.344-1.866,0.973v6.788
						h-2.98V82.666z"/>
					<path fill="#1D1D1B" d="M1123.749,87.691c0-3.283,2.048-5.269,4.178-5.269c1.115,0,1.784,0.405,2.474,1.054l-0.122-1.54v-3.425
						h2.981v14.205h-2.434l-0.203-0.993h-0.081c-0.709,0.709-1.703,1.236-2.677,1.236
						C1125.371,92.96,1123.749,90.974,1123.749,87.691z M1130.278,89.616v-4.113c-0.527-0.486-1.115-0.648-1.662-0.648
						c-0.953,0-1.806,0.892-1.806,2.796c0,1.986,0.67,2.877,1.825,2.877C1129.285,90.528,1129.792,90.285,1130.278,89.616z"/>
					<path fill="#1D1D1B" d="M1135.429,89.92c0-2.107,1.684-3.262,5.658-3.667c-0.062-0.892-0.487-1.459-1.582-1.459
						c-0.852,0-1.683,0.344-2.656,0.912l-1.075-1.965c1.277-0.771,2.718-1.317,4.299-1.317c2.576,0,3.995,1.459,3.995,4.539v5.755
						h-2.434l-0.202-1.033h-0.081c-0.852,0.75-1.785,1.276-2.921,1.276C1136.585,92.96,1135.429,91.623,1135.429,89.92z
						 M1141.087,89.799v-1.763c-2.109,0.283-2.799,0.892-2.799,1.661c0,0.648,0.446,0.953,1.156,0.953
						C1140.113,90.65,1140.56,90.326,1141.087,89.799z"/>
					<path fill="#1D1D1B" d="M1146.176,96.445l0.527-2.27c0.183,0.041,0.446,0.122,0.669,0.122c0.994,0,1.501-0.527,1.765-1.317
						l0.142-0.527l-3.873-9.787h3.001l1.44,4.316c0.284,0.912,0.527,1.864,0.791,2.857h0.081c0.223-0.953,0.446-1.905,0.689-2.857
						l1.217-4.316h2.859l-3.488,10.152c-0.953,2.533-2.028,3.83-4.4,3.83C1146.987,96.648,1146.582,96.567,1146.176,96.445z"/>
					<path fill="#1D1D1B" d="M1155.969,91.562l1.339-1.864c0.912,0.689,1.743,1.054,2.596,1.054c0.892,0,1.277-0.324,1.277-0.851
						c0-0.669-1.014-0.973-2.048-1.378c-1.217-0.466-2.657-1.297-2.657-2.959c0-1.864,1.521-3.141,3.854-3.141
						c1.541,0,2.677,0.628,3.549,1.276l-1.339,1.783c-0.729-0.526-1.419-0.851-2.129-0.851c-0.771,0-1.136,0.283-1.136,0.79
						c0,0.648,0.933,0.892,1.967,1.276c1.277,0.466,2.718,1.176,2.718,3.02c0,1.824-1.44,3.242-4.137,3.242
						C1158.504,92.96,1156.982,92.393,1155.969,91.562z"/>
					<path fill="#1D1D1B" d="M1165.5,95.574c1.5-2.635,2.149-5.613,2.149-8.491s-0.649-5.856-2.149-8.491l1.865-0.77
						c1.703,2.776,2.677,5.694,2.677,9.26s-0.974,6.484-2.677,9.26L1165.5,95.574z"/>
				</g>
				<g clip-path="url(#SVGID_14_)">
					<path fill="#1D1D1B" d="M599.92,57.707h-3.63v-2.513h10.261v2.513h-3.63v10.699h-3.001V57.707z"/>
					<path fill="#1D1D1B" d="M607.179,58.355h2.433l0.203,1.763h0.081c0.73-1.357,1.825-2.006,2.859-2.006
						c0.567,0,0.913,0.081,1.196,0.203l-0.487,2.574c-0.365-0.102-0.669-0.162-1.095-0.162c-0.75,0-1.684,0.486-2.21,1.844v5.836
						h-2.981V58.355z"/>
					<path fill="#1D1D1B" d="M614.58,65.61c0-2.107,1.683-3.262,5.658-3.667c-0.061-0.892-0.487-1.459-1.582-1.459
						c-0.852,0-1.683,0.344-2.656,0.912l-1.075-1.965c1.278-0.771,2.718-1.317,4.299-1.317c2.575,0,3.995,1.459,3.995,4.539v5.755
						h-2.434l-0.203-1.033h-0.082c-0.852,0.75-1.784,1.276-2.92,1.276C615.736,68.649,614.58,67.312,614.58,65.61z M620.238,65.488
						v-1.763c-2.109,0.283-2.799,0.892-2.799,1.661c0,0.648,0.446,0.953,1.156,0.953C619.265,66.339,619.711,66.015,620.238,65.488z
						"/>
					<path fill="#1D1D1B" d="M625.733,58.355h2.433l0.203,1.276h0.081c0.852-0.811,1.866-1.52,3.224-1.52
						c2.19,0,3.123,1.54,3.123,4.053v6.241h-2.981V62.55c0-1.459-0.385-1.904-1.237-1.904c-0.75,0-1.216,0.344-1.865,0.973v6.788
						h-2.981V58.355z"/>
					<path fill="#1D1D1B" d="M636.438,67.251l1.338-1.864c0.913,0.689,1.744,1.054,2.596,1.054c0.893,0,1.278-0.324,1.278-0.851
						c0-0.669-1.014-0.973-2.048-1.378c-1.217-0.466-2.657-1.297-2.657-2.959c0-1.864,1.521-3.141,3.853-3.141
						c1.542,0,2.677,0.628,3.549,1.276l-1.338,1.783c-0.73-0.526-1.419-0.851-2.129-0.851c-0.771,0-1.136,0.283-1.136,0.79
						c0,0.648,0.933,0.892,1.967,1.276c1.278,0.466,2.717,1.176,2.717,3.02c0,1.824-1.439,3.242-4.137,3.242
						C638.974,68.649,637.453,68.082,636.438,67.251z"/>
					<path fill="#1D1D1B" d="M646.313,58.355h2.433l0.203,0.993h0.081c0.791-0.709,1.805-1.236,2.859-1.236
						c2.433,0,3.934,2.006,3.934,5.106c0,3.445-2.068,5.431-4.238,5.431c-0.872,0-1.683-0.385-2.393-1.054l0.102,1.601v2.938h-2.981
						V58.355z M652.762,63.259c0-1.803-0.547-2.715-1.744-2.715c-0.608,0-1.136,0.284-1.724,0.912v4.113
						c0.527,0.486,1.095,0.648,1.602,0.648C651.931,66.218,652.762,65.326,652.762,63.259z"/>
					<path fill="#1D1D1B" d="M657.344,63.381c0-3.344,2.353-5.269,4.908-5.269c2.535,0,4.887,1.925,4.887,5.269
						s-2.353,5.269-4.887,5.269C659.696,68.649,657.344,66.725,657.344,63.381z M664.097,63.381c0-1.743-0.628-2.857-1.845-2.857
						c-1.237,0-1.846,1.115-1.846,2.857s0.608,2.857,1.846,2.857C663.468,66.238,664.097,65.124,664.097,63.381z"/>
					<path fill="#1D1D1B" d="M669.186,58.355h2.433l0.203,1.763h0.081c0.73-1.357,1.825-2.006,2.859-2.006
						c0.568,0,0.913,0.081,1.196,0.203l-0.487,2.574c-0.365-0.102-0.669-0.162-1.095-0.162c-0.75,0-1.684,0.486-2.21,1.844v5.836
						h-2.981V58.355z"/>
					<path fill="#1D1D1B" d="M677.661,64.759v-4.073h-1.379v-2.208l1.541-0.122l0.345-2.675h2.474v2.675h2.413v2.33h-2.413v4.033
						c0,1.135,0.507,1.601,1.298,1.601c0.325,0,0.689-0.102,0.953-0.203l0.466,2.168c-0.527,0.162-1.257,0.365-2.23,0.365
						C678.635,68.649,677.661,67.089,677.661,64.759z"/>
					<path fill="#1D1D1B" d="M684.332,63.381c0-3.263,2.332-5.269,4.745-5.269c2.859,0,4.279,2.087,4.279,4.823
						c0,0.527-0.061,1.074-0.122,1.317h-6.022c0.263,1.459,1.277,2.128,2.616,2.128c0.75,0,1.44-0.223,2.17-0.669l0.994,1.804
						c-1.034,0.709-2.373,1.135-3.569,1.135C686.542,68.649,684.332,66.704,684.332,63.381z M690.821,62.287
						c0-1.115-0.487-1.905-1.683-1.905c-0.933,0-1.744,0.628-1.947,1.905H690.821z"/>
					<path fill="#1D1D1B" d="M694.896,63.381c0-3.283,2.048-5.269,4.177-5.269c1.115,0,1.785,0.405,2.474,1.054l-0.122-1.54v-3.425
						h2.981v14.205h-2.434l-0.203-0.993h-0.081c-0.71,0.709-1.704,1.236-2.677,1.236C696.519,68.649,694.896,66.664,694.896,63.381z
						 M701.426,65.306v-4.113c-0.527-0.486-1.115-0.648-1.663-0.648c-0.953,0-1.805,0.892-1.805,2.796
						c0,1.986,0.669,2.877,1.825,2.877C700.433,66.218,700.939,65.975,701.426,65.306z"/>
					<path fill="#1D1D1B" d="M711.32,71.223l0.974-1.965c0.953,0.527,1.967,0.75,2.778,0.75c1.48,0,2.028-0.668,2.129-1.621
						l0.082-1.256c-0.669,0.607-1.562,1.013-2.495,1.013c-2.494,0-4.117-2.046-4.117-4.944c0-3.08,2.129-5.086,4.238-5.086
						c1.014,0,1.825,0.345,2.576,1.175h0.081l0.223-0.932h2.393v9.949c0,2.614-1.846,4.033-5.11,4.033
						C713.977,72.337,712.477,71.973,711.32,71.223z M717.201,64.799v-3.607c-0.527-0.486-1.115-0.648-1.663-0.648
						c-0.994,0-1.845,0.932-1.845,2.614c0,1.661,0.709,2.594,1.865,2.594C716.208,65.752,716.674,65.509,717.201,64.799z"/>
					<path fill="#1D1D1B" d="M722.331,63.381c0-3.344,2.353-5.269,4.908-5.269c2.535,0,4.887,1.925,4.887,5.269
						s-2.353,5.269-4.887,5.269C724.683,68.649,722.331,66.725,722.331,63.381z M729.083,63.381c0-1.743-0.628-2.857-1.845-2.857
						c-1.237,0-1.846,1.115-1.846,2.857s0.608,2.857,1.846,2.857C728.455,66.238,729.083,65.124,729.083,63.381z"/>
					<path fill="#1D1D1B" d="M733.584,63.381c0-3.344,2.353-5.269,4.908-5.269c2.535,0,4.887,1.925,4.887,5.269
						s-2.353,5.269-4.887,5.269C735.937,68.649,733.584,66.725,733.584,63.381z M740.337,63.381c0-1.743-0.628-2.857-1.845-2.857
						c-1.237,0-1.846,1.115-1.846,2.857s0.608,2.857,1.846,2.857C739.708,66.238,740.337,65.124,740.337,63.381z"/>
					<path fill="#1D1D1B" d="M744.898,63.381c0-3.283,2.048-5.269,4.177-5.269c1.115,0,1.785,0.405,2.474,1.054l-0.122-1.54v-3.425
						h2.981v14.205h-2.434l-0.203-0.993h-0.081c-0.71,0.709-1.704,1.236-2.677,1.236C746.521,68.649,744.898,66.664,744.898,63.381z
						 M751.428,65.306v-4.113c-0.527-0.486-1.115-0.648-1.663-0.648c-0.953,0-1.805,0.892-1.805,2.796
						c0,1.986,0.669,2.877,1.825,2.877C750.435,66.218,750.941,65.975,751.428,65.306z"/>
					<path fill="#1D1D1B" d="M756.152,67.251l1.338-1.864c0.913,0.689,1.744,1.054,2.596,1.054c0.893,0,1.278-0.324,1.278-0.851
						c0-0.669-1.014-0.973-2.048-1.378c-1.217-0.466-2.657-1.297-2.657-2.959c0-1.864,1.521-3.141,3.853-3.141
						c1.542,0,2.677,0.628,3.549,1.276l-1.338,1.783c-0.73-0.526-1.419-0.851-2.129-0.851c-0.771,0-1.135,0.283-1.135,0.79
						c0,0.648,0.933,0.892,1.967,1.276c1.278,0.466,2.717,1.176,2.717,3.02c0,1.824-1.439,3.242-4.137,3.242
						C758.687,68.649,757.166,68.082,756.152,67.251z"/>
				</g>
				<path clip-path="url(#SVGID_14_)" fill="#FFF7EE" d="M1148.664,653.509c28.736,0,52.035-23.276,52.035-51.987
					c0-28.714-23.299-51.985-52.035-51.985c-28.738,0-52.035,23.271-52.035,51.985
					C1096.629,630.232,1119.926,653.509,1148.664,653.509"/>
				<path clip-path="url(#SVGID_14_)" fill="#FFF7EE" d="M1148.318,849.694c27.916,0,50.55-22.612,50.55-50.501
					c0-27.892-22.634-50.502-50.55-50.502s-50.551,22.61-50.551,50.502C1097.768,827.082,1120.402,849.694,1148.318,849.694"/>
				<path clip-path="url(#SVGID_14_)" fill="#FFF7EE" d="M1147.337,454.817c28.745,0,52.046-23.284,52.046-52.005
					c0-28.716-23.301-52.001-52.046-52.001c-28.748,0-52.051,23.285-52.051,52.001
					C1095.286,431.534,1118.589,454.817,1147.337,454.817"/>
				<path clip-path="url(#SVGID_14_)" fill="#FFF7EE" d="M1148.085,153.154c-28.699-0.25-52.166,22.789-52.416,51.463
					c-0.251,28.672,22.811,52.118,51.51,52.368c28.699,0.25,52.167-22.79,52.417-51.461
					C1199.848,176.847,1176.785,153.403,1148.085,153.154"/>
				
					<path clip-path="url(#SVGID_14_)" fill="none" stroke="#E0B565" stroke-width="4.504" stroke-linecap="round" stroke-linejoin="round" d="
					M1192.371,576.162c-0.038-0.064-0.063-0.131-0.103-0.192c-9.468-16.329-26.681-25.416-44.347-25.347"/>
				
					<path clip-path="url(#SVGID_14_)" fill="none" stroke="#E0B565" stroke-width="4.504" stroke-linecap="round" stroke-linejoin="round" d="
					M1192.402,377.506c-0.034-0.058-0.063-0.121-0.098-0.179c-9.34-16.463-26.469-25.758-44.164-25.929"/>
				
					<path clip-path="url(#SVGID_14_)" fill="none" stroke="#E0B565" stroke-width="4.504" stroke-linecap="round" stroke-linejoin="round" d="
					M1157.471,153.525c-0.064-0.013-0.131-0.03-0.196-0.044c-3.129-0.613-6.245-0.906-9.322-0.928"/>
				
					<ellipse clip-path="url(#SVGID_14_)" fill="none" stroke="#E0B565" stroke-width="4.504" stroke-linecap="round" stroke-linejoin="round" cx="1148.163" cy="798.89" rx="49.317" ry="49.271"/>
				<g clip-path="url(#SVGID_14_)">
					<path fill="#3D4754" d="M1120.146,207.816c0-9.633,3.47-14.81,9.237-14.81c5.723,0,9.192,5.177,9.192,14.81
						s-3.47,14.989-9.192,14.989C1123.616,222.806,1120.146,217.449,1120.146,207.816z M1134.971,207.816
						c0-8.417-2.253-11.839-5.587-11.839c-3.38,0-5.633,3.421-5.633,11.839s2.253,12.019,5.633,12.019
						C1132.718,219.835,1134.971,216.234,1134.971,207.816z"/>
					<path fill="#3D4754" d="M1142.677,227.757c2.522-1.125,4.055-3.061,4.055-5.492c-0.135,0.045-0.315,0.045-0.45,0.045
						c-1.442,0-2.658-0.9-2.658-2.565c0-1.621,1.262-2.611,2.748-2.611c1.938,0,3.109,1.666,3.109,4.366
						c0,3.871-2.253,6.887-5.903,8.417L1142.677,227.757z"/>
					<path fill="#3D4754" d="M1153.581,220.06c8.651-8.598,13.518-13.774,13.518-18.411c0-3.286-1.803-5.626-5.452-5.626
						c-2.389,0-4.461,1.53-6.128,3.466l-2.118-2.116c2.389-2.611,4.957-4.366,8.696-4.366c5.317,0,8.606,3.376,8.606,8.462
						c0,5.402-4.911,10.758-11.715,17.871c1.576-0.135,3.334-0.27,4.821-0.27h8.336v3.196h-18.564V220.06z"/>
				</g>
				<g clip-path="url(#SVGID_14_)">
					<path fill="#3D4754" d="M1121.426,416.953h6.579v-21.156h-5.228v-2.386c2.613-0.45,4.506-1.17,6.083-2.116h2.839v25.658h5.948
						v3.061h-16.222V416.953z"/>
					<path fill="#3D4754" d="M1142.379,425.505c2.522-1.125,4.055-3.061,4.055-5.492c-0.135,0.045-0.315,0.045-0.45,0.045
						c-1.442,0-2.658-0.9-2.658-2.565c0-1.621,1.261-2.611,2.748-2.611c1.938,0,3.109,1.666,3.109,4.366
						c0,3.871-2.253,6.887-5.903,8.417L1142.379,425.505z"/>
					<path fill="#3D4754" d="M1153.328,412.676c0-3.736,2.703-6.302,5.407-7.742v-0.18c-2.118-1.485-4.011-3.601-4.011-6.617
						c0-4.412,3.515-7.382,8.156-7.382c5.001,0,8.11,3.196,8.11,7.652c0,3.016-2.208,5.582-3.965,6.932v0.18
						c2.568,1.485,5.001,3.511,5.001,7.382c0,4.276-3.694,7.652-9.282,7.652C1157.338,420.554,1153.328,417.223,1153.328,412.676z
						 M1168.468,412.767c0-3.691-3.649-5.042-7.795-6.707c-2.298,1.53-4.011,3.646-4.011,6.257c0,3.196,2.658,5.492,6.173,5.492
						C1166.17,417.808,1168.468,415.737,1168.468,412.767z M1167.792,398.587c0-2.836-1.848-5.086-5.002-5.086
						c-2.658,0-4.641,1.845-4.641,4.636c0,3.421,3.154,4.861,6.623,6.212C1166.711,402.639,1167.792,400.703,1167.792,398.587z"/>
				</g>
				<g clip-path="url(#SVGID_14_)">
					<path fill="#3D4754" d="M1139.304,616.514c8.651-8.598,13.518-13.773,13.518-18.41c0-3.286-1.803-5.627-5.452-5.627
						c-2.389,0-4.461,1.531-6.128,3.467l-2.118-2.116c2.389-2.61,4.957-4.366,8.696-4.366c5.317,0,8.606,3.376,8.606,8.463
						c0,5.401-4.911,10.758-11.715,17.87c1.576-0.135,3.334-0.271,4.821-0.271h8.336v3.196h-18.564V616.514z"/>
				</g>
				<g clip-path="url(#SVGID_14_)">
					<path fill="#3D4754" d="M1128.202,813.998h6.579v-21.156h-5.228v-2.386c2.613-0.45,4.506-1.171,6.083-2.116h2.839v25.658h5.948
						v3.061h-16.222V813.998z"/>
					<path fill="#3D4754" d="M1148.84,814.853c8.651-8.597,13.518-13.773,13.518-18.41c0-3.286-1.803-5.627-5.452-5.627
						c-2.389,0-4.461,1.531-6.128,3.467l-2.118-2.116c2.389-2.61,4.957-4.366,8.696-4.366c5.317,0,8.606,3.376,8.606,8.463
						c0,5.401-4.911,10.758-11.716,17.87c1.577-0.135,3.335-0.271,4.822-0.271h8.336v3.196h-18.564V814.853z"/>
				</g>
				<g clip-path="url(#SVGID_14_)">
					<path fill="#1D1D1B" d="M752.644,838.81c0-2.569,1.72-4.035,3.692-4.035c1.01,0,1.704,0.41,2.24,0.898l-0.663,0.852
						c-0.442-0.395-0.915-0.678-1.531-0.678c-1.388,0-2.398,1.197-2.398,2.963c0,1.75,0.962,2.932,2.367,2.932
						c0.71,0,1.325-0.347,1.798-0.772l0.568,0.867c-0.694,0.614-1.562,0.978-2.477,0.978
						C754.206,842.813,752.644,841.348,752.644,838.81z"/>
					<path fill="#1D1D1B" d="M759.614,838.81c0-2.569,1.673-4.035,3.55-4.035s3.55,1.466,3.55,4.035c0,2.538-1.672,4.004-3.55,4.004
						S759.614,841.348,759.614,838.81z M765.373,838.81c0-1.766-0.883-2.963-2.208-2.963c-1.31,0-2.209,1.197-2.209,2.963
						c0,1.75,0.899,2.932,2.209,2.932C764.49,841.741,765.373,840.56,765.373,838.81z"/>
					<path fill="#1D1D1B" d="M768.257,840.638c0-1.671,1.436-2.506,4.702-2.868c0-0.978-0.315-1.923-1.578-1.923
						c-0.883,0-1.688,0.409-2.288,0.819l-0.505-0.898c0.71-0.457,1.783-0.993,3.013-0.993c1.878,0,2.667,1.245,2.667,3.152v4.697
						h-1.073l-0.11-0.914h-0.047c-0.726,0.599-1.578,1.104-2.54,1.104C769.219,842.813,768.257,842.01,768.257,840.638z
						 M772.958,840.748v-2.128c-2.556,0.315-3.439,0.946-3.439,1.923c0,0.867,0.6,1.229,1.357,1.229
						C771.618,841.772,772.217,841.41,772.958,840.748z"/>
					<path fill="#1D1D1B" d="M776.679,841.079v-9.678h1.293v9.772c0,0.41,0.174,0.567,0.363,0.567c0.079,0,0.142,0,0.284-0.031
						l0.173,0.978c-0.173,0.078-0.394,0.126-0.741,0.126C777.073,842.813,776.679,842.198,776.679,841.079z"/>
				</g>
				<g clip-path="url(#SVGID_14_)">
					<path fill="#1D1D1B" d="M650.469,834.964h1.073l0.11,1.387h0.047c0.521-0.962,1.31-1.576,2.177-1.576
						c0.332,0,0.568,0.047,0.82,0.157l-0.252,1.135c-0.252-0.078-0.426-0.126-0.741-0.126c-0.647,0-1.42,0.474-1.941,1.766v4.918
						h-1.293V834.964z"/>
					<path fill="#1D1D1B" d="M655.705,832.552c0-0.504,0.395-0.835,0.899-0.835s0.899,0.331,0.899,0.835
						c0,0.489-0.395,0.836-0.899,0.836S655.705,833.041,655.705,832.552z M655.941,834.964h1.293v7.66h-1.293V834.964z"/>
					<path fill="#1D1D1B" d="M659.252,838.81c0-2.569,1.72-4.035,3.692-4.035c1.01,0,1.704,0.41,2.241,0.898l-0.663,0.852
						c-0.442-0.395-0.915-0.678-1.531-0.678c-1.388,0-2.398,1.197-2.398,2.963c0,1.75,0.962,2.932,2.367,2.932
						c0.71,0,1.325-0.347,1.798-0.772l0.568,0.867c-0.694,0.614-1.562,0.978-2.477,0.978
						C660.814,842.813,659.252,841.348,659.252,838.81z"/>
					<path fill="#1D1D1B" d="M666.223,838.81c0-2.506,1.688-4.035,3.44-4.035c1.956,0,3.061,1.402,3.061,3.594
						c0,0.268-0.016,0.552-0.047,0.741h-5.175c0.095,1.623,1.088,2.663,2.556,2.663c0.726,0,1.341-0.236,1.909-0.599l0.458,0.852
						c-0.663,0.425-1.483,0.788-2.524,0.788C667.849,842.813,666.223,841.315,666.223,838.81z M671.588,838.179
						c0-1.544-0.694-2.38-1.894-2.38c-1.073,0-2.051,0.867-2.209,2.38H671.588z"/>
				</g>
				<g clip-path="url(#SVGID_14_)">
					<path fill="#1D1D1B" d="M861.737,838.81c0-2.569,1.673-4.035,3.55-4.035c1.878,0,3.551,1.466,3.551,4.035
						c0,2.538-1.673,4.004-3.551,4.004C863.41,842.813,861.737,841.348,861.737,838.81z M867.496,838.81
						c0-1.766-0.883-2.963-2.209-2.963c-1.309,0-2.209,1.197-2.209,2.963c0,1.75,0.9,2.932,2.209,2.932
						C866.613,841.741,867.496,840.56,867.496,838.81z"/>
					<path fill="#1D1D1B" d="M870.617,832.552c0-0.504,0.395-0.835,0.898-0.835c0.506,0,0.9,0.331,0.9,0.835
						c0,0.489-0.395,0.836-0.9,0.836C871.012,833.388,870.617,833.041,870.617,832.552z M870.854,834.964h1.293v7.66h-1.293V834.964
						z"/>
					<path fill="#1D1D1B" d="M874.732,841.079v-9.678h1.294v9.772c0,0.41,0.174,0.567,0.362,0.567c0.08,0,0.143,0,0.285-0.031
						l0.173,0.978c-0.173,0.078-0.394,0.126-0.741,0.126C875.127,842.813,874.732,842.198,874.732,841.079z"/>
				</g>
				<g clip-path="url(#SVGID_14_)">
					<path fill="#1D1D1B" d="M641.763,440.94h1.326l1.136,4.429c0.174,0.725,0.316,1.419,0.458,2.128h0.063
						c0.173-0.709,0.331-1.418,0.521-2.128l1.183-4.429h1.262l1.199,4.429c0.189,0.725,0.363,1.419,0.537,2.128h0.063
						c0.173-0.709,0.315-1.403,0.473-2.128l1.121-4.429h1.23l-2.051,7.661h-1.578l-1.104-4.114
						c-0.189-0.725-0.331-1.435-0.521-2.207h-0.063c-0.174,0.772-0.332,1.498-0.537,2.223l-1.073,4.098h-1.515L641.763,440.94z"/>
					<path fill="#1D1D1B" d="M653.275,444.786c0-2.569,1.673-4.035,3.55-4.035s3.55,1.466,3.55,4.035
						c0,2.538-1.672,4.003-3.55,4.003S653.275,447.324,653.275,444.786z M659.034,444.786c0-1.766-0.883-2.963-2.208-2.963
						c-1.31,0-2.209,1.198-2.209,2.963c0,1.75,0.899,2.932,2.209,2.932C658.151,447.718,659.034,446.536,659.034,444.786z"/>
					<path fill="#1D1D1B" d="M661.823,444.786c0-2.569,1.673-4.035,3.55-4.035s3.55,1.466,3.55,4.035
						c0,2.538-1.672,4.003-3.55,4.003S661.823,447.324,661.823,444.786z M667.582,444.786c0-1.766-0.883-2.963-2.208-2.963
						c-1.31,0-2.209,1.198-2.209,2.963c0,1.75,0.899,2.932,2.209,2.932C666.699,447.718,667.582,446.536,667.582,444.786z"/>
					<path fill="#1D1D1B" d="M670.387,444.786c0-2.49,1.578-4.035,3.329-4.035c0.883,0,1.467,0.331,2.146,0.883l-0.063-1.309v-2.947
						h1.31v11.223h-1.073l-0.111-0.898h-0.047c-0.599,0.583-1.42,1.087-2.319,1.087C671.633,448.79,670.387,447.34,670.387,444.786z
						 M675.799,446.646v-4.003c-0.647-0.583-1.23-0.804-1.862-0.804c-1.23,0-2.209,1.182-2.209,2.932
						c0,1.828,0.773,2.932,2.114,2.932C674.552,447.702,675.167,447.355,675.799,446.646z"/>
				</g>
				<g clip-path="url(#SVGID_14_)">
					<path fill="#1D1D1B" d="M854.949,444.786c0-2.569,1.72-4.035,3.692-4.035c1.01,0,1.704,0.41,2.24,0.898l-0.663,0.851
						c-0.441-0.394-0.914-0.678-1.53-0.678c-1.388,0-2.397,1.198-2.397,2.963c0,1.75,0.962,2.932,2.366,2.932
						c0.71,0,1.325-0.347,1.798-0.772l0.568,0.867c-0.693,0.615-1.562,0.977-2.477,0.977
						C856.512,448.79,854.949,447.324,854.949,444.786z"/>
					<path fill="#1D1D1B" d="M861.92,444.786c0-2.569,1.673-4.035,3.551-4.035c1.877,0,3.549,1.466,3.549,4.035
						c0,2.538-1.672,4.003-3.549,4.003C863.593,448.79,861.92,447.324,861.92,444.786z M867.679,444.786
						c0-1.766-0.884-2.963-2.208-2.963c-1.311,0-2.209,1.198-2.209,2.963c0,1.75,0.898,2.932,2.209,2.932
						C866.795,447.718,867.679,446.536,867.679,444.786z"/>
					<path fill="#1D1D1B" d="M870.562,446.615c0-1.671,1.436-2.506,4.701-2.869c0-0.977-0.314-1.923-1.577-1.923
						c-0.884,0-1.688,0.41-2.288,0.82l-0.504-0.898c0.709-0.457,1.782-0.993,3.013-0.993c1.878,0,2.667,1.245,2.667,3.152v4.697
						h-1.073l-0.11-0.914h-0.047c-0.727,0.599-1.578,1.103-2.541,1.103C871.525,448.79,870.562,447.986,870.562,446.615z
						 M875.264,446.725v-2.128c-2.555,0.315-3.439,0.945-3.439,1.923c0,0.867,0.6,1.229,1.357,1.229
						C873.924,447.75,874.523,447.387,875.264,446.725z"/>
					<path fill="#1D1D1B" d="M878.984,447.056v-9.678h1.294v9.772c0,0.41,0.174,0.567,0.362,0.567c0.08,0,0.143,0,0.285-0.031
						l0.173,0.977c-0.173,0.079-0.394,0.126-0.741,0.126C879.379,448.79,878.984,448.175,878.984,447.056z"/>
				</g>
				<g clip-path="url(#SVGID_14_)">
					<path fill="#1D1D1B" d="M727.978,446.615c0-1.671,1.436-2.506,4.702-2.869c0-0.977-0.315-1.923-1.578-1.923
						c-0.883,0-1.688,0.41-2.288,0.82l-0.505-0.898c0.71-0.457,1.783-0.993,3.013-0.993c1.878,0,2.667,1.245,2.667,3.152v4.697
						h-1.073l-0.11-0.914h-0.047c-0.726,0.599-1.578,1.103-2.54,1.103C728.94,448.79,727.978,447.986,727.978,446.615z
						 M732.679,446.725v-2.128c-2.556,0.315-3.439,0.945-3.439,1.923c0,0.867,0.6,1.229,1.357,1.229
						C731.338,447.75,731.938,447.387,732.679,446.725z"/>
					<path fill="#1D1D1B" d="M736.289,445.795v-4.855h1.31v4.682c0,1.434,0.426,2.049,1.436,2.049c0.789,0,1.341-0.394,2.067-1.292
						v-5.438h1.293v7.661h-1.073l-0.11-1.198h-0.047c-0.71,0.835-1.467,1.387-2.524,1.387
						C737.015,448.79,736.289,447.75,736.289,445.795z"/>
					<path fill="#1D1D1B" d="M745.2,446.236v-4.24h-1.136v-0.977l1.199-0.079l0.158-2.144h1.089v2.144h2.067v1.056h-2.067v4.256
						c0,0.946,0.3,1.482,1.183,1.482c0.269,0,0.616-0.11,0.868-0.205l0.252,0.977c-0.426,0.142-0.947,0.284-1.42,0.284
						C745.752,448.79,745.2,447.75,745.2,446.236z"/>
					<path fill="#1D1D1B" d="M749.678,444.786c0-2.569,1.672-4.035,3.55-4.035c1.877,0,3.55,1.466,3.55,4.035
						c0,2.538-1.672,4.003-3.55,4.003C751.351,448.79,749.678,447.324,749.678,444.786z M755.437,444.786
						c0-1.766-0.883-2.963-2.208-2.963c-1.31,0-2.209,1.198-2.209,2.963c0,1.75,0.899,2.932,2.209,2.932
						C754.554,447.718,755.437,446.536,755.437,444.786z"/>
					<path fill="#1D1D1B" d="M758.794,440.94h1.073l0.11,1.104h0.047c0.663-0.725,1.467-1.292,2.382-1.292
						c1.167,0,1.799,0.552,2.114,1.466c0.805-0.867,1.594-1.466,2.524-1.466c1.578,0,2.335,1.04,2.335,2.995v4.855h-1.293v-4.682
						c0-1.434-0.458-2.049-1.42-2.049c-0.6,0-1.215,0.394-1.925,1.182v5.548h-1.293v-4.682c0-1.434-0.458-2.049-1.436-2.049
						c-0.568,0-1.215,0.394-1.925,1.182v5.548h-1.293V440.94z"/>
					<path fill="#1D1D1B" d="M771.3,444.786c0-2.569,1.672-4.035,3.55-4.035c1.877,0,3.55,1.466,3.55,4.035
						c0,2.538-1.672,4.003-3.55,4.003C772.973,448.79,771.3,447.324,771.3,444.786z M777.059,444.786
						c0-1.766-0.883-2.963-2.208-2.963c-1.31,0-2.209,1.198-2.209,2.963c0,1.75,0.899,2.932,2.209,2.932
						C776.176,447.718,777.059,446.536,777.059,444.786z"/>
					<path fill="#1D1D1B" d="M781.615,447.812h-0.047l-0.11,0.788h-1.041v-11.223h1.293v3.058l-0.031,1.387
						c0.694-0.615,1.546-1.072,2.398-1.072c1.988,0,3.045,1.529,3.045,3.893c0,2.617-1.562,4.146-3.313,4.146
						C783.099,448.79,782.294,448.427,781.615,447.812z M785.781,444.66c0-1.687-0.568-2.822-2.02-2.822
						c-0.647,0-1.325,0.363-2.051,1.041v4.02c0.679,0.583,1.373,0.804,1.877,0.804C784.85,447.702,785.781,446.551,785.781,444.66z"
						/>
					<path fill="#1D1D1B" d="M788.901,438.528c0-0.504,0.395-0.835,0.899-0.835s0.899,0.331,0.899,0.835
						c0,0.489-0.395,0.835-0.899,0.835S788.901,439.017,788.901,438.528z M789.138,440.94h1.293v7.661h-1.293V440.94z"/>
					<path fill="#1D1D1B" d="M793.017,447.056v-9.678h1.293v9.772c0,0.41,0.174,0.567,0.363,0.567c0.079,0,0.142,0,0.284-0.031
						l0.173,0.977c-0.173,0.079-0.394,0.126-0.741,0.126C793.411,448.79,793.017,448.175,793.017,447.056z"/>
					<path fill="#1D1D1B" d="M796.328,444.786c0-2.506,1.688-4.035,3.439-4.035c1.957,0,3.061,1.403,3.061,3.594
						c0,0.268-0.016,0.552-0.047,0.741h-5.175c0.095,1.624,1.088,2.664,2.556,2.664c0.726,0,1.342-0.236,1.909-0.599l0.458,0.851
						c-0.663,0.426-1.483,0.788-2.525,0.788C797.954,448.79,796.328,447.292,796.328,444.786z M801.693,444.156
						c0-1.545-0.695-2.38-1.894-2.38c-1.073,0-2.051,0.867-2.209,2.38H801.693z"/>
				</g>
				<g clip-path="url(#SVGID_14_)">
					<path fill="#1D1D1B" d="M641.744,639.914h1.325l1.136,4.429c0.174,0.726,0.315,1.419,0.458,2.128h0.063
						c0.173-0.709,0.331-1.418,0.521-2.128l1.183-4.429h1.262l1.199,4.429c0.189,0.726,0.363,1.419,0.537,2.128h0.063
						c0.173-0.709,0.315-1.402,0.473-2.128l1.12-4.429h1.231l-2.051,7.66h-1.578l-1.104-4.114c-0.189-0.725-0.331-1.435-0.521-2.206
						h-0.063c-0.174,0.771-0.332,1.497-0.537,2.222l-1.073,4.099h-1.515L641.744,639.914z"/>
					<path fill="#1D1D1B" d="M653.272,643.76c0-2.569,1.672-4.035,3.55-4.035c1.877,0,3.55,1.466,3.55,4.035
						c0,2.538-1.672,4.004-3.55,4.004C654.944,647.764,653.272,646.298,653.272,643.76z M659.031,643.76
						c0-1.766-0.883-2.963-2.208-2.963c-1.31,0-2.209,1.197-2.209,2.963c0,1.75,0.899,2.932,2.209,2.932
						C658.147,646.691,659.031,645.51,659.031,643.76z"/>
					<path fill="#1D1D1B" d="M661.82,643.76c0-2.569,1.672-4.035,3.55-4.035c1.877,0,3.55,1.466,3.55,4.035
						c0,2.538-1.672,4.004-3.55,4.004C663.492,647.764,661.82,646.298,661.82,643.76z M667.579,643.76
						c0-1.766-0.883-2.963-2.208-2.963c-1.31,0-2.209,1.197-2.209,2.963c0,1.75,0.899,2.932,2.209,2.932
						C666.695,646.691,667.579,645.51,667.579,643.76z"/>
					<path fill="#1D1D1B" d="M670.384,643.76c0-2.49,1.578-4.035,3.329-4.035c0.883,0,1.467,0.331,2.146,0.883l-0.063-1.309v-2.947
						h1.31v11.223h-1.073l-0.111-0.898h-0.047c-0.599,0.583-1.42,1.088-2.319,1.088C671.63,647.764,670.384,646.313,670.384,643.76z
						 M675.795,645.62v-4.004c-0.647-0.583-1.231-0.804-1.862-0.804c-1.23,0-2.209,1.182-2.209,2.932
						c0,1.828,0.773,2.932,2.114,2.932C674.549,646.676,675.164,646.329,675.795,645.62z"/>
				</g>
				<g clip-path="url(#SVGID_14_)">
					<path fill="#1D1D1B" d="M858.349,637.407c-0.284-0.126-0.584-0.188-0.868-0.188c-0.726,0-1.072,0.504-1.072,1.481v1.214h1.625
						v1.056h-1.625v6.604h-1.294v-6.604h-1.042v-0.978l1.042-0.078V638.7c0-1.561,0.71-2.538,2.24-2.538
						c0.474,0,0.931,0.11,1.278,0.252L858.349,637.407z"/>
					<path fill="#1D1D1B" d="M858.693,643.76c0-2.569,1.673-4.035,3.551-4.035c1.877,0,3.55,1.466,3.55,4.035
						c0,2.538-1.673,4.004-3.55,4.004C860.366,647.764,858.693,646.298,858.693,643.76z M864.453,643.76
						c0-1.766-0.884-2.963-2.209-2.963c-1.31,0-2.209,1.197-2.209,2.963c0,1.75,0.899,2.932,2.209,2.932
						C863.569,646.691,864.453,645.51,864.453,643.76z"/>
					<path fill="#1D1D1B" d="M867.242,643.76c0-2.569,1.672-4.035,3.55-4.035s3.55,1.466,3.55,4.035c0,2.538-1.672,4.004-3.55,4.004
						S867.242,646.298,867.242,643.76z M873,643.76c0-1.766-0.883-2.963-2.208-2.963c-1.31,0-2.209,1.197-2.209,2.963
						c0,1.75,0.899,2.932,2.209,2.932C872.117,646.691,873,645.51,873,643.76z"/>
					<path fill="#1D1D1B" d="M875.806,643.76c0-2.49,1.577-4.035,3.329-4.035c0.883,0,1.467,0.331,2.146,0.883l-0.063-1.309v-2.947
						h1.311v11.223h-1.073l-0.11-0.898h-0.048c-0.599,0.583-1.42,1.088-2.319,1.088C877.052,647.764,875.806,646.313,875.806,643.76
						z M881.217,645.62v-4.004c-0.646-0.583-1.23-0.804-1.861-0.804c-1.23,0-2.209,1.182-2.209,2.932
						c0,1.828,0.773,2.932,2.114,2.932C879.971,646.676,880.586,646.329,881.217,645.62z"/>
				</g>
				<g clip-path="url(#SVGID_14_)">
					<path fill="#1D1D1B" d="M727.978,645.588c0-1.671,1.436-2.506,4.702-2.868c0-0.978-0.315-1.923-1.578-1.923
						c-0.883,0-1.688,0.409-2.288,0.819l-0.505-0.898c0.71-0.457,1.783-0.993,3.013-0.993c1.878,0,2.667,1.245,2.667,3.152v4.697
						h-1.073l-0.11-0.914h-0.047c-0.726,0.599-1.578,1.104-2.54,1.104C728.94,647.764,727.978,646.96,727.978,645.588z
						 M732.679,645.698v-2.128c-2.556,0.315-3.439,0.946-3.439,1.923c0,0.867,0.6,1.229,1.357,1.229
						C731.338,646.723,731.938,646.36,732.679,645.698z"/>
					<path fill="#1D1D1B" d="M736.289,644.769v-4.854h1.31v4.681c0,1.435,0.426,2.05,1.436,2.05c0.789,0,1.341-0.395,2.067-1.293
						v-5.438h1.293v7.66h-1.073l-0.11-1.198h-0.047c-0.71,0.836-1.467,1.388-2.524,1.388
						C737.015,647.764,736.289,646.723,736.289,644.769z"/>
					<path fill="#1D1D1B" d="M745.2,645.21v-4.24h-1.136v-0.978l1.199-0.078l0.158-2.144h1.089v2.144h2.067v1.056h-2.067v4.256
						c0,0.945,0.3,1.481,1.183,1.481c0.269,0,0.616-0.11,0.868-0.205l0.252,0.978c-0.426,0.142-0.947,0.284-1.42,0.284
						C745.752,647.764,745.2,646.723,745.2,645.21z"/>
					<path fill="#1D1D1B" d="M749.678,643.76c0-2.569,1.672-4.035,3.55-4.035c1.877,0,3.55,1.466,3.55,4.035
						c0,2.538-1.672,4.004-3.55,4.004C751.351,647.764,749.678,646.298,749.678,643.76z M755.437,643.76
						c0-1.766-0.883-2.963-2.208-2.963c-1.31,0-2.209,1.197-2.209,2.963c0,1.75,0.899,2.932,2.209,2.932
						C754.554,646.691,755.437,645.51,755.437,643.76z"/>
					<path fill="#1D1D1B" d="M758.794,639.914h1.073l0.11,1.104h0.047c0.663-0.726,1.467-1.293,2.382-1.293
						c1.167,0,1.799,0.552,2.114,1.466c0.805-0.867,1.594-1.466,2.524-1.466c1.578,0,2.335,1.04,2.335,2.995v4.854h-1.293v-4.682
						c0-1.435-0.458-2.049-1.42-2.049c-0.6,0-1.215,0.394-1.925,1.182v5.549h-1.293v-4.682c0-1.435-0.458-2.049-1.436-2.049
						c-0.568,0-1.215,0.394-1.925,1.182v5.549h-1.293V639.914z"/>
					<path fill="#1D1D1B" d="M771.3,643.76c0-2.569,1.672-4.035,3.55-4.035c1.877,0,3.55,1.466,3.55,4.035
						c0,2.538-1.672,4.004-3.55,4.004C772.973,647.764,771.3,646.298,771.3,643.76z M777.059,643.76
						c0-1.766-0.883-2.963-2.208-2.963c-1.31,0-2.209,1.197-2.209,2.963c0,1.75,0.899,2.932,2.209,2.932
						C776.176,646.691,777.059,645.51,777.059,643.76z"/>
					<path fill="#1D1D1B" d="M781.615,646.786h-0.047l-0.11,0.788h-1.041v-11.223h1.293v3.058l-0.031,1.388
						c0.694-0.615,1.546-1.072,2.398-1.072c1.988,0,3.045,1.529,3.045,3.894c0,2.616-1.562,4.146-3.313,4.146
						C783.099,647.764,782.294,647.4,781.615,646.786z M785.781,643.634c0-1.687-0.568-2.821-2.02-2.821
						c-0.647,0-1.325,0.362-2.051,1.04v4.02c0.679,0.583,1.373,0.804,1.877,0.804C784.85,646.676,785.781,645.525,785.781,643.634z"
						/>
					<path fill="#1D1D1B" d="M788.901,637.502c0-0.504,0.395-0.835,0.899-0.835s0.899,0.331,0.899,0.835
						c0,0.488-0.395,0.836-0.899,0.836S788.901,637.99,788.901,637.502z M789.138,639.914h1.293v7.66h-1.293V639.914z"/>
					<path fill="#1D1D1B" d="M793.017,646.029v-9.678h1.293v9.772c0,0.41,0.174,0.567,0.363,0.567c0.079,0,0.142,0,0.284-0.031
						l0.173,0.978c-0.173,0.078-0.394,0.126-0.741,0.126C793.411,647.764,793.017,647.148,793.017,646.029z"/>
					<path fill="#1D1D1B" d="M796.328,643.76c0-2.506,1.688-4.035,3.439-4.035c1.957,0,3.061,1.402,3.061,3.594
						c0,0.268-0.016,0.552-0.047,0.741h-5.175c0.095,1.623,1.088,2.663,2.556,2.663c0.726,0,1.342-0.236,1.909-0.599l0.458,0.852
						c-0.663,0.425-1.483,0.788-2.525,0.788C797.954,647.764,796.328,646.266,796.328,643.76z M801.693,643.129
						c0-1.544-0.695-2.38-1.894-2.38c-1.073,0-2.051,0.867-2.209,2.38H801.693z"/>
				</g>
				
					<line clip-path="url(#SVGID_14_)" fill="none" stroke="#FFFFFF" stroke-width="1.126" stroke-miterlimit="10" x1="978.825" y1="303.874" x2="1317.157" y2="303.874"/>
				
					<line clip-path="url(#SVGID_14_)" fill="none" stroke="#FFFFFF" stroke-width="1.126" stroke-miterlimit="10" x1="595.637" y1="303.874" x2="933.968" y2="303.874"/>
				
					<line clip-path="url(#SVGID_14_)" fill="none" stroke="#FFFFFF" stroke-width="1.126" stroke-miterlimit="10" x1="978.825" y1="501.844" x2="1317.157" y2="501.844"/>
				
					<line clip-path="url(#SVGID_14_)" fill="none" stroke="#FFFFFF" stroke-width="1.126" stroke-miterlimit="10" x1="595.637" y1="501.844" x2="933.968" y2="501.844"/>
				
					<line clip-path="url(#SVGID_14_)" fill="none" stroke="#FFFFFF" stroke-width="1.126" stroke-miterlimit="10" x1="978.825" y1="700.172" x2="1317.157" y2="700.172"/>
				
					<line clip-path="url(#SVGID_14_)" fill="none" stroke="#FFFFFF" stroke-width="1.126" stroke-miterlimit="10" x1="595.637" y1="700.172" x2="933.968" y2="700.172"/>
				<g clip-path="url(#SVGID_14_)">
					<path fill="#1D1D1B" d="M835.349,234.744h1.073l0.109,0.883h0.048c0.694-0.583,1.546-1.072,2.445-1.072
						c1.973,0,3.029,1.529,3.029,3.909c0,2.601-1.562,4.129-3.313,4.129c-0.709,0-1.42-0.331-2.129-0.882l0.031,1.34v2.585h-1.294
						V234.744z M840.713,238.464c0-1.687-0.568-2.822-2.02-2.822c-0.646,0-1.294,0.363-2.051,1.041v4.02
						c0.693,0.583,1.372,0.804,1.877,0.804C839.781,241.506,840.713,240.355,840.713,238.464z"/>
					<path fill="#1D1D1B" d="M844.086,231.182h1.293v3.058l-0.047,1.576c0.727-0.693,1.499-1.261,2.557-1.261
						c1.609,0,2.334,1.041,2.334,2.995v4.855h-1.293v-4.682c0-1.434-0.441-2.049-1.451-2.049c-0.789,0-1.326,0.41-2.1,1.182v5.548
						h-1.293V231.182z"/>
					<path fill="#1D1D1B" d="M852.16,240.419c0-1.671,1.436-2.506,4.701-2.869c0-0.977-0.315-1.923-1.578-1.923
						c-0.883,0-1.688,0.41-2.287,0.82l-0.505-0.898c0.71-0.458,1.782-0.993,3.014-0.993c1.878,0,2.666,1.245,2.666,3.152v4.697
						h-1.073l-0.109-0.914h-0.048c-0.726,0.599-1.577,1.103-2.54,1.103C853.122,242.594,852.16,241.79,852.16,240.419z
						 M856.861,240.529v-2.128c-2.556,0.315-3.439,0.945-3.439,1.923c0,0.867,0.6,1.229,1.357,1.229
						C855.521,241.554,856.12,241.191,856.861,240.529z"/>
					<path fill="#1D1D1B" d="M860.566,234.744h1.072l0.111,1.387h0.047c0.521-0.961,1.31-1.576,2.178-1.576
						c0.331,0,0.567,0.047,0.82,0.158l-0.253,1.135c-0.253-0.079-0.426-0.126-0.741-0.126c-0.646,0-1.42,0.473-1.941,1.765v4.918
						h-1.293V234.744z"/>
					<path fill="#1D1D1B" d="M866.023,234.744h1.072l0.11,1.104h0.048c0.662-0.725,1.467-1.292,2.382-1.292
						c1.167,0,1.799,0.552,2.114,1.466c0.805-0.867,1.594-1.466,2.524-1.466c1.577,0,2.335,1.041,2.335,2.995v4.855h-1.293v-4.682
						c0-1.434-0.458-2.049-1.42-2.049c-0.6,0-1.216,0.394-1.926,1.182v5.548h-1.293v-4.682c0-1.434-0.458-2.049-1.437-2.049
						c-0.567,0-1.215,0.394-1.925,1.182v5.548h-1.293V234.744z"/>
					<path fill="#1D1D1B" d="M878.592,240.419c0-1.671,1.436-2.506,4.701-2.869c0-0.977-0.314-1.923-1.577-1.923
						c-0.884,0-1.688,0.41-2.288,0.82l-0.504-0.898c0.709-0.458,1.782-0.993,3.013-0.993c1.878,0,2.667,1.245,2.667,3.152v4.697
						h-1.073l-0.11-0.914h-0.047c-0.727,0.599-1.578,1.103-2.541,1.103C879.555,242.594,878.592,241.79,878.592,240.419z
						 M883.293,240.529v-2.128c-2.555,0.315-3.439,0.945-3.439,1.923c0,0.867,0.6,1.229,1.357,1.229
						C881.953,241.554,882.553,241.191,883.293,240.529z"/>
					<path fill="#1D1D1B" d="M886.43,238.59c0-2.569,1.721-4.035,3.692-4.035c1.01,0,1.704,0.41,2.241,0.898l-0.663,0.851
						c-0.442-0.394-0.915-0.678-1.53-0.678c-1.389,0-2.398,1.198-2.398,2.963c0,1.75,0.963,2.932,2.367,2.932
						c0.709,0,1.324-0.347,1.798-0.772l0.568,0.867c-0.694,0.615-1.562,0.977-2.478,0.977
						C887.992,242.594,886.43,241.128,886.43,238.59z"/>
					<path fill="#1D1D1B" d="M893.4,245.542l0.252-1.024c0.158,0.047,0.395,0.11,0.584,0.11c0.868,0,1.42-0.694,1.736-1.64
						l0.174-0.567l-3.077-7.676h1.341l1.562,4.24c0.236,0.662,0.504,1.45,0.741,2.159h0.063c0.221-0.693,0.441-1.481,0.646-2.159
						l1.373-4.24h1.262l-2.887,8.291c-0.537,1.513-1.326,2.664-2.872,2.664C893.953,245.699,893.652,245.636,893.4,245.542z"/>
				</g>
				<g clip-path="url(#SVGID_14_)">
					<path fill="#1D1D1B" d="M643.45,238.814c0-2.569,1.673-4.035,3.55-4.035s3.55,1.466,3.55,4.035c0,2.538-1.672,4.003-3.55,4.003
						S643.45,241.352,643.45,238.814z M649.209,238.814c0-1.766-0.883-2.963-2.208-2.963c-1.31,0-2.209,1.198-2.209,2.963
						c0,1.75,0.899,2.932,2.209,2.932C648.326,241.746,649.209,240.563,649.209,238.814z"/>
					<path fill="#1D1D1B" d="M652.566,234.968h1.073l0.11,0.883h0.047c0.694-0.583,1.546-1.072,2.445-1.072
						c1.973,0,3.029,1.529,3.029,3.909c0,2.601-1.562,4.129-3.313,4.129c-0.71,0-1.42-0.331-2.13-0.882l0.031,1.34v2.585h-1.293
						V234.968z M657.931,238.688c0-1.687-0.568-2.822-2.02-2.822c-0.647,0-1.294,0.363-2.051,1.041v4.02
						c0.694,0.583,1.373,0.804,1.877,0.804C657,241.73,657.931,240.579,657.931,238.688z"/>
					<path fill="#1D1D1B" d="M661.54,240.264v-4.24h-1.136v-0.977l1.199-0.079l0.158-2.144h1.089v2.144h2.067v1.056h-2.067v4.256
						c0,0.946,0.3,1.482,1.183,1.482c0.269,0,0.616-0.11,0.868-0.205l0.252,0.977c-0.426,0.142-0.947,0.284-1.42,0.284
						C662.092,242.817,661.54,241.777,661.54,240.264z"/>
					<path fill="#1D1D1B" d="M666.413,232.556c0-0.504,0.395-0.835,0.899-0.835s0.899,0.331,0.899,0.835
						c0,0.489-0.395,0.835-0.899,0.835S666.413,233.045,666.413,232.556z M666.65,234.968h1.293v7.661h-1.293V234.968z"/>
					<path fill="#1D1D1B" d="M669.961,238.814c0-2.569,1.72-4.035,3.692-4.035c1.01,0,1.704,0.41,2.24,0.898l-0.663,0.851
						c-0.442-0.394-0.915-0.678-1.531-0.678c-1.388,0-2.398,1.198-2.398,2.963c0,1.75,0.962,2.932,2.367,2.932
						c0.71,0,1.325-0.347,1.798-0.772l0.568,0.867c-0.694,0.615-1.562,0.977-2.477,0.977
						C671.523,242.817,669.961,241.352,669.961,238.814z"/>
				</g>
				<g clip-path="url(#SVGID_14_)">
					<path fill="#1D1D1B" d="M727.978,239.691c0-1.671,1.436-2.506,4.702-2.869c0-0.977-0.315-1.923-1.578-1.923
						c-0.883,0-1.688,0.41-2.288,0.82l-0.505-0.898c0.71-0.457,1.783-0.993,3.013-0.993c1.878,0,2.667,1.245,2.667,3.152v4.697
						h-1.073l-0.11-0.914h-0.047c-0.726,0.599-1.578,1.103-2.54,1.103C728.94,241.866,727.978,241.062,727.978,239.691z
						 M732.679,239.801v-2.128c-2.556,0.315-3.439,0.945-3.439,1.923c0,0.867,0.6,1.229,1.357,1.229
						C731.338,240.826,731.938,240.463,732.679,239.801z"/>
					<path fill="#1D1D1B" d="M736.289,238.871v-4.855h1.31v4.682c0,1.434,0.426,2.049,1.436,2.049c0.789,0,1.341-0.394,2.067-1.292
						v-5.438h1.293v7.661h-1.073l-0.11-1.198h-0.047c-0.71,0.835-1.467,1.387-2.524,1.387
						C737.015,241.866,736.289,240.826,736.289,238.871z"/>
					<path fill="#1D1D1B" d="M745.2,239.312v-4.24h-1.136v-0.977l1.199-0.079l0.158-2.144h1.089v2.144h2.067v1.056h-2.067v4.256
						c0,0.946,0.3,1.482,1.183,1.482c0.269,0,0.616-0.11,0.868-0.205l0.252,0.977c-0.426,0.142-0.947,0.284-1.42,0.284
						C745.752,241.866,745.2,240.826,745.2,239.312z"/>
					<path fill="#1D1D1B" d="M749.678,237.862c0-2.569,1.672-4.035,3.55-4.035c1.877,0,3.55,1.466,3.55,4.035
						c0,2.538-1.672,4.003-3.55,4.003C751.351,241.866,749.678,240.4,749.678,237.862z M755.437,237.862
						c0-1.766-0.883-2.963-2.208-2.963c-1.31,0-2.209,1.198-2.209,2.963c0,1.75,0.899,2.932,2.209,2.932
						C754.554,240.794,755.437,239.612,755.437,237.862z"/>
					<path fill="#1D1D1B" d="M758.794,234.016h1.073l0.11,1.104h0.047c0.663-0.725,1.467-1.292,2.382-1.292
						c1.167,0,1.799,0.552,2.114,1.466c0.805-0.867,1.594-1.466,2.524-1.466c1.578,0,2.335,1.04,2.335,2.995v4.855h-1.293v-4.682
						c0-1.434-0.458-2.049-1.42-2.049c-0.6,0-1.215,0.394-1.925,1.182v5.548h-1.293v-4.682c0-1.434-0.458-2.049-1.436-2.049
						c-0.568,0-1.215,0.394-1.925,1.182v5.548h-1.293V234.016z"/>
					<path fill="#1D1D1B" d="M771.3,237.862c0-2.569,1.672-4.035,3.55-4.035c1.877,0,3.55,1.466,3.55,4.035
						c0,2.538-1.672,4.003-3.55,4.003C772.973,241.866,771.3,240.4,771.3,237.862z M777.059,237.862
						c0-1.766-0.883-2.963-2.208-2.963c-1.31,0-2.209,1.198-2.209,2.963c0,1.75,0.899,2.932,2.209,2.932
						C776.176,240.794,777.059,239.612,777.059,237.862z"/>
					<path fill="#1D1D1B" d="M781.615,240.889h-0.047l-0.11,0.788h-1.041v-11.223h1.293v3.058l-0.031,1.387
						c0.694-0.615,1.546-1.072,2.398-1.072c1.988,0,3.045,1.529,3.045,3.893c0,2.617-1.562,4.146-3.313,4.146
						C783.099,241.866,782.294,241.503,781.615,240.889z M785.781,237.736c0-1.687-0.568-2.822-2.02-2.822
						c-0.647,0-1.325,0.363-2.051,1.041v4.02c0.679,0.583,1.373,0.804,1.877,0.804C784.85,240.778,785.781,239.627,785.781,237.736z
						"/>
					<path fill="#1D1D1B" d="M788.901,231.604c0-0.504,0.395-0.835,0.899-0.835s0.899,0.331,0.899,0.835
						c0,0.489-0.395,0.835-0.899,0.835S788.901,232.093,788.901,231.604z M789.138,234.016h1.293v7.661h-1.293V234.016z"/>
					<path fill="#1D1D1B" d="M793.017,240.132v-9.678h1.293v9.772c0,0.41,0.174,0.567,0.363,0.567c0.079,0,0.142,0,0.284-0.031
						l0.173,0.977c-0.173,0.079-0.394,0.126-0.741,0.126C793.411,241.866,793.017,241.251,793.017,240.132z"/>
					<path fill="#1D1D1B" d="M796.328,237.862c0-2.506,1.688-4.035,3.439-4.035c1.957,0,3.061,1.403,3.061,3.594
						c0,0.268-0.016,0.552-0.047,0.741h-5.175c0.095,1.624,1.088,2.664,2.556,2.664c0.726,0,1.342-0.236,1.909-0.599l0.458,0.851
						c-0.663,0.426-1.483,0.788-2.525,0.788C797.954,241.866,796.328,240.369,796.328,237.862z M801.693,237.232
						c0-1.545-0.695-2.38-1.894-2.38c-1.073,0-2.051,0.867-2.209,2.38H801.693z"/>
				</g>
				<path clip-path="url(#SVGID_14_)" fill="#CFCDCC" d="M238.646,634.233l20.186-4.503c2.479,0,4.46-1.979,4.506-4.457l0.387-32.76
					c0.026-2.141-0.454-4.25-1.41-6.164c-1.187-2.389-2.703-5.411-2.886-5.648c-0.26-0.346-0.463-0.712-0.61-1.117
					c-0.757-2.058-3.436-9.854-9.9-33.138c-6.534-23.545-47.449-26.651-61.326-27.013c-2.523-0.045-4.597,1.982-4.597,4.503v101.291
					c0,1.443,0.012,7.856,0.012,7.856"/>
				<path clip-path="url(#SVGID_14_)" fill="#3F4040" d="M84.157,626.623h83.068V519.12c0-2.477-2.027-4.503-4.506-4.503H-13.287
					c-2.477,0-4.505,2.026-4.505,4.503v98.501c0,2.476,2.028,4.502,4.505,4.502l36.543,4.5"/>
				<path clip-path="url(#SVGID_14_)" fill="#CFCDCC" d="M198.12,631.396c0,7.472,6.039,13.506,13.521,13.506
					c7.478,0,13.517-6.034,13.517-13.506c0-7.473-6.039-13.506-13.517-13.506C204.159,617.891,198.12,623.924,198.12,631.396"/>
				<path clip-path="url(#SVGID_14_)" fill="none" stroke="#010101" stroke-width="9.0079" stroke-miterlimit="10" d="
					M198.12,631.396c0,7.472,6.039,13.506,13.521,13.506c7.478,0,13.517-6.034,13.517-13.506c0-7.473-6.039-13.506-13.517-13.506
					C204.159,617.891,198.12,623.924,198.12,631.396z"/>
				<path clip-path="url(#SVGID_14_)" fill="#3F4040" d="M240.929,576.248l-26.473,0.095l-0.564-31.044l14.393,0.305
					c1.946,0.041,3.641,1.324,4.21,3.181L240.929,576.248z"/>
				
					<polyline clip-path="url(#SVGID_14_)" fill="none" stroke="#010101" stroke-width="9.0079" stroke-linecap="round" stroke-linejoin="round" stroke-miterlimit="10" points="
					236.797,576.248 213.891,576.248 213.891,549.614 				"/>
				<path clip-path="url(#SVGID_14_)" fill="#CFCDCC" d="M40.034,631.396c0,7.472,6.039,13.506,13.519,13.506
					c7.48,0,13.518-6.034,13.518-13.506c0-7.473-6.038-13.506-13.518-13.506C46.073,617.891,40.034,623.924,40.034,631.396"/>
				<path clip-path="url(#SVGID_14_)" fill="none" stroke="#010101" stroke-width="9.0079" stroke-miterlimit="10" d="
					M40.034,631.396c0,7.472,6.039,13.506,13.519,13.506c7.48,0,13.518-6.034,13.518-13.506c0-7.473-6.038-13.506-13.518-13.506
					C46.073,617.891,40.034,623.924,40.034,631.396z"/>
				
					<path clip-path="url(#SVGID_14_)" fill="none" stroke="#010101" stroke-width="9.0079" stroke-linecap="round" stroke-linejoin="round" stroke-miterlimit="10" d="
					M84.156,622.123h83.067V519.12c0-2.477-2.025-4.503-4.505-4.503H-13.287c-2.479,0-4.505,2.026-4.505,4.503v98.501
					c0,2.476,2.027,4.502,4.505,4.502h36.544 M238.646,629.73h20.186c2.479,0,4.461-1.979,4.506-4.457l0.387-32.76
					c0.026-2.141-0.454-4.25-1.41-6.164c-1.187-2.389-2.703-5.411-2.886-5.648c-0.26-0.346-0.463-0.712-0.61-1.117
					c-0.757-2.058-3.436-9.854-9.9-33.138c-6.534-23.545-47.449-26.651-61.326-27.013c-2.523-0.045-4.597,1.982-4.597,4.503v101.291
					c0,1.443,0.012,3.355,0.012,3.355"/>
				<path clip-path="url(#SVGID_14_)" fill="#3F4040" d="M215.273,813.643c0,0-39.887,9.27-54.011,88.901
					c-0.396,2.241-2.918,3.957-5.926,3.957H-2.705v-92.858"/>
				
					<path clip-path="url(#SVGID_14_)" fill="none" stroke="#010101" stroke-width="9.0079" stroke-linecap="round" stroke-linejoin="round" stroke-miterlimit="10" d="
					M215.273,813.643c0,0-39.887,9.27-54.011,88.901c-0.396,2.241-2.918,3.957-5.926,3.957H-2.705v-92.858"/>
				<path clip-path="url(#SVGID_14_)" fill="#FFFFFF" d="M123.463,796.768L85.151,729.61c-0.796-1.598-2.526-2.62-4.432-2.62H-2.705
					v69.777H123.463z"/>
				
					<path clip-path="url(#SVGID_14_)" fill="none" stroke="#010101" stroke-width="9.0079" stroke-linecap="round" stroke-linejoin="round" stroke-miterlimit="10" d="
					M123.463,796.768L85.151,729.61c-0.796-1.598-2.526-2.62-4.432-2.62H-2.705v69.777H123.463z"/>
				<path clip-path="url(#SVGID_14_)" fill="#3F4040" d="M44.327,726.99v-29.264c0-2.488-2.017-4.503-4.506-4.503H25.739
					c-2.49,0-4.506,2.015-4.506,4.503v29.264H44.327z"/>
				
					<path clip-path="url(#SVGID_14_)" fill="none" stroke="#010101" stroke-width="9.0079" stroke-linecap="round" stroke-linejoin="round" stroke-miterlimit="10" d="
					M44.327,726.99v-29.264c0-2.488-2.017-4.503-4.506-4.503H25.739c-2.49,0-4.506,2.015-4.506,4.503v29.264H44.327z"/>
				
					<path clip-path="url(#SVGID_14_)" fill="none" stroke="#010101" stroke-width="9.0079" stroke-linecap="round" stroke-linejoin="round" stroke-miterlimit="10" d="
					M93.61,772.851H13.629 M79.984,751.749H13.629"/>
				<path clip-path="url(#SVGID_14_)" fill="#EA5B49" d="M-2.705,796.768h211.986c3.31,0,5.993,2.015,5.993,4.501v12.374H-2.705
					V796.768z"/>
				
					<path clip-path="url(#SVGID_14_)" fill="none" stroke="#010101" stroke-width="9.0079" stroke-linecap="round" stroke-linejoin="round" stroke-miterlimit="10" d="
					M-2.705,796.768h211.986c3.31,0,5.993,2.015,5.993,4.501v12.374H-2.705V796.768z"/>
				<path clip-path="url(#SVGID_14_)" fill="#010101" d="M-20.818,431.708L-20.818,431.708c0-2.609,2.116-4.723,4.728-4.723H2.821
					c2.611,0,4.727,2.114,4.727,4.723c0,2.607-2.116,4.722-4.727,4.722H-16.09C-18.702,436.43-20.818,434.315-20.818,431.708"/>
				<path clip-path="url(#SVGID_14_)" fill="#010101" d="M239.867,431.708L239.867,431.708c0-2.609,2.116-4.723,4.728-4.723h18.912
					c2.611,0,4.727,2.114,4.727,4.723c0,2.607-2.116,4.722-4.727,4.722h-18.912C241.982,436.43,239.867,434.315,239.867,431.708"/>
				<path clip-path="url(#SVGID_14_)" fill="#3F4040" d="M251.732,417.539H-7.014v-96.673c0-6.345,5.15-11.492,11.5-11.492h235.747
					c6.35,0,11.499,5.147,11.499,11.492V417.539z"/>
				
					<path clip-path="url(#SVGID_14_)" fill="none" stroke="#010101" stroke-width="9.0079" stroke-linecap="round" stroke-linejoin="round" stroke-miterlimit="10" d="
					M251.732,417.539H-7.014v-96.673c0-6.345,5.15-11.492,11.5-11.492h235.747c6.35,0,11.499,5.147,11.499,11.492V417.539z"/>
				<path clip-path="url(#SVGID_14_)" fill="#3F4040" d="M7.548,445.878h-9.89c-2.58,0-4.67-2.089-4.67-4.666v-19.008
					c0-2.577,2.091-4.666,4.67-4.666h249.403c2.581,0,4.67,2.089,4.67,4.666v19.008c0,2.577-2.089,4.666-4.67,4.666h-3.901"/>
				
					<path clip-path="url(#SVGID_14_)" fill="none" stroke="#010101" stroke-width="9.0079" stroke-linecap="round" stroke-linejoin="round" stroke-miterlimit="10" d="
					M7.548,445.878h-9.89c-2.58,0-4.67-2.089-4.67-4.667v-19.006c0-2.577,2.091-4.666,4.67-4.666h249.403
					c2.581,0,4.67,2.089,4.67,4.666v19.006c0,2.579-2.089,4.667-4.67,4.667h-3.901"/>
				<path clip-path="url(#SVGID_14_)" fill="#010101" d="M256.137,412.815H-11.418c-2.58,0-4.67,2.089-4.67,4.666v0.112
					c0,2.579,2.091,4.669,4.67,4.669h267.555c2.581,0,4.672-2.09,4.672-4.669v-0.112
					C260.809,414.904,258.718,412.815,256.137,412.815"/>
				<path clip-path="url(#SVGID_14_)" fill="#93D2F3" d="M25.389,393.922H-6.86v-61.404h32.25c2.579,0,4.67,2.09,4.67,4.667v52.071
					C30.06,391.833,27.968,393.922,25.389,393.922"/>
				
					<path clip-path="url(#SVGID_14_)" fill="none" stroke="#010101" stroke-width="9.0079" stroke-linecap="round" stroke-linejoin="round" stroke-miterlimit="10" d="
					M25.389,393.922H-6.86v-61.403h32.25c2.579,0,4.67,2.089,4.67,4.667v52.071C30.06,391.833,27.968,393.922,25.389,393.922z"/>
				<path clip-path="url(#SVGID_14_)" fill="#93D2F3" d="M99.228,393.922H71.65c-2.581,0-4.671-2.088-4.671-4.666v-52.071
					c0-2.577,2.091-4.667,4.671-4.667h27.578c2.581,0,4.671,2.09,4.671,4.667v52.071
					C103.899,391.833,101.809,393.922,99.228,393.922"/>
				
					<path clip-path="url(#SVGID_14_)" fill="none" stroke="#010101" stroke-width="9.0079" stroke-linecap="round" stroke-linejoin="round" stroke-miterlimit="10" d="
					M99.228,393.922H71.65c-2.581,0-4.671-2.088-4.671-4.666v-52.071c0-2.577,2.091-4.667,4.671-4.667h27.578
					c2.581,0,4.671,2.089,4.671,4.667v52.071C103.899,391.833,101.809,393.922,99.228,393.922z"/>
				<path clip-path="url(#SVGID_14_)" fill="#93D2F3" d="M251.579,393.922h-32.25c-2.58,0-4.67-2.088-4.67-4.666v-52.071
					c0-2.577,2.091-4.667,4.67-4.667h32.25V393.922z"/>
				
					<path clip-path="url(#SVGID_14_)" fill="none" stroke="#010101" stroke-width="9.0079" stroke-linecap="round" stroke-linejoin="round" stroke-miterlimit="10" d="
					M251.579,393.922h-32.25c-2.579,0-4.67-2.088-4.67-4.666v-52.071c0-2.577,2.092-4.667,4.67-4.667h32.25V393.922z"/>
				<path clip-path="url(#SVGID_14_)" fill="#93D2F3" d="M173.068,393.922h-27.577c-2.58,0-4.673-2.088-4.673-4.666v-52.071
					c0-2.577,2.094-4.667,4.673-4.667h27.577c2.58,0,4.669,2.09,4.669,4.667v52.071
					C177.738,391.833,175.648,393.922,173.068,393.922"/>
				
					<path clip-path="url(#SVGID_14_)" fill="none" stroke="#010101" stroke-width="9.0079" stroke-linecap="round" stroke-linejoin="round" stroke-miterlimit="10" d="
					M173.068,393.922h-27.577c-2.58,0-4.673-2.088-4.673-4.666v-52.071c0-2.577,2.094-4.667,4.673-4.667h27.577
					c2.58,0,4.671,2.089,4.671,4.667v52.071C177.739,391.833,175.648,393.922,173.068,393.922z"/>
				
					<path clip-path="url(#SVGID_14_)" fill="none" stroke="#010101" stroke-width="9.0079" stroke-linecap="round" stroke-linejoin="round" stroke-miterlimit="10" d="
					M251.732,417.539H-7.014v-96.673c0-6.345,5.15-11.492,11.5-11.492h235.747c6.35,0,11.499,5.147,11.499,11.492V417.539z"/>
				<path clip-path="url(#SVGID_14_)" fill="#010101" d="M211.242,424.67c12.443,0,22.531,10.078,22.531,22.51
					c0,12.432-10.087,22.508-22.531,22.508s-22.53-10.076-22.53-22.508C188.712,434.749,198.799,424.67,211.242,424.67"/>
				<path clip-path="url(#SVGID_14_)" fill="#3F4040" d="M211.242,433.675c7.467,0,13.519,6.045,13.519,13.505
					c0,7.459-6.052,13.506-13.519,13.506c-7.465,0-13.519-6.047-13.519-13.506C197.724,439.721,203.777,433.675,211.242,433.675"/>
				<path clip-path="url(#SVGID_14_)" fill="#010101" d="M37.76,424.67c12.443,0,22.53,10.078,22.53,22.51
					c0,12.432-10.087,22.508-22.53,22.508c-12.443,0-22.53-10.076-22.53-22.508C15.229,434.749,25.317,424.67,37.76,424.67"/>
				<path clip-path="url(#SVGID_14_)" fill="#3F4040" d="M37.76,433.675c7.467,0,13.519,6.045,13.519,13.505
					c0,7.459-6.052,13.506-13.519,13.506c-7.466,0-13.518-6.047-13.518-13.506C24.242,439.721,30.294,433.675,37.76,433.675"/>
				
					<line clip-path="url(#SVGID_14_)" fill="none" stroke="#010101" stroke-width="9.0079" stroke-linecap="round" stroke-linejoin="round" stroke-miterlimit="10" x1="177.74" y1="445.878" x2="66.979" y2="445.878"/>
				<path clip-path="url(#SVGID_14_)" fill="#CFCDCC" d="M141.3,176.317l67.549-22.95c0,0,22.805-12.313,41.911-0.844
					c0,0,24.967-0.289,9.26,16.954c-15.707,17.245-125.955,60.365-158.539,72.516c-32.58,12.151-72.882,18.562-100.75,19.1
					c-24.391,0.473,2.922-14.31,2.922-14.31s30.99-17.57,44.708-23.544l13.054-9.645"/>
				<path clip-path="url(#SVGID_14_)" fill="#9C9A9A" d="M48.364,222.924c0,0-49.249-25.651-66.518-38.018l-21.983,6.805
					l37.873,57.851"/>
				<polyline clip-path="url(#SVGID_14_)" fill="#9C9A9A" points="163.405,199.364 41.508,185.565 31.135,192.956 117.383,223.701 
									"/>
				
					<path clip-path="url(#SVGID_14_)" fill="none" stroke="#010101" stroke-width="10.537" stroke-linecap="round" stroke-linejoin="round" stroke-miterlimit="10" d="
					M29.257,217.403c0,0-32.961-18.269-49.505-29.96l-14.555,5.018l29.276,43.621"/>
				
					<polyline clip-path="url(#SVGID_14_)" fill="none" stroke="#010101" stroke-width="10.537" stroke-linecap="round" stroke-linejoin="round" stroke-miterlimit="10" points="
					161.998,196.356 42.696,186.972 32.543,193.801 113.78,221.139 				"/>
				<path clip-path="url(#SVGID_14_)" fill="#010101" d="M128.759,241.089c5.166-1.805,10.816,0.917,12.624,6.075
					c1.807,5.163-0.917,10.807-6.084,12.613c-5.164,1.805-10.815-0.916-12.62-6.075C120.871,248.54,123.593,242.895,128.759,241.089
					"/>
				<path clip-path="url(#SVGID_14_)" fill="#010101" d="M154.348,231.057c5.165-1.805,10.816,0.916,12.623,6.075
					c1.808,5.162-0.917,10.807-6.082,12.613c-5.165,1.805-10.818-0.916-12.623-6.077C146.46,238.507,149.18,232.862,154.348,231.057
					"/>
				
					<path clip-path="url(#SVGID_14_)" fill="none" stroke="#010101" stroke-width="10.537" stroke-linecap="round" stroke-linejoin="round" stroke-miterlimit="10" d="
					M144.033,179.663l63.987-25.345c0,0,22.571-12.009,41.482-0.824c0,0,24.709-0.282,9.163,16.536
					c-15.545,16.817-124.663,58.866-156.91,70.715c-32.25,11.851-72.137,18.103-99.719,18.629
					c-24.141,0.459,2.891-13.956,2.891-13.956s30.675-17.134,44.251-22.96l13.651-5.856"/>
				<path clip-path="url(#SVGID_14_)" fill="#EB5B47" d="M811.158,194.142l-1.783-0.973c-0.65-0.323-0.975-0.972-0.812-1.62
					c0.486-3.079,0.812-13.776-15.734-18.637c-0.324-0.162-0.65-0.162-0.973-0.162l-31.796,0.162c-0.646,0-1.296,0.162-1.784,0.485
					l-16.708,11.184c-0.326,0.162-0.649,0.323-0.974,0.323c-3.082-0.162-6.003,0.162-9.083,0.649
					c-8.761,1.782-12.329,6.482-13.628,8.913c-0.323,0.486-0.323,1.134-0.323,1.621c0.162,3.89-2.435,8.265,1.459,11.831
					l31.471-0.162l33.092-0.81l26.117-0.324c1.459-0.163,3.892-2.269,4.541-3.565C816.998,198.68,811.482,194.305,811.158,194.142"
					/>
				<path clip-path="url(#SVGID_14_)" fill="#9D9C9A" d="M734.105,198.032c-3.567,0-6.49,2.918-6.49,6.483
					c0,3.565,2.922,6.483,6.49,6.483c3.568,0,6.488-2.918,6.488-6.483C740.594,200.95,737.674,198.032,734.105,198.032"/>
				<path clip-path="url(#SVGID_14_)" fill="#9D9C9A" d="M798.668,198.032c-3.569,0-6.49,2.918-6.49,6.483
					c0,3.565,2.92,6.483,6.49,6.483c3.568,0,6.488-2.918,6.488-6.483C805.156,200.95,802.236,198.032,798.668,198.032"/>
				<path clip-path="url(#SVGID_14_)" fill="#93D2F5" d="M797.046,186.525v-6.969c0-1.458-1.299-2.755-2.759-2.755h-34.389
					c-0.162,0-0.325,0-0.325,0.162l-12.977,9.239c-0.326,0.162-0.326,0.648-0.163,0.973c0.163,0.162,0.324,0.325,0.486,0.325
					c9.085,0,44.125-0.325,49.314-0.163C796.721,187.336,797.046,187.012,797.046,186.525
					C797.046,186.688,797.046,186.688,797.046,186.525"/>
				<polygon clip-path="url(#SVGID_14_)" fill="#FCEB30" points="720.48,188.47 726.968,191.064 723.561,195.763 715.451,195.925 
									"/>
				
					<path clip-path="url(#SVGID_14_)" fill="none" stroke="#1E1E1C" stroke-width="3.2428" stroke-linecap="round" stroke-linejoin="round" d="
					M725.994,192.359l-2.919,3.565l-6.002-0.162 M798.667,196.412c4.48,0,8.111,3.628,8.111,8.104s-3.631,8.103-8.111,8.103
					c-4.478,0-8.11-3.628-8.11-8.103S794.188,196.412,798.667,196.412z M734.105,196.412c4.479,0,8.111,3.628,8.111,8.104
					s-3.633,8.103-8.111,8.103c-4.479,0-8.112-3.628-8.112-8.103S729.626,196.412,734.105,196.412z M746.433,187.499l48.99-0.325
					v-7.293 M719.181,206.135c-1.46-0.325-2.757-0.81-2.92-1.62c-0.162-1.622-0.486-6.158-0.486-8.265
					c0-0.811,0.163-1.783,0.649-2.431c1.785-3.242,7.787-11.021,24.17-10.373l16.709-11.183c0.81-0.486,1.784-0.81,2.595-0.81
					l31.794-0.162c0.486,0,0.974,0,1.459,0.162c3.569,0.972,18.98,6.483,16.871,20.421l1.785,0.973
					c0.81,0.323,1.46,1.134,1.622,1.945c0.648,2.268,0.485,4.699-0.324,6.968 M783.257,205.488l-33.417,0.647"/>
				<path clip-path="url(#SVGID_14_)" fill="#EB5B47" d="M811.158,399.176l-1.783-0.973c-0.65-0.324-0.975-0.972-0.812-1.621
					c0.486-3.079,0.812-13.775-15.734-18.638c-0.324-0.162-0.65-0.162-0.973-0.162l-31.796,0.162c-0.646,0-1.296,0.162-1.784,0.487
					l-16.708,11.182c-0.326,0.163-0.649,0.324-0.974,0.324c-3.082-0.161-6.003,0.164-9.083,0.649
					c-8.761,1.782-12.329,6.483-13.628,8.913c-0.323,0.487-0.323,1.135-0.323,1.622c0.162,3.89-2.435,8.266,1.459,11.831
					l31.471-0.162l33.092-0.81l26.117-0.324c1.459-0.163,3.892-2.269,4.541-3.566C816.998,403.712,811.482,399.338,811.158,399.176"
					/>
				<path clip-path="url(#SVGID_14_)" fill="#9D9C9A" d="M734.105,403.066c-3.567,0-6.49,2.916-6.49,6.483
					c0,3.565,2.922,6.482,6.49,6.482c3.568,0,6.488-2.917,6.488-6.482C740.594,405.981,737.674,403.066,734.105,403.066"/>
				<path clip-path="url(#SVGID_14_)" fill="#9D9C9A" d="M798.668,403.066c-3.569,0-6.49,2.916-6.49,6.483
					c0,3.565,2.92,6.482,6.49,6.482c3.568,0,6.488-2.917,6.488-6.482C805.156,405.981,802.236,403.066,798.668,403.066"/>
				<path clip-path="url(#SVGID_14_)" fill="#93D2F5" d="M797.046,391.558v-6.968c0-1.458-1.299-2.755-2.759-2.755h-34.389
					c-0.162,0-0.325,0-0.325,0.162l-12.977,9.237c-0.326,0.164-0.326,0.649-0.163,0.975c0.163,0.16,0.324,0.322,0.486,0.322
					c9.085,0,44.125-0.322,49.314-0.162C796.721,392.368,797.046,392.044,797.046,391.558
					C797.046,391.72,797.046,391.72,797.046,391.558"/>
				<polygon clip-path="url(#SVGID_14_)" fill="#FCEB30" points="720.48,393.503 726.968,396.096 723.561,400.795 715.451,400.959 
									"/>
				
					<path clip-path="url(#SVGID_14_)" fill="none" stroke="#1E1E1C" stroke-width="3.2428" stroke-linecap="round" stroke-linejoin="round" d="
					M725.994,397.393l-2.919,3.566l-6.002-0.164 M798.667,401.445c4.48,0,8.111,3.626,8.111,8.104c0,4.473-3.631,8.102-8.111,8.102
					c-4.478,0-8.11-3.629-8.11-8.102C790.556,405.072,794.188,401.445,798.667,401.445z M734.105,401.445
					c4.479,0,8.111,3.626,8.111,8.104c0,4.473-3.633,8.102-8.111,8.102c-4.479,0-8.112-3.629-8.112-8.102
					C725.994,405.072,729.626,401.445,734.105,401.445z M746.433,392.53l48.99-0.322v-7.294 M719.181,411.168
					c-1.46-0.324-2.757-0.811-2.92-1.619c-0.162-1.622-0.486-6.16-0.486-8.266c0-0.811,0.163-1.784,0.649-2.432
					c1.785-3.241,7.787-11.021,24.17-10.371l16.709-11.184c0.81-0.485,1.784-0.81,2.595-0.81l31.794-0.163
					c0.486,0,0.974,0,1.459,0.163c3.569,0.972,18.98,6.482,16.871,20.42l1.785,0.972c0.81,0.325,1.46,1.135,1.622,1.946
					c0.648,2.269,0.485,4.699-0.324,6.968 M783.257,410.52l-33.417,0.648"/>
				<path clip-path="url(#SVGID_14_)" fill="#EB5B47" d="M808.729,597.33l-1.783-0.972c-0.649-0.323-0.974-0.972-0.812-1.62
					c0.487-3.079,0.812-13.775-15.734-18.639c-0.325-0.162-0.648-0.162-0.974-0.162l-31.793,0.162c-0.65,0-1.298,0.162-1.785,0.487
					l-16.708,11.181c-0.325,0.164-0.649,0.326-0.973,0.326c-3.083-0.162-6.002,0.162-9.085,0.648
					c-8.759,1.78-12.328,6.481-13.626,8.913c-0.323,0.486-0.323,1.134-0.323,1.62c0.161,3.89-2.435,8.267,1.458,11.831l31.472-0.162
					l33.091-0.81l26.118-0.325c1.459-0.161,3.895-2.268,4.542-3.564C814.568,601.868,809.054,597.494,808.729,597.33"/>
				<path clip-path="url(#SVGID_14_)" fill="#9D9C9A" d="M731.676,601.221c-3.568,0-6.488,2.918-6.488,6.483s2.92,6.482,6.488,6.482
					c3.569,0,6.49-2.917,6.49-6.482S735.245,601.221,731.676,601.221"/>
				<path clip-path="url(#SVGID_14_)" fill="#9D9C9A" d="M796.238,601.221c-3.568,0-6.487,2.918-6.487,6.483
					s2.918,6.482,6.487,6.482c3.569,0,6.488-2.917,6.488-6.482S799.808,601.221,796.238,601.221"/>
				<path clip-path="url(#SVGID_14_)" fill="#93D2F5" d="M794.617,589.715v-6.971c0-1.458-1.297-2.755-2.757-2.755h-34.391
					c-0.164,0-0.325,0-0.325,0.163l-12.978,9.238c-0.323,0.161-0.323,0.646-0.163,0.972c0.163,0.16,0.325,0.323,0.487,0.323
					c9.083,0,44.123-0.323,49.314-0.163C794.292,590.522,794.617,590.201,794.617,589.715
					C794.617,589.876,794.617,589.876,794.617,589.715"/>
				<polygon clip-path="url(#SVGID_14_)" fill="#FCEB30" points="718.05,591.659 724.54,594.251 721.132,598.952 713.022,599.114 
									"/>
				
					<path clip-path="url(#SVGID_14_)" fill="none" stroke="#1E1E1C" stroke-width="3.2428" stroke-linecap="round" stroke-linejoin="round" d="
					M723.566,595.549l-2.919,3.565l-6.003-0.162 M796.24,599.6c4.479,0,8.111,3.628,8.111,8.104c0,4.475-3.632,8.103-8.111,8.103
					s-8.111-3.628-8.111-8.103C788.128,603.228,791.761,599.6,796.24,599.6z M731.677,599.6c4.479,0,8.111,3.628,8.111,8.104
					c0,4.475-3.632,8.103-8.111,8.103c-4.479,0-8.111-3.628-8.111-8.103C723.566,603.228,727.198,599.6,731.677,599.6z
					 M744.005,590.686l48.989-0.323v-7.293 M716.753,609.324c-1.46-0.325-2.758-0.811-2.92-1.62
					c-0.163-1.622-0.488-6.16-0.488-8.267c0-0.811,0.162-1.782,0.65-2.43c1.785-3.242,7.786-11.021,24.17-10.373l16.708-11.183
					c0.811-0.486,1.785-0.811,2.595-0.811l31.794-0.163c0.488,0,0.974,0,1.46,0.163c3.568,0.974,18.979,6.482,16.87,20.42
					l1.785,0.974c0.812,0.323,1.459,1.134,1.622,1.943c0.648,2.27,0.487,4.701-0.325,6.97 M780.829,608.676l-33.417,0.648"/>
				<path clip-path="url(#SVGID_14_)" fill="#AFCB36" d="M680.662,342.756c-0.826,0.002-1.649,0.053-2.47,0.148l-1.094,0.113
					l-0.513-0.972c-4.337-8.177-13.789-13.463-24.097-13.463c-14.642,0-26.554,10.374-26.554,23.125
					c0.003,0.835,0.058,1.671,0.161,2.5l0.164,1.335l-1.285,0.408c-6.513,2.061-10.72,6.783-10.72,12.025
					c0,7.206,7.87,13.065,17.541,13.065c3.738,0.038,7.42-0.905,10.68-2.736l0.959-0.554l0.308,0.246l0.556,0.446
					c4.404,3.512,11.49,5.611,18.952,5.611c12.593,0,23.231-5.982,23.231-13.064c-0.003-0.44-0.046-0.875-0.128-1.305l-0.223-1.216
					l-0.036-0.192l1.367-0.43c6.522-2.06,10.739-6.781,10.739-12.033C698.205,348.622,690.334,342.756,680.662,342.756"/>
				<path clip-path="url(#SVGID_14_)" fill="#5C9D33" d="M661.046,359.394c0,0,7.976,11.881,25.051,8.896l1.446,5.789l-6.489,7.977
					l-14.946,3.292l-19.677-4.142l-2.994-3.443C651.871,374.746,658.395,367.944,661.046,359.394"/>
				
					<path clip-path="url(#SVGID_14_)" fill="none" stroke="#000303" stroke-width="3.2428" stroke-linecap="round" stroke-linejoin="round" d="
					M655.079,399.553l7.086-7.366 M655.079,417.652v-18.099l-12.377-12.181"/>
				
					<path clip-path="url(#SVGID_14_)" fill="none" stroke="#000303" stroke-width="3.2428" stroke-linecap="round" stroke-miterlimit="10" d="
					M699.827,355.79c0-8.102-8.579-14.685-19.162-14.685c-0.886,0.007-1.769,0.062-2.647,0.163
					c-4.482-8.454-14.213-14.325-25.529-14.325c-15.562,0-28.176,11.08-28.176,24.745c0.003,0.902,0.061,1.804,0.175,2.7
					c-6.956,2.204-11.85,7.449-11.85,13.571c0,8.104,8.58,14.685,19.162,14.685c4.024,0.036,7.985-0.984,11.492-2.951
					c4.526,3.61,11.772,5.964,19.963,5.964c13.725,0,24.851-6.575,24.851-14.686c-0.001-0.535-0.054-1.07-0.152-1.598
					C694.917,367.171,699.827,361.921,699.827,355.79z"/>
				<path clip-path="url(#SVGID_14_)" fill="#AFCB36" d="M680.662,540.911c-0.826,0.004-1.649,0.053-2.47,0.147l-1.094,0.115
					l-0.513-0.974c-4.337-8.177-13.789-13.461-24.097-13.461c-14.642,0-26.554,10.372-26.554,23.123
					c0.003,0.834,0.058,1.673,0.161,2.5l0.164,1.336l-1.285,0.407c-6.513,2.062-10.72,6.785-10.72,12.027
					c0,7.205,7.87,13.063,17.541,13.063c3.738,0.039,7.42-0.904,10.68-2.734l0.959-0.555l0.308,0.246l0.556,0.446
					c4.404,3.511,11.49,5.609,18.952,5.609c12.593,0,23.231-5.98,23.231-13.062c-0.003-0.438-0.046-0.874-0.128-1.306l-0.223-1.215
					l-0.036-0.192l1.367-0.43c6.522-2.06,10.739-6.782,10.739-12.033C698.205,546.777,690.334,540.911,680.662,540.911"/>
				<path clip-path="url(#SVGID_14_)" fill="#5C9D33" d="M661.046,557.551c0,0,7.976,11.88,25.051,8.896l1.446,5.786l-6.489,7.978
					l-14.946,3.294l-19.677-4.142l-2.994-3.445C651.871,572.9,658.395,566.1,661.046,557.551"/>
				
					<path clip-path="url(#SVGID_14_)" fill="none" stroke="#000303" stroke-width="3.2428" stroke-linecap="round" stroke-linejoin="round" d="
					M655.079,597.709l7.086-7.366 M655.079,615.807v-18.098l-12.377-12.183"/>
				
					<path clip-path="url(#SVGID_14_)" fill="none" stroke="#000303" stroke-width="3.2428" stroke-linecap="round" stroke-miterlimit="10" d="
					M699.827,553.945c0-8.103-8.579-14.685-19.162-14.685c-0.886,0.006-1.769,0.061-2.647,0.161
					c-4.482-8.454-14.213-14.324-25.529-14.324c-15.562,0-28.176,11.079-28.176,24.744c0.003,0.902,0.061,1.806,0.175,2.701
					c-6.956,2.203-11.85,7.448-11.85,13.571c0,8.104,8.58,14.685,19.162,14.685c4.024,0.036,7.985-0.982,11.492-2.951
					c4.526,3.61,11.772,5.965,19.963,5.965c13.725,0,24.851-6.574,24.851-14.685c-0.001-0.536-0.054-1.071-0.152-1.599
					C694.917,565.325,699.827,560.077,699.827,553.945z"/>
				<polygon clip-path="url(#SVGID_14_)" fill="#A57838" points="875.793,357.278 875.746,386.649 877.695,392.52 877.656,417.975 
					875.695,417.977 869.814,417.987 867.854,417.991 867.896,392.536 869.867,386.658 869.913,357.287 				"/>
				<polygon clip-path="url(#SVGID_14_)" fill="#A57838" points="875.777,330.596 875.746,335.714 869.865,335.714 869.897,330.596 
									"/>
				<path clip-path="url(#SVGID_14_)" fill="#D0CECE" d="M910.104,355.443c-3.205-7.538-18.411-13.247-36.688-13.247
					c-18.448,0-33.771,5.815-36.776,13.458l12.918-2.451c15.768-2.989,31.953-3.032,47.738-0.121L910.104,355.443z"/>
				
					<path clip-path="url(#SVGID_14_)" fill="none" stroke="#000000" stroke-width="3.2428" stroke-linecap="round" stroke-linejoin="round" stroke-miterlimit="10" d="
					M910.104,355.042c-3.201-7.539-18.409-13.247-36.688-13.247c-18.448,0-33.769,5.817-36.776,13.457l12.918-2.449
					c15.77-2.989,31.955-3.032,47.736-0.122L910.104,355.042z M875.777,330.194l-0.031,5.119h-5.879l0.031-5.119H875.777z
					 M875.793,356.876l-0.047,29.371l1.951,5.872l-0.041,25.454l-1.961,0.003l-5.881,0.009l-1.96,0.004l0.042-25.455l1.971-5.878
					l0.046-29.368L875.793,356.876z"/>
				<polygon clip-path="url(#SVGID_14_)" fill="#A57838" points="767.223,750.344 767.175,779.713 769.125,785.584 769.086,811.039 
					767.126,811.042 761.247,811.05 759.286,811.055 759.325,785.599 761.297,779.724 761.342,750.353 				"/>
				<polygon clip-path="url(#SVGID_14_)" fill="#A57838" points="767.207,723.661 767.175,728.78 761.294,728.78 761.326,723.661 
									"/>
				<path clip-path="url(#SVGID_14_)" fill="#D0CECE" d="M801.535,748.507c-3.205-7.535-18.412-13.246-36.689-13.246
					c-18.447,0-33.768,5.817-36.776,13.459l12.919-2.452c15.766-2.988,31.951-3.032,47.737-0.122L801.535,748.507z"/>
				
					<path clip-path="url(#SVGID_14_)" fill="none" stroke="#000000" stroke-width="3.2428" stroke-linecap="round" stroke-linejoin="round" stroke-miterlimit="10" d="
					M801.533,748.107c-3.201-7.539-18.408-13.247-36.688-13.247c-18.447,0-33.768,5.816-36.776,13.455l12.919-2.447
					c15.77-2.99,31.954-3.032,47.736-0.123L801.533,748.107z M767.207,723.259l-0.032,5.118h-5.878l0.032-5.118H767.207z
					 M767.223,749.941l-0.047,29.371l1.951,5.869l-0.04,25.456l-1.96,0.002l-5.88,0.01l-1.961,0.005l0.04-25.457l1.972-5.876
					l0.045-29.371L767.223,749.941z"/>
				<path clip-path="url(#SVGID_14_)" fill="#FFFFFF" d="M656.232,213.046c-22.962,0-41.573-10.913-41.573-24.376
					c0-13.461,18.611-24.376,41.573-24.376c22.959,0,41.572,10.915,41.572,24.376C697.805,202.133,679.192,213.046,656.232,213.046"
					/>
				<path clip-path="url(#SVGID_14_)" fill="#A27838" d="M675.022,188.11c0,10.204-8.279,18.476-18.492,18.476
					s-18.493-8.272-18.493-18.476s8.281-18.476,18.493-18.476S675.022,177.906,675.022,188.11"/>
				<path clip-path="url(#SVGID_14_)" d="M666.611,188.11c0,5.562-4.512,10.073-10.081,10.073s-10.083-4.511-10.083-10.073
					c0-5.562,4.515-10.072,10.083-10.072S666.611,182.548,666.611,188.11"/>
				
					<path clip-path="url(#SVGID_14_)" fill="none" stroke="#1C1C1C" stroke-width="3.2428" stroke-linecap="round" stroke-linejoin="round" stroke-miterlimit="10" d="
					M674.83,188.119c0,10.025-8.193,18.151-18.304,18.151c-10.106,0-18.301-8.126-18.301-18.151
					c0-10.023,8.194-18.152,18.301-18.152C666.637,169.967,674.83,178.096,674.83,188.119z M666.505,188.119
					c0,5.465-4.467,9.897-9.979,9.897c-5.511,0-9.977-4.432-9.977-9.897s4.466-9.895,9.977-9.895
					C662.038,178.224,666.505,182.654,666.505,188.119z M656.232,212.618c-22.725,0-41.145-10.722-41.145-23.947
					c0-13.227,18.42-23.948,41.145-23.948c22.724,0,41.144,10.721,41.144,23.948C697.376,201.896,678.957,212.618,656.232,212.618z"
					/>
				<path clip-path="url(#SVGID_14_)" fill="#FFFFFF" d="M686.37,780.013c0,17.223-13.974,31.186-31.216,31.186
					c-17.237,0-31.212-13.963-31.212-31.186H686.37z"/>
				<path clip-path="url(#SVGID_14_)" fill="#D0CECB" d="M670.225,780.013c0,17.223-4.306,31.186-13.992,31.186
					c17.238,0,31.214-13.963,31.214-31.186H670.225z"/>
				<path clip-path="url(#SVGID_14_)" fill="#FFFFFF" d="M684.62,775.612c0.162-0.441,0.182-0.935,0-1.408
					c-0.134-0.344-0.356-0.628-0.629-0.851c0.511-0.551,0.704-1.346,0.419-2.091c-0.325-0.847-1.16-1.354-2.039-1.33
					c0.201-0.464,0.232-1.003,0.035-1.51c-0.195-0.517-0.584-0.903-1.054-1.126c0.24-0.487,0.288-1.064,0.079-1.61
					c-0.346-0.907-1.279-1.425-2.223-1.318c0.151-0.43,0.174-0.91-0.004-1.371c-0.409-1.064-1.626-1.606-2.718-1.211
					c-0.099,0.036-0.187,0.086-0.278,0.135c0.069-0.355,0.049-0.732-0.09-1.098c-0.222-0.579-0.686-0.997-1.235-1.2
					c0.279-0.502,0.351-1.113,0.128-1.693c-0.409-1.062-1.623-1.604-2.717-1.209c-0.374,0.138-0.678,0.37-0.91,0.652
					c-0.021-0.096-0.043-0.194-0.079-0.291c-0.321-0.842-1.15-1.346-2.023-1.331c0.098-0.388,0.083-0.802-0.072-1.202
					c-0.408-1.064-1.624-1.607-2.717-1.208c-0.375,0.135-0.68,0.366-0.913,0.652c-0.02-0.098-0.04-0.197-0.078-0.296
					c-0.353-0.923-1.316-1.447-2.276-1.316c-0.385-0.517-1.005-0.856-1.713-0.856c-0.921,0-1.695,0.577-1.985,1.379
					c-0.337-0.223-0.745-0.35-1.182-0.35c-0.095,0-0.187,0.015-0.277,0.025c-0.362-0.627-1.045-1.055-1.835-1.055
					c-0.792,0-1.472,0.428-1.836,1.055c-0.089-0.011-0.182-0.025-0.277-0.025c-0.438,0-0.845,0.127-1.183,0.35
					c-0.287-0.802-1.063-1.379-1.985-1.379c-0.707,0-1.329,0.34-1.712,0.856c-0.963-0.131-1.924,0.394-2.277,1.316
					c-0.037,0.099-0.058,0.198-0.079,0.296c-0.233-0.286-0.536-0.518-0.911-0.652c-1.092-0.399-2.309,0.144-2.717,1.208
					c-0.152,0.4-0.168,0.814-0.073,1.202c-0.873-0.015-1.699,0.489-2.022,1.331c-0.038,0.097-0.058,0.195-0.078,0.291
					c-0.232-0.282-0.538-0.515-0.912-0.652c-1.094-0.396-2.309,0.147-2.718,1.209c-0.221,0.58-0.149,1.191,0.13,1.693
					c-0.55,0.203-1.014,0.621-1.237,1.2c-0.139,0.365-0.158,0.742-0.09,1.098c-0.089-0.049-0.177-0.099-0.279-0.135
					c-1.09-0.396-2.309,0.146-2.714,1.211c-0.179,0.461-0.158,0.941-0.005,1.371c-0.944-0.106-1.876,0.411-2.224,1.318
					c-0.21,0.546-0.163,1.123,0.079,1.61c-0.471,0.223-0.857,0.609-1.055,1.126c-0.195,0.507-0.163,1.046,0.038,1.51
					c-0.879-0.023-1.717,0.483-2.04,1.33c-0.286,0.745-0.093,1.54,0.418,2.091c-0.272,0.223-0.497,0.507-0.631,0.851
					c-0.179,0.474-0.162,0.967,0.003,1.408"/>
				
					<path clip-path="url(#SVGID_14_)" fill="none" stroke="#1C1C1C" stroke-width="3.2428" stroke-linecap="round" stroke-linejoin="round" stroke-miterlimit="10" d="
					M684.62,775.612c0.162-0.441,0.182-0.935,0-1.408c-0.134-0.344-0.356-0.628-0.629-0.851c0.511-0.551,0.704-1.346,0.419-2.091
					c-0.325-0.847-1.16-1.354-2.039-1.33c0.201-0.464,0.232-1.003,0.035-1.51c-0.195-0.517-0.584-0.903-1.053-1.126
					c0.239-0.487,0.286-1.064,0.078-1.61c-0.346-0.907-1.279-1.425-2.223-1.318c0.151-0.43,0.174-0.91-0.004-1.371
					c-0.409-1.064-1.626-1.609-2.718-1.211c-0.099,0.036-0.187,0.086-0.278,0.135c0.069-0.355,0.049-0.732-0.09-1.098
					c-0.222-0.579-0.686-0.997-1.235-1.2c0.279-0.502,0.351-1.113,0.128-1.693c-0.409-1.062-1.623-1.604-2.717-1.209
					c-0.374,0.138-0.678,0.37-0.91,0.652c-0.021-0.096-0.043-0.194-0.079-0.293c-0.321-0.84-1.148-1.344-2.023-1.329
					c0.098-0.388,0.083-0.802-0.072-1.202c-0.408-1.064-1.624-1.607-2.717-1.208c-0.375,0.135-0.68,0.366-0.913,0.652
					c-0.02-0.098-0.04-0.197-0.078-0.296c-0.353-0.923-1.316-1.447-2.276-1.316c-0.385-0.517-1.005-0.856-1.713-0.856
					c-0.921,0-1.695,0.577-1.985,1.379c-0.337-0.223-0.745-0.35-1.182-0.35c-0.095,0-0.187,0.015-0.277,0.025
					c-0.362-0.627-1.045-1.055-1.835-1.055c-0.792,0-1.472,0.428-1.836,1.055c-0.089-0.011-0.182-0.025-0.277-0.025
					c-0.438,0-0.844,0.127-1.181,0.35c-0.289-0.802-1.063-1.379-1.986-1.379c-0.707,0-1.329,0.34-1.712,0.856
					c-0.963-0.131-1.924,0.394-2.277,1.316c-0.037,0.099-0.058,0.198-0.079,0.296c-0.233-0.286-0.536-0.518-0.911-0.652
					c-1.092-0.399-2.309,0.144-2.716,1.208c-0.153,0.4-0.169,0.814-0.074,1.202c-0.873-0.015-1.699,0.489-2.022,1.329
					c-0.038,0.099-0.058,0.197-0.078,0.293c-0.232-0.282-0.538-0.515-0.912-0.652c-1.094-0.396-2.309,0.147-2.718,1.209
					c-0.221,0.58-0.149,1.191,0.13,1.693c-0.55,0.203-1.014,0.621-1.237,1.2c-0.139,0.365-0.158,0.742-0.089,1.098
					c-0.09-0.049-0.178-0.099-0.28-0.135c-1.09-0.398-2.309,0.146-2.714,1.211c-0.179,0.461-0.158,0.941-0.005,1.371
					c-0.944-0.106-1.876,0.411-2.224,1.318c-0.208,0.546-0.163,1.123,0.079,1.61c-0.471,0.223-0.857,0.609-1.055,1.126
					c-0.195,0.507-0.163,1.046,0.038,1.51c-0.879-0.023-1.717,0.483-2.04,1.33c-0.286,0.745-0.093,1.54,0.418,2.091
					c-0.272,0.223-0.497,0.507-0.631,0.851c-0.179,0.474-0.162,0.967,0.003,1.408"/>
				
					<path clip-path="url(#SVGID_14_)" fill="none" stroke="#1C1C1C" stroke-width="3.2428" stroke-linecap="round" stroke-linejoin="round" stroke-miterlimit="10" d="
					M686.9,780.558c0,16.622-13.729,30.096-30.668,30.096c-16.938,0-30.67-13.474-30.67-30.096H686.9z"/>
				
					<polyline clip-path="url(#SVGID_14_)" fill="none" stroke="#000000" stroke-width="3.2428" stroke-linecap="round" stroke-linejoin="round" stroke-miterlimit="10" points="
					873.249,558.269 873.249,548.654 866.958,542.225 				"/>
				<path clip-path="url(#SVGID_14_)" fill="#AFCB33" d="M886.146,560.221c4.875-2.643,10.119-3.093,14.775-0.771
					c10.184,5.101,13.735,21.504,7.955,36.638c-5.778,15.147-18.71,23.291-28.879,18.191c-0.73-0.368-1.426-0.793-2.088-1.271
					c-1.924-1.391-4.565-1.391-6.488-0.001c-0.663,0.479-1.361,0.903-2.094,1.271c-10.184,5.1-23.116-3.044-28.895-18.191
					c-5.778-15.134-2.211-31.537,7.955-36.638c4.659-2.322,9.884-1.889,14.742,0.737c0,0,0.085,0.049,0.252,0.135
					c1.105,0.586,5.862,2.927,10.619,2.927c4.742,0,10.555-2.341,11.927-2.927C886.029,560.271,886.098,560.236,886.146,560.221"/>
				
					<path clip-path="url(#SVGID_14_)" fill="none" stroke="#000000" stroke-width="3.2428" stroke-linecap="round" stroke-linejoin="round" stroke-miterlimit="10" d="
					M886.146,560.221c4.877-2.643,10.119-3.093,14.775-0.771c10.184,5.101,13.735,21.504,7.955,36.636
					c-5.778,15.149-18.71,23.293-28.879,18.193c-0.73-0.368-1.426-0.793-2.088-1.271c-1.924-1.391-4.565-1.391-6.488-0.001
					c-0.663,0.479-1.361,0.903-2.094,1.271c-10.184,5.1-23.115-3.044-28.895-18.193c-5.778-15.132-2.211-31.535,7.955-36.636
					c4.659-2.322,9.884-1.889,14.742,0.737c0,0,0.085,0.049,0.252,0.135c1.106,0.586,5.862,2.927,10.619,2.927
					c4.742,0,10.555-2.341,11.927-2.927C886.029,560.271,886.098,560.236,886.146,560.221"/>
				<path clip-path="url(#SVGID_14_)" fill="#F6AF33" d="M862.682,615.925l-0.229,0.07c0,0,0.016-0.027,0.058-0.083
					C862.568,615.925,862.625,615.925,862.682,615.925"/>
				<path clip-path="url(#SVGID_14_)" fill="#F6AF33" d="M883.883,615.685c0.057,0.014,0.098,0.028,0.154,0.041
					c-0.126,0.1-0.184,0.155-0.184,0.155L883.883,615.685z"/>
				<path clip-path="url(#SVGID_14_)" fill="#F6AF33" d="M894.342,557.839c-0.129-0.014-0.242,0-0.37,0.012l0.06-0.339
					C894.144,557.627,894.243,557.726,894.342,557.839"/>
				<path clip-path="url(#SVGID_14_)" fill="#5C9D30" d="M874.398,612.156l-0.329,0.093c-0.913,0.079-1.826,0.33-2.619,0.774
					c-0.103,0.053-0.222,0.118-0.327,0.186c-0.704,0.445-1.438,0.84-2.213,1.178c-2.229,0.986-4.592,1.434-6.984,1.419
					c-0.061,0-0.119,0-0.182-0.014C862.18,615.281,865.141,612.156,874.398,612.156"/>
				
					<path clip-path="url(#SVGID_14_)" fill="none" stroke="#5C9D30" stroke-width="3.2428" stroke-linejoin="round" stroke-miterlimit="10" d="
					M874.398,612.156l-0.329,0.093c-0.913,0.079-1.826,0.33-2.619,0.774c-0.103,0.053-0.222,0.118-0.327,0.186
					c-0.704,0.445-1.436,0.84-2.213,1.178c-2.229,0.986-4.592,1.434-6.984,1.419c-0.061,0-0.119,0-0.182-0.014
					C862.18,615.281,865.141,612.156,874.398,612.156z"/>
				<path clip-path="url(#SVGID_14_)" fill="#5C9D30" d="M908.888,596.079c-5.018,13.216-16.794,24.118-31.948,16.235
					c12.363,2.676,43.139-28.083,17.402-54.356c2.27-0.044,4.51,0.437,6.623,1.495C911.113,564.549,914.652,580.957,908.888,596.079
					"/>
				
					<path clip-path="url(#SVGID_14_)" fill="none" stroke="#5C9D30" stroke-width="3.2428" stroke-linejoin="round" stroke-miterlimit="10" d="
					M908.888,596.079c-5.019,13.216-16.796,24.118-31.946,16.235c12.361,2.676,43.137-28.083,17.4-54.356
					c2.27-0.044,4.51,0.437,6.623,1.495C911.113,564.549,914.652,580.957,908.888,596.079z"/>
				
					<path clip-path="url(#SVGID_14_)" fill="none" stroke="#EA5947" stroke-width="3.2428" stroke-linecap="round" stroke-linejoin="round" stroke-miterlimit="10" d="
					M883.845,615.562c0.062,0.016,0.108,0.031,0.17,0.045h0.016"/>
				
					<path clip-path="url(#SVGID_14_)" fill="none" stroke="#000000" stroke-width="3.2428" stroke-linecap="round" stroke-linejoin="round" stroke-miterlimit="10" d="
					M905.616,563.068c6.444,7.147,8.037,20.517,3.263,33.018c-5.778,15.149-18.711,23.293-28.88,18.193
					c-0.729-0.368-1.429-0.793-2.088-1.271c-1.924-1.391-4.563-1.391-6.488-0.001c-0.665,0.479-1.36,0.903-2.094,1.271
					c-10.183,5.1-23.114-3.044-28.895-18.193c-5.778-15.132-2.212-31.535,7.955-36.636c4.658-2.322,9.886-1.889,14.742,0.737
					c0,0,0.083,0.051,0.253,0.135c1.104,0.586,5.861,2.927,10.619,2.927c1.935,0,4.047-0.391,5.959-0.892"/>
				<path clip-path="url(#SVGID_14_)" fill="#AFCB33" d="M891.012,551.074c5.888,1.953,10.186,8.548,10.186,8.548
					s-7.461,2.697-13.348,0.746c-5.879-1.951-10.187-8.552-10.187-8.552S885.131,549.125,891.012,551.074"/>
				
					<path clip-path="url(#SVGID_14_)" fill="none" stroke="#000000" stroke-width="3.2428" stroke-linecap="round" stroke-linejoin="round" stroke-miterlimit="10" d="
					M891.012,551.074c5.888,1.953,10.186,8.548,10.186,8.548s-7.461,2.697-13.35,0.746c-5.878-1.951-10.185-8.552-10.185-8.552
					S885.131,549.125,891.012,551.074z"/>
				<path clip-path="url(#SVGID_14_)" fill="#EA5947" d="M885.492,192.02l-15.145,15.133c-6.029,6.035-15.904,6.035-21.936,0
					c-3.013-3.012-4.524-6.982-4.524-10.956c0-3.974,1.512-7.946,4.524-10.958l15.147-15.133L885.492,192.02z"/>
				<path clip-path="url(#SVGID_14_)" fill="#009DE2" d="M861.748,170.108l16.056-16.038c3.155-3.163,7.373-4.903,11.872-4.903
					c4.5,0,8.715,1.74,11.873,4.903c3.161,3.156,4.904,7.369,4.904,11.86c0,4.493-1.743,8.704-4.906,11.862l-16.053,16.04
					L861.748,170.108z"/>
				<path clip-path="url(#SVGID_14_)" fill="#009DE2" d="M889.676,147.884c-4.844,0-9.383,1.875-12.781,5.28l-15.146,15.131
					l-1.814,1.812l1.814,1.812l21.932,21.913l1.812,1.812l1.816-1.812l15.146-15.133c3.403-3.402,5.277-7.937,5.277-12.77
					c0-4.833-1.874-9.366-5.277-12.767C899.056,149.759,894.518,147.884,889.676,147.884 M889.676,150.448
					c3.975,0,7.952,1.508,10.964,4.526c3.015,3.012,4.529,6.985,4.529,10.956c0,3.972-1.515,7.946-4.529,10.958l-15.147,15.132
					l-21.93-21.912l15.146-15.133C881.723,151.956,885.697,150.448,889.676,150.448"/>
				<path clip-path="url(#SVGID_14_)" fill="#1C1C1C" d="M889.674,147.889c-4.842,0-9.379,1.873-12.779,5.272l-30.297,30.266
					c-7.047,7.043-7.047,18.5,0,25.542c3.403,3.398,7.941,5.271,12.783,5.271c4.84,0,9.38-1.874,12.783-5.271l30.292-30.267
					c7.051-7.041,7.051-18.5,0-25.541C899.053,149.761,894.515,147.889,889.674,147.889 M889.674,150.453
					c3.977,0,7.954,1.506,10.969,4.519c6.033,6.028,6.033,15.89,0,21.918l-30.295,30.266c-3.016,3.014-6.99,4.521-10.967,4.521
					c-3.976,0-7.954-1.506-10.969-4.521h-0.002c-6.029-6.027-6.029-15.889,0-21.917l30.296-30.267
					C881.723,151.958,885.697,150.453,889.674,150.453"/>
				
					<line clip-path="url(#SVGID_14_)" fill="none" stroke="#1C1C1C" stroke-width="3.2428" stroke-linecap="round" stroke-miterlimit="10" x1="866.067" y1="175" x2="880.582" y2="189.5"/>
				<path clip-path="url(#SVGID_14_)" fill="#DFB466" d="M896.261,786.781c0,13.463-10.247,24.348-22.888,24.348
					s-22.888-10.912-22.888-24.373c0,0-0.252-16.361,19.061-45.95c0,0,3.624-6.141,7.271-0.402
					C896.131,769.99,896.261,786.781,896.261,786.781"/>
				<path clip-path="url(#SVGID_14_)" fill="#C68140" d="M873.373,737.952c14.734,11.862,22.743,46.734,22.743,46.734
					c0,17.15-10.105,26.441-22.743,26.441C873.373,811.128,898.551,790.404,873.373,737.952"/>
				
					<path clip-path="url(#SVGID_14_)" fill="none" stroke="#000000" stroke-width="3.2428" stroke-linecap="round" stroke-linejoin="round" stroke-miterlimit="10" d="
					M895.783,786.622c0,13.287-10.033,24.031-22.41,24.031s-22.408-10.771-22.408-24.059c0,0-0.246-16.145,18.661-45.348
					c0,0,3.548-6.062,7.119-0.398C895.652,770.05,895.783,786.622,895.783,786.622"/>
			</g>
		</g>
	</g>
</g>
<g>
</g>
<g>
</g>
<g>
</g>
<g>
</g>
<g>
</g>
<g>
</g>
<g>
</g>
<g>
</g>
<g>
</g>
<g>
</g>
<g>
</g>
<g>
</g>
<g>
</g>
<g>
</g>
<g>
</g>
</svg>
