<svg id="Ebene_1" data-name="Ebene 1" xmlns="http://www.w3.org/2000/svg" viewBox="0 0 1920 1080">
  <path d="M752.3686,622.9866l-5.0227-4.8207C733.8446,605.2211,727,591.2483,727,576.63,727,519.6405,833.82,475,970.1871,475s243.1871,44.64,243.1871,101.63c0,14.6179-6.8481,28.5907-20.3459,41.5355l-5.0262,4.8207-5.0263-4.8207c-35.5026-34.0528-119.0272-56.0541-212.7887-56.0541S792.901,584.1131,757.3948,618.1659Zm217.8185-75.3934c92.9391,0,176.9033,21.5192,217.418,55.253,7.472-8.5779,11.2505-17.3756,11.2505-26.2158,0-47.221-104.7142-87.1118-228.6685-87.1118-123.9507,0-228.6685,39.8908-228.6685,87.1118,0,8.8367,3.7786,17.6344,11.247,26.2158C793.2873,569.1124,877.2516,547.5932,970.1871,547.5932Z"/>
  <rect y="-6" width="1920" height="1086" fill="#b1cc33"/>
  <g>
    <g id="color">
      <ellipse cx="975.5147" cy="601.7601" rx="187.7381" ry="77.9835" fill="#a57939"/>
      <path d="M975.5147,581.5421c78.0944,0,145.0332,19.0771,173.3274,46.2125,9.2719-8.8924,14.4107-18.6467,14.4107-28.8828,0-41.4739-84.0529-75.0952-187.7381-75.0952s-187.7381,33.6213-187.7381,75.0952c0,10.2361,5.1388,19.99,14.4107,28.8828C830.4815,600.6192,897.42,581.5421,975.5147,581.5421Z" fill="#6a462f"/>
    </g>
    <g id="line">
      <path d="M975.5147,685.52C867.0012,685.52,782,648.7285,782,601.76S867.0012,518,975.5147,518s193.5147,36.7917,193.5147,83.76S1084.0282,685.52,975.5147,685.52Zm0-155.9671c-98.633,0-181.9616,33.0657-181.9616,72.207,0,39.1384,83.3286,72.207,181.9616,72.207,98.6359,0,181.9616-33.0686,181.9616-72.207C1157.4763,562.6188,1074.1506,529.5531,975.5147,529.5531Z"/>
      <path d="M802.1869,635.7594l-3.9967-3.836C787.4465,621.6227,782,610.5039,782,598.8718,782,553.5224,867.0012,518,975.5147,518s193.5147,35.5224,193.5147,80.8718c0,11.6321-5.4494,22.7509-16.19,33.0516l-4,3.836-4-3.836c-28.251-27.0973-94.7153-44.6047-169.3254-44.6047S834.44,604.8261,806.1865,631.9234Zm173.3278-59.9938c73.9557,0,140.77,17.1238,173.009,43.9673,5.9458-6.8259,8.9526-13.8265,8.9526-20.8611,0-37.5758-83.3257-69.3187-181.9616-69.3187-98.633,0-181.9616,31.7429-181.9616,69.3187,0,7.0317,3.0068,14.0324,8.95,20.8611C834.7478,592.8894,901.5618,575.7656,975.5147,575.7656Z"/>
    </g>
  </g>
  <g>
    <g id="color-2" data-name="color">
      <path d="M956.85,503.63s16.9463-20.1656,45.07,1.8066l-2.7184,51.3184,17.4665,27.1275s20.4346,24.535,21.5492,27.8722,7.8023,35.2893,7.0591,36.7757-20.8064,29.3515-20.8064,29.3515l-89.9122-1.62-14.1187-25.4267,2.6006-49.49,24.893-23.0356L960.5652,547.1Z" fill="#fff" stroke="#000" stroke-miterlimit="10" stroke-width="0.25"/>
      <path d="M996.2339,502.5156s-21.5491,66.1339,20.8064,96.6c0,0,37.1538,34.1818.7432,75.7941l26.7508-4.4585,16.3479-11.8894,11.1462-27.4941-3.7153-23.7783-23.0356-32.6954-3.7152-4.4585s-12.6322-12.6322.7432-24.5216l28.2369-32.6953,20.0631-35.6678,11.8894-31.2093,2.2292-37.1538L1086.89,404.43l-25.2649,4.4585-26.0076,22.2924-17.8339,27.4941-11.8894,28.2368Z" fill="#3f3f3f" stroke="#000" stroke-miterlimit="10" stroke-width="0.25"/>
      <path d="M962.1435,502.5156s21.5492,66.1339-20.8063,96.6c0,0-37.1538,34.1818-.7433,75.7941l-26.7508-4.4585-16.3479-11.8894L886.349,631.0681l3.7153-23.7783L913.1,574.5944l3.7152-4.4585s12.6322-12.6322-.7432-24.5216L887.835,512.919l-20.0631-35.6678-11.8894-31.2093-2.2292-37.1538,17.8339-4.4585,25.2648,4.4585L922.76,431.1805l17.8339,27.4941,11.8894,28.2368Z" fill="#3f3f3f" stroke="#000" stroke-miterlimit="10" stroke-width="0.25"/>
    </g>
    <g id="line-2" data-name="line">
      <path d="M1014.2093,515.529a4.4012,4.4012,0,0,1-.9318-.098,4.4607,4.4607,0,0,1-3.4352-5.2879c19.6538-92.424,76.8477-92.1127,79.3033-92.0648a4.458,4.458,0,0,1-.1088,8.9147c-.061,0-.1176-.0021-.24-.0021-3.6661,0-52.5046,1.6131-70.23,85.007A4.4633,4.4633,0,0,1,1014.2093,515.529Z" stroke="#000" stroke-miterlimit="10" stroke-width="0.25"/>
      <path d="M978.781,623.795a4.4517,4.4517,0,0,1-2.4165-.71L952.8421,607.92a4.46,4.46,0,0,1,4.833-7.4975L978.7614,614.02,999.48,600.4446a4.4561,4.4561,0,1,1,4.8851,7.454l-23.1392,15.165A4.4483,4.4483,0,0,1,978.781,623.795Z" stroke="#000" stroke-miterlimit="10" stroke-width="0.25"/>
      <path d="M999.1968,655.2961a4.4382,4.4382,0,0,1-1.79-.3788l-18.7765-8.2552-17.8862,8.2247a4.4574,4.4574,0,1,1-3.727-8.0984l19.7083-9.065a4.4293,4.4293,0,0,1,3.6573-.03l20.6118,9.065a4.4579,4.4579,0,0,1-1.7982,8.5382Z" stroke="#000" stroke-miterlimit="10" stroke-width="0.25"/>
      <path d="M978.5894,646.2311h-.037a4.458,4.458,0,0,1-4.4215-4.4977l.1916-22.436a4.46,4.46,0,0,1,4.4585-4.4193h.037a4.4578,4.4578,0,0,1,4.4214,4.4976l-.1915,22.4361A4.46,4.46,0,0,1,978.5894,646.2311Z" stroke="#000" stroke-miterlimit="10" stroke-width="0.25"/>
      <ellipse cx="1020.1625" cy="556.7552" rx="7.3391" ry="12.5368" stroke="#000" stroke-miterlimit="10" stroke-width="0.25"/>
      <path d="M1039.5277,547.0213a4.4595,4.4595,0,0,1-2.7474-7.9743c37.24-29.065,52.2826-63.2611,58.3477-86.8292a140.5033,140.5033,0,0,0,4.5281-42.0877,48.1249,48.1249,0,0,0-37.2309,3.5659c-39.373,20.7837-58.7308,90.3733-58.9223,91.0743a4.4563,4.4563,0,0,1-7.0187,2.3621c-17.5182-13.4713-34.1177-.6031-34.8165-.0523a4.4691,4.4691,0,0,1-7.0883-2.31c-.1916-.701-19.5494-70.2906-58.918-91.0743a48.1185,48.1185,0,0,0-37.2244-3.5681c-.7924,14.1352-.6661,79.3317,62.8671,128.9191a4.4584,4.4584,0,0,1-5.486,7.0295c-39.373-30.73-55.2324-67.0164-61.6044-92.0453-6.925-27.2036-4.5108-46.9772-4.4041-47.8045a4.452,4.452,0,0,1,2.9629-3.6464c16.408-5.6863,32.2456-4.5935,47.0665,3.2372,36.2251,19.1357,55.9247,72.9443,61.6153,90.8392,8.41-4.4106,21.746-7.4627,35.191-.0566,5.7168-17.9537,25.4142-71.6643,61.6-90.7805,14.821-7.8284,30.6607-8.9147,47.0665-3.2393a4.4652,4.4652,0,0,1,2.9651,3.6464c.1045.8273,2.5166,20.6009-4.4062,47.8045-6.3743,25.0289-22.2314,61.3149-61.6045,92.0453A4.4385,4.4385,0,0,1,1039.5277,547.0213Z" stroke="#000" stroke-miterlimit="10" stroke-width="0.25"/>
      <path d="M943.8751,515.529a4.4551,4.4551,0,0,1-4.3561-3.5311c-18.1343-85.2922-69.8269-85.0223-70.3625-85.007a4.3608,4.3608,0,0,1-4.5651-4.3475,4.4547,4.4547,0,0,1,4.3474-4.5651c2.4078-.1285,59.643-.405,79.3012,92.0648a4.46,4.46,0,0,1-4.3649,5.3859Z" stroke="#000" stroke-miterlimit="10" stroke-width="0.25"/>
      <path d="M952.2282,680.7189c-45.105.0044-58.328-23.5681-58.8832-24.6-28.8625-46.1609,22.0072-85.4643,22.5253-85.8518a4.4581,4.4581,0,0,1,5.3859,7.1057,88.5419,88.5419,0,0,0-19.8345,22.7321c-10.5171,17.7643-10.6433,35.1061-.37,51.5381.61,1.08,12.4589,21.43,54.982,20.1023h45.8888c42.5079,1.31,54.5031-19.0226,54.9864-19.8846,10.4408-16.7193,10.271-34.1352-.3745-51.9735a88.0423,88.0423,0,0,0-19.7017-22.5144,4.4568,4.4568,0,1,1,5.3815-7.1057c.5181.3875,51.39,39.6909,22.3794,86.1043-.4267.81-14.3855,25.7451-62.8018,24.2908H956.1642C954.8276,680.7015,953.5127,680.7189,952.2282,680.7189Z" stroke="#000" stroke-miterlimit="10" stroke-width="0.25"/>
      <ellipse cx="938.8275" cy="556.7552" rx="7.3391" ry="12.5368" stroke="#000" stroke-miterlimit="10" stroke-width="0.25"/>
    </g>
  </g>
</svg>
