<?xml version="1.0" encoding="utf-8"?>
<!-- Generator: Adobe Illustrator 16.0.0, SVG Export Plug-In . SVG Version: 6.00 Build 0)  -->
<!DOCTYPE svg PUBLIC "-//W3C//DTD SVG 1.1//EN" "http://www.w3.org/Graphics/SVG/1.1/DTD/svg11.dtd">
<svg version="1.1" xmlns="http://www.w3.org/2000/svg" xmlns:xlink="http://www.w3.org/1999/xlink" x="0px" y="0px" width="1600px"
	 height="900px" viewBox="0 0 1600 900" enable-background="new 0 0 1600 900" xml:space="preserve">
<g id="Ebene_3">
</g>
<g id="Ebene_4">
</g>
<g id="Ebene_1">
	<rect x="-42.728" y="-76.802" fill="#CAEFFF" width="1715.702" height="523.467"/>
	<g id="_xD83C__xDFD9__xFE0F__5_">
		<polyline fill="#9B9B9A" points="-26.162,230.983 -26.162,66.035 70.866,66.035 70.866,230.983 		"/>
		<rect x="206.706" y="104.846" fill="#9B9B9A" width="126.137" height="339.6"/>
		<polyline fill="#D0CFCE" stroke="#000000" stroke-width="9.7028" stroke-miterlimit="10" points="371.654,444.445 
			371.654,143.657 526.899,143.657 526.899,444.445 		"/>
		<polyline fill="#D0CFCE" stroke="#000000" stroke-width="9.7028" stroke-miterlimit="10" points="-74.676,444.445 
			-74.676,230.983 255.22,230.983 255.22,444.445 		"/>
		
			<polyline fill="none" stroke="#000000" stroke-width="14.0994" stroke-linecap="round" stroke-linejoin="round" stroke-miterlimit="10" points="
			371.654,434.742 371.654,143.657 526.899,143.657 526.899,434.742 		"/>
		
			<polyline fill="none" stroke="#000000" stroke-width="14.0994" stroke-linecap="round" stroke-linejoin="round" stroke-miterlimit="10" points="
			-74.676,434.742 -74.676,230.983 255.22,230.983 255.22,434.742 		"/>
		
			<polyline fill="none" stroke="#000000" stroke-width="14.0994" stroke-linecap="round" stroke-linejoin="round" stroke-miterlimit="10" points="
			216.409,201.875 216.409,104.846 332.842,104.846 332.842,434.742 		"/>
		
			<polyline fill="none" stroke="#000000" stroke-width="14.0994" stroke-linecap="round" stroke-linejoin="round" stroke-miterlimit="10" points="
			-16.459,201.875 -16.459,66.035 61.163,66.035 61.163,201.875 		"/>
		
			<polyline fill="none" stroke="#000000" stroke-width="14.0994" stroke-linecap="round" stroke-linejoin="round" stroke-miterlimit="10" points="
			429.871,230.983 410.465,230.983 410.465,182.469 		"/>
		
			<polyline fill="none" stroke="#000000" stroke-width="14.0994" stroke-linecap="round" stroke-linejoin="round" stroke-miterlimit="10" points="
			488.087,230.983 468.682,230.983 468.682,182.469 		"/>
		
			<polyline fill="none" stroke="#000000" stroke-width="14.0994" stroke-linecap="round" stroke-linejoin="round" stroke-miterlimit="10" points="
			429.871,328.012 410.465,328.012 410.465,279.497 		"/>
		
			<polyline fill="none" stroke="#000000" stroke-width="14.0994" stroke-linecap="round" stroke-linejoin="round" stroke-miterlimit="10" points="
			488.087,328.012 468.682,328.012 468.682,279.497 		"/>
		
			<polyline fill="none" stroke="#000000" stroke-width="14.0994" stroke-linecap="round" stroke-linejoin="round" stroke-miterlimit="10" points="
			158.191,318.309 138.786,318.309 138.786,269.794 		"/>
		
			<polyline fill="none" stroke="#000000" stroke-width="14.0994" stroke-linecap="round" stroke-linejoin="round" stroke-miterlimit="10" points="
			216.409,318.309 197.003,318.309 197.003,269.794 		"/>
		
			<polyline fill="none" stroke="#000000" stroke-width="14.0994" stroke-linecap="round" stroke-linejoin="round" stroke-miterlimit="10" points="
			158.191,415.337 138.786,415.337 138.786,366.822 		"/>
		
			<polyline fill="none" stroke="#000000" stroke-width="14.0994" stroke-linecap="round" stroke-linejoin="round" stroke-miterlimit="10" points="
			216.409,415.337 197.003,415.337 197.003,366.822 		"/>
		
			<polyline fill="none" stroke="#000000" stroke-width="14.0994" stroke-linecap="round" stroke-linejoin="round" stroke-miterlimit="10" points="
			41.758,318.309 22.352,318.309 22.352,269.794 		"/>
		
			<polyline fill="none" stroke="#000000" stroke-width="14.0994" stroke-linecap="round" stroke-linejoin="round" stroke-miterlimit="10" points="
			99.975,318.309 80.569,318.309 80.569,269.794 		"/>
		
			<polyline fill="none" stroke="#000000" stroke-width="14.0994" stroke-linecap="round" stroke-linejoin="round" stroke-miterlimit="10" points="
			41.758,415.337 22.352,415.337 22.352,366.822 		"/>
		
			<polyline fill="none" stroke="#000000" stroke-width="14.0994" stroke-linecap="round" stroke-linejoin="round" stroke-miterlimit="10" points="
			-16.459,318.309 -35.865,318.309 -35.865,269.794 		"/>
		
			<polyline fill="none" stroke="#000000" stroke-width="14.0994" stroke-linecap="round" stroke-linejoin="round" stroke-miterlimit="10" points="
			-16.459,415.337 -35.865,415.337 -35.865,366.822 		"/>
		
			<polyline fill="none" stroke="#000000" stroke-width="14.0994" stroke-linecap="round" stroke-linejoin="round" stroke-miterlimit="10" points="
			99.975,415.337 80.569,415.337 80.569,366.822 		"/>
		
			<polyline fill="none" stroke="#000000" stroke-width="14.0994" stroke-linecap="round" stroke-linejoin="round" stroke-miterlimit="10" points="
			429.871,425.039 410.465,425.039 410.465,376.525 		"/>
		
			<polyline fill="none" stroke="#000000" stroke-width="14.0994" stroke-linecap="round" stroke-linejoin="round" stroke-miterlimit="10" points="
			488.087,425.039 468.682,425.039 468.682,376.525 		"/>
		
			<line fill="none" stroke="#000000" stroke-width="14.0994" stroke-linecap="round" stroke-linejoin="round" stroke-miterlimit="10" x1="22.352" y1="95.144" x2="22.352" y2="201.875"/>
		
			<line fill="none" stroke="#000000" stroke-width="14.0994" stroke-linecap="round" stroke-linejoin="round" stroke-miterlimit="10" x1="255.22" y1="133.955" x2="255.22" y2="201.875"/>
		
			<line fill="none" stroke="#000000" stroke-width="14.0994" stroke-linecap="round" stroke-linejoin="round" stroke-miterlimit="10" x1="294.031" y1="133.955" x2="294.031" y2="434.742"/>
	</g>
	<g id="_xD83C__xDFD9__xFE0F__4_">
		<polyline fill="#9B9B9A" points="1262.367,230.983 1262.367,66.035 1359.396,66.035 1359.396,230.983 		"/>
		<rect x="1495.235" y="104.846" fill="#9B9B9A" width="126.137" height="339.6"/>
		<polyline fill="#D0CFCE" stroke="#000000" stroke-width="9.7028" stroke-miterlimit="10" points="1660.184,444.445 
			1660.184,143.657 1815.429,143.657 1815.429,444.445 		"/>
		<polyline fill="#D0CFCE" stroke="#000000" stroke-width="9.7028" stroke-miterlimit="10" points="1213.854,444.445 
			1213.854,230.983 1543.75,230.983 1543.75,444.445 		"/>
		
			<polyline fill="none" stroke="#000000" stroke-width="14.0994" stroke-linecap="round" stroke-linejoin="round" stroke-miterlimit="10" points="
			1660.184,434.742 1660.184,143.657 1815.429,143.657 1815.429,434.742 		"/>
		
			<polyline fill="none" stroke="#000000" stroke-width="14.0994" stroke-linecap="round" stroke-linejoin="round" stroke-miterlimit="10" points="
			1213.854,434.742 1213.854,230.983 1543.75,230.983 1543.75,434.742 		"/>
		
			<polyline fill="none" stroke="#000000" stroke-width="14.0994" stroke-linecap="round" stroke-linejoin="round" stroke-miterlimit="10" points="
			1504.938,201.875 1504.938,104.846 1621.372,104.846 1621.372,434.742 		"/>
		
			<polyline fill="none" stroke="#000000" stroke-width="14.0994" stroke-linecap="round" stroke-linejoin="round" stroke-miterlimit="10" points="
			1272.07,201.875 1272.07,66.035 1349.693,66.035 1349.693,201.875 		"/>
		
			<polyline fill="none" stroke="#000000" stroke-width="14.0994" stroke-linecap="round" stroke-linejoin="round" stroke-miterlimit="10" points="
			1718.4,230.983 1698.995,230.983 1698.995,182.469 		"/>
		
			<polyline fill="none" stroke="#000000" stroke-width="14.0994" stroke-linecap="round" stroke-linejoin="round" stroke-miterlimit="10" points="
			1776.617,230.983 1757.212,230.983 1757.212,182.469 		"/>
		
			<polyline fill="none" stroke="#000000" stroke-width="14.0994" stroke-linecap="round" stroke-linejoin="round" stroke-miterlimit="10" points="
			1718.4,328.012 1698.995,328.012 1698.995,279.497 		"/>
		
			<polyline fill="none" stroke="#000000" stroke-width="14.0994" stroke-linecap="round" stroke-linejoin="round" stroke-miterlimit="10" points="
			1776.617,328.012 1757.212,328.012 1757.212,279.497 		"/>
		
			<polyline fill="none" stroke="#000000" stroke-width="14.0994" stroke-linecap="round" stroke-linejoin="round" stroke-miterlimit="10" points="
			1446.722,318.309 1427.315,318.309 1427.315,269.794 		"/>
		
			<polyline fill="none" stroke="#000000" stroke-width="14.0994" stroke-linecap="round" stroke-linejoin="round" stroke-miterlimit="10" points="
			1504.938,318.309 1485.532,318.309 1485.532,269.794 		"/>
		
			<polyline fill="none" stroke="#000000" stroke-width="14.0994" stroke-linecap="round" stroke-linejoin="round" stroke-miterlimit="10" points="
			1446.722,415.337 1427.315,415.337 1427.315,366.822 		"/>
		
			<polyline fill="none" stroke="#000000" stroke-width="14.0994" stroke-linecap="round" stroke-linejoin="round" stroke-miterlimit="10" points="
			1504.938,415.337 1485.532,415.337 1485.532,366.822 		"/>
		
			<polyline fill="none" stroke="#000000" stroke-width="14.0994" stroke-linecap="round" stroke-linejoin="round" stroke-miterlimit="10" points="
			1330.287,318.309 1310.882,318.309 1310.882,269.794 		"/>
		
			<polyline fill="none" stroke="#000000" stroke-width="14.0994" stroke-linecap="round" stroke-linejoin="round" stroke-miterlimit="10" points="
			1388.504,318.309 1369.099,318.309 1369.099,269.794 		"/>
		
			<polyline fill="none" stroke="#000000" stroke-width="14.0994" stroke-linecap="round" stroke-linejoin="round" stroke-miterlimit="10" points="
			1330.287,415.337 1310.882,415.337 1310.882,366.822 		"/>
		
			<polyline fill="none" stroke="#000000" stroke-width="14.0994" stroke-linecap="round" stroke-linejoin="round" stroke-miterlimit="10" points="
			1272.07,318.309 1252.665,318.309 1252.665,269.794 		"/>
		
			<polyline fill="none" stroke="#000000" stroke-width="14.0994" stroke-linecap="round" stroke-linejoin="round" stroke-miterlimit="10" points="
			1272.07,415.337 1252.665,415.337 1252.665,366.822 		"/>
		
			<polyline fill="none" stroke="#000000" stroke-width="14.0994" stroke-linecap="round" stroke-linejoin="round" stroke-miterlimit="10" points="
			1388.504,415.337 1369.099,415.337 1369.099,366.822 		"/>
		
			<polyline fill="none" stroke="#000000" stroke-width="14.0994" stroke-linecap="round" stroke-linejoin="round" stroke-miterlimit="10" points="
			1718.4,425.039 1698.995,425.039 1698.995,376.525 		"/>
		
			<polyline fill="none" stroke="#000000" stroke-width="14.0994" stroke-linecap="round" stroke-linejoin="round" stroke-miterlimit="10" points="
			1776.617,425.039 1757.212,425.039 1757.212,376.525 		"/>
		
			<line fill="none" stroke="#000000" stroke-width="14.0994" stroke-linecap="round" stroke-linejoin="round" stroke-miterlimit="10" x1="1310.882" y1="95.144" x2="1310.882" y2="201.875"/>
		
			<line fill="none" stroke="#000000" stroke-width="14.0994" stroke-linecap="round" stroke-linejoin="round" stroke-miterlimit="10" x1="1543.75" y1="133.955" x2="1543.75" y2="201.875"/>
		
			<line fill="none" stroke="#000000" stroke-width="14.0994" stroke-linecap="round" stroke-linejoin="round" stroke-miterlimit="10" x1="1582.561" y1="133.955" x2="1582.561" y2="434.742"/>
	</g>
	<g id="_xD83C__xDFD9__xFE0F__3_">
		<polyline fill="#9B9B9A" points="1120.691,230.983 1120.691,66.035 1023.663,66.035 1023.663,230.983 		"/>
		<rect x="761.687" y="104.846" fill="#9B9B9A" width="126.136" height="339.6"/>
		<polyline fill="#D0CFCE" stroke="#000000" stroke-width="9.7028" stroke-miterlimit="10" points="722.875,444.445 
			722.875,143.657 567.63,143.657 567.63,444.445 		"/>
		<polyline fill="#D0CFCE" stroke="#000000" stroke-width="9.7028" stroke-miterlimit="10" points="1169.205,444.445 
			1169.205,230.983 839.31,230.983 839.31,444.445 		"/>
		
			<polyline fill="none" stroke="#000000" stroke-width="14.0994" stroke-linecap="round" stroke-linejoin="round" stroke-miterlimit="10" points="
			722.875,434.742 722.875,143.657 567.63,143.657 567.63,434.742 		"/>
		
			<polyline fill="none" stroke="#000000" stroke-width="14.0994" stroke-linecap="round" stroke-linejoin="round" stroke-miterlimit="10" points="
			1169.205,434.742 1169.205,230.983 839.31,230.983 839.31,434.742 		"/>
		
			<polyline fill="none" stroke="#000000" stroke-width="14.0994" stroke-linecap="round" stroke-linejoin="round" stroke-miterlimit="10" points="
			878.121,201.875 878.121,104.846 761.687,104.846 761.687,434.742 		"/>
		
			<polyline fill="none" stroke="#000000" stroke-width="14.0994" stroke-linecap="round" stroke-linejoin="round" stroke-miterlimit="10" points="
			1110.988,201.875 1110.988,66.035 1033.366,66.035 1033.366,201.875 		"/>
		
			<polyline fill="none" stroke="#000000" stroke-width="14.0994" stroke-linecap="round" stroke-linejoin="round" stroke-miterlimit="10" points="
			664.659,230.983 684.064,230.983 684.064,182.469 		"/>
		
			<polyline fill="none" stroke="#000000" stroke-width="14.0994" stroke-linecap="round" stroke-linejoin="round" stroke-miterlimit="10" points="
			606.442,230.983 625.848,230.983 625.848,182.469 		"/>
		
			<polyline fill="none" stroke="#000000" stroke-width="14.0994" stroke-linecap="round" stroke-linejoin="round" stroke-miterlimit="10" points="
			664.659,328.012 684.064,328.012 684.064,279.497 		"/>
		
			<polyline fill="none" stroke="#000000" stroke-width="14.0994" stroke-linecap="round" stroke-linejoin="round" stroke-miterlimit="10" points="
			606.442,328.012 625.848,328.012 625.848,279.497 		"/>
		
			<polyline fill="none" stroke="#000000" stroke-width="14.0994" stroke-linecap="round" stroke-linejoin="round" stroke-miterlimit="10" points="
			936.338,318.309 955.743,318.309 955.743,269.794 		"/>
		
			<polyline fill="none" stroke="#000000" stroke-width="14.0994" stroke-linecap="round" stroke-linejoin="round" stroke-miterlimit="10" points="
			878.121,318.309 897.526,318.309 897.526,269.794 		"/>
		
			<polyline fill="none" stroke="#000000" stroke-width="14.0994" stroke-linecap="round" stroke-linejoin="round" stroke-miterlimit="10" points="
			936.338,415.337 955.743,415.337 955.743,366.822 		"/>
		
			<polyline fill="none" stroke="#000000" stroke-width="14.0994" stroke-linecap="round" stroke-linejoin="round" stroke-miterlimit="10" points="
			878.121,415.337 897.526,415.337 897.526,366.822 		"/>
		
			<polyline fill="none" stroke="#000000" stroke-width="14.0994" stroke-linecap="round" stroke-linejoin="round" stroke-miterlimit="10" points="
			1052.771,318.309 1072.177,318.309 1072.177,269.794 		"/>
		
			<polyline fill="none" stroke="#000000" stroke-width="14.0994" stroke-linecap="round" stroke-linejoin="round" stroke-miterlimit="10" points="
			994.555,318.309 1013.96,318.309 1013.96,269.794 		"/>
		
			<polyline fill="none" stroke="#000000" stroke-width="14.0994" stroke-linecap="round" stroke-linejoin="round" stroke-miterlimit="10" points="
			1052.771,415.337 1072.177,415.337 1072.177,366.822 		"/>
		
			<polyline fill="none" stroke="#000000" stroke-width="14.0994" stroke-linecap="round" stroke-linejoin="round" stroke-miterlimit="10" points="
			1110.988,318.309 1130.395,318.309 1130.395,269.794 		"/>
		
			<polyline fill="none" stroke="#000000" stroke-width="14.0994" stroke-linecap="round" stroke-linejoin="round" stroke-miterlimit="10" points="
			1110.988,415.337 1130.395,415.337 1130.395,366.822 		"/>
		
			<polyline fill="none" stroke="#000000" stroke-width="14.0994" stroke-linecap="round" stroke-linejoin="round" stroke-miterlimit="10" points="
			994.555,415.337 1013.96,415.337 1013.96,366.822 		"/>
		
			<polyline fill="none" stroke="#000000" stroke-width="14.0994" stroke-linecap="round" stroke-linejoin="round" stroke-miterlimit="10" points="
			664.659,425.039 684.064,425.039 684.064,376.525 		"/>
		
			<polyline fill="none" stroke="#000000" stroke-width="14.0994" stroke-linecap="round" stroke-linejoin="round" stroke-miterlimit="10" points="
			606.442,425.039 625.848,425.039 625.848,376.525 		"/>
		
			<line fill="none" stroke="#000000" stroke-width="14.0994" stroke-linecap="round" stroke-linejoin="round" stroke-miterlimit="10" x1="1072.177" y1="95.144" x2="1072.177" y2="201.875"/>
		
			<line fill="none" stroke="#000000" stroke-width="14.0994" stroke-linecap="round" stroke-linejoin="round" stroke-miterlimit="10" x1="839.31" y1="133.955" x2="839.31" y2="201.875"/>
		
			<line fill="none" stroke="#000000" stroke-width="14.0994" stroke-linecap="round" stroke-linejoin="round" stroke-miterlimit="10" x1="800.498" y1="133.955" x2="800.498" y2="434.742"/>
	</g>
	<rect x="-12" y="440" fill="#9C9B99" width="1664" height="47"/>
	<rect x="-89.794" y="-187.811" opacity="0.2" fill="#92D3F5" width="1852.133" height="674.639"/>
	<rect x="-12" y="487" fill="#CECCCC" width="1664" height="428"/>
	<g id="_xD83D__xDE9B__4_">
		<path fill="#CECCCC" d="M817.738,584.208h-30.967c-3.801,0-6.843-3.041-6.912-6.843l-0.594-50.3
			c-0.039-3.286,0.699-6.524,2.163-9.468c1.823-3.665,4.149-8.303,4.426-8.671c0.399-0.528,0.711-1.092,0.939-1.714
			c1.16-3.156,5.271-15.13,15.185-50.879c10.021-36.15,72.785-40.92,94.072-41.473c3.872-0.069,7.051,3.041,7.051,6.912v155.522
			c0,2.212-0.017,5.149-0.017,5.149"/>
		<path fill="#F1B31C" d="M1054.72,579.438H927.294V414.377c0-3.801,3.111-6.912,6.912-6.912h269.988
			c3.802,0,6.912,3.111,6.912,6.912v151.237c0,3.802-5.593,13.604-9.395,13.604l-53.575,0.221"/>
		<path fill="#CECCCC" stroke="#000000" stroke-width="13.8242" stroke-miterlimit="10" d="M879.9,586.766
			c0,11.474-9.263,20.736-20.736,20.736s-20.736-9.263-20.736-20.736c0-11.475,9.263-20.736,20.736-20.736
			S879.9,575.291,879.9,586.766z"/>
		<path fill="#3F4040" d="M814.235,502.092l40.608,0.145l0.864-47.665l-22.077,0.47c-2.981,0.062-5.586,2.032-6.461,4.884
			L814.235,502.092"/>
		
			<polyline fill="none" stroke="#000000" stroke-width="13.8242" stroke-linecap="round" stroke-linejoin="round" stroke-miterlimit="10" points="
			820.571,502.092 855.708,502.092 855.708,461.195 		"/>
		<path fill="#CECCCC" stroke="#000000" stroke-width="13.8242" stroke-miterlimit="10" d="M1163.873,586.766
			c0,11.474-9.263,20.736-20.735,20.736c-11.475,0-20.737-9.263-20.737-20.736c0-11.475,9.263-20.736,20.737-20.736
			C1154.61,566.029,1163.873,575.291,1163.873,586.766z"/>
		<path fill="#CECCCC" stroke="#000000" stroke-width="13.8242" stroke-miterlimit="10" d="M1101.664,586.766
			c0,11.474-9.263,20.736-20.736,20.736s-20.736-9.263-20.736-20.736c0-11.475,9.263-20.736,20.736-20.736
			S1101.664,575.291,1101.664,586.766z"/>
		
			<path fill="none" stroke="#000000" stroke-width="13.8242" stroke-linecap="round" stroke-linejoin="round" stroke-miterlimit="10" d="
			M817.738,577.296h-30.967c-3.801,0-6.843-3.041-6.912-6.843l-0.594-43.388c-0.039-3.286,0.699-6.524,2.163-9.468
			c1.823-3.665,4.149-8.303,4.426-8.671c0.399-0.528,6.209-16.844,16.124-52.593c10.021-36.15,72.785-40.92,94.072-41.473
			c3.872-0.069,7.051,3.041,7.051,6.912v148.61c0,2.212-0.017,5.149-0.017,5.149"/>
		
			<path fill="none" stroke="#000000" stroke-width="13.8242" stroke-linecap="round" stroke-linejoin="round" stroke-miterlimit="10" d="
			M1040.896,572.526H927.294V414.377c0-3.801,3.111-6.912,6.912-6.912h269.988c3.802,0,6.912,3.111,6.912,6.912v151.237
			c0,3.802-3.11,6.912-6.912,6.912h-21.497"/>
	</g>
	<g id="_xD83D__xDE93__1_">
		<path fill="#CECCCC" d="M1699.303,543.104l-6.06-3.306c-2.204-1.103-3.307-3.306-2.755-5.51
			c1.652-10.467,2.755-46.827-53.439-63.355c-1.102-0.551-2.203-0.551-3.305-0.551l-107.98,0.551c-2.203,0-4.407,0.552-6.061,1.653
			l-56.744,38.013c-1.102,0.552-2.203,1.103-3.306,1.103c-10.468-0.551-20.384,0.551-30.851,2.203
			c-29.75,6.061-41.87,22.037-46.277,30.302c-1.102,1.651-1.102,3.855-1.102,5.508c0.551,13.223-8.265,28.098,4.958,40.217
			l106.878-0.551l112.387-2.754l88.698-1.103c4.958-0.551,13.222-7.713,15.425-12.12
			C1719.136,558.53,1700.405,543.655,1699.303,543.104z"/>
		<path fill="#9C9B99" d="M1437.617,556.326c-12.12,0-22.037,9.916-22.037,22.036c0,12.121,9.917,22.037,22.037,22.037
			s22.037-9.916,22.037-22.037C1459.654,566.243,1449.737,556.326,1437.617,556.326z"/>
		<path fill="#9C9B99" d="M1656.883,556.326c-12.12,0-22.037,9.916-22.037,22.036c0,12.121,9.917,22.037,22.037,22.037
			c12.119,0,22.036-9.916,22.036-22.037C1678.919,566.243,1669.002,556.326,1656.883,556.326z"/>
		<path fill="#3E4040" d="M1651.373,517.211v-23.689c0-4.959-4.407-9.365-9.365-9.365l0,0h-116.795c-0.551,0-1.102,0-1.102,0.551
			l-44.074,31.402c-1.102,0.551-1.102,2.203-0.55,3.307c0.55,0.55,1.102,1.101,1.652,1.101c30.852,0,149.85-1.101,167.479-0.551
			C1650.271,519.966,1651.373,518.864,1651.373,517.211C1651.373,517.762,1651.373,517.762,1651.373,517.211z"/>
		<polygon fill="#FCEA2F" points="1391.34,523.822 1413.377,532.637 1401.808,548.613 1374.262,549.164 		"/>
		<path fill="none" stroke="#1D1E1C" stroke-width="11.0184" stroke-linecap="round" stroke-linejoin="round" d="M1386.933,583.873"
			/>
		<g>
			
				<path fill="#93D1F2" stroke="#000000" stroke-width="11.0184" stroke-linecap="round" stroke-linejoin="round" stroke-miterlimit="10" d="
				M1534.721,462.898c0,0-0.795-11.565,13.084-12.053c13.084-0.458,13.084,12.053,13.084,12.053"/>
			
				<line fill="none" stroke="#000000" stroke-width="11.0184" stroke-linecap="round" stroke-linejoin="round" x1="1604.545" y1="581.669" x2="1491.056" y2="583.873"/>
			<path fill="none" stroke="#000000" stroke-width="11.0184" stroke-linecap="round" stroke-linejoin="round" d="M1386.933,583.873
				c-4.958-1.103-9.366-2.756-9.917-5.511c-0.551-5.508-1.652-20.935-1.652-28.097c0-2.754,0.551-6.059,2.203-8.263
				c6.061-11.019,26.445-37.462,82.087-35.26l56.745-38.013c2.755-1.652,6.061-2.755,8.814-2.755l107.979-0.551
				c1.653,0,3.306,0,4.959,0.551c12.12,3.306,64.457,22.037,57.296,69.415l6.06,3.307c2.755,1.102,4.958,3.856,5.509,6.611
				c2.204,7.713,1.652,15.977-1.102,23.689"/>
			<polyline fill="none" stroke="#000000" stroke-width="11.0184" stroke-linecap="round" stroke-linejoin="round" points="
				1479.487,520.517 1645.864,519.416 1645.864,494.623 			"/>
			
				<circle fill="none" stroke="#000000" stroke-width="11.0184" stroke-linecap="round" stroke-linejoin="round" cx="1437.617" cy="578.363" r="27.545"/>
			
				<circle fill="none" stroke="#000000" stroke-width="11.0184" stroke-linecap="round" stroke-linejoin="round" cx="1656.883" cy="578.363" r="27.545"/>
			<polyline fill="none" stroke="#000000" stroke-width="11.0184" stroke-linecap="round" stroke-linejoin="round" points="
				1410.071,537.045 1400.155,549.164 1379.771,548.613 			"/>
		</g>
		
			<line fill="none" stroke="#61AFE1" stroke-width="11.0184" stroke-linecap="round" stroke-linejoin="round" stroke-miterlimit="10" x1="1474.887" y1="540.027" x2="1618.317" y2="540.027"/>
	</g>
	<g id="_xD83D__xDE9A__2_">
		<path fill="#FFFFFF" d="M597.845,571.234c3.831-0.096,5.899-7.08,5.899-7.08s13.865,0.866,16.031-8.232
			c0.287-1.205,1.995-95.6-10.6-121.809c-1.026-2.136-3.058-3.548-5.412-3.826c-21.085-2.498-134.718-8.027-223.589,2.152
			c0,0-32.17,8.34-88.387,47.66c0,0-38.128,15.598-54.592,26.862s-16.031,32.929-16.031,32.929s1.733,20.797,5.199,27.296
			c0.529,0.992,2.756,8.543,17.897,8.879"/>
		<path fill="#3F4040" d="M620.007,543.213H555.41v5.563c0,12.426,10.073,22.499,22.499,22.499h21.533
			c6.828,0,13.287-3.102,17.557-8.43l6.243-7.791L620.007,543.213z"/>
		<polygon fill="#3F4040" points="293.598,548.644 229.001,548.644 229.001,566.24 242.612,576.065 283.835,576.065 
			296.833,561.018 		"/>
		
			<path fill="none" stroke="#000000" stroke-width="13.8647" stroke-linecap="round" stroke-linejoin="round" stroke-miterlimit="10" d="
			M330.932,569.245c57.321-0.505,120.727-1.833,175.625-3.005"/>
		<circle fill="#9B9A98" stroke="#000000" stroke-width="13.8647" stroke-miterlimit="10" cx="291.402" cy="569.455" r="20.797"/>
		<circle fill="#9B9A98" stroke="#000000" stroke-width="13.8647" stroke-miterlimit="10" cx="555.41" cy="569.455" r="20.797"/>
		<path fill="#3F4040" d="M407.761,447.314v46.216l-98.208,2.744C309.552,496.274,357.501,441.538,407.761,447.314z"/>
		
			<polyline fill="none" stroke="#000000" stroke-width="13.8647" stroke-linecap="round" stroke-linejoin="round" stroke-miterlimit="10" points="
			407.761,454.247 407.761,493.53 314.751,499.885 		"/>
		
			<line fill="none" stroke="#000000" stroke-width="13.8647" stroke-linecap="round" stroke-linejoin="round" stroke-miterlimit="10" x1="339.592" y1="544.367" x2="512.901" y2="537.436"/>
		<path fill="#CECCCC" d="M272.566,521.061c0,0,0.593-7.474-8.939-8.34c-9.532-0.866-27.022,8.34-27.997,10.832
			c-0.975,2.491-2.418,9.933,1.95,11.265C241.948,536.15,272.566,521.061,272.566,521.061z"/>
		
			<path fill="#CECCCC" stroke="#000000" stroke-width="13.8647" stroke-linecap="round" stroke-linejoin="round" stroke-miterlimit="10" d="
			M265.981,520.451c0,0-13.62,11.5-24.793,13.294"/>
		
			<path fill="none" stroke="#000000" stroke-width="13.8647" stroke-linecap="round" stroke-linejoin="round" stroke-miterlimit="10" d="
			M597.845,564.302c3.831-0.095,5.899-0.147,5.899-0.147s13.865,0.866,16.031-8.232c0.287-1.205,1.995-95.6-10.6-121.809
			c-1.026-2.136-3.058-3.548-5.412-3.826c-21.085-2.498-134.718-8.027-223.589,2.152c0,0-32.17,8.34-88.387,47.66
			c0,0-38.128,15.598-54.592,26.862s-16.031,32.929-16.031,32.929s1.733,20.797,5.199,27.296c0.529,0.992,2.756,1.61,17.897,1.946"
			/>
	</g>
	<g>
		<g>
			<line fill="none" stroke="#FFFFFF" stroke-width="14" stroke-miterlimit="10" x1="-51" y1="631" x2="-1" y2="631"/>
			
				<line fill="none" stroke="#FFFFFF" stroke-width="14" stroke-miterlimit="10" stroke-dasharray="96.3158,96.3158" x1="95.316" y1="631" x2="1780.842" y2="631"/>
			<line fill="none" stroke="#FFFFFF" stroke-width="14" stroke-miterlimit="10" x1="1829" y1="631" x2="1879" y2="631"/>
		</g>
	</g>
	<g id="_xD83D__xDE9B__3_">
		<path fill="#CECCCC" d="M1078.241,717.889h-31.055c-3.812,0-6.862-3.05-6.932-6.862l-0.596-50.442
			c-0.039-3.296,0.701-6.544,2.169-9.494c1.828-3.677,4.161-8.328,4.439-8.696c0.399-0.53,0.712-1.095,0.941-1.72
			c1.163-3.164,5.285-15.172,15.229-51.022c10.05-36.253,72.991-41.036,94.339-41.591c3.883-0.069,7.071,3.05,7.071,6.932v155.965
			c0,2.219-0.018,5.164-0.018,5.164"/>
		<path fill="#3F4040" d="M1315.896,713.105h-127.788v-165.53c0-3.812,3.12-6.932,6.932-6.932h270.755
			c3.812,0,6.932,3.119,6.932,6.932v151.667c0,3.812-5.608,13.642-9.42,13.642l-53.728,0.222"/>
		<path fill="#CECCCC" stroke="#000000" stroke-width="13.8635" stroke-miterlimit="10" d="M1140.58,720.453
			c0,11.507-9.289,20.795-20.795,20.795s-20.796-9.288-20.796-20.795s9.29-20.795,20.796-20.795S1140.58,708.946,1140.58,720.453z"
			/>
		<path fill="#3F4040" d="M1074.729,635.539l40.724,0.145l0.866-47.801l-22.139,0.472c-2.99,0.063-5.603,2.038-6.479,4.897
			L1074.729,635.539"/>
		
			<polyline fill="none" stroke="#000000" stroke-width="13.8635" stroke-linecap="round" stroke-linejoin="round" stroke-miterlimit="10" points="
			1081.083,635.539 1116.318,635.539 1116.318,594.526 		"/>
		<path fill="#CECCCC" stroke="#000000" stroke-width="13.8635" stroke-miterlimit="10" d="M1425.36,720.453
			c0,11.507-9.289,20.795-20.795,20.795c-11.507,0-20.796-9.288-20.796-20.795s9.289-20.795,20.796-20.795
			C1416.071,699.658,1425.36,708.946,1425.36,720.453z"/>
		<path fill="#CECCCC" stroke="#000000" stroke-width="13.8635" stroke-miterlimit="10" d="M1362.975,720.453
			c0,11.507-9.289,20.795-20.795,20.795c-11.507,0-20.796-9.288-20.796-20.795s9.289-20.795,20.796-20.795
			C1353.686,699.658,1362.975,708.946,1362.975,720.453z"/>
		
			<path fill="none" stroke="#000000" stroke-width="13.8635" stroke-linecap="round" stroke-linejoin="round" stroke-miterlimit="10" d="
			M1078.241,710.957h-31.055c-3.812,0-6.862-3.05-6.932-6.862l-0.596-43.511c-0.039-3.296,0.701-6.544,2.169-9.494
			c1.828-3.677,4.161-8.328,4.439-8.696c0.399-0.53,6.227-16.892,16.17-52.742c10.05-36.253,72.991-41.036,94.339-41.591
			c3.883-0.069,7.071,3.05,7.071,6.932v149.033c0,2.218-0.018,5.164-0.018,5.164"/>
		
			<path fill="none" stroke="#000000" stroke-width="13.8635" stroke-linecap="round" stroke-linejoin="round" stroke-miterlimit="10" d="
			M1302.032,706.174h-113.924V547.575c0-3.812,3.12-6.932,6.932-6.932h270.755c3.812,0,6.932,3.119,6.932,6.932v151.667
			c0,3.812-3.119,6.932-6.932,6.932h-21.558"/>
	</g>
	<g id="_xD83D__xDE97__4_">
		<path fill="#B1CC33" d="M838.228,668.269l-6.061-3.306c-2.204-1.103-3.306-3.306-2.755-5.51
			c1.653-10.467,2.755-46.827-53.439-63.355c-1.102-0.551-2.204-0.551-3.305-0.551l-107.98,0.551c-2.204,0-4.408,0.552-6.06,1.653
			l-56.745,38.013c-1.102,0.552-2.204,1.103-3.305,1.103c-10.468-0.551-20.384,0.551-30.852,2.203
			c-29.75,6.061-41.87,22.037-46.277,30.301c-1.102,1.652-1.102,3.856-1.102,5.509c0.551,13.223-8.264,28.098,4.958,40.218
			l106.878-0.552l112.387-2.754l88.698-1.103c4.959-0.551,13.222-7.712,15.426-12.12
			C858.06,683.693,839.329,668.819,838.228,668.269z"/>
		<path fill="#9C9B99" d="M576.541,681.49c-12.12,0-22.037,9.916-22.037,22.036c0,12.121,9.917,22.037,22.037,22.037
			s22.037-9.916,22.037-22.037C598.578,691.406,588.661,681.49,576.541,681.49z"/>
		<path fill="#9C9B99" d="M795.806,681.49c-12.12,0-22.037,9.916-22.037,22.036c0,12.121,9.917,22.037,22.037,22.037
			c12.12,0,22.037-9.916,22.037-22.037C817.843,691.406,807.926,681.49,795.806,681.49z"/>
		<path fill="#3F4040" d="M790.297,642.375v-23.689c0-4.958-4.407-9.365-9.365-9.365l0,0H664.137c-0.551,0-1.102,0-1.102,0.551
			l-44.073,31.402c-1.102,0.551-1.102,2.204-0.551,3.305c0.551,0.552,1.102,1.102,1.652,1.102c30.851,0,149.85-1.102,167.479-0.55
			C789.195,645.13,790.297,644.028,790.297,642.375C790.297,642.926,790.297,642.926,790.297,642.375z"/>
		<polygon fill="#FCEA31" points="530.264,648.986 552.301,657.801 540.731,673.777 513.186,674.328 		"/>
		<path fill="none" stroke="#1D1E1C" stroke-width="11.0184" stroke-linecap="round" stroke-linejoin="round" d="M525.856,709.036"
			/>
		
			<line fill="none" stroke="#000000" stroke-width="11.0184" stroke-linecap="round" stroke-linejoin="round" x1="743.469" y1="706.832" x2="629.98" y2="709.036"/>
		<path fill="none" stroke="#000000" stroke-width="11.0184" stroke-linecap="round" stroke-linejoin="round" d="M525.856,709.036
			c-4.958-1.102-9.365-2.755-9.916-5.51c-0.551-5.508-1.653-20.935-1.653-28.097c0-2.754,0.551-6.06,2.204-8.264
			c6.06-11.018,26.444-37.461,82.087-35.259l56.744-38.013c2.754-1.653,6.06-2.755,8.815-2.755l107.98-0.551
			c1.652,0,3.305,0,4.958,0.551c12.12,3.306,64.457,22.037,57.296,69.415l6.06,3.306c2.755,1.103,4.959,3.856,5.509,6.612
			c2.204,7.712,1.652,15.977-1.102,23.689"/>
		<polyline fill="none" stroke="#000000" stroke-width="11.0184" stroke-linecap="round" stroke-linejoin="round" points="
			618.411,645.68 784.788,644.578 784.788,619.787 		"/>
		
			<circle fill="none" stroke="#000000" stroke-width="11.0184" stroke-linecap="round" stroke-linejoin="round" cx="576.541" cy="703.527" r="27.545"/>
		
			<circle fill="none" stroke="#000000" stroke-width="11.0184" stroke-linecap="round" stroke-linejoin="round" cx="795.806" cy="703.527" r="27.545"/>
		<polyline fill="none" stroke="#000000" stroke-width="11.0184" stroke-linecap="round" stroke-linejoin="round" points="
			548.995,662.208 539.079,674.328 518.694,673.777 		"/>
	</g>
	<g id="_xD83D__xDE99__2_">
		<path fill="#93D1F2" d="M258.347,711.636h3.555c3.043,0,5.509-2.466,5.509-5.509v-11.019c0-0.524-0.389-0.97-0.91-1.04
			l-9.419-1.256c0-9.459,2.741-76.373-5.113-106.766c-0.603-2.331-2.724-3.938-5.131-4.026L99.144,582.06
			c-1.982-0.073-3.85,0.924-4.892,2.61l-24.253,50.297l-92.194,8.907c-1.78,0.173-3.366,1.198-4.254,2.751l-16.949,35.17h-6.427
			c-3.042,0-5.509,2.467-5.509,5.509v8.724c0,3.042,2.467,5.509,5.509,5.509h5.968h85.048l15.495,18.938l150.125,1.032v-10.242
			h49.669"/>
		<path fill="#3F4040" d="M92.38,634.622h69.594c0,0,2.577-37.531,0-37.531h-47.851c-2.263,0-4.325,1.299-5.307,3.342L92.38,634.622
			z"/>
		<path fill="#3F4040" d="M-51.432,682.132v24.569h18.25h77.817l10.214,14.382l161.77,0.423l15.162-4.73h32.48l4.07-23.618
			l-16.528-0.57l-10.214-24.02l-51.046,5.423l-14.032,11.937l-142.552-0.851l-7.504-15.162c-0.971-1.964-2.883-3.292-5.062-3.519
			l-37.697-4.215l-15.855,20.616L-51.432,682.132z"/>
		
			<path fill="none" stroke="#000000" stroke-width="11.0184" stroke-linecap="round" stroke-linejoin="round" stroke-miterlimit="10" d="
			M256.394,711.636h5.509c3.043,0,5.509-2.466,5.509-5.509v-11.019c0-0.524-0.389-0.97-0.91-1.04l-9.419-1.256
			c0-9.459,2.741-76.373-5.113-106.766c-0.603-2.331-2.724-3.938-5.131-4.026L99.144,582.06c-1.982-0.073-3.85,0.924-4.892,2.61
			l-24.253,50.297l-92.194,8.907c-1.78,0.173-3.366,1.198-4.254,2.751l-16.949,35.17h-6.427c-3.042,0-5.509,2.467-5.509,5.509v8.724
			c0,3.042,2.467,5.509,5.509,5.509h5.968"/>
		
			<path fill="none" stroke="#000000" stroke-width="11.0184" stroke-linecap="round" stroke-linejoin="round" stroke-miterlimit="10" d="
			M39.01,701.536h3.902l8.68,11.958c1.036,1.429,2.694,2.273,4.458,2.273h108.272"/>
		<path fill="#9C9B99" d="M-1.161,693.73c-12.121,0-22.037,9.918-22.037,22.037c0,12.12,9.917,22.036,22.037,22.036
			c12.12,0,22.037-9.916,22.037-22.036C20.876,703.648,10.959,693.73-1.161,693.73z"/>
		
			<circle fill="none" stroke="#000000" stroke-width="11.0184" stroke-linecap="round" stroke-linejoin="round" cx="-1.161" cy="715.768" r="27.546"/>
		<path fill="#9C9B99" d="M208.876,693.73c-12.12,0-22.037,9.918-22.037,22.037c0,12.12,9.917,22.036,22.037,22.036
			s22.037-9.916,22.037-22.036C230.913,703.648,220.997,693.73,208.876,693.73z"/>
		
			<circle fill="none" stroke="#000000" stroke-width="11.0184" stroke-linecap="round" stroke-linejoin="round" cx="208.876" cy="715.768" r="27.546"/>
		
			<polyline fill="none" stroke="#000000" stroke-width="11.0184" stroke-linecap="round" stroke-linejoin="round" stroke-miterlimit="10" points="
			96.972,637.377 162.048,637.377 162.048,602.371 		"/>
		
			<polyline fill="none" stroke="#000000" stroke-width="11.0184" stroke-linecap="round" stroke-linejoin="round" stroke-miterlimit="10" points="
			170.69,688.222 188.217,670.202 236.422,670.202 		"/>
		
			<polyline fill="none" stroke="#000000" stroke-width="11.0184" stroke-linecap="round" stroke-linejoin="round" stroke-miterlimit="10" points="
			-12.179,665.727 27.533,665.727 38.054,682.132 		"/>
		
			<path fill="#3F4040" stroke="#000000" stroke-width="11.0184" stroke-linecap="round" stroke-linejoin="round" stroke-miterlimit="10" d="
			M258.347,612.355c0.459,0,7.575,0.459,7.575,0.459s9.182,5.396,8.837,32.022c-0.345,26.628-9.182,31.334-9.182,31.334h-4.362"/>
	</g>
	<g>
		<g>
			<line fill="none" stroke="#FFFFFF" stroke-width="14" stroke-miterlimit="10" x1="-51" y1="782" x2="-1" y2="782"/>
			
				<line fill="none" stroke="#FFFFFF" stroke-width="14" stroke-miterlimit="10" stroke-dasharray="96.3158,96.3158" x1="95.316" y1="782" x2="1780.842" y2="782"/>
			<line fill="none" stroke="#FFFFFF" stroke-width="14" stroke-miterlimit="10" x1="1829" y1="782" x2="1879" y2="782"/>
		</g>
	</g>
	<g id="_xD83D__xDE97__3_">
		<path fill="#EA5947" d="M475.748,811.763l-6.06-3.306c-2.204-1.102-3.305-3.305-2.754-5.508
			c1.652-10.469,2.754-46.828-53.439-63.356c-1.102-0.551-2.204-0.551-3.306-0.551l-107.98,0.551c-2.204,0-4.407,0.551-6.06,1.653
			l-56.745,38.012c-1.102,0.552-2.204,1.103-3.305,1.103c-10.468-0.551-20.384,0.552-30.852,2.204
			c-29.75,6.06-41.87,22.036-46.277,30.301c-1.102,1.652-1.102,3.856-1.102,5.509c0.551,13.223-8.264,28.097,4.958,40.217
			l106.878-0.551l112.387-2.755l88.698-1.102c4.958-0.552,13.222-7.713,15.426-12.121
			C495.581,827.188,476.85,812.313,475.748,811.763z"/>
		<path fill="#9C9B99" d="M214.062,824.984c-12.12,0-22.037,9.918-22.037,22.037c0,12.12,9.917,22.037,22.037,22.037
			c12.121,0,22.037-9.917,22.037-22.037C236.099,834.902,226.183,824.984,214.062,824.984z"/>
		<path fill="#9C9B99" d="M433.328,824.984c-12.121,0-22.037,9.918-22.037,22.037c0,12.12,9.917,22.037,22.037,22.037
			c12.12,0,22.037-9.917,22.037-22.037C455.364,834.902,445.448,824.984,433.328,824.984z"/>
		<path fill="#92D2F4" d="M427.818,785.87v-23.69c0-4.957-4.408-9.365-9.366-9.365l0,0H301.658c-0.551,0-1.102,0-1.102,0.551
			l-44.073,31.403c-1.102,0.55-1.102,2.203-0.551,3.306c0.551,0.55,1.102,1.102,1.653,1.102c30.851,0,149.849-1.102,167.479-0.552
			C426.716,788.624,427.818,787.522,427.818,785.87C427.818,786.421,427.818,786.421,427.818,785.87z"/>
		<polygon fill="#FCEA31" points="167.785,792.48 189.822,801.295 178.252,817.272 150.707,817.823 		"/>
		<path fill="none" stroke="#1D1E1C" stroke-width="11.0184" stroke-linecap="round" stroke-linejoin="round" d="M163.378,852.531"
			/>
		
			<line fill="none" stroke="#000000" stroke-width="11.0184" stroke-linecap="round" stroke-linejoin="round" x1="380.99" y1="850.327" x2="267.501" y2="852.531"/>
		<path fill="none" stroke="#000000" stroke-width="11.0184" stroke-linecap="round" stroke-linejoin="round" d="M163.378,852.531
			c-4.958-1.103-9.366-2.754-9.917-5.51c-0.551-5.509-1.653-20.936-1.653-28.098c0-2.754,0.551-6.059,2.204-8.263
			c6.06-11.019,26.444-37.462,82.087-35.259l56.745-38.014c2.754-1.652,6.06-2.755,8.814-2.755l107.98-0.55
			c1.652,0,3.305,0,4.958,0.55c12.12,3.307,64.458,22.037,57.295,69.417l6.06,3.305c2.755,1.102,4.958,3.856,5.509,6.611
			c2.204,7.713,1.653,15.977-1.102,23.689"/>
		<polyline fill="none" stroke="#000000" stroke-width="11.0184" stroke-linecap="round" stroke-linejoin="round" points="
			255.932,789.176 422.309,788.074 422.309,763.283 		"/>
		
			<circle fill="none" stroke="#000000" stroke-width="11.0184" stroke-linecap="round" stroke-linejoin="round" cx="214.062" cy="847.022" r="27.546"/>
		
			<circle fill="none" stroke="#000000" stroke-width="11.0184" stroke-linecap="round" stroke-linejoin="round" cx="433.328" cy="847.022" r="27.546"/>
		<polyline fill="none" stroke="#000000" stroke-width="11.0184" stroke-linecap="round" stroke-linejoin="round" points="
			186.516,805.703 176.6,817.823 156.216,817.272 		"/>
	</g>
	<g id="_xD83D__xDE95__2_">
		
			<path fill="#EEB123" stroke="#000000" stroke-width="11.0184" stroke-linecap="round" stroke-linejoin="round" stroke-miterlimit="10" d="
			M1455.666,741.294l-19.436-13.26c-2.727-1.86-6.467-0.921-7.991,2.007l-5.857,11.253"/>
		<path fill="#F9E936" d="M1578.477,821.775l-6.06-3.307c-2.204-1.102-3.307-3.306-2.755-5.508
			c1.652-10.468,2.755-46.828-53.439-63.356c-1.102-0.551-2.203-0.551-3.305-0.551l-107.98,0.551c-2.203,0-4.407,0.551-6.061,1.653
			l-56.744,38.013c-1.102,0.551-2.203,1.102-3.306,1.102c-10.468-0.551-20.384,0.552-30.851,2.204
			c-29.75,6.061-41.87,22.037-46.278,30.301c-1.101,1.652-1.101,3.856-1.101,5.509c0.551,13.223-8.265,28.097,4.957,40.218
			l106.879-0.552l112.387-2.755l88.698-1.102c4.958-0.551,13.222-7.713,15.425-12.12
			C1598.31,837.2,1579.579,822.325,1578.477,821.775z"/>
		<path fill="#9C9B99" d="M1316.791,834.996c-12.12,0-22.037,9.917-22.037,22.037s9.917,22.037,22.037,22.037
			s22.036-9.917,22.036-22.037S1328.911,834.996,1316.791,834.996z"/>
		<path fill="#9C9B99" d="M1536.056,834.996c-12.119,0-22.036,9.917-22.036,22.037s9.917,22.037,22.036,22.037
			c12.12,0,22.036-9.917,22.036-22.037S1548.176,834.996,1536.056,834.996z"/>
		<path fill="#3F4040" d="M1530.547,795.882v-23.69c0-4.957-4.408-9.364-9.366-9.364l0,0h-116.794c-0.551,0-1.102,0-1.102,0.55
			l-47.588,31.564c-1.102,0.551,2.412,2.042,2.963,3.145c0.551,0.551,1.103,1.102,1.652,1.102c30.853,0,149.85-1.102,167.479-0.551
			C1529.444,798.637,1530.547,797.534,1530.547,795.882C1530.547,796.433,1530.547,796.433,1530.547,795.882z"/>
		<polygon fill="#CECCCC" points="1270.514,802.493 1292.55,811.307 1280.981,827.284 1253.436,827.834 		"/>
		<path fill="none" stroke="#1D1E1C" stroke-width="11.0184" stroke-linecap="round" stroke-linejoin="round" d="M1266.106,862.543"
			/>
		
			<line fill="none" stroke="#000000" stroke-width="11.0184" stroke-linecap="round" stroke-linejoin="round" x1="1483.719" y1="860.339" x2="1370.229" y2="862.543"/>
		<path fill="none" stroke="#000000" stroke-width="11.0184" stroke-linecap="round" stroke-linejoin="round" d="M1266.106,862.543
			c-4.958-1.102-9.366-2.755-9.917-5.51c-0.551-5.509-1.652-20.935-1.652-28.096c0-2.756,0.551-6.061,2.203-8.265
			c6.061-11.018,26.444-37.462,82.087-35.259l56.745-38.014c2.754-1.651,6.061-2.754,8.814-2.754l107.979-0.551
			c1.653,0,3.306,0,4.958,0.551c12.12,3.306,64.457,22.036,57.296,69.416l6.061,3.306c2.754,1.102,4.958,3.856,5.509,6.61
			c2.204,7.713,1.652,15.977-1.102,23.689"/>
		<polyline fill="none" stroke="#000000" stroke-width="11.0184" stroke-linecap="round" stroke-linejoin="round" points="
			1358.66,799.188 1525.037,798.086 1525.037,773.294 		"/>
		
			<circle fill="none" stroke="#000000" stroke-width="11.0184" stroke-linecap="round" stroke-linejoin="round" cx="1316.791" cy="857.034" r="27.546"/>
		
			<circle fill="none" stroke="#000000" stroke-width="11.0184" stroke-linecap="round" stroke-linejoin="round" cx="1536.056" cy="857.034" r="27.546"/>
		<polyline fill="none" stroke="#000000" stroke-width="11.0184" stroke-linecap="round" stroke-linejoin="round" points="
			1289.245,815.715 1279.328,827.834 1258.944,827.284 		"/>
		
			<line fill="none" stroke="#EEB123" stroke-width="11.0184" stroke-linecap="round" stroke-linejoin="round" stroke-miterlimit="10" x1="1354.061" y1="818.699" x2="1497.491" y2="818.699"/>
	</g>
	<g id="_xD83D__xDE90__2_">
		<path fill="#93D1F2" d="M1045.616,862.524l24.042-6.91h16.844l-0.864-31.528h-4.751c0,0,4.319-121.791-12.093-127.837
			c-16.411-6.046-191.324-3.887-212.918,0c-21.594,3.888-45.779-2.591-123.519,75.579l-53.553,17.569
			c0,0-10.365,5.753-10.797,35.984c0,0-6.046,1.728-5.183,10.365c0.804,8.046-1.758,29.57,34.335,31.312"/>
		
			<path fill="none" stroke="#000000" stroke-width="13.8203" stroke-linecap="round" stroke-linejoin="round" stroke-miterlimit="10" d="
			M1045.041,856.124l24.617-0.51h16.844l-0.864-31.528h-4.751c0,0,4.319-121.791-12.093-127.837
			c-16.411-6.046-191.324-3.887-212.918,0c-21.594,3.888-45.779-2.591-123.519,75.579l-53.553,17.569
			c0,0-10.365,5.753-10.797,35.984c0,0-6.046,1.728-5.183,10.365c0.804,8.046-3.262,23.587,32.831,25.329"/>
		
			<line fill="none" stroke="#000000" stroke-width="13.8203" stroke-linecap="round" stroke-linejoin="round" stroke-miterlimit="10" x1="782.888" y1="860.364" x2="958.234" y2="857.305"/>
		
			<circle fill="#CECCCC" stroke="#000000" stroke-width="13.8203" stroke-linecap="round" stroke-linejoin="round" stroke-miterlimit="10" cx="737.404" cy="857.197" r="20.73"/>
		
			<circle fill="#CECCCC" stroke="#000000" stroke-width="13.8203" stroke-linecap="round" stroke-linejoin="round" stroke-miterlimit="10" cx="1003.58" cy="857.197" r="20.73"/>
		<g>
			<path fill="#F9E936" d="M721.924,803.799c0,0,0.591-7.449-8.911-8.313c-9.501-0.864-26.936,8.313-27.907,10.797
				c-0.971,2.483-2.411,9.901,1.944,11.229C691.404,818.839,721.924,803.799,721.924,803.799z"/>
			
				<path fill="none" stroke="#000100" stroke-width="13.8203" stroke-linecap="round" stroke-linejoin="round" stroke-miterlimit="10" d="
				M715.361,803.191c0,0-13.576,11.463-24.714,13.251"/>
		</g>
		<path fill="#3F4040" d="M754.6,783.489c2.591,0.139,70.612-1.728,74.932-12.093c4.318-10.365,4.318-51.394,4.318-51.394
			s-36.185,12.431-51.178,27.425C755.032,775.068,754.6,783.489,754.6,783.489z"/>
		
			<path fill="none" stroke="#000000" stroke-width="13.8203" stroke-linecap="round" stroke-linejoin="round" stroke-miterlimit="10" d="
			M760.862,782.487c2.591,0.138,64.35-0.726,68.669-11.091c4.318-10.365,4.318-44.916,4.318-44.916"/>
		<path fill="#3F4040" d="M858.899,723.458v52.217c0,3.816,3.094,6.91,6.91,6.91l150.438-5.806c1.583,0,3.119-0.545,4.35-1.542
			l14.973-12.132c1.62-1.312,2.561-3.285,2.561-5.369l4.878-34.278c0-3.817-3.094-6.91-6.91-6.91H865.81
			C861.993,716.548,858.899,719.641,858.899,723.458z"/>
		
			<path fill="none" stroke="#000000" stroke-width="13.8203" stroke-linecap="round" stroke-linejoin="round" stroke-miterlimit="10" d="
			M865.81,776.779h150.438c1.583,0,3.119-0.545,4.35-1.542l14.973-12.132c1.62-1.312,2.561-3.285,2.561-5.369v-34.278"/>
		<path fill="#E85949" d="M1066.409,827.544h-16.823v-42.396h9.93c3.807,0,6.894,3.087,6.894,6.894V827.544z"/>
		
			<polyline fill="none" stroke="#000000" stroke-width="13.8203" stroke-linecap="round" stroke-linejoin="round" stroke-miterlimit="10" points="
			1049.586,791.947 1049.586,824.77 1059.663,827.874 		"/>
	</g>
</g>
<g id="Ebene_2">
</g>
</svg>
