<svg id="emoji" viewBox="0 0 72 72" version="1.1" xmlns="http://www.w3.org/2000/svg">
  <g id="color" transform="translate(0 .00010023)">
    <polygon fill="#6a462f" points="19.858 24.858 34 39 34 40 54 40 54 39 39.858 24.858"/>
    <line x1="25.858" x2="22.858" y1="30.858" y2="27.858" fill="none" stroke="#6a462f" stroke-linecap="round" stroke-linejoin="round" stroke-width="2"/>
    <path fill="#fcea2b" stroke="#fcea2b" stroke-linecap="round" stroke-linejoin="round" stroke-width="2" d="m46 38c0-2.7614-2.2386-5-5-5-0.8615 0-1.6597 0.2378-2.3672 0.6215-0.696-0.7535-1.5977-1.3116-2.6428-1.5217 0.0012-0.0339 0.0101-0.0656 0.0101-0.0998 0-1.6569-1.3431-3-3-3s-3 1.3431-3 3c0 0.0085 0.0024 0.0163 0.0025 0.0247-0.8381-0.6343-1.8704-1.0247-3.0025-1.0247-2.7614 0-5 2.2386-5 5 0-1.6569-1.3431-3-3-3s-3 1.3431-3 3v4h30v-2z"/>
    <path fill="#a57939" d="m34 40h20v13c0 1.1038-0.8962 2-2 2h-18z"/>
    <path fill="#a57939" d="m41.858 22.858c1.9526-1.9526 4.5118-2.9289 7.0711-2.9289s5.1185 0.9763 7.0711 2.9289 2.9289 4.5118 2.9289 7.071-0.9763 5.1185-2.9289 7.0711l-2 2-14.142-14.142 2-2z"/>
    <path fill="#f1b31c" d="m14 40h20v15h-18c-1.1038 0-2-0.8962-2-2z"/>
    <path fill="#f1b31c" d="m21.858 22.858-2 2h20l2-2c1.9526-1.9526 4.5118-2.9289 7.0711-2.9289h-20c-2.5592 0-5.1184 0.9763-7.0711 2.9289z"/>
    <circle cx="33" cy="32" r="3" fill="#d22f27"/>
  </g>
  <g id="line" transform="translate(0 .00010023)" fill="none" stroke="#000" stroke-linecap="round" stroke-linejoin="round" stroke-width="2">
    <path d="m14 40h20v15h-18c-1.1038 0-2-0.8962-2-2z"/>
    <path d="m34 40h20v13c0 1.1038-0.8962 2-2 2h-18z"/>
    <path d="m41.858 22.858c1.9526-1.9526 4.5118-2.9289 7.0711-2.9289s5.1185 0.9763 7.0711 2.9289 2.9289 4.5118 2.9289 7.071-0.9763 5.1185-2.9289 7.0711l-2 2-14.142-14.142 2-2z"/>
    <line x1="22.858" x2="19.858" y1="27.858" y2="24.858"/>
    <path d="m21.858 22.858c1.9526-1.9526 4.5118-2.9289 7.0711-2.9289"/>
    <line x1="28.929" x2="48.929" y1="19.929" y2="19.929"/>
    <line x1="19.858" x2="39.858" y1="24.858" y2="24.858"/>
    <line x1="21.858" x2="19.858" y1="22.858" y2="24.858"/>
    <path d="m16 40h30v-2c0-2.7614-2.2386-5-5-5-0.8615 0-1.6597 0.2378-2.3672 0.6215-0.696-0.7535-1.5977-1.3116-2.6428-1.5217 0.0012-0.0339 0.0101-0.0656 0.0101-0.0998 0-1.6569-1.3431-3-3-3s-3 1.3431-3 3c0 0.0085 0.0024 0.0163 0.0025 0.0247-0.8381-0.6343-1.8704-1.0247-3.0025-1.0247-2.7614 0-5 2.2386-5 5 0-1.6569-1.3431-3-3-3s-3 1.3431-3 3"/>
    <circle cx="33" cy="32" r="3"/>
  </g>
</svg>
