<svg id="emoji" viewBox="0 0 72 72" version="1.1" xmlns="http://www.w3.org/2000/svg">
  <g id="color" stroke-linecap="round" stroke-linejoin="round" stroke-width="2">
    <path transform="translate(.0001724)" fill="#a57939" stroke="#a57939" d="m46.202 39.731c-0.733 1.2757-1.3785 3.1904-0.9859 5.6868 0.6317 5.9857 6.8171 6.2189 6.7617 12.26-0.962 2.3707-5.7631 3.8879-7.8043 3.8796-2.1165-1.829-1.1868-4.6018 0-6.8829l-0.0357-0.0142c-1.0583-0.388-2.3156-0.6873-3.6882-2.0261-2.2724-2.2165-2.6069-4.6545-3.3351-6.5691l9.0874-6.3342z"/>
    <path transform="translate(.0001724)" fill="#a57939" stroke="#a57939" d="m21.926 36.1c-0.3936 0.6931-1.5171 1.6163-2.7899 2.1022-4.1518-7.7659 9.2727-16.218 9.2727-16.218l1.8008 9.4342c-3.8264 0.4649-6.8035 1.7961-7.189 6-0.3566-0.3356-0.7868-0.7528-1.0945-1.3179z"/>
    <path transform="translate(.0001724)" fill="#f1b31c" stroke="#f1b31c" d="m48.768 25.866c-1.6399-1.9989-2.1343-5.3947-3.6142-7.0439-2.8602-3.1873-7.3324-2.4082-9.8025-3.6215-1.1394-4.1318-1.55-7.3311-5.178-7.3443-2.8275-0.0103-4.1669 2.3931-3.9684 4.7125 0.3645 4.2609 4.9187 7.3326 3.3367 13.683-0.7171 3.213 0.9289 7.5737 3.5307 11.841l0.0351 0.0643c-1.7299 1.4552-4.0427 2.6074-5.4144 4.2601-1.4478 1.7443-2.5629 5.6412-2.2634 9.8562 0.1517 1.6126 0.6584 2.9773 1.3167 3.9594-1.8617 1.3304-4.5158 2.1888-5.2239 6.7361 3.8577 1.454 8.33 1.9262 9.9071-0.7616 4.4198-7.5333 1.148-10.292 2.2926-15.098 3.7013-1.7595 9.5158-3.1693 11.696-5.7433 1.081-1.2765 1.9334-2.8887 2.4322-4.7981 1.4485 1.4813 3.4123 1.7922 5.1808 1.3235 1.3153-0.3976 1.7063-1.1901 2.6305-1.4738-5.1286-2.9063-6.5927-5.5788-6.8932-10.552"/>
  </g>
  <g id="line" fill="none" stroke="#000" stroke-linecap="round" stroke-linejoin="round" stroke-width="2">
    <path transform="translate(.0001724)" d="m48.771 25.866c0.3006 4.9729 1.7614 7.6453 6.8899 10.552"/>
    <path transform="translate(.0001724)" d="m35.351 15.201c2.4701 1.2133 6.9423 0.4342 9.8025 3.6215 2.1118 2.3533 2.2168 8.2633 6.5071 8.5956"/>
    <path transform="translate(.0001724)" d="m39.312 24.817c2.493 0.3479 6.0703 1.7124 6.4522 6.3246 0.4666 5.635 3.7319 7.3557 6.6817 6.8747"/>
    <path transform="translate(.0001724)" d="m28.409 21.984s-13.424 8.4525-9.2727 16.218"/>
    <path transform="translate(.0001724)" d="m30.121 31.418c-3.8264 0.4649-6.7151 1.7961-7.1007 6"/>
    <path transform="translate(.0001724)" d="m21.806 32.913c-0.8442 2.5 0.3842 3.7236 1.2143 4.5047"/>
    <path transform="translate(.0001724)" d="m28.511 25.418c1.5819-6.3506-1.9421-8.588-2.3067-12.849-0.1984-2.3194 1.1409-4.7228 3.9684-4.7125 3.628 0.0132 4.0387 3.2125 5.178 7.3443 1.0784 3.9105 5.1848 6.2177 6.9423 6.7829"/>
    <path transform="translate(.0001724)" d="m32.644 19.708c3.4786 4.5221-7.5137 9.9748 0.4276 18.386"/>
    <path transform="translate(.0001724)" d="m35.351 33.568c0.415 4.5-5.1699 5.8512-7.6583 8.8492-1.4478 1.7443-2.5629 5.6412-2.2634 9.8562"/>
    <path transform="translate(.0001724)" d="m47.856 36.574c-0.4988 1.9093-1.3576 3.5161-2.4386 4.7926-3.3322 3.9351-15.16 5.1492-14.944 9.0516"/>
    <path transform="translate(.0001724)" d="m37.114 46.065c0.7282 1.9146 1.0627 4.3526 3.3351 6.5691 2.613 2.5487 4.8079 1.3302 6.0077 4.1278"/>
    <path transform="translate(.0001724)" d="m44.173 54.674c-1.1868 2.2811-2.1165 5.0539 0 6.8829"/>
    <path transform="translate(.0001724)" d="m36.764 27.418c1.9121 3.823 3.4266 11.854-0.9145 15.075"/>
    <path transform="translate(.0001724)" d="m45.216 45.418c0.6317 5.9857 6.8171 6.2189 6.7617 12.26"/>
    <path transform="translate(.0001724)" d="m28.626 53.158c-0.4284 4.5185-6.0247 2.8832-7.1035 9.8116"/>
    <path transform="translate(.0001724)" d="m33.718 47.111c-1.1446 4.8065 2.1305 7.5633-2.2892 15.097"/>
  </g>
</svg>
