<?xml version="1.0" encoding="utf-8"?>
<!-- Generator: Adobe Illustrator 22.1.0, SVG Export Plug-In . SVG Version: 6.00 Build 0)  -->
<svg version="1.1" id="Ebene_1" xmlns="http://www.w3.org/2000/svg" xmlns:xlink="http://www.w3.org/1999/xlink" x="0px" y="0px"
	 viewBox="0 0 55 65" style="enable-background:new 0 0 55 65;" xml:space="preserve">
<style type="text/css">
	.st0{fill:#6A462F;}
	.st1{fill:#FFE8BC;}
	.st2{fill:none;stroke:#030404;stroke-width:2;stroke-linecap:round;stroke-linejoin:round;}
	.st3{fill:none;stroke:#000000;stroke-width:2;stroke-linecap:round;stroke-linejoin:round;stroke-miterlimit:10;}
	.st4{fill:none;stroke:#6A462F;stroke-linecap:round;stroke-linejoin:round;stroke-miterlimit:10;}
	.st5{fill:#1D1D1B;}
	.st6{fill:none;stroke:#1C1C1B;stroke-width:2;stroke-linecap:round;stroke-linejoin:round;}
</style>
<path class="st0" d="M44.2,42.6c2.1-13.2-5.3-31.5-7.8-32.1c-7.7-1.8-18,1.4-21.3,5.7c-4.7,6.2-6,14.7-5,26.4"/>
<path class="st1" d="M16.8,25.1l-0.1,2.1c0,7.7,4.7,13.9,10.8,13.8c3.4-0.1,7.1-2.4,9-5.9c2.3-4.3,2.4-10,2.4-10l-8.7-4l-7.6-3.4
	c0,0-5.5,5.8-6,8.5"/>
<path class="st2" d="M24.3,35.1c1.9,1,4.1,1,6,0"/>
<path class="st3" d="M43.9,41.7c2.3-12.7-5.3-31.5-7.7-32.1c-7.7-1.8-17.7,1.5-21,5.7c-4.7,6.2-6.1,14.6-5,26.4"/>
<path d="M33.5,27.1c0,1.1-0.9,2-2,2s-2-0.9-2-2s0.9-2,2-2C32.6,25.1,33.5,26,33.5,27.1"/>
<path d="M25.5,27.1c0,1.1-0.9,2-2,2s-2-0.9-2-2s0.9-2,2-2S25.5,26,25.5,27.1"/>
<path class="st4" d="M19.9,23.9l1.6-0.6c0,0,2.4-0.5,3.9,0"/>
<path class="st4" d="M35.1,23.9l-1.4-0.5c-0.2-0.1-0.3-0.1-0.5-0.1c-0.7-0.1-2.4-0.4-3.6,0"/>
<path class="st5" d="M8.2,64.2v-9.8c0-5,5-9,10-9c6,5,12,5,18,0c5,0,10,4,10,9v9.8H8.2z"/>
<path d="M36.7,45.2c-3.2,2.1-4.9,3-8.9,3.6c13,0.4,13,11.4,13.8,15.4h5.1C46.7,64.2,48.7,45.2,36.7,45.2"/>
<path class="st6" d="M8.4,63.2v-9c0-5,5-9,10-9c6,5,12,5,18,0c5,0,10,4,10,9v9"/>
<path class="st2" d="M38.7,25.2c0.6,10.4-5,16-11,16s-11-6-11-14c0-5,2-5.5,6-9.5c4,4,20.8,5.8,21.4,14.4"/>
</svg>
