<svg id="Ebene_2" data-name="Ebene 2" xmlns="http://www.w3.org/2000/svg" viewBox="0 0 55 65">
  <title>antonia_wagner</title>
  <g id="emoji">
    <g id="color">
      <polygon points="6.073 64.954 49.801 64.954 49.801 59.047 47.5 53.14 41.746 49.596 39.444 48.415 31.389 51.959 25.636 51.959 19.882 49.596 17.58 48.415 10.676 49.596 7.224 53.14 6.073 60.229 6.073 64.954" fill="#3f3f3f"/>
      <polyline points="43.587 64.954 49.801 64.954 49.801 59.047 47.5 53.14 42.597 48.753 39.444 48.415 34.841 50.423"/>
      <g id="skin">
        <path d="M15.509,25.969c-1.0357.1182,1.4959,3.19,1.4959,4.3711,0,1.4176-1.611,1.772-1.3809,3.0715C17.0049,40.736,22.1833,46.17,28.2822,46.17c7.25,0,13.0034-7.4426,13.0034-16.7753a34.2438,34.2438,0,0,0-.23-3.426c.46-.1181-3.6824-5.4342-9.6663-8.0332V17.227s-.9206,2.599-2.7618,3.3078l.8056-.4726-.9206-5.6705-.8056.4725C27.8219,14.9824,21.1476,25.3784,15.509,25.969Z" fill="#ffe8bc"/>
      </g>
    </g>
    <g id="hair">
      <path d="M47.5,33.0572s-1.1508,3.5441-5.7538,1.1814l-2.3015-2.3628V29.5131l1.1508-3.5441L32.54,17.7v5.198l-4.603-1.1814V15.3368l-2.3015,4.7254-4.603,3.5441L15.2788,25.969,16.43,29.5131l-1.1508,3.5441-2.3015,1.1814s-1.1507,4.7254-4.603,2.3627-1.1507-2.3627-1.1507-2.3627l2.3015-2.3628,1.1507-2.3627V22.425l3.4523-3.5441L17.58,15.3368l2.3015-2.3627,3.4522-1.1814,3.4523-1.1813,4.6029,2.3627,2.3015-1.1814h2.3015l2.3015,3.5441,1.1507,3.5441,1.1508,1.1813,3.4522,1.1814,1.1508,2.3627v8.27Z" fill="#ea5a47"/>
    </g>
    <g id="line">
      <g id="line-2">
        <path d="M34.7264,27.2685a2.3023,2.3023,0,1,1-2.3015-2.3627,2.34,2.34,0,0,1,2.3015,2.3627"/>
        <path d="M25.52,27.2685a2.3022,2.3022,0,1,1-2.3015-2.3627A2.34,2.34,0,0,1,25.52,27.2685"/>
        <path d="M27.8219,39.0821a7.5,7.5,0,0,1-3.9125-1.0632,1.1847,1.1847,0,0,1-.5754-1.5357,1.0045,1.0045,0,0,1,1.496-.4726h0a5.7979,5.7979,0,0,0,5.8688,0,1.1957,1.1957,0,0,1,1.496.4726,1.3116,1.3116,0,0,1-.46,1.5357A7.501,7.501,0,0,1,27.8219,39.0821Z"/>
        <path d="M15.2788,33.4116C16.7748,40.5,21.8381,45.58,27.8219,45.58c5.7537,0,10.5869-4.7254,12.313-11.341" fill="none" stroke="#000" stroke-linecap="round" stroke-linejoin="round" stroke-width="2"/>
        <path d="M49.4559,63.6544s2.3015-15.3576-11.5074-15.3576C34.2661,50.7776,31.1591,52.55,27.5918,52.55h.115c-3.5673,0-6.6743-1.7721-10.3567-4.2529-13.8089,0-11.5074,15.3576-11.5074,15.3576" fill="none" stroke="#000" stroke-linecap="round" stroke-linejoin="round" stroke-width="2"/>
      </g>
      <path d="M12.9773,34.2386s5.7537-1.1814,2.3015-8.27c-.3452.1182,4.603,0,12.6582-10.6322,0,0-1.1507,3.5441,1.1507,5.9068" fill="none" stroke="#000" stroke-linecap="round" stroke-linejoin="round" stroke-width="2"/>
      <path d="M32.54,22.425c-2.3015-2.3628,1.1507-5.9068,1.1507-5.9068,0,2.3627,6.9045,9.4508,6.9045,9.4508s-3.4522,7.0882,2.3015,8.27" fill="none" stroke="#000" stroke-linecap="round" stroke-linejoin="round" stroke-width="2"/>
      <path d="M47.5,33.0572s-4.603,0-2.3015-4.7254-1.1508-7.0882-1.1508-7.0882-4.603,0-5.7537-5.9068-6.9045-2.3627-6.9045-2.3627S25.6355,7.0673,18.731,14.1554,9.5251,21.2436,10.6758,25.969a6.89,6.89,0,0,1-2.3015,7.0882s-2.3015,2.3627,0,3.5441" fill="none" stroke="#000" stroke-linecap="round" stroke-linejoin="round" stroke-width="2"/>
    </g>
  </g>
</svg>
