<?xml version="1.0" encoding="utf-8"?>
<!-- Generator: Adobe Illustrator 16.0.4, SVG Export Plug-In . SVG Version: 6.00 Build 0)  -->
<!DOCTYPE svg PUBLIC "-//W3C//DTD SVG 1.1//EN" "http://www.w3.org/Graphics/SVG/1.1/DTD/svg11.dtd">
<svg version="1.1" id="Ebene_1" xmlns="http://www.w3.org/2000/svg" xmlns:xlink="http://www.w3.org/1999/xlink" x="0px" y="0px"
	 width="55px" height="65px" viewBox="0 0 55 65" enable-background="new 0 0 55 65" xml:space="preserve">
<path d="M17.4,36c-1.9-6.9-1.9-8.7-2.9-14.5C13.4,15.7,18.4,10,26.8,10c8.4,0,11.8,5.7,11.8,11.7c-1.1,6.6-0.5,7.8-2.4,14.3"/>
<path fill="#1C1C1B" d="M32.6,28.2c0,1.1-0.9,2-2,2s-2-0.9-2-2c0-1.1,0.9-2,2-2S32.6,27.1,32.6,28.2"/>
<path fill="#1C1C1B" d="M24.6,28.2c0,1.1-0.9,2-2,2c-1.1,0-2-0.9-2-2c0-1.1,0.9-2,2-2C23.7,26.2,24.6,27.1,24.6,28.2"/>
<path fill="#FFE8BC" d="M15.7,29.2c-0.1,8,4.1,14,11,14c7.1,0,11.1-6,11.1-14c0-5-3-10-3-10c-8,0-8.7-0.3-14.7-2.3
	C20.1,16.9,15.8,24.2,15.7,29.2"/>
<path d="M32.6,28.2c0,1.1-0.9,2-2,2s-2-0.9-2-2c0-1.1,0.9-2,2-2S32.6,27.1,32.6,28.2"/>
<path d="M24.6,28.2c0,1.1-0.9,2-2,2c-1.1,0-2-0.9-2-2c0-1.1,0.9-2,2-2C23.7,26.2,24.6,27.1,24.6,28.2"/>
<path fill="none" stroke="#000000" stroke-width="2" stroke-linejoin="round" d="M15.7,29.2c-0.1,8,4.9,14,11,14
	c5.9,0,11.1-6,11.1-14c0-5-2.7-14.1-2.7-14.1c-8,0-9,3.8-15,1.8C20.1,16.9,15.8,24.2,15.7,29.2z"/>
<path fill="none" stroke="#000000" stroke-width="2" stroke-linecap="round" stroke-linejoin="round" d="M23.6,36.9
	c2.1,0.8,4.1,0.8,6,0"/>
<path d="M26.6,38.8l-1.7,1.9L17.7,37c-0.7,0,7.8,14,18.1,0.2l-7.5,3.6L26.6,38.8z"/>
<path fill="none" stroke="#000000" stroke-linecap="round" stroke-linejoin="round" stroke-miterlimit="10" d="M26.6,38.8l-1.7,1.9
	L17.7,37c-0.7,0,7.8,14,18.1,0.2l-7.5,3.6L26.6,38.8z"/>
<path fill="#FFFFFF" d="M45.2,65c-0.6,0,0-10.1,0-10.1c0-4.5-5.5-8.8-9.7-8.9c-6.2,5-12.1,4.9-18.3-0.1c-4.2,0.2-9.9,3.4-9.9,7.8
	c0,0,0.4,11.2-0.1,11.2"/>
<path fill="#D7D8DE" d="M35.6,46.5c-3.2,2.1-4.9,3-8.9,3.6c13.1,0.4,13.1,11.4,13.8,15.4h5.1C45.6,65.5,47.6,46.5,35.6,46.5"/>
<path fill="none" stroke="#030404" stroke-width="2" stroke-linecap="round" stroke-linejoin="round" d="M7.2,63.9v-9c0-5,5-9,10-9
	c6,5,12,5,18,0c5,0,10,4,10,9v9"/>
<path fill="none" stroke="#000000" stroke-linecap="round" stroke-linejoin="round" stroke-miterlimit="10" d="M19.1,24.4l1.6-0.6
	c0,0,2.4-0.5,3.9,0"/>
<path fill="none" stroke="#000000" stroke-linecap="round" stroke-linejoin="round" stroke-miterlimit="10" d="M34.3,24.4l-1.6-0.6
	c0,0-2.4-0.5-3.9,0"/>
<path fill="#CD4D41" d="M37.8,29.2c-0.5-0.9,9.1-17.1-11.1-16.7c-17.3,0.3-12.6,15-11,16.7C16.2,26.6,14.8,18,26.6,19
	C39.6,20.2,37.3,28.3,37.8,29.2"/>
<path fill="#CD4D41" d="M37.8,16.6C37.4,16.1,37.4,9,26.7,9c-9.7,0-10,6-10.8,7.1c0.8-1,2.8-4.2,10.8-4.2
	C34.9,11.8,37.4,16.1,37.8,16.6"/>
<path fill="none" stroke="#1C1C1B" stroke-width="2" stroke-linecap="round" stroke-linejoin="round" d="M37.8,30
	c2.2-3.6,5.1-17.5-11-17.5c-16.8,0-13.1,16.4-11,18.1C15.1,27.1,14.9,19,26.7,19C39,19,37.3,29.2,37.8,30z"/>
<path fill="none" stroke="#1C1C1B" stroke-width="2" stroke-linecap="round" stroke-linejoin="round" d="M16.6,16.1
	c4-11.3,17.7-10.1,21.1,0.5"/>
<path d="M28,34.7l3.9,0.1c0.5,0-3.6-6-11,0l4.6-0.1H28z"/>
<path fill="none" stroke="#000000" stroke-linecap="round" stroke-linejoin="round" d="M27.9,34.7l4,0.1c0.8-0.1-5.5-5.8-11,0
	l4.5-0.1H27.9z"/>
</svg>
