<?xml version="1.0" encoding="utf-8"?>
<!-- Generator: Adobe Illustrator 16.0.4, SVG Export Plug-In . SVG Version: 6.00 Build 0)  -->
<!DOCTYPE svg PUBLIC "-//W3C//DTD SVG 1.1//EN" "http://www.w3.org/Graphics/SVG/1.1/DTD/svg11.dtd">
<svg version="1.1" id="Ebene_1" xmlns="http://www.w3.org/2000/svg" xmlns:xlink="http://www.w3.org/1999/xlink" x="0px" y="0px"
	 width="55px" height="65px" viewBox="0 0 55 65" enable-background="new 0 0 55 65" xml:space="preserve">
<path fill="#BEAFD5" d="M8.2,65v-9.8c0-5,5.3-12.7,10.3-12.7c6,5,11.7,8.7,17.7,3.7c5,0,10,4,10,9V65H8.2z"/>
<path fill="#9783B4" d="M36.7,40.6c-3.2,2.101-4.9,8.4-9,9C40.8,50,40.8,61,41.6,65H46.7C46.7,65,48.7,40.6,36.7,40.6"/>
<path fill="#FFE8BC" d="M19.9,40.8c-1,11,4,10.9,7.5,16.2c2.8-6.8,7.1-5.3,6.6-16.3"/>
<path fill="none" stroke="#000000" stroke-width="2" stroke-linecap="round" stroke-linejoin="round" d="M8.4,64v-9
	c0-5,5.1-14.8,10.1-14.8c0.8,0.6,2,6,2.6,7.899c1.8,5.801,4.4,5.4,6.3,8.9c2-3.7,5.5-4,6.1-10c0.2-2.2,2.4-5.7,3.3-6.4
	c5,0,9.7,9.5,9.7,14.4v9"/>
<path fill="#CC9966" d="M41.416,51.714C42.315,32.314,46.825,11.625,30.6,9.9c-6.3-0.5-13.7,0.7-16.5,6.7
	c-3.5,7.4-2.159,21.908-2.559,35.108c3.3,0,2.659-0.101,5.958,0c0-2.9,1.8-10.008,1.7-13.008c5.9-0.2,8.5,0.6,14.399,0.399
	c0.2,3.101,2.5,9.608,2.7,12.608C38,51.808,39.615,51.514,41.416,51.714"/>
<path fill="#FFE8BC" d="M16.6,27.2v1c0,7.7,4.7,13.8,10.8,13.8c6,0,10.6-8.1,9.8-14.5c-0.601-4.6,0.2-10.1-5.7-11.7
	c-4.6-0.6-8.7-0.2-12,1.4C16.7,18.8,17,26.3,16.6,27.2"/>
<path fill="none" stroke="#000000" stroke-width="2" stroke-linecap="round" stroke-linejoin="round" stroke-miterlimit="10" d="
	M24.1,36c1.9,1,4.1,1,6,0"/>
<path fill="#1C1C1B" d="M33.1,27.5c0,1.1-0.899,2-2,2c-1.1,0-2-0.9-2-2s0.9-2,2-2C32.2,25.5,33.1,26.4,33.1,27.5"/>
<path fill="#1C1C1B" d="M25.1,27.5c0,1.1-0.9,2-2,2s-2-0.9-2-2s0.9-2,2-2S25.1,26.4,25.1,27.5"/>
<path d="M33.1,27.5c0,1.1-0.899,2-2,2c-1.1,0-2-0.9-2-2s0.9-2,2-2C32.2,25.5,33.1,26.4,33.1,27.5"/>
<path d="M25.1,27.5c0,1.1-0.9,2-2,2s-2-0.9-2-2s0.9-2,2-2S25.1,26.4,25.1,27.5"/>
<path fill="none" stroke="#000000" stroke-width="2" stroke-linecap="round" stroke-linejoin="round" stroke-miterlimit="10" d="
	M41.4,50.7c2.699-19.9,5.199-41-14.7-41C17,9.7,13,14.2,11.3,25.1c-1.2,7.7-0.5,13.6,0.4,25.6"/>
<path fill="none" stroke="#000000" stroke-width="2" stroke-linejoin="round" d="M16.1,28.8c0,8,5,14,11,14c6,0,10.3-6.1,10.6-14.1
	c0.1-2.6,1.3-13.3-9.601-13.3c-9.399,0-12,2.7-12,12.4V28.8z"/>
<path fill="none" stroke="#000000" stroke-width="2" stroke-linecap="round" stroke-linejoin="round" stroke-miterlimit="10" d="
	M33.6,40.2C34.2,44,35.7,47,36.3,50.8"/>
<path fill="none" stroke="#000000" stroke-width="2" stroke-linecap="round" stroke-linejoin="round" stroke-miterlimit="10" d="
	M20,39.5c-0.6,3.8-2,7.4-2.5,11.2"/>
<path fill="none" stroke="#83674C" stroke-width="1.2" stroke-linecap="round" stroke-linejoin="round" stroke-miterlimit="10" d="
	M20.6,24.8c0,0,2.3-1.6,4.5-0.3"/>
<path fill="none" stroke="#83674C" stroke-width="1.2" stroke-linecap="round" stroke-linejoin="round" stroke-miterlimit="10" d="
	M33.7,24.8c0,0-2.3-1.6-4.5-0.3"/>
</svg>
