<svg id="Ebene_2" data-name="Ebene 2" xmlns="http://www.w3.org/2000/svg" viewBox="0 0 55 65">
  <title>evelyn_soos</title>
  <g id="line">
    <path d="M7.2143,64.96V54.4118c0-5.3579,5.1927-9.6558,10.3708-9.6558q9.3337,8.0465,18.6675,0c5.1761,0,10.3708,4.2979,10.3708,9.6558V64.96Z" fill="#fff"/>
    <path d="M36.7547,44.6155c-3.2875,2.2669-5.0557,3.2186-9.2694,3.8516C41.0327,48.9069,41.0327,60.7085,41.8219,65h5.3026c.001,0,2.0752-20.3845-10.37-20.3845" fill="#d7d8de"/>
    <path d="M18.2966,39.2822c-.9935,11.8327,1.64,13.7843,8.782,16.2,6.0679-2.7277,9.75-3.2641,9.203-15.1" fill="#ffe8bc"/>
    <path d="M7.373,63.9357V54.28a9.85,9.85,0,0,1,9.7829-9.6559,21.3247,21.3247,0,0,0,2.3334,1.7606l-.084,1.2488c0,10.3718,15.0894,10.3718,15.0894,0L34.3,46.6153A20.9245,20.9245,0,0,0,37,44.6262a9.85,9.85,0,0,1,9.7829,9.6558v9.6559" fill="none" stroke="#000" stroke-linecap="round" stroke-linejoin="round" stroke-width="2"/>
    <path d="M11.5206,61.467c1.8263-.1587,3.8138.147,5.6432-.0118.2-3.2926,4.3233-17.14,4.5213-20.4308,6.1167.2586,4.9822-.09,11.0989.1654-.0508,3.1381,3.41,17.12,3.36,20.2579,3.44-.0837.7142.0408,4.1116-.001,1.7475-13.3358,3.7719-39.8164-2.0679-46.1528-4.55-4.9352-10.6476-5.4566-17.1937-4.8569-8.6514,3.651-12.1318,27.6436-9.4738,51.03" fill="#dab885"/>
    <path d="M37.187,25.3789c-.49-.9066.0664-5.5071-2.7472-7.1464a17.8318,17.8318,0,0,0-13.7185-3.944c-2.9287,2.6251-4.5715,8.9028-4.8453,13.0033-.5548,8.2633,3.8787,13.898,10.1416,13.898S37.187,34.6989,37.187,26.4153V25.3789" fill="#ffe8bc"/>
    <path d="M23.8553,34.87a6.4171,6.4171,0,0,0,6.2225,0" fill="none" stroke="#000" stroke-linecap="round" stroke-linejoin="round" stroke-width="2"/>
    <path d="M33.1465,25.7694a2.0753,2.0753,0,1,1-2.0741-2.1457,2.1116,2.1116,0,0,1,2.0741,2.1457" fill="#1c1c1b"/>
    <path d="M24.8489,25.7694a2.0754,2.0754,0,1,1-2.0742-2.1457,2.1117,2.1117,0,0,1,2.0742,2.1457" fill="#1c1c1b"/>
    <path d="M33.1465,25.7694a2.0753,2.0753,0,1,1-2.0741-2.1457,2.1116,2.1116,0,0,1,2.0741,2.1457"/>
    <path d="M24.8489,25.7694a2.0754,2.0754,0,1,1-2.0742-2.1457,2.1117,2.1117,0,0,1,2.0742,2.1457"/>
    <path d="M40.256,60.3942c1.0744-12.5687,3.83-32.9894.4977-40.5564C37.1943,11.1089,27.7562,9.6572,21.9273,10.2,9.647,12.3708,9.4848,46.2333,11.4843,60.35" fill="none" stroke="#000" stroke-linecap="round" stroke-linejoin="round" stroke-width="2"/>
    <path d="M18.7944,22.1184a13.9884,13.9884,0,0,1,1.6624-.65,6.5976,6.5976,0,0,1,4.0156.0536" fill="none" stroke="#83674c" stroke-linecap="round" stroke-linejoin="round"/>
    <path d="M34.57,22.1184s-.9926-.4222-1.6624-.65a6.5739,6.5739,0,0,0-4.0156.0536" fill="none" stroke="#83674c" stroke-linecap="round" stroke-linejoin="round"/>
    <path d="M37.6641,27.0912l-.0011-1.0729c0-13.2328-14.13-11.4574-16.3484-10.8726-2.7247.7183-5.5195,8.24-5.4406,12.1461.18,8.5819,4.16,14.82,10.3822,14.82s11.4079-6.4373,11.4079-15.02Z" fill="none" stroke="#000" stroke-linejoin="round" stroke-width="2"/>
    <path d="M21.23,41.3869c-.8677,4.7342-3.7039,15.1664-4.25,18.97" fill="none" stroke="#000" stroke-linecap="round" stroke-linejoin="round" stroke-width="2"/>
    <path d="M32.49,40.0783c.2955,4.1241,3.1755,16.2293,3.4721,20.3534" fill="none" stroke="#000" stroke-linecap="round" stroke-linejoin="round" stroke-width="2"/>
    <path d="M25.909,26.0193c-.1037,2.36-1.3482,3.3259-3.63,3.3259S18.1309,27.95,18.1309,25.59a14.7525,14.7525,0,0,1,.1037-1.8239c.7259-.751,2.8-.751,3.9409-.751,1.3482,0,3.7335.2146,3.7335.2146A22.9539,22.9539,0,0,1,25.909,26.0193Z" fill="none" stroke="#000" stroke-linecap="round" stroke-linejoin="round"/>
    <path d="M27.9137,26.0193c.1037,2.36,1.3482,3.3259,3.63,3.3259S35.6918,27.95,35.6918,25.59a14.7525,14.7525,0,0,0-.1037-1.8239c-.7259-.751-2.8-.751-3.9409-.751-1.3482,0-3.7335.2146-3.7335.2146Z" fill="none" stroke="#000" stroke-linecap="round" stroke-linejoin="round"/>
    <line x1="15.8292" y1="25.5901" x2="18.1309" y2="25.5901" fill="none" stroke="#000" stroke-linecap="round" stroke-linejoin="round"/>
    <line x1="36.1067" y1="25.3755" x2="38.104" y2="25.3755" fill="none" stroke="#000" stroke-linecap="round" stroke-linejoin="round"/>
    <line x1="25.9387" y1="25.5901" x2="27.9137" y2="25.5901" fill="none" stroke="#000" stroke-linecap="round" stroke-linejoin="round"/>
  </g>
</svg>
