<?xml version="1.0" encoding="utf-8"?>
<!-- Generator: Adobe Illustrator 23.0.2, SVG Export Plug-In . SVG Version: 6.00 Build 0)  -->
<svg version="1.1" id="Ebene_1" xmlns="http://www.w3.org/2000/svg" xmlns:xlink="http://www.w3.org/1999/xlink" x="0px" y="0px"
	 viewBox="0 0 55 65" style="enable-background:new 0 0 55 65;" xml:space="preserve">
<style type="text/css">
	.st0{fill:#EFD4A8;}
	.st1{fill:#A95300;}
	.st2{fill:none;stroke:#7A562D;stroke-linecap:round;stroke-linejoin:round;stroke-miterlimit:10;}
	.st3{fill:#C31F5E;}
	.st4{fill:#9D0047;}
	.st5{fill:none;stroke:#000000;stroke-width:2.0013;stroke-linecap:round;stroke-linejoin:round;stroke-miterlimit:10;}
	.st6{fill:none;stroke:#000000;stroke-width:2;stroke-miterlimit:10;}
	.st7{fill:#A95300;stroke:#000000;stroke-width:2.0013;stroke-linecap:round;stroke-linejoin:round;stroke-miterlimit:10;}
	.st8{fill:#FFFFFF;stroke:#000000;stroke-width:2.0013;stroke-linecap:round;stroke-linejoin:round;stroke-miterlimit:10;}
</style>
<ellipse class="st0" cx="26.5" cy="30" rx="11.4" ry="14.8"/>
<path class="st1" d="M27.3,14.6c0,0,10.3,7.5,10.4,14.8c0.1,6.7,5.4,8,7.6,8.6c0,0-3-8.2-2.4-10.8c0,0,1-8-2-12.1
	C40.8,15,34.3,6.7,27.3,14.6z"/>
<path class="st2" d="M28.4,26.7c0,0,1.1-0.9,2.5-0.4c0,0,0.6,0.4,2.2,0.7"/>
<path class="st2" d="M24.4,26.7c0,0-1.1-0.9-2.5-0.4c0,0-0.6,0.4-2.2,0.7"/>
<path class="st3" d="M7.4,64.9c0,0-2-17.3,10-17.3c3.2,2.7,5.9,4.5,9,4.5h-0.1c3.1,0,5.5-2.7,8.7-5.4c13.8,0,10.7,18.2,10.7,18.2"/>
<path class="st4" d="M35,46.7c-3.2,2.7-5.6,5.4-8.6,5.4c-0.1,0-0.1,0-0.2,0v0.8c13.1,0.5,13.1,7,13.8,12h5.7
	C45.7,64.9,48.6,46.8,35,46.7z"/>
<path class="st0" d="M20.2,51c0,0,0.4,6,6.3,6.9c0,0,0.1,0,0.1,0c0.1,0,0.1,0,0.1,0c5.9-1,6.8-6.8,6.8-6.8"/>
<path class="st5" d="M7.5,64c0,0-2-16.4,10-16.4c3.2,2.7,5.9,4.5,9,4.5h-0.1c3.1,0,5.8-1.8,9-4.5c12,0,10,16.4,10,16.4"/>
<path d="M32.6,29.8c0,1.1-0.9,2-2,2s-2-0.9-2-2c0-1.1,0.9-2,2-2S32.6,28.7,32.6,29.8"/>
<path d="M24.6,29.8c0,1.1-0.9,2-2,2s-2-0.9-2-2c0-1.1,0.9-2,2-2S24.6,28.7,24.6,29.8"/>
<path d="M26.6,39.8c-1.2,0-2.3-0.3-3.4-0.9c-0.5-0.2-0.7-0.8-0.4-1.3c0.2-0.5,0.8-0.7,1.3-0.4c1.7,0.9,3.4,0.9,5.1,0
	c0.5-0.2,1.1,0,1.3,0.4c0.2,0.5,0,1.1-0.4,1.3C28.9,39.5,27.8,39.8,26.6,39.8z"/>
<ellipse class="st5" cx="26.5" cy="30" rx="11.4" ry="14.8"/>
<path class="st6" d="M20,49.7c0,0,0.5,7.3,6.5,8.2c0,0,0.1,0,0.1,0c0.1,0,0.1,0,0.1,0c5.9-1,6.5-8.2,6.5-8.2"/>
<path class="st5" d="M45.2,37c-1.4-1.8-2-5.1-2.2-7.4c-0.1-1.3-0.2-2.5-0.1-3.8c0.5-8.7-3-11.8-3-11.8c-6.4-6.5-13.1,0.5-13.1,0.5"
	/>
<path class="st7" d="M14.7,30.5c1.6-1.7,3.4-6.8,7.3-7.4c3.4-0.5,6.8-2,10.4-1c1.7,0.5,5.5,6.4,5.4,9.2c0,0,1.3-14.3-6.6-16.7
	c-3.6-1.1-9.9-0.6-13,1.5C16,17.6,13.9,25.8,14.7,30.5z"/>
<path class="st7" d="M27.6,14.9"/>
<path class="st5" d="M14.6,26.7c-0.7,5.8-1.2,8.3-4.1,10.4"/>
<path class="st8" d="M24.6,57.4c0,0-0.1,2.3,0.4,5.1c0,0-9.5-1.8-8.1-14.5l3.6,1.9C20.4,49.8,19.9,54.9,24.6,57.4z"/>
<path class="st8" d="M28.7,57.3c0,0,0.1,2.3-0.4,5.1c0,0,9.5-2,8-14.7L33,49.5C33,49.5,33.4,54.9,28.7,57.3z"/>
</svg>
