<svg id="Ebene_2" data-name="Ebene 2" xmlns="http://www.w3.org/2000/svg" viewBox="0 0 55 65">
  <title>ferdinand_sorg</title>
  <g id="line">
    <path d="M48.4979,64.936V55.0271c0-5.505-5.5049-9.909-11.01-9.909H34.5594V42.2335a13.212,13.212,0,0,1-14.368,0v2.8846H17.67c-5.5049,0-11.01,4.404-11.01,9.909V64.936" fill="#212121"/>
    <path d="M19.0574,14.6206s6.2536,1.3212,16.3057,0a40.7406,40.7406,0,0,1,2.6754,9.3034,18.1106,18.1106,0,0,1-.4074,7.4537c-1.7726,6.1436-6.4187,8.5658-10.4924,8.5658h.0881c-1.101-.3854-7.8611-.5946-10.4815-9.6668a15.5587,15.5587,0,0,1-.4514-2.1029,17.1428,17.1428,0,0,1,.8147-7.7069Z" fill="#ffe8bc"/>
    <path d="M30.827,33.4586a10.4815,10.4815,0,0,1-6.4959,0" fill="none" stroke="#000" stroke-linecap="round" stroke-linejoin="round" stroke-width="2"/>
    <path d="M33.8768,24.6617a2.202,2.202,0,1,1-2.202-2.202,2.202,2.202,0,0,1,2.202,2.202"/>
    <path d="M25.3551,24.6617a2.202,2.202,0,1,1-2.202-2.202,2.202,2.202,0,0,1,2.202,2.202"/>
    <line x1="20.3896" y1="21.5128" x2="25.3661" y2="21.7661" fill="none" stroke="#000" stroke-linecap="round" stroke-miterlimit="10" stroke-width="0.5"/>
    <line x1="34.3502" y1="21.4908" x2="29.3737" y2="21.7551" fill="none" stroke="#000" stroke-linecap="round" stroke-miterlimit="10" stroke-width="0.5"/>
    <line x1="19.0684" y1="14.6316" x2="35.3741" y2="14.6096" fill="none" stroke="#000" stroke-linejoin="round" stroke-width="2"/>
    <path d="M22.8888,11.2736a12.473,12.473,0,0,1,3.6884-.9909,9.909,9.909,0,0,1,10.5365,7.3987,43.91,43.91,0,0,1,1.101,5.12,14.7758,14.7758,0,0,1-.4074,7.4537c-2.0478,5.9124-6.0224,9.6667-10.4264,9.6667H27.48c-3.303.1432-8.9181-4.2938-10.6136-10.7677a17.0772,17.0772,0,0,1-.5285-6.6059A23.4757,23.4757,0,0,1,17.9894,16.36l.0771-.1872A9.1387,9.1387,0,0,1,22.8888,11.2736Z" fill="none" stroke="#000" stroke-linejoin="round" stroke-width="2"/>
    <polygon points="31.422 20.973 35.253 20.973 37.961 22.911 37.961 25.983 35.253 29.044 31.422 29.044 28.724 26.676 28.724 23.34 31.422 20.973" fill="none" stroke="#d6af50" stroke-linecap="round" stroke-miterlimit="10" stroke-width="0.5"/>
    <line x1="25.8835" y1="23.3405" x2="28.7241" y2="23.3405" fill="none" stroke="#d6af50" stroke-linecap="round" stroke-miterlimit="10" stroke-width="0.5"/>
    <polygon points="23.241 20.973 19.421 20.973 16.712 22.911 16.712 25.983 19.421 29.044 23.241 29.044 25.95 26.676 25.95 23.34 23.241 20.973" fill="none" stroke="#d6af50" stroke-linecap="round" stroke-miterlimit="10" stroke-width="0.5"/>
    <path d="M48.4979,64.8369c-.11,0,3.8976-22.9006-13.1018-19.7188,0,0,4.2609.5615,4.9985,6.9143a77.1753,77.1753,0,0,1,.1982,12.9036h7.8941Z" fill="#111" opacity="0.8" style="isolation: isolate"/>
    <path d="M6.66,63.9231V54.0142c0-5.505,5.505-9.909,11.01-9.909h2.5213V41.2646a13.2116,13.2116,0,0,0,14.368,0v2.8406H37.488c5.505,0,11.01,4.404,11.01,9.909v9.9089" fill="none" stroke="#030404" stroke-linecap="round" stroke-linejoin="round" stroke-width="2"/>
    <path d="M19.0574,14.6206l16.603.2863s-3.3911-5.7252-8.0813-4.6792A22.0962,22.0962,0,0,0,19.0574,14.6206Z"/>
  </g>
</svg>
