<?xml version="1.0" encoding="UTF-8"?>
<svg id="Ebene_1" data-name="Ebene 1" xmlns="http://www.w3.org/2000/svg" viewBox="0 0 55 65">
  <g id="color">
    <path d="M22.2989,20.4908l3.8057-.8132c.7784-.1663,2.0565-.1805,2.834-.0101,3.7079.8125,4.9963,1.9677,7.9639,4.0633.0103.0072.0204.0154.0295.0241,2.9527,2.8007,5.97,6.887,6.2432,9.0558.5536,1.7084.641,3.3718.5049,4.9046-.1882,2.1186-1.9707,3.9429-1.683,6.2704.2874,2.3247,2.64,5.1515,4.724,8.2524.0048.0072.0094.0147.0135.0225l3.0423,5.7006c.0225.0422.0314.0852.0255.1326-.2021,1.614.1819,5.6006.2895,6.6498.0144.1407-.0887.2563-.2301.2563-3.4029-.0012-39.4748-.0133-40.8719-.0125-2.6132.0014-3.7109-.0023-4.166-.0052-.1566-.001-.2706-.1436-.2293-.2946.2651-.9711.4348-4.5484,1.07-11.5366.6734-7.4066,3.5106-13.7404,4.6535-17.5205.8149-2.6952,5.0091-8.9899,6.5643-11.0634" fill="#a57939" stroke-width="0"/>
    <path d="M36.3071,51.0642c-3.1348,2.0814-5.8243,4.5097-8.8386,4.5233-3.0142-.0136-5.7037-2.4419-8.8386-4.5233-11.8672,0-10.042,13.9009-10.042,13.9009h4.7447l.0012-9.8678-.0817-.1478c1.3643-.7533,2.56-1.2184,4.8171-1.2184l.0875-.0118s.5044,9.7909,9.048,10.8932h.841c8.5436-1.1024,8.5905-10.8932,8.5905-10.8932l.2316.0118c2.4243,0,3.7101.5365,5.1137,1.3903l.0146-.0241v9.8107l4.267.092s1.9112-13.9357-9.956-13.9357Z" fill="#b399c8" stroke-width="0"/>
    <path d="M36.8688,51.9836c2.4243,0,3.7101.5365,5.1137,1.3903l.0146-.0241-.001,11.5104-28.6636.1048.0022-11.6154-.0817-.1478c1.3643-.7533,2.56-1.2184,4.8171-1.2184l.0875-.0118s3.0397,8.2466,8.9253,11.3542h.841c7.2031-1.9346,8.7132-11.3542,8.7132-11.3542" fill="#f4aa41" stroke-width="0"/>
  </g>
  <g id="skin">
    <path d="M16.8522,36.1745c0,1.1605.7017,10.7879,9.6714,13.1754,6.0903-.5062,14.1321-8.7404,10.3136-15.4743-2.5541-4.5042-6.8858-8.3269-7.0351-9.2393l-3.8689-.0691-1.0447.2899-4.9033,2.1955s-3.133,8.1542-3.133,9.1219h0Z" fill="#fadcbc" stroke-width="0"/>
  </g>
  <g id="hair">
    <path d="M20.7956,31.3048c.0989-.1978,1.9779-1.5823,3.9557-.3956" fill="none" stroke="#a57939" stroke-linecap="round" stroke-miterlimit="10" stroke-width=".75"/>
    <path d="M29.9659,30.8291c.1254-.1822,2.2488-1.0828,3.9175.5493" fill="none" stroke="#a57939" stroke-linecap="round" stroke-miterlimit="10" stroke-width=".75"/>
  </g>
  <g id="line">
    <path d="M33.554,33.6527c0,1.0923-.8866,1.9779-1.9779,1.9779s-1.9779-.8856-1.9779-1.9779c0-1.0913.8866-1.9779,1.9779-1.9779s1.9779.8866,1.9779,1.9779" stroke-width="0"/>
    <path d="M25.6425,33.6527c0,1.0923-.8866,1.9779-1.9779,1.9779s-1.9779-.8856-1.9779-1.9779c0-1.0913.8866-1.9779,1.9779-1.9779s1.9779.8866,1.9779,1.9779" stroke-width="0"/>
    <path d="M27.6465,43.6396c-1.1392,0-2.3044-.3781-3.4354-.9435-.4886-.2444-.6866-.8383-.4424-1.327.2439-.4882.8008-.5751,1.291-.3308,2.3884.8811,2.8237.8811,5.0438,0,.4891-.2443,1.1238-.1574,1.3682.3308.2444.4886.0464,1.0826-.4424,1.327-1.1309.5655-2.2438.9435-3.3829.9435Z" stroke-width="0"/>
    <path d="M46.1593,63.9435s2.0457-12.6355-9.8215-12.6355c-3.1565,2.1044-5.8607,3.5586-8.9004,3.5524h.1236c-3.0396.0062-5.7438-1.448-8.9004-3.5524-11.8672,0-9.9075,12.7215-9.9075,12.7215" fill="none" stroke="#000" stroke-linecap="round" stroke-linejoin="round" stroke-width="2"/>
    <path d="M4.2932,64.1642c.0226-4.8435,1.0789-16.0169,3.3022-22.7564,14.6736-44.4813,41.4562-11.2899,35.8883-1.6853-4.9032,8.4579,8.8688,10.5662,6.6602,24.2211" fill="none" stroke="#000" stroke-linecap="round" stroke-linejoin="round" stroke-width="2"/>
    <path d="M36.6021,51.3027s-.3082,2.8996-.4891,3.3988c-.2069.5706-2.0482,1.7638-2.0482,1.7638l-.0097,2.9672s-6.0575,4.0175-6.5523,4.511l-6.1675-4.6251-.103-2.6751s-2.2343-1.409-2.3-1.8399c-.1616-1.0614-.8097-3.5006-.8097-3.5006" fill="none" stroke="#000" stroke-linecap="round" stroke-linejoin="round" stroke-width="2"/>
    <polyline points="13.5331 63.9435 12.0119 62.8997 13.6833 60.8704 11.9091 58.7735 13.5289 57.08 12.1914 55.2655 13.5289 52.6807" fill="none" stroke="#000" stroke-linecap="round" stroke-linejoin="round" stroke-width="2"/>
    <polyline points="41.607 52.6807 42.9446 55.2655 41.607 57.08 43.2268 58.7735 41.4526 60.8704 43.1242 62.8997 41.6112 63.9435" fill="none" stroke="#000" stroke-linecap="round" stroke-linejoin="round" stroke-width="2"/>
    <path d="M40.8513,47.2477c-4.2492-1.6532-4.2492-6.9607-3.4763-11.4525.2569-3.4261-.6237-4.5375-2.8182-5.5909-.9471-.4546-1.5345-1.4935-1.878-2.3723-.7007-1.7927-2.1358-3.2484-3.9834-3.7878-.837-.2444-1.6588-.2777-2.304.0368l-5.4806,2.6718c-.6159.3002-1.1438.7524-1.528,1.3197-.511.7546-1.4782,5.4969-2.1889,7.2407-.5472,1.3425-1.4921,2.4871-2.7156,3.2647-.6203.3942-1.202.811-1.3847,1.0875-2.9692,4.4924,3.9036,6.0906-1.1343,9.1783" fill="none" stroke="#000" stroke-linecap="round" stroke-linejoin="round" stroke-width="2"/>
    <path d="M17.0847,36.1745s1.4922,12.6692,9.6714,13.1754c7.4196.4592,10.2773-10.8026,10.2773-10.8026" fill="none" stroke="#000" stroke-linecap="round" stroke-linejoin="round" stroke-width="2"/>
  </g>
</svg>