<?xml version="1.0" encoding="utf-8"?>
<!-- Generator: Adobe Illustrator 16.0.4, SVG Export Plug-In . SVG Version: 6.00 Build 0)  -->
<!DOCTYPE svg PUBLIC "-//W3C//DTD SVG 1.1//EN" "http://www.w3.org/Graphics/SVG/1.1/DTD/svg11.dtd">
<svg version="1.1" id="Ebene_1" xmlns="http://www.w3.org/2000/svg" xmlns:xlink="http://www.w3.org/1999/xlink" x="0px" y="0px"
	 width="55px" height="65px" viewBox="0 0 55 65" enable-background="new 0 0 55 65" xml:space="preserve">
<path fill="#DE843A" d="M44,43.4c2.1-13.2-5.3-31.5-7.8-32.1c-7.7-1.8-18,1.4-21.3,5.7c-4.7,6.2-6,14.7-5,26.4"/>
<path fill="#FFE8BC" d="M16.5,27v1c0,7.7,4.7,13.8,10.8,13.8c6,0,10.8-6,10.8-13.8c0-4.7-3-7-6.6-10.6c-4.6-0.6-8.1,0.1-11.5,2.8
	C17.2,21.7,17,26.2,16.5,27"/>
<path fill="none" stroke="#030404" stroke-width="2" stroke-linecap="round" stroke-linejoin="round" d="M24.1,35.9c1.9,1,4.1,1,6,0
	"/>
<path fill="none" stroke="#030404" stroke-width="2" stroke-linejoin="round" d="M16.1,28.6c0,8,5,14,11,14s11-6,11-14
	c0-5-4.3-12.9-11.2-11.9c-6.3,0.9-10.8,6.1-10.8,10.9V28.6z"/>
<path fill="none" stroke="#1D1D1B" stroke-width="2" stroke-linecap="round" stroke-linejoin="round" stroke-miterlimit="10" d="
	M43.7,42.5C45.8,29.3,38.4,11,36,10.4c-7.7-1.8-17.7,1.5-21,5.7c-4.7,6.2-6.1,14.6-5,26.4"/>
<path d="M33.3,27.9c0,1.1-0.9,2-2,2s-2-0.9-2-2s0.9-2,2-2S33.3,26.8,33.3,27.9"/>
<path d="M25.3,27.9c0,1.1-0.9,2-2,2s-2-0.9-2-2s0.9-2,2-2S25.3,26.8,25.3,27.9"/>
<path fill="none" stroke="#DE843A" stroke-linecap="round" stroke-linejoin="round" stroke-miterlimit="10" d="M19.7,24.7l1.6-0.6
	c0,0,2.4-0.5,3.9,0"/>
<path fill="none" stroke="#DE843A" stroke-linecap="round" stroke-linejoin="round" stroke-miterlimit="10" d="M34.9,24.7l-1.6-0.6
	c0,0-2.4-0.5-3.9,0"/>
<path fill="#1D1D1B" d="M8,65v-9.8c0-5,5-9,10-9c6,5,12,5,18,0c5,0,10,4,10,9V65H8z"/>
<path d="M36.5,46c-3.2,2.1-4.9,3-8.9,3.6C40.6,50,40.6,61,41.4,65h5.1C46.5,65,48.5,46,36.5,46"/>
<path fill="#FFE8BC" d="M20.3,48.8c-0.7,6,5,6.6,6.8,10.1c2-3.7,7-4.1,6.6-10.1"/>
<path fill="none" stroke="#1D1D1B" stroke-width="2" stroke-linecap="round" stroke-linejoin="round" stroke-miterlimit="10" d="
	M20.3,48.8c-0.7,6,5,6.6,6.8,10.1c2-3.7,7-4.1,6.6-10.1"/>
<path fill="none" stroke="#1C1C1B" stroke-width="2" stroke-linecap="round" stroke-linejoin="round" d="M8.2,64v-9c0-5,5-9,10-9
	c6,5,12,5,18,0c5,0,10,4,10,9v9"/>
</svg>
