<?xml version="1.0" encoding="utf-8"?>
<!-- Generator: Adobe Illustrator 16.0.4, SVG Export Plug-In . SVG Version: 6.00 Build 0)  -->
<!DOCTYPE svg PUBLIC "-//W3C//DTD SVG 1.1//EN" "http://www.w3.org/Graphics/SVG/1.1/DTD/svg11.dtd">
<svg version="1.1" id="Ebene_1" xmlns="http://www.w3.org/2000/svg" xmlns:xlink="http://www.w3.org/1999/xlink" x="0px" y="0px"
	 width="55px" height="65px" viewBox="0 0 55 65" enable-background="new 0 0 55 65" xml:space="preserve">
<path fill="#DE843A" d="M17.4,33.7C13.2,16.5,19,7.2,27.8,6.8c14.5-0.6,18,16.7,14.7,19"/>
<path fill="#1C1C1B" d="M33.7,27.8c0,1.1-0.9,2-2,2c-1.1,0-2-0.9-2-2s0.9-2,2-2C32.8,25.8,33.7,26.7,33.7,27.8"/>
<path fill="#1C1C1B" d="M25.7,27.8c0,1.1-0.9,2-2,2c-1.1,0-2-0.9-2-2s0.9-2,2-2C24.8,25.8,25.7,26.7,25.7,27.8"/>
<path fill="#FFE8BC" d="M16.8,28.8c-0.1,8,4.1,14,11,14c7.1,0,11.1-6,11.1-14v-2.9c-6-2.4-12-8.8-18.9-8.8
	C20,17.1,16.9,23.8,16.8,28.8"/>
<path d="M33.7,27.8c0,1.1-0.9,2-2,2c-1.1,0-2-0.9-2-2s0.9-2,2-2C32.8,25.8,33.7,26.7,33.7,27.8"/>
<path d="M25.7,27.8c0,1.1-0.9,2-2,2c-1.1,0-2-0.9-2-2s0.9-2,2-2C24.8,25.8,25.7,26.7,25.7,27.8"/>
<path fill="none" stroke="#000000" stroke-width="2" stroke-linecap="round" stroke-linejoin="round" d="M24.3,35.8
	c1.3,1.8,5.5,1.7,6.9,0"/>
<path fill="#1D1D1B" d="M46.6,64.9c-0.6,0,0-10.1,0-10.1c0-4.5-5.5-8.8-9.7-8.9c-6.2,5-12.1,4.9-18.3-0.1c-4.2,0.2-9.9,3.4-9.9,7.8
	c0,0,0.4,11.2-0.1,11.2"/>
<path d="M36.9,46.4c-3.2,2.1-4.9,3-8.9,3.6C41,50.4,41,61.4,41.8,65.4h5.1C46.9,65.4,48.9,46.4,36.9,46.4"/>
<path fill="none" stroke="#030404" stroke-width="2" stroke-linecap="round" stroke-linejoin="round" d="M8.6,63.8v-9c0-5,5-9,10-9
	c6,5,12,5,18,0c5,0,10,4,10,9v9"/>
<path fill="none" stroke="#DE843A" stroke-linecap="round" stroke-linejoin="round" stroke-miterlimit="10" d="M20.4,24.3l1.6-0.6
	c0,0,2.4-0.5,3.9,0"/>
<path fill="none" stroke="#DE843A" stroke-linecap="round" stroke-linejoin="round" stroke-miterlimit="10" d="M35.6,24.3L34,23.7
	c0,0-2.4-0.5-3.9,0"/>
<path fill="none" stroke="#1D1D1B" stroke-width="2" stroke-linecap="round" stroke-linejoin="round" stroke-miterlimit="10" d="
	M16.8,31.9c-4.2-14.1,0.6-20.1,6.3-23.5"/>
<path fill="none" stroke="#1D1D1B" stroke-width="2" stroke-linecap="round" stroke-linejoin="round" stroke-miterlimit="10" d="
	M27.5,9.8c0.7-1.4,4.2-4.1,7.2-1.9"/>
<path fill="none" stroke="#1D1D1B" stroke-width="2" stroke-linecap="round" stroke-linejoin="round" stroke-miterlimit="10" d="
	M33.6,12.2c1.2-1,5.5-2.1,7.3,1.2"/>
<path fill="none" stroke="#1D1D1B" stroke-width="2" stroke-linecap="round" stroke-linejoin="round" stroke-miterlimit="10" d="
	M36.3,18.4c1.3-0.9,5.6-1.7,7.2,1.7"/>
<path fill="none" stroke="#986714" stroke-linecap="round" stroke-linejoin="round" stroke-miterlimit="10" d="M26.5,27.3
	c-0.1,2.2-1.3,3.1-3.5,3.1c-2.2,0-4-1.3-4-3.5c0-1.1,0.1-1.7,0.1-1.7c0.7-0.7,2.7-0.7,3.8-0.7c1.3,0,3.6,0.2,3.6,0.2
	S26.6,26.3,26.5,27.3z"/>
<path fill="none" stroke="#986714" stroke-linecap="round" stroke-linejoin="round" stroke-miterlimit="10" d="M29,27.3
	c0.1,2.2,1.3,3.1,3.5,3.1c2.2,0,4-1.3,4-3.5c0-1.1-0.1-1.7-0.1-1.7c-0.7-0.7-2.7-0.7-3.8-0.7c-1.3,0-3.6,0.2-3.6,0.2
	S28.9,26.3,29,27.3z"/>
<line fill="none" stroke="#986714" stroke-linecap="round" stroke-linejoin="round" stroke-miterlimit="10" x1="17" y1="26.9" x2="19" y2="26.9"/>
<line fill="none" stroke="#986714" stroke-linecap="round" stroke-linejoin="round" stroke-miterlimit="10" x1="36.9" y1="26.8" x2="39" y2="26.8"/>
<path fill="none" stroke="#1D1D1B" stroke-width="2" stroke-linecap="round" stroke-linejoin="round" stroke-miterlimit="10" d="
	M42.5,25.8c-6.2,2.1-19.4-13.5-22.5-8.7c0,0-3.1,6.7-3.2,11.7c-0.1,8,4.9,14,11,14c5.9,0,11.1-3.7,11.1-16.9"/>
</svg>
