<svg id="Ebene_1" data-name="Ebene 1" xmlns="http://www.w3.org/2000/svg" viewBox="0 0 55 65">
  <title>laura_dworatschek</title>
  <g id="line">
    <path d="M19.966,18.4011s5.3961,1.6314,14.2014.4183A58.9432,58.9432,0,0,1,36.05,27.3528a17.16,17.16,0,0,1-.3555,6.8079c-1.5478,5.6052-5.6053,8.8261-9.15,8.8261h.0837c-3.5556,0-7.6027-3.2209-9.15-8.8261a13.5822,13.5822,0,0,1-.3869-1.9242,16.23,16.23,0,0,1,.7006-7.038Z" fill="#ffe8bc"/>
    <path d="M20.0706,26.7567a5.4065,5.4065,0,0,1,4.3712-.868" fill="none" stroke="#843c20" stroke-linecap="round" stroke-miterlimit="10" stroke-width="0.5"/>
    <path d="M33.4353,26.7567a5.4065,5.4065,0,0,0-4.3712-.868" fill="none" stroke="#843c20" stroke-linecap="round" stroke-miterlimit="10" stroke-width="0.5"/>
    <path d="M45.4406,65c-.5752,0,0-9.7046,0-9.7046,0-4.319-5.2811-8.45-9.3177-8.5438-5.95,4.8-11.6183,4.8-17.5687,0-4.0366.1882-9.5059,3.2627-9.5059,7.4876,0,0,.3765,10.7608-.1046,10.7608" fill="#c96343"/>
    <path d="M20.1856,19.51a11.1482,11.1482,0,0,1,6.6615-2.217c2.7817.1778,7.78,2.217,7.78,2.217a18.73,18.73,0,0,1,2.29,7.1007,17.7787,17.7787,0,0,1-.3765,7.1216c-1.6314,5.8667-5.919,9.2236-9.6837,9.2236h.0941c-3.7542,0-8.68-3.19-9.6837-9.2236-.7947-4.8209-.4183-6.9961.3347-9.4118Z" fill="none" stroke="#000" stroke-linejoin="round" stroke-width="2"/>
    <path d="M31.26,30.5487a1.9347,1.9347,0,1,0-.0209,0h0"/>
    <path d="M24.85,28.6809a1.9137,1.9137,0,1,1,0-.021v.021"/>
    <path d="M29.3046,13.5593s-.4183-6.0759-8.8785-3.9844c-7.885,1.9242-4.8314,9.8511-9.8615,11.0851l5.7412,1.464Z" fill="#843c20" stroke="#000" stroke-linejoin="round" stroke-width="2"/>
    <polygon points="29.963 15.097 27.987 17.073 25.205 17.073 23.239 15.097 23.239 12.315 25.205 10.338 27.987 10.338 29.963 12.315 29.963 15.097" fill="#c96343" stroke="#000" stroke-linejoin="round" stroke-width="2"/>
    <path d="M26.6275,18.4011s-7.7909,9.9974-9.987,11.1059c0,0,.9621,6.7138,2.8758,9.4118a.8575.8575,0,0,1-.0941,1.0458l-2.0915,2.0915a1.2027,1.2027,0,0,1-1.485.1778l-1.5582-.9307a.8264.8264,0,0,1-.4078-.7111V27.8443c0-2.1752,1.6-14.4419,12.0576-12.8942a5.5205,5.5205,0,0,0,1.2444,0" fill="#843c20" stroke="#000" stroke-linecap="round" stroke-miterlimit="10" stroke-width="2"/>
    <path d="M26.6275,18.4011s7.8013,8.9517,9.9974,9.9974c0,0,.115,7.655-2.4889,10.5831a.8888.8888,0,0,0,.0412,1.2563h0l.0214.0194,2.51,2.0915a.8366.8366,0,0,0,1.0458.1255l1.6209-.9725a1.1817,1.1817,0,0,0,.5856-1.0458V27.8443c0-2.1752-1.6-14.4419-12.068-12.8942a5.3947,5.3947,0,0,1-1.234,0" fill="#843c20" stroke="#000" stroke-linecap="round" stroke-miterlimit="10" stroke-width="2"/>
    <path d="M23.8144,36.1685s2.4052,2.217,6.0235,0" fill="#843c20" stroke="#000" stroke-linecap="round" stroke-miterlimit="10" stroke-width="2"/>
    <path d="M35.2027,47.3058a17.7785,17.7785,0,0,1-8.5439,3.4615c12.5491.3764,12.8733,10.3634,13.5949,14.2118h4.9778c-.0942,0,1.5372-17.6733-9.987-17.6733" fill="#1d1d1b" opacity="0.2" style="isolation: isolate"/>
    <path d="M45.0641,64.017V55.3686c0-4.8-4.8-8.638-9.6-8.638" fill="none" stroke="#030404" stroke-linecap="round" stroke-linejoin="round" stroke-width="2"/>
    <path d="M18.1777,46.7306c-4.8,0-9.6,3.838-9.6,8.638V64.017" fill="none" stroke="#030404" stroke-linecap="round" stroke-linejoin="round" stroke-width="2"/>
    <path d="M18.1777,46.7306q8.6484,7.1949,17.2864,0" fill="none" stroke="#000" stroke-linecap="round" stroke-linejoin="round" stroke-width="2"/>
    <path d="M17.8222,47.6509V65H35.6837L35.82,47.6509S28.2379,53.7686,17.8222,47.6509Z"/>
  </g>
</svg>
