<?xml version="1.0" encoding="utf-8"?>
<!-- Generator: Adobe Illustrator 16.0.4, SVG Export Plug-In . SVG Version: 6.00 Build 0)  -->
<!DOCTYPE svg PUBLIC "-//W3C//DTD SVG 1.1//EN" "http://www.w3.org/Graphics/SVG/1.1/DTD/svg11.dtd">
<svg version="1.1" id="Ebene_1" xmlns="http://www.w3.org/2000/svg" xmlns:xlink="http://www.w3.org/1999/xlink" x="0px" y="0px"
	 width="55px" height="65px" viewBox="0 0 55 65" enable-background="new 0 0 55 65" xml:space="preserve">
<path fill="#FFE8BC" d="M18.7,41.1c-1,9.801,7,10.801,9.7,16.5c2.8-6,9.899-6.6,9.399-16.5"/>
<path fill="#FFFFFF" d="M8.7,65v-9.8c0-5,5-9,10-9c6,5,12,5,18,0c5,0,10,4,10,9V65H8.7z"/>
<path fill="#D7D8DE" d="M37.2,46c-3.2,2.1-4.9,3-8.9,3.6C41.3,50,41.3,61,42,65h5.1C47.2,65,49.2,46,37.2,46"/>
<path fill="#FFE8BC" d="M21,47.8c-0.7,6,5,6.601,6.8,10.101c2-3.7,7-4.101,6.601-10.101"/>
<path fill="none" stroke="#000000" stroke-width="2" stroke-linecap="round" stroke-linejoin="round" stroke-miterlimit="10" d="
	M21,48.8c-0.7,6,5,6.601,6.8,10.101c2-3.7,7-4.101,6.601-10.101"/>
<path fill="none" stroke="#000000" stroke-width="2" stroke-linecap="round" stroke-linejoin="round" d="M34.2,47.9
	c0.899-0.5,1.7-1.101,2.6-1.9c5,0,10,4,10,9v9"/>
<path fill="none" stroke="#000000" stroke-width="2" stroke-linecap="round" stroke-linejoin="round" d="M8.8,64v-9c0-5,5-9,10-9
	c0.8,0.6,1.5,1.2,2.2,1.6"/>
<path fill="#68492D" d="M41.938,50.688C42.138,31.288,44.6,13.4,27.3,11.4c-5.1-0.6-8,2.6-12,7.2c-5.4,6.2-4.8,19.6-3.1,32
	c3.3,0,5.3-1.1,8.6-1c0-2.899,1.8-7.199,1.7-10.199c5.9-0.2,3.9,0.6,9.8,0.399c0.2,3.101,2.5,6.8,2.7,9.8
	C36.8,49.9,40.237,50.588,41.938,50.688"/>
<path fill="#FFE8BC" d="M17.2,28.1v1c0,7.7,4.7,13.8,10.8,13.8c6,0,10.5-8.101,9.9-15.8C37.6,23.3,33,18,28.2,15.8
	c-4.6-0.6-6,4.9-9.2,6.6C16.3,23.8,17.7,27.2,17.2,28.1"/>
<path fill="#1C1C1B" d="M33.7,28.4c0,1.1-0.9,2-2,2c-1.101,0-2-0.9-2-2s0.899-2,2-2C32.8,26.4,33.7,27.3,33.7,28.4"/>
<path fill="#1C1C1B" d="M25.7,28.4c0,1.1-0.9,2-2,2c-1.1,0-2-0.9-2-2s0.9-2,2-2C24.8,26.4,25.7,27.3,25.7,28.4"/>
<path d="M33.7,28.4c0,1.1-0.9,2-2,2c-1.101,0-2-0.9-2-2s0.899-2,2-2C32.8,26.4,33.7,27.3,33.7,28.4"/>
<path d="M25.7,28.4c0,1.1-0.9,2-2,2c-1.1,0-2-0.9-2-2s0.9-2,2-2C24.8,26.4,25.7,27.3,25.7,28.4"/>
<path fill="none" stroke="#000000" stroke-width="2" stroke-linecap="round" stroke-linejoin="round" stroke-miterlimit="10" d="
	M42,49.7c1.4-9.7,1.3-20.5-1.6-28.2c-2.601-6.8-8-9.8-12.2-10c-4.5-0.2-12.9,3.2-15.4,12c-1.9,6.7-2.4,14.9-0.5,26.3"/>
<path fill="none" stroke="#000000" stroke-width="2" stroke-linecap="round" stroke-linejoin="round" d="M16.8,28c0,0.2,0,1.6,0,1.6
	c0,8,5,14,11,14s11.101-8.3,10-17.7"/>
<path fill="none" stroke="#000000" stroke-width="2" stroke-linecap="round" stroke-linejoin="round" d="M39.1,34.5
	C38.5,17.4,28.2,15.6,28.2,15.6s-11-0.1-13.5,20.8"/>
<path fill="none" stroke="#000000" stroke-width="2" stroke-linecap="round" stroke-linejoin="round" stroke-miterlimit="10" d="
	M32.3,42.1C32.9,45.9,33.9,45.9,34.5,49.8"/>
<path fill="none" stroke="#000000" stroke-width="2" stroke-linecap="round" stroke-linejoin="round" stroke-miterlimit="10" d="
	M22.6,42.4c-0.6,4.1-1.1,3-1.7,7.1"/>
<path fill="none" stroke="#000000" stroke-width="2" stroke-linecap="round" stroke-linejoin="round" stroke-miterlimit="10" d="
	M24.5,35.7c1.4,2.1,4.2,2,6,0"/>
<path fill="none" stroke="#68492D" stroke-linecap="round" stroke-linejoin="round" stroke-miterlimit="10" d="M20.3,25.7l1.6-0.6
	c0,0,2.4-0.5,3.9,0"/>
<path fill="none" stroke="#68492D" stroke-linecap="round" stroke-linejoin="round" stroke-miterlimit="10" d="M35.5,25.7l-1.6-0.6
	c0,0-2.4-0.5-3.9,0"/>
</svg>
