<?xml version="1.0" encoding="utf-8"?>
<!-- Generator: Adobe Illustrator 16.0.4, SVG Export Plug-In . SVG Version: 6.00 Build 0)  -->
<!DOCTYPE svg PUBLIC "-//W3C//DTD SVG 1.1//EN" "http://www.w3.org/Graphics/SVG/1.1/DTD/svg11.dtd">
<svg version="1.1" id="Ebene_1" xmlns="http://www.w3.org/2000/svg" xmlns:xlink="http://www.w3.org/1999/xlink" x="0px" y="0px"
	 width="55px" height="65px" viewBox="0 0 55 65" enable-background="new 0 0 55 65" xml:space="preserve">
<path fill="#83674C" d="M24.2,12.8c-0.3-0.5-0.7-2.5-0.4-4.6c0.5-3.5,4.6-4.3,6.5-3.9c1.9,0.4,5.7,1.9,6.2,4.5
	c0.4,2.2-0.5,3.8-2.7,5.9"/>
<path fill="none" stroke="#1C1C1B" stroke-width="2" stroke-linecap="round" stroke-linejoin="round" d="M24.2,13
	c-0.3-0.5-0.7-2.5-0.4-4.6c0.5-3.5,4.6-4.3,6.5-3.9c2,0.4,5.7,1.9,6.2,4.5c0.4,2.2-0.5,3.8-2.7,5.9"/>
<path fill="#83674C" d="M15.9,33.9c-4.2-17.2,1.7-23.5,10.5-23.5c10,0,15.5,7.3,11.1,22.9"/>
<path fill="#1C1C1B" d="M32.2,28c0,1.1-0.9,2-2,2c-1.1,0-2-0.9-2-2s0.9-2,2-2C31.3,26,32.2,26.9,32.2,28"/>
<path fill="#1C1C1B" d="M24.2,28c0,1.1-0.9,2-2,2s-2-0.9-2-2s0.9-2,2-2S24.2,26.9,24.2,28"/>
<path fill="#FFE8BC" d="M15.3,29c1.5,7.8,4.1,14,11,14c7.1,0,9.5-6.2,11.1-14c1-4.9-3-10-3-10c-8,0-10,3-16,1
	C18.3,20,14.3,24.1,15.3,29"/>
<path d="M32.2,28c0,1.1-0.9,2-2,2c-1.1,0-2-0.9-2-2s0.9-2,2-2C31.3,26,32.2,26.9,32.2,28"/>
<path d="M24.2,28c0,1.1-0.9,2-2,2s-2-0.9-2-2s0.9-2,2-2S24.2,26.9,24.2,28"/>
<path fill="none" stroke="#1C1C1B" stroke-width="2" stroke-linejoin="round" d="M15.3,29c2.7,8.2,4.9,14,11,14
	c5.9,0,8.8-5.5,11.1-14c1.3-4.8-3-11-3-11c-8,0-10,3-16,1C18.3,19,13.7,24.2,15.3,29z"/>
<path fill="none" stroke="#1C1C1B" stroke-width="2" stroke-linecap="round" stroke-linejoin="round" d="M23.2,37.2
	c2.1,0.8,4.1,0.8,6,0"/>
<path fill="#83674C" d="M24.5,40.4l-2.3-0.8c-0.8,2.2,5.6,6.9,8.3,0.3l-2.6,0.6L24.5,40.4z"/>
<path fill="#83674C" d="M27.5,35.8l6.2,0.5c0.5,0-7.6-6-15,0l6.3-0.4L27.5,35.8z"/>
<path fill="none" stroke="#1C1C1B" stroke-linecap="round" stroke-linejoin="round" d="M24.4,40.4l-2.2-0.8
	c-0.7,1.3,4.5,7.5,8.3,0.3l-2.7,0.7L24.4,40.4z"/>
<path fill="none" stroke="#1C1C1B" stroke-linecap="round" stroke-linejoin="round" d="M27.4,35.8l6.2,0.5c0.5,0-7.6-6-15,0l6.3-0.4
	L27.4,35.8z"/>
<path fill="none" stroke="#1D1D1B" stroke-width="2" stroke-linecap="round" stroke-linejoin="round" stroke-miterlimit="10" d="
	M15.3,32.1C11.1,18,17.8,10.2,26.6,10.2c10,0,14.8,6.3,10.5,21.9"/>
<path fill="none" stroke="#000000" stroke-linecap="round" stroke-linejoin="round" stroke-miterlimit="10" d="M24.8,27.8
	c-0.1,2.2-1.3,3.1-3.5,3.1s-4-1.3-4-3.5c0-1,0.1-1.7,0.1-1.7c0.7-0.7,2.7-0.7,3.8-0.7c1.3,0,3.6,0.2,3.6,0.2S24.9,26.8,24.8,27.8z"
	/>
<path fill="none" stroke="#000000" stroke-linecap="round" stroke-linejoin="round" stroke-miterlimit="10" d="M27.3,27.8
	c0.1,2.2,1.3,3.1,3.5,3.1s4-1.3,4-3.5c0-1-0.1-1.7-0.1-1.7C34,25,32,25,30.9,25c-1.3,0-3.6,0.2-3.6,0.2S27.3,26.8,27.3,27.8z"/>
<line fill="none" stroke="#000000" stroke-linecap="round" stroke-linejoin="round" stroke-miterlimit="10" x1="14.5" y1="27.4" x2="17.3" y2="27.4"/>
<line fill="none" stroke="#000000" stroke-linecap="round" stroke-linejoin="round" stroke-miterlimit="10" x1="35.3" y1="27.3" x2="38.1" y2="27.3"/>
<path fill="#1D1D1B" d="M45.1,65.1c-0.6,0,0-10.1,0-10.1c0-4.5-5.5-8.8-9.7-8.9c-6.2,5-12.1,4.9-18.3-0.1c-4.2,0.2-9.9,3.4-9.9,7.8
	c0,0,0.4,11.2-0.1,11.2"/>
<path d="M35.4,46.6c-3.2,2.1-4.9,3-8.9,3.6c13.1,0.4,13.1,11.4,13.8,15.4h5.1C45.4,65.6,47.4,46.6,35.4,46.6"/>
<path fill="none" stroke="#030404" stroke-width="2" stroke-linecap="round" stroke-linejoin="round" d="M7.1,64v-9c0-5,5-9,10-9
	c6,5,12,5,18,0c5,0,10,4,10,9v9"/>
</svg>
