<svg id="Ebene_2" data-name="Ebene 2" xmlns="http://www.w3.org/2000/svg" viewBox="0 0 55 65">
  <title>nadine_bartel</title>
  <g id="hair">
    <g id="hair-2">
      <path d="M45.6239,46.8869c-.432-3.9875-1.54-13.7349-1.9827-21.71,0-4.63-3.1346-10.5117-7.7536-10.9215,0,0-2.88-3.323-8.8612-3.323-7.1222,0-13.5356,3.8436-15.1749,9.9689s-1.3956,8.23-1.44,13.2919C8.3845,39.4213,8.9273,42.4785,8.2849,46.754,13.6127,49.0247,35.223,49.9994,45.6239,46.8869Z" fill="#e3e5c7"/>
    </g>
  </g>
  <g id="skin">
    <g id="skin-2">
      <path d="M15.2852,32.9305c0,8.8612,5.3279,14.2666,11.9738,14.2666s12.3947-5.4054,12.3947-14.2666a16.0844,16.0844,0,0,0-1.1077-6.646c-1.7279-1.7279-6.4909-1.9827-8.8612-2.0159-.1108,0,.5206-3.4227.432-3.4227-.4985,0-3.1679,3.2455-3.1679,3.2455s-6.1254-.0222-10.556,2.1931A16.0844,16.0844,0,0,0,15.2852,32.9305Z" fill="#ffe8bc"/>
    </g>
  </g>
  <g id="color">
    <g id="color-2">
      <path d="M7.5316,64.986V60.6219A9.77,9.77,0,0,1,17.1,50.655q.0951-.002.19-.002,9.9689,8.3073,19.9378,0a10.1129,10.1129,0,0,1,10.1794,9.9689V64.986Z" fill="#ffe000"/>
      <polygon points="41.692 58.196 47.097 58.196 47.407 60.09 7.598 60.09 7.532 58.196 41.692 58.196" fill="#f4aa41"/>
      <polygon points="41.692 62.461 47.097 62.461 47.407 64.355 7.598 64.355 7.532 62.461 41.692 62.461" fill="#f4aa41"/>
      <polygon points="42.722 54.408 45.591 54.408 46.588 56.302 8.617 56.302 8.551 54.408 42.722 54.408" fill="#f4aa41"/>
      <line x1="15.4846" y1="31.4241" x2="17.7885" y2="31.4241" fill="none" stroke="#302310" stroke-linecap="round" stroke-linejoin="round"/>
      <line x1="37.6267" y1="31.2468" x2="39.9306" y2="31.2468" fill="none" stroke="#302310" stroke-linecap="round" stroke-linejoin="round"/>
      <path d="M26.0517,31.8228c-.144,2.47-1.4511,3.4005-3.8436,3.4005s-4.4306-1.4621-4.4306-3.8435a15.1893,15.1893,0,0,1,.1-1.8831c.7864-.82,3.0017-.7421,4.22-.7421,1.4289,0,3.9987.2215,3.9987.2215S26.1181,30.7152,26.0517,31.8228Z" fill="none" stroke="#302310" stroke-linecap="round" stroke-linejoin="round"/>
      <path d="M28.8429,31.8228c.144,2.47,1.4511,3.4005,3.8436,3.4005s4.4306-1.4621,4.4306-3.8435a15.17,15.17,0,0,0-.1-1.8831c-.7865-.82-3.0018-.7421-4.22-.7421-1.44,0-4.01.2215-4.01.2215S28.7654,30.7152,28.8429,31.8228Z" fill="none" stroke="#302310" stroke-linecap="round" stroke-linejoin="round"/>
    </g>
  </g>
  <g id="line">
    <g id="line-2">
      <path d="M7.5316,63.9448V60.4889a9.7585,9.7585,0,0,1,9.5458-9.9666q.1063-.0023.2127-.0023,9.9689,8.3074,19.9378,0a10.113,10.113,0,0,1,10.1794,9.9689v3.4559" fill="none" stroke="#000" stroke-linecap="round" stroke-linejoin="round" stroke-width="2"/>
      <path d="M34.1154,31.8228A2.2153,2.2153,0,1,1,31.9,29.6075a2.2153,2.2153,0,0,1,2.2153,2.2153"/>
      <path d="M25.2541,31.8228a2.2153,2.2153,0,1,1-2.2153-2.2153,2.2153,2.2153,0,0,1,2.2153,2.2153"/>
      <path d="M15.9609,24.8667a5.9038,5.9038,0,0,0-.7975,2.6252c-.0665,1.1076-.1551,2.98-.1551,5.4607,0,8.8613,5.6048,14.2445,12.2507,14.2445s12.9042-6.1143,12.9042-14.9755c0-4.4307-.1219-6.0035-.51-6.9561l-9.4705-.31.9083-6.9006-5.3168,6.8785Z" fill="none" stroke="#000" stroke-linejoin="round" stroke-width="2"/>
      <path d="M23.936,39.8533a7.0556,7.0556,0,0,0,6.646,0" fill="none" stroke="#000" stroke-linecap="round" stroke-linejoin="round" stroke-width="2"/>
      <path d="M8.5175,45.735c.9525-5.04,1.1076-18.83,2.7359-25.022s6.8785-9.9356,14.0007-9.9356c5.9814,0,5.206,1.03,6.646.93,3.2343-.2437,7.0668,2.7027,9.47,6.3579a14.6641,14.6641,0,0,1,2.2707,7.1666c.4431,7.2662,1.1077,14.7429,1.9938,20.547" fill="none" stroke="#000" stroke-linecap="round" stroke-linejoin="round" stroke-width="2"/>
      <path d="M19.6494,29.962a2.4589,2.4589,0,0,0,2.2818,1.2294" fill="none" stroke="#000" stroke-linecap="round" stroke-linejoin="round"/>
      <path d="M22.5736,30.4936A1.8165,1.8165,0,0,1,20.99,28.9651" fill="none" stroke="#000" stroke-linecap="round" stroke-linejoin="round"/>
      <path d="M35.223,29.962a2.4367,2.4367,0,0,1-2.2153,1.2294" fill="none" stroke="#000" stroke-linecap="round" stroke-linejoin="round"/>
      <path d="M32.3321,30.4936a1.8165,1.8165,0,0,0,1.595-1.5285" fill="none" stroke="#000" stroke-linecap="round" stroke-linejoin="round"/>
      <line x1="7.5316" y1="62.6378" x2="47.806" y2="62.6378" fill="none" stroke="#000" stroke-linecap="round" stroke-linejoin="round"/>
      <line x1="7.5316" y1="58.1961" x2="47.0971" y2="58.1961" fill="none" stroke="#000" stroke-linecap="round" stroke-linejoin="round"/>
      <line x1="9.1156" y1="54.4079" x2="44.5827" y2="54.4079" fill="none" stroke="#000" stroke-linecap="round" stroke-linejoin="round"/>
      <path d="M18.2316,28.7989a7.3546,7.3546,0,0,1,6.6459-.9193" fill="none" stroke="#000" stroke-linecap="round" stroke-linejoin="round"/>
      <path d="M36.43,28.7989a7.3214,7.3214,0,0,0-6.6459-.9193" fill="none" stroke="#000" stroke-linecap="round" stroke-linejoin="round"/>
    </g>
  </g>
</svg>
