<svg id="Ebene_1" data-name="Ebene 1" xmlns="http://www.w3.org/2000/svg" viewBox="0 0 55 65">
  <title>NadjaGrün</title>
  <path d="M7.6967,35.1976c-.5229-2.0991-.8013-4.8411.6072-7.0592,1.4392-2.2662,3.4632-2.1332,4.3266-4.3266.93-2.3631-.9937-3.5986-.759-7.0592a10.6161,10.6161,0,0,1,3.3073-6.8314C17.9836,7.3278,21.5593,7.3338,25.5344,7.34c4.6292.0077,9.0866.0151,12.6,3.1121A16.6031,16.6031,0,0,1,43.22,21.4588c.1564,2.8681-.5775,5.34,1.1386,7.211,1.1078,1.2076,2.3231,1.1689,2.96,2.429.7917,1.5657-.0778,3.6168-.9868,5.1615"/>
  <path d="M16.6,24.2v1c0,7.7,4.7,13.8,10.8,13.8,6,0,10.6-8.1,9.8-14.5-.601-4.6.2-10.1-5.7-11.7-4.6-.6-8.7-.2-12,1.4-2.8,1.6-2.5,9.1-2.9,10" fill="#ffe8bc"/>
  <path d="M24.1,33a6.375,6.375,0,0,0,6,0" fill="none" stroke="#000" stroke-linecap="round" stroke-linejoin="round" stroke-width="2"/>
  <path d="M33.1,24.5a2,2,0,1,1-2-2,2.0052,2.0052,0,0,1,2,2" fill="#1c1c1b"/>
  <path d="M25.1,24.5a2,2,0,1,1-2-2,2.0059,2.0059,0,0,1,2,2" fill="#1c1c1b"/>
  <path d="M33.1,24.5a2,2,0,1,1-2-2,2.0052,2.0052,0,0,1,2,2"/>
  <path d="M25.1,24.5a2,2,0,1,1-2-2,2.0059,2.0059,0,0,1,2,2"/>
  <path d="M16.1,25.8c0,8,5,14,11,14s10.3-6.1,10.6-14.1c.1-2.6,1.3-13.3-9.601-13.3-9.399,0-12,2.7-12,12.4v1Z" fill="none" stroke="#000" stroke-linejoin="round" stroke-width="2"/>
  <path d="M22.2653,7.7864c-.1617-.4579-1.2272-3.6039.3406-5.553,2.2847-2.84,8.9135-1.5862,10.27,1.8174a5.1971,5.1971,0,0,1-.3706,4.0009"/>
  <rect x="18.8584" y="12.7411" width="16.1737" height="6.2686" rx="2.6034" ry="2.6034"/>
  <path d="M19.3245,21.51a6.41,6.41,0,0,1,5.0621-.8135" fill="none" stroke="#281f18" stroke-linecap="round" stroke-linejoin="round" stroke-width="1.2"/>
  <path d="M34.3866,21.51a6.41,6.41,0,0,0-5.062-.8135" fill="none" stroke="#281f18" stroke-linecap="round" stroke-linejoin="round" stroke-width="1.2"/>
  <path d="M17.4988,37.55c0,2.7358,4.2986,4.9537,9.6012,4.9537s9.6012-2.2179,9.6012-4.9537h.0018a1.7277,1.7277,0,0,1,1.8485,1.5737v5.174a1.7278,1.7278,0,0,1-1.8485,1.5737H17.497a1.7278,1.7278,0,0,1-1.8485-1.5737v-5.174A1.7277,1.7277,0,0,1,17.497,37.55" fill="#e85b4b" stroke="#fff" stroke-miterlimit="10"/>
  <path d="M37.0379,45.8715a1.7278,1.7278,0,0,0,1.8485-1.5737v-5.174A1.7277,1.7277,0,0,0,37.0379,37.55h-.0018c0,2.7358-4.2986,4.9537-9.6012,4.9537l5.9192,3.3677Z" fill="#d0312e"/>
  <path d="M17.4988,37.55c0,2.7358,4.2986,4.9537,9.6012,4.9537s9.6012-2.2179,9.6012-4.9537h.0018a1.7277,1.7277,0,0,1,1.8485,1.5737v5.174a1.7278,1.7278,0,0,1-1.8485,1.5737H17.497a1.7278,1.7278,0,0,1-1.8485-1.5737v-5.174A1.7277,1.7277,0,0,1,17.497,37.55" fill="none" stroke="#000" stroke-linecap="round" stroke-linejoin="round" stroke-width="2"/>
  <path d="M6.5,65V60.6715c0-5,5.1-14.8,10.1-14.8H38.3134c7.6666,0,9.699,12.1667,9.699,14.4V65" fill="#e85b4b" stroke="#000" stroke-linejoin="round" stroke-width="0.9997"/>
  <path d="M41.81,65c.243-1.8659,1.97-7.8232-2.0775-13.6146-1.7865-2.5564-2.9895-5.0022-6.5714-5.5139h5.7729c3.5819.5117,4.141,1.5824,5.9275,4.1388,4.0472,5.7914,2.9644,13.1238,2.7215,14.99" fill="#d0312e"/>
  <path d="M6.5,65V60.6715c0-5,5.1-14.8,10.1-14.8H38.3134c7.6666,0,9.699,12.1667,9.699,14.4V65" fill="none" stroke="#000" stroke-linejoin="round" stroke-width="2"/>
</svg>
