<svg id="Ebene_1" data-name="Ebene 1" xmlns="http://www.w3.org/2000/svg" viewBox="0 0 55 65"><defs><style>.cls-1{fill:#ffe8bc;}.cls-2,.cls-5{fill:none;stroke-linecap:round;stroke-linejoin:round;}.cls-2{stroke:#000;stroke-width:2px;}.cls-3{fill:#68492d;}.cls-4{fill:#1c1c1b;}.cls-5{stroke:#68492d;}</style></defs><title>nicole</title><rect x="11.33" y="50.93" width="32.94" height="14.07"/><path class="cls-1" d="M13.72,50.31s-1.6,10.57.14,14.69H8.8V54l2.53-4.85Z"/><path class="cls-1" d="M41.88,50.31s1.6,10.57-.14,14.69H46.8V54l-2.53-4.85Z"/><path class="cls-1" d="M40.5,53.73a12.53,12.53,0,0,1-8.92,5.52c-4,.52-9.37-.31-12.73-2.3a15.78,15.78,0,0,1-4-3.22V41.1l22.89-.82Z"/><path class="cls-2" d="M34.2,47.9A14.29,14.29,0,0,0,36.8,46c5,0,10,4,10,9v9"/><path class="cls-2" d="M8.8,64V55c0-5,5-9,10-9A23.91,23.91,0,0,0,21,47.6"/><path class="cls-3" d="M42.05,55.6C44.14,36.52,44.6,13.4,27.3,11.4c-5.1-.6-8,2.6-12,7.2-5.4,6.2-4.47,24.66-4.48,37,3.3,0,7.22.4,10.52.5,0-2.9,1.26-13.7,1.16-16.7,5.9-.2,3.9.6,9.8.4.2,3.1,2.42,13.14,2.62,16.14,1.8.3,5.43-.44,7.13-.34"/><path class="cls-1" d="M17.2,28.1v1c0,7.7,4.7,13.8,10.8,13.8s10.5-8.1,9.9-15.8c-.3-3.8-4.9-9.1-9.7-11.3-4.6-.6-6,4.9-9.2,6.6-2.7,1.4-1.3,4.8-1.8,5.7"/><path class="cls-4" d="M33.7,28.4a2,2,0,1,1-2-2,2,2,0,0,1,2,2"/><path class="cls-4" d="M25.7,28.4a2,2,0,1,1-2-2,2,2,0,0,1,2,2"/><path d="M33.7,28.4a2,2,0,1,1-2-2,2,2,0,0,1,2,2"/><path d="M25.7,28.4a2,2,0,1,1-2-2,2,2,0,0,1,2,2"/><path class="cls-2" d="M42.05,55.6c1.4-9.7,1.86-26.46-1-34.16-3.14-7-8.61-9.74-12.81-9.94a15.29,15.29,0,0,0-11,4.1,17.24,17.24,0,0,0-4.53,7.73c-1.19,4.19-1,9.15-.81,14.92C12,41.72,10.29,50.73,11,55"/><path class="cls-2" d="M16.8,28v1.6c0,8,5,14,11,14s11.1-8.3,10-17.7"/><path class="cls-2" d="M39.06,33.59c-.6-17.1-10.86-18-10.86-18S17.94,14.36,15.44,35.26"/><path class="cls-2" d="M32.3,42.1c.6,3.8,1.81,4.55,2.41,8.45,0,0,.47,4.11,0,5.05"/><path class="cls-2" d="M22.6,42.4c-.6,4.1-1.1,3-1.7,7.1,0,0-.28,5,.49,6.1"/><path class="cls-2" d="M24.5,35.7c1.4,2.1,4.2,2,6,0"/><path class="cls-5" d="M20.3,25.7l1.6-.6a9.41,9.41,0,0,1,3.9,0"/><path class="cls-5" d="M35.5,25.7l-1.6-.6a9.41,9.41,0,0,0-3.9,0"/></svg>