<svg id="Ebene_2" data-name="Ebene 2" xmlns="http://www.w3.org/2000/svg" viewBox="0 0 55 65">
  <title>ricarda_krejci</title>
  <g id="color">
    <path d="M47.4527,63.2524a4.3283,4.3283,0,0,0,3.132-3.2329,7.2527,7.2527,0,0,0,.2088-4.4591c1.3572-.223,2.5056-2.1181,2.61-4.4592s-.7308-4.4592-1.9836-5.0166a6.9179,6.9179,0,0,0,1.2528-3.5673c.1044-2.23-.522-4.1247-1.67-4.7936.1044,0,.2088-.1115.3132-.1115,1.4616-.78,1.8792-3.4558.94-5.9084-.7308-2.0066-2.088-3.2328-3.3408-3.1214a6.6363,6.6363,0,0,0,0-4.905c-.8352-2.23-2.5056-3.5674-3.9672-3.1215.6264-1.5607,0-3.79-1.5659-5.351A6.0367,6.0367,0,0,0,41.6064,14.09v-.446a3.7463,3.7463,0,0,0-3.9672-3.4558,4.5122,4.5122,0,0,0-2.088.5574,3.7393,3.7393,0,0,0-4.3848-2.787A4.5835,4.5835,0,0,0,28.974,9.2966a3.4889,3.4889,0,0,0-3.9672-1.7837,4.4694,4.4694,0,0,0-3.0276,2.564A3.5552,3.5552,0,0,0,18.43,8.9621,4.35,4.35,0,0,0,15.1933,14.09v.1114a3.7343,3.7343,0,0,0-3.654,1.1148c-1.566,1.5607-2.2968,3.79-1.566,5.351-1.3572-.4459-3.132.78-3.9672,3.1214a6.6366,6.6366,0,0,0,0,4.9051c-1.2528,0-2.61,1.2263-3.3408,3.1214-.94,2.4526-.522,5.1281.94,5.9084.1044,0,.2088.1115.3132.1115-1.1484.78-1.7748,2.6755-1.67,4.7936a6.8987,6.8987,0,0,0,1.2528,3.4558c-1.2528.5574-2.1924,2.6755-1.9836,5.0166S2.8741,55.3374,4.2313,55.56A6.5493,6.5493,0,0,0,4.3357,60.02a4.7126,4.7126,0,0,0,3.132,3.2329" fill="#281913"/>
    <g id="color-2">
      <path d="M47.5571,64.8131a1.0213,1.0213,0,0,1-1.044-1.1148V60.354c0-5.0166-4.6979-9.81-8.9783-10.0332-6.4728,5.574-13.05,5.574-19.5227,0C13.7317,50.5438,7.99,55.3374,7.99,60.354v3.3443a1.0213,1.0213,0,0,1-1.044,1.1148" fill="#a9fcf2"/>
    </g>
  </g>
  <g id="skin">
    <g id="skin-2">
      <path d="M16.3417,29.6972V30.812c0,8.4724,4.8023,15.1612,10.9619,15.1612s10.962-6.6888,10.962-15.1612c0-4.9051-1.67-8.0265-4.9068-11.8168a1.3178,1.3178,0,0,0-1.3572-.5574A31.8275,31.8275,0,0,0,21.666,22.0052C18.8473,23.6774,16.8637,28.8054,16.3417,29.6972Z" fill="#f9dcbe"/>
    </g>
  </g>
  <path d="M33.2544,53.5537a28.2853,28.2853,0,0,0,3.654-2.564s9.8135-1.8951,10.1267,13.8234H41.1888S41.1888,56.2292,33.2544,53.5537Z" fill="#6eccbe"/>
  <g id="line">
    <path d="M3.5005,38.0582a5.9546,5.9546,0,0,0-1.3572,4.5706,8.28,8.28,0,0,0,.94,3.1214c.1044.223.1044.4459-.1044.5574h0c-1.1484.78-1.8792,2.6755-1.67,4.7936S2.4565,55.1144,3.7093,55.56a.2325.2325,0,0,1,.2088.2229h0A6.5286,6.5286,0,0,0,4.1269,60.02M14.9845,14.2016a3.8876,3.8876,0,0,0-3.55,1.1148A5.33,5.33,0,0,0,9.66,20.11c0,.223-.1044.4459-.3132.4459H9.2425c-1.2528,0-2.61,1.2263-3.3408,3.1215a6.8668,6.8668,0,0,0-.2088,4.3476.4176.4176,0,0,1-.2088.5574h0a4.9454,4.9454,0,0,0-2.9232,3.1214c-.94,2.4526-.522,5.1281.94,5.9084M41.6064,14.2016v-.2229a3.7463,3.7463,0,0,0-3.9672-3.4559,4.0871,4.0871,0,0,0-1.67.3345.3731.3731,0,0,1-.522-.223h0a3.6884,3.6884,0,0,0-4.28-2.3411,3.1686,3.1686,0,0,0-1.8792,1.0034.6288.6288,0,0,1-.6264,0h0a3.6652,3.6652,0,0,0-3.7584-1.4493A4.047,4.047,0,0,0,22.188,9.9654c-.1044.223-.4176.223-.6264.1115h0a3.5057,3.5057,0,0,0-3.1319-.78,4.35,4.35,0,0,0-3.2364,5.128M51.1067,37.7237c.1044,0,.1044,0,.2088-.1115,1.4616-.78,1.8792-3.4558.94-5.9084a4.4819,4.4819,0,0,0-2.9232-3.1214c-.2088,0-.3132-.2229-.3132-.4459h0a6.8671,6.8671,0,0,0-.2088-4.3477c-.7308-2.0066-2.088-3.2329-3.3408-3.1214a.4651.4651,0,0,1-.4176-.4459V20.11a5.5245,5.5245,0,0,0-3.2363-5.6854l-.2088-.1115M50.6891,60.02a6.6419,6.6419,0,0,0,.3132-4.0132.4176.4176,0,0,1,.2088-.5574c1.2528-.4459,2.1924-2.23,2.2968-4.4592s-.522-4.1247-1.67-4.7936c-.2088-.1115-.2088-.3344-.1044-.5574h0a7.21,7.21,0,0,0,.94-3.01A5.7587,5.7587,0,0,0,51.42,38.17l-.2088-.2229" fill="none" stroke="#000" stroke-linecap="round" stroke-miterlimit="10" stroke-width="2"/>
    <g id="line-2">
      <path d="M7.3633,63.6983V60.354c0-5.574,5.22-10.0332,10.44-10.0332q9.3959,8.361,18.7919,0c5.22,0,10.44,4.4592,10.44,10.0332v3.3443" fill="none" stroke="#000" stroke-linecap="round" stroke-linejoin="round" stroke-width="2"/>
      <path d="M33.4632,30.2546a2.0925,2.0925,0,1,1-2.088-2.23,2.1686,2.1686,0,0,1,2.088,2.23"/>
      <path d="M25.1112,30.2546a2.0925,2.0925,0,1,1-2.088-2.23,2.1686,2.1686,0,0,1,2.088,2.23"/>
      <path d="M15.7153,31.3694c0,8.9183,5.22,15.6071,11.4839,15.6071s11.484-6.6888,11.484-15.6071c0-5.351-1.8792-8.5839-5.6376-12.7086a2.2874,2.2874,0,0,0-1.67-.6689c-6.89,1.0033-15.1379,6.02-15.66,12.2627Z" fill="none" stroke="#000" stroke-linejoin="round" stroke-width="2"/>
      <path d="M24.0672,39.3959a6.2842,6.2842,0,0,0,6.264,0" fill="none" stroke="#000" stroke-linecap="round" stroke-linejoin="round" stroke-width="2"/>
    </g>
    <path d="M24.798,26.13a5.6438,5.6438,0,0,0-4.8024.8918" fill="none" stroke="#281913" stroke-linecap="round" stroke-miterlimit="10"/>
    <path d="M29.6,26.13a5.94,5.94,0,0,1,4.9068.8918" fill="none" stroke="#281913" stroke-linecap="round" stroke-miterlimit="10"/>
  </g>
</svg>
