<?xml version="1.0" encoding="utf-8"?>
<!-- Generator: Adobe Illustrator 16.0.4, SVG Export Plug-In . SVG Version: 6.00 Build 0)  -->
<!DOCTYPE svg PUBLIC "-//W3C//DTD SVG 1.1//EN" "http://www.w3.org/Graphics/SVG/1.1/DTD/svg11.dtd">
<svg version="1.1" id="Ebene_1" xmlns="http://www.w3.org/2000/svg" xmlns:xlink="http://www.w3.org/1999/xlink" x="0px" y="0px"
	 width="55px" height="65px" viewBox="0 0 55 65" enable-background="new 0 0 55 65" xml:space="preserve">
<path fill="#83674C" d="M23.2,12.7c-0.3-0.4-1.1-2.1-1.2-4C21.8,5.5,25.2,4,27,4s5.4,0.6,6.3,2.8c0.7,1.8,0.3,3.4-1.3,5.7"/>
<path fill="none" stroke="#1C1C1B" stroke-width="2" stroke-linecap="round" stroke-linejoin="round" d="M23.2,12.8
	c-0.3-0.4-1.1-2.1-1.2-4c-0.2-3.2,3.2-4.6,5-4.7c1.8,0,5.4,0.6,6.3,2.8c0.7,1.8,0.3,3.4-1.3,5.7"/>
<path fill="#83674C" d="M50.875,61.896c1.8-2.3,2.025-5.296,0.425-9.096c-1.1-2.5-1.1-4.6-1.1-7.2c0-2.6-2.2-5.1-2.3-6.199
	C45.1,20.1,42,11.2,27.5,11.7c-9.6,0.3-15.8,5.5-17.2,12.2C9,30.4,6.5,39.4,4.2,45.3c-0.6,1.5,1.2,5.5-0.6,8.8
	C0.8,59.4,3.2,59.981,3,62.082"/>
<path fill="#FFE8BC" d="M16.9,27v1c0,7.7,4.7,13.8,10.8,13.8c6,0,10.8-6,10.8-13.8c0-4.7-1.9-8.4-6.6-10.6c-4.3,1-8.2,0.1-11.5,1.7
	C17.6,20.6,17.4,26.1,16.9,27"/>
<path fill="none" stroke="#000000" stroke-width="2" stroke-linecap="round" stroke-linejoin="round" stroke-miterlimit="10" d="
	M24.5,35.8c1.9,1,4.1,1,6,0"/>
<path fill="none" stroke="#030404" stroke-width="2" stroke-linejoin="round" d="M16.5,28.6c0,8,5,14,11,14s11.5-6,11-14
	c-0.7-10.6-4.1-10.9-11-10.3c-6.7-0.7-11,1.5-11,9.3V28.6z"/>
<path fill="none" stroke="#1D1D1B" stroke-width="2" stroke-linecap="round" stroke-linejoin="round" stroke-miterlimit="10" d="
	M50.9,60.9c1.899-3,0.6-6.601,0.199-9C50.7,49.4,51.2,46.7,49.4,43.3c-4.7-8.6-3-26.2-14.2-30.4c-3.101-1.1-4.3-1.2-7.6-1.2
	c-2.6,0-6.2,1-8.2,2.2C7,20.9,10.6,30.5,5,43.3c-1.3,2.9-0.7,6.4-1.3,9c-0.5,2.7-1,2.601-1.4,5.2c-0.4,2.1,0.1,2,0.8,3.6"/>
<path fill="#1C1C1B" d="M33.4,27.3c0,1.1-0.9,2-2,2c-1.101,0-2-0.9-2-2c0-1.1,0.899-2,2-2C32.5,25.3,33.4,26.2,33.4,27.3"/>
<path fill="#1C1C1B" d="M25.4,27.3c0,1.1-0.9,2-2,2s-2-0.9-2-2c0-1.1,0.9-2,2-2S25.4,26.2,25.4,27.3"/>
<path d="M33.4,27.3c0,1.1-0.9,2-2,2c-1.101,0-2-0.9-2-2c0-1.1,0.899-2,2-2C32.5,25.3,33.4,26.2,33.4,27.3"/>
<path d="M25.4,27.3c0,1.1-0.9,2-2,2s-2-0.9-2-2c0-1.1,0.9-2,2-2S25.4,26.2,25.4,27.3"/>
<path fill="#FFFFFF" d="M8.1,65v-9.8c0-5,5-9,10-9c6,5,12,5,18,0c5,0,10,4,10,9V65H8.1z"/>
<path fill="#D7D8DE" d="M36.6,46C33.4,48.1,31.7,49,27.7,49.6C40.7,50,40.7,61,41.5,65h5.1C46.6,65,48.6,46,36.6,46"/>
<path fill="#FFE8BC" d="M20.4,48.8c-0.7,6,5,6.601,6.8,10.101c2-3.7,7-4.101,6.6-10.101"/>
<path fill="none" stroke="#1D1D1B" stroke-width="2" stroke-linecap="round" stroke-linejoin="round" stroke-miterlimit="10" d="
	M20.4,48.8c-0.7,6,5,6.601,6.8,10.101c2-3.7,7-4.101,6.6-10.101"/>
<path fill="none" stroke="#1C1C1B" stroke-width="2" stroke-linecap="round" stroke-linejoin="round" d="M8.3,64v-9c0-5,5-9,10-9
	c6,5,12,5,18,0c5,0,10,4,10,9v9"/>
<path fill="none" stroke="#000100" stroke-linecap="round" stroke-linejoin="round" stroke-miterlimit="10" d="M34.4,25.9
	C34.3,26,33.8,27,33.2,27.1C32.6,27.3,32,27.2,31.6,27"/>
<path fill="none" stroke="#000100" stroke-linecap="round" stroke-linejoin="round" stroke-miterlimit="10" d="M33.4,24.7
	c-0.101,0.1-0.601,1.1-1.2,1.2c-0.601,0.2-0.2,1.2-0.601,1"/>
<path fill="none" stroke="#000100" stroke-linecap="round" stroke-linejoin="round" stroke-miterlimit="10" d="M20.6,25.9
	c0.1,0.1,0.6,1.1,1.2,1.2c0.6,0.2,1.2,0.1,1.6-0.1"/>
<path fill="none" stroke="#000100" stroke-linecap="round" stroke-linejoin="round" stroke-miterlimit="10" d="M21.6,24.7
	c0.1,0.1,0.6,1.1,1.2,1.2c0.6,0.2,0.2,1.2,0.6,1"/>
</svg>
