<?xml version="1.0" encoding="utf-8"?>
<!-- Generator: Adobe Illustrator 16.0.4, SVG Export Plug-In . SVG Version: 6.00 Build 0)  -->
<!DOCTYPE svg PUBLIC "-//W3C//DTD SVG 1.1//EN" "http://www.w3.org/Graphics/SVG/1.1/DTD/svg11.dtd">
<svg version="1.1" id="Ebene_1" xmlns="http://www.w3.org/2000/svg" xmlns:xlink="http://www.w3.org/1999/xlink" x="0px" y="0px"
	 width="55px" height="65px" viewBox="0 0 55 65" enable-background="new 0 0 55 65" xml:space="preserve">
<path fill="#FFFFFF" d="M8.722,64.963v-9.832c0-4.994,5.007-9,10-9c6,5,12,5,18,0c4.991,0,10,4.006,10,9v9.832H8.722z"/>
<path fill="#D7D8DE" d="M37.184,46c-3.17,2.113-4.875,3-8.938,3.59C41.309,50,41.309,61,42.07,65h5.113
	C47.184,65,49.184,46,37.184,46"/>
<path fill="#FFE8BC" d="M19.408,41.029c-0.958,11.029,5.013,12.979,8.446,18.334c2.796-6.754,9.423-6.277,8.896-17.309"/>
<path fill="none" stroke="#000000" stroke-width="2" stroke-linecap="round" stroke-linejoin="round" d="M8.875,64.008v-9
	c0-4.994,5.008-9,10-9c0.75,0.625,1.5,1.172,2.25,1.641l-0.081,1.164c-0.675,6.049,4.956,6.636,6.832,10.15
	c1.97-3.703,6.957-4.104,6.584-10.15l-0.188-0.949c0.869-0.514,1.736-1.133,2.604-1.854c4.994,0,10,4.007,10,9v9"/>
<path fill="#68492D" d="M41.031,61.707c0.151-19.439,5.07-48.064-6.723-49.11c-6.312-0.559-14.604,1.473-18.991,6.073
	c-5.631,5.906-3.679,30.588-1.994,43.018c3.276,0.039,1.498-0.077,4.815,0.001c-0.048-2.925,4.005-16.931,3.956-19.856
	c5.898-0.238,5.13-0.361,11.028-0.602c0.191,3.067,3.125,17.396,3.318,20.465C38.204,61.844,39.27,61.559,41.031,61.707"/>
<path fill="#FFE8BC" d="M17.228,28.07v0.966c0,7.721,4.73,13.771,10.77,13.771c6.039,0,10.314-5.252,9.779-12.954
	c-0.264-3.822,0.156-10.444-4.672-12.687c-4.564-0.63-9.99,2.556-13.228,4.243C17.164,22.937,17.701,27.225,17.228,28.07"/>
<path fill="none" stroke="#000000" stroke-width="2" stroke-linecap="round" stroke-linejoin="round" stroke-miterlimit="10" d="
	M24.768,36.916c1.875,1,4.125,1,6,0"/>
<path fill="#1C1C1B" d="M33.727,28.434c0,1.104-0.896,2-2,2c-1.104,0-2-0.896-2-2s0.896-2,2-2S33.727,27.33,33.727,28.434"/>
<path fill="#1C1C1B" d="M25.726,28.434c0,1.104-0.896,2-2,2s-2-0.896-2-2s0.896-2,2-2S25.726,27.33,25.726,28.434"/>
<path d="M33.727,28.434c0,1.104-0.896,2-2,2c-1.104,0-2-0.896-2-2s0.896-2,2-2S33.727,27.33,33.727,28.434"/>
<path d="M25.726,28.434c0,1.104-0.896,2-2,2s-2-0.896-2-2s0.896-2,2-2S25.726,27.33,25.726,28.434"/>
<path fill="none" stroke="#000000" stroke-width="2" stroke-linecap="round" stroke-linejoin="round" stroke-miterlimit="10" d="
	M41.066,60.666c1.928-13.158,1.875-47.281-4.728-48.619c-8.639-1.751-20.025,3.07-22.928,9.441
	c-3.213,7.053-1.123,27.504-0.087,39.219"/>
<path fill="none" stroke="#83674C" stroke-linecap="round" stroke-linejoin="round" stroke-miterlimit="10" d="M19.888,25.031
	l1.603-0.606c0,0,2.426-0.51,3.872,0.05"/>
<path fill="none" stroke="#83674C" stroke-linecap="round" stroke-linejoin="round" stroke-miterlimit="10" d="M35.1,25.031
	l-1.603-0.606c0,0-2.427-0.51-3.872,0.05"/>
<path fill="none" stroke="#000000" stroke-width="2" stroke-linejoin="round" d="M16.768,29.666c0,8,5,14,11,14
	c6,0,9.837-5.814,10.011-13.813c0.076-3.641-3.365-12.496-3.365-12.496s-17.645-1.025-17.645,11.309L16.768,29.666L16.768,29.666z"
	/>
<path fill="none" stroke="#000000" stroke-width="2" stroke-linecap="round" stroke-linejoin="round" stroke-miterlimit="10" d="
	M22.392,42.086c-0.566,3.812-3.687,14.773-4.253,18.586"/>
<path fill="none" stroke="#000000" stroke-width="2" stroke-linecap="round" stroke-linejoin="round" stroke-miterlimit="10" d="
	M33.094,41.771c0.285,3.844,3.062,15.127,3.348,18.971"/>
</svg>
