<?xml version="1.0" encoding="UTF-8"?>
<svg version="1.1" id="Ebene_1" xmlns="http://www.w3.org/2000/svg" xmlns:xlink="http://www.w3.org/1999/xlink" x="0px" y="0px"
	 viewBox="0 0 55 65" enable-background="new 0 0 55 65" xml:space="preserve" transform="translate(20 37)">

    <title>tara-lynn-connelly</title>
    <desc>Created with Sketch.</desc>
    <g id="Page-1" stroke="none" stroke-width="1" fill="none" fill-rule="evenodd">
        <g id="Artboard" transform="translate(-241.000000, -224.000000)">
            <g id="tara-lynn-connelly" transform="translate(242.000000, 225.000000)">
                <path d="M9.7,33.1 C8.7,42.901 16.7,43.901 19.4,49.6 C22.2,43.6 29.299,43 28.799,33.1" id="Path" fill="#FFE8BC" fill-rule="nonzero"></path>
                <path d="M-5.68434189e-14,56.9551 L-5.68434189e-14,47.123 C-5.68434189e-14,42.1299 5.0078,38.123 10,38.123 C16,43.123 22,43.123 28,38.123 C32.9912,38.123 38,42.1299 38,47.123 L38,56.9551 L-5.68434189e-14,56.9551 Z" id="Path" fill="#1D1D1B" fill-rule="nonzero"></path>
                <path d="M25.5507,39.8564 C26.4665578,39.3085391 27.3371928,38.6884005 28.1543,38.0019 C33.1484,38.0019 38.1543,42.0098 38.1543,47.0019 L38.1543,56.0019" id="Path" stroke="#000100" stroke-width="2" stroke-linecap="round" stroke-linejoin="round"></path>
                <path d="M0.1535,56 L0.1535,47 C0.1535,42.0068 5.1613,38 10.1535,38 C10.8654234,38.5975674 11.6171574,39.1460326 12.4035,39.6416" id="Path" stroke="#000100" stroke-width="2" stroke-linecap="round" stroke-linejoin="round"></path>
                <path d="M12.2783,39.9922 C12.2783,39.9922 19.5507,44.8564 25.2783,39.9922" id="Path" stroke="#000100" stroke-width="1.8574" stroke-linecap="round" stroke-linejoin="round"></path>
                <path d="M28.2,38 C25,40.1 23.3,41 19.3,41.6 C32.3,42 32.3,53 33,57 L38.1,57 C38.2,57 40.2,38 28.2,38" id="Path" fill="#000000" fill-rule="nonzero"></path>
                <path d="M32.938,42.688 C33.138,23.288 35.6,5.4 18.3,3.4 C13.2,2.8 10.3,6 6.3,10.6 C0.9,16.8 1.5,30.2 3.2,42.6 C6.5,42.6 8.5,41.5 11.8,41.6 C11.8,38.701 13.6,34.401 13.5,31.401 C19.4,31.201 17.4,32.001 23.3,31.8 C23.5,34.901 25.8,38.6 26,41.6 C27.8,41.9 31.237,42.588 32.938,42.688" id="Path" fill="#FF8D90" fill-rule="nonzero"></path>
                <path d="M29.3578369,19.2452385 C28.8678369,18.3386385 29.4242369,13.7381385 26.6106369,12.0988385 C22.7864072,8.9314276 17.8146484,7.50207187 12.8921369,8.15483845 C9.96343687,10.7799385 8.32063687,17.0576385 8.04683687,21.1581385 C7.49203687,29.4214385 11.9255369,35.0561385 18.1884369,35.0561385 C24.4513369,35.0561385 29.3578369,28.5652385 29.3578369,20.2816385 L29.3578369,19.2452385" id="Path" fill="#FFE8BC" fill-rule="nonzero"></path>
                <path d="M11.25,16.0161328 C12.7507247,15.0525681 14.5850379,14.7577866 16.3121,15.2026328" id="Path" stroke="#281F18" stroke-width="1.2" stroke-linecap="round" stroke-linejoin="round"></path>
                <path d="M26.3121,16.0161328 C24.8114017,15.0525963 22.9771309,14.7578158 21.2501,15.2026328" id="Path" stroke="#281F18" stroke-width="1.2" stroke-linecap="round" stroke-linejoin="round"></path>
                <path d="M24.95,20.4 C24.95,21.5 24.05,22.4 22.95,22.4 C21.849,22.4 20.95,21.5 20.95,20.4 C20.95,19.3 21.849,18.4 22.95,18.4 C24.05,18.4 24.95,19.3 24.95,20.4" id="Path" fill="#000000" fill-rule="nonzero"></path>
                <path d="M17.8298,20.5042 C17.7261,22.8642 16.4816,23.8301 14.1998,23.8301 C11.918,23.8301 10.0517,22.4349 10.0517,20.0749 C10.0485542,19.4653748 10.0831872,18.8562406 10.1554,18.251 C10.8813,17.5 12.9554,17.5 14.0963,17.5 C15.4445,17.5 17.8298,17.7146 17.8298,17.7146 C17.8863559,18.6436067 17.8863559,19.5751933 17.8298,20.5042 L17.8298,20.5042 Z" id="Path" stroke="#FF8D90" stroke-linecap="round" stroke-linejoin="round"></path>
                <path d="M19.8345,20.5042 C19.9382,22.8642 21.1827,23.8301 23.4645,23.8301 C25.7463,23.8301 27.6126,22.4349 27.6126,20.0749 C27.6157458,19.4653748 27.5811128,18.8562406 27.5089,18.251 C26.783,17.5 24.7089,17.5 23.568,17.5 C22.2198,17.5 19.8345,17.7146 19.8345,17.7146 L19.8345,20.5042 Z" id="Path" stroke="#FF8D90" stroke-linecap="round" stroke-linejoin="round"></path>
                <path d="M7.75,20.075 L10.0517,20.075" id="Path" stroke="#FF8D90" stroke-linecap="round" stroke-linejoin="round"></path>
                <path d="M28.0275,19.8604 L30.0248,19.8604" id="Path" stroke="#FF8D90" stroke-linecap="round" stroke-linejoin="round"></path>
                <path d="M17.8595,20.075 L19.8345,20.075" id="Path" stroke="#FF8D90" stroke-linecap="round" stroke-linejoin="round"></path>
                <path d="M15.75,27.7 C17.15,29.8 19.95,29.7 21.75,27.7" id="Path" stroke="#000000" stroke-width="2" stroke-linecap="round" stroke-linejoin="round"></path>
                <path d="M16.5,20.4 C16.5,21.5 15.6,22.4 14.5,22.4 C13.4,22.4 12.5,21.5 12.5,20.4 C12.5,19.3 13.4,18.4 14.5,18.4 C15.6,18.4 16.5,19.3 16.5,20.4" id="Path" fill="#000000" fill-rule="nonzero"></path>
                <path d="M33,41.7 C34.4,32 34.3,21.2 31.4,13.5 C28.799,6.7 23.4,3.7 19.2,3.5 C14.7,3.3 6.3,6.7 3.8,15.5 C1.9,22.2 1.4,30.4 3.3,41.8" id="Path" stroke="#000000" stroke-width="2" stroke-linecap="round" stroke-linejoin="round"></path>
                <g id="glasses" transform="translate(7.500000, 17.500000)"></g>
                <path d="M29.7917324,19.3612417 L29.7906324,18.2883417 C29.7906324,5.05554173 15.6606324,6.83094173 13.4422324,7.41574173 C10.7175324,8.13404173 7.9227324,15.6557417 8.0016324,19.5618417 C8.1816324,28.1437417 12.1616324,34.3818417 18.3838324,34.3818417 C24.6060324,34.3818417 29.7917324,27.9445417 29.7917324,19.3618417 L29.7917324,19.3612417 Z" id="Path" stroke="#000000" stroke-width="2" stroke-linejoin="round"></path>
                <path d="M23.3,34.1 C23.9,37.9 24.9,37.9 25.5,41.8" id="Path" stroke="#000000" stroke-width="2" stroke-linecap="round" stroke-linejoin="round"></path>
                <path d="M13.6,34.4 C13,38.5 12.5,37.4 11.9,41.5" id="Path" stroke="#000000" stroke-width="2" stroke-linecap="round" stroke-linejoin="round"></path>
                <g id="hat" transform="translate(3.600000, 0.049306)">
                    <path d="M29.4,19.8506943 C28.9,18.9506943 29.4,3.45069429 14.1,3.45069429 C0.2,3.45069429 1.3,18.2506943 0.2,20.0506943 C1.3,18.2506943 2.8,9.95069429 14.1,9.95069429 C25.9,9.85069429 29,18.8506943 29.4,19.8506943" id="Path" fill="#E5FF00" fill-rule="nonzero"></path>
                    <path d="M23.7,8.85069429 C23.4,8.35069429 24.5,0.0506942858 14.2,0.0506942858 C4.9,0.0506942858 5.6,7.75069429 4.9,8.85069429 C5.7,7.85069429 6.6,2.85069429 14.2,2.85069429 C22.1,2.85069429 23.4,8.25069429 23.7,8.85069429" id="Path" fill="#E5FF00" fill-rule="nonzero"></path>
                    <path d="M29.2,19.8506943 C28.7,18.9506943 29.6,3.45069429 14.3,3.45069429 C0.4,3.45069429 1.1,18.1506943 -3.37507799e-14,19.9506943 C1.1,18.1506943 3,9.95069429 14.3,9.95069429 C26,9.85069429 28.7,18.8506943 29.2,19.8506943 Z" id="Path" stroke="#000000" stroke-width="2" stroke-linecap="round" stroke-linejoin="round"></path>
                    <path d="M3.9,8.15069429 C7.8,-2.94930571 21.9,-2.44930571 25.2,8.05069429" id="Path" stroke="#000000" stroke-width="2" stroke-linecap="round" stroke-linejoin="round"></path>
                </g>
            </g>
        </g>
    </g>
</svg>
