<?xml version="1.0" encoding="utf-8"?>
<!-- Generator: Adobe Illustrator 27.6.0, SVG Export Plug-In . SVG Version: 6.00 Build 0)  -->
<svg version="1.1" id="Ebene_1" xmlns="http://www.w3.org/2000/svg" xmlns:xlink="http://www.w3.org/1999/xlink" x="0px" y="0px"
	 viewBox="0 0 55 65" style="enable-background:new 0 0 55 65;" xml:space="preserve">
<style type="text/css">
	.st0{fill:#FADCBC;}
	.st1{fill:#1E50A0;}
	.st2{fill:#6A462F;}
	.st3{fill:none;stroke:#781E32;stroke-width:0.9449;stroke-linecap:round;stroke-linejoin:round;stroke-miterlimit:9.449;}
	.st4{fill:none;stroke:#000000;stroke-width:1.8898;stroke-linecap:round;stroke-linejoin:round;stroke-miterlimit:3.7796;}
	.st5{fill:#1C1C1B;}
	.st6{fill:none;stroke:#000000;stroke-width:2;stroke-linecap:round;stroke-linejoin:round;}
	.st7{fill:none;stroke:#1D1D1B;stroke-width:1.8898;stroke-linecap:round;stroke-linejoin:round;stroke-miterlimit:9.449;}
	.st8{fill:none;stroke:#1D1D1B;stroke-width:1.89;stroke-linecap:round;stroke-linejoin:round;stroke-miterlimit:10;}
</style>
<g id="skin">
	<path class="st0" d="M17.2,35.8c-0.1,7.6,3.9,13.2,10.4,13.2c6.7,0,10.5-5.7,10.5-13.2v-2.7c-5.7-2.3-11.3-8.3-17.9-8.3
		C20.3,24.8,17.3,31.1,17.2,35.8"/>
</g>
<g id="color">
	<path class="st1" d="M8.5,65v-4c0-5,5-9,10-9c6,5,12,5,18,0c5,0,10,4,10,9v4"/>
	<path class="st2" d="M21.9,23.7c4.5-7.1,0-4.9,5.8-8.7c13.7-0.6,17.2,16.5,14.1,18.7"/>
	<path class="st2" d="M17.2,38.8c-4-16.3,2.1-23.3,10.4-23.7c13.7-0.6-4.3,7.6-7.4,9.7"/>
	<path class="st2" d="M17.2,35.8c11.1,23.8,20.9,0,20.9,0l-0.9,5.7l-3,5.1l-3.4,1.9L27.5,49l-4.1-1l-2.8-2l-1.8-3l-1.6-4.3
		L17.2,35.8z"/>
	<path class="st3" d="M26.4,34.4c-0.1,2.1-1.2,2.9-3.3,2.9s-3.8-1.2-3.8-3.3c0-1,0.1-1.6,0.1-1.6c0.7-0.7,2.6-0.7,3.6-0.7
		c1.2,0,3.4,0.2,3.4,0.2S26.5,33.5,26.4,34.4z"/>
	<path class="st3" d="M28.8,34.4c0.1,2.1,1.2,2.9,3.3,2.9s3.8-1.2,3.8-3.3c0-1-0.1-1.6-0.1-1.6c-0.7-0.7-2.6-0.7-3.6-0.7
		c-1.2,0-3.4,0.2-3.4,0.2S28.7,33.5,28.8,34.4z"/>
	<line class="st3" x1="17.4" y1="34" x2="19.3" y2="34"/>
	<line class="st3" x1="36.2" y1="33.9" x2="38.2" y2="33.9"/>
</g>
<g id="line">
	<path class="st4" d="M24.3,42.4c1.2,1.7,5.2,1.6,6.5,0"/>
	<path class="st5" d="M33.2,34.9c0,1-0.9,1.9-1.9,1.9c-1,0-1.9-0.9-1.9-1.9s0.9-1.9,1.9-1.9C32.4,33,33.2,33.8,33.2,34.9"/>
	<path class="st5" d="M25.6,34.9c0,1-0.9,1.9-1.9,1.9s-1.9-0.9-1.9-1.9s0.9-1.9,1.9-1.9S25.6,33.8,25.6,34.9"/>
	<path d="M33.2,34.9c0,1-0.9,1.9-1.9,1.9c-1,0-1.9-0.9-1.9-1.9s0.9-1.9,1.9-1.9C32.4,33,33.2,33.8,33.2,34.9"/>
	<path d="M25.6,34.9c0,1-0.9,1.9-1.9,1.9s-1.9-0.9-1.9-1.9s0.9-1.9,1.9-1.9S25.6,33.8,25.6,34.9"/>
	<path class="st6" d="M8.5,63.9v-3c0-5,5-9,10-9c6,5,12,5,18,0c5,0,10,4,10,9v3"/>
	<path class="st7" d="M41.5,33c-5.9,2-18.3-12.8-21.3-8.2c0,0-2.9,6.3-3,11.1c-0.1,7.6,4.6,13.2,10.4,13.2c5.6,0,10.5-3.5,10.5-16"
		/>
	<path class="st7" d="M17.2,38.8c-4-13.3,0.6-19,6-22.2"/>
	<path class="st8" d="M41.5,33c4-13.3-8.8-19.9-18.3-16.4"/>
</g>
</svg>
