<?xml version="1.0" standalone="no"?>
<!DOCTYPE svg PUBLIC "-//W3C//DTD SVG 20010904//EN"
 "http://www.w3.org/TR/2001/REC-SVG-20010904/DTD/svg10.dtd">
<svg version="1.0" xmlns="http://www.w3.org/2000/svg"
 width="700.000000pt" height="700.000000pt" viewBox="0 0 700.000000 700.000000"
 preserveAspectRatio="xMidYMid meet">
<metadata>
Created by potrace 1.11, written by Peter Selinger 2001-2013
</metadata>
<g transform="translate(0.000000,700.000000) scale(0.100000,-0.100000)"
fill="#000000" stroke="none">
<path d="M1908 6425 c-33 -18 -40 -40 -77 -250 -72 -406 -141 -909 -129 -950
19 -73 102 -98 158 -47 l31 27 40 290 c22 160 58 398 81 530 22 132 43 266 45
297 5 53 3 59 -25 88 -34 34 -79 39 -124 15z"/>
<path d="M1541 6302 c-29 -22 -53 -99 -96 -300 -48 -223 -125 -642 -132 -722
-5 -60 -3 -69 18 -94 16 -18 37 -29 65 -33 35 -4 46 -1 73 23 31 28 33 35 72
254 49 281 123 649 144 715 23 77 20 112 -14 146 -35 34 -95 40 -130 11z"/>
<path d="M2180 6102 c-33 -33 -31 -25 -65 -311 -14 -118 -48 -365 -75 -548
-52 -349 -53 -349 -12 -395 35 -41 126 -27 152 23 18 32 126 781 164 1130 11
105 -94 170 -164 101z"/>
<path d="M1173 5925 c-17 -7 -38 -26 -46 -42 -45 -87 -107 -374 -169 -776 -30
-195 -31 -219 -38 -662 -4 -253 -13 -550 -20 -660 -18 -309 8 -686 75 -1122
50 -321 75 -409 146 -530 48 -81 217 -248 406 -402 l162 -132 -45 -106 c-24
-58 -44 -119 -44 -134 0 -42 38 -79 255 -250 222 -174 237 -194 234 -296 -1
-32 3 -68 9 -79 28 -52 -102 -49 1986 -46 l1941 3 25 25 c24 24 25 30 30 192
9 282 -10 396 -96 562 -109 212 -320 407 -606 559 -114 61 -239 111 -276 111
-15 0 -67 -11 -117 -25 -248 -69 -535 -118 -760 -131 -222 -12 -596 33 -775
94 -255 87 -737 349 -1139 620 l-145 97 -48 125 c-75 192 -203 580 -242 730
-39 150 -70 315 -63 335 3 7 50 36 104 65 283 151 469 334 547 537 54 140 196
603 196 638 0 27 -8 44 -29 66 -40 39 -89 40 -130 2 -26 -24 -44 -73 -126
-333 -59 -186 -111 -330 -132 -370 -44 -79 -171 -208 -268 -272 -38 -25 -122
-74 -185 -108 -157 -84 -173 -101 -178 -189 -10 -176 107 -614 300 -1125 82
-218 94 -242 136 -268 20 -13 40 -26 45 -29 8 -6 -304 -773 -322 -792 -10 -10
-262 195 -361 293 -83 82 -142 169 -169 253 -23 70 -70 344 -100 577 -36 283
-44 450 -37 757 4 158 11 493 15 743 8 438 10 463 40 655 49 315 81 481 117
608 42 145 43 176 8 211 -15 14 -32 26 -40 26 -7 0 -18 2 -26 5 -7 2 -27 -2
-45 -10z"/>
<path d="M3880 5629 c-178 -22 -341 -73 -500 -155 -356 -184 -582 -501 -682
-954 -22 -101 -23 -123 -23 -530 0 -451 10 -588 56 -769 38 -152 122 -285 218
-345 44 -28 132 -56 175 -56 27 0 36 -7 64 -55 46 -77 159 -211 226 -268 201
-172 435 -258 706 -258 221 0 393 49 578 163 108 67 258 214 336 329 l58 86
60 6 c85 8 174 54 237 123 147 161 201 454 201 1096 0 409 -39 614 -166 873
-196 400 -565 649 -1057 715 -90 12 -391 11 -487 -1z m641 -949 c147 -177 299
-349 405 -461 86 -89 94 -101 117 -175 50 -158 64 -302 48 -494 -32 -374 -145
-652 -347 -851 -176 -175 -375 -258 -616 -259 -249 0 -448 79 -621 248 -205
201 -321 493 -347 870 -14 216 8 498 49 604 8 22 20 28 88 43 322 71 566 199
963 504 79 61 147 108 150 103 4 -4 54 -63 111 -132z"/>
<path d="M3645 3972 c-124 -60 -153 -215 -57 -315 40 -43 75 -57 137 -57 84 0
141 33 177 105 45 86 16 196 -65 252 -51 36 -134 42 -192 15z"/>
<path d="M4425 3971 c-77 -35 -115 -95 -115 -178 0 -68 33 -129 88 -164 98
-62 232 -27 281 73 37 77 26 165 -27 221 -62 65 -150 84 -227 48z"/>
<path d="M3800 3109 c-63 -25 -82 -114 -34 -162 27 -27 124 -68 209 -88 64
-15 245 -15 310 0 86 21 179 62 208 92 35 38 36 86 2 127 -39 46 -69 48 -161
10 -68 -27 -94 -32 -185 -36 -101 -4 -111 -2 -212 32 -58 20 -107 36 -109 35
-1 0 -14 -5 -28 -10z"/>
</g>
</svg>
