<?xml version="1.0" encoding="UTF-8"?>
<svg xmlns="http://www.w3.org/2000/svg" xmlns:xlink="http://www.w3.org/1999/xlink" width="630px" height="px" viewBox="0 0 631 201" version="1.1">
<g id="surface1">
<path style=" stroke:none;fill-rule:nonzero;fill:rgb(0%,0%,0%);fill-opacity:1;" d="M 322.117188 51.550781 C 321.40625 51.550781 320.9375 51.3125 320.464844 50.839844 C 319.523438 49.894531 319.523438 48.476562 320.464844 47.53125 C 322.355469 45.640625 324.480469 41.617188 324.480469 32.632812 C 324.480469 24.355469 316.449219 13.007812 312.664062 8.277344 C 308.882812 13.007812 300.847656 24.355469 300.847656 32.632812 C 300.847656 41.617188 302.972656 45.640625 304.863281 47.53125 C 305.804688 48.476562 305.804688 49.894531 304.863281 50.839844 C 303.921875 51.785156 302.5 51.785156 301.558594 50.839844 C 298.015625 47.292969 296.121094 41.144531 296.121094 32.632812 C 296.121094 20.101562 310.0625 3.546875 310.769531 2.835938 C 311.714844 1.890625 313.375 1.890625 314.316406 2.835938 C 315.027344 3.546875 328.972656 20.101562 328.972656 32.632812 C 328.972656 41.144531 327.074219 47.058594 323.53125 50.839844 C 323.300781 51.3125 322.589844 51.550781 322.117188 51.550781 Z M 322.117188 51.550781 "/>
<path style=" stroke:none;fill-rule:nonzero;fill:rgb(0%,0%,0%);fill-opacity:1;" d="M 312.664062 61.007812 C 311.480469 61.007812 310.300781 60.0625 310.300781 58.644531 L 310.300781 37.597656 C 310.300781 36.417969 311.246094 35.234375 312.664062 35.234375 C 314.085938 35.234375 315.027344 36.179688 315.027344 37.597656 L 315.027344 58.644531 C 315.027344 60.0625 313.84375 61.007812 312.664062 61.007812 Z M 312.664062 61.007812 "/>
<path style=" stroke:none;fill-rule:nonzero;fill:rgb(0%,0%,0%);fill-opacity:1;" d="M 49.15625 142.828125 C 47.976562 142.828125 47.265625 141.882812 47.265625 140.9375 L 47.265625 61.007812 C 47.265625 60.0625 48.210938 59.117188 49.15625 59.117188 C 50.101562 59.117188 51.050781 60.0625 51.050781 61.007812 L 51.050781 140.9375 C 51.285156 142.117188 50.339844 142.828125 49.15625 142.828125 Z M 49.15625 142.828125 "/>
<path style=" stroke:none;fill-rule:nonzero;fill:rgb(0%,0%,0%);fill-opacity:1;" d="M 119.582031 142.828125 C 118.402344 142.828125 117.691406 141.882812 117.691406 140.9375 L 117.691406 61.007812 C 117.691406 59.828125 118.636719 59.117188 119.585938 59.117188 C 120.765625 59.117188 121.476562 60.0625 121.476562 61.007812 L 121.476562 140.9375 C 121.710938 142.117188 120.765625 142.828125 119.582031 142.828125 Z M 119.582031 142.828125 "/>
<path style=" stroke:none;fill-rule:nonzero;fill:rgb(0%,0%,0%);fill-opacity:1;" d="M 343.152344 150.394531 L 282.175781 150.394531 C 280.996094 150.394531 279.8125 149.457031 279.8125 148.03125 L 279.8125 58.644531 C 279.8125 57.460938 280.757812 56.28125 282.175781 56.28125 L 343.152344 56.28125 C 344.335938 56.28125 345.515625 57.222656 345.515625 58.644531 L 345.515625 148.03125 C 345.515625 149.214844 344.335938 150.394531 343.152344 150.394531 Z M 284.539062 145.664062 L 340.789062 145.664062 L 340.789062 61.007812 L 284.539062 61.007812 Z M 284.539062 145.664062 "/>
<path style=" stroke:none;fill-rule:nonzero;fill:rgb(0%,0%,0%);fill-opacity:1;" d="M 93.824219 49.1875 C 93.113281 49.1875 92.640625 48.945312 92.167969 48.476562 C 91.226562 47.53125 91.226562 46.113281 92.167969 45.164062 C 94.058594 43.273438 96.1875 39.253906 96.1875 30.269531 C 96.1875 21.992188 88.152344 10.640625 84.371094 5.910156 C 80.589844 10.640625 72.554688 21.992188 72.554688 30.269531 C 72.554688 39.253906 74.679688 43.273438 76.570312 45.164062 C 77.515625 46.113281 77.515625 47.53125 76.570312 48.476562 C 75.625 49.421875 74.207031 49.421875 73.261719 48.476562 C 69.71875 44.929688 67.828125 38.78125 67.828125 30.269531 C 67.828125 17.734375 81.769531 1.183594 82.480469 0.46875 C 83.425781 -0.472656 85.078125 -0.472656 86.023438 0.472656 C 86.734375 1.183594 100.675781 17.734375 100.675781 30.269531 C 100.675781 38.785156 98.785156 44.695312 95.238281 48.480469 C 95.003906 49.1875 94.53125 49.1875 93.824219 49.1875 Z M 93.824219 49.1875 "/>
<path style=" stroke:none;fill-rule:nonzero;fill:rgb(88.627451%,43.921569%,13.333333%);fill-opacity:1;" d="M 84.371094 69.996094 C 80.589844 69.996094 47.265625 69.757812 47.265625 61.007812 C 47.265625 52.261719 80.589844 52.023438 84.371094 52.023438 C 88.152344 52.023438 121.472656 52.261719 121.472656 61.007812 C 121.710938 69.757812 88.152344 69.996094 84.371094 69.996094 Z M 51.285156 61.007812 C 52.9375 62.902344 64.753906 65.976562 84.371094 65.976562 C 104.222656 65.976562 116.039062 62.902344 117.457031 61.007812 C 115.800781 59.117188 103.984375 56.042969 84.371094 56.042969 C 64.753906 56.042969 52.9375 59.117188 51.285156 61.007812 Z M 51.285156 61.007812 "/>
<path style=" stroke:none;fill-rule:nonzero;fill:rgb(88.627451%,43.921569%,13.333333%);fill-opacity:1;" d="M 84.371094 149.921875 C 80.589844 149.921875 47.265625 149.6875 47.265625 140.9375 C 47.265625 139.753906 48.210938 139.042969 49.15625 139.042969 C 50.101562 139.042969 51.050781 139.992188 51.050781 140.9375 C 51.992188 142.589844 63.808594 145.902344 84.371094 145.902344 C 104.695312 145.902344 116.746094 142.589844 117.691406 140.699219 C 117.691406 139.519531 118.636719 138.808594 119.585938 138.808594 C 120.765625 138.808594 121.476562 139.75 121.476562 140.933594 C 121.710938 149.6875 88.152344 149.921875 84.371094 149.921875 Z M 84.371094 149.921875 "/>
<path style=" stroke:none;fill-rule:nonzero;fill:rgb(100%,100%,100%);fill-opacity:1;" d="M 77.515625 42.328125 L 91.460938 42.328125 L 91.460938 58.882812 L 77.515625 58.882812 Z M 77.515625 42.328125 "/>
<path style=" stroke:none;fill-rule:nonzero;fill:rgb(0%,0%,0%);fill-opacity:1;" d="M 84.371094 61.007812 C 83.1875 61.007812 82.007812 60.0625 82.007812 58.644531 L 82.007812 37.597656 C 82.007812 36.417969 82.953125 35.234375 84.371094 35.234375 C 85.789062 35.234375 86.734375 36.179688 86.734375 37.597656 L 86.734375 58.644531 C 86.734375 60.0625 85.789062 61.007812 84.371094 61.007812 Z M 84.371094 61.007812 "/>
<path style=" stroke:none;fill-rule:nonzero;fill:rgb(88.627451%,43.921569%,13.333333%);fill-opacity:1;" d="M 343.152344 61.007812 L 282.175781 61.007812 C 280.996094 61.007812 279.8125 60.0625 279.8125 58.644531 C 279.8125 57.460938 280.757812 56.28125 282.175781 56.28125 L 343.152344 56.28125 C 344.335938 56.28125 345.515625 57.222656 345.515625 58.644531 C 345.515625 60.0625 344.335938 61.007812 343.152344 61.007812 Z M 343.152344 61.007812 "/>
<path style=" stroke:none;fill-rule:nonzero;fill:rgb(88.627451%,43.921569%,13.333333%);fill-opacity:1;" d="M 359.695312 150.394531 L 265.632812 150.394531 C 264.453125 150.394531 263.269531 149.457031 263.269531 148.03125 C 263.269531 146.613281 264.214844 145.664062 265.632812 145.664062 L 359.457031 145.664062 C 360.640625 145.664062 361.820312 146.613281 361.820312 148.03125 C 361.820312 149.449219 360.878906 150.394531 359.695312 150.394531 Z M 359.695312 150.394531 "/>
<path style=" stroke:none;fill-rule:nonzero;fill:rgb(0%,0%,0%);fill-opacity:1;" d="M 65.695312 189.675781 C 64.683594 189.675781 63.875 189.3125 63.273438 188.582031 C 62.675781 187.855469 62.375 186.816406 62.375 185.472656 C 62.375 184.820312 62.472656 184.234375 62.664062 183.710938 C 62.859375 183.183594 63.113281 182.742188 63.433594 182.378906 C 63.753906 182.015625 64.125 181.730469 64.542969 181.535156 C 64.960938 181.335938 65.402344 181.234375 65.863281 181.234375 C 66.328125 181.234375 66.730469 181.320312 67.074219 181.484375 C 67.414062 181.648438 67.761719 181.875 68.113281 182.164062 L 68.046875 180.789062 L 68.046875 177.691406 L 69.421875 177.691406 L 69.421875 189.476562 L 68.296875 189.476562 L 68.179688 188.535156 L 68.132812 188.535156 C 67.808594 188.84375 67.445312 189.109375 67.03125 189.335938 C 66.617188 189.5625 66.171875 189.675781 65.695312 189.675781 Z M 65.996094 188.535156 C 66.371094 188.535156 66.722656 188.445312 67.054688 188.261719 C 67.382812 188.078125 67.714844 187.800781 68.046875 187.425781 L 68.046875 183.21875 C 67.703125 182.910156 67.375 182.691406 67.0625 182.566406 C 66.746094 182.4375 66.421875 182.375 66.09375 182.375 C 65.773438 182.375 65.472656 182.449219 65.191406 182.601562 C 64.910156 182.746094 64.664062 182.957031 64.453125 183.230469 C 64.242188 183.5 64.078125 183.824219 63.957031 184.195312 C 63.835938 184.574219 63.777344 184.992188 63.777344 185.453125 C 63.777344 186.425781 63.96875 187.179688 64.355469 187.722656 C 64.738281 188.265625 65.289062 188.535156 65.996094 188.535156 Z M 65.996094 188.535156 "/>
<path style=" stroke:none;fill-rule:nonzero;fill:rgb(0%,0%,0%);fill-opacity:1;" d="M 75.257812 189.675781 C 74.761719 189.675781 74.289062 189.582031 73.84375 189.394531 C 73.398438 189.207031 73.003906 188.933594 72.660156 188.574219 C 72.320312 188.214844 72.046875 187.773438 71.84375 187.25 C 71.640625 186.722656 71.535156 186.128906 71.535156 185.46875 C 71.535156 184.796875 71.636719 184.199219 71.84375 183.671875 C 72.046875 183.148438 72.320312 182.703125 72.660156 182.34375 C 73.003906 181.976562 73.398438 181.703125 73.84375 181.511719 C 74.289062 181.324219 74.761719 181.230469 75.257812 181.230469 C 75.753906 181.230469 76.226562 181.324219 76.675781 181.511719 C 77.121094 181.703125 77.515625 181.976562 77.855469 182.34375 C 78.199219 182.703125 78.472656 183.152344 78.675781 183.671875 C 78.878906 184.195312 78.980469 184.796875 78.980469 185.46875 C 78.980469 186.128906 78.878906 186.722656 78.675781 187.25 C 78.46875 187.773438 78.195312 188.214844 77.855469 188.574219 C 77.515625 188.933594 77.117188 189.207031 76.675781 189.394531 C 76.230469 189.582031 75.753906 189.675781 75.257812 189.675781 Z M 75.257812 188.550781 C 75.601562 188.550781 75.917969 188.472656 76.203125 188.324219 C 76.492188 188.175781 76.734375 187.96875 76.941406 187.695312 C 77.144531 187.425781 77.300781 187.101562 77.414062 186.726562 C 77.519531 186.351562 77.578125 185.933594 77.578125 185.46875 C 77.578125 185.007812 77.523438 184.585938 77.414062 184.203125 C 77.300781 183.824219 77.144531 183.492188 76.941406 183.21875 C 76.734375 182.941406 76.492188 182.730469 76.203125 182.582031 C 75.917969 182.433594 75.601562 182.355469 75.257812 182.355469 C 74.917969 182.355469 74.601562 182.429688 74.316406 182.582031 C 74.027344 182.726562 73.785156 182.941406 73.578125 183.21875 C 73.375 183.492188 73.21875 183.824219 73.105469 184.203125 C 72.996094 184.585938 72.941406 185.007812 72.941406 185.46875 C 72.941406 185.933594 72.996094 186.351562 73.105469 186.726562 C 73.21875 187.101562 73.375 187.425781 73.578125 187.695312 C 73.78125 187.964844 74.027344 188.175781 74.316406 188.324219 C 74.601562 188.472656 74.917969 188.550781 75.257812 188.550781 Z M 75.257812 188.550781 "/>
<path style=" stroke:none;fill-rule:nonzero;fill:rgb(0%,0%,0%);fill-opacity:1;" d="M 81.097656 189.476562 L 81.097656 181.433594 L 82.222656 181.433594 L 82.339844 182.589844 L 82.390625 182.589844 C 82.773438 182.207031 83.179688 181.882812 83.605469 181.625 C 84.03125 181.367188 84.523438 181.234375 85.085938 181.234375 C 85.933594 181.234375 86.554688 181.5 86.945312 182.027344 C 87.339844 182.558594 87.535156 183.34375 87.535156 184.378906 L 87.535156 189.476562 L 86.175781 189.476562 L 86.175781 184.5625 C 86.175781 183.800781 86.054688 183.25 85.8125 182.914062 C 85.574219 182.578125 85.183594 182.410156 84.65625 182.410156 C 84.234375 182.410156 83.867188 182.515625 83.546875 182.722656 C 83.226562 182.933594 82.863281 183.242188 82.457031 183.652344 L 82.457031 189.480469 L 81.097656 189.480469 Z M 81.097656 189.476562 "/>
<path style=" stroke:none;fill-rule:nonzero;fill:rgb(0%,0%,0%);fill-opacity:1;" d="M 90.777344 182.390625 C 90.445312 182.390625 90.1875 182.265625 90.007812 182.011719 C 89.828125 181.757812 89.734375 181.386719 89.734375 180.902344 C 89.734375 180.242188 89.882812 179.667969 90.179688 179.179688 C 90.480469 178.695312 90.914062 178.285156 91.488281 177.953125 L 91.886719 178.597656 C 91.464844 178.875 91.148438 179.167969 90.941406 179.484375 C 90.730469 179.796875 90.628906 180.1875 90.628906 180.648438 C 90.660156 180.640625 90.710938 180.632812 90.777344 180.632812 C 90.996094 180.632812 91.199219 180.703125 91.382812 180.847656 C 91.5625 180.996094 91.652344 181.199219 91.652344 181.480469 C 91.652344 181.765625 91.570312 181.988281 91.40625 182.148438 C 91.238281 182.308594 91.03125 182.390625 90.777344 182.390625 Z M 90.777344 182.390625 "/>
<path style=" stroke:none;fill-rule:nonzero;fill:rgb(0%,0%,0%);fill-opacity:1;" d="M 96.796875 189.675781 C 96.367188 189.675781 96.007812 189.609375 95.714844 189.476562 C 95.425781 189.34375 95.1875 189.164062 95.003906 188.929688 C 94.824219 188.699219 94.691406 188.417969 94.613281 188.089844 C 94.535156 187.757812 94.5 187.394531 94.5 186.996094 L 94.5 182.542969 L 93.308594 182.542969 L 93.308594 181.515625 L 94.566406 181.433594 L 94.730469 179.183594 L 95.871094 179.183594 L 95.871094 181.433594 L 98.039062 181.433594 L 98.039062 182.542969 L 95.871094 182.542969 L 95.871094 187.011719 C 95.871094 187.507812 95.964844 187.890625 96.144531 188.160156 C 96.328125 188.429688 96.648438 188.570312 97.113281 188.570312 C 97.257812 188.570312 97.410156 188.546875 97.574219 188.503906 C 97.742188 188.457031 97.890625 188.410156 98.023438 188.355469 L 98.289062 189.382812 C 98.066406 189.457031 97.828125 189.527344 97.570312 189.589844 C 97.308594 189.644531 97.054688 189.675781 96.796875 189.675781 Z M 96.796875 189.675781 "/>
<path style=" stroke:none;fill-rule:nonzero;fill:rgb(0%,0%,0%);fill-opacity:1;" d="M 306.753906 189.675781 C 305.738281 189.675781 304.929688 189.3125 304.332031 188.582031 C 303.730469 187.855469 303.429688 186.816406 303.429688 185.472656 C 303.429688 184.820312 303.527344 184.234375 303.722656 183.710938 C 303.914062 183.183594 304.171875 182.742188 304.488281 182.378906 C 304.808594 182.015625 305.179688 181.730469 305.597656 181.535156 C 306.015625 181.335938 306.457031 181.234375 306.921875 181.234375 C 307.382812 181.234375 307.785156 181.320312 308.128906 181.484375 C 308.472656 181.648438 308.820312 181.875 309.171875 182.164062 L 309.105469 180.789062 L 309.105469 177.691406 L 310.476562 177.691406 L 310.476562 189.476562 L 309.351562 189.476562 L 309.238281 188.535156 L 309.1875 188.535156 C 308.867188 188.84375 308.5 189.109375 308.085938 189.335938 C 307.671875 189.5625 307.226562 189.675781 306.753906 189.675781 Z M 307.050781 188.535156 C 307.425781 188.535156 307.777344 188.445312 308.109375 188.261719 C 308.441406 188.078125 308.773438 187.800781 309.101562 187.425781 L 309.101562 183.21875 C 308.761719 182.910156 308.429688 182.691406 308.117188 182.566406 C 307.804688 182.4375 307.480469 182.375 307.148438 182.375 C 306.828125 182.375 306.527344 182.449219 306.246094 182.601562 C 305.964844 182.746094 305.71875 182.957031 305.511719 183.230469 C 305.300781 183.5 305.132812 183.824219 305.015625 184.195312 C 304.894531 184.574219 304.832031 184.992188 304.832031 185.453125 C 304.832031 186.425781 305.027344 187.179688 305.410156 187.722656 C 305.796875 188.265625 306.34375 188.535156 307.050781 188.535156 Z M 307.050781 188.535156 "/>
<path style=" stroke:none;fill-rule:nonzero;fill:rgb(0%,0%,0%);fill-opacity:1;" d="M 316.3125 189.675781 C 315.816406 189.675781 315.34375 189.582031 314.898438 189.394531 C 314.449219 189.207031 314.054688 188.933594 313.714844 188.574219 C 313.371094 188.214844 313.101562 187.773438 312.898438 187.25 C 312.695312 186.722656 312.589844 186.128906 312.589844 185.46875 C 312.589844 184.796875 312.691406 184.199219 312.898438 183.671875 C 313.101562 183.148438 313.375 182.703125 313.714844 182.34375 C 314.058594 181.976562 314.453125 181.703125 314.898438 181.511719 C 315.34375 181.324219 315.816406 181.230469 316.3125 181.230469 C 316.808594 181.230469 317.28125 181.324219 317.730469 181.511719 C 318.171875 181.703125 318.566406 181.976562 318.914062 182.34375 C 319.253906 182.703125 319.527344 183.152344 319.730469 183.671875 C 319.933594 184.195312 320.039062 184.796875 320.039062 185.46875 C 320.039062 186.128906 319.933594 186.722656 319.730469 187.25 C 319.527344 187.773438 319.253906 188.214844 318.914062 188.574219 C 318.566406 188.933594 318.175781 189.207031 317.730469 189.394531 C 317.28125 189.582031 316.808594 189.675781 316.3125 189.675781 Z M 316.3125 188.550781 C 316.65625 188.550781 316.96875 188.472656 317.253906 188.324219 C 317.542969 188.175781 317.789062 187.96875 317.992188 187.695312 C 318.195312 187.425781 318.351562 187.101562 318.460938 186.726562 C 318.574219 186.351562 318.625 185.933594 318.625 185.46875 C 318.625 185.007812 318.574219 184.585938 318.460938 184.203125 C 318.351562 183.824219 318.195312 183.492188 317.992188 183.21875 C 317.785156 182.941406 317.542969 182.730469 317.253906 182.582031 C 316.96875 182.433594 316.652344 182.355469 316.3125 182.355469 C 315.972656 182.355469 315.65625 182.429688 315.371094 182.582031 C 315.082031 182.726562 314.839844 182.941406 314.632812 183.21875 C 314.429688 183.492188 314.269531 183.824219 314.160156 184.203125 C 314.050781 184.585938 313.996094 185.007812 313.996094 185.46875 C 313.996094 185.933594 314.050781 186.351562 314.160156 186.726562 C 314.269531 187.101562 314.425781 187.425781 314.632812 187.695312 C 314.835938 187.964844 315.082031 188.175781 315.371094 188.324219 C 315.660156 188.472656 315.972656 188.550781 316.3125 188.550781 Z M 316.3125 188.550781 "/>
<path style=" stroke:none;fill-rule:nonzero;fill:rgb(0%,0%,0%);fill-opacity:1;" d="M 511.757812 189.675781 C 511.214844 189.675781 510.710938 189.578125 510.242188 189.386719 C 509.773438 189.191406 509.367188 188.917969 509.015625 188.558594 C 508.667969 188.199219 508.394531 187.761719 508.195312 187.238281 C 507.996094 186.722656 507.898438 186.128906 507.898438 185.46875 C 507.898438 184.808594 508.003906 184.214844 508.207031 183.691406 C 508.410156 183.164062 508.679688 182.722656 509.015625 182.359375 C 509.355469 181.996094 509.738281 181.714844 510.164062 181.523438 C 510.597656 181.328125 511.042969 181.230469 511.503906 181.230469 C 512.011719 181.230469 512.464844 181.320312 512.867188 181.496094 C 513.273438 181.671875 513.609375 181.925781 513.878906 182.257812 C 514.148438 182.589844 514.355469 182.984375 514.5 183.449219 C 514.644531 183.914062 514.714844 184.429688 514.714844 185.003906 C 514.714844 185.148438 514.710938 185.289062 514.707031 185.425781 C 514.699219 185.566406 514.6875 185.683594 514.664062 185.78125 L 509.238281 185.78125 C 509.292969 186.640625 509.5625 187.324219 510.042969 187.828125 C 510.523438 188.328125 511.144531 188.578125 511.917969 188.578125 C 512.304688 188.578125 512.65625 188.519531 512.988281 188.40625 C 513.308594 188.289062 513.625 188.136719 513.921875 187.953125 L 514.398438 188.84375 C 514.050781 189.066406 513.65625 189.257812 513.226562 189.421875 C 512.796875 189.59375 512.304688 189.675781 511.757812 189.675781 Z M 509.222656 184.808594 L 513.523438 184.808594 C 513.523438 183.992188 513.351562 183.371094 513 182.945312 C 512.65625 182.519531 512.164062 182.308594 511.539062 182.308594 C 511.25 182.308594 510.980469 182.363281 510.71875 182.472656 C 510.460938 182.582031 510.226562 182.746094 510.011719 182.960938 C 509.804688 183.175781 509.628906 183.4375 509.492188 183.746094 C 509.359375 184.058594 509.269531 184.410156 509.222656 184.808594 Z M 509.222656 184.808594 "/>
<path style=" stroke:none;fill-rule:nonzero;fill:rgb(0%,0%,0%);fill-opacity:1;" d="M 515.460938 189.476562 L 518.089844 185.273438 L 515.660156 181.433594 L 517.132812 181.433594 L 518.203125 183.203125 C 518.328125 183.425781 518.453125 183.648438 518.585938 183.875 C 518.71875 184.101562 518.855469 184.320312 519 184.542969 L 519.066406 184.542969 C 519.1875 184.320312 519.308594 184.097656 519.429688 183.875 C 519.550781 183.648438 519.671875 183.425781 519.792969 183.203125 L 520.769531 181.433594 L 522.191406 181.433594 L 519.757812 185.421875 L 522.375 189.480469 L 520.902344 189.480469 L 519.726562 187.609375 C 519.582031 187.363281 519.441406 187.125 519.296875 186.878906 C 519.152344 186.636719 519.003906 186.398438 518.851562 186.167969 L 518.785156 186.167969 C 518.640625 186.398438 518.503906 186.632812 518.371094 186.871094 C 518.238281 187.109375 518.109375 187.351562 517.972656 187.609375 L 516.882812 189.480469 L 515.460938 189.480469 Z M 515.460938 189.476562 "/>
<path style=" stroke:none;fill-rule:nonzero;fill:rgb(0%,0%,0%);fill-opacity:1;" d="M 526.859375 189.675781 C 526.328125 189.675781 525.832031 189.582031 525.367188 189.394531 C 524.90625 189.207031 524.503906 188.933594 524.167969 188.574219 C 523.832031 188.214844 523.566406 187.773438 523.375 187.25 C 523.183594 186.722656 523.085938 186.128906 523.085938 185.46875 C 523.085938 184.796875 523.1875 184.199219 523.402344 183.671875 C 523.609375 183.148438 523.890625 182.703125 524.242188 182.34375 C 524.59375 181.976562 525.007812 181.703125 525.472656 181.511719 C 525.941406 181.324219 526.4375 181.230469 526.953125 181.230469 C 527.484375 181.230469 527.9375 181.324219 528.308594 181.511719 C 528.683594 181.703125 529.015625 181.921875 529.300781 182.175781 L 528.609375 183.070312 C 528.375 182.859375 528.128906 182.6875 527.871094 182.554688 C 527.617188 182.421875 527.324219 182.355469 527.003906 182.355469 C 526.640625 182.355469 526.304688 182.429688 525.996094 182.582031 C 525.6875 182.726562 525.421875 182.941406 525.199219 183.21875 C 524.980469 183.492188 524.808594 183.824219 524.679688 184.203125 C 524.550781 184.585938 524.488281 185.007812 524.488281 185.46875 C 524.488281 185.933594 524.546875 186.351562 524.671875 186.726562 C 524.792969 187.101562 524.960938 187.425781 525.175781 187.695312 C 525.390625 187.964844 525.652344 188.175781 525.960938 188.324219 C 526.269531 188.472656 526.605469 188.550781 526.972656 188.550781 C 527.347656 188.550781 527.691406 188.46875 528.007812 188.308594 C 528.320312 188.148438 528.605469 187.957031 528.859375 187.738281 L 529.453125 188.648438 C 529.089844 188.96875 528.6875 189.21875 528.246094 189.402344 C 527.808594 189.585938 527.34375 189.675781 526.859375 189.675781 Z M 526.859375 189.675781 "/>
<path style=" stroke:none;fill-rule:nonzero;fill:rgb(0%,0%,0%);fill-opacity:1;" d="M 534.136719 189.675781 C 533.597656 189.675781 533.09375 189.578125 532.625 189.386719 C 532.15625 189.191406 531.746094 188.917969 531.398438 188.558594 C 531.050781 188.199219 530.777344 187.761719 530.578125 187.238281 C 530.378906 186.722656 530.28125 186.128906 530.28125 185.46875 C 530.28125 184.808594 530.382812 184.214844 530.585938 183.691406 C 530.789062 183.164062 531.0625 182.722656 531.398438 182.359375 C 531.738281 181.996094 532.121094 181.714844 532.546875 181.523438 C 532.976562 181.328125 533.425781 181.230469 533.886719 181.230469 C 534.394531 181.230469 534.847656 181.320312 535.25 181.496094 C 535.652344 181.671875 535.988281 181.925781 536.261719 182.257812 C 536.53125 182.589844 536.738281 182.984375 536.882812 183.449219 C 537.027344 183.914062 537.097656 184.429688 537.097656 185.003906 C 537.097656 185.148438 537.09375 185.289062 537.089844 185.425781 C 537.082031 185.566406 537.070312 185.683594 537.046875 185.78125 L 531.617188 185.78125 C 531.671875 186.640625 531.941406 187.324219 532.421875 187.828125 C 532.902344 188.328125 533.527344 188.578125 534.300781 188.578125 C 534.6875 188.578125 535.039062 188.519531 535.367188 188.40625 C 535.691406 188.289062 536.003906 188.136719 536.300781 187.953125 L 536.78125 188.84375 C 536.429688 189.066406 536.039062 189.257812 535.609375 189.421875 C 535.183594 189.59375 534.691406 189.675781 534.136719 189.675781 Z M 531.605469 184.808594 L 535.90625 184.808594 C 535.90625 183.992188 535.734375 183.371094 535.386719 182.945312 C 535.035156 182.519531 534.550781 182.308594 533.921875 182.308594 C 533.632812 182.308594 533.363281 182.363281 533.101562 182.472656 C 532.84375 182.582031 532.609375 182.746094 532.398438 182.960938 C 532.1875 183.175781 532.015625 183.4375 531.878906 183.746094 C 531.742188 184.058594 531.652344 184.410156 531.605469 184.808594 Z M 531.605469 184.808594 "/>
<path style=" stroke:none;fill-rule:nonzero;fill:rgb(0%,0%,0%);fill-opacity:1;" d="M 539.085938 192.871094 L 539.085938 181.433594 L 540.210938 181.433594 L 540.324219 182.363281 L 540.375 182.363281 C 540.738281 182.050781 541.136719 181.785156 541.574219 181.566406 C 542.011719 181.34375 542.464844 181.234375 542.9375 181.234375 C 543.457031 181.234375 543.914062 181.332031 544.3125 181.523438 C 544.707031 181.714844 545.042969 181.992188 545.304688 182.351562 C 545.566406 182.710938 545.769531 183.140625 545.910156 183.644531 C 546.050781 184.148438 546.113281 184.710938 546.113281 185.339844 C 546.113281 186.023438 546.019531 186.632812 545.835938 187.167969 C 545.648438 187.707031 545.390625 188.160156 545.074219 188.535156 C 544.753906 188.910156 544.386719 189.191406 543.96875 189.386719 C 543.546875 189.578125 543.105469 189.675781 542.640625 189.675781 C 542.269531 189.675781 541.894531 189.59375 541.523438 189.425781 C 541.15625 189.265625 540.78125 189.035156 540.40625 188.75 L 540.4375 190.15625 L 540.4375 192.871094 Z M 542.410156 188.535156 C 542.742188 188.535156 543.046875 188.460938 543.328125 188.3125 C 543.609375 188.160156 543.851562 187.953125 544.058594 187.679688 C 544.261719 187.410156 544.417969 187.078125 544.535156 186.679688 C 544.652344 186.28125 544.707031 185.835938 544.707031 185.339844 C 544.707031 184.894531 544.667969 184.496094 544.59375 184.128906 C 544.515625 183.765625 544.390625 183.453125 544.21875 183.195312 C 544.050781 182.933594 543.828125 182.734375 543.558594 182.589844 C 543.289062 182.445312 542.96875 182.375 542.589844 182.375 C 542.25 182.375 541.90625 182.46875 541.554688 182.65625 C 541.210938 182.839844 540.835938 183.109375 540.4375 183.464844 L 540.4375 187.6875 C 540.800781 187.996094 541.15625 188.214844 541.5 188.339844 C 541.84375 188.46875 542.144531 188.535156 542.410156 188.535156 Z M 542.410156 188.535156 "/>
<path style=" stroke:none;fill-rule:nonzero;fill:rgb(0%,0%,0%);fill-opacity:1;" d="M 550.515625 189.675781 C 550.085938 189.675781 549.722656 189.609375 549.429688 189.476562 C 549.140625 189.34375 548.902344 189.164062 548.71875 188.929688 C 548.539062 188.699219 548.40625 188.417969 548.332031 188.089844 C 548.253906 187.757812 548.214844 187.394531 548.214844 186.996094 L 548.214844 182.542969 L 547.023438 182.542969 L 547.023438 181.515625 L 548.28125 181.433594 L 548.445312 179.183594 L 549.585938 179.183594 L 549.585938 181.433594 L 551.753906 181.433594 L 551.753906 182.542969 L 549.585938 182.542969 L 549.585938 187.011719 C 549.585938 187.507812 549.675781 187.890625 549.859375 188.160156 C 550.039062 188.429688 550.363281 188.570312 550.824219 188.570312 C 550.96875 188.570312 551.121094 188.546875 551.289062 188.503906 C 551.453125 188.457031 551.601562 188.410156 551.734375 188.355469 L 551.996094 189.382812 C 551.777344 189.457031 551.539062 189.527344 551.277344 189.589844 C 551.027344 189.644531 550.769531 189.675781 550.515625 189.675781 Z M 550.515625 189.675781 "/>
<path style=" stroke:none;fill-rule:nonzero;fill:rgb(0%,0%,0%);fill-opacity:1;" d="M 554.269531 179.777344 C 554.007812 179.777344 553.785156 179.695312 553.601562 179.527344 C 553.421875 179.363281 553.328125 179.15625 553.328125 178.898438 C 553.328125 178.632812 553.421875 178.421875 553.601562 178.261719 C 553.785156 178.101562 554.007812 178.019531 554.269531 178.019531 C 554.535156 178.019531 554.757812 178.097656 554.941406 178.261719 C 555.121094 178.417969 555.214844 178.632812 555.214844 178.898438 C 555.214844 179.152344 555.121094 179.359375 554.941406 179.527344 C 554.757812 179.695312 554.535156 179.777344 554.269531 179.777344 Z M 553.574219 189.476562 L 553.574219 181.433594 L 554.933594 181.433594 L 554.933594 189.476562 Z M 553.574219 189.476562 "/>
<path style=" stroke:none;fill-rule:nonzero;fill:rgb(0%,0%,0%);fill-opacity:1;" d="M 560.773438 189.675781 C 560.277344 189.675781 559.804688 189.582031 559.355469 189.394531 C 558.910156 189.207031 558.515625 188.933594 558.171875 188.574219 C 557.828125 188.214844 557.558594 187.773438 557.355469 187.25 C 557.152344 186.722656 557.046875 186.128906 557.046875 185.46875 C 557.046875 184.796875 557.152344 184.199219 557.355469 183.671875 C 557.558594 183.148438 557.828125 182.703125 558.171875 182.34375 C 558.515625 181.976562 558.910156 181.703125 559.355469 181.511719 C 559.800781 181.324219 560.277344 181.230469 560.773438 181.230469 C 561.269531 181.230469 561.742188 181.324219 562.1875 181.511719 C 562.632812 181.703125 563.027344 181.976562 563.371094 182.34375 C 563.714844 182.703125 563.988281 183.152344 564.191406 183.671875 C 564.394531 184.195312 564.496094 184.796875 564.496094 185.46875 C 564.496094 186.128906 564.394531 186.722656 564.191406 187.25 C 563.988281 187.773438 563.714844 188.214844 563.371094 188.574219 C 563.027344 188.933594 562.632812 189.207031 562.1875 189.394531 C 561.742188 189.582031 561.269531 189.675781 560.773438 189.675781 Z M 560.773438 188.550781 C 561.113281 188.550781 561.425781 188.472656 561.714844 188.324219 C 562 188.175781 562.246094 187.96875 562.449219 187.695312 C 562.652344 187.425781 562.808594 187.101562 562.921875 186.726562 C 563.03125 186.351562 563.085938 185.933594 563.085938 185.46875 C 563.085938 185.007812 563.03125 184.585938 562.921875 184.203125 C 562.808594 183.824219 562.652344 183.492188 562.449219 183.21875 C 562.246094 182.941406 562 182.730469 561.714844 182.582031 C 561.425781 182.433594 561.113281 182.355469 560.773438 182.355469 C 560.433594 182.355469 560.117188 182.429688 559.832031 182.582031 C 559.542969 182.726562 559.296875 182.941406 559.09375 183.21875 C 558.890625 183.492188 558.734375 183.824219 558.625 184.203125 C 558.511719 184.585938 558.457031 185.007812 558.457031 185.46875 C 558.457031 185.933594 558.511719 186.351562 558.625 186.726562 C 558.734375 187.101562 558.890625 187.425781 559.09375 187.695312 C 559.300781 187.964844 559.542969 188.175781 559.832031 188.324219 C 560.117188 188.472656 560.429688 188.550781 560.773438 188.550781 Z M 560.773438 188.550781 "/>
<path style=" stroke:none;fill-rule:nonzero;fill:rgb(0%,0%,0%);fill-opacity:1;" d="M 566.613281 189.476562 L 566.613281 181.433594 L 567.738281 181.433594 L 567.855469 182.589844 L 567.90625 182.589844 C 568.289062 182.207031 568.695312 181.882812 569.121094 181.625 C 569.542969 181.367188 570.039062 181.234375 570.601562 181.234375 C 571.449219 181.234375 572.070312 181.5 572.460938 182.027344 C 572.851562 182.558594 573.046875 183.34375 573.046875 184.378906 L 573.046875 189.476562 L 571.691406 189.476562 L 571.691406 184.5625 C 571.691406 183.800781 571.570312 183.25 571.328125 182.914062 C 571.089844 182.578125 570.699219 182.410156 570.171875 182.410156 C 569.753906 182.410156 569.382812 182.515625 569.0625 182.722656 C 568.742188 182.933594 568.378906 183.242188 567.972656 183.652344 L 567.972656 189.480469 L 566.613281 189.480469 Z M 566.613281 189.476562 "/>
<path style=" stroke:none;fill-rule:nonzero;fill:rgb(91.764706%,35.294118%,27.843137%);fill-opacity:1;" d="M 488.730469 69.996094 L 544.976562 55.097656 L 600.511719 70.230469 L 600.753906 70.46875 L 544.976562 85.601562 Z M 488.730469 69.996094 "/>
<path style=" stroke:none;fill-rule:nonzero;fill:rgb(0%,0%,0%);fill-opacity:1;" d="M 544.976562 87.96875 C 544.734375 87.96875 544.503906 87.96875 544.265625 87.96875 L 492.511719 73.304688 C 491.328125 72.832031 490.382812 71.652344 490.859375 70.46875 C 491.328125 69.285156 492.511719 68.339844 493.691406 68.8125 L 545.445312 83.472656 C 546.628906 83.945312 547.574219 85.128906 547.097656 86.3125 C 546.867188 87.257812 545.921875 87.96875 544.976562 87.96875 Z M 544.976562 87.96875 "/>
<path style=" stroke:none;fill-rule:nonzero;fill:rgb(0%,0%,0%);fill-opacity:1;" d="M 544.976562 107.59375 C 544.734375 107.59375 544.503906 107.59375 544.265625 107.59375 L 484.710938 91.75 C 483.53125 91.511719 482.585938 90.09375 483.058594 88.914062 C 483.292969 87.730469 484.710938 86.785156 485.894531 87.257812 L 545.445312 103.101562 C 546.628906 103.34375 547.574219 104.757812 547.097656 105.941406 C 547.101562 106.882812 545.921875 107.59375 544.976562 107.59375 Z M 544.976562 107.59375 "/>
<path style=" stroke:none;fill-rule:nonzero;fill:rgb(0%,0%,0%);fill-opacity:1;" d="M 600.511719 72.597656 C 600.273438 72.597656 600.039062 72.597656 599.800781 72.597656 L 544.265625 57.460938 C 543.085938 57.222656 542.140625 55.808594 542.613281 54.625 C 542.855469 53.441406 544.265625 52.496094 545.449219 52.96875 L 600.984375 68.105469 C 602.167969 68.339844 603.113281 69.757812 602.636719 70.941406 C 602.640625 71.886719 601.695312 72.597656 600.511719 72.597656 Z M 600.511719 72.597656 "/>
<path style=" stroke:none;fill-rule:nonzero;fill:rgb(0%,0%,0%);fill-opacity:1;" d="M 544.976562 87.96875 C 544.03125 87.96875 542.851562 87.257812 542.613281 86.3125 C 542.371094 85.128906 543.082031 83.710938 544.265625 83.472656 L 600.039062 68.339844 C 601.222656 68.105469 602.640625 68.8125 602.875 69.996094 C 603.113281 71.175781 602.402344 72.597656 601.222656 72.832031 L 545.449219 87.96875 C 545.449219 87.96875 545.214844 87.96875 544.976562 87.96875 Z M 544.976562 87.96875 "/>
<path style=" stroke:none;fill-rule:nonzero;fill:rgb(0%,0%,0%);fill-opacity:1;" d="M 488.730469 72.597656 C 487.785156 72.597656 486.605469 71.886719 486.367188 70.703125 C 486.128906 69.523438 486.835938 68.105469 488.019531 67.867188 L 544.265625 52.96875 C 545.449219 52.734375 546.867188 53.441406 547.101562 54.625 C 547.339844 55.808594 546.628906 57.226562 545.449219 57.460938 L 489.203125 72.359375 C 488.964844 72.359375 488.964844 72.597656 488.730469 72.597656 Z M 488.730469 72.597656 "/>
<path style=" stroke:none;fill-rule:nonzero;fill:rgb(0%,0%,0%);fill-opacity:1;" d="M 544.976562 107.59375 C 544.03125 107.59375 542.851562 106.882812 542.613281 105.941406 C 542.371094 104.757812 543.082031 103.335938 544.265625 103.101562 L 600.039062 87.972656 C 601.222656 87.738281 602.640625 88.445312 602.875 89.628906 C 603.113281 90.8125 602.402344 92.230469 601.222656 92.46875 L 545.445312 107.601562 C 545.449219 107.59375 545.214844 107.59375 544.976562 107.59375 Z M 544.976562 107.59375 "/>
<path style=" stroke:none;fill-rule:nonzero;fill:rgb(0%,0%,0%);fill-opacity:1;" d="M 487.074219 92.222656 C 486.835938 92.222656 486.601562 92.222656 486.363281 92.222656 C 483.53125 91.277344 481.402344 89.386719 479.984375 86.3125 C 478.804688 83.472656 478.5625 80.398438 479.511719 77.089844 C 481.40625 70.46875 487.785156 66.683594 493.453125 68.339844 C 494.636719 68.8125 495.347656 69.996094 495.105469 71.414062 C 494.636719 72.597656 493.453125 73.304688 492.035156 73.070312 C 488.957031 72.125 485.414062 74.726562 484.230469 78.746094 C 483.523438 80.871094 483.765625 82.765625 484.472656 84.65625 C 485.183594 86.3125 486.363281 87.492188 487.777344 87.730469 C 488.957031 88.203125 489.671875 89.386719 489.429688 90.804688 C 488.964844 91.515625 488.019531 92.222656 487.074219 92.222656 Z M 487.074219 92.222656 "/>
<path style=" stroke:none;fill-rule:nonzero;fill:rgb(0%,0%,0%);fill-opacity:1;" d="M 544.976562 128.402344 C 544.734375 128.402344 544.503906 128.402344 544.265625 128.402344 L 484.710938 112.558594 C 483.53125 112.324219 482.585938 110.90625 483.058594 109.726562 C 483.292969 108.542969 484.710938 107.601562 485.894531 108.074219 L 545.449219 123.910156 C 546.628906 124.152344 547.574219 125.5625 547.101562 126.746094 C 547.101562 127.695312 545.921875 128.402344 544.976562 128.402344 Z M 544.976562 128.402344 "/>
<path style=" stroke:none;fill-rule:nonzero;fill:rgb(0%,0%,0%);fill-opacity:1;" d="M 544.976562 128.402344 C 544.03125 128.402344 542.851562 127.695312 542.613281 126.75 C 542.371094 125.566406 543.082031 124.148438 544.265625 123.914062 L 600.039062 108.785156 C 601.222656 108.542969 602.640625 109.257812 602.875 110.4375 C 603.113281 111.621094 602.402344 113.042969 601.222656 113.273438 L 545.449219 128.402344 C 545.449219 128.402344 545.214844 128.402344 544.976562 128.402344 Z M 544.976562 128.402344 "/>
<path style=" stroke:none;fill-rule:nonzero;fill:rgb(0%,0%,0%);fill-opacity:1;" d="M 487.074219 113.035156 C 486.835938 113.035156 486.601562 113.035156 486.363281 113.035156 C 483.53125 112.089844 481.402344 110.195312 479.984375 107.125 C 478.804688 104.285156 478.5625 101.210938 479.511719 97.898438 C 480.457031 94.589844 482.347656 92.222656 484.949219 90.566406 C 487.550781 88.914062 490.621094 88.203125 493.457031 89.148438 C 494.640625 89.621094 495.355469 90.800781 495.109375 92.222656 C 494.640625 93.402344 493.457031 94.113281 492.039062 93.875 C 490.621094 93.402344 488.964844 93.640625 487.550781 94.585938 C 485.902344 95.53125 484.71875 97.421875 484.246094 99.316406 C 483.539062 101.445312 483.777344 103.332031 484.484375 105.226562 C 485.199219 106.878906 486.378906 108.0625 487.792969 108.304688 C 488.972656 108.773438 489.6875 109.957031 489.445312 111.375 C 488.964844 112.324219 488.019531 113.035156 487.074219 113.035156 Z M 487.074219 113.035156 "/>
<path style=" stroke:none;fill-rule:nonzero;fill:rgb(0%,0%,0%);fill-opacity:1;" d="M 544.976562 149.214844 C 544.734375 149.214844 544.503906 149.214844 544.265625 149.214844 L 484.710938 133.371094 C 483.53125 133.125 482.585938 131.714844 483.058594 130.53125 C 483.292969 129.347656 484.710938 128.402344 485.894531 128.875 L 545.445312 144.71875 C 546.628906 144.957031 547.574219 146.375 547.097656 147.558594 C 547.101562 148.503906 546.15625 149.214844 544.976562 149.214844 Z M 544.976562 149.214844 "/>
<path style=" stroke:none;fill-rule:nonzero;fill:rgb(0%,0%,0%);fill-opacity:1;" d="M 544.976562 149.214844 C 544.03125 149.214844 542.851562 148.503906 542.613281 147.558594 C 542.371094 146.378906 543.082031 144.957031 544.265625 144.726562 L 600.039062 129.59375 C 601.222656 129.355469 602.640625 130.066406 602.875 131.25 C 603.113281 132.429688 602.402344 133.855469 601.222656 134.085938 L 545.449219 149.214844 C 545.449219 149.214844 545.214844 149.214844 544.976562 149.214844 Z M 544.976562 149.214844 "/>
<path style=" stroke:none;fill-rule:nonzero;fill:rgb(0%,0%,0%);fill-opacity:1;" d="M 487.074219 133.84375 C 486.835938 133.84375 486.601562 133.84375 486.363281 133.84375 C 483.53125 132.902344 481.402344 131.007812 479.984375 127.929688 C 478.804688 125.09375 478.5625 122.019531 479.511719 118.714844 C 481.40625 112.089844 487.785156 108.3125 493.453125 109.964844 C 494.636719 110.4375 495.347656 111.621094 495.105469 113.042969 C 494.636719 114.226562 493.453125 114.9375 492.035156 114.695312 C 488.957031 113.753906 485.414062 116.351562 484.230469 120.367188 C 483.523438 122.492188 483.765625 124.382812 484.472656 126.277344 C 485.183594 127.929688 486.363281 129.113281 487.777344 129.355469 C 488.957031 129.824219 489.671875 131.007812 489.429688 132.429688 C 489.203125 133.132812 488.257812 133.84375 487.074219 133.84375 Z M 487.074219 133.84375 "/>
</g>
</svg>
