<?xml version="1.0" encoding="UTF-8"?>
<svg xmlns="http://www.w3.org/2000/svg" xmlns:xlink="http://www.w3.org/1999/xlink" width="630px" height="px" viewBox="0 0 629 179" version="1.1">
<g id="surface1">
<path style=" stroke:none;fill-rule:nonzero;fill:rgb(100%,100%,100%);fill-opacity:1;" d="M 296.898438 85.167969 L 290.550781 107.109375 L 266.027344 110.863281 C 266.027344 110.863281 266.027344 118.949219 266.605469 120.101562 C 267.179688 121.257812 273.527344 131.074219 273.527344 131.074219 L 284.492188 138.292969 L 288.53125 142.332031 L 285.359375 147.820312 C 285.359375 147.820312 277.566406 153.59375 277.855469 154.171875 C 278.144531 154.75 280.164062 158.789062 280.164062 158.789062 L 290.550781 159.945312 C 290.550781 159.945312 298.917969 157.058594 298.917969 156.769531 C 298.917969 156.480469 306.421875 144.644531 306.421875 144.644531 C 306.421875 144.644531 316.230469 142.046875 319.980469 148.683594 L 330.65625 139.445312 L 336.429688 110 C 336.429688 110 331.8125 100.757812 331.8125 100.472656 C 331.8125 100.183594 318.539062 87.769531 318.539062 87.769531 L 303.535156 92.386719 Z M 296.898438 85.167969 "/>
<path style=" stroke:none;fill-rule:nonzero;fill:rgb(100%,100%,100%);fill-opacity:1;" d="M 280.164062 73.332031 L 264.582031 82.570312 L 254.484375 98.160156 C 254.484375 98.160156 256.503906 108.554688 256.792969 108.554688 C 257.082031 108.554688 276.703125 112.597656 276.703125 112.597656 L 293.148438 105.957031 Z M 280.164062 73.332031 "/>
<path style=" stroke:none;fill-rule:nonzero;fill:rgb(24.705882%,24.705882%,24.705882%);fill-opacity:1;" d="M 301.226562 71.601562 L 305.84375 58.03125 L 303.824219 44.460938 L 295.167969 48.214844 L 290.261719 51.679688 C 290.261719 51.679688 287.378906 44.460938 282.761719 44.75 L 274.683594 54.566406 L 272.664062 66.402344 L 270.355469 68.714844 C 270.355469 68.714844 270.933594 76.21875 272.664062 76.796875 C 273.238281 76.796875 274.394531 76.796875 275.546875 76.507812 L 266.890625 81.417969 C 266.890625 81.417969 260.832031 102.492188 280.164062 112.597656 C 286.222656 112.886719 288.242188 114.328125 294.015625 108.84375 C 294.015625 108.84375 302.671875 97.871094 295.457031 82.28125 C 295.457031 81.703125 295.167969 81.417969 295.167969 81.417969 Z M 301.226562 71.601562 "/>
<path style=" stroke:none;fill-rule:nonzero;fill:rgb(24.705882%,24.705882%,24.705882%);fill-opacity:1;" d="M 311.613281 89.210938 C 311.613281 89.210938 345.371094 111.730469 322.289062 143.777344 L 319.695312 151.285156 L 324.023438 156.191406 L 339.601562 160.8125 L 358.644531 159.367188 L 371.339844 150.128906 L 372.496094 140.3125 L 369.898438 125.589844 L 361.53125 111.441406 L 349.988281 97.871094 L 338.160156 90.65625 Z M 311.613281 89.210938 "/>
<path style=" stroke:none;fill-rule:nonzero;fill:rgb(100%,100%,100%);fill-opacity:1;" d="M 371.628906 135.980469 L 379.707031 134.539062 L 388.941406 139.15625 C 388.941406 139.15625 389.230469 147.53125 389.519531 147.820312 C 389.808594 148.109375 381.726562 155.902344 381.4375 155.902344 C 381.152344 155.902344 375.378906 158.214844 375.378906 158.214844 C 375.378906 158.214844 367.011719 159.078125 363.261719 155.902344 L 370.765625 149.261719 Z M 371.628906 135.980469 "/>
<path style="fill:none;stroke-width:2;stroke-linecap:round;stroke-linejoin:round;stroke:rgb(0%,0%,0%);stroke-opacity:1;stroke-miterlimit:10;" d="M 101.10037 36.600079 C 99.000571 41.100166 89.499354 37.499825 89.499354 37.499825 C 88.999789 37.299581 88.600407 36.800323 88.500224 36.19959 L 88.199672 34.400096 C 88.099488 33.999607 88.199672 33.500349 88.40004 33.199983 L 90.100457 30.40062 C 90.900574 29.000262 92.100072 28.000393 93.499938 27.299537 L 96.800589 25.700288 C 96.800589 25.700288 99.899518 16.199502 104.999416 15.399878 C 104.999416 15.399878 109 19.499476 102.000671 28.499651 C 102.000671 28.499651 103.799918 29.699764 105.199784 31.999869 C 105.199784 31.999869 118.499863 24.199808 127.000596 41.100166 C 134.800042 56.700288 119.699362 55.700419 114.599463 54.999564 C 113.299781 54.800672 112.100283 53.999694 111.599364 52.799581 C 110.999615 51.599468 111.099799 50.10034 114.500633 49.599729 " transform="matrix(2.885321,0,0,2.887097,0,0)"/>
<path style="fill:none;stroke-width:2;stroke-linecap:round;stroke-linejoin:round;stroke:rgb(0%,0%,0%);stroke-opacity:1;stroke-miterlimit:10;" d="M 93.29957 41.599424 C 93.600122 44.199895 95.100171 47.000611 99.099401 47.599991 C 99.099401 47.599991 100.400437 49.200594 99.099401 50.499476 C 99.099401 50.499476 97.899903 51.499345 96.999603 52.500567 C 95.900288 53.600559 96.700405 55.500175 98.200455 55.500175 L 101.599935 55.500175 C 102.199685 55.500175 102.799434 55.199808 103.099985 54.70055 L 106.400636 49.499607 L 107.49995 45.999389 " transform="matrix(2.885321,0,0,2.887097,0,0)"/>
<path style="fill:none;stroke-width:2;stroke-linecap:round;stroke-linejoin:round;stroke:rgb(0%,0%,0%);stroke-opacity:1;stroke-miterlimit:10;" d="M 131.799943 47.499869 C 131.799943 47.499869 136.099724 47.399747 134.800042 50.899965 C 133.50036 54.400183 130.400077 54.099817 130.400077 54.099817 " transform="matrix(2.885321,0,0,2.887097,0,0)"/>
<path style="fill:none;stroke-width:2;stroke-linecap:round;stroke-linejoin:round;stroke:rgb(0%,0%,0%);stroke-opacity:1;stroke-miterlimit:10;" d="M 94.500422 23.199939 C 94.400238 20.499345 95.200355 16.900358 98.000087 15.399878 C 98.000087 15.399878 99.700504 15.199633 100.799819 18.200594 " transform="matrix(2.885321,0,0,2.887097,0,0)"/>
<path style=" stroke:none;fill-rule:nonzero;fill:rgb(64.705882%,47.45098%,22.352941%);fill-opacity:1;" d="M 34.914062 64.09375 C 33.179688 64.671875 15.292969 85.746094 13.273438 99.316406 C 11.542969 112.597656 12.40625 118.082031 12.40625 118.082031 C 12.40625 118.082031 19.042969 138.292969 38.375 148.398438 C 38.375 148.398438 68.671875 179 108.199219 148.972656 C 108.199219 148.972656 127.53125 142.332031 136.1875 115.195312 L 135.609375 92.386719 L 130.128906 77.953125 C 130.128906 77.953125 119.742188 67.847656 119.164062 66.980469 C 118.875 66.113281 106.757812 57.742188 106.757812 57.742188 L 102.429688 56.296875 L 46.742188 57.164062 Z M 34.914062 64.09375 "/>
<path style=" stroke:none;fill-rule:nonzero;fill:rgb(95.686275%,66.666667%,25.490196%);fill-opacity:1;" d="M 130.703125 53.988281 L 131.28125 40.707031 L 128.683594 31.757812 L 115.414062 30.027344 L 103.292969 35.800781 L 96.082031 41.863281 L 88.578125 29.449219 L 75.019531 23.097656 L 51.359375 27.714844 L 48.761719 28.292969 C 48.761719 28.292969 43.28125 32.335938 43.566406 34.066406 C 43.566406 34.066406 27.988281 27.140625 21.0625 33.203125 C 21.0625 33.203125 12.40625 49.082031 21.929688 59.761719 L 31.160156 67.847656 C 31.160156 67.847656 8.945312 87.769531 34.046875 113.175781 C 34.046875 113.175781 27.988281 126.167969 36.644531 140.890625 L 44.144531 156.480469 C 57.996094 168.894531 89.15625 168.316406 103.292969 155.902344 L 108.777344 144.644531 C 110.796875 142.046875 119.742188 130.785156 117.433594 117.214844 C 117.433594 117.214844 137.054688 98.449219 121.183594 69 L 117.433594 65.535156 L 124.355469 61.785156 Z M 130.703125 53.988281 "/>
<path style=" stroke:none;fill-rule:nonzero;fill:rgb(64.705882%,47.45098%,22.352941%);fill-opacity:1;" d="M 42.992188 33.492188 C 42.992188 33.492188 45.300781 28.871094 51.9375 26.5625 C 58.570312 23.964844 65.496094 22.519531 65.496094 22.519531 C 65.496094 22.519531 80.5 24.828125 81.65625 24.828125 C 82.808594 25.117188 95.503906 39.554688 95.503906 39.554688 L 96.660156 45.328125 C 96.660156 45.328125 92.332031 49.65625 81.367188 43.882812 C 70.402344 38.109375 67.804688 38.398438 67.515625 38.6875 C 66.9375 38.976562 54.53125 44.171875 54.53125 44.171875 L 49.628906 40.128906 Z M 42.992188 33.492188 "/>
<path style=" stroke:none;fill-rule:nonzero;fill:rgb(100%,100%,100%);fill-opacity:1;" d="M 101.851562 103.070312 C 102.140625 102.492188 105.3125 82.859375 105.3125 82.859375 L 105.027344 82.859375 C 105.027344 82.859375 98.964844 94.121094 92.042969 96.140625 L 90.886719 99.605469 L 91.175781 103.070312 C 89.734375 103.070312 88.289062 103.070312 87.136719 103.648438 C 84.25 105.378906 81.65625 104.800781 81.65625 104.800781 L 77.328125 108.84375 L 75.882812 110.863281 L 71.84375 109.710938 C 71.84375 109.710938 70.113281 105.089844 69.824219 104.800781 C 69.246094 104.511719 64.917969 103.070312 64.917969 103.070312 L 62.035156 104.222656 C 62.035156 104.222656 59.726562 103.359375 57.417969 103.933594 L 57.707031 99.894531 L 56.550781 96.429688 C 49.628906 94.40625 43.566406 83.148438 43.566406 83.148438 L 43.28125 83.148438 C 43.28125 83.148438 46.453125 102.78125 46.742188 103.359375 C 47.03125 103.648438 50.78125 107.6875 52.511719 109.421875 C 50.78125 114.617188 53.089844 120.101562 53.089844 120.101562 L 58.285156 126.742188 L 70.402344 125.011719 L 75.019531 121.257812 L 79.347656 123.566406 L 88.578125 127.03125 L 94.351562 123.855469 C 94.351562 123.855469 98.390625 113.464844 98.390625 112.886719 C 98.390625 112.597656 97.8125 110.285156 97.234375 108.265625 C 98.964844 106.246094 101.5625 103.359375 101.851562 103.070312 Z M 101.851562 103.070312 "/>
<path style=" stroke:none;fill-rule:nonzero;fill:rgb(95.686275%,66.27451%,25.490196%);fill-opacity:1;" d="M 53.957031 46.769531 C 53.957031 46.769531 55.109375 53.410156 48.761719 60.050781 C 48.761719 60.050781 38.664062 62.074219 38.085938 62.359375 C 37.507812 62.648438 32.605469 65.535156 32.027344 65.824219 C 31.160156 66.113281 27.988281 65.25 27.410156 64.671875 C 26.257812 64.09375 19.042969 51.96875 19.042969 51.96875 L 19.332031 43.59375 L 21.640625 33.492188 L 32.605469 32.046875 L 41.835938 34.355469 L 50.78125 41.574219 Z M 53.957031 46.769531 "/>
<path style=" stroke:none;fill-rule:nonzero;fill:rgb(95.686275%,66.27451%,25.490196%);fill-opacity:1;" d="M 95.503906 44.75 C 95.503906 44.75 94.351562 51.390625 100.699219 58.03125 C 100.699219 58.03125 110.796875 60.050781 111.375 60.339844 C 111.949219 60.628906 116.855469 63.515625 117.433594 63.804688 C 118.296875 64.09375 121.472656 63.226562 122.050781 62.648438 C 122.914062 62.074219 130.128906 49.945312 130.128906 49.945312 L 129.839844 41.574219 L 127.53125 31.46875 L 116.566406 30.027344 L 107.332031 32.335938 L 98.390625 39.554688 Z M 95.503906 44.75 "/>
<path style=" stroke:none;fill-rule:nonzero;fill:rgb(100%,100%,100%);fill-opacity:1;" d="M 55.398438 124.144531 L 60.015625 134.539062 L 66.074219 138.292969 L 79.347656 139.15625 L 89.734375 135.40625 L 95.214844 123.277344 L 88.289062 126.742188 L 78.191406 123.277344 L 74.730469 120.101562 L 67.515625 124.144531 C 67.515625 124.144531 67.515625 127.320312 63.476562 126.167969 C 59.4375 125.300781 55.398438 124.144531 55.398438 124.144531 Z M 55.398438 124.144531 "/>
<path style=" stroke:none;fill-rule:nonzero;fill:rgb(0%,0%,0%);fill-opacity:1;" d="M 53.957031 75.640625 C 55.398438 73.332031 57.996094 72.753906 60.304688 74.199219 C 62.613281 75.640625 62.035156 80.550781 62.035156 80.550781 C 62.035156 80.550781 57.996094 83.4375 55.6875 82.28125 C 53.378906 80.839844 52.511719 77.953125 53.957031 75.640625 Z M 53.957031 75.640625 "/>
<path style=" stroke:none;fill-rule:nonzero;fill:rgb(0%,0%,0%);fill-opacity:1;" d="M 96.082031 75.640625 C 94.636719 73.332031 92.042969 72.753906 89.734375 74.199219 C 87.425781 75.640625 88.289062 80.550781 88.289062 80.550781 C 88.289062 80.550781 92.332031 83.4375 94.636719 82.28125 C 96.660156 80.839844 97.234375 77.953125 96.082031 75.640625 Z M 96.082031 75.640625 "/>
<path style="fill:none;stroke-width:2;stroke-linecap:round;stroke-linejoin:round;stroke:rgb(0%,0%,0%);stroke-opacity:1;stroke-miterlimit:10;" d="M 29.399891 36.299712 C 29.399891 36.299712 27.899841 35.199721 26.99954 38.000436 L 25.900226 38.900183 L 24.699374 38.000436 C 23.800427 35.199721 22.300378 36.299712 22.300378 36.299712 " transform="matrix(2.885321,0,0,2.887097,0,0)"/>
<path style="fill:none;stroke-width:2;stroke-linecap:round;stroke-linejoin:round;stroke:rgb(0%,0%,0%);stroke-opacity:1;stroke-miterlimit:10;" d="M 31.499689 33.799363 L 33.200107 36.600079 C 33.400474 36.900445 33.500658 37.099337 33.500658 37.399703 L 33.799856 39.100428 C 33.90004 39.499564 33.799856 40.000175 33.599488 40.400663 L 32.700542 42.300279 C 32.39999 42.999782 31.700057 43.500393 30.89994 43.700637 C 30.400375 43.799406 29.800626 43.700637 29.299707 43.600515 L 28.300576 43.200026 C 28.000025 43.099904 27.799657 42.999782 27.600643 42.799537 L 26.499975 41.899791 L 25.499491 41.899791 L 24.400176 42.799537 C 24.199809 42.999782 23.999441 43.099904 23.700243 43.200026 L 22.699759 43.600515 C 22.200194 43.799406 21.700628 43.799406 21.099526 43.700637 C 20.299409 43.500393 19.599476 42.999782 19.300278 42.300279 L 18.399978 40.400663 C 18.000596 40.100297 18.000596 39.599686 18.000596 39.20055 L 18.299794 37.499825 C 18.299794 37.199459 18.399978 36.900445 18.600345 36.700201 L 20.299409 33.899485 " transform="matrix(2.885321,0,0,2.887097,0,0)"/>
<path style="fill:none;stroke-width:2;stroke-linecap:round;stroke-linejoin:round;stroke:rgb(0%,0%,0%);stroke-opacity:1;stroke-miterlimit:10;" d="M 25.900226 38.900183 L 25.900226 41.100166 " transform="matrix(2.885321,0,0,2.887097,0,0)"/>
<path style="fill:none;stroke-width:2;stroke-linecap:round;stroke-linejoin:round;stroke:rgb(0%,0%,0%);stroke-opacity:1;stroke-miterlimit:10;" d="M 21.500261 46.399878 L 22.10001 47.000611 C 22.799943 47.700113 23.700243 48.100602 24.600544 48.100602 L 26.99954 48.199372 C 27.899841 48.199372 28.800142 47.900358 29.600258 47.299625 L 30.300191 46.700244 " transform="matrix(2.885321,0,0,2.887097,0,0)"/>
<path style="fill:none;stroke-width:2;stroke-linecap:round;stroke-linejoin:round;stroke:rgb(0%,0%,0%);stroke-opacity:1;stroke-miterlimit:10;" d="M 11.200281 23.199939 C 3.100283 20.000087 7.299881 11.799537 7.299881 11.799537 C 13.400263 8.100428 18.399978 15.600122 18.399978 15.600122 C 18.399978 15.600122 22.300378 11.89966 28.300576 14.500131 " transform="matrix(2.885321,0,0,2.887097,0,0)"/>
<path style="fill:none;stroke-width:2;stroke-linecap:round;stroke-linejoin:round;stroke:rgb(0%,0%,0%);stroke-opacity:1;stroke-miterlimit:10;" d="M 16.199995 20.300454 C 16.199995 20.300454 2.199983 25.199677 5.099898 40.400663 " transform="matrix(2.885321,0,0,2.887097,0,0)"/>
<path style="fill:none;stroke-width:2;stroke-linecap:round;stroke-linejoin:round;stroke:rgb(0%,0%,0%);stroke-opacity:1;stroke-miterlimit:10;" d="M 12.499963 38.000436 C 10.400164 41.000044 9.600047 45.999389 16.099811 53.699328 " transform="matrix(2.885321,0,0,2.887097,0,0)"/>
<path style="fill:none;stroke-width:2;stroke-linecap:round;stroke-linejoin:round;stroke:rgb(0%,0%,0%);stroke-opacity:1;stroke-miterlimit:10;" d="M 16.199995 23.999564 C 16.199995 23.999564 11.699846 30.799756 17.900412 38.29945 " transform="matrix(2.885321,0,0,2.887097,0,0)"/>
<path style="fill:none;stroke-width:2;stroke-linecap:round;stroke-linejoin:round;stroke:rgb(0%,0%,0%);stroke-opacity:1;stroke-miterlimit:10;" d="M 17.300663 10.400532 C 17.300663 10.400532 27.50046 2.700594 33.300291 14.700375 " transform="matrix(2.885321,0,0,2.887097,0,0)"/>
<path style="fill:none;stroke-width:2;stroke-linecap:round;stroke-linejoin:round;stroke:rgb(0%,0%,0%);stroke-opacity:1;stroke-miterlimit:10;" d="M 33.300291 14.90062 C 33.300291 14.90062 38.300005 7.399572 44.400388 11.100035 C 44.400388 11.100035 48.599985 19.300585 40.499988 22.500436 " transform="matrix(2.885321,0,0,2.887097,0,0)"/>
<path style="fill:none;stroke-width:2;stroke-linecap:round;stroke-linejoin:round;stroke:rgb(0%,0%,0%);stroke-opacity:1;stroke-miterlimit:10;" d="M 35.500273 19.499476 C 35.500273 19.499476 49.500286 24.400052 46.60037 39.599686 " transform="matrix(2.885321,0,0,2.887097,0,0)"/>
<path style="fill:none;stroke-width:2;stroke-linecap:round;stroke-linejoin:round;stroke:rgb(0%,0%,0%);stroke-opacity:1;stroke-miterlimit:10;" d="M 40.100606 38.900183 C 41.400288 41.999913 41.099737 46.600122 35.600457 52.999825 " transform="matrix(2.885321,0,0,2.887097,0,0)"/>
<path style="fill:none;stroke-width:2;stroke-linecap:round;stroke-linejoin:round;stroke:rgb(0%,0%,0%);stroke-opacity:1;stroke-miterlimit:10;" d="M 35.500273 23.199939 C 35.500273 23.199939 40.000422 30.000131 33.799856 37.499825 " transform="matrix(2.885321,0,0,2.887097,0,0)"/>
<path style=" stroke:none;fill-rule:nonzero;fill:rgb(69.411765%,80%,20%);fill-opacity:1;" d="M 566.101562 166.007812 L 566.101562 40.128906 C 566.101562 30.027344 558.597656 21.652344 549.652344 21.652344 C 540.710938 21.652344 533.207031 30.027344 533.207031 40.128906 L 533.207031 166.007812 "/>
<path style=" stroke:none;fill-rule:nonzero;fill:rgb(36.078431%,61.960784%,19.215686%);fill-opacity:1;" d="M 572.160156 138.871094 L 593.222656 138.871094 C 599.859375 138.871094 605.339844 133.382812 605.339844 126.742188 L 605.339844 82.28125 C 605.339844 75.929688 600.722656 70.445312 594.375 69.867188 C 587.164062 69.289062 581.105469 74.777344 581.105469 81.992188 L 581.105469 98.160156 C 581.105469 107.6875 581.390625 110.285156 572.160156 110.285156 L 563.503906 110.285156 L 563.792969 139.445312 L 572.160156 139.445312 "/>
<path style=" stroke:none;fill-rule:nonzero;fill:rgb(36.078431%,61.960784%,19.215686%);fill-opacity:1;" d="M 522.242188 117.792969 L 504.644531 117.503906 C 497.71875 117.503906 486.464844 105.089844 486.464844 98.449219 L 487.042969 69.867188 C 487.042969 63.515625 493.390625 60.339844 500.027344 59.761719 C 507.527344 59.183594 508.683594 61.207031 508.683594 68.425781 L 512.722656 76.507812 C 512.722656 86.035156 512.433594 88.632812 522.242188 88.632812 L 531.1875 88.632812 L 530.898438 117.792969 L 522.242188 117.792969 "/>
<path style="fill:none;stroke-width:2;stroke-linecap:round;stroke-linejoin:round;stroke:rgb(0%,0%,0%);stroke-opacity:1;stroke-miterlimit:10;" d="M 196.200542 56.700288 L 196.200542 13.800628 C 196.200542 10.30041 193.599824 7.499694 190.49954 7.499694 C 187.400611 7.499694 184.799893 10.30041 184.799893 13.800628 L 184.799893 56.600166 " transform="matrix(2.885321,0,0,2.887097,0,0)"/>
<path style=" stroke:none;fill-rule:nonzero;fill:rgb(0%,0%,0%);fill-opacity:1;" d="M 558.019531 53.410156 C 558.019531 54.847656 556.859375 56.007812 555.425781 56.007812 C 553.988281 56.007812 552.828125 54.847656 552.828125 53.410156 C 552.828125 51.976562 553.988281 50.8125 555.425781 50.8125 C 556.859375 50.8125 558.019531 51.976562 558.019531 53.410156 Z M 558.019531 53.410156 "/>
<path style="fill:none;stroke-width:2;stroke-linecap:round;stroke-linejoin:round;stroke:rgb(0%,0%,0%);stroke-opacity:1;stroke-miterlimit:10;" d="M 180.19956 39.900052 L 174.600097 39.900052 C 171.299446 39.900052 168.700082 37.199459 168.700082 33.999607 L 168.700082 24.29993 C 168.700082 21.899703 170.799881 19.899965 173.300415 20.100209 C 175.500397 20.300454 177.100631 22.300192 177.100631 24.400052 L 177.100631 28.599773 C 177.100631 30.200375 178.400313 31.59938 180.099376 31.59938 L 180.299744 31.59938 " transform="matrix(2.885321,0,0,2.887097,0,0)"/>
<path style="fill:none;stroke-width:2;stroke-linecap:round;stroke-linejoin:round;stroke:rgb(0%,0%,0%);stroke-opacity:1;stroke-miterlimit:10;" d="M 198.400524 47.199502 L 205.700405 47.199502 C 208.000571 47.199502 209.900002 45.299887 209.900002 42.999782 L 209.900002 27.599904 C 209.900002 25.399921 208.299769 23.500306 206.099786 23.300061 C 203.600606 23.099817 201.499453 24.999433 201.499453 27.499782 L 201.499453 32.999738 C 201.499453 36.299712 201.599637 38.900183 198.400524 38.900183 " transform="matrix(2.885321,0,0,2.887097,0,0)"/>
<path style=" stroke:none;fill-rule:nonzero;fill:rgb(0%,0%,0%);fill-opacity:1;" d="M 498.582031 70.445312 C 498.582031 71.878906 497.421875 73.042969 495.988281 73.042969 C 494.550781 73.042969 493.390625 71.878906 493.390625 70.445312 C 493.390625 69.011719 494.550781 67.847656 495.988281 67.847656 C 497.421875 67.847656 498.582031 69.011719 498.582031 70.445312 Z M 498.582031 70.445312 "/>
<path style=" stroke:none;fill-rule:nonzero;fill:rgb(0%,0%,0%);fill-opacity:1;" d="M 598.992188 101.625 C 598.992188 103.0625 597.828125 104.222656 596.394531 104.222656 C 594.960938 104.222656 593.800781 103.0625 593.800781 101.625 C 593.800781 100.191406 594.960938 99.027344 596.394531 99.027344 C 597.828125 99.027344 598.992188 100.191406 598.992188 101.625 Z M 598.992188 101.625 "/>
</g>
</svg>
