<?xml version="1.0" encoding="UTF-8"?>
<svg xmlns="http://www.w3.org/2000/svg" xmlns:xlink="http://www.w3.org/1999/xlink" width="630px" height="px" viewBox="0 0 629 178" version="1.1">
<g id="surface1">
<path style=" stroke:none;fill-rule:nonzero;fill:rgb(88.627451%,43.921569%,13.333333%);fill-opacity:1;" d="M 114.773438 82.480469 L 82.695312 82.480469 C 64.734375 82.480469 50.121094 67.859375 50.121094 49.890625 C 50.121094 31.917969 64.734375 17.296875 82.695312 17.296875 L 114.773438 17.296875 C 116.15625 17.296875 117.28125 18.421875 117.28125 19.804688 C 117.28125 21.191406 116.15625 22.3125 114.773438 22.3125 L 82.695312 22.3125 C 67.5 22.3125 55.132812 34.683594 55.132812 49.890625 C 55.132812 65.09375 67.5 77.46875 82.695312 77.46875 L 114.773438 77.46875 C 116.15625 77.46875 117.28125 78.589844 117.28125 79.976562 C 117.28125 81.359375 116.15625 82.480469 114.773438 82.480469 Z M 114.773438 82.480469 "/>
<path style=" stroke:none;fill-rule:nonzero;fill:rgb(0%,0%,0%);fill-opacity:1;" d="M 82.695312 59.167969 C 77.582031 59.167969 73.425781 55.003906 73.425781 49.890625 C 73.425781 44.777344 77.585938 40.613281 82.695312 40.613281 C 87.808594 40.613281 91.96875 44.777344 91.96875 49.890625 C 91.96875 55.003906 87.8125 59.167969 82.695312 59.167969 Z M 82.695312 43.121094 C 78.964844 43.121094 75.929688 46.15625 75.929688 49.890625 C 75.929688 53.625 78.964844 56.660156 82.695312 56.660156 C 86.429688 56.660156 89.464844 53.625 89.464844 49.890625 C 89.464844 46.15625 86.429688 43.121094 82.695312 43.121094 Z M 82.695312 43.121094 "/>
<path style=" stroke:none;fill-rule:nonzero;fill:rgb(0%,0%,0%);fill-opacity:1;" d="M 305.226562 59.167969 C 300.117188 59.167969 295.957031 55.003906 295.957031 49.890625 C 295.957031 44.777344 300.117188 40.613281 305.226562 40.613281 C 310.34375 40.613281 314.5 44.777344 314.5 49.890625 C 314.5 55.003906 310.339844 59.167969 305.226562 59.167969 Z M 305.226562 43.121094 C 301.496094 43.121094 298.460938 46.15625 298.460938 49.890625 C 298.460938 53.625 301.496094 56.660156 305.226562 56.660156 C 308.960938 56.660156 311.992188 53.625 311.992188 49.890625 C 311.992188 46.15625 308.960938 43.121094 305.226562 43.121094 Z M 305.226562 43.121094 "/>
<path style=" stroke:none;fill-rule:nonzero;fill:rgb(88.627451%,43.921569%,13.333333%);fill-opacity:1;" d="M 275.15625 84.238281 C 273.773438 84.238281 272.648438 83.113281 272.648438 81.730469 L 272.648438 49.890625 C 272.648438 31.917969 287.265625 17.296875 305.226562 17.296875 L 335.300781 17.296875 C 336.683594 17.296875 337.804688 18.421875 337.804688 19.804688 C 337.804688 21.191406 336.683594 22.3125 335.300781 22.3125 L 305.226562 22.3125 C 290.027344 22.3125 277.664062 34.683594 277.664062 49.890625 L 277.664062 81.730469 C 277.664062 83.113281 276.539062 84.238281 275.15625 84.238281 Z M 275.15625 84.238281 "/>
<path style=" stroke:none;fill-rule:nonzero;fill:rgb(0%,0%,0%);fill-opacity:1;" d="M 490.671875 81.226562 C 489.976562 81.226562 489.417969 80.667969 489.417969 79.976562 L 489.417969 49.890625 C 489.417969 32.734375 503.460938 18.5625 520.722656 18.300781 L 552.808594 18.050781 C 552.8125 18.050781 552.816406 18.050781 552.816406 18.050781 C 553.503906 18.050781 554.066406 18.605469 554.070312 19.292969 C 554.078125 19.984375 553.519531 20.550781 552.828125 20.558594 L 520.75 20.8125 C 504.859375 21.050781 491.921875 34.097656 491.921875 49.890625 L 491.921875 79.976562 C 491.921875 80.667969 491.363281 81.226562 490.671875 81.226562 Z M 490.671875 81.226562 "/>
<path style=" stroke:none;fill-rule:nonzero;fill:rgb(88.627451%,43.921569%,13.333333%);fill-opacity:1;" d="M 520.742188 59.917969 C 514.9375 59.917969 510.214844 55.195312 510.214844 49.390625 C 510.214844 43.582031 514.9375 38.859375 520.742188 38.859375 C 526.546875 38.859375 531.265625 43.582031 531.265625 49.390625 C 531.265625 55.195312 526.546875 59.917969 520.742188 59.917969 Z M 520.742188 43.875 C 517.703125 43.875 515.230469 46.347656 515.230469 49.390625 C 515.230469 52.429688 517.703125 54.902344 520.742188 54.902344 C 523.78125 54.902344 526.253906 52.429688 526.253906 49.390625 C 526.253906 46.347656 523.78125 43.875 520.742188 43.875 Z M 520.742188 43.875 "/>
<path style=" stroke:none;fill-rule:nonzero;fill:rgb(0%,0%,0%);fill-opacity:1;" d="M 490.671875 81.730469 C 489.976562 81.730469 489.417969 81.167969 489.417969 80.476562 L 489.417969 49.890625 C 489.417969 32.734375 503.460938 18.5625 520.722656 18.300781 L 552.808594 18.050781 C 552.8125 18.050781 552.816406 18.050781 552.816406 18.050781 C 553.503906 18.050781 554.066406 18.605469 554.070312 19.292969 C 554.078125 19.984375 553.519531 20.550781 552.828125 20.558594 L 520.75 20.8125 C 504.859375 21.050781 491.921875 34.097656 491.921875 49.890625 L 491.921875 80.476562 C 491.921875 81.167969 491.363281 81.730469 490.671875 81.730469 Z M 490.671875 81.730469 "/>
<path style=" stroke:none;fill-rule:nonzero;fill:rgb(0%,0%,0%);fill-opacity:1;" d="M 545.800781 81.226562 C 545.109375 81.226562 544.546875 80.667969 544.546875 79.976562 L 544.546875 76.964844 C 544.546875 75.035156 546.375 73.207031 548.308594 73.207031 L 552.816406 73.207031 C 553.511719 73.207031 554.070312 73.765625 554.070312 74.460938 C 554.070312 75.152344 553.511719 75.710938 552.816406 75.710938 L 548.308594 75.710938 C 547.742188 75.710938 547.054688 76.40625 547.054688 76.964844 L 547.054688 79.976562 C 547.054688 80.667969 546.492188 81.226562 545.800781 81.226562 Z M 545.800781 81.226562 "/>
<path style=" stroke:none;fill-rule:nonzero;fill:rgb(88.627451%,43.921569%,13.333333%);fill-opacity:1;" d="M 552.566406 51.894531 L 528.761719 51.894531 C 527.375 51.894531 526.253906 50.773438 526.253906 49.390625 C 526.253906 48.003906 527.375 46.882812 528.761719 46.882812 L 552.566406 46.882812 C 553.953125 46.882812 555.074219 48.003906 555.074219 49.390625 C 555.074219 50.773438 553.953125 51.894531 552.566406 51.894531 Z M 552.566406 51.894531 "/>
<path style=" stroke:none;fill-rule:nonzero;fill:rgb(88.627451%,43.921569%,13.333333%);fill-opacity:1;" d="M 520.742188 82.480469 C 519.355469 82.480469 518.234375 81.359375 518.234375 79.976562 L 518.234375 57.660156 C 518.234375 56.277344 519.355469 55.15625 520.742188 55.15625 C 522.128906 55.15625 523.246094 56.277344 523.246094 57.660156 L 523.246094 79.976562 C 523.246094 81.359375 522.128906 82.480469 520.742188 82.480469 Z M 520.742188 82.480469 "/>
<path style=" stroke:none;fill-rule:nonzero;fill:rgb(0%,0%,0%);fill-opacity:1;" d="M 53.859375 130.902344 L 53.859375 123.59375 L 54.882812 123.59375 L 54.984375 124.914062 L 55.03125 124.914062 C 55.28125 124.453125 55.585938 124.089844 55.941406 123.816406 C 56.296875 123.550781 56.683594 123.410156 57.105469 123.410156 C 57.398438 123.410156 57.65625 123.464844 57.886719 123.566406 L 57.648438 124.648438 C 57.527344 124.609375 57.417969 124.578125 57.316406 124.558594 C 57.214844 124.539062 57.089844 124.527344 56.941406 124.527344 C 56.628906 124.527344 56.308594 124.652344 55.972656 124.902344 C 55.636719 125.152344 55.34375 125.585938 55.089844 126.210938 L 55.089844 130.902344 Z M 53.859375 130.902344 "/>
<path style=" stroke:none;fill-rule:nonzero;fill:rgb(0%,0%,0%);fill-opacity:1;" d="M 61.765625 131.085938 C 61.316406 131.085938 60.886719 131 60.480469 130.828125 C 60.074219 130.660156 59.71875 130.410156 59.40625 130.082031 C 59.097656 129.757812 58.847656 129.355469 58.664062 128.882812 C 58.476562 128.40625 58.382812 127.867188 58.382812 127.261719 C 58.382812 126.652344 58.476562 126.105469 58.664062 125.632812 C 58.847656 125.15625 59.097656 124.75 59.40625 124.421875 C 59.71875 124.09375 60.074219 123.839844 60.480469 123.667969 C 60.886719 123.5 61.316406 123.410156 61.765625 123.410156 C 62.21875 123.410156 62.648438 123.496094 63.054688 123.667969 C 63.457031 123.835938 63.816406 124.089844 64.128906 124.421875 C 64.4375 124.753906 64.6875 125.15625 64.871094 125.632812 C 65.058594 126.105469 65.148438 126.652344 65.148438 127.261719 C 65.148438 127.863281 65.058594 128.402344 64.871094 128.882812 C 64.6875 129.355469 64.4375 129.757812 64.128906 130.082031 C 63.816406 130.40625 63.457031 130.65625 63.054688 130.828125 C 62.648438 130.996094 62.21875 131.085938 61.765625 131.085938 Z M 61.765625 130.058594 C 62.078125 130.058594 62.363281 129.992188 62.625 129.855469 C 62.886719 129.722656 63.109375 129.53125 63.292969 129.285156 C 63.480469 129.039062 63.621094 128.746094 63.722656 128.402344 C 63.820312 128.0625 63.871094 127.679688 63.871094 127.261719 C 63.871094 126.839844 63.820312 126.457031 63.722656 126.109375 C 63.621094 125.761719 63.480469 125.464844 63.292969 125.214844 C 63.109375 124.964844 62.886719 124.769531 62.625 124.636719 C 62.363281 124.503906 62.078125 124.433594 61.765625 124.433594 C 61.457031 124.433594 61.171875 124.503906 60.910156 124.636719 C 60.648438 124.773438 60.425781 124.964844 60.242188 125.214844 C 60.054688 125.46875 59.914062 125.765625 59.8125 126.109375 C 59.710938 126.457031 59.664062 126.839844 59.664062 127.261719 C 59.664062 127.679688 59.710938 128.0625 59.8125 128.402344 C 59.914062 128.746094 60.054688 129.039062 60.242188 129.285156 C 60.425781 129.53125 60.648438 129.722656 60.910156 129.855469 C 61.171875 129.992188 61.457031 130.058594 61.765625 130.058594 Z M 61.765625 130.058594 "/>
<path style=" stroke:none;fill-rule:nonzero;fill:rgb(0%,0%,0%);fill-opacity:1;" d="M 69.210938 131.085938 C 68.429688 131.085938 67.859375 130.84375 67.503906 130.363281 C 67.148438 129.882812 66.96875 129.167969 66.96875 128.226562 L 66.96875 123.59375 L 68.21875 123.59375 L 68.21875 128.058594 C 68.21875 128.75 68.324219 129.25 68.539062 129.554688 C 68.757812 129.863281 69.105469 130.019531 69.585938 130.019531 C 69.96875 130.019531 70.300781 129.921875 70.59375 129.722656 C 70.882812 129.527344 71.203125 129.214844 71.554688 128.785156 L 71.554688 123.59375 L 72.789062 123.59375 L 72.789062 130.90625 L 71.765625 130.90625 L 71.660156 129.761719 L 71.617188 129.761719 C 71.273438 130.164062 70.917969 130.484375 70.539062 130.726562 C 70.164062 130.964844 69.722656 131.085938 69.210938 131.085938 Z M 69.210938 131.085938 "/>
<path style=" stroke:none;fill-rule:nonzero;fill:rgb(0%,0%,0%);fill-opacity:1;" d="M 75.253906 130.902344 L 75.253906 123.59375 L 76.277344 123.59375 L 76.382812 124.644531 L 76.425781 124.644531 C 76.777344 124.292969 77.144531 124 77.53125 123.765625 C 77.917969 123.527344 78.367188 123.410156 78.878906 123.410156 C 79.648438 123.410156 80.214844 123.652344 80.570312 124.132812 C 80.925781 124.613281 81.101562 125.328125 81.101562 126.269531 L 81.101562 130.902344 L 79.871094 130.902344 L 79.871094 126.433594 C 79.871094 125.746094 79.761719 125.246094 79.539062 124.9375 C 79.320312 124.632812 78.96875 124.480469 78.488281 124.480469 C 78.105469 124.480469 77.769531 124.574219 77.480469 124.761719 C 77.1875 124.953125 76.859375 125.234375 76.488281 125.605469 L 76.488281 130.898438 L 75.253906 130.898438 Z M 75.253906 130.902344 "/>
<path style=" stroke:none;fill-rule:nonzero;fill:rgb(0%,0%,0%);fill-opacity:1;" d="M 85.976562 131.085938 C 85.054688 131.085938 84.320312 130.753906 83.773438 130.09375 C 83.226562 129.429688 82.953125 128.488281 82.953125 127.265625 C 82.953125 126.675781 83.039062 126.140625 83.214844 125.664062 C 83.390625 125.1875 83.625 124.78125 83.914062 124.453125 C 84.207031 124.121094 84.542969 123.867188 84.921875 123.683594 C 85.304688 123.5 85.703125 123.414062 86.125 123.414062 C 86.546875 123.414062 86.914062 123.488281 87.222656 123.640625 C 87.535156 123.792969 87.847656 124 88.171875 124.257812 L 88.109375 123.007812 L 88.109375 120.195312 L 89.359375 120.195312 L 89.359375 130.90625 L 88.335938 130.90625 L 88.230469 130.046875 L 88.183594 130.046875 C 87.894531 130.328125 87.5625 130.570312 87.183594 130.777344 C 86.808594 130.984375 86.40625 131.085938 85.976562 131.085938 Z M 86.246094 130.046875 C 86.585938 130.046875 86.90625 129.964844 87.207031 129.796875 C 87.507812 129.632812 87.808594 129.378906 88.109375 129.039062 L 88.109375 125.21875 C 87.800781 124.9375 87.5 124.742188 87.214844 124.625 C 86.929688 124.507812 86.636719 124.453125 86.335938 124.453125 C 86.046875 124.453125 85.773438 124.519531 85.515625 124.65625 C 85.261719 124.789062 85.039062 124.980469 84.847656 125.230469 C 84.65625 125.476562 84.507812 125.769531 84.394531 126.109375 C 84.285156 126.449219 84.230469 126.832031 84.230469 127.253906 C 84.230469 128.136719 84.40625 128.820312 84.757812 129.3125 C 85.109375 129.800781 85.605469 130.046875 86.246094 130.046875 Z M 86.246094 130.046875 "/>
<path style=" stroke:none;fill-rule:nonzero;fill:rgb(0%,0%,0%);fill-opacity:1;" d="M 97.71875 131.085938 C 97.238281 131.085938 96.785156 131 96.363281 130.828125 C 95.945312 130.660156 95.582031 130.410156 95.273438 130.082031 C 94.96875 129.757812 94.726562 129.355469 94.554688 128.882812 C 94.378906 128.40625 94.289062 127.867188 94.289062 127.261719 C 94.289062 126.652344 94.386719 126.105469 94.574219 125.632812 C 94.765625 125.15625 95.023438 124.75 95.34375 124.421875 C 95.664062 124.09375 96.035156 123.839844 96.460938 123.667969 C 96.886719 123.5 97.335938 123.410156 97.808594 123.410156 C 98.289062 123.410156 98.699219 123.496094 99.042969 123.667969 C 99.382812 123.835938 99.683594 124.039062 99.941406 124.269531 L 99.3125 125.082031 C 99.101562 124.894531 98.878906 124.734375 98.644531 124.613281 C 98.40625 124.496094 98.144531 124.433594 97.851562 124.433594 C 97.523438 124.433594 97.21875 124.503906 96.9375 124.636719 C 96.65625 124.773438 96.414062 124.964844 96.214844 125.214844 C 96.015625 125.46875 95.855469 125.765625 95.742188 126.109375 C 95.625 126.453125 95.566406 126.839844 95.566406 127.261719 C 95.566406 127.679688 95.621094 128.0625 95.734375 128.402344 C 95.84375 128.746094 95.996094 129.039062 96.191406 129.285156 C 96.386719 129.53125 96.625 129.722656 96.90625 129.855469 C 97.1875 129.992188 97.492188 130.058594 97.824219 130.058594 C 98.164062 130.058594 98.476562 129.988281 98.761719 129.84375 C 99.046875 129.695312 99.308594 129.523438 99.539062 129.324219 L 100.078125 130.152344 C 99.746094 130.441406 99.382812 130.667969 98.980469 130.832031 C 98.578125 131 98.15625 131.085938 97.71875 131.085938 Z M 97.71875 131.085938 "/>
<path style=" stroke:none;fill-rule:nonzero;fill:rgb(0%,0%,0%);fill-opacity:1;" d="M 103.222656 131.085938 C 102.609375 131.085938 102.101562 130.90625 101.695312 130.542969 C 101.289062 130.179688 101.085938 129.667969 101.085938 129.011719 C 101.085938 128.207031 101.441406 127.59375 102.152344 127.167969 C 102.867188 126.742188 104.003906 126.441406 105.566406 126.273438 C 105.566406 126.042969 105.542969 125.816406 105.5 125.59375 C 105.453125 125.375 105.375 125.179688 105.265625 125.011719 C 105.15625 124.839844 105.003906 124.703125 104.808594 124.597656 C 104.613281 124.492188 104.363281 124.441406 104.0625 124.441406 C 103.640625 124.441406 103.246094 124.519531 102.875 124.679688 C 102.503906 124.839844 102.171875 125.023438 101.882812 125.222656 L 101.402344 124.363281 C 101.742188 124.144531 102.160156 123.929688 102.648438 123.726562 C 103.140625 123.519531 103.683594 123.417969 104.273438 123.417969 C 105.164062 123.417969 105.8125 123.691406 106.214844 124.238281 C 106.613281 124.78125 106.816406 125.511719 106.816406 126.425781 L 106.816406 130.90625 L 105.792969 130.90625 L 105.6875 130.035156 L 105.640625 130.035156 C 105.292969 130.324219 104.914062 130.574219 104.515625 130.78125 C 104.113281 130.984375 103.683594 131.085938 103.222656 131.085938 Z M 103.582031 130.089844 C 103.933594 130.089844 104.261719 130.007812 104.574219 129.84375 C 104.886719 129.675781 105.214844 129.433594 105.566406 129.113281 L 105.566406 127.082031 C 104.957031 127.164062 104.441406 127.257812 104.027344 127.367188 C 103.609375 127.476562 103.273438 127.609375 103.019531 127.757812 C 102.761719 127.910156 102.578125 128.082031 102.460938 128.277344 C 102.347656 128.472656 102.289062 128.6875 102.289062 128.917969 C 102.289062 129.339844 102.414062 129.640625 102.664062 129.820312 C 102.914062 130 103.222656 130.089844 103.582031 130.089844 Z M 103.582031 130.089844 "/>
<path style=" stroke:none;fill-rule:nonzero;fill:rgb(0%,0%,0%);fill-opacity:1;" d="M 109.113281 133.988281 L 109.113281 123.59375 L 110.136719 123.59375 L 110.242188 124.4375 L 110.289062 124.4375 C 110.617188 124.15625 110.980469 123.914062 111.378906 123.714844 C 111.773438 123.515625 112.1875 123.414062 112.617188 123.414062 C 113.089844 123.414062 113.503906 123.5 113.867188 123.675781 C 114.226562 123.851562 114.527344 124.105469 114.769531 124.429688 C 115.007812 124.753906 115.191406 125.148438 115.316406 125.601562 C 115.441406 126.0625 115.503906 126.574219 115.503906 127.144531 C 115.503906 127.765625 115.421875 128.320312 115.25 128.808594 C 115.078125 129.292969 114.847656 129.707031 114.558594 130.046875 C 114.265625 130.390625 113.933594 130.648438 113.550781 130.824219 C 113.167969 130.996094 112.769531 131.085938 112.347656 131.085938 C 112.007812 131.085938 111.667969 131.011719 111.332031 130.859375 C 110.996094 130.707031 110.660156 130.5 110.316406 130.242188 L 110.347656 131.523438 L 110.347656 133.988281 Z M 112.136719 130.046875 C 112.4375 130.046875 112.714844 129.980469 112.972656 129.84375 C 113.226562 129.710938 113.449219 129.519531 113.632812 129.269531 C 113.820312 129.023438 113.964844 128.722656 114.070312 128.363281 C 114.175781 128 114.226562 127.59375 114.226562 127.144531 C 114.226562 126.742188 114.191406 126.378906 114.121094 126.046875 C 114.050781 125.714844 113.9375 125.433594 113.785156 125.195312 C 113.628906 124.960938 113.429688 124.777344 113.183594 124.648438 C 112.9375 124.515625 112.644531 124.453125 112.304688 124.453125 C 111.992188 124.453125 111.679688 124.539062 111.363281 124.710938 C 111.046875 124.878906 110.710938 125.125 110.347656 125.449219 L 110.347656 129.28125 C 110.679688 129.5625 111 129.757812 111.308594 129.875 C 111.621094 129.988281 111.898438 130.046875 112.136719 130.046875 Z M 112.136719 130.046875 "/>
<path style=" stroke:none;fill-rule:nonzero;fill:rgb(0%,0%,0%);fill-opacity:1;" d="M 119.371094 131.085938 C 118.847656 131.085938 118.351562 130.992188 117.882812 130.800781 C 117.410156 130.609375 117 130.367188 116.648438 130.074219 L 117.265625 129.25 C 117.585938 129.507812 117.914062 129.71875 118.25 129.878906 C 118.585938 130.039062 118.972656 130.121094 119.414062 130.121094 C 119.894531 130.121094 120.257812 130.011719 120.496094 129.789062 C 120.738281 129.570312 120.859375 129.300781 120.859375 128.980469 C 120.859375 128.789062 120.808594 128.621094 120.707031 128.484375 C 120.609375 128.34375 120.480469 128.21875 120.324219 128.113281 C 120.167969 128.007812 119.992188 127.917969 119.789062 127.839844 C 119.589844 127.757812 119.390625 127.679688 119.1875 127.597656 C 118.929688 127.503906 118.667969 127.40625 118.40625 127.289062 C 118.148438 127.171875 117.914062 127.03125 117.707031 126.867188 C 117.503906 126.703125 117.335938 126.507812 117.203125 126.289062 C 117.074219 126.070312 117.007812 125.804688 117.007812 125.492188 C 117.007812 125.203125 117.066406 124.929688 117.183594 124.671875 C 117.296875 124.417969 117.460938 124.199219 117.679688 124.011719 C 117.894531 123.824219 118.15625 123.679688 118.46875 123.574219 C 118.777344 123.46875 119.128906 123.417969 119.519531 123.417969 C 119.980469 123.417969 120.40625 123.496094 120.789062 123.660156 C 121.175781 123.816406 121.511719 124.015625 121.789062 124.242188 L 121.203125 125.027344 C 120.953125 124.835938 120.691406 124.675781 120.421875 124.558594 C 120.152344 124.4375 119.855469 124.378906 119.535156 124.378906 C 119.074219 124.378906 118.734375 124.484375 118.519531 124.695312 C 118.304688 124.90625 118.195312 125.152344 118.195312 125.433594 C 118.195312 125.601562 118.242188 125.75 118.332031 125.875 C 118.421875 126 118.542969 126.113281 118.691406 126.207031 C 118.84375 126.300781 119.015625 126.386719 119.210938 126.460938 C 119.40625 126.539062 119.609375 126.617188 119.820312 126.699219 C 120.082031 126.796875 120.34375 126.902344 120.609375 127.015625 C 120.875 127.125 121.113281 127.261719 121.324219 127.429688 C 121.535156 127.589844 121.707031 127.792969 121.84375 128.035156 C 121.976562 128.277344 122.046875 128.570312 122.046875 128.910156 C 122.046875 129.210938 121.988281 129.488281 121.875 129.753906 C 121.757812 130.011719 121.585938 130.242188 121.363281 130.445312 C 121.136719 130.644531 120.855469 130.800781 120.519531 130.914062 C 120.183594 131.027344 119.800781 131.085938 119.371094 131.085938 Z M 119.371094 131.085938 "/>
<path style=" stroke:none;fill-rule:nonzero;fill:rgb(0%,0%,0%);fill-opacity:1;" d="M 268.539062 130.902344 L 268.539062 123.59375 L 269.5625 123.59375 L 269.667969 124.914062 L 269.714844 124.914062 C 269.964844 124.453125 270.265625 124.089844 270.621094 123.816406 C 270.980469 123.550781 271.367188 123.410156 271.789062 123.410156 C 272.078125 123.410156 272.339844 123.464844 272.570312 123.566406 L 272.328125 124.648438 C 272.210938 124.609375 272.097656 124.578125 272 124.558594 C 271.898438 124.539062 271.773438 124.527344 271.621094 124.527344 C 271.3125 124.527344 270.988281 124.652344 270.652344 124.902344 C 270.316406 125.152344 270.023438 125.585938 269.773438 126.210938 L 269.773438 130.902344 Z M 268.539062 130.902344 "/>
<path style=" stroke:none;fill-rule:nonzero;fill:rgb(0%,0%,0%);fill-opacity:1;" d="M 276.449219 131.085938 C 276 131.085938 275.570312 131 275.164062 130.828125 C 274.757812 130.660156 274.398438 130.410156 274.089844 130.082031 C 273.777344 129.757812 273.53125 129.355469 273.34375 128.882812 C 273.160156 128.40625 273.066406 127.867188 273.066406 127.261719 C 273.066406 126.652344 273.160156 126.105469 273.34375 125.632812 C 273.53125 125.15625 273.777344 124.75 274.089844 124.421875 C 274.398438 124.09375 274.757812 123.839844 275.164062 123.667969 C 275.570312 123.5 276 123.410156 276.449219 123.410156 C 276.898438 123.410156 277.328125 123.496094 277.734375 123.667969 C 278.140625 123.835938 278.5 124.089844 278.808594 124.421875 C 279.121094 124.753906 279.367188 125.15625 279.554688 125.632812 C 279.738281 126.105469 279.832031 126.652344 279.832031 127.261719 C 279.832031 127.863281 279.738281 128.402344 279.554688 128.882812 C 279.367188 129.355469 279.121094 129.757812 278.808594 130.082031 C 278.5 130.40625 278.140625 130.65625 277.734375 130.828125 C 277.328125 130.996094 276.898438 131.085938 276.449219 131.085938 Z M 276.449219 130.058594 C 276.761719 130.058594 277.046875 129.992188 277.304688 129.855469 C 277.566406 129.722656 277.789062 129.53125 277.976562 129.285156 C 278.160156 129.039062 278.304688 128.746094 278.402344 128.402344 C 278.503906 128.0625 278.554688 127.679688 278.554688 127.261719 C 278.554688 126.839844 278.503906 126.457031 278.402344 126.109375 C 278.304688 125.761719 278.160156 125.464844 277.976562 125.214844 C 277.789062 124.964844 277.566406 124.769531 277.304688 124.636719 C 277.046875 124.503906 276.761719 124.433594 276.449219 124.433594 C 276.136719 124.433594 275.851562 124.503906 275.59375 124.636719 C 275.332031 124.773438 275.109375 124.964844 274.921875 125.214844 C 274.738281 125.46875 274.59375 125.765625 274.496094 126.109375 C 274.394531 126.457031 274.34375 126.839844 274.34375 127.261719 C 274.34375 127.679688 274.394531 128.0625 274.496094 128.402344 C 274.59375 128.746094 274.738281 129.039062 274.921875 129.285156 C 275.109375 129.53125 275.332031 129.722656 275.59375 129.855469 C 275.851562 129.992188 276.136719 130.058594 276.449219 130.058594 Z M 276.449219 130.058594 "/>
<path style=" stroke:none;fill-rule:nonzero;fill:rgb(0%,0%,0%);fill-opacity:1;" d="M 283.890625 131.085938 C 283.109375 131.085938 282.542969 130.84375 282.183594 130.363281 C 281.828125 129.882812 281.652344 129.167969 281.652344 128.226562 L 281.652344 123.59375 L 282.898438 123.59375 L 282.898438 128.058594 C 282.898438 128.75 283.003906 129.25 283.222656 129.554688 C 283.4375 129.863281 283.785156 130.019531 284.269531 130.019531 C 284.648438 130.019531 284.984375 129.921875 285.273438 129.722656 C 285.566406 129.527344 285.886719 129.214844 286.238281 128.785156 L 286.238281 123.59375 L 287.46875 123.59375 L 287.46875 130.90625 L 286.449219 130.90625 L 286.34375 129.761719 L 286.296875 129.761719 C 285.957031 130.164062 285.597656 130.484375 285.222656 130.726562 C 284.847656 130.964844 284.402344 131.085938 283.890625 131.085938 Z M 283.890625 131.085938 "/>
<path style=" stroke:none;fill-rule:nonzero;fill:rgb(0%,0%,0%);fill-opacity:1;" d="M 289.9375 130.902344 L 289.9375 123.59375 L 290.957031 123.59375 L 291.0625 124.644531 L 291.109375 124.644531 C 291.460938 124.292969 291.828125 124 292.214844 123.765625 C 292.601562 123.527344 293.050781 123.410156 293.558594 123.410156 C 294.332031 123.410156 294.894531 123.652344 295.25 124.132812 C 295.609375 124.613281 295.785156 125.328125 295.785156 126.269531 L 295.785156 130.902344 L 294.550781 130.902344 L 294.550781 126.433594 C 294.550781 125.746094 294.441406 125.246094 294.222656 124.9375 C 294 124.632812 293.648438 124.480469 293.167969 124.480469 C 292.789062 124.480469 292.453125 124.574219 292.160156 124.761719 C 291.871094 124.953125 291.539062 125.234375 291.167969 125.605469 L 291.167969 130.898438 L 289.9375 130.898438 Z M 289.9375 130.902344 "/>
<path style=" stroke:none;fill-rule:nonzero;fill:rgb(0%,0%,0%);fill-opacity:1;" d="M 300.65625 131.085938 C 299.734375 131.085938 299 130.753906 298.453125 130.09375 C 297.90625 129.429688 297.636719 128.488281 297.636719 127.265625 C 297.636719 126.675781 297.722656 126.140625 297.898438 125.664062 C 298.074219 125.1875 298.304688 124.78125 298.597656 124.453125 C 298.886719 124.121094 299.222656 123.867188 299.605469 123.683594 C 299.984375 123.5 300.386719 123.414062 300.808594 123.414062 C 301.226562 123.414062 301.59375 123.488281 301.90625 123.640625 C 302.214844 123.792969 302.53125 124 302.851562 124.257812 L 302.792969 123.007812 L 302.792969 120.195312 L 304.039062 120.195312 L 304.039062 130.90625 L 303.019531 130.90625 L 302.914062 130.046875 L 302.867188 130.046875 C 302.578125 130.328125 302.242188 130.570312 301.867188 130.777344 C 301.492188 130.984375 301.089844 131.085938 300.65625 131.085938 Z M 300.925781 130.046875 C 301.269531 130.046875 301.589844 129.964844 301.890625 129.796875 C 302.191406 129.632812 302.492188 129.378906 302.792969 129.039062 L 302.792969 125.21875 C 302.480469 124.9375 302.183594 124.742188 301.898438 124.625 C 301.613281 124.507812 301.320312 124.453125 301.019531 124.453125 C 300.726562 124.453125 300.453125 124.519531 300.199219 124.65625 C 299.941406 124.789062 299.71875 124.980469 299.53125 125.230469 C 299.339844 125.476562 299.1875 125.769531 299.078125 126.109375 C 298.96875 126.449219 298.914062 126.832031 298.914062 127.253906 C 298.914062 128.136719 299.089844 128.820312 299.4375 129.3125 C 299.789062 129.800781 300.285156 130.046875 300.925781 130.046875 Z M 300.925781 130.046875 "/>
<path style=" stroke:none;fill-rule:nonzero;fill:rgb(0%,0%,0%);fill-opacity:1;" d="M 312.472656 131.085938 C 311.980469 131.085938 311.523438 130.996094 311.097656 130.824219 C 310.671875 130.648438 310.300781 130.394531 309.984375 130.070312 C 309.667969 129.746094 309.421875 129.347656 309.238281 128.875 C 309.058594 128.402344 308.96875 127.867188 308.96875 127.261719 C 308.96875 126.660156 309.0625 126.121094 309.246094 125.644531 C 309.433594 125.167969 309.679688 124.761719 309.984375 124.433594 C 310.289062 124.105469 310.636719 123.851562 311.027344 123.675781 C 311.421875 123.5 311.824219 123.410156 312.246094 123.410156 C 312.707031 123.410156 313.121094 123.492188 313.488281 123.65625 C 313.851562 123.8125 314.160156 124.042969 314.40625 124.34375 C 314.648438 124.644531 314.839844 125.007812 314.96875 125.429688 C 315.097656 125.851562 315.164062 126.320312 315.164062 126.839844 C 315.164062 126.972656 315.160156 127.101562 315.15625 127.226562 C 315.152344 127.347656 315.140625 127.457031 315.117188 127.546875 L 310.1875 127.546875 C 310.238281 128.332031 310.480469 128.949219 310.917969 129.40625 C 311.351562 129.863281 311.921875 130.089844 312.621094 130.089844 C 312.972656 130.089844 313.296875 130.035156 313.59375 129.933594 C 313.886719 129.828125 314.171875 129.6875 314.441406 129.519531 L 314.878906 130.332031 C 314.558594 130.53125 314.203125 130.703125 313.8125 130.859375 C 313.421875 131.007812 312.976562 131.085938 312.472656 131.085938 Z M 310.171875 126.660156 L 314.082031 126.660156 C 314.082031 125.917969 313.921875 125.355469 313.609375 124.96875 C 313.292969 124.585938 312.847656 124.390625 312.277344 124.390625 C 312.015625 124.390625 311.769531 124.441406 311.53125 124.542969 C 311.296875 124.644531 311.085938 124.789062 310.894531 124.984375 C 310.703125 125.179688 310.546875 125.421875 310.421875 125.699219 C 310.296875 125.980469 310.214844 126.300781 310.171875 126.660156 Z M 310.171875 126.660156 "/>
<path style=" stroke:none;fill-rule:nonzero;fill:rgb(0%,0%,0%);fill-opacity:1;" d="M 319.464844 131.085938 C 318.542969 131.085938 317.808594 130.753906 317.261719 130.09375 C 316.714844 129.429688 316.441406 128.488281 316.441406 127.265625 C 316.441406 126.675781 316.53125 126.140625 316.707031 125.664062 C 316.878906 125.1875 317.109375 124.78125 317.40625 124.453125 C 317.691406 124.121094 318.03125 123.867188 318.410156 123.683594 C 318.789062 123.5 319.191406 123.414062 319.609375 123.414062 C 320.027344 123.414062 320.398438 123.488281 320.707031 123.640625 C 321.019531 123.792969 321.332031 124 321.65625 124.257812 L 321.597656 123.007812 L 321.597656 120.195312 L 322.84375 120.195312 L 322.84375 130.90625 L 321.824219 130.90625 L 321.71875 130.046875 L 321.667969 130.046875 C 321.382812 130.328125 321.046875 130.570312 320.671875 130.777344 C 320.296875 130.984375 319.898438 131.085938 319.464844 131.085938 Z M 319.738281 130.046875 C 320.078125 130.046875 320.398438 129.964844 320.699219 129.796875 C 321 129.632812 321.300781 129.378906 321.601562 129.039062 L 321.601562 125.21875 C 321.289062 124.9375 320.992188 124.742188 320.707031 124.625 C 320.425781 124.507812 320.132812 124.453125 319.824219 124.453125 C 319.535156 124.453125 319.261719 124.519531 319.007812 124.65625 C 318.753906 124.789062 318.53125 124.980469 318.335938 125.230469 C 318.144531 125.476562 317.996094 125.769531 317.886719 126.109375 C 317.773438 126.449219 317.71875 126.832031 317.71875 127.253906 C 317.71875 128.136719 317.894531 128.820312 318.25 129.3125 C 318.601562 129.800781 319.097656 130.046875 319.738281 130.046875 Z M 319.738281 130.046875 "/>
<path style=" stroke:none;fill-rule:nonzero;fill:rgb(0%,0%,0%);fill-opacity:1;" d="M 327.78125 134.273438 C 327.328125 134.273438 326.917969 134.230469 326.546875 134.144531 C 326.179688 134.058594 325.863281 133.929688 325.59375 133.761719 C 325.328125 133.59375 325.121094 133.386719 324.976562 133.144531 C 324.832031 132.902344 324.757812 132.621094 324.757812 132.300781 C 324.757812 131.992188 324.855469 131.699219 325.042969 131.414062 C 325.234375 131.132812 325.496094 130.878906 325.824219 130.648438 L 325.824219 130.585938 C 325.644531 130.476562 325.492188 130.324219 325.367188 130.128906 C 325.242188 129.933594 325.179688 129.6875 325.179688 129.398438 C 325.179688 129.085938 325.261719 128.816406 325.433594 128.585938 C 325.605469 128.355469 325.785156 128.175781 325.976562 128.042969 L 325.976562 127.984375 C 325.738281 127.785156 325.515625 127.515625 325.320312 127.179688 C 325.125 126.84375 325.027344 126.457031 325.027344 126.015625 C 325.027344 125.613281 325.101562 125.25 325.25 124.929688 C 325.394531 124.609375 325.589844 124.335938 325.839844 124.109375 C 326.085938 123.886719 326.382812 123.710938 326.722656 123.59375 C 327.058594 123.472656 327.410156 123.410156 327.78125 123.410156 C 327.980469 123.410156 328.171875 123.429688 328.347656 123.464844 C 328.519531 123.5 328.679688 123.542969 328.820312 123.59375 L 331.359375 123.59375 L 331.359375 124.539062 L 329.855469 124.539062 C 330.023438 124.710938 330.167969 124.925781 330.285156 125.1875 C 330.402344 125.449219 330.457031 125.734375 330.457031 126.042969 C 330.457031 126.433594 330.386719 126.792969 330.246094 127.105469 C 330.105469 127.421875 329.917969 127.6875 329.671875 127.902344 C 329.433594 128.117188 329.148438 128.285156 328.824219 128.40625 C 328.5 128.527344 328.148438 128.585938 327.777344 128.585938 C 327.597656 128.585938 327.414062 128.5625 327.222656 128.519531 C 327.03125 128.472656 326.851562 128.410156 326.679688 128.332031 C 326.546875 128.441406 326.4375 128.566406 326.347656 128.699219 C 326.257812 128.832031 326.214844 129.003906 326.214844 129.203125 C 326.214844 129.433594 326.304688 129.625 326.480469 129.773438 C 326.660156 129.925781 327.003906 130 327.503906 130 L 328.917969 130 C 329.769531 130 330.40625 130.140625 330.832031 130.414062 C 331.261719 130.691406 331.472656 131.132812 331.472656 131.746094 C 331.472656 132.085938 331.390625 132.410156 331.21875 132.714844 C 331.042969 133.019531 330.800781 133.289062 330.480469 133.519531 C 330.160156 133.75 329.769531 133.933594 329.3125 134.070312 C 328.863281 134.207031 328.351562 134.273438 327.78125 134.273438 Z M 327.960938 133.414062 C 328.3125 133.414062 328.632812 133.371094 328.917969 133.285156 C 329.203125 133.203125 329.445312 133.089844 329.644531 132.957031 C 329.84375 132.816406 330.003906 132.664062 330.113281 132.480469 C 330.222656 132.300781 330.277344 132.117188 330.277344 131.925781 C 330.277344 131.582031 330.152344 131.347656 329.902344 131.21875 C 329.652344 131.089844 329.289062 131.023438 328.804688 131.023438 L 327.542969 131.023438 C 327.402344 131.023438 327.25 131.015625 327.082031 131 C 326.917969 130.984375 326.753906 130.949219 326.597656 130.902344 C 326.335938 131.09375 326.144531 131.292969 326.023438 131.503906 C 325.902344 131.714844 325.84375 131.925781 325.84375 132.136719 C 325.84375 132.527344 326.03125 132.835938 326.40625 133.070312 C 326.777344 133.300781 327.296875 133.414062 327.960938 133.414062 Z M 327.78125 127.757812 C 327.992188 127.757812 328.191406 127.71875 328.375 127.636719 C 328.5625 127.558594 328.726562 127.441406 328.871094 127.289062 C 329.015625 127.140625 329.128906 126.957031 329.207031 126.742188 C 329.289062 126.527344 329.332031 126.28125 329.332031 126.011719 C 329.332031 125.46875 329.175781 125.050781 328.878906 124.753906 C 328.574219 124.460938 328.210938 124.3125 327.78125 124.3125 C 327.351562 124.3125 326.988281 124.460938 326.683594 124.753906 C 326.386719 125.050781 326.234375 125.46875 326.234375 126.011719 C 326.234375 126.28125 326.273438 126.527344 326.351562 126.742188 C 326.433594 126.957031 326.546875 127.140625 326.695312 127.289062 C 326.839844 127.441406 327.003906 127.554688 327.1875 127.636719 C 327.375 127.722656 327.570312 127.757812 327.78125 127.757812 Z M 327.78125 127.757812 "/>
<path style=" stroke:none;fill-rule:nonzero;fill:rgb(0%,0%,0%);fill-opacity:1;" d="M 335.644531 131.085938 C 335.15625 131.085938 334.695312 130.996094 334.269531 130.824219 C 333.84375 130.648438 333.472656 130.394531 333.160156 130.070312 C 332.839844 129.746094 332.59375 129.347656 332.414062 128.875 C 332.234375 128.402344 332.140625 127.867188 332.140625 127.261719 C 332.140625 126.660156 332.234375 126.121094 332.421875 125.644531 C 332.605469 125.167969 332.851562 124.761719 333.160156 124.433594 C 333.460938 124.105469 333.8125 123.851562 334.203125 123.675781 C 334.59375 123.496094 335 123.410156 335.417969 123.410156 C 335.882812 123.410156 336.296875 123.492188 336.660156 123.65625 C 337.027344 123.8125 337.335938 124.042969 337.578125 124.34375 C 337.820312 124.644531 338.011719 125.007812 338.140625 125.429688 C 338.273438 125.851562 338.335938 126.320312 338.335938 126.839844 C 338.335938 126.972656 338.335938 127.101562 338.328125 127.226562 C 338.324219 127.347656 338.3125 127.457031 338.292969 127.546875 L 333.359375 127.546875 C 333.40625 128.332031 333.652344 128.949219 334.085938 129.40625 C 334.523438 129.863281 335.089844 130.089844 335.796875 130.089844 C 336.148438 130.089844 336.46875 130.035156 336.765625 129.933594 C 337.058594 129.828125 337.34375 129.6875 337.613281 129.519531 L 338.050781 130.332031 C 337.730469 130.53125 337.371094 130.703125 336.984375 130.859375 C 336.589844 131.007812 336.148438 131.085938 335.644531 131.085938 Z M 333.34375 126.660156 L 337.257812 126.660156 C 337.257812 125.917969 337.097656 125.355469 336.78125 124.96875 C 336.46875 124.585938 336.023438 124.390625 335.453125 124.390625 C 335.191406 124.390625 334.945312 124.441406 334.707031 124.542969 C 334.472656 124.644531 334.257812 124.789062 334.070312 124.984375 C 333.878906 125.179688 333.71875 125.421875 333.597656 125.699219 C 333.464844 125.980469 333.382812 126.300781 333.34375 126.660156 Z M 333.34375 126.660156 "/>
<path style=" stroke:none;fill-rule:nonzero;fill:rgb(0%,0%,0%);fill-opacity:1;" d="M 342.050781 131.085938 C 341.527344 131.085938 341.035156 130.992188 340.5625 130.800781 C 340.089844 130.609375 339.675781 130.367188 339.328125 130.078125 L 339.945312 129.25 C 340.265625 129.511719 340.59375 129.722656 340.929688 129.882812 C 341.265625 130.042969 341.65625 130.125 342.097656 130.125 C 342.574219 130.125 342.9375 130.011719 343.179688 129.792969 C 343.417969 129.570312 343.542969 129.304688 343.542969 128.980469 C 343.542969 128.792969 343.492188 128.625 343.390625 128.484375 C 343.292969 128.34375 343.160156 128.222656 343.007812 128.117188 C 342.851562 128.011719 342.675781 127.917969 342.472656 127.839844 C 342.273438 127.761719 342.074219 127.679688 341.871094 127.597656 C 341.613281 127.507812 341.351562 127.40625 341.089844 127.289062 C 340.832031 127.175781 340.597656 127.035156 340.390625 126.867188 C 340.1875 126.707031 340.019531 126.511719 339.890625 126.292969 C 339.761719 126.074219 339.695312 125.804688 339.695312 125.496094 C 339.695312 125.203125 339.75 124.929688 339.867188 124.675781 C 339.980469 124.417969 340.144531 124.203125 340.363281 124.011719 C 340.578125 123.824219 340.839844 123.683594 341.152344 123.578125 C 341.460938 123.472656 341.816406 123.417969 342.203125 123.417969 C 342.667969 123.417969 343.089844 123.5 343.472656 123.664062 C 343.859375 123.820312 344.191406 124.019531 344.472656 124.246094 L 343.886719 125.027344 C 343.632812 124.839844 343.375 124.679688 343.105469 124.558594 C 342.835938 124.441406 342.535156 124.382812 342.21875 124.382812 C 341.753906 124.382812 341.417969 124.488281 341.203125 124.699219 C 340.988281 124.910156 340.878906 125.152344 340.878906 125.433594 C 340.878906 125.601562 340.929688 125.753906 341.019531 125.878906 C 341.105469 126.003906 341.230469 126.113281 341.378906 126.210938 C 341.53125 126.304688 341.703125 126.390625 341.898438 126.464844 C 342.09375 126.539062 342.296875 126.621094 342.507812 126.699219 C 342.765625 126.800781 343.03125 126.90625 343.292969 127.015625 C 343.558594 127.128906 343.796875 127.265625 344.007812 127.429688 C 344.21875 127.59375 344.390625 127.796875 344.527344 128.039062 C 344.664062 128.28125 344.730469 128.570312 344.730469 128.914062 C 344.730469 129.214844 344.675781 129.492188 344.558594 129.753906 C 344.445312 130.015625 344.273438 130.246094 344.046875 130.445312 C 343.824219 130.648438 343.542969 130.804688 343.207031 130.917969 C 342.863281 131.027344 342.480469 131.085938 342.050781 131.085938 Z M 342.050781 131.085938 "/>
<path style=" stroke:none;fill-rule:nonzero;fill:rgb(0%,0%,0%);fill-opacity:1;" d="M 469.8125 131.085938 C 469.332031 131.085938 468.878906 131 468.457031 130.828125 C 468.035156 130.660156 467.675781 130.410156 467.367188 130.082031 C 467.058594 129.757812 466.820312 129.355469 466.644531 128.882812 C 466.46875 128.40625 466.382812 127.867188 466.382812 127.261719 C 466.382812 126.652344 466.480469 126.105469 466.671875 125.632812 C 466.859375 125.15625 467.117188 124.75 467.433594 124.421875 C 467.757812 124.089844 468.128906 123.839844 468.554688 123.667969 C 468.980469 123.5 469.433594 123.410156 469.902344 123.410156 C 470.382812 123.410156 470.792969 123.496094 471.132812 123.667969 C 471.476562 123.835938 471.773438 124.039062 472.035156 124.269531 L 471.402344 125.082031 C 471.191406 124.894531 470.96875 124.734375 470.734375 124.613281 C 470.496094 124.496094 470.238281 124.433594 469.945312 124.433594 C 469.613281 124.433594 469.308594 124.503906 469.027344 124.636719 C 468.746094 124.773438 468.507812 124.964844 468.308594 125.214844 C 468.105469 125.46875 467.945312 125.765625 467.835938 126.109375 C 467.71875 126.457031 467.664062 126.839844 467.664062 127.261719 C 467.664062 127.679688 467.71875 128.0625 467.824219 128.402344 C 467.9375 128.746094 468.089844 129.039062 468.285156 129.285156 C 468.480469 129.53125 468.71875 129.722656 469 129.855469 C 469.277344 129.992188 469.585938 130.058594 469.914062 130.058594 C 470.257812 130.058594 470.570312 129.988281 470.855469 129.84375 C 471.140625 129.695312 471.398438 129.523438 471.632812 129.324219 L 472.171875 130.152344 C 471.84375 130.441406 471.480469 130.667969 471.074219 130.832031 C 470.671875 131 470.25 131.085938 469.8125 131.085938 Z M 469.8125 131.085938 "/>
<path style=" stroke:none;fill-rule:nonzero;fill:rgb(0%,0%,0%);fill-opacity:1;" d="M 476.421875 131.085938 C 475.933594 131.085938 475.472656 130.996094 475.046875 130.824219 C 474.621094 130.648438 474.253906 130.394531 473.9375 130.070312 C 473.621094 129.746094 473.375 129.347656 473.195312 128.875 C 473.011719 128.402344 472.921875 127.867188 472.921875 127.261719 C 472.921875 126.660156 473.015625 126.121094 473.199219 125.644531 C 473.382812 125.167969 473.632812 124.761719 473.9375 124.433594 C 474.242188 124.105469 474.589844 123.851562 474.984375 123.675781 C 475.371094 123.5 475.777344 123.410156 476.199219 123.410156 C 476.660156 123.410156 477.074219 123.492188 477.441406 123.65625 C 477.808594 123.8125 478.113281 124.042969 478.355469 124.34375 C 478.597656 124.644531 478.792969 125.007812 478.917969 125.429688 C 479.050781 125.851562 479.113281 126.320312 479.113281 126.839844 C 479.113281 126.972656 479.113281 127.101562 479.109375 127.226562 C 479.105469 127.347656 479.089844 127.457031 479.070312 127.546875 L 474.136719 127.546875 C 474.1875 128.332031 474.429688 128.949219 474.867188 129.40625 C 475.304688 129.863281 475.871094 130.089844 476.574219 130.089844 C 476.925781 130.089844 477.25 130.035156 477.542969 129.933594 C 477.839844 129.828125 478.121094 129.6875 478.394531 129.519531 L 478.832031 130.332031 C 478.507812 130.53125 478.152344 130.703125 477.765625 130.859375 C 477.375 131.007812 476.925781 131.085938 476.421875 131.085938 Z M 474.125 126.660156 L 478.035156 126.660156 C 478.035156 125.917969 477.878906 125.355469 477.5625 124.96875 C 477.25 124.585938 476.800781 124.390625 476.234375 124.390625 C 475.972656 124.390625 475.722656 124.441406 475.488281 124.542969 C 475.25 124.644531 475.039062 124.789062 474.851562 124.984375 C 474.660156 125.179688 474.5 125.421875 474.375 125.699219 C 474.25 125.980469 474.164062 126.300781 474.125 126.660156 Z M 474.125 126.660156 "/>
<path style=" stroke:none;fill-rule:nonzero;fill:rgb(0%,0%,0%);fill-opacity:1;" d="M 480.921875 130.902344 L 480.921875 123.59375 L 481.945312 123.59375 L 482.046875 124.644531 L 482.09375 124.644531 C 482.445312 124.292969 482.8125 124 483.199219 123.765625 C 483.582031 123.527344 484.035156 123.410156 484.542969 123.410156 C 485.316406 123.410156 485.878906 123.652344 486.238281 124.132812 C 486.59375 124.613281 486.769531 125.328125 486.769531 126.269531 L 486.769531 130.902344 L 485.539062 130.902344 L 485.539062 126.433594 C 485.539062 125.746094 485.425781 125.246094 485.207031 124.9375 C 484.984375 124.632812 484.636719 124.480469 484.15625 124.480469 C 483.773438 124.480469 483.4375 124.574219 483.148438 124.761719 C 482.855469 124.953125 482.527344 125.234375 482.15625 125.605469 L 482.15625 130.898438 L 480.921875 130.898438 Z M 480.921875 130.902344 "/>
<path style=" stroke:none;fill-rule:nonzero;fill:rgb(0%,0%,0%);fill-opacity:1;" d="M 491.445312 131.085938 C 491.054688 131.085938 490.726562 131.027344 490.460938 130.90625 C 490.195312 130.785156 489.980469 130.621094 489.8125 130.410156 C 489.644531 130.199219 489.53125 129.941406 489.460938 129.640625 C 489.386719 129.339844 489.351562 129.011719 489.351562 128.648438 L 489.351562 124.605469 L 488.269531 124.605469 L 488.269531 123.671875 L 489.414062 123.597656 L 489.5625 121.550781 L 490.601562 121.550781 L 490.601562 123.597656 L 492.570312 123.597656 L 492.570312 124.605469 L 490.601562 124.605469 L 490.601562 128.667969 C 490.601562 129.117188 490.683594 129.464844 490.851562 129.710938 C 491.011719 129.957031 491.308594 130.078125 491.730469 130.078125 C 491.859375 130.078125 492 130.058594 492.152344 130.019531 C 492.300781 129.976562 492.4375 129.933594 492.558594 129.882812 L 492.800781 130.816406 C 492.601562 130.886719 492.378906 130.949219 492.144531 131.003906 C 491.910156 131.054688 491.675781 131.085938 491.445312 131.085938 Z M 491.445312 131.085938 "/>
<path style=" stroke:none;fill-rule:nonzero;fill:rgb(0%,0%,0%);fill-opacity:1;" d="M 496.980469 131.085938 C 496.488281 131.085938 496.03125 130.996094 495.605469 130.824219 C 495.179688 130.648438 494.808594 130.394531 494.492188 130.070312 C 494.175781 129.746094 493.925781 129.347656 493.746094 128.875 C 493.566406 128.402344 493.476562 127.867188 493.476562 127.261719 C 493.476562 126.660156 493.570312 126.121094 493.753906 125.644531 C 493.941406 125.167969 494.1875 124.761719 494.492188 124.433594 C 494.796875 124.105469 495.144531 123.851562 495.535156 123.675781 C 495.925781 123.496094 496.332031 123.410156 496.753906 123.410156 C 497.214844 123.410156 497.628906 123.492188 497.992188 123.65625 C 498.359375 123.8125 498.667969 124.042969 498.910156 124.34375 C 499.15625 124.644531 499.34375 125.007812 499.476562 125.429688 C 499.605469 125.851562 499.671875 126.320312 499.671875 126.839844 C 499.671875 126.972656 499.667969 127.101562 499.660156 127.226562 C 499.65625 127.347656 499.644531 127.457031 499.625 127.546875 L 494.691406 127.546875 C 494.742188 128.332031 494.984375 128.949219 495.421875 129.40625 C 495.859375 129.863281 496.425781 130.089844 497.128906 130.089844 C 497.480469 130.089844 497.800781 130.035156 498.101562 129.933594 C 498.394531 129.828125 498.675781 129.6875 498.949219 129.519531 L 499.382812 130.332031 C 499.066406 130.53125 498.707031 130.703125 498.316406 130.859375 C 497.925781 131.007812 497.480469 131.085938 496.980469 131.085938 Z M 494.679688 126.660156 L 498.589844 126.660156 C 498.589844 125.917969 498.429688 125.355469 498.117188 124.96875 C 497.800781 124.585938 497.359375 124.390625 496.789062 124.390625 C 496.527344 124.390625 496.277344 124.441406 496.042969 124.542969 C 495.808594 124.644531 495.59375 124.789062 495.402344 124.984375 C 495.210938 125.179688 495.054688 125.421875 494.929688 125.699219 C 494.800781 125.980469 494.71875 126.300781 494.679688 126.660156 Z M 494.679688 126.660156 "/>
<path style=" stroke:none;fill-rule:nonzero;fill:rgb(0%,0%,0%);fill-opacity:1;" d="M 501.476562 130.902344 L 501.476562 123.59375 L 502.496094 123.59375 L 502.605469 124.914062 L 502.648438 124.914062 C 502.898438 124.453125 503.203125 124.089844 503.558594 123.816406 C 503.914062 123.550781 504.300781 123.410156 504.722656 123.410156 C 505.011719 123.410156 505.273438 123.464844 505.503906 123.566406 L 505.261719 124.648438 C 505.140625 124.609375 505.03125 124.578125 504.929688 124.558594 C 504.832031 124.539062 504.707031 124.527344 504.554688 124.527344 C 504.246094 124.527344 503.921875 124.652344 503.585938 124.902344 C 503.25 125.152344 502.957031 125.585938 502.703125 126.210938 L 502.703125 130.902344 Z M 501.476562 130.902344 "/>
<path style=" stroke:none;fill-rule:nonzero;fill:rgb(0%,0%,0%);fill-opacity:1;" d="M 509.503906 131.085938 C 509.011719 131.085938 508.554688 130.996094 508.125 130.824219 C 507.699219 130.648438 507.332031 130.394531 507.015625 130.070312 C 506.699219 129.746094 506.449219 129.347656 506.269531 128.875 C 506.089844 128.402344 506 127.867188 506 127.261719 C 506 126.660156 506.09375 126.121094 506.28125 125.644531 C 506.460938 125.167969 506.710938 124.761719 507.015625 124.433594 C 507.320312 124.105469 507.671875 123.851562 508.0625 123.675781 C 508.449219 123.5 508.855469 123.410156 509.277344 123.410156 C 509.742188 123.410156 510.152344 123.492188 510.515625 123.65625 C 510.882812 123.8125 511.1875 124.042969 511.433594 124.34375 C 511.679688 124.644531 511.867188 125.007812 512 125.429688 C 512.128906 125.851562 512.195312 126.320312 512.195312 126.839844 C 512.195312 126.972656 512.191406 127.101562 512.1875 127.226562 C 512.179688 127.347656 512.167969 127.457031 512.144531 127.546875 L 507.21875 127.546875 C 507.265625 128.332031 507.507812 128.949219 507.945312 129.40625 C 508.382812 129.863281 508.949219 130.089844 509.648438 130.089844 C 510.003906 130.089844 510.328125 130.035156 510.621094 129.933594 C 510.917969 129.828125 511.203125 129.6875 511.472656 129.519531 L 511.910156 130.332031 C 511.585938 130.53125 511.230469 130.703125 510.839844 130.859375 C 510.449219 131.007812 510.007812 131.085938 509.503906 131.085938 Z M 507.203125 126.660156 L 511.113281 126.660156 C 511.113281 125.917969 510.957031 125.355469 510.640625 124.96875 C 510.324219 124.585938 509.882812 124.390625 509.3125 124.390625 C 509.050781 124.390625 508.804688 124.441406 508.566406 124.542969 C 508.328125 124.644531 508.117188 124.789062 507.925781 124.984375 C 507.734375 125.179688 507.578125 125.421875 507.453125 125.699219 C 507.328125 125.980469 507.246094 126.300781 507.203125 126.660156 Z M 507.203125 126.660156 "/>
<path style=" stroke:none;fill-rule:nonzero;fill:rgb(0%,0%,0%);fill-opacity:1;" d="M 516.496094 131.085938 C 515.574219 131.085938 514.839844 130.753906 514.292969 130.09375 C 513.746094 129.429688 513.472656 128.488281 513.472656 127.265625 C 513.472656 126.675781 513.558594 126.140625 513.734375 125.664062 C 513.90625 125.1875 514.144531 124.78125 514.433594 124.453125 C 514.722656 124.121094 515.058594 123.867188 515.4375 123.683594 C 515.820312 123.5 516.222656 123.414062 516.640625 123.414062 C 517.0625 123.414062 517.425781 123.488281 517.738281 123.640625 C 518.050781 123.792969 518.367188 124 518.6875 124.257812 L 518.625 123.007812 L 518.625 120.195312 L 519.875 120.195312 L 519.875 130.90625 L 518.855469 130.90625 L 518.75 130.046875 L 518.703125 130.046875 C 518.410156 130.328125 518.078125 130.570312 517.703125 130.777344 C 517.328125 130.984375 516.925781 131.085938 516.496094 131.085938 Z M 516.765625 130.046875 C 517.109375 130.046875 517.429688 129.964844 517.730469 129.796875 C 518.03125 129.632812 518.332031 129.378906 518.628906 129.039062 L 518.628906 125.21875 C 518.320312 124.9375 518.023438 124.742188 517.738281 124.625 C 517.453125 124.507812 517.160156 124.453125 516.859375 124.453125 C 516.566406 124.453125 516.292969 124.519531 516.039062 124.65625 C 515.78125 124.789062 515.558594 124.980469 515.367188 125.230469 C 515.179688 125.476562 515.027344 125.769531 514.914062 126.109375 C 514.804688 126.449219 514.753906 126.832031 514.753906 127.253906 C 514.753906 128.136719 514.925781 128.820312 515.277344 129.3125 C 515.628906 129.800781 516.125 130.046875 516.765625 130.046875 Z M 516.765625 130.046875 "/>
<path style=" stroke:none;fill-rule:nonzero;fill:rgb(0%,0%,0%);fill-opacity:1;" d="M 528.238281 131.085938 C 527.757812 131.085938 527.308594 131 526.886719 130.828125 C 526.464844 130.660156 526.101562 130.410156 525.792969 130.082031 C 525.484375 129.757812 525.246094 129.355469 525.070312 128.882812 C 524.898438 128.40625 524.8125 127.867188 524.8125 127.261719 C 524.8125 126.652344 524.902344 126.105469 525.09375 125.632812 C 525.285156 125.15625 525.539062 124.75 525.863281 124.421875 C 526.183594 124.089844 526.558594 123.839844 526.984375 123.667969 C 527.410156 123.5 527.855469 123.410156 528.328125 123.410156 C 528.808594 123.410156 529.21875 123.496094 529.558594 123.667969 C 529.902344 123.835938 530.203125 124.039062 530.460938 124.269531 L 529.832031 125.082031 C 529.621094 124.894531 529.394531 124.734375 529.160156 124.613281 C 528.925781 124.496094 528.660156 124.433594 528.371094 124.433594 C 528.039062 124.433594 527.734375 124.503906 527.457031 124.636719 C 527.175781 124.773438 526.933594 124.964844 526.734375 125.214844 C 526.53125 125.46875 526.375 125.765625 526.261719 126.109375 C 526.148438 126.457031 526.089844 126.839844 526.089844 127.261719 C 526.089844 127.679688 526.140625 128.0625 526.253906 128.402344 C 526.363281 128.746094 526.515625 129.039062 526.714844 129.285156 C 526.90625 129.53125 527.148438 129.722656 527.425781 129.855469 C 527.707031 129.992188 528.011719 130.058594 528.34375 130.058594 C 528.683594 130.058594 528.996094 129.988281 529.285156 129.84375 C 529.566406 129.695312 529.828125 129.523438 530.058594 129.324219 L 530.601562 130.152344 C 530.269531 130.441406 529.902344 130.667969 529.503906 130.832031 C 529.097656 131 528.679688 131.085938 528.238281 131.085938 Z M 528.238281 131.085938 "/>
<path style=" stroke:none;fill-rule:nonzero;fill:rgb(0%,0%,0%);fill-opacity:1;" d="M 534.734375 131.085938 C 534.28125 131.085938 533.855469 131 533.449219 130.828125 C 533.042969 130.660156 532.683594 130.410156 532.371094 130.082031 C 532.0625 129.757812 531.8125 129.355469 531.628906 128.882812 C 531.441406 128.40625 531.351562 127.867188 531.351562 127.261719 C 531.351562 126.652344 531.441406 126.105469 531.628906 125.632812 C 531.8125 125.15625 532.0625 124.75 532.371094 124.421875 C 532.683594 124.089844 533.042969 123.839844 533.449219 123.667969 C 533.855469 123.5 534.28125 123.410156 534.734375 123.410156 C 535.1875 123.410156 535.613281 123.496094 536.019531 123.667969 C 536.425781 123.835938 536.785156 124.089844 537.097656 124.421875 C 537.40625 124.753906 537.65625 125.15625 537.84375 125.632812 C 538.027344 126.105469 538.121094 126.652344 538.121094 127.261719 C 538.121094 127.863281 538.027344 128.402344 537.84375 128.882812 C 537.65625 129.355469 537.40625 129.757812 537.097656 130.082031 C 536.785156 130.410156 536.425781 130.65625 536.019531 130.828125 C 535.613281 130.996094 535.1875 131.085938 534.734375 131.085938 Z M 534.734375 130.058594 C 535.046875 130.058594 535.328125 129.992188 535.59375 129.855469 C 535.855469 129.722656 536.074219 129.53125 536.261719 129.285156 C 536.445312 129.039062 536.59375 128.746094 536.691406 128.402344 C 536.789062 128.0625 536.84375 127.679688 536.84375 127.261719 C 536.84375 126.839844 536.789062 126.457031 536.691406 126.109375 C 536.59375 125.761719 536.445312 125.464844 536.261719 125.214844 C 536.078125 124.964844 535.855469 124.769531 535.59375 124.636719 C 535.328125 124.503906 535.046875 124.433594 534.734375 124.433594 C 534.425781 124.433594 534.140625 124.503906 533.878906 124.636719 C 533.613281 124.773438 533.394531 124.964844 533.210938 125.214844 C 533.023438 125.46875 532.878906 125.765625 532.777344 126.109375 C 532.679688 126.457031 532.628906 126.839844 532.628906 127.261719 C 532.628906 127.679688 532.679688 128.0625 532.777344 128.402344 C 532.878906 128.746094 533.023438 129.039062 533.210938 129.285156 C 533.390625 129.53125 533.613281 129.722656 533.878906 129.855469 C 534.140625 129.992188 534.425781 130.058594 534.734375 130.058594 Z M 534.734375 130.058594 "/>
<path style=" stroke:none;fill-rule:nonzero;fill:rgb(0%,0%,0%);fill-opacity:1;" d="M 540.042969 130.902344 L 540.042969 123.59375 L 541.066406 123.59375 L 541.167969 124.644531 L 541.214844 124.644531 C 541.566406 124.292969 541.933594 124 542.316406 123.765625 C 542.703125 123.527344 543.15625 123.410156 543.664062 123.410156 C 544.4375 123.410156 545 123.652344 545.359375 124.132812 C 545.714844 124.613281 545.890625 125.328125 545.890625 126.269531 L 545.890625 130.902344 L 544.660156 130.902344 L 544.660156 126.433594 C 544.660156 125.746094 544.546875 125.246094 544.328125 124.9375 C 544.105469 124.632812 543.757812 124.480469 543.277344 124.480469 C 542.894531 124.480469 542.558594 124.574219 542.269531 124.761719 C 541.976562 124.953125 541.648438 125.234375 541.277344 125.605469 L 541.277344 130.898438 L 540.042969 130.898438 Z M 540.042969 130.902344 "/>
<path style=" stroke:none;fill-rule:nonzero;fill:rgb(0%,0%,0%);fill-opacity:1;" d="M 550.566406 131.085938 C 550.175781 131.085938 549.847656 131.027344 549.582031 130.90625 C 549.316406 130.785156 549.101562 130.621094 548.933594 130.410156 C 548.765625 130.199219 548.652344 129.941406 548.582031 129.640625 C 548.507812 129.339844 548.472656 129.011719 548.472656 128.648438 L 548.472656 124.605469 L 547.390625 124.605469 L 547.390625 123.671875 L 548.53125 123.597656 L 548.683594 121.550781 L 549.722656 121.550781 L 549.722656 123.597656 L 551.691406 123.597656 L 551.691406 124.605469 L 549.722656 124.605469 L 549.722656 128.667969 C 549.722656 129.117188 549.804688 129.464844 549.972656 129.710938 C 550.132812 129.957031 550.429688 130.078125 550.851562 130.078125 C 550.980469 130.078125 551.121094 130.058594 551.273438 130.019531 C 551.421875 129.976562 551.558594 129.933594 551.679688 129.882812 L 551.921875 130.816406 C 551.722656 130.886719 551.5 130.949219 551.265625 131.003906 C 551.03125 131.054688 550.796875 131.085938 550.566406 131.085938 Z M 550.566406 131.085938 "/>
<path style=" stroke:none;fill-rule:nonzero;fill:rgb(0%,0%,0%);fill-opacity:1;" d="M 555.976562 131.085938 C 555.527344 131.085938 555.097656 131 554.691406 130.828125 C 554.289062 130.660156 553.929688 130.410156 553.617188 130.082031 C 553.308594 129.757812 553.058594 129.355469 552.875 128.882812 C 552.6875 128.40625 552.59375 127.867188 552.59375 127.261719 C 552.59375 126.652344 552.6875 126.105469 552.875 125.632812 C 553.058594 125.15625 553.308594 124.75 553.617188 124.421875 C 553.929688 124.09375 554.289062 123.839844 554.691406 123.667969 C 555.097656 123.5 555.527344 123.410156 555.976562 123.410156 C 556.433594 123.410156 556.859375 123.496094 557.265625 123.667969 C 557.671875 123.835938 558.03125 124.089844 558.339844 124.421875 C 558.652344 124.753906 558.902344 125.15625 559.089844 125.632812 C 559.269531 126.105469 559.363281 126.652344 559.363281 127.261719 C 559.363281 127.863281 559.269531 128.402344 559.089844 128.882812 C 558.902344 129.355469 558.652344 129.757812 558.339844 130.082031 C 558.03125 130.40625 557.671875 130.65625 557.265625 130.828125 C 556.859375 130.996094 556.433594 131.085938 555.976562 131.085938 Z M 555.976562 130.058594 C 556.292969 130.058594 556.574219 129.992188 556.835938 129.855469 C 557.097656 129.722656 557.320312 129.53125 557.507812 129.285156 C 557.691406 129.039062 557.835938 128.746094 557.933594 128.402344 C 558.035156 128.0625 558.085938 127.679688 558.085938 127.261719 C 558.085938 126.839844 558.035156 126.457031 557.933594 126.109375 C 557.835938 125.761719 557.691406 125.464844 557.507812 125.214844 C 557.320312 124.964844 557.097656 124.769531 556.835938 124.636719 C 556.574219 124.503906 556.292969 124.433594 555.976562 124.433594 C 555.671875 124.433594 555.382812 124.503906 555.121094 124.636719 C 554.859375 124.773438 554.636719 124.964844 554.453125 125.214844 C 554.265625 125.46875 554.121094 125.765625 554.023438 126.109375 C 553.921875 126.457031 553.871094 126.839844 553.871094 127.261719 C 553.871094 127.679688 553.921875 128.0625 554.023438 128.402344 C 554.121094 128.746094 554.265625 129.039062 554.453125 129.285156 C 554.636719 129.53125 554.859375 129.722656 555.121094 129.855469 C 555.382812 129.992188 555.671875 130.058594 555.976562 130.058594 Z M 555.976562 130.058594 "/>
<path style=" stroke:none;fill-rule:nonzero;fill:rgb(0%,0%,0%);fill-opacity:1;" d="M 563.421875 131.085938 C 562.640625 131.085938 562.074219 130.84375 561.714844 130.363281 C 561.359375 129.882812 561.179688 129.167969 561.179688 128.226562 L 561.179688 123.59375 L 562.429688 123.59375 L 562.429688 128.058594 C 562.429688 128.75 562.535156 129.25 562.753906 129.554688 C 562.96875 129.863281 563.316406 130.019531 563.800781 130.019531 C 564.179688 130.019531 564.515625 129.921875 564.804688 129.722656 C 565.09375 129.527344 565.414062 129.214844 565.765625 128.785156 L 565.765625 123.59375 L 567 123.59375 L 567 130.90625 L 565.976562 130.90625 L 565.871094 129.761719 L 565.828125 129.761719 C 565.484375 130.164062 565.128906 130.484375 564.75 130.726562 C 564.378906 130.964844 563.933594 131.085938 563.421875 131.085938 Z M 563.421875 131.085938 "/>
<path style=" stroke:none;fill-rule:nonzero;fill:rgb(0%,0%,0%);fill-opacity:1;" d="M 569.46875 130.902344 L 569.46875 123.59375 L 570.488281 123.59375 L 570.59375 124.914062 L 570.636719 124.914062 C 570.890625 124.453125 571.195312 124.089844 571.546875 123.816406 C 571.90625 123.550781 572.292969 123.410156 572.714844 123.410156 C 573.003906 123.410156 573.265625 123.464844 573.496094 123.566406 L 573.253906 124.648438 C 573.132812 124.609375 573.023438 124.578125 572.921875 124.558594 C 572.824219 124.539062 572.695312 124.527344 572.546875 124.527344 C 572.238281 124.527344 571.914062 124.652344 571.574219 124.902344 C 571.242188 125.152344 570.949219 125.585938 570.695312 126.210938 L 570.695312 130.902344 Z M 569.46875 130.902344 "/>
</g>
</svg>
