<?xml version="1.0" encoding="utf-8"?>
<!-- Generator: Adobe Illustrator 22.1.0, SVG Export Plug-In . SVG Version: 6.00 Build 0)  -->
<svg version="1.1" id="Ebene_1" xmlns="http://www.w3.org/2000/svg" xmlns:xlink="http://www.w3.org/1999/xlink" x="0px" y="0px"
	 viewBox="0 0 389.2 230" style="enable-background:new 0 0 389.2 230;" xml:space="preserve">
<style type="text/css">
	.st0{fill:#92D3F5;}
	.st1{fill:#61B2E4;}
	.st2{fill:#EA5A47;}
	.st3{fill:#D22F27;}
	.st4{fill:#B1CC33;}
	.st5{fill:#5C9E31;}
	.st6{fill:#FCEA2B;}
	.st7{fill:#F1B31C;}
	.st8{fill:#D0CFCE;}
	.st9{fill:#FFFFFF;}
	.st10{fill:none;stroke:#D0CFCE;stroke-width:0.25;stroke-miterlimit:10;}
	.st11{fill:#9B9B9A;}
	.st12{fill:#3F3F3F;}
	.st13{enable-background:new    ;}
</style>
<g>
	<rect class="st0" width="50" height="50"/>
</g>
<g>
	<rect y="49.8" class="st1" width="50" height="25"/>
</g>
<g>
	<rect x="100" class="st2" width="50" height="50"/>
</g>
<g>
	<rect x="100" y="50" class="st3" width="50" height="25"/>
</g>
<g>
	<rect x="200" class="st4" width="50" height="50"/>
</g>
<g>
	<rect x="200" y="50" class="st5" width="50" height="25"/>
</g>
<g>
	<rect x="300" class="st6" width="50" height="50"/>
</g>
<g>
	<rect x="300" y="50" class="st7" width="50" height="25"/>
</g>
<g>
	<rect y="130" class="st8" width="50" height="25"/>
</g>
<g>
	<g>
		<rect y="105" class="st9" width="50" height="25"/>
	</g>
	<g>
		<rect y="105" class="st9" width="50" height="25"/>
	</g>
	<g>
		<rect y="105" class="st10" width="50" height="25"/>
	</g>
</g>
<g>
	<rect y="155" class="st11" width="50" height="25"/>
</g>
<g>
	<rect y="180" class="st12" width="50" height="25"/>
</g>
<g>
	<rect y="205" width="50" height="25"/>
</g>
<g class="st13">
	<path d="M54.6,8l0.2-1.4h-0.6V6.1h0.6l0.1-1h-0.6V4.7H55l0.2-1.3h0.4l-0.2,1.3h0.9l0.2-1.3h0.4l-0.2,1.3h0.6v0.4h-0.6l-0.1,1h0.6
		v0.4h-0.6L56.3,8h-0.4l0.2-1.4h-0.9L55,8H54.6z M55.2,6.1h0.9l0.1-1h-0.9L55.2,6.1z"/>
	<path d="M58.9,8c-0.2,0-0.4,0-0.6-0.1S58,7.7,57.8,7.6l0.3-0.4c0.1,0.1,0.2,0.2,0.3,0.3c0.1,0.1,0.3,0.1,0.4,0.1
		c0.2,0,0.3,0,0.4-0.1c0.1-0.1,0.3-0.2,0.4-0.3s0.2-0.3,0.3-0.6C60,6.3,60.1,6,60.1,5.7c-0.1,0.2-0.3,0.3-0.5,0.4S59.2,6.2,59,6.2
		c-0.4,0-0.7-0.1-0.9-0.3s-0.3-0.6-0.3-1c0-0.2,0-0.4,0.1-0.6s0.2-0.3,0.3-0.5s0.3-0.2,0.4-0.3c0.2-0.1,0.3-0.1,0.5-0.1
		c0.2,0,0.4,0,0.6,0.1S60,3.8,60.2,4c0.1,0.2,0.2,0.4,0.3,0.7c0.1,0.3,0.1,0.6,0.1,0.9c0,0.4,0,0.8-0.1,1.1s-0.2,0.6-0.4,0.8
		c-0.2,0.2-0.3,0.3-0.5,0.4C59.4,8,59.1,8,58.9,8z M59.1,5.8c0.1,0,0.3,0,0.5-0.1c0.2-0.1,0.3-0.2,0.5-0.5c0-0.4-0.1-0.8-0.3-1
		c-0.2-0.2-0.4-0.3-0.7-0.3c-0.1,0-0.2,0-0.3,0.1c-0.1,0-0.2,0.1-0.2,0.2c-0.1,0.1-0.1,0.2-0.2,0.3c0,0.1-0.1,0.3-0.1,0.4
		c0,0.3,0.1,0.5,0.2,0.7S58.8,5.8,59.1,5.8z"/>
	<path d="M61.2,8V7.6c0.3-0.3,0.6-0.6,0.9-0.9c0.3-0.3,0.5-0.5,0.7-0.8c0.2-0.2,0.3-0.4,0.4-0.6c0.1-0.2,0.1-0.4,0.1-0.6
		c0-0.3-0.1-0.5-0.2-0.6s-0.4-0.2-0.6-0.2c-0.2,0-0.4,0.1-0.5,0.2c-0.2,0.1-0.3,0.2-0.4,0.4l-0.3-0.3c0.2-0.2,0.4-0.4,0.6-0.5
		c0.2-0.1,0.5-0.2,0.8-0.2c0.4,0,0.7,0.1,1,0.4s0.4,0.6,0.4,1c0,0.2,0,0.4-0.1,0.6c-0.1,0.2-0.2,0.4-0.4,0.7
		c-0.2,0.2-0.4,0.5-0.6,0.7s-0.5,0.5-0.7,0.8c0.1,0,0.2,0,0.4,0c0.1,0,0.3,0,0.4,0h1.3V8L61.2,8L61.2,8z"/>
	<path d="M65.1,8V3.4h1.1c0.7,0,1.2,0.2,1.6,0.6c0.4,0.4,0.6,1,0.6,1.7c0,0.4,0,0.7-0.1,1c-0.1,0.3-0.2,0.5-0.4,0.7
		s-0.4,0.3-0.7,0.5C66.9,7.9,66.6,8,66.2,8L65.1,8L65.1,8z M65.6,7.5h0.5c0.5,0,0.9-0.2,1.2-0.5s0.4-0.8,0.4-1.4
		c0-0.6-0.1-1-0.4-1.3c-0.3-0.3-0.7-0.5-1.2-0.5h-0.5V7.5z"/>
	<path d="M70.4,8c-0.2,0-0.3,0-0.5-0.1s-0.3-0.1-0.4-0.1c-0.1-0.1-0.2-0.1-0.3-0.2c-0.1-0.1-0.2-0.2-0.3-0.2L69.2,7
		c0.1,0.1,0.3,0.3,0.5,0.4c0.2,0.1,0.4,0.2,0.7,0.2c0.3,0,0.5-0.1,0.7-0.2c0.2-0.1,0.3-0.3,0.3-0.6c0-0.1,0-0.3-0.1-0.4
		c0-0.1-0.1-0.2-0.2-0.3C70.9,6,70.7,6,70.5,5.9c-0.2,0-0.4-0.1-0.7-0.1V5.4c0.2,0,0.4,0,0.6-0.1c0.2,0,0.3-0.1,0.4-0.2
		C70.9,5.1,71,5,71.1,4.9s0.1-0.2,0.1-0.3c0-0.2-0.1-0.4-0.2-0.5s-0.3-0.2-0.6-0.2c-0.2,0-0.4,0-0.5,0.1c-0.2,0.1-0.3,0.2-0.4,0.3
		L69.1,4c0.2-0.2,0.4-0.3,0.6-0.4c0.2-0.1,0.4-0.2,0.7-0.2c0.2,0,0.4,0,0.5,0.1c0.2,0.1,0.3,0.1,0.4,0.2c0.1,0.1,0.2,0.2,0.3,0.4
		c0.1,0.1,0.1,0.3,0.1,0.5c0,0.3-0.1,0.5-0.2,0.7s-0.3,0.3-0.6,0.4v0c0.1,0,0.3,0.1,0.4,0.1s0.2,0.1,0.3,0.2
		c0.1,0.1,0.2,0.2,0.2,0.3s0.1,0.3,0.1,0.4c0,0.2,0,0.4-0.1,0.5c-0.1,0.2-0.2,0.3-0.3,0.4C71.3,7.8,71.1,7.9,71,8
		C70.8,8,70.6,8,70.4,8z"/>
	<path d="M72.9,8V3.4h2.6v0.5h-2.1v1.6h1.8v0.5h-1.8V8C73.4,8,72.9,8,72.9,8z"/>
	<path d="M77.3,8C77.1,8,77,8,76.8,8s-0.3-0.1-0.4-0.1c-0.1-0.1-0.2-0.1-0.3-0.2c-0.1-0.1-0.2-0.1-0.3-0.2l0.3-0.4
		c0.1,0.1,0.3,0.3,0.5,0.4s0.4,0.2,0.7,0.2c0.1,0,0.3,0,0.4-0.1c0.1,0,0.2-0.1,0.3-0.2C78,7.2,78.1,7.1,78.2,7s0.1-0.3,0.1-0.4
		c0-0.3-0.1-0.5-0.3-0.7c-0.2-0.2-0.4-0.3-0.7-0.3c-0.2,0-0.3,0-0.4,0.1c-0.1,0-0.2,0.1-0.4,0.2l-0.3-0.2l0.1-2.1h2.2V4h-1.7
		l-0.1,1.3c0.1-0.1,0.2-0.1,0.3-0.1c0.1,0,0.2,0,0.4,0c0.2,0,0.4,0,0.5,0.1s0.3,0.1,0.4,0.3s0.2,0.3,0.3,0.4
		c0.1,0.2,0.1,0.4,0.1,0.6c0,0.2,0,0.5-0.1,0.6s-0.2,0.3-0.3,0.5c-0.1,0.1-0.3,0.2-0.5,0.3C77.7,8,77.5,8,77.3,8z"/>
</g>
<g class="st13">
	<path d="M54.6,57.5l0.2-1.4h-0.6v-0.4h0.6l0.1-1h-0.6v-0.4H55l0.2-1.3h0.4l-0.2,1.3h0.9l0.2-1.3h0.4l-0.2,1.3h0.6v0.4h-0.6l-0.1,1
		h0.6V56h-0.6l-0.2,1.4h-0.4l0.2-1.4h-0.9L55,57.5L54.6,57.5L54.6,57.5z M55.2,55.6h0.9l0.1-1h-0.9L55.2,55.6z"/>
	<path d="M59.4,57.5c-0.2,0-0.4,0-0.6-0.1s-0.3-0.2-0.5-0.4s-0.2-0.4-0.3-0.7c-0.1-0.3-0.1-0.6-0.1-0.9c0-0.4,0-0.8,0.1-1.1
		c0.1-0.3,0.2-0.6,0.4-0.8s0.3-0.3,0.5-0.4c0.2-0.1,0.4-0.1,0.6-0.1c0.2,0,0.5,0,0.6,0.1c0.2,0.1,0.3,0.2,0.5,0.3l-0.3,0.4
		c-0.1-0.1-0.2-0.2-0.3-0.3c-0.1-0.1-0.3-0.1-0.4-0.1c-0.2,0-0.3,0-0.4,0.1c-0.1,0.1-0.3,0.2-0.4,0.3c-0.1,0.1-0.2,0.3-0.3,0.6
		s-0.1,0.5-0.1,0.9c0.1-0.2,0.3-0.3,0.5-0.4c0.2-0.1,0.4-0.2,0.6-0.2c0.4,0,0.7,0.1,0.9,0.3s0.3,0.6,0.3,1c0,0.2,0,0.4-0.1,0.6
		s-0.2,0.3-0.3,0.5c-0.1,0.1-0.3,0.2-0.4,0.3C59.7,57.5,59.5,57.5,59.4,57.5z M59.4,57.1c0.1,0,0.2,0,0.3-0.1c0.1,0,0.2-0.1,0.2-0.2
		c0.1-0.1,0.1-0.2,0.2-0.3c0-0.1,0.1-0.3,0.1-0.4c0-0.3-0.1-0.5-0.2-0.7c-0.1-0.2-0.3-0.3-0.6-0.3c-0.1,0-0.3,0-0.5,0.1
		c-0.2,0.1-0.3,0.2-0.5,0.5c0,0.4,0.1,0.8,0.3,1C58.8,57,59.1,57.1,59.4,57.1z"/>
	<path d="M61.5,57.5V57h1v-3.3h-0.8v-0.4c0.2,0,0.4-0.1,0.5-0.1c0.2-0.1,0.3-0.1,0.4-0.2h0.4v4H64v0.5H61.5z"/>
	<path d="M65.1,57.5v-4.6h1.4c0.2,0,0.4,0,0.6,0.1c0.2,0,0.4,0.1,0.5,0.2s0.2,0.2,0.3,0.3S68,53.8,68,54c0,0.2-0.1,0.4-0.2,0.6
		s-0.3,0.3-0.5,0.4v0c0.3,0.1,0.5,0.2,0.7,0.4c0.2,0.2,0.3,0.4,0.3,0.7c0,0.2,0,0.4-0.1,0.6s-0.2,0.3-0.4,0.4s-0.3,0.2-0.6,0.3
		c-0.2,0.1-0.4,0.1-0.7,0.1H65.1z M65.6,54.8h0.7c0.4,0,0.7-0.1,0.8-0.2c0.2-0.1,0.3-0.3,0.3-0.6c0-0.3-0.1-0.5-0.3-0.6
		s-0.4-0.2-0.8-0.2h-0.7L65.6,54.8L65.6,54.8z M65.6,57h0.8c0.4,0,0.7-0.1,0.9-0.2c0.2-0.1,0.3-0.4,0.3-0.7c0-0.3-0.1-0.5-0.3-0.6
		s-0.5-0.2-0.9-0.2h-0.8C65.6,55.3,65.6,57,65.6,57z"/>
	<path d="M68.8,57.5v-0.3c0.3-0.3,0.6-0.6,0.9-0.9c0.3-0.3,0.5-0.5,0.7-0.8c0.2-0.2,0.3-0.4,0.4-0.6c0.1-0.2,0.1-0.4,0.1-0.6
		c0-0.3-0.1-0.5-0.2-0.6s-0.4-0.2-0.6-0.2c-0.2,0-0.4,0.1-0.5,0.2c-0.2,0.1-0.3,0.2-0.4,0.4l-0.3-0.3c0.2-0.2,0.4-0.4,0.6-0.5
		c0.2-0.1,0.5-0.2,0.8-0.2c0.4,0,0.7,0.1,1,0.4s0.4,0.6,0.4,1c0,0.2,0,0.4-0.1,0.6c-0.1,0.2-0.2,0.4-0.4,0.7
		c-0.2,0.2-0.4,0.5-0.6,0.7s-0.5,0.5-0.7,0.8c0.1,0,0.2,0,0.4,0c0.1,0,0.3,0,0.4,0h1.3v0.5L68.8,57.5L68.8,57.5z"/>
	<path d="M72.7,57.5v-4.6h2.6v0.5h-2.1v1.4H75v0.5h-1.7V57h2.1v0.5L72.7,57.5L72.7,57.5z"/>
	<path d="M77.8,57.5v-1.2h-2v-0.4l1.9-2.9h0.6v2.8H79v0.5h-0.6v1.2C78.4,57.5,77.8,57.5,77.8,57.5z M76.4,55.8h1.4v-1.3
		c0-0.1,0-0.3,0-0.4c0-0.2,0-0.3,0-0.4h0c-0.1,0.1-0.1,0.2-0.2,0.3s-0.1,0.2-0.2,0.3L76.4,55.8z"/>
</g>
<g class="st13">
	<path d="M155.6,8l0.2-1.4h-0.6V6.1h0.6l0.1-1h-0.6V4.7h0.6l0.2-1.3h0.4l-0.2,1.3h0.9l0.2-1.3h0.4l-0.2,1.3h0.6v0.4h-0.6l-0.1,1h0.6
		v0.4h-0.6L157.3,8h-0.4l0.2-1.4h-0.9L156,8L155.6,8L155.6,8z M156.2,6.1h0.9l0.1-1h-0.9L156.2,6.1z"/>
	<path d="M159.1,8V3.4h2.6v0.5h-2.1v1.4h1.7v0.5h-1.7v1.7h2.1V8L159.1,8L159.1,8z"/>
	<path d="M162.2,8l1.6-4.6h0.7L166,8h-0.6l-0.4-1.4h-1.7L162.8,8H162.2z M163.6,5.4l-0.2,0.7h1.4l-0.2-0.7c-0.1-0.3-0.2-0.5-0.2-0.8
		c-0.1-0.3-0.1-0.5-0.2-0.8h0c-0.1,0.3-0.1,0.5-0.2,0.8C163.8,4.9,163.7,5.1,163.6,5.4z"/>
	<path d="M167.6,8c-0.2,0-0.3,0-0.5-0.1s-0.3-0.1-0.4-0.1c-0.1-0.1-0.2-0.1-0.3-0.2c-0.1-0.1-0.2-0.1-0.3-0.2l0.3-0.4
		c0.1,0.1,0.3,0.3,0.5,0.4s0.4,0.2,0.7,0.2c0.1,0,0.3,0,0.4-0.1c0.1,0,0.2-0.1,0.3-0.2c0.1-0.1,0.2-0.2,0.2-0.3s0.1-0.3,0.1-0.4
		c0-0.3-0.1-0.5-0.3-0.7c-0.2-0.2-0.4-0.3-0.7-0.3c-0.2,0-0.3,0-0.4,0.1c-0.1,0-0.2,0.1-0.4,0.2l-0.3-0.2l0.1-2.1h2.2V4h-1.7
		L167,5.3c0.1-0.1,0.2-0.1,0.3-0.1c0.1,0,0.2,0,0.4,0c0.2,0,0.4,0,0.5,0.1s0.3,0.1,0.4,0.3s0.2,0.3,0.3,0.4c0.1,0.2,0.1,0.4,0.1,0.6
		c0,0.2,0,0.5-0.1,0.6s-0.2,0.3-0.3,0.5c-0.1,0.1-0.3,0.2-0.5,0.3C168,8,167.8,8,167.6,8z"/>
	<path d="M169.5,8l1.6-4.6h0.7l1.6,4.6h-0.6l-0.4-1.4h-1.7L170.1,8H169.5z M170.9,5.4l-0.2,0.7h1.4l-0.2-0.7
		c-0.1-0.3-0.2-0.5-0.2-0.8c-0.1-0.3-0.1-0.5-0.2-0.8h0c-0.1,0.3-0.1,0.5-0.2,0.8C171,4.9,171,5.1,170.9,5.4z"/>
	<path d="M175.4,8V6.7h-2V6.4l1.9-2.9h0.6v2.8h0.6v0.5h-0.6V8L175.4,8L175.4,8z M174,6.3h1.4V5c0-0.1,0-0.3,0-0.4c0-0.2,0-0.3,0-0.4
		h0c-0.1,0.1-0.1,0.2-0.2,0.3s-0.1,0.2-0.2,0.3L174,6.3z"/>
	<path d="M178,8c0-0.4,0.1-0.8,0.1-1.2s0.1-0.7,0.2-1c0.1-0.3,0.2-0.6,0.4-0.9c0.2-0.3,0.3-0.6,0.6-0.9H177V3.5h2.9v0.4
		c-0.3,0.3-0.5,0.7-0.6,1c-0.2,0.3-0.3,0.6-0.4,0.9c-0.1,0.3-0.2,0.7-0.2,1c0,0.4-0.1,0.8-0.1,1.2H178z"/>
</g>
<g class="st13">
	<path d="M155.6,57.5l0.2-1.4h-0.6v-0.4h0.6l0.1-1h-0.6v-0.4h0.6l0.2-1.3h0.4l-0.2,1.3h0.9l0.2-1.3h0.4l-0.2,1.3h0.6v0.4h-0.6
		l-0.1,1h0.6V56h-0.6l-0.2,1.4h-0.4l0.2-1.4h-0.9l-0.2,1.4H155.6z M156.2,55.6h0.9l0.1-1h-0.9L156.2,55.6z"/>
	<path d="M159.1,57.5v-4.6h1.1c0.7,0,1.2,0.2,1.6,0.6c0.4,0.4,0.6,1,0.6,1.7c0,0.4,0,0.7-0.1,1c-0.1,0.3-0.2,0.5-0.4,0.7
		s-0.4,0.3-0.7,0.5c-0.3,0.1-0.6,0.2-0.9,0.2L159.1,57.5L159.1,57.5z M159.7,57h0.5c0.5,0,0.9-0.2,1.2-0.5c0.3-0.3,0.4-0.8,0.4-1.4
		c0-0.6-0.1-1-0.4-1.3c-0.3-0.3-0.7-0.5-1.2-0.5h-0.5V57z"/>
	<path d="M163.1,57.5v-0.3c0.3-0.3,0.6-0.6,0.9-0.9c0.3-0.3,0.5-0.5,0.7-0.8c0.2-0.2,0.3-0.4,0.4-0.6c0.1-0.2,0.1-0.4,0.1-0.6
		c0-0.3-0.1-0.5-0.2-0.6s-0.4-0.2-0.6-0.2c-0.2,0-0.4,0.1-0.5,0.2c-0.2,0.1-0.3,0.2-0.4,0.4l-0.3-0.3c0.2-0.2,0.4-0.4,0.6-0.5
		c0.2-0.1,0.5-0.2,0.8-0.2c0.4,0,0.7,0.1,1,0.4s0.4,0.6,0.4,1c0,0.2,0,0.4-0.1,0.6c-0.1,0.2-0.2,0.4-0.4,0.7
		c-0.2,0.2-0.4,0.5-0.6,0.7s-0.5,0.5-0.7,0.8c0.1,0,0.2,0,0.4,0c0.1,0,0.3,0,0.4,0h1.3v0.5L163.1,57.5L163.1,57.5z"/>
	<path d="M166.5,57.5v-0.3c0.3-0.3,0.6-0.6,0.9-0.9c0.3-0.3,0.5-0.5,0.7-0.8c0.2-0.2,0.3-0.4,0.4-0.6c0.1-0.2,0.1-0.4,0.1-0.6
		c0-0.3-0.1-0.5-0.2-0.6s-0.4-0.2-0.6-0.2c-0.2,0-0.4,0.1-0.5,0.2c-0.2,0.1-0.3,0.2-0.4,0.4l-0.3-0.3c0.2-0.2,0.4-0.4,0.6-0.5
		c0.2-0.1,0.5-0.2,0.8-0.2c0.4,0,0.7,0.1,1,0.4s0.4,0.6,0.4,1c0,0.2,0,0.4-0.1,0.6c-0.1,0.2-0.2,0.4-0.4,0.7
		c-0.2,0.2-0.4,0.5-0.6,0.7s-0.5,0.5-0.7,0.8c0.1,0,0.2,0,0.4,0c0.1,0,0.3,0,0.4,0h1.3v0.5L166.5,57.5L166.5,57.5z"/>
	<path d="M170.4,57.5v-4.6h2.6v0.5H171v1.6h1.8v0.5H171v2.1C171,57.5,170.4,57.5,170.4,57.5z"/>
	<path d="M173.5,57.5v-0.3c0.3-0.3,0.6-0.6,0.9-0.9c0.3-0.3,0.5-0.5,0.7-0.8c0.2-0.2,0.3-0.4,0.4-0.6c0.1-0.2,0.1-0.4,0.1-0.6
		c0-0.3-0.1-0.5-0.2-0.6s-0.4-0.2-0.6-0.2c-0.2,0-0.4,0.1-0.5,0.2c-0.2,0.1-0.3,0.2-0.4,0.4l-0.3-0.3c0.2-0.2,0.4-0.4,0.6-0.5
		c0.2-0.1,0.5-0.2,0.8-0.2c0.4,0,0.7,0.1,1,0.4s0.4,0.6,0.4,1c0,0.2,0,0.4-0.1,0.6c-0.1,0.2-0.2,0.4-0.4,0.7
		c-0.2,0.2-0.4,0.5-0.6,0.7s-0.5,0.5-0.7,0.8c0.1,0,0.2,0,0.4,0c0.1,0,0.3,0,0.4,0h1.3v0.5L173.5,57.5L173.5,57.5z"/>
	<path d="M177.9,57.5c0-0.4,0.1-0.8,0.1-1.2s0.1-0.7,0.2-1c0.1-0.3,0.2-0.6,0.4-0.9c0.2-0.3,0.3-0.6,0.6-0.9H177V53h2.9v0.4
		c-0.3,0.3-0.5,0.7-0.6,1c-0.2,0.3-0.3,0.6-0.4,0.9c-0.1,0.3-0.2,0.7-0.2,1c0,0.4-0.1,0.8-0.1,1.2L177.9,57.5L177.9,57.5z"/>
</g>
<g class="st13">
	<path d="M255.6,8l0.2-1.4h-0.6V6.1h0.6l0.1-1h-0.6V4.7h0.6l0.2-1.3h0.4l-0.2,1.3h0.9l0.2-1.3h0.4l-0.2,1.3h0.6v0.4h-0.6l-0.1,1h0.6
		v0.4h-0.6L257.3,8h-0.4l0.2-1.4h-0.9L256,8L255.6,8L255.6,8z M256.2,6.1h0.9l0.1-1h-0.9L256.2,6.1z"/>
	<path d="M259.1,8V3.4h1.4c0.2,0,0.4,0,0.6,0.1s0.4,0.1,0.5,0.2c0.1,0.1,0.2,0.2,0.3,0.3c0.1,0.1,0.1,0.3,0.1,0.5
		c0,0.2-0.1,0.4-0.2,0.6s-0.3,0.3-0.5,0.4v0c0.3,0.1,0.5,0.2,0.7,0.4c0.2,0.2,0.3,0.4,0.3,0.7c0,0.2,0,0.4-0.1,0.6s-0.2,0.3-0.4,0.4
		c-0.2,0.1-0.3,0.2-0.6,0.3S260.8,8,260.6,8C260.6,8,259.1,8,259.1,8z M259.7,5.3h0.7c0.4,0,0.7-0.1,0.8-0.2
		c0.2-0.1,0.3-0.3,0.3-0.6c0-0.3-0.1-0.5-0.3-0.6s-0.4-0.2-0.8-0.2h-0.7V5.3z M259.7,7.5h0.8c0.4,0,0.7-0.1,0.9-0.2
		c0.2-0.1,0.3-0.4,0.3-0.7c0-0.3-0.1-0.5-0.3-0.6s-0.5-0.2-0.9-0.2h-0.8V7.5z"/>
	<path d="M263.1,8V7.5h1V4.2h-0.8V3.8c0.2,0,0.4-0.1,0.5-0.1s0.3-0.1,0.4-0.2h0.4v4h0.9V8H263.1z"/>
	<path d="M268.4,8c-0.3,0-0.6-0.1-0.8-0.2c-0.2-0.1-0.5-0.3-0.6-0.5c-0.2-0.2-0.3-0.5-0.4-0.7c-0.1-0.3-0.2-0.6-0.2-1
		c0-0.4,0.1-0.7,0.2-1c0.1-0.3,0.2-0.5,0.4-0.7s0.4-0.4,0.6-0.5c0.2-0.1,0.5-0.2,0.8-0.2c0.3,0,0.5,0.1,0.7,0.2
		c0.2,0.1,0.4,0.2,0.5,0.4l-0.3,0.4c-0.1-0.1-0.3-0.2-0.4-0.3c-0.2-0.1-0.3-0.1-0.5-0.1c-0.2,0-0.4,0-0.6,0.1
		c-0.2,0.1-0.3,0.2-0.5,0.4c-0.1,0.2-0.2,0.4-0.3,0.6S267,5.4,267,5.7c0,0.3,0,0.5,0.1,0.8c0.1,0.2,0.2,0.4,0.3,0.6
		c0.1,0.2,0.3,0.3,0.4,0.4c0.2,0.1,0.4,0.1,0.6,0.1c0.2,0,0.4,0,0.6-0.1s0.3-0.2,0.5-0.4l0.3,0.4c-0.2,0.2-0.4,0.4-0.6,0.5
		C269,8,268.7,8,268.4,8z"/>
	<path d="M272.2,8c-0.3,0-0.6-0.1-0.8-0.2s-0.5-0.3-0.6-0.5c-0.2-0.2-0.3-0.5-0.4-0.7c-0.1-0.3-0.1-0.6-0.1-1c0-0.4,0.1-0.7,0.2-1
		s0.2-0.5,0.4-0.7c0.2-0.2,0.4-0.4,0.6-0.5c0.2-0.1,0.5-0.2,0.8-0.2c0.3,0,0.5,0.1,0.7,0.2c0.2,0.1,0.4,0.2,0.5,0.4l-0.3,0.4
		c-0.1-0.1-0.3-0.2-0.4-0.3c-0.2-0.1-0.3-0.1-0.5-0.1c-0.2,0-0.4,0-0.6,0.1c-0.2,0.1-0.3,0.2-0.5,0.4c-0.1,0.2-0.2,0.4-0.3,0.6
		c-0.1,0.2-0.1,0.5-0.1,0.8c0,0.3,0,0.5,0.1,0.8c0.1,0.2,0.2,0.4,0.3,0.6c0.1,0.2,0.3,0.3,0.4,0.4c0.2,0.1,0.4,0.1,0.6,0.1
		c0.2,0,0.4,0,0.6-0.1s0.3-0.2,0.5-0.4l0.3,0.4c-0.2,0.2-0.4,0.4-0.6,0.5C272.8,8,272.5,8,272.2,8z"/>
	<path d="M275.5,8c-0.2,0-0.3,0-0.5-0.1c-0.1,0-0.3-0.1-0.4-0.1c-0.1-0.1-0.2-0.1-0.3-0.2c-0.1-0.1-0.2-0.2-0.3-0.2l0.3-0.4
		c0.1,0.1,0.3,0.3,0.5,0.4c0.2,0.1,0.4,0.2,0.7,0.2c0.3,0,0.5-0.1,0.7-0.2c0.2-0.1,0.3-0.3,0.3-0.6c0-0.1,0-0.3-0.1-0.4
		c0-0.1-0.1-0.2-0.2-0.3C276,6,275.8,6,275.7,5.9s-0.4-0.1-0.7-0.1V5.4c0.2,0,0.4,0,0.6-0.1c0.2,0,0.3-0.1,0.4-0.2
		c0.1-0.1,0.2-0.2,0.2-0.3c0-0.1,0.1-0.2,0.1-0.3c0-0.2-0.1-0.4-0.2-0.5c-0.1-0.1-0.3-0.2-0.6-0.2c-0.2,0-0.4,0-0.5,0.1
		s-0.3,0.2-0.4,0.3L274.2,4c0.2-0.2,0.4-0.3,0.6-0.4c0.2-0.1,0.4-0.2,0.7-0.2c0.2,0,0.4,0,0.5,0.1c0.2,0.1,0.3,0.1,0.4,0.2
		c0.1,0.1,0.2,0.2,0.3,0.4c0.1,0.1,0.1,0.3,0.1,0.5c0,0.3-0.1,0.5-0.2,0.7s-0.3,0.3-0.6,0.4v0c0.1,0,0.3,0.1,0.4,0.1
		s0.2,0.1,0.3,0.2c0.1,0.1,0.2,0.2,0.2,0.3s0.1,0.3,0.1,0.4c0,0.2,0,0.4-0.1,0.5c-0.1,0.2-0.2,0.3-0.3,0.4c-0.1,0.1-0.3,0.2-0.5,0.3
		C275.9,8,275.7,8,275.5,8z"/>
	<path d="M279,8c-0.2,0-0.3,0-0.5-0.1s-0.3-0.1-0.4-0.1s-0.2-0.1-0.3-0.2c-0.1-0.1-0.2-0.2-0.3-0.2l0.3-0.4c0.1,0.1,0.3,0.3,0.5,0.4
		s0.4,0.2,0.7,0.2c0.3,0,0.5-0.1,0.7-0.2c0.2-0.1,0.3-0.3,0.3-0.6c0-0.1,0-0.3-0.1-0.4c0-0.1-0.1-0.2-0.2-0.3
		c-0.1-0.1-0.3-0.1-0.4-0.2s-0.4-0.1-0.7-0.1V5.4c0.2,0,0.4,0,0.6-0.1c0.2,0,0.3-0.1,0.4-0.2c0.1-0.1,0.2-0.2,0.2-0.3
		s0.1-0.2,0.1-0.3c0-0.2-0.1-0.4-0.2-0.5s-0.3-0.2-0.6-0.2c-0.2,0-0.4,0-0.5,0.1s-0.3,0.2-0.4,0.3L277.7,4c0.2-0.2,0.4-0.3,0.6-0.4
		c0.2-0.1,0.4-0.2,0.7-0.2c0.2,0,0.4,0,0.5,0.1c0.2,0.1,0.3,0.1,0.4,0.2c0.1,0.1,0.2,0.2,0.3,0.4c0.1,0.1,0.1,0.3,0.1,0.5
		c0,0.3-0.1,0.5-0.2,0.7c-0.1,0.2-0.3,0.3-0.6,0.4v0c0.1,0,0.3,0.1,0.4,0.1c0.1,0.1,0.2,0.1,0.3,0.2c0.1,0.1,0.2,0.2,0.2,0.3
		s0.1,0.3,0.1,0.4c0,0.2,0,0.4-0.1,0.5c-0.1,0.2-0.2,0.3-0.3,0.4c-0.1,0.1-0.3,0.2-0.5,0.3C279.4,8,279.2,8,279,8z"/>
</g>
<g class="st13">
	<path d="M255.6,57.5l0.2-1.4h-0.6v-0.4h0.6l0.1-1h-0.6v-0.4h0.6l0.2-1.3h0.4l-0.2,1.3h0.9l0.2-1.3h0.4l-0.2,1.3h0.6v0.4h-0.6
		l-0.1,1h0.6V56h-0.6l-0.2,1.4h-0.4l0.2-1.4h-0.9l-0.2,1.4H255.6z M256.2,55.6h0.9l0.1-1h-0.9L256.2,55.6z"/>
	<path d="M260.1,57.5c-0.2,0-0.3,0-0.5-0.1s-0.3-0.1-0.4-0.1c-0.1-0.1-0.2-0.1-0.3-0.2c-0.1-0.1-0.2-0.1-0.3-0.2l0.3-0.4
		c0.1,0.1,0.3,0.3,0.5,0.4s0.4,0.2,0.7,0.2c0.1,0,0.3,0,0.4-0.1c0.1,0,0.2-0.1,0.3-0.2c0.1-0.1,0.2-0.2,0.2-0.3
		c0.1-0.1,0.1-0.3,0.1-0.4c0-0.3-0.1-0.5-0.3-0.7c-0.2-0.2-0.4-0.3-0.7-0.3c-0.2,0-0.3,0-0.4,0.1c-0.1,0-0.2,0.1-0.4,0.2l-0.3-0.2
		l0.1-2.1h2.2v0.5h-1.7l-0.1,1.3c0.1-0.1,0.2-0.1,0.3-0.1c0.1,0,0.2,0,0.4,0c0.2,0,0.4,0,0.5,0.1s0.3,0.1,0.4,0.3
		c0.1,0.1,0.2,0.3,0.3,0.4s0.1,0.4,0.1,0.6c0,0.2,0,0.5-0.1,0.6s-0.2,0.3-0.3,0.5c-0.1,0.1-0.3,0.2-0.5,0.3
		C260.5,57.5,260.3,57.5,260.1,57.5z"/>
	<path d="M264.3,57.5c-0.3,0-0.6-0.1-0.8-0.2s-0.5-0.3-0.6-0.5c-0.2-0.2-0.3-0.5-0.4-0.7c-0.1-0.3-0.1-0.6-0.1-1
		c0-0.4,0.1-0.7,0.2-1s0.2-0.5,0.4-0.7c0.2-0.2,0.4-0.4,0.6-0.5c0.2-0.1,0.5-0.2,0.8-0.2c0.3,0,0.5,0.1,0.7,0.2
		c0.2,0.1,0.4,0.2,0.5,0.4l-0.3,0.4c-0.1-0.1-0.3-0.2-0.4-0.3c-0.2-0.1-0.3-0.1-0.5-0.1c-0.2,0-0.4,0-0.6,0.1
		c-0.2,0.1-0.3,0.2-0.5,0.4c-0.1,0.2-0.2,0.4-0.3,0.6c-0.1,0.2-0.1,0.5-0.1,0.8c0,0.3,0,0.5,0.1,0.8c0.1,0.2,0.2,0.4,0.3,0.6
		c0.1,0.2,0.3,0.3,0.4,0.4c0.2,0.1,0.4,0.1,0.6,0.1c0.2,0,0.4,0,0.6-0.1s0.3-0.2,0.5-0.4l0.3,0.4c-0.2,0.2-0.4,0.4-0.6,0.5
		C264.9,57.5,264.6,57.5,264.3,57.5z"/>
	<path d="M267.4,57.5c-0.2,0-0.4,0-0.6-0.1s-0.3-0.2-0.5-0.3l0.3-0.4c0.1,0.1,0.2,0.2,0.3,0.3c0.1,0.1,0.3,0.1,0.4,0.1
		c0.2,0,0.3,0,0.4-0.1s0.3-0.2,0.4-0.3s0.2-0.3,0.3-0.6c0.1-0.2,0.1-0.5,0.1-0.9c-0.1,0.2-0.3,0.3-0.5,0.4s-0.4,0.2-0.6,0.2
		c-0.4,0-0.7-0.1-0.9-0.3s-0.3-0.6-0.3-1c0-0.2,0-0.4,0.1-0.6c0.1-0.2,0.2-0.3,0.3-0.5s0.3-0.2,0.4-0.3c0.2-0.1,0.3-0.1,0.5-0.1
		c0.2,0,0.4,0,0.6,0.1s0.4,0.2,0.5,0.4c0.1,0.2,0.2,0.4,0.3,0.7c0.1,0.3,0.1,0.6,0.1,0.9c0,0.4,0,0.8-0.1,1.1
		c-0.1,0.3-0.2,0.6-0.4,0.8c-0.2,0.2-0.3,0.3-0.5,0.4S267.6,57.5,267.4,57.5z M267.6,55.3c0.1,0,0.3,0,0.5-0.1
		c0.2-0.1,0.3-0.2,0.5-0.5c0-0.4-0.1-0.8-0.3-1c-0.2-0.2-0.4-0.3-0.7-0.3c-0.1,0-0.2,0-0.3,0.1c-0.1,0-0.2,0.1-0.2,0.2
		c-0.1,0.1-0.1,0.2-0.2,0.3c0,0.1-0.1,0.3-0.1,0.4c0,0.3,0.1,0.5,0.2,0.7S267.3,55.3,267.6,55.3z"/>
	<path d="M270.1,57.5v-4.6h2.6v0.5h-2.1v1.4h1.7v0.5h-1.7V57h2.1v0.5L270.1,57.5L270.1,57.5z"/>
	<path d="M274.8,57.5c-0.2,0-0.3,0-0.5-0.1s-0.3-0.1-0.4-0.1s-0.2-0.1-0.3-0.2c-0.1-0.1-0.2-0.2-0.3-0.2l0.3-0.4
		c0.1,0.1,0.3,0.3,0.5,0.4s0.4,0.2,0.7,0.2c0.3,0,0.5-0.1,0.7-0.2c0.2-0.1,0.3-0.3,0.3-0.6c0-0.1,0-0.3-0.1-0.4
		c0-0.1-0.1-0.2-0.2-0.3c-0.1-0.1-0.3-0.1-0.4-0.2s-0.4-0.1-0.7-0.1v-0.4c0.2,0,0.4,0,0.6-0.1c0.2,0,0.3-0.1,0.4-0.2
		c0.1-0.1,0.2-0.2,0.2-0.3s0.1-0.2,0.1-0.3c0-0.2-0.1-0.4-0.2-0.5s-0.3-0.2-0.6-0.2c-0.2,0-0.4,0-0.5,0.1s-0.3,0.2-0.4,0.3l-0.3-0.4
		c0.2-0.2,0.4-0.3,0.6-0.4c0.2-0.1,0.4-0.2,0.7-0.2c0.2,0,0.4,0,0.5,0.1c0.2,0.1,0.3,0.1,0.4,0.2c0.1,0.1,0.2,0.2,0.3,0.4
		c0.1,0.1,0.1,0.3,0.1,0.5c0,0.3-0.1,0.5-0.2,0.7c-0.1,0.2-0.3,0.3-0.6,0.4v0c0.1,0,0.3,0.1,0.4,0.1c0.1,0.1,0.2,0.1,0.3,0.2
		c0.1,0.1,0.2,0.2,0.2,0.3s0.1,0.3,0.1,0.4c0,0.2,0,0.4-0.1,0.5c-0.1,0.2-0.2,0.3-0.3,0.4c-0.1,0.1-0.3,0.2-0.5,0.3
		C275.2,57.5,275,57.5,274.8,57.5z"/>
	<path d="M277.2,57.5V57h1v-3.3h-0.8v-0.4c0.2,0,0.4-0.1,0.5-0.1c0.2-0.1,0.3-0.1,0.4-0.2h0.4v4h0.9v0.5H277.2z"/>
</g>
<g class="st13">
	<path d="M355.6,8l0.2-1.4h-0.6V6.1h0.6l0.1-1h-0.6V4.7h0.6l0.2-1.3h0.4l-0.2,1.3h0.9l0.2-1.3h0.4l-0.2,1.3h0.6v0.4h-0.6l-0.1,1h0.6
		v0.4h-0.6L357.3,8h-0.4l0.2-1.4h-0.9L356,8L355.6,8L355.6,8z M356.2,6.1h0.9l0.1-1h-0.9L356.2,6.1z"/>
	<path d="M359.1,8V3.4h2.6v0.5h-2.1v1.6h1.8v0.5h-1.8V8C359.7,8,359.1,8,359.1,8z"/>
	<path d="M364.2,8c-0.3,0-0.6-0.1-0.8-0.2c-0.2-0.1-0.5-0.3-0.6-0.5c-0.2-0.2-0.3-0.5-0.4-0.7c-0.1-0.3-0.1-0.6-0.1-1
		c0-0.4,0.1-0.7,0.2-1c0.1-0.3,0.2-0.5,0.4-0.7c0.2-0.2,0.4-0.4,0.6-0.5c0.2-0.1,0.5-0.2,0.8-0.2c0.3,0,0.5,0.1,0.7,0.2
		c0.2,0.1,0.4,0.2,0.5,0.4l-0.3,0.4c-0.1-0.1-0.3-0.2-0.4-0.3s-0.3-0.1-0.5-0.1c-0.2,0-0.4,0-0.6,0.1c-0.2,0.1-0.3,0.2-0.5,0.4
		c-0.1,0.2-0.2,0.4-0.3,0.6c-0.1,0.2-0.1,0.5-0.1,0.8c0,0.3,0,0.5,0.1,0.8c0.1,0.2,0.2,0.4,0.3,0.6c0.1,0.2,0.3,0.3,0.4,0.4
		c0.2,0.1,0.4,0.1,0.6,0.1c0.2,0,0.4,0,0.6-0.1s0.3-0.2,0.5-0.4l0.3,0.4c-0.2,0.2-0.4,0.4-0.6,0.5C364.8,8,364.5,8,364.2,8z"/>
	<path d="M366.5,8V3.4h2.6v0.5h-2.1v1.4h1.7v0.5h-1.7v1.7h2.1V8L366.5,8L366.5,8z"/>
	<path d="M369.6,8l1.6-4.6h0.7l1.6,4.6h-0.6l-0.4-1.4h-1.7L370.2,8H369.6z M371,5.4l-0.2,0.7h1.4l-0.2-0.7c-0.1-0.3-0.2-0.5-0.2-0.8
		c-0.1-0.3-0.1-0.5-0.2-0.8h0c-0.1,0.3-0.1,0.5-0.2,0.8C371.1,4.9,371.1,5.1,371,5.4z"/>
	<path d="M373.6,8V7.6c0.3-0.3,0.6-0.6,0.9-0.9c0.3-0.3,0.5-0.5,0.7-0.8c0.2-0.2,0.3-0.4,0.4-0.6c0.1-0.2,0.1-0.4,0.1-0.6
		c0-0.3-0.1-0.5-0.2-0.6s-0.4-0.2-0.6-0.2c-0.2,0-0.4,0.1-0.5,0.2c-0.2,0.1-0.3,0.2-0.4,0.4l-0.3-0.3c0.2-0.2,0.4-0.4,0.6-0.5
		c0.2-0.1,0.5-0.2,0.8-0.2c0.4,0,0.7,0.1,1,0.4s0.4,0.6,0.4,1c0,0.2,0,0.4-0.1,0.6c-0.1,0.2-0.2,0.4-0.4,0.7
		c-0.2,0.2-0.4,0.5-0.6,0.7s-0.5,0.5-0.7,0.8c0.1,0,0.2,0,0.4,0c0.1,0,0.3,0,0.4,0h1.3V8L373.6,8L373.6,8z"/>
	<path d="M377.5,8V3.4h1.4c0.2,0,0.4,0,0.6,0.1s0.4,0.1,0.5,0.2s0.2,0.2,0.3,0.3s0.1,0.3,0.1,0.5c0,0.2-0.1,0.4-0.2,0.6
		c-0.1,0.2-0.3,0.3-0.5,0.4v0c0.3,0.1,0.5,0.2,0.7,0.4c0.2,0.2,0.3,0.4,0.3,0.7c0,0.2,0,0.4-0.1,0.6s-0.2,0.3-0.4,0.4
		s-0.3,0.2-0.6,0.3c-0.2,0.1-0.4,0.1-0.7,0.1C378.9,8,377.5,8,377.5,8z M378.1,5.3h0.7c0.4,0,0.7-0.1,0.8-0.2
		c0.2-0.1,0.3-0.3,0.3-0.6c0-0.3-0.1-0.5-0.3-0.6s-0.4-0.2-0.8-0.2h-0.7V5.3z M378.1,7.5h0.8c0.4,0,0.7-0.1,0.9-0.2
		c0.2-0.1,0.3-0.4,0.3-0.7c0-0.3-0.1-0.5-0.3-0.6s-0.5-0.2-0.9-0.2h-0.8V7.5z"/>
</g>
<g class="st13">
	<path d="M355.6,57.5l0.2-1.4h-0.6v-0.4h0.6l0.1-1h-0.6v-0.4h0.6l0.2-1.3h0.4l-0.2,1.3h0.9l0.2-1.3h0.4l-0.2,1.3h0.6v0.4h-0.6
		l-0.1,1h0.6V56h-0.6l-0.2,1.4h-0.4l0.2-1.4h-0.9l-0.2,1.4H355.6z M356.2,55.6h0.9l0.1-1h-0.9L356.2,55.6z"/>
	<path d="M359.1,57.5v-4.6h2.6v0.5h-2.1v1.6h1.8v0.5h-1.8v2.1C359.7,57.5,359.1,57.5,359.1,57.5z"/>
	<path d="M362.5,57.5V57h1v-3.3h-0.8v-0.4c0.2,0,0.4-0.1,0.5-0.1c0.2-0.1,0.3-0.1,0.4-0.2h0.4v4h0.9v0.5H362.5z"/>
	<path d="M366,57.5v-4.6h1.4c0.2,0,0.4,0,0.6,0.1s0.4,0.1,0.5,0.2s0.2,0.2,0.3,0.3s0.1,0.3,0.1,0.5c0,0.2-0.1,0.4-0.2,0.6
		c-0.1,0.2-0.3,0.3-0.5,0.4v0c0.3,0.1,0.5,0.2,0.7,0.4c0.2,0.2,0.3,0.4,0.3,0.7c0,0.2,0,0.4-0.1,0.6s-0.2,0.3-0.4,0.4
		s-0.3,0.2-0.6,0.3c-0.2,0.1-0.4,0.1-0.7,0.1H366z M366.6,54.8h0.7c0.4,0,0.7-0.1,0.8-0.2c0.2-0.1,0.3-0.3,0.3-0.6
		c0-0.3-0.1-0.5-0.3-0.6s-0.4-0.2-0.8-0.2h-0.7V54.8z M366.6,57h0.8c0.4,0,0.7-0.1,0.9-0.2c0.2-0.1,0.3-0.4,0.3-0.7
		c0-0.3-0.1-0.5-0.3-0.6s-0.5-0.2-0.9-0.2h-0.8V57z"/>
	<path d="M371.2,57.5c-0.2,0-0.3,0-0.5-0.1c-0.1,0-0.3-0.1-0.4-0.1c-0.1-0.1-0.2-0.1-0.3-0.2c-0.1-0.1-0.2-0.2-0.3-0.2l0.3-0.4
		c0.1,0.1,0.3,0.3,0.5,0.4c0.2,0.1,0.4,0.2,0.7,0.2c0.3,0,0.5-0.1,0.7-0.2s0.3-0.3,0.3-0.6c0-0.1,0-0.3-0.1-0.4
		c0-0.1-0.1-0.2-0.2-0.3c-0.1-0.1-0.3-0.1-0.4-0.2s-0.4-0.1-0.7-0.1v-0.4c0.2,0,0.4,0,0.6-0.1c0.2,0,0.3-0.1,0.4-0.2
		c0.1-0.1,0.2-0.2,0.2-0.3c0-0.1,0.1-0.2,0.1-0.3c0-0.2-0.1-0.4-0.2-0.5c-0.1-0.1-0.3-0.2-0.6-0.2c-0.2,0-0.4,0-0.5,0.1
		s-0.3,0.2-0.4,0.3l-0.3-0.4c0.2-0.2,0.4-0.3,0.6-0.4c0.2-0.1,0.4-0.2,0.7-0.2c0.2,0,0.4,0,0.5,0.1c0.2,0.1,0.3,0.1,0.4,0.2
		c0.1,0.1,0.2,0.2,0.3,0.4c0.1,0.1,0.1,0.3,0.1,0.5c0,0.3-0.1,0.5-0.2,0.7s-0.3,0.3-0.6,0.4v0c0.1,0,0.3,0.1,0.4,0.1
		s0.2,0.1,0.3,0.2c0.1,0.1,0.2,0.2,0.2,0.3s0.1,0.3,0.1,0.4c0,0.2,0,0.4-0.1,0.5c-0.1,0.2-0.2,0.3-0.3,0.4c-0.1,0.1-0.3,0.2-0.5,0.3
		C371.6,57.5,371.4,57.5,371.2,57.5z"/>
	<path d="M373.6,57.5V57h1v-3.3h-0.8v-0.4c0.2,0,0.4-0.1,0.5-0.1c0.2-0.1,0.3-0.1,0.4-0.2h0.4v4h0.9v0.5H373.6z"/>
	<path d="M378.9,57.5c-0.3,0-0.6-0.1-0.8-0.2c-0.2-0.1-0.5-0.3-0.6-0.5c-0.2-0.2-0.3-0.5-0.4-0.7c-0.1-0.3-0.1-0.6-0.1-1
		c0-0.4,0.1-0.7,0.2-1c0.1-0.3,0.2-0.5,0.4-0.7c0.2-0.2,0.4-0.4,0.6-0.5c0.2-0.1,0.5-0.2,0.8-0.2c0.3,0,0.5,0.1,0.7,0.2
		c0.2,0.1,0.4,0.2,0.5,0.4l-0.3,0.4c-0.1-0.1-0.3-0.2-0.4-0.3s-0.3-0.1-0.5-0.1c-0.2,0-0.4,0-0.6,0.1c-0.2,0.1-0.3,0.2-0.5,0.4
		c-0.1,0.2-0.2,0.4-0.3,0.6c-0.1,0.2-0.1,0.5-0.1,0.8c0,0.3,0,0.5,0.1,0.8c0.1,0.2,0.2,0.4,0.3,0.6c0.1,0.2,0.3,0.3,0.4,0.4
		c0.2,0.1,0.4,0.1,0.6,0.1c0.2,0,0.4,0,0.6-0.1s0.3-0.2,0.5-0.4l0.3,0.4c-0.2,0.2-0.4,0.4-0.6,0.5C379.4,57.5,379.2,57.5,378.9,57.5
		z"/>
</g>
<g class="st13">
	<path d="M55.6,138l0.2-1.4h-0.6v-0.4h0.6l0.1-1h-0.6v-0.4H56l0.2-1.3h0.4l-0.2,1.3h0.9l0.2-1.3h0.4l-0.2,1.3h0.6v0.4h-0.6l-0.1,1
		h0.6v0.4h-0.6l-0.2,1.4h-0.4l0.2-1.4h-0.9L56,138H55.6z M56.2,136.1h0.9l0.1-1h-0.9L56.2,136.1z"/>
	<path d="M59.1,138v-4.6h1.1c0.7,0,1.2,0.2,1.6,0.6c0.4,0.4,0.6,1,0.6,1.7c0,0.4,0,0.7-0.1,1c-0.1,0.3-0.2,0.5-0.4,0.7
		s-0.4,0.3-0.7,0.5c-0.3,0.1-0.6,0.2-0.9,0.2L59.1,138L59.1,138z M59.7,137.5h0.5c0.5,0,0.9-0.2,1.2-0.5c0.3-0.3,0.4-0.8,0.4-1.4
		c0-0.6-0.1-1-0.4-1.3c-0.3-0.3-0.7-0.5-1.2-0.5h-0.5V137.5z"/>
	<path d="M64.5,138c-0.5,0-0.8-0.2-1.1-0.6s-0.4-1-0.4-1.7c0-0.8,0.1-1.3,0.4-1.7s0.6-0.6,1.1-0.6c0.4,0,0.8,0.2,1.1,0.6
		s0.4,1,0.4,1.7c0,0.8-0.1,1.3-0.4,1.7S65,138,64.5,138z M64.5,137.6c0.1,0,0.2,0,0.4-0.1s0.2-0.2,0.3-0.3s0.1-0.3,0.2-0.6
		c0-0.2,0.1-0.5,0.1-0.8c0-0.3,0-0.6-0.1-0.8s-0.1-0.4-0.2-0.6c-0.1-0.1-0.2-0.3-0.3-0.3c-0.1-0.1-0.2-0.1-0.4-0.1s-0.2,0-0.4,0.1
		c-0.1,0.1-0.2,0.2-0.3,0.3c-0.1,0.1-0.1,0.3-0.2,0.6s-0.1,0.5-0.1,0.8c0,0.7,0.1,1.1,0.2,1.4C64.1,137.4,64.3,137.6,64.5,137.6z"/>
	<path d="M68.6,138c-0.3,0-0.6-0.1-0.8-0.2s-0.5-0.3-0.6-0.5c-0.2-0.2-0.3-0.5-0.4-0.7c-0.1-0.3-0.2-0.6-0.2-1c0-0.4,0.1-0.7,0.2-1
		s0.2-0.5,0.4-0.7s0.4-0.4,0.6-0.5c0.2-0.1,0.5-0.2,0.8-0.2c0.3,0,0.5,0.1,0.7,0.2c0.2,0.1,0.4,0.2,0.5,0.4l-0.3,0.4
		c-0.1-0.1-0.3-0.2-0.4-0.3c-0.2-0.1-0.3-0.1-0.5-0.1c-0.2,0-0.4,0-0.6,0.1c-0.2,0.1-0.3,0.2-0.5,0.4c-0.1,0.2-0.2,0.4-0.3,0.6
		c-0.1,0.2-0.1,0.5-0.1,0.8c0,0.3,0,0.5,0.1,0.8c0.1,0.2,0.2,0.4,0.3,0.6c0.1,0.2,0.3,0.3,0.4,0.4c0.2,0.1,0.4,0.1,0.6,0.1
		c0.2,0,0.4,0,0.6-0.1s0.3-0.2,0.5-0.4l0.3,0.4c-0.2,0.2-0.4,0.4-0.6,0.5C69.2,138,68.9,138,68.6,138z"/>
	<path d="M70.9,138v-4.6h2.6v0.5h-2.1v1.6h1.8v0.5h-1.8v2.1C71.5,138,70.9,138,70.9,138z"/>
	<path d="M76,138c-0.3,0-0.6-0.1-0.8-0.2s-0.5-0.3-0.6-0.5c-0.2-0.2-0.3-0.5-0.4-0.7c-0.1-0.3-0.2-0.6-0.2-1c0-0.4,0.1-0.7,0.2-1
		s0.2-0.5,0.4-0.7s0.4-0.4,0.6-0.5c0.2-0.1,0.5-0.2,0.8-0.2c0.3,0,0.5,0.1,0.7,0.2c0.2,0.1,0.4,0.2,0.5,0.4l-0.3,0.4
		c-0.1-0.1-0.3-0.2-0.4-0.3c-0.2-0.1-0.3-0.1-0.5-0.1c-0.2,0-0.4,0-0.6,0.1c-0.2,0.1-0.3,0.2-0.5,0.4c-0.1,0.2-0.2,0.4-0.3,0.6
		c-0.1,0.2-0.1,0.5-0.1,0.8c0,0.3,0,0.5,0.1,0.8c0.1,0.2,0.2,0.4,0.3,0.6c0.1,0.2,0.3,0.3,0.4,0.4c0.2,0.1,0.4,0.1,0.6,0.1
		c0.2,0,0.4,0,0.6-0.1s0.3-0.2,0.5-0.4l0.3,0.4c-0.2,0.2-0.4,0.4-0.6,0.5C76.6,138,76.3,138,76,138z"/>
	<path d="M78.3,138v-4.6h2.6v0.5h-2.1v1.4h1.7v0.5h-1.7v1.7H81v0.5L78.3,138L78.3,138z"/>
</g>
<g class="st13">
	<path d="M55.6,212.3l0.2-1.4h-0.6v-0.4h0.6l0.1-1h-0.6V209H56l0.2-1.3h0.4l-0.2,1.3h0.9l0.2-1.3h0.4l-0.2,1.3h0.6v0.4h-0.6l-0.1,1
		h0.6v0.4h-0.6l-0.2,1.4h-0.4l0.2-1.4h-0.9l-0.2,1.4H55.6z M56.2,210.5h0.9l0.1-1h-0.9L56.2,210.5z"/>
	<path d="M60.5,212.4c-0.5,0-0.8-0.2-1.1-0.6c-0.3-0.4-0.4-1-0.4-1.7s0.1-1.3,0.4-1.7s0.6-0.6,1.1-0.6c0.4,0,0.8,0.2,1.1,0.6
		s0.4,1,0.4,1.7c0,0.8-0.1,1.3-0.4,1.7C61.3,212.2,61,212.4,60.5,212.4z M60.5,211.9c0.1,0,0.2,0,0.4-0.1c0.1-0.1,0.2-0.2,0.3-0.3
		s0.1-0.3,0.2-0.6s0.1-0.5,0.1-0.8c0-0.3,0-0.6-0.1-0.8c0-0.2-0.1-0.4-0.2-0.6c-0.1-0.1-0.2-0.3-0.3-0.3c-0.1-0.1-0.2-0.1-0.4-0.1
		s-0.2,0-0.4,0.1c-0.1,0.1-0.2,0.2-0.3,0.3c-0.1,0.1-0.1,0.3-0.2,0.6s-0.1,0.5-0.1,0.8c0,0.7,0.1,1.1,0.2,1.4
		C60.1,211.8,60.3,211.9,60.5,211.9z"/>
	<path d="M64.2,212.4c-0.5,0-0.8-0.2-1.1-0.6c-0.3-0.4-0.4-1-0.4-1.7s0.1-1.3,0.4-1.7s0.6-0.6,1.1-0.6c0.4,0,0.8,0.2,1.1,0.6
		s0.4,1,0.4,1.7c0,0.8-0.1,1.3-0.4,1.7C65,212.2,64.6,212.4,64.2,212.4z M64.2,211.9c0.1,0,0.2,0,0.4-0.1c0.1-0.1,0.2-0.2,0.3-0.3
		s0.1-0.3,0.2-0.6s0.1-0.5,0.1-0.8c0-0.3,0-0.6-0.1-0.8c0-0.2-0.1-0.4-0.2-0.6c-0.1-0.1-0.2-0.3-0.3-0.3c-0.1-0.1-0.2-0.1-0.4-0.1
		s-0.2,0-0.4,0.1c-0.1,0.1-0.2,0.2-0.3,0.3c-0.1,0.1-0.1,0.3-0.2,0.6s-0.1,0.5-0.1,0.8c0,0.7,0.1,1.1,0.2,1.4
		C63.7,211.8,63.9,211.9,64.2,211.9z"/>
	<path d="M67.8,212.4c-0.5,0-0.8-0.2-1.1-0.6c-0.3-0.4-0.4-1-0.4-1.7s0.1-1.3,0.4-1.7s0.6-0.6,1.1-0.6c0.4,0,0.8,0.2,1.1,0.6
		s0.4,1,0.4,1.7c0,0.8-0.1,1.3-0.4,1.7C68.6,212.2,68.2,212.4,67.8,212.4z M67.8,211.9c0.1,0,0.2,0,0.4-0.1c0.1-0.1,0.2-0.2,0.3-0.3
		s0.1-0.3,0.2-0.6s0.1-0.5,0.1-0.8c0-0.3,0-0.6-0.1-0.8c0-0.2-0.1-0.4-0.2-0.6c-0.1-0.1-0.2-0.3-0.3-0.3c-0.1-0.1-0.2-0.1-0.4-0.1
		s-0.2,0-0.4,0.1c-0.1,0.1-0.2,0.2-0.3,0.3c-0.1,0.1-0.1,0.3-0.2,0.6s-0.1,0.5-0.1,0.8c0,0.7,0.1,1.1,0.2,1.4
		C67.3,211.8,67.5,211.9,67.8,211.9z"/>
	<path d="M71.4,212.4c-0.5,0-0.8-0.2-1.1-0.6c-0.3-0.4-0.4-1-0.4-1.7s0.1-1.3,0.4-1.7s0.6-0.6,1.1-0.6c0.4,0,0.8,0.2,1.1,0.6
		s0.4,1,0.4,1.7c0,0.8-0.1,1.3-0.4,1.7C72.2,212.2,71.9,212.4,71.4,212.4z M71.4,211.9c0.1,0,0.2,0,0.4-0.1c0.1-0.1,0.2-0.2,0.3-0.3
		s0.1-0.3,0.2-0.6s0.1-0.5,0.1-0.8c0-0.3,0-0.6-0.1-0.8c0-0.2-0.1-0.4-0.2-0.6c-0.1-0.1-0.2-0.3-0.3-0.3c-0.1-0.1-0.2-0.1-0.4-0.1
		s-0.2,0-0.4,0.1c-0.1,0.1-0.2,0.2-0.3,0.3c-0.1,0.1-0.1,0.3-0.2,0.6s-0.1,0.5-0.1,0.8c0,0.7,0.1,1.1,0.2,1.4
		C71,211.8,71.2,211.9,71.4,211.9z"/>
	<path d="M75.1,212.4c-0.5,0-0.8-0.2-1.1-0.6c-0.3-0.4-0.4-1-0.4-1.7s0.1-1.3,0.4-1.7s0.6-0.6,1.1-0.6c0.4,0,0.8,0.2,1.1,0.6
		s0.4,1,0.4,1.7c0,0.8-0.1,1.3-0.4,1.7C75.8,212.2,75.5,212.4,75.1,212.4z M75.1,211.9c0.1,0,0.2,0,0.4-0.1c0.1-0.1,0.2-0.2,0.3-0.3
		s0.1-0.3,0.2-0.6s0.1-0.5,0.1-0.8c0-0.3,0-0.6-0.1-0.8c0-0.2-0.1-0.4-0.2-0.6c-0.1-0.1-0.2-0.3-0.3-0.3c-0.1-0.1-0.2-0.1-0.4-0.1
		s-0.2,0-0.4,0.1c-0.1,0.1-0.2,0.2-0.3,0.3c-0.1,0.1-0.1,0.3-0.2,0.6s-0.1,0.5-0.1,0.8c0,0.7,0.1,1.1,0.2,1.4
		C74.6,211.8,74.8,211.9,75.1,211.9z"/>
	<path d="M78.7,212.4c-0.5,0-0.8-0.2-1.1-0.6c-0.3-0.4-0.4-1-0.4-1.7s0.1-1.3,0.4-1.7s0.6-0.6,1.1-0.6c0.4,0,0.8,0.2,1.1,0.6
		s0.4,1,0.4,1.7c0,0.8-0.1,1.3-0.4,1.7C79.5,212.2,79.1,212.4,78.7,212.4z M78.7,211.9c0.1,0,0.2,0,0.4-0.1c0.1-0.1,0.2-0.2,0.3-0.3
		s0.1-0.3,0.2-0.6s0.1-0.5,0.1-0.8c0-0.3,0-0.6-0.1-0.8c0-0.2-0.1-0.4-0.2-0.6c-0.1-0.1-0.2-0.3-0.3-0.3c-0.1-0.1-0.2-0.1-0.4-0.1
		s-0.2,0-0.4,0.1c-0.1,0.1-0.2,0.2-0.3,0.3c-0.1,0.1-0.1,0.3-0.2,0.6s-0.1,0.5-0.1,0.8c0,0.7,0.1,1.1,0.2,1.4
		C78.2,211.8,78.4,211.9,78.7,211.9z"/>
</g>
<g class="st13">
	<path d="M55.6,113.1l0.2-1.4h-0.6v-0.4h0.6l0.1-1h-0.6v-0.4H56l0.2-1.3h0.4l-0.2,1.3h0.9l0.2-1.3h0.4l-0.2,1.3h0.6v0.4h-0.6l-0.1,1
		h0.6v0.4h-0.6l-0.2,1.4h-0.4l0.2-1.4h-0.9l-0.2,1.4H55.6z M56.2,111.3h0.9l0.1-1h-0.9L56.2,111.3z"/>
	<path d="M59.1,113.1v-4.6h2.6v0.5h-2.1v1.6h1.8v0.5h-1.8v2.1C59.7,113.1,59.1,113.1,59.1,113.1z"/>
	<path d="M62.7,113.1v-4.6h2.6v0.5h-2.1v1.6h1.8v0.5h-1.8v2.1C63.3,113.1,62.7,113.1,62.7,113.1z"/>
	<path d="M66.4,113.1v-4.6H69v0.5H67v1.6h1.8v0.5H67v2.1C67,113.1,66.4,113.1,66.4,113.1z"/>
	<path d="M70,113.1v-4.6h2.6v0.5h-2.1v1.6h1.8v0.5h-1.8v2.1C70.6,113.1,70,113.1,70,113.1z"/>
	<path d="M73.7,113.1v-4.6h2.6v0.5h-2.1v1.6H76v0.5h-1.8v2.1C74.2,113.1,73.7,113.1,73.7,113.1z"/>
	<path d="M77.3,113.1v-4.6H80v0.5h-2.1v1.6h1.8v0.5h-1.8v2.1C77.9,113.1,77.3,113.1,77.3,113.1z"/>
</g>
<g class="st13">
	<path d="M55.6,187.5l0.2-1.4h-0.6v-0.4h0.6l0.1-1h-0.6v-0.4H56l0.2-1.3h0.4l-0.2,1.3h0.9l0.2-1.3h0.4l-0.2,1.3h0.6v0.4h-0.6l-0.1,1
		h0.6v0.4h-0.6l-0.2,1.4h-0.4l0.2-1.4h-0.9l-0.2,1.4H55.6z M56.2,185.6h0.9l0.1-1h-0.9L56.2,185.6z"/>
	<path d="M60.1,187.5c-0.2,0-0.3,0-0.5-0.1s-0.3-0.1-0.4-0.1c-0.1-0.1-0.2-0.1-0.3-0.2c-0.1-0.1-0.2-0.2-0.3-0.2l0.3-0.4
		c0.1,0.1,0.3,0.3,0.5,0.4c0.2,0.1,0.4,0.2,0.7,0.2c0.3,0,0.5-0.1,0.7-0.2c0.2-0.1,0.3-0.3,0.3-0.6c0-0.1,0-0.3-0.1-0.4
		c0-0.1-0.1-0.2-0.2-0.3c-0.1-0.1-0.3-0.1-0.4-0.2c-0.2,0-0.4-0.1-0.7-0.1v-0.4c0.2,0,0.4,0,0.6-0.1c0.2,0,0.3-0.1,0.4-0.2
		c0.1-0.1,0.2-0.2,0.2-0.3s0.1-0.2,0.1-0.3c0-0.2-0.1-0.4-0.2-0.5s-0.3-0.2-0.6-0.2c-0.2,0-0.4,0-0.5,0.1c-0.2,0.1-0.3,0.2-0.4,0.3
		l-0.3-0.4c0.2-0.2,0.4-0.3,0.6-0.4c0.2-0.1,0.4-0.2,0.7-0.2c0.2,0,0.4,0,0.5,0.1c0.2,0.1,0.3,0.1,0.4,0.2c0.1,0.1,0.2,0.2,0.3,0.4
		c0.1,0.1,0.1,0.3,0.1,0.5c0,0.3-0.1,0.5-0.2,0.7c-0.1,0.2-0.3,0.3-0.6,0.4v0c0.1,0,0.3,0.1,0.4,0.1c0.1,0.1,0.2,0.1,0.3,0.2
		c0.1,0.1,0.2,0.2,0.2,0.3s0.1,0.3,0.1,0.4c0,0.2,0,0.4-0.1,0.5c-0.1,0.2-0.2,0.3-0.3,0.4c-0.1,0.1-0.3,0.2-0.5,0.3
		C60.5,187.5,60.3,187.5,60.1,187.5z"/>
	<path d="M62.6,187.5v-4.6h2.6v0.5h-2.1v1.6h1.7v0.5h-1.8v2.1L62.6,187.5L62.6,187.5z"/>
	<path d="M67.1,187.5c-0.2,0-0.3,0-0.5-0.1s-0.3-0.1-0.4-0.1c-0.1-0.1-0.2-0.1-0.3-0.2c-0.1-0.1-0.2-0.2-0.3-0.2l0.3-0.4
		c0.1,0.1,0.3,0.3,0.5,0.4c0.2,0.1,0.4,0.2,0.7,0.2c0.3,0,0.5-0.1,0.7-0.2c0.2-0.1,0.3-0.3,0.3-0.6c0-0.1,0-0.3-0.1-0.4
		c0-0.1-0.1-0.2-0.2-0.3c-0.1-0.1-0.3-0.1-0.4-0.2s-0.4-0.1-0.7-0.1v-0.4c0.2,0,0.4,0,0.6-0.1c0.2,0,0.3-0.1,0.4-0.2
		c0.1-0.1,0.2-0.2,0.2-0.3s0.1-0.2,0.1-0.3c0-0.2-0.1-0.4-0.2-0.5s-0.3-0.2-0.6-0.2c-0.2,0-0.4,0-0.5,0.1c-0.2,0.1-0.3,0.2-0.4,0.3
		l-0.3-0.4c0.2-0.2,0.4-0.3,0.6-0.4c0.2-0.1,0.4-0.2,0.7-0.2c0.2,0,0.4,0,0.5,0.1c0.2,0.1,0.3,0.1,0.4,0.2c0.1,0.1,0.2,0.2,0.3,0.4
		c0.1,0.1,0.1,0.3,0.1,0.5c0,0.3-0.1,0.5-0.2,0.7c-0.1,0.2-0.3,0.3-0.6,0.4v0c0.1,0,0.3,0.1,0.4,0.1s0.2,0.1,0.3,0.2
		c0.1,0.1,0.2,0.2,0.2,0.3s0.1,0.3,0.1,0.4c0,0.2,0,0.4-0.1,0.5c-0.1,0.2-0.2,0.3-0.3,0.4c-0.1,0.1-0.3,0.2-0.5,0.3
		C67.5,187.5,67.3,187.5,67.1,187.5z"/>
	<path d="M69.5,187.5v-4.6h2.6v0.5h-2.1v1.6h1.8v0.5h-1.8v2.1L69.5,187.5L69.5,187.5z"/>
	<path d="M74,187.5c-0.2,0-0.3,0-0.5-0.1s-0.3-0.1-0.4-0.1c-0.1-0.1-0.2-0.1-0.3-0.2c-0.1-0.1-0.2-0.2-0.3-0.2l0.3-0.4
		c0.1,0.1,0.3,0.3,0.5,0.4c0.2,0.1,0.4,0.2,0.7,0.2c0.3,0,0.5-0.1,0.7-0.2c0.2-0.1,0.3-0.3,0.3-0.6c0-0.1,0-0.3-0.1-0.4
		c0-0.1-0.1-0.2-0.2-0.3c-0.1-0.1-0.3-0.1-0.4-0.2s-0.4-0.1-0.7-0.1v-0.4c0.2,0,0.4,0,0.6-0.1c0.2,0,0.3-0.1,0.4-0.2
		c0.1-0.1,0.2-0.2,0.2-0.3s0.1-0.2,0.1-0.3c0-0.2-0.1-0.4-0.2-0.5s-0.3-0.2-0.6-0.2c-0.2,0-0.4,0-0.5,0.1c-0.2,0.1-0.3,0.2-0.4,0.3
		l-0.3-0.4c0.2-0.2,0.4-0.3,0.6-0.4c0.2-0.1,0.4-0.2,0.7-0.2c0.2,0,0.4,0,0.5,0.1c0.2,0.1,0.3,0.1,0.4,0.2c0.1,0.1,0.2,0.2,0.3,0.4
		c0.1,0.1,0.1,0.3,0.1,0.5c0,0.3-0.1,0.5-0.2,0.7c-0.1,0.2-0.3,0.3-0.6,0.4v0c0.1,0,0.3,0.1,0.4,0.1s0.2,0.1,0.3,0.2
		c0.1,0.1,0.2,0.2,0.2,0.3s0.1,0.3,0.1,0.4c0,0.2,0,0.4-0.1,0.5c-0.1,0.2-0.2,0.3-0.3,0.4c-0.1,0.1-0.3,0.2-0.5,0.3
		C74.4,187.5,74.2,187.5,74,187.5z"/>
	<path d="M76.5,187.5v-4.6h2.6v0.5H77v1.6h1.8v0.5H77v2.1L76.5,187.5L76.5,187.5z"/>
</g>
<g class="st13">
	<path d="M55.6,162.7l0.2-1.4h-0.6v-0.4h0.6l0.1-1h-0.6v-0.4H56l0.2-1.3h0.4l-0.2,1.3h0.9l0.2-1.3h0.4l-0.2,1.3h0.6v0.4h-0.6l-0.1,1
		h0.6v0.4h-0.6l-0.2,1.4h-0.4l0.2-1.4h-0.9l-0.2,1.4H55.6z M56.2,160.9h0.9l0.1-1h-0.9L56.2,160.9z"/>
	<path d="M59.9,162.8c-0.2,0-0.4,0-0.6-0.1s-0.3-0.2-0.5-0.3l0.3-0.4c0.1,0.1,0.2,0.2,0.3,0.3c0.1,0.1,0.3,0.1,0.4,0.1
		c0.2,0,0.3,0,0.4-0.1c0.1-0.1,0.3-0.2,0.4-0.3s0.2-0.3,0.3-0.6c0.1-0.2,0.1-0.5,0.1-0.9c-0.1,0.2-0.3,0.3-0.5,0.4S60.2,161,60,161
		c-0.4,0-0.7-0.1-0.9-0.3s-0.3-0.6-0.3-1c0-0.2,0-0.4,0.1-0.6s0.2-0.3,0.3-0.5s0.3-0.2,0.4-0.3c0.2-0.1,0.3-0.1,0.5-0.1
		c0.2,0,0.4,0,0.6,0.1s0.4,0.2,0.5,0.4c0.1,0.2,0.2,0.4,0.3,0.7c0.1,0.3,0.1,0.6,0.1,0.9c0,0.4,0,0.8-0.1,1.1s-0.2,0.6-0.4,0.8
		c-0.2,0.2-0.3,0.3-0.5,0.4C60.4,162.7,60.1,162.8,59.9,162.8z M60.1,160.5c0.1,0,0.3,0,0.5-0.1c0.2-0.1,0.3-0.2,0.5-0.5
		c0-0.4-0.1-0.8-0.3-1c-0.2-0.2-0.4-0.3-0.7-0.3c-0.1,0-0.2,0-0.3,0.1c-0.1,0-0.2,0.1-0.2,0.2c-0.1,0.1-0.1,0.2-0.2,0.3
		c0,0.1-0.1,0.3-0.1,0.4c0,0.3,0.1,0.5,0.2,0.7S59.8,160.5,60.1,160.5z"/>
	<path d="M62.6,162.7v-4.6H64c0.2,0,0.4,0,0.6,0.1c0.2,0,0.4,0.1,0.5,0.2s0.2,0.2,0.3,0.3s0.1,0.3,0.1,0.5c0,0.2-0.1,0.4-0.2,0.6
		s-0.3,0.3-0.5,0.4v0c0.3,0.1,0.5,0.2,0.7,0.4c0.2,0.2,0.3,0.4,0.3,0.7c0,0.2,0,0.4-0.1,0.6s-0.2,0.3-0.4,0.4s-0.3,0.2-0.6,0.3
		c-0.2,0.1-0.4,0.1-0.7,0.1L62.6,162.7L62.6,162.7z M63.2,160.1h0.7c0.4,0,0.7-0.1,0.8-0.2c0.2-0.1,0.3-0.3,0.3-0.6
		c0-0.3-0.1-0.5-0.3-0.6s-0.4-0.2-0.8-0.2h-0.7L63.2,160.1L63.2,160.1z M63.2,162.2H64c0.4,0,0.7-0.1,0.9-0.2
		c0.2-0.1,0.3-0.4,0.3-0.7c0-0.3-0.1-0.5-0.3-0.6s-0.5-0.2-0.9-0.2h-0.8C63.2,160.5,63.2,162.2,63.2,162.2z"/>
	<path d="M67.5,162.8c-0.2,0-0.4,0-0.6-0.1s-0.3-0.2-0.5-0.3l0.3-0.4c0.1,0.1,0.2,0.2,0.3,0.3c0.1,0.1,0.3,0.1,0.4,0.1
		c0.2,0,0.3,0,0.4-0.1c0.1-0.1,0.3-0.2,0.4-0.3s0.2-0.3,0.3-0.6c0.1-0.2,0.1-0.5,0.1-0.9c-0.1,0.2-0.3,0.3-0.5,0.4s-0.4,0.2-0.6,0.2
		c-0.4,0-0.7-0.1-0.9-0.3s-0.3-0.6-0.3-1c0-0.2,0-0.4,0.1-0.6s0.2-0.3,0.3-0.5s0.3-0.2,0.4-0.3c0.2-0.1,0.3-0.1,0.5-0.1
		c0.2,0,0.4,0,0.6,0.1s0.4,0.2,0.5,0.4c0.1,0.2,0.2,0.4,0.3,0.7c0.1,0.3,0.1,0.6,0.1,0.9c0,0.4,0,0.8-0.1,1.1s-0.2,0.6-0.4,0.8
		c-0.2,0.2-0.3,0.3-0.5,0.4C67.9,162.7,67.7,162.8,67.5,162.8z M67.7,160.5c0.1,0,0.3,0,0.5-0.1c0.2-0.1,0.3-0.2,0.5-0.5
		c0-0.4-0.1-0.8-0.3-1c-0.2-0.2-0.4-0.3-0.7-0.3c-0.1,0-0.2,0-0.3,0.1c-0.1,0-0.2,0.1-0.2,0.2c-0.1,0.1-0.1,0.2-0.2,0.3
		c0,0.1-0.1,0.3-0.1,0.4c0,0.3,0.1,0.5,0.2,0.7S67.4,160.5,67.7,160.5z"/>
	<path d="M70.2,162.7v-4.6h1.4c0.2,0,0.4,0,0.6,0.1c0.2,0,0.4,0.1,0.5,0.2s0.2,0.2,0.3,0.3s0.1,0.3,0.1,0.5c0,0.2-0.1,0.4-0.2,0.6
		s-0.3,0.3-0.5,0.4v0c0.3,0.1,0.5,0.2,0.7,0.4c0.2,0.2,0.3,0.4,0.3,0.7c0,0.2,0,0.4-0.1,0.6s-0.2,0.3-0.4,0.4s-0.3,0.2-0.6,0.3
		c-0.2,0.1-0.4,0.1-0.7,0.1L70.2,162.7L70.2,162.7z M70.8,160.1h0.7c0.4,0,0.7-0.1,0.8-0.2c0.2-0.1,0.3-0.3,0.3-0.6
		c0-0.3-0.1-0.5-0.3-0.6s-0.4-0.2-0.8-0.2h-0.7L70.8,160.1L70.8,160.1z M70.8,162.2h0.8c0.4,0,0.7-0.1,0.9-0.2
		c0.2-0.1,0.3-0.4,0.3-0.7c0-0.3-0.1-0.5-0.3-0.6s-0.5-0.2-0.9-0.2h-0.8C70.8,160.5,70.8,162.2,70.8,162.2z"/>
	<path d="M75.1,162.8c-0.2,0-0.4,0-0.6-0.1s-0.3-0.2-0.5-0.3l0.3-0.4c0.1,0.1,0.2,0.2,0.3,0.3c0.1,0.1,0.3,0.1,0.4,0.1
		c0.2,0,0.3,0,0.4-0.1c0.1-0.1,0.3-0.2,0.4-0.3s0.2-0.3,0.3-0.6c0.1-0.2,0.1-0.5,0.1-0.9c-0.1,0.2-0.3,0.3-0.5,0.4s-0.4,0.2-0.6,0.2
		c-0.4,0-0.7-0.1-0.9-0.3s-0.3-0.6-0.3-1c0-0.2,0-0.4,0.1-0.6s0.2-0.3,0.3-0.5s0.3-0.2,0.4-0.3c0.2-0.1,0.3-0.1,0.5-0.1
		c0.2,0,0.4,0,0.6,0.1s0.4,0.2,0.5,0.4c0.1,0.2,0.2,0.4,0.3,0.7c0.1,0.3,0.1,0.6,0.1,0.9c0,0.4,0,0.8-0.1,1.1s-0.2,0.6-0.4,0.8
		c-0.2,0.2-0.3,0.3-0.5,0.4C75.5,162.7,75.3,162.8,75.1,162.8z M75.3,160.5c0.1,0,0.3,0,0.5-0.1c0.2-0.1,0.3-0.2,0.5-0.5
		c0-0.4-0.1-0.8-0.3-1c-0.2-0.2-0.4-0.3-0.7-0.3c-0.1,0-0.2,0-0.3,0.1c-0.1,0-0.2,0.1-0.2,0.2c-0.1,0.1-0.1,0.2-0.2,0.3
		c0,0.1-0.1,0.3-0.1,0.4c0,0.3,0.1,0.5,0.2,0.7S75,160.5,75.3,160.5z"/>
	<path d="M77.2,162.7l1.6-4.6h0.7l1.6,4.6h-0.6l-0.4-1.4h-1.7l-0.4,1.4H77.2z M78.6,160.1l-0.2,0.7h1.4l-0.2-0.7
		c-0.1-0.3-0.2-0.5-0.2-0.8c-0.1-0.3-0.1-0.5-0.2-0.8h0c-0.1,0.3-0.1,0.5-0.2,0.8C78.7,159.6,78.7,159.9,78.6,160.1z"/>
</g>
</svg>
