<?xml version="1.0" encoding="UTF-8"?>
<svg xmlns="http://www.w3.org/2000/svg" xmlns:xlink="http://www.w3.org/1999/xlink" width="630px" height="px" viewBox="0 0 630 165" version="1.1">
<g id="surface1">
<path style="fill:none;stroke-width:2;stroke-linecap:round;stroke-linejoin:round;stroke:rgb(0%,0%,0%);stroke-opacity:1;stroke-miterlimit:10;" d="M 0.0002781 -7.000482 L -4.00007 -7.000482 L -4.00007 -0.000358151 L 0.0002781 -0.000358151 " transform="matrix(4.021134,0,0,4.021134,42.662944,98.060034)"/>
<path style="fill:none;stroke-width:2;stroke-linecap:round;stroke-linejoin:round;stroke:rgb(0%,0%,0%);stroke-opacity:1;stroke-miterlimit:10;" d="M -0.0000701354 -0.000420099 L 2.999705 -0.000420099 " transform="matrix(4.021134,0,0,4.021134,26.578407,83.986064)"/>
<path style="fill:none;stroke-width:2;stroke-linecap:round;stroke-linejoin:round;stroke:rgb(0%,0%,0%);stroke-opacity:1;stroke-miterlimit:10;" d="M -6.500184 0.500253 L 0.49994 0.500253 L -5.499611 3.500029 L 0.49994 6.499804 L -6.500184 6.499804 " transform="matrix(0,-4.021134,-4.021134,0,85.648305,71.865793)"/>
<path style="fill:none;stroke-width:2;stroke-linecap:round;stroke-linejoin:round;stroke:rgb(0%,0%,0%);stroke-opacity:1;stroke-miterlimit:10;" d="M -0.00020299 6.999542 C -1.379633 6.999542 -2.499692 5.881426 -2.499692 4.500053 L -2.499692 2.499879 C -2.499692 1.119477 -1.379633 0.000389442 -0.00020299 0.000389442 C 1.38117 0.000389442 2.500258 1.119477 2.500258 2.499879 L 2.500258 4.500053 C 2.500258 5.881426 1.38117 6.999542 -0.00020299 6.999542 Z M -0.00020299 6.999542 " transform="matrix(4.021134,0,0,4.021134,110.481285,69.912497)"/>
<path style="fill:none;stroke-width:2;stroke-linecap:round;stroke-linejoin:round;stroke:rgb(0%,0%,0%);stroke-opacity:1;stroke-miterlimit:10;" d="M -0.000415617 6.999542 C -1.058303 6.999542 -1.916075 6.142741 -1.916075 5.083882 L -1.916075 1.916049 C -1.916075 0.858162 -1.058303 0.000389442 -0.000415617 0.000389442 C 1.058443 0.000389442 1.916216 0.858162 1.916216 1.916049 L 1.916216 5.083882 C 1.916216 6.142741 1.058443 6.999542 -0.000415617 6.999542 Z M -0.000415617 6.999542 " transform="matrix(4.021134,0,0,4.021134,293.974328,69.912497)"/>
<path style="fill:none;stroke-width:2;stroke-linecap:round;stroke-linejoin:round;stroke:rgb(0%,0%,0%);stroke-opacity:1;stroke-miterlimit:10;" d="M -0.000396033 4.205626 C 0.184176 5.004141 0.979777 5.602542 1.933721 5.602542 C 3.023665 5.602542 3.907666 4.819569 3.907666 3.852997 C 3.907666 2.887395 3.023665 2.103451 1.933721 2.103451 C 3.023665 2.103451 3.907666 1.320479 3.907666 0.352935 C 3.907666 -0.612666 3.023665 -1.39661 1.933721 -1.39661 C 0.979777 -1.39661 0.184176 -0.796267 -0.000396033 0.00127719 " transform="matrix(4.021134,0,0,4.021134,234.853155,75.530021)"/>
<path style="fill:none;stroke-width:2;stroke-linecap:round;stroke-linejoin:round;stroke:rgb(0%,0%,0%);stroke-opacity:1;stroke-miterlimit:10;" d="M -0.000451676 -6.99961 L -0.000451676 -2.499947 C -0.000451676 -1.118574 -1.118567 -0.000458216 -2.499941 -0.000458216 C -3.143027 -0.000458216 -3.7288 -0.243316 -4.172743 -0.641602 " transform="matrix(4.021134,0,0,4.021134,149.724472,98.060436)"/>
<path style="fill:none;stroke-width:2;stroke-linecap:round;stroke-linejoin:round;stroke:rgb(0%,0%,0%);stroke-opacity:1;stroke-miterlimit:10;" d="M -3.500184 3.499699 L 3.499939 3.499699 " transform="matrix(0,-4.021134,-4.021134,0,180.990727,83.929195)"/>
<path style="fill:none;stroke-width:2;stroke-linecap:round;stroke-linejoin:round;stroke:rgb(0%,0%,0%);stroke-opacity:1;stroke-miterlimit:10;" d="M -0.0000892161 -4.095652 L 1.936942 -5.547939 L 1.936942 1.452184 " transform="matrix(4.021134,0,0,4.021134,209.199578,92.164478)"/>
<path style=" stroke:none;fill-rule:nonzero;fill:rgb(0%,0%,0%);fill-opacity:1;" d="M 272.441406 98.058594 C 272.441406 100.28125 270.636719 102.082031 268.417969 102.082031 C 266.199219 102.082031 264.398438 100.28125 264.398438 98.058594 C 264.398438 95.839844 266.199219 94.039062 268.417969 94.039062 C 270.636719 94.039062 272.441406 95.839844 272.441406 98.058594 "/>
<path style="fill:none;stroke-width:0.3;stroke-linecap:round;stroke-linejoin:round;stroke:rgb(0%,0%,0%);stroke-opacity:1;stroke-miterlimit:10;" d="M 60.930594 9.257163 C 60.930594 11.019663 59.501948 12.448308 57.739969 12.448308 C 55.977469 12.448308 54.549344 11.019663 54.549344 9.257163 C 54.549344 7.495183 55.977469 6.066538 57.739969 6.066538 C 59.501948 6.066538 60.930594 7.495183 60.930594 9.257163 Z M 60.930594 9.257163 " transform="matrix(7.5,0,0,7.5,-23.350545,-21.256845)"/>
<path style="fill:none;stroke-width:0.573634;stroke-linecap:round;stroke-linejoin:round;stroke:rgb(0%,0%,0%);stroke-opacity:1;stroke-miterlimit:10;" d="M 57.137026 8.99952 C 57.188067 8.770874 57.408901 8.598999 57.674005 8.59952 C 57.976609 8.59952 58.221921 8.823999 58.221921 9.101083 C 58.222442 9.378166 57.976609 9.602645 57.674005 9.602645 L 57.674005 9.891187 " transform="matrix(7.5,0,0,7.5,-22.894879,-23.855777)"/>
<path style=" stroke:none;fill-rule:nonzero;fill:rgb(0%,0%,0%);fill-opacity:1;" d="M 411.851562 55.707031 C 411.851562 56.894531 410.890625 57.859375 409.703125 57.859375 C 408.515625 57.859375 407.550781 56.894531 407.550781 55.707031 C 407.550781 54.519531 408.515625 53.558594 409.703125 53.558594 C 410.890625 53.558594 411.851562 54.519531 411.851562 55.707031 "/>
<path style="fill:none;stroke-width:0.3;stroke-linecap:round;stroke-linejoin:round;stroke:rgb(0%,0%,0%);stroke-opacity:1;stroke-miterlimit:10;" d="M 74.745221 9.257236 C 74.745221 11.019735 73.316575 12.448381 71.554595 12.448381 C 69.792096 12.448381 68.36345 11.019735 68.36345 9.257236 C 68.36345 7.495256 69.792096 6.066611 71.554595 6.066611 C 73.316575 6.066611 74.745221 7.495256 74.745221 9.257236 Z M 74.745221 9.257236 " transform="matrix(7.5,0,0,7.5,-40.733685,50.254328)"/>
<path style="fill:none;stroke-width:0.573634;stroke-linecap:round;stroke-linejoin:round;stroke:rgb(0%,0%,0%);stroke-opacity:1;stroke-miterlimit:10;" d="M 57.137105 8.999593 C 57.188147 8.770947 57.40898 8.599072 57.674084 8.599072 C 57.976688 8.599072 58.222001 8.824072 58.222001 9.101156 C 58.222001 9.378239 57.976688 9.602718 57.674084 9.602718 L 57.674084 9.890739 " transform="matrix(7.5,0,0,7.5,63.331088,47.655395)"/>
<path style=" stroke:none;fill-rule:nonzero;fill:rgb(0%,0%,0%);fill-opacity:1;" d="M 498.078125 127.21875 C 498.078125 128.40625 497.113281 129.371094 495.925781 129.371094 C 494.738281 129.371094 493.777344 128.40625 493.777344 127.21875 C 493.777344 126.03125 494.738281 125.070312 495.925781 125.070312 C 497.113281 125.070312 498.078125 126.03125 498.078125 127.21875 "/>
<path style="fill:none;stroke-width:0.3;stroke-linecap:round;stroke-linejoin:round;stroke:rgb(0%,0%,0%);stroke-opacity:1;stroke-miterlimit:10;" d="M 89.047531 9.257163 C 89.047531 11.019663 87.618886 12.448308 85.856386 12.448308 C 84.094406 12.448308 82.665761 11.019663 82.665761 9.257163 C 82.665761 7.495183 84.094406 6.066538 85.856386 6.066538 C 87.618886 6.066538 89.047531 7.495183 89.047531 9.257163 Z M 89.047531 9.257163 " transform="matrix(7.5,0,0,7.5,-61.774455,-21.256845)"/>
<path style="fill:none;stroke-width:0.573634;stroke-linecap:round;stroke-linejoin:round;stroke:rgb(0%,0%,0%);stroke-opacity:1;stroke-miterlimit:10;" d="M 57.137181 8.99952 C 57.187702 8.770874 57.409056 8.598999 57.67416 8.59952 C 57.976764 8.59952 58.222077 8.823999 58.222077 9.101083 C 58.222077 9.378166 57.976764 9.602645 57.67416 9.602645 L 57.67416 9.891187 " transform="matrix(7.5,0,0,7.5,149.55708,-23.855777)"/>
<path style=" stroke:none;fill-rule:nonzero;fill:rgb(0%,0%,0%);fill-opacity:1;" d="M 584.304688 55.707031 C 584.304688 56.894531 583.339844 57.859375 582.152344 57.859375 C 580.964844 57.859375 580.003906 56.894531 580.003906 55.707031 C 580.003906 54.519531 580.964844 53.558594 582.152344 53.558594 C 583.339844 53.558594 584.304688 54.519531 584.304688 55.707031 "/>
<path style="fill:none;stroke-width:0.3;stroke-linecap:round;stroke-linejoin:round;stroke:rgb(0%,0%,0%);stroke-opacity:1;stroke-miterlimit:4;" d="M 55.473007 17.618226 L 60.596445 17.618226 L 60.596445 24.16458 L 55.473007 24.16458 Z M 55.473007 17.618226 " transform="matrix(7.5,0,0,7.5,-25.56318,-36.999975)"/>
<path style="fill:none;stroke-width:0.573634;stroke-linecap:round;stroke-linejoin:round;stroke:rgb(0%,0%,0%);stroke-opacity:1;stroke-miterlimit:10;" d="M 57.137024 8.999592 C 57.188066 8.770946 57.408899 8.599071 57.674003 8.599071 C 57.976607 8.599071 58.22192 8.824071 58.22192 9.101154 C 58.222441 9.378238 57.976607 9.602717 57.674003 9.602717 L 57.674003 9.890738 " transform="matrix(7.5,0,0,7.5,-22.894867,47.655405)"/>
<path style=" stroke:none;fill-rule:nonzero;fill:rgb(0%,0%,0%);fill-opacity:1;" d="M 411.851562 127.21875 C 411.851562 128.40625 410.890625 129.371094 409.703125 129.371094 C 408.515625 129.371094 407.550781 128.40625 407.550781 127.21875 C 407.550781 126.03125 408.515625 125.070312 409.703125 125.070312 C 410.890625 125.070312 411.851562 126.03125 411.851562 127.21875 "/>
<path style="fill:none;stroke-width:0.3;stroke-linecap:round;stroke-linejoin:round;stroke:rgb(0%,0%,0%);stroke-opacity:1;stroke-miterlimit:4;" d="M 65.114642 17.618153 L 70.23808 17.618153 L 70.23808 24.164507 L 65.114642 24.164507 Z M 65.114642 17.618153 " transform="matrix(7.5,0,0,7.5,-11.64888,-108.511148)"/>
<path style="fill:none;stroke-width:0.573634;stroke-linecap:round;stroke-linejoin:round;stroke:rgb(0%,0%,0%);stroke-opacity:1;stroke-miterlimit:10;" d="M 57.137101 8.999519 C 57.188143 8.770873 57.408976 8.598998 57.67408 8.599519 C 57.976685 8.599519 58.221997 8.823998 58.221997 9.101082 C 58.221997 9.378165 57.976685 9.602644 57.67408 9.602644 L 57.67408 9.891186 " transform="matrix(7.5,0,0,7.5,63.331115,-23.855768)"/>
<path style=" stroke:none;fill-rule:nonzero;fill:rgb(0%,0%,0%);fill-opacity:1;" d="M 498.078125 55.707031 C 498.078125 56.894531 497.113281 57.859375 495.925781 57.859375 C 494.738281 57.859375 493.777344 56.894531 493.777344 55.707031 C 493.777344 54.519531 494.738281 53.558594 495.925781 53.558594 C 497.113281 53.558594 498.078125 54.519531 498.078125 55.707031 "/>
<path style="fill:none;stroke-width:0.3;stroke-linecap:round;stroke-linejoin:round;stroke:rgb(0%,0%,0%);stroke-opacity:1;stroke-miterlimit:4;" d="M 80.697761 17.618226 L 85.821199 17.618226 L 85.821199 24.16458 L 80.697761 24.16458 Z M 80.697761 17.618226 " transform="matrix(7.5,0,0,7.5,-42.29571,-36.999975)"/>
<path style="fill:none;stroke-width:0.573634;stroke-linecap:round;stroke-linejoin:round;stroke:rgb(0%,0%,0%);stroke-opacity:1;stroke-miterlimit:10;" d="M 57.137188 8.999592 C 57.187709 8.770946 57.409063 8.599071 57.674167 8.599071 C 57.976771 8.599071 58.222084 8.824071 58.222084 9.101154 C 58.222084 9.378238 57.976771 9.602717 57.674167 9.602717 L 57.674167 9.890738 " transform="matrix(7.5,0,0,7.5,149.557028,47.655405)"/>
<path style=" stroke:none;fill-rule:nonzero;fill:rgb(0%,0%,0%);fill-opacity:1;" d="M 584.304688 127.21875 C 584.304688 128.40625 583.339844 129.371094 582.152344 129.371094 C 580.964844 129.371094 580.003906 128.40625 580.003906 127.21875 C 580.003906 126.03125 580.964844 125.070312 582.152344 125.070312 C 583.339844 125.070312 584.304688 126.03125 584.304688 127.21875 "/>
</g>
</svg>
