<?xml version="1.0" encoding="utf-8"?>
<!-- Generator: Adobe Illustrator 16.0.4, SVG Export Plug-In . SVG Version: 6.00 Build 0)  -->
<!DOCTYPE svg PUBLIC "-//W3C//DTD SVG 1.1//EN" "http://www.w3.org/Graphics/SVG/1.1/DTD/svg11.dtd">
<svg version="1.1" id="Ebene_1" xmlns="http://www.w3.org/2000/svg" xmlns:xlink="http://www.w3.org/1999/xlink" x="0px" y="0px"
	 width="217.9px" height="62.1px" viewBox="0 0 217.9 62.1" enable-background="new 0 0 217.9 62.1" xml:space="preserve">
<path fill="#CFCECD" d="M26,31V15.9v-0.4l-7.3-5.3c-0.4-0.3-1-0.3-1.4,0L10,15.5v0.4V31"/>
<g>
	<polygon fill="#FFFFFF" points="0.9,61 1,37.1 18,22 35,37.1 35,61 	"/>
	<path d="M18,23.4l16,14.2V60H2V37.6L18,23.4 M18,21c-0.2,0-0.4,0.1-0.6,0.2L0.3,36.4C0.1,36.6,0,36.8,0,37.1V61c0,0.5,0.4,1,0.9,1
		h34.1c0.5,0,0.9-0.4,0.9-1V37.1c0-0.3-0.1-0.6-0.3-0.7L18.6,21.2C18.4,21.1,18.2,21,18,21L18,21z"/>
</g>
<path fill="none" stroke="#000000" stroke-width="2" stroke-linecap="round" stroke-linejoin="round" stroke-miterlimit="10" d="
	M25,24v-8.1v-0.4l-6.4-5.3c-0.4-0.3-0.9-0.3-1.2,0L11,15.5v0.4V24"/>
<line fill="none" stroke="#000000" stroke-width="2" stroke-linecap="round" stroke-miterlimit="10" x1="18" y1="9" x2="18" y2="1"/>
<line fill="none" stroke="#000000" stroke-width="2" stroke-linecap="round" stroke-miterlimit="10" x1="14.5" y1="5" x2="21.5" y2="5"/>
<path fill="#A47938" stroke="#000000" stroke-width="2" stroke-linecap="round" stroke-miterlimit="10" d="M23,52.9
	c0-3.9-3.3-6.1-4.6-6.8c-0.3-0.2-0.6-0.2-0.9,0c-1.2,0.7-4.6,3-4.6,6.8V60c0,0.5,0.4,1,0.9,1h8.2c0.5,0,0.9-0.4,0.9-1V52.9z"/>
<circle fill="#92D2F3" stroke="#000000" stroke-width="2" stroke-miterlimit="10" cx="18" cy="37" r="5"/>
<g>
	<polygon fill="#EA5A47" stroke="#000000" stroke-width="2" stroke-linejoin="round" stroke-miterlimit="10" points="95,27.2 
		90,31.9 90,22.1 95,22.1 	"/>
	
		<rect x="92" y="45.1" fill="#A57939" stroke="#000000" stroke-width="2" stroke-linecap="round" stroke-linejoin="round" stroke-miterlimit="10" width="9" height="16"/>
	
		<polygon fill="#9B9B9A" stroke="#000000" stroke-width="2" stroke-linecap="round" stroke-linejoin="round" stroke-miterlimit="10" points="
		114.5,52.1 109.3,52.1 106.5,52.1 106.5,45.1 108.5,45.1 114.5,45.1 	"/>
	
		<rect x="86.5" y="48.6" transform="matrix(0.7071 -0.7071 0.7071 0.7071 -7.7432 82.6304)" fill="#6A462F" stroke="#000000" stroke-width="2" stroke-linecap="round" stroke-linejoin="round" stroke-miterlimit="10" width="18.7" height="4.1"/>
	
		<polygon fill="#92D3F5" stroke="#000000" stroke-width="2" stroke-linecap="round" stroke-linejoin="round" stroke-miterlimit="10" points="
		109.3,52.1 112.5,48.1 109.5,47.1 108.5,45.1 114.5,45.1 114.5,52.1 	"/>
	
		<line fill="none" stroke="#000000" stroke-width="2" stroke-linecap="round" stroke-linejoin="round" stroke-miterlimit="10" x1="108.5" y1="27.1" x2="108.5" y2="31.1"/>
	
		<line fill="none" stroke="#000000" stroke-width="2" stroke-linecap="round" stroke-linejoin="round" stroke-miterlimit="10" x1="111.5" y1="30.1" x2="111.5" y2="31.1"/>
	
		<line fill="none" stroke="#000000" stroke-width="2" stroke-linecap="round" stroke-linejoin="round" stroke-miterlimit="10" x1="105.5" y1="24.1" x2="105.5" y2="31.1"/>
	
		<polyline fill="#EA5A47" stroke="#000000" stroke-width="2" stroke-linecap="round" stroke-linejoin="round" stroke-miterlimit="10" points="
		106.5,24.1 102.5,20.1 85.5,36.1 85.5,37.1 119.5,37.1 119.5,36.1 113.5,31.1 106.5,32.1 98.5,33.1 100.5,29.1 98.5,27.1 
		105.1,22.7 	"/>
	
		<line fill="none" stroke="#000000" stroke-width="2" stroke-linecap="round" stroke-linejoin="round" stroke-miterlimit="10" x1="102.5" y1="25.1" x2="102.5" y2="32.1"/>
	
		<rect x="85.5" y="37.1" fill="none" stroke="#000000" stroke-width="2" stroke-linecap="round" stroke-linejoin="round" stroke-miterlimit="10" width="34" height="24"/>
</g>
<g>
	
		<rect x="174.4" y="51.1" fill="none" stroke="#000000" stroke-width="2" stroke-linecap="round" stroke-linejoin="round" stroke-miterlimit="10" width="38" height="10"/>
	
		<rect x="179.4" y="34.1" fill="none" stroke="#000000" stroke-width="2" stroke-linecap="round" stroke-linejoin="round" stroke-miterlimit="10" width="28" height="10"/>
	
		<rect x="184.4" y="17.1" fill="none" stroke="#000000" stroke-width="2" stroke-linecap="round" stroke-linejoin="round" stroke-miterlimit="10" width="18" height="10"/>
	
		<polygon fill="#3F3F3F" stroke="#000000" stroke-width="2" stroke-linecap="round" stroke-linejoin="round" stroke-miterlimit="10" points="
		211.4,34.1 175.4,34.1 179.4,31.1 181.4,27.1 205.4,27.1 207.4,31.1 	"/>
	
		<polygon fill="#3F3F3F" stroke="#000000" stroke-width="2" stroke-linecap="round" stroke-linejoin="round" stroke-miterlimit="10" points="
		216.9,51.1 169.9,51.1 173.9,48.1 175.9,44.1 210.9,44.1 212.9,48.1 	"/>
	
		<polygon fill="#3F3F3F" stroke="#000000" stroke-width="2" stroke-linecap="round" stroke-linejoin="round" stroke-miterlimit="10" points="
		206.4,17.1 180.4,17.1 184.4,14.1 186.4,10.1 200.4,10.1 202.4,14.1 	"/>
	
		<polygon fill="#A57939" stroke="#000000" stroke-width="2" stroke-linecap="round" stroke-linejoin="round" stroke-miterlimit="10" points="
		198.9,61.1 187.9,61.1 187.9,54.1 191.5,54.1 198.9,54.1 	"/>
	
		<polyline fill="none" stroke="#000000" stroke-width="2" stroke-linecap="round" stroke-linejoin="round" stroke-miterlimit="10" points="
		191.5,61.1 191.5,54.1 195.5,54.1 195.5,61.1 	"/>
	
		<rect x="180.4" y="54.1" fill="none" stroke="#92D3F5" stroke-width="2" stroke-linecap="round" stroke-linejoin="round" stroke-miterlimit="10" width="2" height="4"/>
	
		<rect x="192.4" y="37.1" fill="none" stroke="#000000" stroke-width="2" stroke-linecap="round" stroke-linejoin="round" stroke-miterlimit="10" width="2" height="4"/>
	
		<rect x="188.4" y="20.1" fill="none" stroke="#92D3F5" stroke-width="2" stroke-linecap="round" stroke-linejoin="round" stroke-miterlimit="10" width="2" height="4"/>
	
		<rect x="196.4" y="20.1" fill="none" stroke="#92D3F5" stroke-width="2" stroke-linecap="round" stroke-linejoin="round" stroke-miterlimit="10" width="2" height="4"/>
	
		<rect x="204.4" y="54.1" fill="none" stroke="#92D3F5" stroke-width="2" stroke-linecap="round" stroke-linejoin="round" stroke-miterlimit="10" width="2" height="4"/>
	
		<polygon fill="#D0CFCE" stroke="#000000" stroke-width="2" stroke-linecap="round" stroke-linejoin="round" stroke-miterlimit="10" points="
		193.4,32.1 180.4,46.1 206.4,46.1 	"/>
	
		<rect x="189.4" y="41.1" fill="none" stroke="#92D3F5" stroke-width="2" stroke-linecap="round" stroke-linejoin="round" stroke-miterlimit="10" width="2" height="2"/>
	
		<rect x="195.4" y="41.1" fill="none" stroke="#92D3F5" stroke-width="2" stroke-linecap="round" stroke-linejoin="round" stroke-miterlimit="10" width="2" height="2"/>
	
		<polyline fill="none" stroke="#000000" stroke-width="2" stroke-linecap="round" stroke-linejoin="round" stroke-miterlimit="10" points="
		182.4,58.1 180.4,58.1 180.4,54.1 	"/>
	
		<polyline fill="none" stroke="#000000" stroke-width="2" stroke-linecap="round" stroke-linejoin="round" stroke-miterlimit="10" points="
		190.4,24.1 188.4,24.1 188.4,20.1 	"/>
	
		<polyline fill="none" stroke="#000000" stroke-width="2" stroke-linecap="round" stroke-linejoin="round" stroke-miterlimit="10" points="
		198.4,24.1 196.4,24.1 196.4,20.1 	"/>
	
		<polyline fill="none" stroke="#000000" stroke-width="2" stroke-linecap="round" stroke-linejoin="round" stroke-miterlimit="10" points="
		206.4,58.1 204.4,58.1 204.4,54.1 	"/>
	
		<polyline fill="none" stroke="#000000" stroke-width="2" stroke-linecap="round" stroke-linejoin="round" stroke-miterlimit="10" points="
		191.4,43.1 189.4,43.1 189.4,41.1 	"/>
	
		<polyline fill="none" stroke="#000000" stroke-width="2" stroke-linecap="round" stroke-linejoin="round" stroke-miterlimit="10" points="
		197.4,43.1 195.4,43.1 195.4,41.1 	"/>
</g>
</svg>
