<?xml version="1.0" encoding="UTF-8"?>
<svg xmlns="http://www.w3.org/2000/svg" xmlns:xlink="http://www.w3.org/1999/xlink" width="630px" height="px" viewBox="0 0 628 168" version="1.1">
<g id="surface1">
<path style=" stroke:none;fill-rule:nonzero;fill:rgb(53.72549%,40.392157%,66.666667%);fill-opacity:1;" d="M 494.855469 91.546875 L 500.695312 91.546875 L 500.695312 93.5 L 494.855469 93.5 Z M 494.855469 91.546875 "/>
<path style=" stroke:none;fill-rule:nonzero;fill:rgb(53.72549%,40.392157%,66.666667%);fill-opacity:1;" d="M 494.855469 102.992188 L 500.695312 102.992188 L 500.695312 104.9375 L 494.855469 104.9375 Z M 494.855469 102.992188 "/>
<path style="fill:none;stroke-width:2;stroke-linecap:round;stroke-linejoin:round;stroke:rgb(0.392157%,0.392157%,1.176471%);stroke-opacity:1;stroke-miterlimit:10;" d="M 21.099871 13.999581 L 42.899433 34.199986 L 21.099871 54.49986 " transform="matrix(2.434109,0,0,2.434783,0,0)"/>
<path style="fill:none;stroke-width:2;stroke-linecap:round;stroke-linejoin:round;stroke:rgb(0.392157%,0.392157%,1.176471%);stroke-opacity:1;stroke-miterlimit:10;" d="M 16.80062 17.800293 L 34.599423 34.199986 L 16.80062 50.700753 " transform="matrix(2.434109,0,0,2.434783,0,0)"/>
<path style="fill:none;stroke-width:2;stroke-linecap:round;stroke-linejoin:round;stroke:rgb(0.392157%,0.392157%,1.176471%);stroke-opacity:1;stroke-miterlimit:10;" d="M 33.20004 58.199498 L 7.399719 34.299456 L 33.20004 10.299944 " transform="matrix(2.434109,0,0,2.434783,0,0)"/>
<path style="fill:none;stroke-width:2;stroke-linecap:round;stroke-linejoin:miter;stroke:rgb(88.627451%,43.921569%,13.333333%);stroke-opacity:1;stroke-miterlimit:10;" d="M 24.399333 50.100725 L 25.200127 50.700753 L 25.899818 50.100725 " transform="matrix(2.434109,0,0,2.434783,0,0)"/>
<path style="fill:none;stroke-width:2;stroke-linecap:round;stroke-linejoin:miter;stroke:rgb(88.627451%,43.921569%,13.333333%);stroke-opacity:1;stroke-dasharray:2.0215,4.043;stroke-miterlimit:10;" d="M 28.900789 47.299526 L 40.699256 36.300084 " transform="matrix(2.434109,0,0,2.434783,0,0)"/>
<path style="fill:none;stroke-width:2;stroke-linecap:round;stroke-linejoin:miter;stroke:rgb(88.627451%,43.921569%,13.333333%);stroke-opacity:1;stroke-miterlimit:10;" d="M 42.199741 34.899484 L 42.899433 34.199986 L 42.199741 33.599958 " transform="matrix(2.434109,0,0,2.434783,0,0)"/>
<path style="fill:none;stroke-width:2;stroke-linecap:round;stroke-linejoin:miter;stroke:rgb(88.627451%,43.921569%,13.333333%);stroke-opacity:1;stroke-dasharray:2.0237,4.0475;stroke-miterlimit:10;" d="M 39.200376 30.800363 L 27.400304 19.799316 " transform="matrix(2.434109,0,0,2.434783,0,0)"/>
<path style="fill:none;stroke-width:2;stroke-linecap:round;stroke-linejoin:miter;stroke:rgb(88.627451%,43.921569%,13.333333%);stroke-opacity:1;stroke-miterlimit:10;" d="M 25.899818 18.400321 L 25.100629 17.800293 L 24.399333 18.400321 " transform="matrix(2.434109,0,0,2.434783,0,0)"/>
<path style="fill:none;stroke-width:2;stroke-linecap:round;stroke-linejoin:miter;stroke:rgb(88.627451%,43.921569%,13.333333%);stroke-opacity:1;stroke-miterlimit:10;" d="M 21.700065 20.899902 L 21.000373 21.5994 L 21.799562 22.300502 " transform="matrix(2.434109,0,0,2.434783,0,0)"/>
<path style="fill:none;stroke-width:2;stroke-linecap:round;stroke-linejoin:miter;stroke:rgb(88.627451%,43.921569%,13.333333%);stroke-opacity:1;stroke-dasharray:2.0719,4.1438;stroke-miterlimit:10;" d="M 24.800532 25.100098 L 32.399246 32.199358 " transform="matrix(2.434109,0,0,2.434783,0,0)"/>
<path style="fill:none;stroke-width:2;stroke-linecap:round;stroke-linejoin:miter;stroke:rgb(88.627451%,43.921569%,13.333333%);stroke-opacity:1;stroke-miterlimit:10;" d="M 33.899731 33.599958 L 34.599423 34.199986 L 33.899731 34.899484 " transform="matrix(2.434109,0,0,2.434783,0,0)"/>
<path style="fill:none;stroke-width:2;stroke-linecap:round;stroke-linejoin:miter;stroke:rgb(88.627451%,43.921569%,13.333333%);stroke-opacity:1;stroke-dasharray:2.072,4.144;stroke-miterlimit:10;" d="M 30.900366 37.700684 L 23.300047 44.799944 " transform="matrix(2.434109,0,0,2.434783,0,0)"/>
<path style="fill:none;stroke-width:2;stroke-linecap:round;stroke-linejoin:miter;stroke:rgb(88.627451%,43.921569%,13.333333%);stroke-opacity:1;stroke-miterlimit:10;" d="M 21.799562 46.200544 L 21.000373 46.900042 L 21.799562 47.59954 " transform="matrix(2.434109,0,0,2.434783,0,0)"/>
<path style="fill:none;stroke-width:2;stroke-linecap:round;stroke-linejoin:round;stroke:rgb(11.372549%,11.372549%,10.588235%);stroke-opacity:1;stroke-miterlimit:10;" d="M 239.299301 53.999302 L 253.599647 40.800293 L 239.299301 27.500209 L 236.299935 30.800363 L 244.599945 38.499651 L 203.70009 38.499651 L 203.70009 42.99986 L 244.599945 42.99986 L 236.299935 50.800223 Z M 239.299301 53.999302 " transform="matrix(2.434109,0,0,2.434783,0,0)"/>
<path style=" stroke:none;fill-rule:nonzero;fill:rgb(11.372549%,11.372549%,10.588235%);fill-opacity:1;" d="M 369.253906 111.757812 L 387.265625 127.09375 L 369.253906 142.433594 L 365.601562 138.78125 L 376.070312 129.773438 L 360.003906 129.773438 C 354.402344 129.773438 349.292969 127.824219 345.644531 124.660156 L 337.609375 117.355469 L 341.503906 113.703125 L 349.539062 121.007812 C 351.972656 123.199219 355.867188 124.660156 360.007812 124.660156 L 376.070312 124.660156 L 365.605469 115.652344 L 369.253906 111.757812 M 369.253906 106.886719 C 368.039062 106.886719 366.820312 107.371094 365.847656 108.347656 L 362.195312 112 C 361.222656 112.972656 360.734375 114.191406 360.734375 115.652344 C 360.734375 117.113281 361.464844 118.332031 362.4375 119.0625 L 362.925781 119.546875 L 360.25 119.546875 C 357.328125 119.546875 354.648438 118.578125 353.1875 117.359375 L 345.15625 110.054688 C 344.183594 109.082031 342.96875 108.835938 341.75 108.835938 C 340.535156 108.835938 339.316406 109.324219 338.34375 110.054688 L 334.449219 113.707031 C 333.472656 114.679688 332.984375 115.894531 332.984375 117.355469 C 332.984375 118.816406 333.472656 120.035156 334.449219 121.007812 L 342.480469 128.3125 C 346.863281 132.453125 353.1875 134.644531 360.007812 134.644531 L 362.683594 134.644531 L 362.199219 135.128906 C 361.226562 136.105469 360.492188 137.320312 360.492188 138.539062 C 360.492188 139.757812 360.980469 141.21875 361.957031 142.191406 L 365.609375 145.84375 C 366.578125 146.816406 367.796875 147.304688 369.011719 147.304688 C 370.230469 147.304688 371.203125 146.816406 372.179688 146.085938 L 390.191406 130.746094 C 391.164062 129.773438 391.894531 128.554688 391.894531 127.09375 C 391.894531 125.632812 391.164062 124.414062 390.191406 123.445312 L 372.179688 108.105469 C 371.445312 107.128906 370.226562 106.886719 369.253906 106.886719 Z M 369.253906 106.886719 "/>
<path style=" stroke:none;fill-rule:nonzero;fill:rgb(11.372549%,11.372549%,10.588235%);fill-opacity:1;" d="M 293.308594 76.9375 C 298.910156 76.9375 304.019531 78.886719 307.671875 82.050781 L 316.191406 89.84375 L 312.292969 93.496094 L 304.019531 85.703125 C 301.582031 83.511719 297.6875 82.050781 293.550781 82.050781 L 269.941406 82.050781 L 269.941406 76.9375 L 293.308594 76.9375 M 293.308594 72.070312 L 269.699219 72.070312 C 267.023438 72.070312 264.832031 74.261719 264.832031 76.9375 L 264.832031 82.050781 C 264.832031 84.730469 267.023438 86.921875 269.699219 86.921875 L 293.308594 86.921875 C 296.230469 86.921875 298.910156 87.894531 300.367188 89.355469 L 308.644531 97.148438 C 309.617188 98.121094 310.835938 98.363281 312.050781 98.363281 C 313.269531 98.363281 314.488281 97.878906 315.21875 97.148438 L 319.113281 93.496094 C 320.085938 92.523438 320.816406 91.304688 320.816406 89.84375 C 320.816406 88.378906 320.328125 87.164062 319.355469 86.191406 L 310.835938 78.398438 C 306.453125 74.503906 300.125 72.070312 293.308594 72.070312 Z M 293.308594 72.070312 "/>
<path style=" stroke:none;fill-rule:nonzero;fill:rgb(11.372549%,11.372549%,10.588235%);fill-opacity:1;" d="M 369.253906 64.277344 L 387.265625 79.617188 L 369.253906 94.957031 L 365.601562 91.304688 L 376.070312 82.296875 L 360.003906 82.296875 C 355.867188 82.296875 351.96875 83.757812 349.535156 85.949219 L 307.667969 124.660156 C 304.261719 127.824219 298.90625 129.773438 293.308594 129.773438 L 269.695312 129.773438 L 269.695312 124.660156 L 293.308594 124.660156 C 297.445312 124.660156 301.339844 123.199219 303.773438 121.007812 L 345.640625 82.050781 C 349.046875 78.886719 354.402344 76.9375 360.003906 76.9375 L 376.066406 76.9375 L 365.601562 67.929688 L 369.253906 64.277344 M 369.253906 59.410156 C 368.039062 59.410156 366.820312 59.894531 365.847656 60.871094 L 362.195312 64.523438 C 361.222656 65.496094 360.734375 66.714844 360.734375 68.175781 C 360.734375 69.636719 361.464844 70.851562 362.4375 71.582031 L 362.921875 72.070312 L 360.25 72.070312 C 353.433594 72.070312 347.105469 74.503906 342.722656 78.398438 L 300.855469 117.113281 C 299.394531 118.578125 296.472656 119.304688 293.796875 119.304688 L 270.1875 119.304688 C 267.507812 119.304688 265.316406 121.496094 265.316406 124.175781 L 265.316406 129.285156 C 265.316406 131.96875 267.507812 134.15625 270.1875 134.15625 L 293.796875 134.15625 C 300.613281 134.15625 306.941406 131.722656 311.324219 127.824219 L 352.945312 89.113281 C 354.40625 87.652344 357.328125 86.925781 360.003906 86.925781 L 362.683594 86.925781 L 362.195312 87.410156 C 361.222656 88.382812 360.492188 89.601562 360.492188 90.816406 C 360.492188 92.035156 360.976562 93.5 361.953125 94.46875 L 365.605469 98.121094 C 366.578125 99.09375 367.792969 99.582031 369.011719 99.582031 C 370.226562 99.582031 371.203125 99.09375 372.175781 98.363281 L 390.1875 83.027344 C 391.160156 82.050781 391.890625 80.835938 391.890625 79.375 C 391.890625 77.914062 391.160156 76.695312 390.1875 75.722656 L 372.175781 60.382812 C 371.445312 59.652344 370.226562 59.410156 369.253906 59.410156 Z M 369.253906 59.410156 "/>
<path style="fill:none;stroke-width:2;stroke-linecap:round;stroke-linejoin:miter;stroke:rgb(88.627451%,43.921569%,13.333333%);stroke-opacity:1;stroke-miterlimit:10;" d="M 147.800197 21.49993 L 144.999826 24.299526 " transform="matrix(2.434109,0,0,2.434783,0,0)"/>
<path style="fill:none;stroke-width:2;stroke-linecap:round;stroke-linejoin:miter;stroke:rgb(88.627451%,43.921569%,13.333333%);stroke-opacity:1;stroke-miterlimit:10;" d="M 235.999838 23.900042 L 232.400279 27.500209 " transform="matrix(2.434109,0,0,2.434783,0,0)"/>
<path style="fill:none;stroke-width:2;stroke-linecap:round;stroke-linejoin:miter;stroke:rgb(88.627451%,43.921569%,13.333333%);stroke-opacity:1;stroke-miterlimit:10;" d="M 105.199256 49.999651 L 105.199256 54.100377 " transform="matrix(2.434109,0,0,2.434783,0,0)"/>
<path style="fill:none;stroke-width:2;stroke-linecap:round;stroke-linejoin:miter;stroke:rgb(88.627451%,43.921569%,13.333333%);stroke-opacity:1;stroke-miterlimit:10;" d="M 199.699331 38.400181 L 199.699331 43.09933 " transform="matrix(2.434109,0,0,2.434783,0,0)"/>
<path style="fill:none;stroke-width:2;stroke-linecap:round;stroke-linejoin:miter;stroke:rgb(88.627451%,43.921569%,13.333333%);stroke-opacity:1;stroke-miterlimit:10;" d="M 103.599273 44.799944 C 102.899582 42.600377 102.599485 40.200265 102.599485 37.700684 C 102.599485 24.100586 113.600368 13.00007 127.30052 13.00007 C 133.000759 13.00007 138.299798 14.899623 142.499552 18.199777 " transform="matrix(2.434109,0,0,2.434783,0,0)"/>
<path style="fill:none;stroke-width:2;stroke-linecap:round;stroke-linejoin:miter;stroke:rgb(88.627451%,43.921569%,13.333333%);stroke-opacity:1;stroke-miterlimit:10;" d="M 200.200027 31.299316 C 202.199604 23.200544 209.499826 17.200265 218.19943 17.200265 C 223.098875 17.200265 227.499229 19.099819 230.800296 22.199428 " transform="matrix(2.434109,0,0,2.434783,0,0)"/>
</g>
</svg>
