<?xml version="1.0" encoding="UTF-8"?>
<svg xmlns="http://www.w3.org/2000/svg" xmlns:xlink="http://www.w3.org/1999/xlink" width="630px" height="px" viewBox="0 0 630 272" version="1.1">
<g id="surface1">
<path style=" stroke:none;fill-rule:nonzero;fill:rgb(88.627451%,43.921569%,13.333333%);fill-opacity:1;" d="M 197.359375 208.523438 L 209.449219 220.757812 L 234.886719 226.40625 L 229.011719 244.820312 L 232.425781 259.425781 L 242.46875 256.1875 L 254.410156 233.59375 L 262.140625 209.089844 C 245.246094 197.121094 239.835938 181.21875 233.097656 164.578125 Z M 197.359375 208.523438 "/>
<path style=" stroke:none;fill-rule:nonzero;fill:rgb(88.627451%,43.921569%,13.333333%);fill-opacity:1;" d="M 123.207031 205.847656 L 114.929688 218.742188 L 107.730469 252.929688 L 100.441406 260.890625 L 87.066406 255.953125 L 85.550781 232.128906 C 85.550781 232.128906 87.824219 211.660156 90.101562 202.421875 C 92.375 193.183594 114.359375 191.683594 114.359375 191.683594 L 123.203125 205.847656 Z M 123.207031 205.847656 "/>
<path style=" stroke:none;fill-rule:nonzero;fill:rgb(95.686275%,66.666667%,25.490196%);fill-opacity:1;" d="M 213.507812 140.003906 C 213.429688 139.898438 213.363281 139.816406 213.3125 139.75 C 213.367188 139.820312 213.425781 139.894531 213.507812 140.003906 Z M 213.507812 140.003906 "/>
<path style=" stroke:none;fill-rule:nonzero;fill:rgb(95.686275%,66.666667%,25.490196%);fill-opacity:1;" d="M 217.832031 145.585938 C 217.339844 144.953125 216.941406 144.4375 216.535156 143.921875 C 217.265625 144.859375 217.832031 145.585938 217.832031 145.585938 Z M 217.832031 145.585938 "/>
<path style=" stroke:none;fill-rule:nonzero;fill:rgb(95.686275%,66.666667%,25.490196%);fill-opacity:1;" d="M 216.558594 143.90625 C 215.523438 142.574219 214.15625 140.820312 213.507812 139.984375 C 213.960938 140.566406 214.917969 141.796875 216.558594 143.90625 Z M 216.558594 143.90625 "/>
<path style=" stroke:none;fill-rule:nonzero;fill:rgb(95.686275%,66.666667%,25.490196%);fill-opacity:1;" d="M 287.84375 82.148438 L 276.398438 80.726562 L 256.882812 87.792969 C 254.628906 101.839844 251.382812 124.242188 251.382812 124.242188 L 232.882812 141.589844 L 202.898438 145.691406 L 177.152344 134.648438 L 106.5 129.445312 L 77.195312 135.0625 L 48.425781 122.566406 L 29.046875 109.730469 L 12.5625 113.082031 L 20.523438 128.589844 L 5.429688 151.730469 L 9.710938 170.957031 C 9.710938 170.957031 30.773438 171 41.148438 173.453125 L 56.597656 168.019531 C 54.105469 178.691406 59.714844 189.851562 63.640625 199.507812 C 50.597656 205.90625 43.714844 211.355469 39.90625 220.5625 C 38.15625 224.792969 37.058594 235.382812 36.3125 241.65625 L 49.042969 251.011719 C 49.042969 251.011719 66.957031 249.59375 59.707031 230.242188 L 72.441406 217.839844 C 79.273438 214.238281 92.683594 207.972656 92.683594 207.972656 L 158.648438 211.273438 L 171.128906 225.742188 L 165.082031 259.511719 L 176.710938 258.285156 L 198.933594 228.789062 L 198.933594 212.957031 C 198.933594 212.957031 221.410156 187.851562 226.324219 172.632812 L 226.378906 172.707031 C 226.378906 172.707031 252.789062 159.074219 262.90625 138.558594 C 279.273438 115.625 259.828125 93.292969 283.097656 100.839844 C 288.960938 102.742188 296.214844 90.929688 289.101562 83.558594 C 287.816406 82.140625 288.25 82.621094 287.816406 82.140625 Z M 287.84375 82.148438 "/>
<path style="fill:none;stroke-width:2;stroke-linecap:round;stroke-linejoin:round;stroke:rgb(0%,0%,0%);stroke-opacity:1;stroke-miterlimit:10;" d="M 12.459913 35.739705 C 10.126946 36.739993 7.543251 36.572991 7.543251 36.572991 C 5.866297 36.719333 4.428049 32.563231 5.058302 31.840132 L 8.376147 26.740557 L 6.626207 23.323051 C 6.626207 23.323051 11.633886 21.908702 14.508665 25.413153 C 14.852986 25.833239 15.302921 26.156052 15.788062 26.400528 C 15.818115 26.415163 15.848168 26.430658 15.879079 26.446153 C 18.472219 27.734819 21.425135 28.017173 24.263851 27.443858 C 31.486002 25.986468 38.33378 26.074273 45.963793 29.656199 C 53.589513 33.238985 60.493962 27.405981 59.604395 22.155761 C 58.810997 17.508985 63.166098 14.572684 66.354286 17.156043 " transform="matrix(4.549263,0,0,4.537756,-17.593579,7.138341)"/>
<path style="fill:none;stroke-width:2;stroke-linecap:round;stroke-linejoin:round;stroke:rgb(0%,0%,0%);stroke-opacity:1;stroke-miterlimit:10;" d="M 16.049952 48.820062 C 16.651011 46.613747 24.541196 45.171852 24.541196 45.171852 C 24.541196 45.171852 27.768882 43.97099 25.967423 40.667974 " transform="matrix(4.549263,0,0,4.537756,-17.593579,7.138341)"/>
<path style="fill:none;stroke-width:2;stroke-linecap:round;stroke-linejoin:round;stroke:rgb(0%,0%,0%);stroke-opacity:1;stroke-miterlimit:10;" d="M 18.299629 33.239846 C 16.756625 35.074281 14.407344 38.043294 17.859998 42.398248 C 17.859998 42.398248 11.104096 45.251048 11.853702 50.43068 C 11.853702 50.43068 12.216055 52.907297 14.25622 52.833265 " transform="matrix(4.549263,0,0,4.537756,-17.593579,7.138341)"/>
<path style="fill:none;stroke-width:2;stroke-linecap:round;stroke-linejoin:round;stroke:rgb(0%,0%,0%);stroke-opacity:1;stroke-miterlimit:10;" d="M 23.499647 50.030393 C 22.343897 57.283772 25.885851 56.084631 26.516963 55.691231 C 27.664985 54.973296 28.364789 45.837276 30.469354 44.380746 C 32.061301 43.277158 38.636027 44.078594 38.636027 44.078594 " transform="matrix(4.549263,0,0,4.537756,-17.593579,7.138341)"/>
<path style="fill:none;stroke-width:2;stroke-linecap:round;stroke-linejoin:round;stroke:rgb(0%,0%,0%);stroke-opacity:1;stroke-miterlimit:10;" d="M 38.440253 41.329954 C 38.531271 43.07228 39.193294 44.731966 40.173879 46.174722 C 40.835902 47.147463 41.977056 48.494667 41.626724 49.160091 C 37.147977 57.659956 42.249249 56.181905 42.710347 55.327098 C 45.897677 49.409732 48.835137 51.222647 47.357391 44.806859 C 47.357391 44.806859 52.62696 42.997388 52.876829 36.83038 " transform="matrix(4.549263,0,0,4.537756,-17.593579,7.138341)"/>
<path style="fill:none;stroke-width:2;stroke-linecap:round;stroke-linejoin:round;stroke:rgb(0%,0%,0%);stroke-opacity:1;stroke-miterlimit:10;" d="M 48.14993 45.590217 C 48.14993 45.590217 50.517244 48.794237 55.907883 48.282902 C 55.907883 48.282902 52.58231 55.044745 55.907883 55.902995 C 57.825261 56.397114 60.62963 44.743157 60.62963 44.743157 C 60.62963 44.743157 58.791248 43.949469 56.678956 40.561231 " transform="matrix(4.549263,0,0,4.537756,-17.593579,7.138341)"/>
<path style="fill-rule:nonzero;fill:rgb(98.823529%,91.764706%,16.862745%);fill-opacity:1;stroke-width:2;stroke-linecap:butt;stroke-linejoin:miter;stroke:rgb(98.823529%,91.764706%,16.862745%);stroke-opacity:1;stroke-miterlimit:4;" d="M 52.240365 37.399631 L 54.146203 8.390346 L 52.748713 6.324616 L 48.763864 6.561486 L 46.926923 11.296141 L 44.551841 28.675821 L 42.646003 30.801229 L 39.989747 28.489447 L 37.489906 7.369416 L 35.334549 5.675517 L 33.197813 5.754474 L 31.209113 8.942126 L 34.152129 33.772208 L 31.594563 33.772208 C 29.559311 27.945012 25.177838 31.538465 24.4898 34.856487 C 20.075742 32.533688 19.598118 34.261557 17.870109 37.090231 L 17.649452 45.165861 C 17.913868 48.014733 18.169904 49.847265 18.522768 52.113142 L 20.219122 57.387641 L 26.219672 64.304625 L 34.552476 66.969877 L 42.135793 66.054529 L 49.052486 61.460344 L 52.532712 56.116069 C 53.726305 49.441464 53.588511 43.886026 52.240365 37.406058 Z M 52.240365 37.399631 " transform="matrix(4.195579,0,0,4.254699,397.231579,-18.038244)"/>
<path style="fill:none;stroke-width:2;stroke-linecap:round;stroke-linejoin:round;stroke:rgb(0%,0%,0%);stroke-opacity:1;stroke-miterlimit:4;" d="M 52.62023 31.129909 L 54.419929 8.950389 C 54.077306 3.986209 47.64103 3.930204 47.1932 8.923764 L 44.773428 26.284164 C 44.472702 28.462822 43.495111 30.245777 42.606899 30.245777 C 41.718687 30.245777 40.761579 28.460985 40.481336 26.278656 L 38.249634 8.939372 C 37.430319 3.6612 30.810628 4.616945 31.212837 8.94029 L 33.739678 29.970346 " transform="matrix(4.195579,0,0,4.254699,397.231579,-18.038244)"/>
<path style="fill:none;stroke-width:2;stroke-linecap:round;stroke-linejoin:round;stroke:rgb(0%,0%,0%);stroke-opacity:1;stroke-miterlimit:4;" d="M 53.630407 50.079545 C 53.630407 59.951901 45.610433 66.959778 35.739551 66.959778 " transform="matrix(4.195579,0,0,4.254699,397.231579,-18.038244)"/>
<path style="fill:none;stroke-width:2;stroke-linecap:round;stroke-linejoin:round;stroke:rgb(0%,0%,0%);stroke-opacity:1;stroke-miterlimit:4;" d="M 43.739974 47.29035 L 43.739974 44.957451 C 43.739974 43.856646 41.951447 42.75676 39.764435 42.516217 L 38.715154 42.3987 C 36.528142 42.157239 34.738684 40.547805 34.738684 38.625298 C 34.738684 36.701874 36.539314 35.29075 38.739361 35.29075 L 48.738726 35.29075 C 50.939703 35.245763 52.796196 36.923136 52.974025 39.117401 L 53.631339 50.327433 " transform="matrix(4.195579,0,0,4.254699,397.231579,-18.038244)"/>
<path style="fill:none;stroke-width:2;stroke-linecap:round;stroke-linejoin:round;stroke:rgb(0%,0%,0%);stroke-opacity:1;stroke-miterlimit:4;" d="M 37.960081 50.359566 C 39.590331 48.879585 41.583687 47.859573 43.737181 47.402358 " transform="matrix(4.195579,0,0,4.254699,397.231579,-18.038244)"/>
<path style="fill:none;stroke-width:2;stroke-linecap:round;stroke-linejoin:miter;stroke:rgb(0%,0%,0%);stroke-opacity:1;stroke-miterlimit:10;" d="M 18.530216 52.100289 C 19.67167 60.700155 27.06878 67.080049 35.739551 66.959778 C 45.406535 66.959778 53.630407 60.127259 53.630407 50.079545 " transform="matrix(4.195579,0,0,4.254699,397.231579,-18.038244)"/>
<path style="fill:none;stroke-width:2;stroke-linecap:round;stroke-linejoin:round;stroke:rgb(0%,0%,0%);stroke-opacity:1;stroke-miterlimit:4;" d="M 31.750047 49.719649 C 31.750047 50.978368 31.078767 52.139767 29.990382 52.767749 C 28.901066 53.395731 27.559438 53.39665 26.470121 52.767749 C 25.380805 52.138849 24.710456 50.977449 24.710456 49.719649 L 24.710456 33.760273 C 24.710456 32.501555 25.380805 31.340155 26.470121 30.712173 C 27.559438 30.084191 28.901066 30.083273 29.990382 30.712173 C 31.078767 31.341073 31.750047 32.503391 31.750047 33.761191 Z M 31.750047 49.719649 " transform="matrix(4.195579,0,0,4.254699,397.231579,-18.038244)"/>
<path style="fill:none;stroke-width:2;stroke-linecap:round;stroke-linejoin:round;stroke:rgb(0%,0%,0%);stroke-opacity:1;stroke-miterlimit:4;" d="M 24.710456 44.940007 C 24.710456 46.202398 24.039177 47.366552 22.949861 47.998207 C 21.860544 48.628943 20.518916 48.628943 19.4296 47.998207 C 18.341215 47.36747 17.669935 46.202398 17.669935 44.940007 L 17.669935 37.003011 C 17.669935 35.74062 18.341215 34.575548 19.4296 33.944812 C 20.518916 33.314075 21.860544 33.314075 22.949861 33.944812 C 24.039177 34.575548 24.710456 35.74062 24.710456 37.003011 Z M 24.710456 44.940007 " transform="matrix(4.195579,0,0,4.254699,397.231579,-18.038244)"/>
</g>
</svg>
