<?xml version="1.0" encoding="UTF-8"?>
<svg xmlns="http://www.w3.org/2000/svg" xmlns:xlink="http://www.w3.org/1999/xlink" width="630px" height="px" viewBox="0 0 628 168" version="1.1">
<g id="surface1">
<path style=" stroke:none;fill-rule:nonzero;fill:rgb(88.627451%,43.921569%,13.333333%);fill-opacity:1;" d="M 42.597656 24.835938 C 37.242188 24.835938 32.859375 20.453125 32.859375 15.09375 C 32.859375 9.738281 37.242188 5.355469 42.597656 5.355469 C 47.953125 5.355469 52.332031 9.738281 52.332031 15.09375 C 52.332031 20.453125 48.195312 24.835938 42.597656 24.835938 Z M 42.597656 10.226562 C 39.917969 10.226562 37.730469 12.417969 37.730469 15.09375 C 37.730469 17.773438 39.917969 19.964844 42.597656 19.964844 C 45.273438 19.964844 47.464844 17.773438 47.464844 15.09375 C 47.464844 12.417969 45.273438 10.226562 42.597656 10.226562 Z M 42.597656 10.226562 "/>
<path style=" stroke:none;fill-rule:nonzero;fill:rgb(0%,0%,0%);fill-opacity:1;" d="M 290.632812 24.835938 C 285.277344 24.835938 280.894531 20.453125 280.894531 15.09375 C 280.894531 9.738281 285.277344 5.355469 290.632812 5.355469 C 295.988281 5.355469 300.367188 9.738281 300.367188 15.09375 C 300.367188 20.453125 295.988281 24.835938 290.632812 24.835938 Z M 290.632812 10.226562 C 287.953125 10.226562 285.765625 12.417969 285.765625 15.09375 C 285.765625 17.773438 287.953125 19.964844 290.632812 19.964844 C 293.308594 19.964844 295.5 17.773438 295.5 15.09375 C 295.5 12.417969 293.308594 10.226562 290.632812 10.226562 Z M 290.632812 10.226562 "/>
<path style=" stroke:none;fill-rule:nonzero;fill:rgb(0%,0%,0%);fill-opacity:1;" d="M 67.425781 100.070312 C 66.207031 100.070312 64.992188 99.097656 64.992188 97.636719 L 62.800781 48.9375 C 62.554688 43.339844 58.175781 37.738281 53.308594 36.523438 C 47.707031 35.304688 38.214844 35.304688 32.375 36.523438 C 27.503906 37.738281 23.125 43.339844 22.878906 48.9375 L 20.691406 97.636719 C 20.691406 99.097656 19.472656 100.070312 18.253906 100.070312 C 16.796875 100.070312 15.820312 98.851562 15.820312 97.636719 L 18.011719 48.9375 C 18.253906 41.148438 24.339844 33.601562 31.398438 32.140625 C 37.730469 30.679688 47.953125 30.679688 54.28125 32.140625 C 61.339844 33.601562 67.425781 41.390625 67.667969 48.9375 L 69.859375 97.636719 C 69.859375 98.851562 68.886719 100.070312 67.425781 100.070312 Z M 67.425781 100.070312 "/>
<path style=" stroke:none;fill-rule:nonzero;fill:rgb(0%,0%,0%);fill-opacity:1;" d="M 57.445312 160.9375 C 54.039062 160.9375 50.871094 157.773438 50.386719 153.878906 L 43.570312 93.984375 C 43.328125 92.765625 43.082031 92.035156 42.839844 91.546875 C 42.597656 92.035156 42.109375 92.765625 42.109375 93.984375 L 35.292969 153.878906 C 34.808594 157.773438 31.886719 160.9375 28.234375 160.9375 C 26.53125 160.9375 25.070312 160.207031 23.855469 158.988281 C 22.394531 157.773438 21.664062 155.824219 21.90625 153.636719 L 27.019531 48.9375 C 27.019531 47.476562 28.234375 46.503906 29.453125 46.503906 C 30.914062 46.503906 31.886719 47.722656 31.886719 48.9375 L 26.773438 153.636719 C 26.773438 154.367188 27.019531 155.097656 27.503906 155.585938 C 28.480469 156.554688 30.183594 155.339844 30.425781 153.148438 L 37.242188 93.253906 C 37.730469 89.113281 40.164062 86.195312 42.839844 86.195312 C 45.519531 86.195312 47.953125 89.113281 48.4375 93.253906 L 55.253906 153.390625 C 55.496094 155.339844 57.203125 156.800781 58.175781 155.824219 C 58.660156 155.339844 58.90625 154.609375 58.90625 153.878906 L 53.792969 49.183594 C 53.792969 47.722656 54.765625 46.746094 56.226562 46.746094 C 57.445312 46.746094 58.660156 47.722656 58.660156 49.183594 L 63.773438 153.878906 C 63.773438 156.066406 63.285156 158.015625 61.828125 159.476562 C 60.609375 160.453125 59.148438 160.9375 57.445312 160.9375 Z M 57.445312 160.9375 "/>
<path style=" stroke:none;fill-rule:nonzero;fill:rgb(0%,0%,0%);fill-opacity:1;" d="M 272.132812 160.9375 C 270.429688 160.9375 268.96875 160.207031 267.75 158.992188 C 266.535156 157.53125 265.804688 155.585938 266.046875 153.390625 L 276.027344 53.566406 C 276.269531 52.347656 277.246094 51.375 278.707031 51.375 C 279.921875 51.617188 281.140625 52.589844 280.894531 54.050781 L 270.917969 153.878906 C 270.917969 154.609375 270.917969 155.339844 271.402344 155.582031 C 272.375 156.800781 274.8125 155.09375 275.296875 153.148438 L 288.683594 104.207031 C 289.414062 101.285156 291.363281 97.148438 293.066406 94.714844 L 298.421875 87.164062 C 299.640625 85.457031 300.613281 82.050781 300.613281 79.859375 L 299.394531 55.269531 C 299.394531 53.808594 300.367188 52.835938 301.828125 52.835938 C 303.046875 52.835938 304.261719 53.808594 304.261719 55.269531 L 305.480469 79.859375 C 305.722656 83.027344 304.261719 87.652344 302.558594 90.332031 L 297.203125 97.878906 C 295.746094 99.828125 294.039062 103.480469 293.554688 105.914062 L 279.921875 154.609375 C 278.949219 158.261719 275.542969 160.9375 272.132812 160.9375 Z M 272.132812 160.9375 "/>
<path style=" stroke:none;fill-rule:nonzero;fill:rgb(0%,0%,0%);fill-opacity:1;" d="M 316.675781 154.363281 C 314.488281 154.363281 312.054688 153.148438 310.59375 151.199219 L 297.691406 133.910156 C 295.988281 131.476562 293.796875 127.582031 292.824219 124.902344 L 287.46875 111.023438 C 286.980469 109.804688 287.710938 108.34375 288.929688 107.859375 C 290.144531 107.371094 291.605469 108.105469 292.09375 109.320312 L 297.449219 123.199219 C 298.421875 125.390625 300.367188 129.042969 301.828125 130.988281 L 314.730469 148.277344 C 315.460938 149.25 317.164062 149.738281 317.894531 149.25 C 318.867188 148.761719 318.867188 147.0625 318.382812 145.84375 L 306.699219 126.609375 C 305.238281 123.929688 303.535156 119.792969 303.046875 116.871094 L 298.664062 88.871094 C 298.421875 87.652344 299.394531 86.191406 300.613281 86.191406 C 301.828125 85.945312 303.289062 86.921875 303.289062 88.140625 L 307.671875 116.140625 C 308.15625 118.574219 309.375 122.226562 310.59375 124.175781 L 322.277344 143.410156 C 324.222656 146.816406 323.492188 151.199219 320.328125 153.390625 C 319.113281 154.121094 317.894531 154.363281 316.675781 154.363281 Z M 316.675781 154.363281 "/>
<path style=" stroke:none;fill-rule:nonzero;fill:rgb(0%,0%,0%);fill-opacity:1;" d="M 302.558594 69.878906 C 301.34375 69.878906 300.125 68.90625 300.125 67.6875 L 298.664062 42.121094 C 298.421875 37.984375 294.769531 34.574219 290.875 34.574219 C 286.738281 34.574219 282.84375 37.984375 282.355469 42.121094 L 280.894531 54.050781 C 280.652344 55.269531 279.679688 56.242188 278.21875 56.242188 C 277 56 276.027344 54.78125 276.027344 53.566406 L 277.488281 41.636719 C 278.21875 35.0625 284.058594 29.703125 290.632812 29.703125 C 297.449219 29.703125 303.046875 35.0625 303.535156 41.636719 L 304.992188 67.199219 C 304.992188 68.660156 304.019531 69.878906 302.558594 69.878906 Z M 302.558594 69.878906 "/>
<path style=" stroke:none;fill-rule:nonzero;fill:rgb(88.627451%,43.921569%,13.333333%);fill-opacity:1;" d="M 283.085938 99.824219 C 282.84375 99.824219 282.601562 99.824219 282.601562 99.824219 C 281.382812 99.582031 280.410156 98.121094 280.894531 96.90625 L 287.710938 68.660156 C 288.199219 66.226562 288.683594 62.085938 288.683594 59.652344 L 288.441406 44.554688 C 288.441406 43.09375 289.414062 42.121094 290.875 42.121094 C 292.09375 42.121094 293.308594 43.09375 293.308594 44.554688 L 293.554688 59.652344 C 293.554688 62.574219 293.066406 66.957031 292.335938 69.878906 L 285.519531 98.121094 C 285.277344 99.09375 284.304688 99.824219 283.085938 99.824219 Z M 283.085938 99.824219 "/>
<path style=" stroke:none;fill-rule:nonzero;fill:rgb(88.627451%,43.921569%,13.333333%);fill-opacity:1;" d="M 9.492188 150.957031 L 19.230469 150.957031 L 19.230469 153.390625 L 9.492188 153.390625 Z M 9.492188 150.957031 "/>
<path style=" stroke:none;fill-rule:nonzero;fill:rgb(88.627451%,43.921569%,13.333333%);fill-opacity:1;" d="M 16.308594 157.285156 L 14.605469 155.582031 L 18.253906 152.175781 L 14.605469 148.523438 L 16.308594 146.816406 L 21.664062 152.175781 Z M 16.308594 157.285156 "/>
<path style=" stroke:none;fill-rule:nonzero;fill:rgb(88.627451%,43.921569%,13.333333%);fill-opacity:1;" d="M 37.972656 150.957031 L 47.707031 150.957031 L 47.707031 153.390625 L 37.972656 153.390625 Z M 37.972656 150.957031 "/>
<path style=" stroke:none;fill-rule:nonzero;fill:rgb(88.627451%,43.921569%,13.333333%);fill-opacity:1;" d="M 40.648438 157.285156 L 35.539062 152.175781 L 40.648438 146.816406 L 42.351562 148.523438 L 38.945312 152.175781 L 42.351562 155.582031 Z M 40.648438 157.285156 "/>
<path style=" stroke:none;fill-rule:nonzero;fill:rgb(88.627451%,43.921569%,13.333333%);fill-opacity:1;" d="M 18.253906 100.070312 C 18.011719 100.070312 18.011719 100.070312 18.253906 100.070312 C 16.796875 100.070312 15.820312 98.851562 15.820312 97.636719 L 18.011719 49.667969 C 18.011719 48.207031 19.230469 47.234375 20.445312 47.234375 C 21.90625 47.234375 22.878906 48.453125 22.878906 49.667969 L 20.691406 97.878906 C 20.445312 99.09375 19.472656 100.070312 18.253906 100.070312 Z M 18.253906 100.070312 "/>
<path style=" stroke:none;fill-rule:nonzero;fill:rgb(0%,0%,0%);fill-opacity:1;" d="M 548.648438 49.183594 C 543.292969 49.183594 538.910156 44.800781 538.910156 39.445312 C 538.910156 34.085938 543.292969 29.703125 548.648438 29.703125 C 554 29.703125 558.382812 34.085938 558.382812 39.445312 C 558.382812 44.800781 554.003906 49.183594 548.648438 49.183594 Z M 548.648438 34.816406 C 545.96875 34.816406 543.78125 37.007812 543.78125 39.6875 C 543.78125 42.363281 545.96875 44.554688 548.648438 44.554688 C 551.324219 44.554688 553.515625 42.363281 553.515625 39.6875 C 553.515625 37.007812 551.324219 34.816406 548.648438 34.816406 Z M 548.648438 34.816406 "/>
<path style=" stroke:none;fill-rule:nonzero;fill:rgb(0%,0%,0%);fill-opacity:1;" d="M 555.21875 139.757812 C 554.734375 139.757812 554.25 139.757812 553.757812 139.511719 C 551.8125 139.023438 550.351562 137.804688 549.378906 135.859375 L 538.667969 115.894531 C 537.207031 113.214844 535.992188 109.074219 536.234375 106.398438 C 536.234375 103.234375 538.667969 99.582031 541.589844 97.878906 L 552.785156 90.816406 C 554.246094 89.84375 554.976562 87.652344 554.734375 86.191406 L 551.082031 71.335938 C 550.835938 70.121094 551.566406 68.660156 552.785156 68.414062 C 554 68.171875 555.464844 68.902344 555.703125 70.121094 L 559.355469 84.972656 C 560.328125 88.625 558.382812 93.007812 555.21875 94.953125 L 544.019531 102.015625 C 542.316406 102.988281 540.855469 105.421875 540.855469 106.636719 C 540.855469 108.34375 541.585938 111.753906 542.804688 113.699219 L 553.515625 133.664062 C 553.757812 134.148438 554.242188 134.636719 554.972656 134.882812 C 555.460938 134.882812 555.703125 134.882812 556.191406 134.636719 C 557.164062 133.90625 557.652344 132.203125 557.164062 130.742188 L 550.832031 115.15625 C 549.375 111.503906 551.078125 107.125 554.730469 105.664062 L 568.117188 99.820312 C 570.066406 99.089844 572.742188 96.65625 573.71875 94.707031 L 573.960938 94.222656 C 574.933594 92.515625 574.933594 89.351562 574.207031 87.648438 L 563.007812 62.085938 C 562.277344 60.382812 560.089844 58.921875 558.628906 58.921875 C 556.679688 58.921875 554.246094 60.140625 553.273438 61.84375 L 548.652344 68.417969 C 546.945312 70.851562 543.78125 74.015625 541.347656 75.722656 L 530.878906 82.78125 C 529.660156 83.511719 528.203125 83.269531 527.472656 82.050781 C 526.746094 80.835938 526.988281 79.375 528.203125 78.644531 L 538.671875 71.582031 C 540.617188 70.121094 543.539062 67.445312 544.757812 65.496094 L 549.378906 58.921875 C 551.328125 56 555.464844 54.050781 558.871094 54.050781 C 562.277344 54.050781 566.171875 56.730469 567.636719 60.140625 L 578.832031 85.703125 C 580.296875 88.871094 580.050781 93.496094 578.347656 96.660156 L 578.101562 97.148438 C 576.644531 100.066406 572.992188 103.234375 570.070312 104.453125 L 556.683594 110.292969 C 555.464844 110.78125 554.734375 112.242188 555.464844 113.457031 L 561.792969 129.042969 C 563.257812 132.691406 562.039062 136.832031 559.117188 139.023438 C 557.410156 139.511719 556.4375 139.757812 555.21875 139.757812 Z M 555.21875 139.757812 "/>
<path style=" stroke:none;fill-rule:nonzero;fill:rgb(88.627451%,43.921569%,13.333333%);fill-opacity:1;" d="M 513.839844 165.566406 C 498.992188 165.566406 487.066406 153.636719 487.066406 138.78125 C 487.066406 123.929688 498.992188 112 513.839844 112 C 528.691406 112 540.617188 123.929688 540.617188 138.78125 C 540.617188 153.636719 528.445312 165.566406 513.839844 165.566406 Z M 513.839844 116.871094 C 501.667969 116.871094 491.933594 126.609375 491.933594 138.78125 C 491.933594 150.957031 501.667969 160.695312 513.839844 160.695312 C 526.011719 160.695312 535.746094 150.957031 535.746094 138.78125 C 535.746094 126.609375 525.765625 116.871094 513.839844 116.871094 Z M 513.839844 116.871094 "/>
<path style=" stroke:none;fill-rule:nonzero;fill:rgb(88.627451%,43.921569%,13.333333%);fill-opacity:1;" d="M 591.730469 165.566406 C 576.882812 165.566406 564.957031 153.636719 564.957031 138.78125 C 564.957031 123.929688 576.882812 112 591.730469 112 C 606.582031 112 618.507812 123.929688 618.507812 138.78125 C 618.507812 153.636719 606.335938 165.566406 591.730469 165.566406 Z M 591.730469 116.871094 C 579.5625 116.871094 569.824219 126.609375 569.824219 138.78125 C 569.824219 150.957031 579.5625 160.695312 591.730469 160.695312 C 603.902344 160.695312 613.640625 150.957031 613.640625 138.78125 C 613.640625 126.609375 603.660156 116.871094 591.730469 116.871094 Z M 591.730469 116.871094 "/>
<path style=" stroke:none;fill-rule:nonzero;fill:rgb(88.627451%,43.921569%,13.333333%);fill-opacity:1;" d="M 514.082031 142.433594 C 512.621094 142.433594 511.648438 141.21875 511.648438 139.757812 L 516.519531 81.320312 C 516.519531 80.105469 517.734375 79.128906 518.953125 79.128906 L 528.203125 79.128906 C 529.660156 79.128906 530.636719 80.105469 530.636719 81.566406 C 530.636719 83.027344 529.660156 84 528.203125 84 L 521.386719 84 L 516.761719 140.242188 C 516.519531 141.460938 515.542969 142.433594 514.082031 142.433594 Z M 514.082031 142.433594 "/>
<path style=" stroke:none;fill-rule:nonzero;fill:rgb(0%,0%,0%);fill-opacity:1;" d="M 549.136719 151.445312 C 547.433594 151.445312 545.730469 150.714844 544.511719 149.253906 C 543.296875 147.792969 542.566406 145.847656 543.050781 143.652344 L 545.242188 127.339844 L 550.109375 128.070312 L 547.917969 144.382812 C 547.917969 145.113281 547.917969 145.601562 548.40625 146.085938 C 549.378906 147.304688 552.300781 145.84375 553.03125 143.652344 L 555.464844 136.105469 L 560.085938 137.566406 L 557.652344 145.113281 C 556.195312 148.523438 552.542969 151.445312 549.136719 151.445312 Z M 549.136719 151.445312 "/>
<path style=" stroke:none;fill-rule:nonzero;fill:rgb(0%,0%,0%);fill-opacity:1;" d="M 561.628906 131.300781 L 556.984375 129.839844 L 565.8125 101.734375 L 570.457031 103.191406 Z M 561.628906 131.300781 "/>
</g>
</svg>
