<?xml version="1.0" encoding="UTF-8"?>
<svg xmlns="http://www.w3.org/2000/svg" xmlns:xlink="http://www.w3.org/1999/xlink" width="630px" height="px" viewBox="0 0 630 315" version="1.1">
<g id="surface1">
<path style=" stroke:none;fill-rule:nonzero;fill:rgb(98.823529%,91.764706%,16.862745%);fill-opacity:1;" d="M 680.898438 72.058594 L 648.21875 54.6875 L 616.761719 49.789062 L 577.820312 57.359375 L 553.933594 71.007812 L 531.882812 93.890625 L 516.394531 127.054688 L 516.394531 182.707031 L 541.640625 225.101562 L 577.820312 249.691406 L 616.761719 257.257812 L 649.136719 252.050781 L 683.875 232.539062 L 706.933594 204.757812 L 720.453125 163.238281 L 717.082031 127.230469 L 699.886719 91.570312 Z M 680.898438 72.058594 "/>
<path style="fill:none;stroke-width:2;stroke-linecap:butt;stroke-linejoin:miter;stroke:rgb(0%,0%,0%);stroke-opacity:1;stroke-miterlimit:10;" d="M 59.000197 35.999693 C 59.000197 48.702826 48.702337 58.999793 36.000097 58.999793 C 23.297856 58.999793 12.999997 48.702826 12.999997 35.999693 C 12.999997 23.297452 23.297856 12.999593 36.000097 12.999593 C 48.702337 12.999593 59.000197 23.297452 59.000197 35.999693 Z M 59.000197 35.999693 " transform="matrix(4.375151,0,0,4.375151,459.517583,-5.250181)"/>
<path style="fill:none;stroke-width:2;stroke-linecap:round;stroke-linejoin:round;stroke:rgb(0%,0%,0%);stroke-opacity:1;stroke-miterlimit:4;" d="M 26.460247 46.569864 C 28.336968 45.027953 32.284154 44.0762 36.459902 44.154769 C 40.293699 44.227981 43.753401 45.158306 45.459592 46.569864 " transform="matrix(4.375151,0,0,4.375151,459.517583,-5.250181)"/>
<path style=" stroke:none;fill-rule:nonzero;fill:rgb(100%,100%,100%);fill-opacity:1;" d="M 609.410156 132.042969 C 609.410156 147.75 596.679688 160.480469 580.972656 160.480469 C 565.265625 160.480469 552.535156 147.75 552.535156 132.042969 C 552.535156 116.335938 565.265625 103.605469 580.972656 103.605469 C 596.679688 103.605469 609.410156 116.335938 609.410156 132.042969 Z M 609.410156 132.042969 "/>
<path style="fill:none;stroke-width:2;stroke-linecap:butt;stroke-linejoin:miter;stroke:rgb(0%,0%,0%);stroke-opacity:1;stroke-miterlimit:10;" d="M 34.059985 31.380209 C 34.059985 34.970264 31.150264 37.879985 27.560209 37.879985 C 23.970155 37.879985 21.060433 34.970264 21.060433 31.380209 C 21.060433 27.790155 23.970155 24.880433 27.560209 24.880433 C 31.150264 24.880433 34.059985 27.790155 34.059985 31.380209 Z M 34.059985 31.380209 " transform="matrix(4.375151,0,0,4.375151,459.517583,-5.250181)"/>
<path style=" stroke:none;fill-rule:nonzero;fill:rgb(100%,100%,100%);fill-opacity:1;" d="M 682.429688 132.042969 C 682.429688 147.75 669.699219 160.480469 653.992188 160.480469 C 638.285156 160.480469 625.554688 147.75 625.554688 132.042969 C 625.554688 116.335938 638.285156 103.605469 653.992188 103.605469 C 669.699219 103.605469 682.429688 116.335938 682.429688 132.042969 Z M 682.429688 132.042969 "/>
<path style="fill:none;stroke-width:2;stroke-linecap:butt;stroke-linejoin:miter;stroke:rgb(0%,0%,0%);stroke-opacity:1;stroke-miterlimit:10;" d="M 51.149574 31.380209 C 51.149574 34.970264 48.239853 37.879985 44.649799 37.879985 C 41.059744 37.879985 38.150023 34.970264 38.150023 31.380209 C 38.150023 27.790155 41.059744 24.880433 44.649799 24.880433 C 48.239853 24.880433 51.149574 27.790155 51.149574 31.380209 Z M 51.149574 31.380209 " transform="matrix(4.375151,0,0,4.375151,459.517583,-5.250181)"/>
<path style=" stroke:none;fill-rule:evenodd;fill:rgb(0%,0%,0%);fill-opacity:1;" d="M 600.304688 127.710938 C 600.304688 138.871094 591.257812 147.917969 580.097656 147.917969 C 568.9375 147.917969 559.886719 138.871094 559.886719 127.710938 C 559.886719 116.550781 568.9375 107.5 580.097656 107.5 C 591.257812 107.5 600.304688 116.550781 600.304688 127.710938 Z M 600.304688 127.710938 "/>
<path style="fill:none;stroke-width:2;stroke-linecap:round;stroke-linejoin:round;stroke:rgb(0%,0%,0%);stroke-opacity:1;stroke-miterlimit:4;" d="M 19.949757 24.930432 C 21.135431 22.509087 22.949654 19.929711 28.95034 20.929677 " transform="matrix(4.375151,0,0,4.375151,459.517583,-5.250181)"/>
<path style=" stroke:none;fill-rule:nonzero;fill:rgb(100%,100%,100%);fill-opacity:1;" d="M 582.371094 124.253906 C 582.371094 129.085938 578.453125 133.003906 573.621094 133.003906 C 568.789062 133.003906 564.871094 129.085938 564.871094 124.253906 C 564.871094 119.421875 568.789062 115.503906 573.621094 115.503906 C 578.453125 115.503906 582.371094 119.421875 582.371094 124.253906 Z M 582.371094 124.253906 "/>
<path style=" stroke:none;fill-rule:nonzero;fill:rgb(98.823529%,91.764706%,16.862745%);fill-opacity:1;" d="M 51.753906 127.054688 L 51.753906 182.707031 L 77 225.101562 L 113.179688 249.691406 L 152.121094 257.257812 L 184.496094 252.054688 L 219.234375 232.539062 L 242.292969 204.757812 L 255.8125 163.238281 L 252.441406 127.230469 L 235.246094 91.574219 L 216.257812 72.058594 L 183.578125 54.691406 L 152.121094 49.789062 L 113.179688 57.359375 L 89.292969 71.007812 L 67.242188 93.890625 Z M 51.753906 127.054688 "/>
<path style=" stroke:none;fill-rule:nonzero;fill:rgb(0%,0%,0%);fill-opacity:1;" d="M 131.554688 132.085938 C 131.554688 140.445312 124.777344 147.226562 116.417969 147.226562 C 108.058594 147.226562 101.28125 140.445312 101.28125 132.085938 C 101.28125 123.726562 108.058594 116.949219 116.417969 116.949219 C 124.777344 116.953125 131.550781 123.726562 131.554688 132.085938 "/>
<path style="fill:none;stroke-width:2;stroke-linecap:butt;stroke-linejoin:miter;stroke:rgb(0%,0%,0%);stroke-opacity:1;stroke-miterlimit:10;" d="M 59.000287 36.000386 C 59.000287 48.702626 48.702428 58.999593 36.000187 58.999593 C 23.297054 58.999593 13.000088 48.702626 13.000088 36.000386 C 13.000088 23.297252 23.297054 13.000286 36.000187 13.000286 C 48.702428 13.000286 59.000287 23.297252 59.000287 36.000386 Z M 59.000287 36.000386 " transform="matrix(4.375151,0,0,4.375151,-5.123439,-5.249306)"/>
<path style=" stroke:none;fill-rule:nonzero;fill:rgb(0%,0%,0%);fill-opacity:1;" d="M 204.882812 132.085938 C 204.882812 140.445312 198.105469 147.226562 189.746094 147.226562 C 181.386719 147.226562 174.609375 140.445312 174.609375 132.085938 C 174.609375 123.726562 181.386719 116.949219 189.746094 116.949219 C 198.105469 116.953125 204.878906 123.726562 204.882812 132.085938 "/>
<path style="fill:none;stroke-width:2;stroke-linecap:round;stroke-linejoin:round;stroke:rgb(0%,0%,0%);stroke-opacity:1;stroke-miterlimit:4;" d="M 26.999605 44.12957 C 28.877219 42.587659 32.824404 41.635906 37.000153 41.715367 C 40.833949 41.787686 44.292759 42.718011 45.999843 44.12957 " transform="matrix(4.375151,0,0,4.375151,-5.123439,-5.249306)"/>
<path style="fill:none;stroke-width:2;stroke-linecap:round;stroke-linejoin:round;stroke:rgb(0%,0%,0%);stroke-opacity:1;stroke-miterlimit:4;" d="M 21.999777 26.999803 C 23.184558 24.579351 24.999674 21.999976 31.00036 22.999941 " transform="matrix(4.375151,0,0,4.375151,-5.123439,-5.249306)"/>
<path style="fill:none;stroke-width:2;stroke-linecap:round;stroke-linejoin:round;stroke:rgb(0%,0%,0%);stroke-opacity:1;stroke-miterlimit:4;" d="M 50.99967 26.999803 C 49.81489 24.579351 47.999774 21.999976 41.999981 22.999941 " transform="matrix(4.375151,0,0,4.375151,-5.123439,-5.249306)"/>
<path style=" stroke:none;fill-rule:nonzero;fill:rgb(100%,100%,100%);fill-opacity:1;" d="M 113.003906 126.003906 C 113.003906 128.421875 111.046875 130.378906 108.628906 130.378906 C 106.214844 130.378906 104.253906 128.421875 104.253906 126.003906 C 104.253906 123.589844 106.214844 121.628906 108.628906 121.628906 C 111.046875 121.628906 113.003906 123.589844 113.003906 126.003906 Z M 113.003906 126.003906 "/>
<path style=" stroke:none;fill-rule:nonzero;fill:rgb(100%,100%,100%);fill-opacity:1;" d="M 187.382812 126.003906 C 187.382812 128.421875 185.425781 130.378906 183.007812 130.378906 C 180.589844 130.378906 178.632812 128.421875 178.632812 126.003906 C 178.632812 123.589844 180.589844 121.628906 183.007812 121.628906 C 185.425781 121.628906 187.382812 123.589844 187.382812 126.003906 Z M 187.382812 126.003906 "/>
<path style="fill:none;stroke-width:3.138;stroke-linecap:round;stroke-linejoin:round;stroke:rgb(0%,0%,0%);stroke-opacity:1;stroke-miterlimit:4;" d="M -24.500175 33.550114 L -1.530432 33.550114 L -8.471264 26.609282 " transform="matrix(4.375151,0,0,4.375151,441.535713,6.435847)"/>
<path style="fill:none;stroke-width:3.138;stroke-linecap:round;stroke-linejoin:round;stroke:rgb(0%,0%,0%);stroke-opacity:1;stroke-miterlimit:4;" d="M -1.523289 33.550114 L -8.0311 40.057925 " transform="matrix(4.375151,0,0,4.375151,441.535713,6.435847)"/>
</g>
</svg>
