<svg id="emoji" viewBox="0 0 72 72" version="1.1" xmlns="http://www.w3.org/2000/svg">
  <g id="line-supplement" transform="translate(-14.377 15.352)" stroke-linecap="round" stroke-linejoin="round" stroke-width="2">
    <path transform="translate(14.333 -15.198)" d="m14.01 52.569-2.856 0.24768-1.4151 2.4931-1.1181-2.6396-2.8083-0.57539 2.1649-1.8791-0.32059-2.8487 2.4561 1.4783 2.6102-1.1852-0.64698 2.7927z"/>
    <path transform="matrix(.73396 -.67919 -.67919 -.73396 64.464 47.592)" d="m14.01 52.569-2.856 0.24768-1.4151 2.4931-1.1181-2.6396-2.8083-0.57539 2.1649-1.8791-0.32059-2.8487 2.4561 1.4783 2.6102-1.1852-0.64698 2.7927z"/>
    <path transform="translate(14.377 -15.352)" stroke="#000" stroke-linecap="round" stroke-linejoin="round" stroke-width="2" d="m35.875 54.656 1.3125 10.344 2.7812-12.094z"/>
    <path stroke="#000" stroke-linecap="round" stroke-linejoin="round" stroke-width="2" d="m44.208 28.71-3.8449 6.8722 6.7617-3.7786"/>
    <path stroke="#000" stroke-linecap="round" stroke-linejoin="round" stroke-width="2" d="m44.22 8.8512-0.6875-6.2656 2.8125 5.4375"/>
    <path stroke="#000" stroke-linecap="round" stroke-linejoin="round" stroke-width="2" d="m67.057 9.5642 7.8429-6.0054-6.6298 8.0258 6.3811-1.972-5.8046 4.4174"/>
    <path stroke="#000" stroke-linecap="round" stroke-linejoin="round" stroke-width="2" d="m61.355 7.85 2.0771-3.5797-1.127 4.5078"/>
  </g>
  <g id="line" fill="none" stroke="#000" stroke-linecap="round" stroke-linejoin="round" stroke-width="2">
    <path d="m55.573 48.516c0.79934-0.49392 1.3396-0.99157 1.8839-1.6422m2.3437-4.8352c0.49808-2.9568-0.16468-5.0539-1.1867-6.5291m-4.2936-4.8814c0.09728-8.3808-7.6139-5.3818-7.8108-5.3904h-2e-3v-2e-3c-0.17765-2.5999-1.7781-5.1842-4.4121-5.6211-0.54306-0.09008-1.06-0.14689-1.5527-0.17383l9.3e-5 1.88e-4c-7.2065-0.39391-9.1528 5.5543-9.3477 5.8027-0.0015 0.0017-0.0065 5e-3 -0.0078 0.0059v2e-3h-4e-3c-1.9121-0.92174-4.2047-1.2458-6.4678-0.98196m-6.2766 2.5342c-1.7255 1.3704-3.0467 3.2741-3.6005 5.7026m1.2179 10.312c-0.33883 0.78916-0.94404 2.4486-0.3436 4.1812 0.68979 1.9905 3.9417 2.6781 4.0625 2.8945m10.891 9.8401c1.1206-0.18301 2.2436-0.49033 3.2203-0.79634m7.5771 0.51137c1.8179 0.21182 3.9985 0.06854 6.3217-0.92233 2.0497-0.87423 3.4206-3.1238 4.2912-5.1648"/>
    <path d="m12.816 30.494c-6.0299-13.888 9.6963-6.6502 24.092 4.7973 16.134 12.83 30.8 30.607 15.329 23.133m-39.264-12.121c-6.6439-2.2835 0.27644-6.317 15.142-9.4712 1.7996-0.38184 3.1649-0.639 5.1429-0.9825m7.2865-1.228c14.891-2.0856 29.232-2.1893 21.89 3.2259"/>
    <path d="m37.359 26.484c4.1923-0.49391 5.5392 1.4677 6.75 3.5469"/>
    <path d="m45.034 36.504c-0.10196 0.66559-0.24476 1.2437-0.42153 1.749m-3.4559 3.5719c-0.49984 0.22568-1.0118 0.42535-1.5143 0.64533"/>
    <path d="m26.062 40.219c0.94137 2.9283 2.7262 3.243 4.981 3.0518 0.96309 4.6257 4.2217 5.1387 7.9031 3.4094"/>
    <path d="m22.406 32.062c-1.0173 1.3386-1.461 2.5472-1.562 3.6703m1.3338 5.2437c0.17945 0.42483 0.1681 0.38246 0.32192 0.80474"/>
    <path d="m20.998 52.395a3.2925 3.3367 0 0 0-1.8164 0.64062 4.1211 3.977 0 0 0-1.959-0.39648 4.1211 3.977 0 0 0-3.9629 4.0762 4.1211 3.977 0 0 0 4.1719 3.875 4.1211 3.977 0 0 0 0.16602-0.0059 2.7069 2.6737 0 0 0 2.1797 1.0449 2.7069 2.6737 0 0 0 2.6738-2.6738l-0.0039-0.13672a2.7069 2.6737 0 0 0-2e-3 -0.0332 3.2925 3.3367 0 0 0 1.9727-3.0566l-0.0059-0.16992a3.2925 3.3367 0 0 0-3.4141-3.1641z"/>
    <path d="m55.817 43.509 5.7894 1.8562-2.0771 2.0992 5.6569 2.0329"/>
    <path d="m6.4688 35.25 4.125 1.5625-0.34375-2.875 6.3125 2.5312"/>
    <path d="m25.625 63.406 5.7812-10.594"/>
    <path d="m50.594 6.8438-5.0625 11.531"/>
    <path d="m57.875 13.906-5.625 7.0625"/>
    <path d="m33.433 10.253c-0.63073 5.1411 3.8599 7.6914 6.9052 5.765 1.5565-0.98466 3.3006-4.097-0.02392-6.1974-0.57371-0.36248-3.1006-1.1954-4.3027 0.99754-0.0759 0.13846-0.80273 1.705 0.56798 3.0519 0.16754 0.16463 1.699 1.3713 3.1612-0.36933 0.39962-0.47571-0.0086-2.6368-1.6784-1.3805"/>
  </g>
</svg>
