<svg id="emoji" viewBox="0 0 72 72" version="1.1" xmlns="http://www.w3.org/2000/svg">
  <g id="line" transform="translate(16.432 -11.591)" fill-rule="evenodd" stroke-linecap="round" stroke-linejoin="round" stroke-miterlimit="1.5" clip-rule="evenodd">
    <path transform="translate(-16.432 11.591)" fill-rule="evenodd" stroke-width="0.1148" d="m45.111 30.04 7.3168-4.7893c0.06847-0.04474 0.1423-0.08128 0.21955-0.10848 0 0 1.4371-0.47055 2.5706 0.16613 1.0738 0.60237 1.5047 1.8294 1.5047 1.8294 0.03701 0.10624 0.05548 0.21812 0.05477 0.33214l-0.1074 17.348-1.31e-4 0.0128s-0.0278 1.4263-1.235 2.1771c-1.2304 0.76572-2.1308 0.26272-2.3476 0.11524l-7.8914-3.9188c-0.3405-0.1696-0.55574-0.51721-0.55515-0.89771l0.01797-11.431c6.04e-4 -0.33744 0.17055-0.65118 0.45232-0.83588zm8.9989 15.362c0.02599-0.0032 0.15814-0.02295 0.26835-0.09173 0.27117-0.1685 0.29068-0.48133 0.29192-0.5139l0.10528-17.14c-0.0796-0.16482-0.24817-0.44218-0.53626-0.6043-0.29554-0.16568-0.64872-0.10384-0.82765-0.05432l-6.7536 4.4211-0.01613 10.271 7.4096 3.6803c0.01997 0.0095 0.03947 0.02015 0.05851 0.03197z"/>
    <path transform="translate(-16.432 11.591)" fill="none" stroke="#000" stroke-width="1.9984" d="m42.598 28.414v15.42c0 2.3834-1.9352 4.3192-4.3189 4.3192h-17.718c-2.3837 0-4.319-1.9358-4.319-4.3192v-15.42c0-2.3834 1.9353-4.3179 4.319-4.3179h17.718c2.3837 0 4.3189 1.9345 4.3189 4.3179z"/>
    <path transform="translate(-16.432 11.591)" fill="none" stroke="#000" stroke-width="1.9977" d="m61.068 24.241v23.301c0 6.4304-5.2204 11.651-11.65 11.651h-27.2c-6.43 0-11.65-5.2204-11.65-11.651v-23.301c0-6.4304 5.2205-11.651 11.65-11.651h27.2c6.4301 0 11.65 5.2204 11.65 11.651z"/>
  </g>
</svg>
