<?xml version="1.0" encoding="utf-8"?>
<!-- Generator: Adobe Illustrator 16.0.0, SVG Export Plug-In . SVG Version: 6.00 Build 0)  -->
<!DOCTYPE svg PUBLIC "-//W3C//DTD SVG 1.1//EN" "http://www.w3.org/Graphics/SVG/1.1/DTD/svg11.dtd">
<svg version="1.1" id="Ebene_1" xmlns="http://www.w3.org/2000/svg" xmlns:xlink="http://www.w3.org/1999/xlink" x="0px" y="0px"
	 width="1600px" height="900px" viewBox="0 0 1600 900" enable-background="new 0 0 1600 900" xml:space="preserve">
<g>
	<path fill="#C12423" d="M1344.818,183.276c-6.114-5.059-15.629-6.322-24.789-5.688c-9.535,0.657-18.857,3.675-27.133,8.725
		c-8.303,5.066-17.301,7.39-25.949,7.498c-8.646-0.107-17.645-2.432-25.947-7.498c-8.275-5.049-17.597-8.068-27.131-8.725
		c-9.163-0.634-18.676,0.629-24.791,5.688c0,0-22.077,16.953,3.053,36.481c49.877,20.802,99.756,20.804,149.637,0
		C1366.896,200.229,1344.818,183.276,1344.818,183.276"/>
	<path fill="#69462E" d="M1213.789,203.317c0,0-52.338,12.436-38.945,77.416c0,0,26.394,0.695,37.093-11.95
		c0,0,12.24-11.039,17.317-40.297c5.077-29.254-15.998-25.281-15.998-25.281"/>
	<path fill="#FCEA2C" d="M1321.682,215.739c0-38.528-24.988-69.759-55.809-69.759c-30.821,0-55.807,31.231-55.807,69.759
		c0,38.525,24.985,69.757,55.807,69.757C1296.693,285.496,1321.682,254.264,1321.682,215.739"/>
	<path d="M1296.996,208.576c0,5.437-4.414,9.844-9.844,9.844c-5.432,0-9.844-4.407-9.844-9.844c0-5.431,4.412-9.844,9.844-9.844
		C1292.582,198.732,1296.996,203.146,1296.996,208.576"/>
	<path d="M1257.621,208.576c0,5.437-4.414,9.844-9.844,9.844c-5.432,0-9.844-4.407-9.844-9.844c0-5.431,4.412-9.844,9.844-9.844
		C1253.207,198.732,1257.621,203.146,1257.621,208.576"/>
	<path d="M1267.463,257.808c-5.669,0-11.338-1.409-16.966-4.223c-2.433-1.215-3.419-4.172-2.202-6.604
		c1.213-2.43,4.165-3.417,6.604-2.201c8.455,4.229,16.674,4.229,25.13,0c2.433-1.216,5.388-0.229,6.604,2.201
		c1.216,2.432,0.229,5.389-2.202,6.604C1278.803,256.398,1273.132,257.808,1267.463,257.808"/>
	<path d="M1267.463,289.956c-33.488,0-60.729-33.502-60.729-74.68c0-4.554,0.335-9.126,1.001-13.588l9.736,1.447
		c-0.592,3.985-0.894,8.071-0.894,12.141c0,35.752,22.825,64.837,50.886,64.837s50.886-29.084,50.886-64.837
		c0-5.28-0.498-10.531-1.489-15.603l9.66-1.884c1.111,5.693,1.673,11.576,1.673,17.487
		C1328.192,256.454,1300.949,289.956,1267.463,289.956"/>
	<path fill="#69462E" d="M1215.648,202.05c23.338-2.458,57.979-37.232,57.979-37.232s41.897,43,53.611,33.947
		c1.064-11.713-6.389-23.426-6.389-23.426s-43.469-26.971-98.299-1.779c-15.109,18.816-7.896,34.255-7.896,34.255"/>
	<path fill="#EA5946" d="M1265.873,113.961c0.34,0,0.689,0.026,1.03,0.029c0.341-0.002,0.688-0.029,1.03-0.029H1265.873z"/>
	<path fill="#EA5946" d="M1266.903,113.991c-26.714,0.303-57.679,9.731-58.096,58.802l-1.38,4.427
		c2.949-0.273,5.994-0.299,9.004-0.103c9.217,0.602,18.227,3.366,26.221,7.991c8.026,4.64,16.722,6.77,25.08,6.866
		c8.357-0.097,17.055-2.227,25.08-6.866c7.998-4.625,17.004-7.39,26.222-7.991c2.491-0.165,5.005-0.168,7.472-0.018l-1.508-4.306
		C1324.582,123.722,1293.617,114.294,1266.903,113.991"/>
	<path fill="#FCEA2C" d="M1245.739,163.607V140.56l20.263-25.702l22.045,26.089v22.661
		C1275.57,172.794,1256.664,169.42,1245.739,163.607"/>
	<path fill="#1D1D1B" d="M1268.713,174.26c-9.109,0-18.251-2.563-25.288-6.309c-1.605-0.856-2.608-2.527-2.608-4.347v-23.044
		c0-1.106,0.369-2.18,1.057-3.047l20.266-25.706c0.912-1.161,2.301-1.848,3.78-1.875h0.083c1.446,0,2.822,0.638,3.76,1.747
		l22.045,26.087c0.75,0.891,1.165,2.015,1.165,3.178v22.66c0,1.565-0.745,3.036-2.005,3.965
		C1284.502,172.328,1276.619,174.26,1268.713,174.26 M1250.66,160.524c9.814,4.308,23.286,5.647,32.468,0.417v-18.198
		l-16.991-20.105l-15.477,19.627V160.524z"/>
	<path d="M1269.207,174.26c-9.107,0-18.244-2.563-25.283-6.309c-1.605-0.856-2.608-2.527-2.608-4.347v-23.044
		c0-1.106,0.369-2.18,1.058-3.047l20.265-25.706c0.913-1.161,2.302-1.848,3.782-1.875h0.082c1.447,0,2.82,0.638,3.759,1.747
		l22.043,26.087c0.749,0.891,1.163,2.015,1.163,3.178v22.66c0,1.565-0.746,3.036-2.004,3.965
		C1284.996,172.328,1277.115,174.26,1269.207,174.26 M1251.159,160.524c9.796,4.308,23.273,5.652,32.464,0.417v-18.198
		l-16.992-20.105l-15.472,19.627V160.524z"/>
	<path d="M1324.729,177.714c-2.701,0-4.898-2.177-4.922-4.881c-0.304-35.958-17.699-53.612-53.17-53.944
		c-35.479,0.333-52.872,17.987-53.176,53.944c-0.023,2.704-2.221,4.881-4.922,4.881h-0.043c-2.715-0.023-4.902-2.244-4.879-4.961
		c0.342-40.802,21.578-62.773,61.441-63.684c0.18-0.021,0.362-0.03,0.545-0.03h2.062c0.183,0,0.363,0.009,0.542,0.03
		c39.867,0.91,61.1,22.882,61.443,63.684c0.023,2.718-2.164,4.938-4.879,4.961H1324.729z"/>
	<path d="M1322.246,209.954c-7.57,0.002-17.041-7.967-26.943-16.296c-1.962-1.644-3.902-3.281-5.791-4.817
		c-2.111-1.715-2.43-4.812-0.719-6.922c1.718-2.107,4.817-2.429,6.928-0.715c1.933,1.57,3.916,3.239,5.917,4.922
		c5.075,4.272,13.827,11.631,18.457,13.529c-0.634-7.614-4.173-16.829-5.503-19.235c-1.324-2.378-0.463-5.374,1.911-6.693
		c2.37-1.314,5.374-0.461,6.692,1.916c2.062,3.706,7.709,18.018,6.723,28.9c-0.125,1.364-0.811,2.613-1.893,3.451
		C1326.266,209.353,1324.328,209.954,1322.246,209.954 M1325.017,204.098h0.048H1325.017z"/>
	<path d="M1339.777,220.661c-1.514,0-3.004-0.698-3.969-2.007c-1.611-2.186-1.146-5.268,1.047-6.879
		c6.393-4.709,9.627-9.406,9.613-13.969c-0.02-6.5-6.576-11.452-6.64-11.499c-4.335-3.393-11.665-4.878-20.743-4.28
		c-8.393,0.549-16.717,3.09-24.081,7.341c-8.321,4.812-17.823,7.415-27.485,7.531c-9.775-0.116-19.278-2.72-27.604-7.531
		c-7.354-4.253-15.678-6.792-24.076-7.341c-9.089-0.595-16.404,0.885-20.596,4.174c-0.48,0.357-8.863,6.7-6.281,14.76
		c0.831,2.588-0.596,5.361-3.182,6.189c-2.6,0.831-5.363-0.598-6.191-3.185c-4.77-14.869,9.127-25.185,9.725-25.619
		c7.672-6.026,19.042-6.669,27.17-6.144c9.896,0.649,19.703,3.636,28.363,8.644c6.857,3.968,14.703,6.113,22.672,6.209
		c7.855-0.096,15.699-2.241,22.558-6.209c8.667-5.008,18.472-7.995,28.364-8.644c8.141-0.538,19.495,0.118,27.316,6.249
		c0.297,0.211,10.52,7.782,10.555,19.327c0.018,7.874-4.562,15.249-13.623,21.919
		C1341.811,220.348,1340.791,220.661,1339.777,220.661"/>
	<path d="M1212.928,207.383c-2.49,0-4.623-1.879-4.887-4.407c-0.288-2.701,1.67-5.123,4.377-5.41
		c7.547-0.793,18.002-5.9,30.229-14.763c2.207-1.593,5.281-1.104,6.873,1.095c1.598,2.202,1.105,5.278-1.096,6.872
		c-13.814,10.019-25.584,15.596-34.977,16.586C1213.273,207.373,1213.102,207.383,1212.928,207.383"/>
	<path d="M1177.648,282.603c-2.33,0-4.349-1.634-4.822-3.927c-10.231-49.651,20.865-68.195,33.119-73.463
		c-1.251-6.274-1.55-17.702,7.406-30.77c1.543-2.24,4.598-2.818,6.844-1.275c2.24,1.535,2.812,4.6,1.279,6.843
		c-9.994,14.57-5.262,25.709-5.057,26.177c0.581,1.314,0.568,2.847-0.052,4.14c-0.626,1.298-1.775,2.283-3.164,2.654
		c-1.634,0.446-39.188,11.294-31.521,59.412c6.911-0.89,17.885-3.51,23.133-9.713c1.76-2.074,4.854-2.327,6.941-0.577
		c2.07,1.758,2.331,4.864,0.576,6.939c-10.713,12.655-33.559,13.527-34.525,13.555
		C1177.754,282.603,1177.701,282.603,1177.648,282.603"/>
	<path fill="#A37838" d="M1173.166,366.084c0,0-9.844-66.445,49.219-66.445c15.711,10.474,29.167,17.711,44.297,17.68h-0.615
		c15.127,0.031,28.095-12.621,43.805-23.096c49.553-2.883,58.089,36.812,56.35,53.586c-0.967,9.319-5.502,18.128-5.164,18.274"/>
	<path fill="#FCEA2C" d="M1310.661,297.977l0.296,0.442l-24.707,37.261h-37.998l-24.904-38.145
		c15.504,10.334,28.842,17.522,43.707,17.667h0.147h0.442C1282.311,315.058,1295.453,308.066,1310.661,297.977"/>
	<polygon fill="#3F3F3F" points="1286.25,335.679 1267.104,364.57 1248.252,335.679 	"/>
	<path d="M1174.131,366.034c-2.387,0-4.481-1.734-4.855-4.167c-0.201-1.326-4.788-32.646,12.703-53.035
		c9.465-11.031,23.384-16.62,41.379-16.62c0.972,0,1.924,0.288,2.73,0.827c15.521,10.342,27.859,16.778,41.26,16.85
		c13.406-0.067,25.742-6.503,41.26-16.85c0.807-0.539,1.76-0.827,2.729-0.827c6.279,0,12.129,0.691,17.391,2.057
		c2.629,0.683,4.209,3.364,3.527,5.998c-0.682,2.63-3.369,4.224-5.998,3.528c-4.057-1.047-8.574-1.629-13.457-1.725
		c-16.285,10.752-29.658,17.446-44.918,17.658c-0.105,0.006-0.211,0.006-0.316,0.006h-0.102h-0.227
		c-0.075-0.006-0.133-0.006-0.204,0c-0.075,0-0.146,0-0.217-0.006c-15.252-0.212-28.63-6.906-44.918-17.658
		c-14.256,0.278-25.153,4.696-32.415,13.135c-14.549,16.915-10.522,44.887-10.479,45.173c0.408,2.681-1.438,5.192-4.123,5.604
		C1174.629,366.02,1174.379,366.034,1174.131,366.034"/>
	<path d="M1223.357,366.27h-8.752c-2.721,0-4.922-2.2-4.922-4.922v-63.345c0-2.72,2.201-4.923,4.922-4.923
		c1.749,0,3.283,0.914,4.158,2.288c0.527-1.378,1.668-2.485,3.145-2.936c2.041-0.64,4.296,0.138,5.51,1.922l39.731,58.121
		l39.756-57.28c1.226-1.768,3.464-2.538,5.514-1.887c1.307,0.408,2.35,1.327,2.933,2.5c0.824-1.557,2.465-2.616,4.35-2.616
		c2.72,0,4.922,2.202,4.922,4.922v39.269c0,0.78-0.184,1.543-0.539,2.235l-8.752,17.177c-1.031,2.029-3.303,3.082-5.533,2.554
		c-2.211-0.534-3.772-2.515-3.772-4.787v-40.837l-34.862,50.232c-0.92,1.327-2.428,2.114-4.041,2.114h-0.02
		c-1.617-0.004-3.13-0.807-4.043-2.143l-34.781-50.876v48.296C1228.279,364.069,1226.08,366.27,1223.357,366.27"/>
	<path d="M1286.257,338.229h-37.991c-2.72,0-4.922-2.201-4.922-4.922c0-2.722,2.202-4.922,4.922-4.922h37.991
		c2.72,0,4.922,2.2,4.922,4.922C1291.179,336.028,1288.977,338.229,1286.257,338.229"/>
	<path fill="#9A9B99" d="M1404.18,266.225l7.04,8.467c-11.272,8.76-32.386,35.634-32.386,35.634l-14.916-17.966
		C1363.918,292.359,1393.105,276.363,1404.18,266.225"/>
	<polygon fill="#9A9B99" points="1363.92,292.359 1378.834,310.325 1365.002,321.793 1350.089,303.828 	"/>
	<path fill="#3F3F3F" d="M1350.089,303.828l14.913,17.963c0,0-34.355,29.139-32.73,44.348h-25.642
		C1301.854,335.966,1350.089,303.828,1350.089,303.828"/>
	<path d="M1365.637,326.726c-1.418,0-2.822-0.604-3.793-1.782l-14.906-17.985c-0.836-1.007-1.234-2.298-1.114-3.601
		c0.126-1.298,0.759-2.493,1.765-3.326l7.873-6.528l-29.545-13.961c-2.457-1.163-3.506-4.095-2.346-6.556
		c1.162-2.453,4.08-3.514,6.555-2.346l34.248,16.188c6.902-3.879,28.334-16.179,37.149-24.224c0.995-0.909,2.315-1.352,3.657-1.279
		c1.34,0.096,2.59,0.735,3.445,1.772l7,8.446c0.85,1.023,1.248,2.351,1.104,3.673c-0.143,1.32-0.815,2.532-1.87,3.348
		c-10.356,8.067-30.222,33.166-31.468,34.749c-0.188,0.244-0.402,0.481-0.643,0.695l-0.005,0.006
		c-0.053,0.049-0.106,0.092-0.164,0.14l-13.81,11.441C1367.852,326.357,1366.741,326.726,1365.637,326.726 M1357.656,304.468
		l8.623,10.406l6.25-5.177l-8.624-10.406L1357.656,304.468z M1372.109,293.763l7.288,8.794c5.788-7.13,16.985-20.542,25.565-28.456
		l-0.758-0.92C1394.778,280.546,1379.936,289.298,1372.109,293.763"/>
	<path d="M1307.286,366.12c-2.38,0-4.472-1.726-4.854-4.146c-5.265-33.164,43.787-61.26,45.877-62.443
		c2.369-1.34,5.365-0.498,6.701,1.866c1.336,2.369,0.504,5.368-1.861,6.709c-0.451,0.256-45.191,25.894-40.999,52.32
		c0.428,2.686-1.403,5.21-4.091,5.632C1307.799,366.101,1307.539,366.12,1307.286,366.12"/>
	<path d="M1332.914,366.27c-2.484,0-4.619-1.874-4.889-4.398c-1.842-17.203,28.632-39.741,34.761-44.081
		c2.221-1.576,5.291-1.058,6.858,1.167c1.572,2.218,1.053,5.288-1.168,6.859c-13.279,9.427-31.574,26.515-30.664,35.007
		c0.287,2.706-1.67,5.127-4.371,5.416C1333.266,366.26,1333.086,366.27,1332.914,366.27"/>
	<path d="M1361.051,366.034c-0.25,0-0.498-0.014-0.75-0.053c-2.688-0.412-4.533-2.923-4.124-5.604c0-0.025,0.356-2.391,0.495-6.1
		l0.043-1.476c0.035-1.471,0.024-3.082-0.037-4.812l0.057-3.423c0.052-2.72,2.316-4.71,5.018-4.825
		c2.722,0.054,4.878,2.302,4.826,5.018l-0.062,3.143c0.067,1.664,0.078,3.466,0.043,5.092l-0.053,1.652
		c-0.163,4.325-0.582,7.104-0.602,7.22C1365.531,364.3,1363.434,366.034,1361.051,366.034"/>
</g>
<g>
	<path fill="#90D2F4" d="M1185.795,785.186c0,0-8.861-68.416,50.201-68.416c15.709,10.474,29.17,17.712,44.297,17.681h-0.615
		c15.129,0.031,31.049-7.699,46.758-18.173c56.922-0.168,47.296,68.414,48.432,68.908"/>
	<path fill="#5AA8D4" d="M1327.102,711.355c-15.602,10.4-24.978,16.242-44.973,19.139c64.292,2.025,64.292,35.002,68.042,54.691
		h25.166C1375.337,785.186,1386.164,711.355,1327.102,711.355"/>
	<path fill="#3F3F3F" d="M1281.094,758.461l9.051,15.677l7.755,9.466c0.519,0.633,0.067,1.585-0.751,1.585h-16.055h-16.057
		c-0.817,0-1.269-0.952-0.748-1.585l7.754-9.466L1281.094,758.461z"/>
	<path d="M1347.332,767.228c0,5.437-4.412,9.844-9.844,9.844c-5.43,0-9.844-4.407-9.844-9.844c0-5.432,4.414-9.842,9.844-9.842
		C1342.92,757.386,1347.332,761.796,1347.332,767.228"/>
	<path fill="#90D2F4" d="M1324.185,717.021l-18.163,43.115l-12.698-13.092v-0.05l-12.551-12.895h0.592
		C1295.934,733.904,1309.073,727.014,1324.185,717.021"/>
	<path fill="#3F3F3F" d="M1293.324,746.995v0.05c-0.541,7.679-3.248,15.652-12.256,15.652c-8.613,0-11.467-7.433-12.156-14.815
		l-0.787-0.737l12.648-13.044L1293.324,746.995z"/>
	<path fill="#90D2F4" d="M1280.773,734.101l-12.65,13.044l-12.599,12.992l-18.457-43.705
		C1252.621,726.718,1265.91,733.904,1280.773,734.101"/>
	
		<path fill="none" stroke="#000000" stroke-width="9.8438" stroke-linecap="round" stroke-linejoin="round" stroke-miterlimit="10" d="
		M1187.849,780.416c0,0-9.844-63.984,49.219-63.984c15.554,10.286,28.843,17.473,43.705,17.669h0.592
		c14.569-0.196,27.709-7.087,42.82-17.079c0.294-0.197,0.591-0.394,0.885-0.59c59.062,0,49.219,63.984,49.219,63.984"/>
	
		<polyline fill="none" stroke="#000000" stroke-width="9.8438" stroke-linecap="round" stroke-linejoin="round" stroke-miterlimit="10" points="
		1237.067,716.432 1255.524,760.137 1268.123,747.145 1280.772,734.101 	"/>
	
		<line fill="none" stroke="#000000" stroke-width="9.8438" stroke-linecap="round" stroke-linejoin="round" stroke-miterlimit="10" x1="1293.324" y1="746.995" x2="1280.773" y2="734.101"/>
	
		<polyline fill="none" stroke="#000000" stroke-width="9.8438" stroke-linecap="round" stroke-linejoin="round" stroke-miterlimit="10" points="
		1324.431,716.432 1324.185,717.021 1306.021,760.137 1293.323,747.047 	"/>
	
		<path fill="none" stroke="#000000" stroke-width="9.8438" stroke-linecap="round" stroke-linejoin="round" stroke-miterlimit="10" d="
		M1268.912,747.882c0.689,7.383,3.543,14.815,12.156,14.815c9.008,0,11.715-7.974,12.256-15.652v-0.05"/>
	
		<line fill="none" stroke="#000000" stroke-width="9.8438" stroke-linecap="round" stroke-linejoin="round" stroke-miterlimit="10" x1="1276.885" y1="762.697" x2="1265.022" y2="780.416"/>
	
		<line fill="none" stroke="#000000" stroke-width="9.8438" stroke-linecap="round" stroke-linejoin="round" stroke-miterlimit="10" x1="1285.252" y1="762.697" x2="1297.164" y2="780.416"/>
	<path d="M1237.092,777.728h-28.766c-2.721,0-4.922-2.201-4.922-4.922c0-2.72,2.201-4.92,4.922-4.92h28.766
		c2.721,0,4.922,2.2,4.922,4.92C1242.014,775.526,1239.812,777.728,1237.092,777.728"/>
	<path fill="#90D2F4" d="M1352.119,576.404c6.103,1.623,2.065,12.402-1.969,17.276l-11.024,13.387l-0.346,0.198
		c-4.233-6.202-9.401-9.747-9.401-9.747l-3.248-2.657c2.412-1.771,4.578-3.79,6.449-6.006h-103.705
		c2.116,2.116,4.527,4.087,7.234,5.857l-3.741,2.806c0,0-4.576,3.15-8.613,8.666l-0.639-0.495l-9.942-12.009
		c-3.986-4.874-8.072-15.653-1.92-17.276c28.251-7.531,29.285-38.686,70.433-38.686
		C1322.832,537.719,1323.867,568.873,1352.119,576.404 M1281.834,578.027c10.435,0,12.107-19.048,12.107-19.048
		c-4.626-4.626-16.637-6.495-24.609-0.294C1269.332,558.686,1271.4,578.027,1281.834,578.027"/>
	<path fill="#F4AA42" d="M1336.861,643.588c-0.149,0.246-0.296,0.442-0.494,0.688c0,0-13.287-39.179-28.447-40.409l-0.049-0.196
		c6.842-2.018,13.092-4.922,18.26-8.81l3.248,2.657c0,0,5.168,3.545,9.401,9.747C1344.49,615.484,1348.576,628.28,1336.861,643.588"
		/>
	<path fill="#FCEA2C" d="M1336.367,644.276c0.198-0.246,0.345-0.442,0.494-0.688c-3.297,34.603-26.874,61.425-55.421,61.425
		c-28.793,0-52.418-27.268-55.421-62.262c2.757-6.498,15.406-31.647,45.527-36.322c12.305,1.377,25.104,0.539,36.324-2.758
		l0.049,0.196C1323.08,605.098,1336.367,644.276,1336.367,644.276 M1310.972,628.526c0-5.414-4.38-9.844-9.844-9.844
		c-5.414,0-9.844,4.43-9.844,9.844c0,5.464,4.43,9.844,9.844,9.844C1306.592,638.37,1310.972,633.99,1310.972,628.526
		 M1271.597,628.526c0-5.414-4.38-9.844-9.844-9.844c-5.414,0-9.844,4.43-9.844,9.844c0,5.464,4.43,9.844,9.844,9.844
		C1267.217,638.37,1271.597,633.99,1271.597,628.526"/>
	<path fill="#3F3F3F" d="M1271.547,606.429c-13.239-1.428-25.937-5.465-35.438-11.716c-2.707-1.771-5.118-3.741-7.234-5.857h103.705
		c-1.871,2.216-4.037,4.234-6.449,6.006c-5.169,3.888-11.418,6.792-18.26,8.81C1296.65,606.968,1283.852,607.806,1271.547,606.429"
		/>
	<path fill="#000100" d="M1301.128,618.683c5.464,0,9.844,4.43,9.844,9.844c0,5.464-4.38,9.844-9.844,9.844
		c-5.414,0-9.844-4.38-9.844-9.844C1291.284,623.112,1295.714,618.683,1301.128,618.683"/>
	<path fill="#1D1D1B" d="M1293.941,558.979c0,0-1.673,19.048-12.107,19.048c-10.434,0-12.502-19.342-12.502-19.342
		C1277.305,552.484,1289.316,554.354,1293.941,558.979"/>
	<path fill="#000100" d="M1261.753,618.683c5.464,0,9.844,4.43,9.844,9.844c0,5.464-4.38,9.844-9.844,9.844
		c-5.414,0-9.844-4.38-9.844-9.844C1251.909,623.112,1256.339,618.683,1261.753,618.683"/>
	<path fill="#F4AA42" d="M1226.02,642.751c-0.442,0.986-0.639,1.525-0.639,1.525c-12.847-16.289-7.778-29.826-1.626-38.095
		c4.037-5.513,8.613-8.663,8.613-8.663l3.741-2.806c9.501,6.251,22.198,10.288,35.438,11.716
		C1241.426,611.104,1228.776,636.253,1226.02,642.751"/>
	<path d="M1281.682,677.774c-5.668,0-11.339-1.408-16.967-4.224c-2.432-1.217-3.418-4.17-2.203-6.604
		c1.215-2.429,4.168-3.416,6.605-2.199c8.455,4.228,16.674,4.228,25.129,0c2.435-1.217,5.388-0.229,6.605,2.199
		c1.215,2.435,0.229,5.388-2.203,6.604C1293.02,676.366,1287.35,677.774,1281.682,677.774"/>
	<path d="M1311.215,628.544c0,5.436-4.414,9.844-9.844,9.844c-5.432,0-9.844-4.408-9.844-9.844c0-5.432,4.412-9.844,9.844-9.844
		C1306.801,618.7,1311.215,623.112,1311.215,628.544"/>
	<path d="M1271.84,628.544c0,5.436-4.414,9.844-9.844,9.844c-5.432,0-9.844-4.408-9.844-9.844c0-5.432,4.412-9.844,9.844-9.844
		C1267.426,618.7,1271.84,623.112,1271.84,628.544"/>
	<path d="M1281.682,709.923c-31.578,0-57.578-29.118-60.471-67.729l9.815-0.738c2.466,32.874,24.715,58.624,50.655,58.624
		c25.879,0,47.607-24.677,50.555-57.404c0.221-2.461,0.332-4.964,0.332-7.434h9.844c0,2.761-0.125,5.558-0.369,8.312
		C1338.635,681.391,1312.688,709.923,1281.682,709.923"/>
	<path fill="#FCEA2C" d="M1282.041,578.033c-10.438,0.018-12.482-19.361-12.482-19.361c7.947-6.186,19.969-4.315,24.609,0.284
		C1294.168,558.956,1292.479,578.017,1282.041,578.033"/>
	<path d="M1282.027,582.956c-14.441,0-17.105-21.334-17.359-23.764c-0.179-1.693,0.527-3.357,1.867-4.4
		c9.755-7.596,24.461-5.906,31.101,0.668c1.037,1.031,1.565,2.476,1.437,3.932c-0.218,2.411-2.509,23.54-17.02,23.564H1282.027z
		 M1282.032,573.112l0.012,4.924L1282.032,573.112c3.712-0.006,5.966-7.176,6.85-11.909c-3.293-1.659-9.089-2.458-13.954-0.1
		c1.078,5.271,3.605,12.009,7.1,12.009H1282.032z"/>
	<path d="M1225.618,649.21c-1.485,0-2.912-0.673-3.854-1.863c-7.229-9.138-10.172-18.565-8.748-28.024
		c2.369-15.759,16.18-25.436,16.766-25.838l3.566-2.709c2.168-1.644,5.254-1.211,6.891,0.952c1.645,2.168,1.218,5.258-0.95,6.896
		l-3.744,2.838c-0.274,0.196-11.112,7.879-12.804,19.389c-0.644,4.389,0.13,8.874,2.303,13.401
		c6.242-10.817,20.354-28.638,46.853-32.367c2.749-0.411,5.183,1.497,5.561,4.191c0.381,2.69-1.494,5.181-4.185,5.558
		c-31.797,4.472-42.576,33.117-43.019,34.333c-0.612,1.677-2.083,2.897-3.841,3.182
		C1226.148,649.192,1225.882,649.21,1225.618,649.21"/>
	<path fill="#5AA8D4" d="M1315.363,548.417c0,0,4.605,40.45-12.75,40.45l26.323,1.65l8.552,14.657c0,0,18.072-9.357,17.769-25.759
		C1355.257,579.416,1319.521,558.642,1315.363,548.417"/>
	<path d="M1283.037,612.009c-23.118,0-45.314-7.523-57.432-19.663c-1.404-1.407-1.822-3.525-1.062-5.364
		c0.765-1.835,2.555-3.035,4.545-3.035h103.697c1.918,0,3.663,1.115,4.465,2.856c0.807,1.739,0.528,3.79-0.715,5.252
		c-10,11.772-27.949,19.014-49.25,19.872C1285.867,611.98,1284.451,612.009,1283.037,612.009 M1244.527,593.792
		c11.483,5.805,26.734,8.918,42.365,8.297c12.617-0.509,23.758-3.434,32.18-8.297H1244.527z"/>
	<path d="M1339.316,612.012c-1.1,0-2.209-0.371-3.129-1.128c-2.095-1.731-2.394-4.836-0.658-6.931l11.064-13.392
		c2.543-3.07,4.116-7.727,3.98-9.56c-12.781-3.545-20.395-11.35-27.758-18.899c-9.753-9.999-18.967-19.447-40.913-19.447
		c-21.952,0-31.166,9.448-40.919,19.447c-7.368,7.553-14.98,15.357-27.756,18.899c-0.132,1.833,1.441,6.489,3.979,9.56l9.902,11.981
		c1.736,2.095,1.438,5.197-0.658,6.93c-2.102,1.737-5.201,1.438-6.927-0.656l-9.902-11.98c-3.306-4.004-7.772-12.771-5.689-19.271
		c0.97-3.015,3.19-5.124,6.258-5.94c10.462-2.775,16.913-9.39,23.749-16.393c10.247-10.509,21.865-22.42,47.964-22.42
		c26.095,0,37.712,11.911,47.959,22.418c6.835,7.005,13.286,13.619,23.748,16.397c3.069,0.813,5.294,2.924,6.259,5.943
		c2.088,6.505-2.385,15.271-5.689,19.266l-11.066,13.39C1342.144,611.402,1340.734,612.012,1339.316,612.012"/>
	<path d="M1336.572,649.216c-0.277,0-0.559-0.023-0.836-0.072c-1.778-0.309-3.244-1.562-3.828-3.27
		c-4.939-14.567-16.047-36.437-24.178-37.114c-2.713-0.226-4.722-2.606-4.496-5.314c0.221-2.704,2.528-4.752,5.312-4.496
		c13.16,1.099,23.661,21.315,29.08,34.268c1.811-4.175,2.421-8.312,1.825-12.363c-1.691-11.513-12.53-19.195-12.642-19.273
		l-3.565-2.906c-2.101-1.727-2.402-4.828-0.678-6.93c1.721-2.097,4.816-2.408,6.926-0.68l3.25,2.669
		c0.255,0.153,14.064,9.83,16.433,25.589c1.423,9.459-1.518,18.887-8.742,28.024C1339.49,648.539,1338.061,649.216,1336.572,649.216
		"/>
</g>
<g>
	<path fill="#A37838" d="M402.657,717.168c27.83-34.598-13.789-37.094-13.789-37.094s0.338-0.818,0.397-3.441
		c0.173-7.643-0.983-30.617-20.797-93.316c-35.017-84.332-101.471-44.914-108.341-33.094c-11.483-4.227-16.27,0-25.806,27.994
		c-7.061,26.719-21.003,81.172-19.524,101.125c4.997-2.951-39.476-5.875-15.241,38.891
		C255.04,786.701,338.74,784.691,402.657,717.168"/>
	<path fill="#FCEA2C" d="M356.428,602.422c1.091,3.334,1.993,6.791,2.685,10.35c1.083,5.564,1.656,11.377,1.656,17.355
		c0,40.418-26.211,73.182-58.543,73.182c-32.334,0-58.546-32.764-58.546-73.182c0-2.369,0.091-4.713,0.267-7.026l0.253,1.888
		c9.938-4.828,24.757-48.312,24.757-48.312s-3.493,31.697,87.702,27.639"/>
	<path d="M329.885,624.873c0,5.436-4.413,9.846-9.844,9.846c-5.432,0-9.844-4.41-9.844-9.846c0-5.432,4.412-9.844,9.844-9.844
		C325.473,615.029,329.885,619.441,329.885,624.873"/>
	<path d="M290.51,624.873c0,5.436-4.413,9.846-9.844,9.846c-5.432,0-9.844-4.41-9.844-9.846c0-5.432,4.412-9.844,9.844-9.844
		C286.098,615.029,290.51,619.441,290.51,624.873"/>
	<path d="M300.353,674.102c-5.669,0-11.338-1.406-16.966-4.221c-2.433-1.217-3.418-4.172-2.202-6.605
		c1.213-2.429,4.165-3.416,6.605-2.201c8.454,4.23,16.673,4.23,25.128,0c2.435-1.215,5.388-0.228,6.604,2.201
		c1.216,2.434,0.23,5.389-2.2,6.605C311.691,672.695,306.022,674.102,300.353,674.102"/>
	<path d="M300.354,706.251c-33.487,0-60.73-33.501-60.73-74.681c0-2.387,0.091-4.746,0.268-7.074l9.816,0.752
		c-0.159,2.08-0.24,4.191-0.24,6.322c0,35.754,22.826,64.837,50.886,64.837c28.056,0,50.881-29.083,50.881-64.837
		c0-5.295-0.5-10.543-1.485-15.602c-0.611-3.146-1.421-6.266-2.407-9.275l9.353-3.068c1.115,3.397,2.029,6.919,2.716,10.465
		c1.106,5.676,1.667,11.557,1.667,17.48C361.079,672.75,333.837,706.251,300.354,706.251"/>
	<path d="M327.409,652.559h-9.877c-7.617,0-14.188-4.557-17.135-11.089c-2.946,6.532-9.516,11.089-17.134,11.089h-9.878
		c-10.357,0-18.784-8.426-18.784-18.783v-6.094h-3.407c-2.722,0-4.922-2.203-4.922-4.922s2.2-4.922,4.922-4.922h8.329
		c2.72,0,4.922,2.203,4.922,4.922v11.016c0,4.93,4.008,8.941,8.94,8.941h9.878c4.932,0,8.941-4.012,8.941-8.941v-5.436
		c0-2.719,2.201-4.922,4.922-4.922h6.545c2.72,0,4.922,2.203,4.922,4.922v5.436c0,4.93,4.008,8.941,8.939,8.941h9.877
		c4.932,0,8.94-4.012,8.94-8.941V622.76c0-2.719,2.202-4.922,4.922-4.922h5.692c2.72,0,4.922,2.203,4.922,4.922
		s-2.202,4.922-4.922,4.922h-0.77v6.094C346.193,644.133,337.768,652.559,327.409,652.559"/>
	<path d="M244.81,629.795c-1.827,0.002-3.58-1.02-4.431-2.771c-1.188-2.445-0.169-5.389,2.279-6.577
		c4.559-2.216,14.586-24.136,21.09-43.219c0.812-2.376,3.278-3.749,5.729-3.216c2.448,0.547,4.096,2.848,3.821,5.342
		c0.006,0-0.082,3.377,3.976,7.431c6.012,6,23.729,15.733,74.51,13.462c2.667-0.123,5.02,1.98,5.139,4.699
		c0.12,2.715-1.98,5.016-4.696,5.133c-42.461,1.912-70.233-3.838-82.59-17.033c-0.288-0.307-0.568-0.618-0.827-0.924
		c-5.388,13.957-14.067,33.398-21.855,37.179C246.262,629.635,245.532,629.795,244.81,629.795"/>
	<path d="M203.229,719.191c-1.749,0-3.442-0.934-4.331-2.576c-8.911-16.458-10.556-27.662-5.032-34.264
		c4.576-5.457,12.41-5.573,18.034-4.762c0.88-16.731,7.676-48.99,20.64-98.049c6.744-19.821,11.098-27.408,17.366-30.396
		c3.539-1.684,7.109-1.486,10.248-0.723c7.719-8.12,27.575-19.127,49.257-17.736c17.952,1.191,42.991,11.369,60.312,53.087
		c8.945,28.249,14.943,51.205,17.98,68.626c0.346,2,2.667,16.449,3.875,23.969c4.648,0.042,11.405,1.348,16.246,7.572
		c1.674,2.15,1.284,5.238-0.86,6.908c-2.147,1.682-5.234,1.277-6.906-0.861c-4.014-5.162-11.396-3.566-11.469-3.537
		c-1.327,0.322-2.736,0.067-3.878-0.691c-1.144-0.76-1.913-1.963-2.129-3.318c0,0-4.105-25.648-4.576-28.354
		c-2.96-16.99-8.854-39.516-17.519-66.943c-12.209-29.342-29.662-45.17-51.728-46.636c-21.059-1.366-39.881,11.401-42.601,16.079
		c-1.201,2.064-3.72,2.958-5.955,2.145c-3.74-1.375-5.163-1.127-6.062-0.698c-4.085,1.946-8.45,13.403-12.185,24.353
		c-14.327,54.287-21.173,88.381-20.235,100.992c0.125,1.64-0.583,3.234-1.879,4.244c-1.298,1.016-3.022,1.304-4.575,0.793
		c-4.49-1.457-11.806-2.191-13.859,0.265c-0.648,0.784-3.421,5.579,6.148,23.244c1.293,2.396,0.403,5.38-1.986,6.677
		C204.824,718.998,204.021,719.191,203.229,719.191"/>
	<path fill="#90D2F4" d="M207.894,781.176c0,0-9.844-66.445,49.219-66.445c15.709,10.476,29.168,17.713,44.297,17.682h-0.615
		c15.127,0.031,23.172-10.651,38.883-21.125c76.635-0.002,56.602,69.889,56.602,69.889"/>
	<polygon fill="#FFFFFF" points="297.739,764.807 281.797,745.453 265.855,726.102 297.739,726.102 329.623,726.102 313.68,745.453 
			"/>
	<path fill="#5AA8D4" d="M253.407,712.742c0,0-29.041,19.817-10.635,36.75h22.506l-4.103,18.417l38.843,9.61l1.429-12.33
		l-41.15-51.01"/>
	<path d="M206.094,781.643c-2.383,0.004-4.48-1.736-4.854-4.168c-0.203-1.327-4.787-32.646,12.702-53.035
		c9.466-11.028,23.385-16.619,41.38-16.619c0.97,0,1.923,0.287,2.729,0.826c15.564,10.377,27.932,16.822,41.375,16.855h0.192
		c2.716,0,4.916,2.201,4.922,4.918c0.004,2.748-2.168,4.951-5.013,4.926h-0.105h-0.419c-0.077,0-0.149,0-0.227-0.004
		c-15.255-0.213-28.627-6.907-44.916-17.665c-14.257,0.28-25.154,4.696-32.416,13.138c-14.549,16.912-10.521,44.887-10.478,45.17
		c0.408,2.683-1.437,5.191-4.125,5.605C206.592,781.627,206.344,781.643,206.094,781.643"/>
	<path d="M290.154,763.748c-1.446,0-2.874-0.631-3.846-1.845l-35.755-44.649c-1.702-2.12-1.359-5.22,0.765-6.918
		c2.129-1.715,5.225-1.354,6.916,0.766l35.757,44.649c1.702,2.12,1.359,5.22-0.765,6.915
		C292.317,763.396,291.23,763.748,290.154,763.748"/>
	<path d="M285.285,773.951c-0.365,0-0.736-0.039-1.111-0.124l-24.104-5.552c-1.323-0.303-2.457-1.139-3.144-2.311
		c-0.682-1.17-0.855-2.572-0.476-3.871l2.254-7.682h-15.935c-1.234,0-2.422-0.465-3.33-1.297
		c-6.912-6.358-7.975-13.021-7.647-17.496c1.047-14.404,17.024-25.705,18.841-26.945c2.24-1.527,5.302-0.957,6.831,1.291
		c1.532,2.238,0.961,5.299-1.279,6.836c-3.855,2.65-13.992,11.326-14.578,19.55c-0.208,2.913,0.84,5.614,3.202,8.22h20.47
		c1.553,0,3.007,0.729,3.94,1.969c0.928,1.244,1.217,2.85,0.783,4.337l-2.638,8.978l19.02,4.379
		c2.647,0.609,4.302,3.255,3.691,5.903C289.553,772.414,287.526,773.951,285.285,773.951"/>
	<polygon fill="#CFCFCE" points="453.021,705.371 418.814,785.844 295.817,785.844 330.024,705.371 	"/>
	<polygon fill="#9A9B99" points="454.087,705.371 419.88,785.844 418.798,785.844 375.632,785.844 409.839,705.371 453.004,705.371 
			"/>
	
		<polygon fill="none" stroke="#000000" stroke-width="9.8438" stroke-linecap="round" stroke-linejoin="round" stroke-miterlimit="10" points="
		295.817,785.844 418.814,785.844 453.021,705.371 330.024,705.371 	"/>
	
		<line fill="none" stroke="#000000" stroke-width="9.8438" stroke-linecap="round" stroke-linejoin="round" stroke-miterlimit="10" x1="241.823" y1="785.844" x2="295.817" y2="785.844"/>
</g>
<g>
	<path fill="#FFFFFF" d="M702.942,361.454c0,0-4.746-18.983-0.866-37.706c3.45-16.634,22.732-35.629,50.248-35.629
		c15.709,10.473,27.199,22.632,42.328,22.601h-0.616c15.13,0.031,31.046-7.699,46.759-18.173
		c56.919-0.169,49.261,68.415,50.398,68.907"/>
	<path fill="#CECECE" d="M840.27,317.131c20.998,11.431,21.572,30.782,24.151,44.317h25.165c0,0,8.17-22.655,0.527-43.233
		c-5.68-15.296-21.861-30.108-47.285-30.103"/>
	<rect x="703.241" y="290.078" fill="#FCEA2D" width="34.275" height="18.952"/>
	<rect x="855.573" y="290.078" fill="#FCEA2D" width="34.276" height="18.952"/>
	<path fill="#A37938" d="M849.662,278.301c30.691-3.009,41.279-16.276,41.279-16.276l-29.078-2.955
		c39.721-41.525-16.605-83.105-16.605-83.105h-95.569c0,0-56.326,41.58-16.605,83.105l-27.685,2.955c0,0,9.191,13.268,39.885,16.276
		C745.284,284.482,849.662,284.482,849.662,278.301"/>
	<path fill="#FCEA2D" d="M853.394,213.179c0-38.526-24.984-69.759-55.806-69.759c-30.823,0-55.808,31.232-55.808,69.759
		c0,38.525,24.984,69.758,55.808,69.758C828.409,282.937,853.394,251.704,853.394,213.179"/>
	<path fill="#3F3F3F" d="M868.177,151.164c2.952,5.611,2.067,12.451-1.97,17.323l-11.025,13.39l-0.443,0.296
		c-5.019-7.679-11.516-12.306-11.516-12.306l-0.197-0.246c2.412-1.724,4.578-3.739,6.447-5.955H745.769
		c1.625,1.624,3.446,3.15,5.415,4.578l-0.099,0.146c0,0-5.907,4.48-10.681,11.811l-1.182-0.736l-9.105-10.978
		c-4.036-4.872-4.922-11.712-1.969-17.323c6.744-12.697,24.511-33.076,70.038-35.831
		C843.714,118.088,861.482,138.467,868.177,151.164"/>
	<path fill="#A37938" d="M854.74,182.173c5.808,9.006,9.547,22.197-2.117,36.913c0,0-13.24-39.178-28.398-40.459
		c7.088-1.966,13.484-4.97,18.803-9.005l0.195,0.246C843.223,169.867,849.72,174.494,854.74,182.173"/>
	<path fill="#3F3F3F" d="M787.852,181.187c-13.88-1.625-27.12-6.053-36.668-12.944c-1.969-1.428-3.79-2.954-5.414-4.578h103.704
		c-1.87,2.217-4.036,4.234-6.446,5.956c-5.318,4.037-11.715,7.04-18.803,9.007C813.002,181.827,800.205,182.614,787.852,181.187"/>
	<path fill="#A37938" d="M787.852,181.187c-34.699,5.316-46.168,37.899-46.168,37.899c-12.107-15.309-7.579-29.433-1.279-38.883
		c4.774-7.333,10.681-11.812,10.681-11.812l0.099-0.147C760.732,175.134,773.971,179.562,787.852,181.187"/>
	<path d="M827.65,203.919c0,5.437-4.414,9.844-9.844,9.844c-5.432,0-9.844-4.407-9.844-9.844c0-5.43,4.412-9.844,9.844-9.844
		C823.236,194.075,827.65,198.489,827.65,203.919"/>
	<path fill="#CECECE" d="M783.354,160.796c0-8.146,6.619-14.765,14.766-14.765s14.766,6.62,14.766,14.765"/>
	<path d="M788.275,203.919c0,5.437-4.413,9.844-9.844,9.844s-9.844-4.407-9.844-9.844c0-5.43,4.413-9.844,9.844-9.844
		S788.275,198.489,788.275,203.919"/>
	<path d="M798.119,253.149c-5.669,0-11.339-1.408-16.967-4.22c-2.433-1.217-3.419-4.173-2.202-6.605
		c1.214-2.431,4.165-3.417,6.604-2.203c8.455,4.229,16.676,4.229,25.13,0c2.434-1.215,5.387-0.229,6.604,2.203
		c1.216,2.432,0.229,5.388-2.203,6.605C809.457,251.741,803.788,253.149,798.119,253.149"/>
	<path d="M798.119,285.298c-33.486,0-60.729-33.502-60.729-74.679c0-2.719,2.201-4.922,4.922-4.922c2.72,0,4.922,2.203,4.922,4.922
		c0,35.751,22.827,64.836,50.886,64.836c28.057,0,50.883-29.085,50.883-64.836c0-2.719,2.2-4.922,4.922-4.922
		c2.721,0,4.922,2.203,4.922,4.922C858.846,251.796,831.603,285.298,798.119,285.298"/>
	<path d="M799.688,187.386c-23.121,0-45.316-7.528-57.435-19.664c-1.403-1.408-1.821-3.526-1.062-5.366
		c0.764-1.834,2.557-3.033,4.546-3.033h103.696c1.92,0,3.662,1.114,4.467,2.854c0.807,1.74,0.529,3.793-0.717,5.255
		c-9.998,11.774-27.95,19.013-49.248,19.869C802.518,187.356,801.1,187.386,799.688,187.386 M761.177,169.166
		c11.484,5.803,26.745,8.928,42.364,8.297c12.617-0.507,23.76-3.434,32.181-8.297H761.177z"/>
	<path d="M856.143,186.126c-1.098,0-2.21-0.369-3.127-1.128c-2.096-1.734-2.394-4.834-0.658-6.931l10.025-12.129
		c2.841-3.44,3.387-8.104,1.394-11.883c-5.931-11.244-22.345-30.486-65.656-33.224c-43.308,2.738-59.726,21.98-65.663,33.224
		c-1.995,3.776-1.446,8.442,1.399,11.883l9.171,11.097c1.734,2.095,1.437,5.197-0.658,6.931c-2.102,1.736-5.197,1.432-6.927-0.658
		l-9.17-11.098c-5.388-6.517-6.374-15.447-2.525-22.749c6.918-13.099,25.735-35.517,74.069-38.475c0.202-0.015,0.404-0.015,0.605,0
		c48.344,2.962,67.152,25.375,74.064,38.475c3.854,7.306,2.863,16.233-2.52,22.749l-10.025,12.128
		C858.971,185.516,857.562,186.126,856.143,186.126"/>
	<path d="M745.249,280.66c-0.159,0-0.322-0.011-0.486-0.025c-32.584-3.19-43.018-17.749-43.451-18.37
		c-0.99-1.427-1.153-3.267-0.427-4.85c0.721-1.58,2.225-2.662,3.951-2.845l18.543-1.98c-7.118-9.911-10.233-20.552-9.267-31.736
		c2.48-28.854,31.388-50.502,32.618-51.411c2.187-1.609,5.262-1.151,6.877,1.035c1.615,2.182,1.154,5.264-1.029,6.881
		c-0.265,0.198-26.589,19.977-28.665,44.373c-0.938,11.036,3.33,21.593,12.688,31.373c1.298,1.354,1.711,3.33,1.067,5.095
		c-0.644,1.759-2.236,3.003-4.101,3.201l-15.746,1.683c5.662,3.109,14.578,6.449,27.901,7.758c2.707,0.264,4.681,2.671,4.417,5.379
		C749.892,278.76,747.753,280.66,745.249,280.66"/>
	<path d="M849.621,280.66c-2.504,0-4.642-1.9-4.893-4.44c-0.264-2.708,1.71-5.115,4.418-5.379
		c13.283-1.303,22.51-4.634,28.531-7.772l-16.351-1.662c-1.87-0.193-3.472-1.433-4.12-3.198c-0.649-1.763-0.236-3.744,1.062-5.104
		c9.368-9.791,13.636-20.36,12.685-31.411c-2.105-24.464-28.393-44.135-28.656-44.33c-2.188-1.615-2.654-4.695-1.038-6.884
		c1.614-2.185,4.694-2.653,6.882-1.037c1.23,0.909,30.138,22.557,32.617,51.411c0.961,11.165-2.137,21.792-9.232,31.692
		l19.881,2.019c1.785,0.184,3.34,1.334,4.037,2.99c0.695,1.663,0.431,3.571-0.693,4.979c-0.484,0.605-12.258,14.925-44.644,18.101
		C849.943,280.649,849.779,280.66,849.621,280.66"/>
	<path d="M737.62,221.054c-0.336,0-0.683-0.032-1.023-0.106c-2.664-0.568-4.36-3.177-3.797-5.835
		c4.685-22.109,50.637-36.01,55.861-37.522c2.615-0.754,5.344,0.752,6.094,3.357c0.76,2.611-0.743,5.34-3.355,6.096
		c-17.543,5.091-46.354,17.763-48.969,30.108C741.941,219.468,739.894,221.054,737.62,221.054"/>
	<path d="M853.74,214.343c-1.378,0-2.754-0.58-3.728-1.709l-25.856-30c-1.773-2.061-1.543-5.169,0.521-6.94
		c2.051-1.78,5.156-1.549,6.94,0.513l25.854,30c1.772,2.061,1.542,5.168-0.521,6.941C856.024,213.95,854.881,214.343,853.74,214.343
		"/>
	<path d="M812.885,165.719c-2.721,0-4.922-2.202-4.922-4.923c0-5.428-4.416-9.843-9.844-9.843c-5.426,0-9.842,4.416-9.842,9.843
		c0,2.721-2.201,4.923-4.922,4.923c-2.722,0-4.922-2.202-4.922-4.923c0-10.854,8.83-19.688,19.686-19.688
		c10.859,0,19.688,8.834,19.688,19.688C817.807,163.517,815.606,165.719,812.885,165.719"/>
	<polygon fill="#3F3F3F" points="796.688,318.745 815.266,361.451 796.688,361.451 777.125,361.451 	"/>
	<path fill="#3F3F3F" d="M785.02,311.628c0,0-5.938,24.791,11.357,24.791c17.293,0,11.355-24.791,11.355-24.791"/>
	<path d="M796.375,341.342c-6.945,0-10.906-3.176-13.006-5.838c-6.806-8.629-3.533-23.372-3.139-25.021
		c0.634-2.643,3.321-4.269,5.922-3.636c2.643,0.624,4.278,3.276,3.653,5.921c-0.707,2.998-1.986,12.5,1.296,16.645
		c0.708,0.898,2.024,2.086,5.273,2.086c3.254,0,4.571-1.194,5.277-2.09c3.057-3.88,2.191-12.882,1.293-16.636
		c-0.635-2.642,1-5.297,3.644-5.932c2.64-0.62,5.298,1,5.931,3.643c0.395,1.649,3.668,16.391-3.137,25.021
		C807.28,338.166,803.32,341.342,796.375,341.342"/>
	<path d="M890.279,361.708c-0.25,0-0.498-0.016-0.748-0.053c-2.688-0.415-4.535-2.923-4.125-5.604
		c0.025-0.183,2.643-18.173-3.797-34.016c-1.023-2.52,0.193-5.395,2.705-6.416c2.52-1.014,5.395,0.191,6.416,2.704
		c7.486,18.425,4.533,38.378,4.404,39.217C894.76,359.973,892.663,361.708,890.279,361.708"/>
	<path d="M768.935,341.021c-0.139,0-0.282-0.007-0.427-0.02c-1.803-0.159-3.375-1.294-4.091-2.952l-18.58-43.057
		c-0.631-1.451-0.521-3.12,0.292-4.476c0.812-1.357,2.225-2.243,3.802-2.379l2.72-0.235c1.116-0.11,2.227,0.188,3.153,0.806
		c15.525,10.351,27.869,16.786,41.259,16.858c13.401-0.067,25.741-6.507,41.261-16.858c0.908-0.604,1.97-0.922,3.076-0.81
		l3.341,0.234c1.614,0.111,3.07,1.015,3.892,2.41c0.822,1.396,0.908,3.108,0.222,4.574l-20.057,43.056
		c-0.769,1.655-2.39,2.744-4.21,2.841c-1.822,0.106-3.543-0.831-4.479-2.393l-14.307-23.965c-2.692,0.458-5.417,0.71-8.205,0.749
		c-0.105,0.004-0.211,0.004-0.316,0.004h-0.103h-0.225h-0.206c-0.073,0-0.146,0-0.217-0.004c-2.605-0.039-5.153-0.26-7.667-0.663
		L773.05,338.8C772.131,340.194,770.582,341.021,768.935,341.021 M760.043,303.078l9.796,22.686l8.93-13.588
		C772.655,310.057,766.531,306.966,760.043,303.078 M815.712,312.051l8.085,13.545l10.57-22.691
		C827.9,306.797,821.797,309.908,815.712,312.051"/>
	<path d="M703.849,361.712c-2.388,0-4.485-1.739-4.86-4.172c-0.129-0.832-3.037-20.496,4.25-38.807
		c1.004-2.533,3.868-3.769,6.388-2.754c2.528,1.002,3.764,3.865,2.754,6.387c-6.301,15.853-3.691,33.502-3.661,33.674
		c0.413,2.688-1.428,5.2-4.115,5.615C704.35,361.691,704.095,361.712,703.849,361.712"/>
	<path d="M777.774,361.5c-0.87,0-1.749-0.231-2.548-0.715c-2.325-1.41-3.065-4.437-1.652-6.757l11.015-18.156
		c1.409-2.327,4.437-3.065,6.759-1.652c2.326,1.409,3.067,4.437,1.654,6.757l-11.017,18.154
		C781.062,360.659,779.438,361.5,777.774,361.5"/>
	<path d="M814.98,361.5c-1.662,0-3.287-0.841-4.209-2.37l-11.022-18.159c-1.414-2.321-0.672-5.349,1.653-6.757
		c2.327-1.414,5.355-0.673,6.758,1.652l11.023,18.161c1.41,2.32,0.671,5.348-1.654,6.757C816.73,361.27,815.852,361.5,814.98,361.5"
		/>
	<path fill="#000100" d="M737.515,309.221c-2.721,0-4.922-2.2-4.922-4.921v-9.61c0-2.721,2.201-4.922,4.922-4.922
		c2.72,0,4.922,2.201,4.922,4.922v9.61C742.437,307.021,740.234,309.221,737.515,309.221"/>
	<path fill="#000100" d="M720.803,309.221c-2.721,0-4.922-2.2-4.922-4.921v-9.61c0-2.721,2.201-4.922,4.922-4.922
		c2.721,0,4.922,2.201,4.922,4.922v9.61C725.725,307.021,723.523,309.221,720.803,309.221"/>
	<path fill="#000100" d="M704.09,309.221c-2.721,0-4.922-2.2-4.922-4.921v-9.61c0-2.721,2.201-4.922,4.922-4.922
		c2.721,0,4.922,2.201,4.922,4.922v9.61C709.012,307.021,706.811,309.221,704.09,309.221"/>
	<path fill="#000100" d="M856,309.221c-2.719,0-4.922-2.2-4.922-4.921v-9.61c0-2.721,2.203-4.922,4.922-4.922
		c2.721,0,4.922,2.201,4.922,4.922v9.61C860.922,307.021,858.721,309.221,856,309.221"/>
	<path fill="#000100" d="M872.712,309.221c-2.72,0-4.922-2.2-4.922-4.921v-9.61c0-2.721,2.202-4.922,4.922-4.922
		c2.722,0,4.922,2.201,4.922,4.922v9.61C877.634,307.021,875.434,309.221,872.712,309.221"/>
	<path fill="#000100" d="M889.424,309.221c-2.719,0-4.922-2.2-4.922-4.921v-9.61c0-2.721,2.203-4.922,4.922-4.922
		c2.723,0,4.922,2.201,4.922,4.922v9.61C894.346,307.021,892.146,309.221,889.424,309.221"/>
</g>
<g>
	<path fill="#FCEA2C" d="M837.873,626.484c0-38.528-24.984-69.76-55.806-69.76s-55.808,31.231-55.808,69.76
		c0,38.525,24.986,69.758,55.808,69.758S837.873,665.01,837.873,626.484"/>
	<path fill="#E27023" d="M851.94,586.955c5.464,22.395-13.684,36.619-13.684,36.619l-2.116-1.082c0-5.711-4.971-12.259-6.003-17.521
		c-1.034-5.219-10.878-4.58-12.799-9.254l-0.196-3.791c6.299-0.295,13.142-0.835,20.475-1.625L851.94,586.955z"/>
	<path fill="#E27023" d="M851.94,586.955l-14.323,3.346c-7.333,0.79-14.176,1.33-20.475,1.625
		c-45.724,2.363-65.313-6.642-74.616-16.389c-4.774-5.02-6.842-10.286-8.367-14.273c-0.738-1.969-1.132-4.135-1.132-6.202
		c-0.049-3.544,1.034-7.037,3.15-9.991c11.172-14.225,51.778-19.883,78.75-0.443C838.947,560.476,849.035,574.896,851.94,586.955"/>
	<path fill="#E27023" d="M742.527,575.537l-0.492,0.442c0,0,3.298,34.159-11.074,47.595c-3.593,8.91-32.189-34.552-0.197-68.463
		l2.265-0.05c0,2.067,0.394,4.233,1.132,6.202C735.685,565.251,737.753,570.518,742.527,575.537"/>
	<path fill="#FFFFFF" d="M689.631,775.931c0,0-9.844-66.445,49.219-66.445c15.71,10.474,29.168,17.71,44.297,17.681h-0.615
		c15.127,0.029,27.109-10.654,42.819-21.126c76.637,0,52.664,69.891,52.664,69.891"/>
	<path fill="#000100" d="M782.067,669.023c-5.669,0-11.339-1.408-16.967-4.223c-2.433-1.215-3.418-4.172-2.202-6.605
		c1.214-2.429,4.165-3.416,6.604-2.2c8.457,4.229,16.674,4.229,25.13,0c2.435-1.216,5.387-0.229,6.604,2.2
		c1.217,2.434,0.229,5.391-2.203,6.605C793.405,667.615,787.736,669.023,782.067,669.023"/>
	
		<path fill="none" stroke="#000000" stroke-width="9.8438" stroke-linecap="round" stroke-linejoin="round" stroke-miterlimit="10" d="
		M838.191,628.931c-0.984,37.456-25.594,67.479-55.815,67.479c-30.811,0-55.813-31.204-55.813-69.744v-5.02"/>
	
		<path fill="none" stroke="#000000" stroke-width="9.8438" stroke-linecap="round" stroke-linejoin="round" stroke-miterlimit="10" d="
		M846.017,610.474c4.577-8.76,13.289-32.188-29.039-61.671c-26.972-19.443-67.577-13.781-78.75,0.443
		c-3.396,4.674-4.036,10.778-2.018,16.192c3.494,9.153,9.892,25.151,46.462,29.777c14.077,1.77,22.69,1.869,47.152-0.738"/>
	
		<path fill="none" stroke="#000000" stroke-width="9.8438" stroke-linecap="round" stroke-linejoin="round" stroke-miterlimit="10" d="
		M739.704,601.714c3.297-11.42,4.381-21.56,4.381-21.56"/>
	
		<path fill="none" stroke="#000000" stroke-width="9.8438" stroke-linecap="round" stroke-linejoin="round" stroke-miterlimit="10" d="
		M732.814,559.286c-17.521,21.608-13.486,38.883-10.582,47.988"/>
	<path d="M789.581,777.047c-2.72,0-4.922-2.199-4.922-4.92v-21.778c-30.334-5.733-52.608-38.001-53.588-39.438
		c-1.528-2.244-0.946-5.305,1.304-6.834c2.234-1.534,5.306-0.947,6.834,1.293c0.225,0.331,22.887,33.088,50.853,35.822
		c2.519,0.245,4.441,2.366,4.441,4.897v26.038C794.502,774.848,792.301,777.047,789.581,777.047"/>
	<path fill="#CFCFCE" d="M834.753,707.159c-15.602,10.4-23.994,14.763-43.989,17.66c64.292,2.026,64.292,26.636,68.043,46.323
		h25.164C883.972,771.143,893.815,707.159,834.753,707.159"/>
	<path fill="#FFFFFF" d="M892.508,699.015h-5.807v31.887l19.029,43.501c0,0,1.517,6.796-3.9,6.796
		c-2.643,0-48.474,0.056-51.113,0.056c-5.417,0-3.902-6.794-3.902-6.794l19.028-43.453v-31.992h-5.342"/>
	<line fill="#8767A9" x1="865.843" y1="699.015" x2="886.702" y2="699.015"/>
	<path d="M688.346,777.044c-2.384,0-4.48-1.734-4.854-4.167c-0.203-1.326-4.786-32.646,12.705-53.035
		c9.462-11.03,23.383-16.621,41.378-16.621c0.97,0,1.922,0.288,2.729,0.827c15.521,10.348,27.864,16.784,41.26,16.852
		c13.4-0.062,25.738-6.504,41.259-16.852c0.809-0.539,1.759-0.827,2.73-0.827c9.387,0,17.766,1.553,24.903,4.609
		c2.498,1.066,3.656,3.961,2.586,6.46c-1.068,2.505-3.98,3.668-6.462,2.585c-5.546-2.374-12.12-3.646-19.567-3.797
		c-16.287,10.757-29.666,17.453-44.924,17.659c-0.074,0.006-0.155,0.017-0.217,0.006h-0.013h-0.189h-0.211h-0.188h-0.014
		c-0.092,0.011-0.144,0-0.215-0.006c-15.262-0.206-28.633-6.902-44.928-17.659c-14.256,0.279-25.151,4.697-32.415,13.137
		c-14.55,16.914-10.522,44.888-10.478,45.172c0.407,2.682-1.437,5.191-4.125,5.604C688.845,777.029,688.595,777.044,688.346,777.044
		"/>
	<path fill="#B0CB34" d="M886.702,730.901l19.027,43.501c0,0,1.518,6.796-3.899,6.796c-2.642,0-48.472,0.056-51.111,0.056
		c-5.42,0-3.904-6.794-3.904-6.794l19.028-43.453"/>
	<path d="M850.714,786.176c-2.854,0-5.32-1.115-6.944-3.144c-2.912-3.634-1.977-8.675-1.755-9.646
		c0.067-0.314,0.168-0.611,0.294-0.904l18.614-42.504v-26.039h-0.422c-2.721,0-4.922-2.206-4.922-4.924
		c0-2.721,2.201-4.922,4.922-4.922h5.344c2.723,0,4.922,2.201,4.922,4.922v31.994c0,0.676-0.138,1.348-0.413,1.975l-18.782,42.887
		c-0.015,0.148-0.025,0.303-0.031,0.457l49.465-0.053c-0.006-0.154-0.015-0.312-0.032-0.465l-18.782-42.939
		c-0.271-0.617-0.413-1.291-0.413-1.97v-31.886c0-2.721,2.203-4.922,4.922-4.922h5.809c2.72,0,4.922,2.201,4.922,4.922
		c0,2.718-2.202,4.924-4.922,4.924h-0.887v25.932l18.617,42.559c0.129,0.287,0.227,0.586,0.294,0.899
		c0.222,0.97,1.159,6.009-1.755,9.642c-1.626,2.031-4.096,3.148-6.949,3.148L850.714,786.176z"/>
	<path d="M886.701,703.937h-20.856c-2.721,0-4.922-2.203-4.922-4.922c0-2.72,2.201-4.922,4.922-4.922h20.856
		c2.72,0,4.922,2.202,4.922,4.922C891.623,701.733,889.421,703.937,886.701,703.937"/>
	<path fill="#90D2F4" d="M718.643,609.949c0,0,62.521-34.567,129.197,3.949l-19.111,29.656c0,0-33.024,4.588-45.487-7.875
		c-12.753,12.754-41.788,7.875-41.788,7.875L718.643,609.949z"/>
	<path d="M753.988,649.389c-7.305,0-12.819-0.895-13.352-0.981c-1.322-0.22-2.499-0.979-3.254-2.092l-22.813-33.603
		c-0.778-1.144-1.037-2.562-0.715-3.908c0.322-1.343,1.197-2.491,2.407-3.162c2.649-1.465,65.735-35.458,134.04,3.993
		c1.169,0.674,2.006,1.794,2.322,3.104c0.317,1.308,0.086,2.689-0.644,3.821l-19.113,29.659c-0.776,1.201-2.04,2.008-3.46,2.205
		c-3.35,0.467-31.04,3.918-46.131-6.373C774.815,648.018,763.029,649.389,753.988,649.389 M744.304,638.991
		c8.675,1.056,27.223,1.441,35.457-6.791c1.923-1.923,5.038-1.923,6.961,0c8.126,8.133,29.228,7.781,39.125,6.743l15.005-23.287
		c-51.261-27.067-99.683-10.33-114.914-3.721L744.304,638.991z"/>
	<path fill="#000100" d="M811.599,619.793c0,5.436-4.412,9.844-9.844,9.844c-5.43,0-9.842-4.408-9.842-9.844
		c0-5.432,4.413-9.844,9.842-9.844C807.187,609.949,811.599,614.361,811.599,619.793"/>
	<path fill="#000100" d="M772.225,619.793c0,5.436-4.414,9.844-9.844,9.844c-5.432,0-9.844-4.408-9.844-9.844
		c0-5.432,4.412-9.844,9.844-9.844C767.812,609.949,772.225,614.361,772.225,619.793"/>
</g>
<g>
	<path fill="#FCEA2C" d="M358.153,205.202c0-38.527-24.986-69.76-55.807-69.76c-30.822,0-55.807,31.233-55.807,69.76
		c0,38.525,24.984,69.757,55.807,69.757C333.167,274.959,358.153,243.728,358.153,205.202"/>
	<path fill="#90D2F4" d="M209.127,357.11c0,0-9.844-66.445,49.219-66.445c15.71,10.474,29.169,17.712,44.297,17.682h-0.614
		c15.127,0.03,26.617-10.653,42.326-21.126c76.637,0,53.157,69.89,53.157,69.89"/>
	<polygon fill="#5AA8D4" points="367.427,356.925 367.427,293.557 345.321,289.694 345.321,325.354 257.333,325.354 
		257.343,289.694 234.378,293.557 234.378,356.925 	"/>
	<path fill="#5AA8D4" d="M306.564,112.625h-8.876c-55.594,0.174-49.44,55.688-49.44,55.688c63.449-27.843,107.755,0,107.755,0
		S362.158,112.8,306.564,112.625"/>
	<path fill="#000100" d="M331.386,200.281c0,5.435-4.414,9.843-9.844,9.843c-5.432,0-9.844-4.408-9.844-9.843
		c0-5.432,4.412-9.843,9.844-9.843C326.972,190.438,331.386,194.85,331.386,200.281"/>
	<path fill="#000100" d="M292.011,200.281c0,5.435-4.414,9.843-9.844,9.843c-5.432,0-9.844-4.408-9.844-9.843
		c0-5.432,4.412-9.843,9.844-9.843C287.597,190.438,292.011,194.85,292.011,200.281"/>
	<path fill="#000100" d="M301.854,249.51c-5.67,0-11.338-1.407-16.968-4.222c-2.431-1.215-3.417-4.172-2.201-6.604
		c1.214-2.43,4.166-3.418,6.604-2.203c8.455,4.23,16.674,4.23,25.129,0c2.435-1.216,5.389-0.227,6.605,2.203
		c1.216,2.432,0.23,5.389-2.203,6.604C313.192,248.103,307.522,249.51,301.854,249.51"/>
	<path fill="none" stroke="#000000" stroke-width="9.8438" stroke-linecap="round" stroke-miterlimit="10" d="M246.627,196.879
		c-0.383,3.297-0.581,6.667-0.581,10.1c0,38.526,24.986,69.757,55.807,69.757c30.822,0,55.808-31.231,55.808-69.757
		c0-1.949-0.064-3.877-0.189-5.785"/>
	
		<path fill="none" stroke="#000000" stroke-width="9.8438" stroke-linecap="round" stroke-linejoin="round" stroke-miterlimit="10" d="
		M379.479,299.475c-7.446-6.729-18.327-11.324-34.158-11.324c-15.709,10.473-29.169,17.709-44.297,17.679h0.616
		c-15.128,0.03-28.586-7.207-44.297-17.679c-59.062,0-49.219,63.983-49.219,63.983"/>
	<path fill="#9A9B99" d="M394.139,255.094c2.548-10.598,11.597-17.927,21.895-18.779l-5.568,22.825
		c0.402,0.076,13.419,3.196,13.821,3.293l5.567-23.194c9.534,5.193,14.799,16.307,12.139,27.368
		c-2.347,9.754-10.216,16.703-19.489,18.414l-16.846,70.022c-1.287,5.354-6.67,8.65-12.022,7.362
		c-5.354-1.289-8.648-6.673-7.361-12.024l16.845-70.024C395.639,274.618,391.792,264.848,394.139,255.094"/>
	
		<path fill="none" stroke="#000000" stroke-width="9.8438" stroke-linecap="round" stroke-linejoin="round" stroke-miterlimit="10" d="
		M394.139,255.094c2.548-10.598,11.597-17.927,21.895-18.779l-5.568,22.825c0.402,0.076,13.419,3.196,13.821,3.293l5.567-23.194
		c9.534,5.193,14.799,16.307,12.139,27.368c-2.347,9.754-10.216,16.703-19.489,18.414l-16.846,70.022
		c-1.287,5.354-6.67,8.65-12.022,7.362c-5.354-1.289-8.648-6.673-7.361-12.024l16.845-70.024
		C395.639,274.618,391.792,264.848,394.139,255.094z"/>
	<path fill="#FFFFFF" d="M287.785,157.069V145.69c0-8.155,6.611-14.765,14.766-14.765s14.766,6.609,14.766,14.765v11.466"/>
	<path fill="none" stroke="#000000" stroke-width="9.8438" stroke-linecap="round" stroke-miterlimit="10" d="M287.785,157.069
		V145.69c0-8.155,6.611-14.765,14.766-14.765s14.766,6.609,14.766,14.765v11.466"/>
	
		<polyline fill="none" stroke="#000000" stroke-width="9.8438" stroke-linecap="round" stroke-linejoin="round" stroke-miterlimit="10" points="
		345.321,288.15 345.321,323.808 257.334,323.808 257.342,288.15 	"/>
	
		<line fill="none" stroke="#000000" stroke-width="9.8438" stroke-linecap="round" stroke-linejoin="round" stroke-miterlimit="10" x1="367.427" y1="292.009" x2="367.427" y2="352.031"/>
	
		<line fill="none" stroke="#000000" stroke-width="9.8438" stroke-linecap="round" stroke-linejoin="round" stroke-miterlimit="10" x1="234.378" y1="292.428" x2="234.378" y2="352.03"/>
	
		<line fill="none" stroke="#000000" stroke-width="9.8438" stroke-linecap="round" stroke-linejoin="round" stroke-miterlimit="10" x1="285.267" y1="346.67" x2="257.334" y2="346.67"/>
	
		<path fill="none" stroke="#000000" stroke-width="9.8438" stroke-linecap="round" stroke-linejoin="round" stroke-miterlimit="10" d="
		M356.004,168.312c0,0,6.154-55.514-49.439-55.687h-8.876c-55.595,0.173-49.44,55.687-49.44,55.687"/>
	
		<path fill="none" stroke="#000000" stroke-width="9.8438" stroke-linecap="round" stroke-linejoin="round" stroke-miterlimit="10" d="
		M369.946,177.509c-30.458-24.524-83.534-26.99-118.275-10.522c-6.157,2.919-11.738,6.431-16.515,10.522"/>
	<path fill="#69462E" d="M250.193,167.97c2.684-0.576,52.166-26.56,106.106,1.67l-0.177,0.711
		c7.419,27.063,0.861,30.875,0.861,30.875l-25.89-31.128c0,0-7.276,13.809-27.828,12.269c0,0,3.184-11.283,1.443-17.559
		c0,0-33.52,22.016-57.338,32.157l-0.035-0.008l-0.598,0.02c-2.26,0.621-3.471-20.453,4.205-28.665"/>
	
		<path fill="none" stroke="#000000" stroke-width="9.8438" stroke-linecap="round" stroke-linejoin="round" stroke-miterlimit="10" d="
		M250.193,167.97c2.684-0.576,52.166-26.56,106.106,1.67l-0.177,0.711c7.419,27.063,0.861,30.875,0.861,30.875l-25.89-31.128
		c0,0-7.276,13.809-27.828,12.269c0,0,3.184-11.283,1.443-17.559c0,0-33.52,22.016-57.338,32.157l-0.035-0.008l-0.598,0.02
		c-2.26,0.621-3.471-20.453,4.205-28.665"/>
</g>
</svg>
