<?xml version="1.0" encoding="utf-8"?>
<!-- Generator: Adobe Illustrator 16.0.0, SVG Export Plug-In . SVG Version: 6.00 Build 0)  -->
<!DOCTYPE svg PUBLIC "-//W3C//DTD SVG 1.1//EN" "http://www.w3.org/Graphics/SVG/1.1/DTD/svg11.dtd">
<svg version="1.1" id="Ebene_1" xmlns="http://www.w3.org/2000/svg" xmlns:xlink="http://www.w3.org/1999/xlink" x="0px" y="0px"
	 width="1600px" height="900px" viewBox="0 0 1600 900" enable-background="new 0 0 1600 900" xml:space="preserve">
<rect fill="#61B2E4" width="1600" height="900"/>
<path fill="#92D3F5" d="M621.662,614.174c0,0-54.873,13.719-54.873,41.157l27.437,27.436c0,0,13.719,54.873,13.719,82.311
	c0,27.437-13.719,150.902-13.719,150.902h411.552c0,0-27.438-205.776-13.721-219.494l41.156-41.154
	c0-27.438-54.873-41.157-54.873-41.157"/>
<path fill="#F1B31C" d="M662.817,614.174c-54.873,0-54.873-82.309-54.873-178.337c0-96.029,54.873-192.058,192.057-192.058
	c137.183,0,192.056,96.028,192.056,192.058c0,96.028,0,178.337-54.873,178.337"/>
<path fill="#FCEA2B" d="M649.098,504.428c0,123.465,67.722,192.058,150.902,192.058c81.439,0,151.773-68.593,151.773-192.058
	c0-41.154-13.719-68.591-13.719-68.591c-41.156-41.157-96.027-109.748-96.027-109.748c-54.875,41.155-96.03,82.31-178.339,96.029
	C663.688,422.118,649.098,435.837,649.098,504.428"/>
<path fill="#FCEA2B" d="M497.754,915.979l40.298-168.816l-12.861-17.147l-54.874-41.155l-54.873-82.31c0,0-13.718-13.72,0-27.435
	c13.719-13.719,27.438,0,27.438,0l54.873,54.871c13.718,13.719,27.437,13.719,68.591,27.437
	c41.156,13.718,42.949,44.412,41.156,68.592c-9.137,123.092-13.719,185.964-13.719,185.964"/>
<path fill="#FCEA2B" d="M580.385,667.534c0,0-14.038-39.642-29.044-80.797c-5.92-16.208-26.15-14.147-26.15-2.277v50.627"/>
<path fill="#FCEA2B" d="M1102.246,915.979l-40.297-168.816l12.859-17.147l54.875-41.155l54.873-82.31c0,0,13.717-13.72,0-27.435
	c-13.719-13.719-27.438,0-27.438,0l-54.873,54.871c-13.717,13.719-27.438,13.719-68.592,27.437s-42.949,44.412-41.154,68.592
	c9.148,123.092,13.719,185.964,13.719,185.964"/>
<path fill="#FCEA2B" d="M1019.629,667.534c0,0,14.025-39.642,29.031-80.797c5.904-16.208,26.148-14.147,26.148-2.277v50.627"/>
<path fill="none" stroke="#040404" stroke-width="27.4367" stroke-linecap="round" stroke-linejoin="round" d="M937.184,614.174
	c54.873,0,54.873-82.309,54.873-178.337c0-96.029-54.873-192.058-192.056-192.058c-137.184,0-192.057,96.028-192.057,192.058
	c0,96.028,0,178.337,54.873,178.337"/>
<path fill="#040404" d="M880.57,490.709c0,15.151-12.285,27.437-27.438,27.437c-15.15,0-27.438-12.285-27.438-27.437
	c0-15.138,12.287-27.436,27.438-27.436C868.285,463.273,880.57,475.571,880.57,490.709"/>
<path fill="#040404" d="M770.821,490.709c0,15.151-12.284,27.437-27.437,27.437c-15.149,0-27.437-12.285-27.437-27.437
	c0-15.138,12.287-27.436,27.437-27.436C758.537,463.273,770.821,475.571,770.821,490.709"/>
<path fill="none" stroke="#040404" stroke-width="27.4367" stroke-linejoin="round" d="M648.227,504.428
	c0,123.465,67.721,192.058,150.903,192.058c81.44,0,151.772-68.593,151.772-192.058c0-41.154-13.719-68.591-13.719-68.591
	c-41.154-41.157-96.029-109.748-96.029-109.748c-54.872,41.155-96.028,82.31-178.337,96.029
	C662.817,422.118,648.227,435.837,648.227,504.428z"/>
<path fill="none" stroke="#040404" stroke-width="27.4367" stroke-linecap="round" stroke-linejoin="round" d="M773.716,600.456
	c26.284,5.386,54.002,0,54.002,0"/>
<path fill="none" stroke="#000000" stroke-width="27.4367" stroke-linecap="round" stroke-linejoin="round" stroke-miterlimit="10" d="
	M497.754,902.26l40.298-155.097l-12.861-17.147l-54.874-41.155l-54.873-82.31c0,0-13.718-13.72,0-27.435
	c13.719-13.719,27.438,0,27.438,0l54.873,54.871c13.718,13.719,27.437,13.719,68.591,27.437
	c41.156,13.718,42.949,44.412,41.156,68.592c-9.137,123.092-13.719,172.244-13.719,172.244"/>
<path fill="none" stroke="#000000" stroke-width="27.4367" stroke-linecap="round" stroke-linejoin="round" stroke-miterlimit="10" d="
	M580.385,667.534c0,0-14.038-39.642-29.044-80.797c-5.92-16.208-26.15-14.147-26.15-2.277v50.627"/>
<path fill="none" stroke="#000000" stroke-width="27.4367" stroke-linecap="round" stroke-linejoin="round" stroke-miterlimit="10" d="
	M1102.246,902.26l-40.297-155.097l12.859-17.147l54.875-41.155l54.873-82.31c0,0,13.717-13.72,0-27.435
	c-13.719-13.719-27.438,0-27.438,0l-54.873,54.871c-13.717,13.719-27.438,13.719-68.592,27.437s-42.949,44.412-41.154,68.592
	c9.148,123.092,13.719,172.244,13.719,172.244"/>
<path fill="none" stroke="#000000" stroke-width="27.4367" stroke-linecap="round" stroke-linejoin="round" stroke-miterlimit="10" d="
	M1019.629,667.534c0,0,14.025-39.642,29.031-80.797c5.904-16.208,26.148-14.147,26.148-2.277v50.627"/>
<line fill="none" stroke="#000000" stroke-width="27.4367" stroke-linecap="round" stroke-linejoin="round" stroke-miterlimit="10" x1="621.662" y1="627.893" x2="662.817" y2="614.174"/>
<line fill="none" stroke="#040404" stroke-width="27.4367" stroke-linecap="round" stroke-linejoin="round" x1="943.279" y1="614.174" x2="984.434" y2="627.893"/>
</svg>
