<?xml version="1.0" encoding="utf-8"?>
<!-- Generator: Adobe Illustrator 16.0.0, SVG Export Plug-In . SVG Version: 6.00 Build 0)  -->
<!DOCTYPE svg PUBLIC "-//W3C//DTD SVG 1.1//EN" "http://www.w3.org/Graphics/SVG/1.1/DTD/svg11.dtd">
<svg version="1.1" id="Ebene_1" xmlns="http://www.w3.org/2000/svg" xmlns:xlink="http://www.w3.org/1999/xlink" x="0px" y="0px"
	 width="1600px" height="900px" viewBox="0 0 1600 900" enable-background="new 0 0 1600 900" xml:space="preserve">
<g>
	<defs>
		<rect id="SVGID_1_" width="1527.572" height="900"/>
	</defs>
	<clipPath id="SVGID_2_">
		<use xlink:href="#SVGID_1_"  overflow="visible"/>
	</clipPath>
	<path clip-path="url(#SVGID_2_)" fill="#FCEA2B" d="M717.775,83.896c0,24.406-19.817,44.21-44.209,44.21
		c-24.395,0-44.211-19.804-44.211-44.21c0-24.409,19.817-44.211,44.211-44.211C697.958,39.685,717.775,59.486,717.775,83.896"/>
	<polyline clip-path="url(#SVGID_2_)" fill="#92D3F5" points="660.944,350.553 705.888,365.534 687.251,421.46 642.308,406.479 	"/>
	<path clip-path="url(#SVGID_2_)" fill="#D0CFCE" d="M497.184-35.381v14.736L467.71,97.25c0,0-14.737,44.209-44.211,88.42
		c-29.474,44.211-58.947,58.947-58.947,58.947l-44.21,29.475l-29.474,29.473l-73.684,162.106l14.736,29.472v14.737l14.736,14.737
		l-44.21,58.948l-48.125,113.288l-84.507,78.291L-33.947,789.88l0.605-795.789l235.789-73.683h235.789L497.184-35.381z"/>
	<path clip-path="url(#SVGID_2_)" fill="#FCEA2B" d="M615.078,170.934l73.227,34.999l-40.702,195.049l-15.8,22.55l-31.461,174.769
		l44.211,176.844l-44.211,14.735l-73.685-191.579v-132.63v-14.738l-132.631-73.684L261.394,509.881l-29.474-29.473L379.29,303.565
		l141.51,42.456c0,0,44.542-97.719,64.805-130.876c0,0-72.461-11.053-174.28-42.893c-22.752-7.118-44.468-22.962-29.731-52.435"/>
	<path clip-path="url(#SVGID_2_)" fill="none" stroke="#000000" stroke-width="29.4734" stroke-miterlimit="10" d="M717.775,83.896
		c0,24.406-19.817,44.21-44.209,44.21c-24.395,0-44.211-19.804-44.211-44.21c0-24.409,19.817-44.211,44.211-44.211
		C697.958,39.685,717.775,59.486,717.775,83.896z"/>
	
		<path clip-path="url(#SVGID_2_)" fill="none" stroke="#000000" stroke-width="29.4734" stroke-linecap="round" stroke-linejoin="round" stroke-miterlimit="10" d="
		M526.657,347.775L407.52,312.035c-15.527-4.659-36.722,1.72-47.1,14.172l-109.63,131.559
		c-10.379,12.453-12.238,29.271-4.133,37.377c8.105,8.105,24.116,5.359,35.578-6.102l90.95-90.951
		c11.462-11.463,32.435-14.4,46.605-6.528l81.102,45.058c14.17,7.873,39.028,14.313,55.239,14.313h14.736
		c16.211,0,38.59-9.634,49.729-21.409l6.748-7.132c11.143-11.776,22.886-33.382,26.1-48.013c3.213-14.632,5.844-26.603,5.844-26.603
		"/>
	
		<path clip-path="url(#SVGID_2_)" fill="none" stroke="#000000" stroke-width="29.4734" stroke-linecap="round" stroke-linejoin="round" stroke-miterlimit="10" d="
		M631.802,423.532l-26.239,145.762c-2.872,15.955-2.004,41.874,1.928,57.602l29.914,119.654c3.931,15.728-2.8,31.911-14.957,35.962
		c-12.158,4.053-26.866-5.012-32.686-20.14L537.238,625.81c-5.819-15.129-10.581-40.772-10.581-56.981V465.671"/>
	
		<path clip-path="url(#SVGID_2_)" fill="none" stroke="#000000" stroke-width="29.4734" stroke-linecap="round" stroke-linejoin="round" stroke-miterlimit="10" d="
		M659.289,347.775l27.271-90.907c9.316-31.054-2.956-63.092-27.271-71.198c-24.316-8.105-70.532-18.026-102.703-22.048l-0.91-0.114
		c-32.17-4.022-81.704-13.632-110.071-21.358c-28.369-7.724-51.579-14.044-51.579-14.044"/>
	
		<polyline clip-path="url(#SVGID_2_)" fill="none" stroke="#000000" stroke-width="29.4734" stroke-linecap="round" stroke-linejoin="round" stroke-miterlimit="10" points="
		143.5,686.723 246.658,524.617 217.185,465.671 305.604,274.092 379.29,229.88 408.763,185.67 	"/>
	
		<line clip-path="url(#SVGID_2_)" fill="none" stroke="#000000" stroke-width="29.4734" stroke-linecap="round" stroke-linejoin="round" stroke-miterlimit="10" x1="541.395" y1="303.565" x2="659.289" y2="347.775"/>
	
		<polyline clip-path="url(#SVGID_2_)" fill="none" stroke="#000000" stroke-width="29.4734" stroke-linecap="round" stroke-linejoin="round" stroke-miterlimit="10" points="
		677.925,356.209 705.888,365.534 687.251,421.46 659.289,412.135 	"/>
	
		<line clip-path="url(#SVGID_2_)" fill="none" stroke="#000000" stroke-width="29.4734" stroke-linecap="round" stroke-linejoin="round" stroke-miterlimit="10" x1="452.974" y1="97.25" x2="482.447" y2="-20.645"/>
	
		<line clip-path="url(#SVGID_2_)" fill="none" stroke="#000000" stroke-width="29.4734" stroke-linecap="round" stroke-linejoin="round" stroke-miterlimit="10" x1="585.604" y1="229.881" x2="570.868" y2="259.354"/>
</g>
</svg>
