<?xml version="1.0" encoding="UTF-8"?>
<svg xmlns="http://www.w3.org/2000/svg" xmlns:xlink="http://www.w3.org/1999/xlink" width="630px" height="px" viewBox="0 0 631 122" version="1.1">
<g id="surface1">
<path style=" stroke:none;fill-rule:nonzero;fill:rgb(100%,65.490196%,75.294118%);fill-opacity:1;" d="M 0 0 L 81.3125 0 L 81.3125 81.332031 L 0 81.332031 Z M 0 0 "/>
<path style=" stroke:none;fill-rule:nonzero;fill:rgb(90.196078%,47.843137%,58.039216%);fill-opacity:1;" d="M 0 81.171875 L 81.3125 81.171875 L 81.3125 121.835938 L 0 121.835938 Z M 0 81.171875 "/>
<path style=" stroke:none;fill-rule:nonzero;fill:rgb(95.686275%,66.666667%,25.490196%);fill-opacity:1;" d="M 325.257812 0 L 406.570312 0 L 406.570312 81.332031 L 325.257812 81.332031 Z M 325.257812 0 "/>
<path style=" stroke:none;fill-rule:nonzero;fill:rgb(88.627451%,43.921569%,13.333333%);fill-opacity:1;" d="M 325.257812 81.332031 L 406.570312 81.332031 L 406.570312 122 L 325.257812 122 Z M 325.257812 81.332031 "/>
<path style=" stroke:none;fill-rule:nonzero;fill:rgb(70.196078%,60%,78.431373%);fill-opacity:1;" d="M 162.628906 0 L 243.941406 0 L 243.941406 81.332031 L 162.628906 81.332031 Z M 162.628906 0 "/>
<path style=" stroke:none;fill-rule:nonzero;fill:rgb(53.72549%,40.392157%,66.666667%);fill-opacity:1;" d="M 162.628906 81.332031 L 243.941406 81.332031 L 243.941406 122 L 162.628906 122 Z M 162.628906 81.332031 "/>
<path style=" stroke:none;fill-rule:nonzero;fill:rgb(64.705882%,47.45098%,22.352941%);fill-opacity:1;" d="M 487.886719 0 L 569.199219 0 L 569.199219 81.332031 L 487.886719 81.332031 Z M 487.886719 0 "/>
<path style=" stroke:none;fill-rule:nonzero;fill:rgb(41.568627%,27.45098%,18.431373%);fill-opacity:1;" d="M 487.886719 81.332031 L 569.199219 81.332031 L 569.199219 122 L 487.886719 122 Z M 487.886719 81.332031 "/>
<path style=" stroke:none;fill-rule:nonzero;fill:rgb(0%,0%,0%);fill-opacity:1;" d="M 89.117188 11.789062 L 89.398438 9.46875 L 88.488281 9.46875 L 88.488281 8.816406 L 89.480469 8.816406 L 89.683594 7.132812 L 88.71875 7.132812 L 88.71875 6.472656 L 89.765625 6.472656 L 90.027344 4.390625 L 90.628906 4.390625 L 90.367188 6.472656 L 91.882812 6.472656 L 92.15625 4.390625 L 92.757812 4.390625 L 92.484375 6.472656 L 93.40625 6.472656 L 93.40625 7.132812 L 92.417969 7.132812 L 92.210938 8.816406 L 93.179688 8.816406 L 93.179688 9.46875 L 92.132812 9.46875 L 91.847656 11.789062 L 91.246094 11.789062 L 91.519531 9.46875 L 90.015625 9.46875 L 89.730469 11.789062 Z M 90.09375 8.816406 L 91.597656 8.816406 L 91.800781 7.132812 L 90.300781 7.132812 Z M 90.09375 8.816406 "/>
<path style=" stroke:none;fill-rule:nonzero;fill:rgb(0%,0%,0%);fill-opacity:1;" d="M 94.773438 11.789062 L 94.773438 4.320312 L 99.078125 4.320312 L 99.078125 5.117188 L 95.71875 5.117188 L 95.71875 7.644531 L 98.566406 7.644531 L 98.566406 8.441406 L 95.71875 8.441406 L 95.71875 11.789062 Z M 94.773438 11.789062 "/>
<path style=" stroke:none;fill-rule:nonzero;fill:rgb(0%,0%,0%);fill-opacity:1;" d="M 100.398438 11.789062 L 100.398438 4.320312 L 104.699219 4.320312 L 104.699219 5.117188 L 101.34375 5.117188 L 101.34375 7.644531 L 104.1875 7.644531 L 104.1875 8.441406 L 101.34375 8.441406 L 101.34375 11.789062 Z M 100.398438 11.789062 "/>
<path style=" stroke:none;fill-rule:nonzero;fill:rgb(0%,0%,0%);fill-opacity:1;" d="M 104.609375 11.789062 L 107.136719 4.320312 L 108.207031 4.320312 L 110.734375 11.789062 L 109.722656 11.789062 L 109.015625 9.511719 L 106.292969 9.511719 L 105.578125 11.789062 Z M 106.886719 7.609375 L 106.535156 8.75 L 108.777344 8.75 L 108.421875 7.609375 C 108.285156 7.195312 108.15625 6.777344 108.035156 6.363281 C 107.914062 5.949219 107.792969 5.527344 107.671875 5.09375 L 107.625 5.09375 C 107.511719 5.527344 107.394531 5.949219 107.273438 6.363281 C 107.152344 6.777344 107.023438 7.195312 106.886719 7.609375 Z M 106.886719 7.609375 "/>
<path style=" stroke:none;fill-rule:nonzero;fill:rgb(0%,0%,0%);fill-opacity:1;" d="M 112.78125 11.789062 C 112.8125 11.105469 112.875 10.480469 112.964844 9.910156 C 113.054688 9.34375 113.183594 8.800781 113.347656 8.289062 C 113.511719 7.777344 113.71875 7.28125 113.972656 6.800781 C 114.226562 6.324219 114.53125 5.835938 114.886719 5.335938 L 111.265625 5.335938 L 111.265625 4.523438 L 115.945312 4.523438 L 115.945312 5.105469 C 115.511719 5.652344 115.164062 6.175781 114.894531 6.675781 C 114.625 7.179688 114.410156 7.6875 114.25 8.207031 C 114.089844 8.726562 113.976562 9.277344 113.902344 9.859375 C 113.832031 10.441406 113.78125 11.085938 113.75 11.789062 Z M 112.78125 11.789062 "/>
<path style=" stroke:none;fill-rule:nonzero;fill:rgb(0%,0%,0%);fill-opacity:1;" d="M 120.273438 11.925781 C 119.800781 11.925781 119.371094 11.839844 118.976562 11.664062 C 118.582031 11.492188 118.238281 11.238281 117.945312 10.90625 C 117.652344 10.578125 117.425781 10.171875 117.261719 9.691406 C 117.097656 9.207031 117.019531 8.660156 117.019531 8.054688 C 117.019531 7.453125 117.101562 6.917969 117.269531 6.4375 C 117.433594 5.960938 117.667969 5.554688 117.960938 5.21875 C 118.257812 4.886719 118.609375 4.632812 119.011719 4.449219 C 119.414062 4.273438 119.851562 4.183594 120.332031 4.183594 C 120.785156 4.183594 121.1875 4.277344 121.53125 4.460938 C 121.878906 4.648438 122.160156 4.863281 122.378906 5.105469 L 121.867188 5.722656 C 121.667969 5.507812 121.445312 5.339844 121.195312 5.210938 C 120.945312 5.082031 120.660156 5.015625 120.34375 5.015625 C 119.984375 5.015625 119.664062 5.085938 119.375 5.226562 C 119.085938 5.367188 118.839844 5.570312 118.632812 5.832031 C 118.429688 6.09375 118.273438 6.410156 118.160156 6.78125 C 118.050781 7.152344 117.996094 7.570312 117.996094 8.035156 C 117.996094 8.503906 118.050781 8.929688 118.160156 9.304688 C 118.273438 9.679688 118.425781 10 118.625 10.265625 C 118.820312 10.53125 119.0625 10.738281 119.34375 10.882812 C 119.628906 11.027344 119.949219 11.097656 120.308594 11.097656 C 120.671875 11.097656 120.992188 11.023438 121.265625 10.875 C 121.539062 10.726562 121.796875 10.519531 122.039062 10.253906 L 122.5625 10.847656 C 122.265625 11.1875 121.933594 11.453125 121.558594 11.644531 C 121.1875 11.832031 120.757812 11.925781 120.273438 11.925781 Z M 120.273438 11.925781 "/>
<path style=" stroke:none;fill-rule:nonzero;fill:rgb(0%,0%,0%);fill-opacity:1;" d="M 125.761719 11.925781 C 125.023438 11.925781 124.453125 11.601562 124.042969 10.949219 C 123.632812 10.292969 123.425781 9.355469 123.425781 8.136719 C 123.425781 6.914062 123.632812 5.984375 124.042969 5.34375 C 124.453125 4.707031 125.023438 4.390625 125.761719 4.390625 C 126.488281 4.390625 127.058594 4.707031 127.46875 5.34375 C 127.878906 5.984375 128.082031 6.914062 128.082031 8.136719 C 128.082031 9.359375 127.878906 10.296875 127.46875 10.949219 C 127.058594 11.601562 126.488281 11.925781 125.761719 11.925781 Z M 125.761719 11.175781 C 125.972656 11.175781 126.164062 11.117188 126.335938 11 C 126.507812 10.882812 126.65625 10.699219 126.78125 10.453125 C 126.90625 10.207031 127 9.890625 127.070312 9.507812 C 127.136719 9.125 127.171875 8.667969 127.171875 8.136719 C 127.171875 7.605469 127.136719 7.148438 127.070312 6.769531 C 127 6.386719 126.902344 6.078125 126.78125 5.839844 C 126.65625 5.601562 126.507812 5.425781 126.335938 5.3125 C 126.164062 5.195312 125.972656 5.140625 125.761719 5.140625 C 125.546875 5.140625 125.355469 5.195312 125.179688 5.308594 C 125.007812 5.421875 124.855469 5.601562 124.730469 5.839844 C 124.605469 6.078125 124.507812 6.386719 124.441406 6.765625 C 124.371094 7.144531 124.339844 7.601562 124.339844 8.132812 C 124.339844 9.195312 124.46875 9.96875 124.730469 10.453125 C 124.992188 10.933594 125.335938 11.175781 125.761719 11.175781 Z M 125.761719 11.175781 "/>
<path style=" stroke:none;fill-rule:nonzero;fill:rgb(0%,0%,0%);fill-opacity:1;" d="M 89.117188 92.570312 L 89.398438 90.246094 L 88.488281 90.246094 L 88.488281 89.597656 L 89.480469 89.597656 L 89.683594 87.914062 L 88.71875 87.914062 L 88.71875 87.253906 L 89.765625 87.253906 L 90.027344 85.171875 L 90.628906 85.171875 L 90.367188 87.253906 L 91.882812 87.253906 L 92.15625 85.171875 L 92.757812 85.171875 L 92.484375 87.253906 L 93.40625 87.253906 L 93.40625 87.914062 L 92.417969 87.914062 L 92.210938 89.597656 L 93.179688 89.597656 L 93.179688 90.246094 L 92.132812 90.246094 L 91.847656 92.570312 L 91.246094 92.570312 L 91.519531 90.246094 L 90.015625 90.246094 L 89.730469 92.570312 Z M 90.09375 89.597656 L 91.597656 89.597656 L 91.800781 87.914062 L 90.300781 87.914062 Z M 90.09375 89.597656 "/>
<path style=" stroke:none;fill-rule:nonzero;fill:rgb(0%,0%,0%);fill-opacity:1;" d="M 94.773438 92.570312 L 94.773438 85.101562 L 99.078125 85.101562 L 99.078125 85.898438 L 95.71875 85.898438 L 95.71875 88.242188 L 98.554688 88.242188 L 98.554688 89.050781 L 95.71875 89.050781 L 95.71875 91.761719 L 99.191406 91.761719 L 99.191406 92.570312 Z M 94.773438 92.570312 "/>
<path style=" stroke:none;fill-rule:nonzero;fill:rgb(0%,0%,0%);fill-opacity:1;" d="M 102.800781 92.707031 C 102.441406 92.707031 102.113281 92.636719 101.808594 92.492188 C 101.503906 92.347656 101.242188 92.128906 101.015625 91.835938 C 100.792969 91.546875 100.617188 91.179688 100.488281 90.742188 C 100.359375 90.304688 100.292969 89.796875 100.292969 89.210938 C 100.292969 88.484375 100.371094 87.863281 100.523438 87.347656 C 100.671875 86.839844 100.878906 86.417969 101.136719 86.097656 C 101.394531 85.773438 101.6875 85.539062 102.019531 85.390625 C 102.347656 85.242188 102.695312 85.167969 103.0625 85.167969 C 103.457031 85.167969 103.792969 85.242188 104.078125 85.390625 C 104.363281 85.539062 104.609375 85.722656 104.8125 85.941406 L 104.289062 86.523438 C 104.140625 86.347656 103.957031 86.210938 103.75 86.105469 C 103.539062 86.003906 103.324219 85.953125 103.09375 85.953125 C 102.84375 85.953125 102.605469 86.003906 102.378906 86.113281 C 102.152344 86.21875 101.949219 86.394531 101.773438 86.632812 C 101.601562 86.878906 101.460938 87.195312 101.355469 87.585938 C 101.246094 87.976562 101.191406 88.460938 101.183594 89.039062 C 101.410156 88.757812 101.675781 88.535156 101.980469 88.375 C 102.285156 88.210938 102.582031 88.128906 102.878906 88.128906 C 103.511719 88.128906 104.011719 88.316406 104.386719 88.6875 C 104.765625 89.058594 104.953125 89.621094 104.953125 90.371094 C 104.953125 90.722656 104.894531 91.039062 104.78125 91.324219 C 104.667969 91.605469 104.511719 91.851562 104.316406 92.054688 C 104.117188 92.261719 103.890625 92.421875 103.632812 92.535156 C 103.371094 92.648438 103.09375 92.707031 102.800781 92.707031 Z M 102.800781 91.96875 C 102.980469 91.96875 103.148438 91.929688 103.300781 91.851562 C 103.453125 91.777344 103.585938 91.671875 103.699219 91.527344 C 103.8125 91.390625 103.902344 91.222656 103.964844 91.027344 C 104.03125 90.835938 104.0625 90.617188 104.0625 90.375 C 104.0625 89.894531 103.953125 89.519531 103.734375 89.246094 C 103.511719 88.972656 103.175781 88.835938 102.71875 88.835938 C 102.484375 88.835938 102.230469 88.910156 101.957031 89.058594 C 101.683594 89.207031 101.433594 89.453125 101.207031 89.792969 C 101.265625 90.507812 101.429688 91.046875 101.703125 91.414062 C 101.96875 91.78125 102.335938 91.96875 102.800781 91.96875 Z M 102.800781 91.96875 "/>
<path style=" stroke:none;fill-rule:nonzero;fill:rgb(0%,0%,0%);fill-opacity:1;" d="M 107.421875 92.570312 C 107.453125 91.886719 107.511719 91.261719 107.601562 90.691406 C 107.695312 90.121094 107.820312 89.582031 107.984375 89.070312 C 108.148438 88.558594 108.355469 88.0625 108.609375 87.582031 C 108.863281 87.105469 109.167969 86.613281 109.527344 86.117188 L 105.90625 86.117188 L 105.90625 85.308594 L 110.585938 85.308594 L 110.585938 85.886719 C 110.152344 86.433594 109.800781 86.957031 109.53125 87.460938 C 109.261719 87.960938 109.050781 88.46875 108.886719 88.988281 C 108.730469 89.507812 108.613281 90.058594 108.542969 90.640625 C 108.46875 91.222656 108.417969 91.867188 108.386719 92.570312 Z M 107.421875 92.570312 "/>
<path style=" stroke:none;fill-rule:nonzero;fill:rgb(0%,0%,0%);fill-opacity:1;" d="M 111.097656 92.570312 L 113.625 85.101562 L 114.695312 85.101562 L 117.222656 92.570312 L 116.210938 92.570312 L 115.503906 90.292969 L 112.78125 90.292969 L 112.066406 92.570312 Z M 113.375 88.390625 L 113.023438 89.53125 L 115.265625 89.53125 L 114.910156 88.390625 C 114.773438 87.976562 114.644531 87.558594 114.523438 87.144531 C 114.402344 86.730469 114.28125 86.308594 114.160156 85.875 L 114.113281 85.875 C 114 86.308594 113.882812 86.730469 113.761719 87.144531 C 113.640625 87.558594 113.511719 87.976562 113.375 88.390625 Z M 113.375 88.390625 "/>
<path style=" stroke:none;fill-rule:nonzero;fill:rgb(0%,0%,0%);fill-opacity:1;" d="M 119.589844 92.707031 C 119.203125 92.707031 118.863281 92.636719 118.574219 92.492188 C 118.28125 92.347656 118.035156 92.164062 117.835938 91.945312 L 118.359375 91.351562 C 118.511719 91.527344 118.691406 91.664062 118.902344 91.773438 C 119.109375 91.878906 119.328125 91.933594 119.554688 91.933594 C 119.816406 91.933594 120.058594 91.878906 120.285156 91.773438 C 120.511719 91.667969 120.714844 91.492188 120.886719 91.246094 C 121.0625 91 121.203125 90.675781 121.308594 90.28125 C 121.414062 89.886719 121.472656 89.398438 121.480469 88.8125 C 121.253906 89.101562 120.984375 89.328125 120.683594 89.496094 C 120.382812 89.664062 120.074219 89.746094 119.773438 89.746094 C 119.144531 89.746094 118.644531 89.5625 118.269531 89.1875 C 117.898438 88.816406 117.710938 88.253906 117.710938 87.503906 C 117.710938 87.152344 117.769531 86.839844 117.882812 86.554688 C 117.996094 86.269531 118.152344 86.023438 118.34375 85.816406 C 118.539062 85.613281 118.765625 85.453125 119.027344 85.339844 C 119.289062 85.226562 119.566406 85.171875 119.855469 85.171875 C 120.210938 85.171875 120.542969 85.242188 120.847656 85.386719 C 121.15625 85.53125 121.421875 85.75 121.644531 86.039062 C 121.871094 86.332031 122.042969 86.699219 122.171875 87.132812 C 122.296875 87.570312 122.359375 88.082031 122.359375 88.664062 C 122.359375 89.394531 122.28125 90.015625 122.132812 90.527344 C 121.980469 91.039062 121.773438 91.457031 121.515625 91.78125 C 121.257812 92.101562 120.964844 92.339844 120.636719 92.488281 C 120.300781 92.632812 119.953125 92.707031 119.589844 92.707031 Z M 119.933594 89.039062 C 120.175781 89.039062 120.429688 88.964844 120.703125 88.8125 C 120.972656 88.660156 121.222656 88.414062 121.457031 88.074219 C 121.394531 87.359375 121.230469 86.820312 120.957031 86.457031 C 120.683594 86.089844 120.316406 85.910156 119.851562 85.910156 C 119.679688 85.910156 119.511719 85.945312 119.355469 86.019531 C 119.199219 86.097656 119.066406 86.207031 118.953125 86.347656 C 118.835938 86.488281 118.75 86.652344 118.683594 86.855469 C 118.617188 87.050781 118.585938 87.265625 118.585938 87.5 C 118.585938 87.980469 118.695312 88.355469 118.914062 88.628906 C 119.136719 88.902344 119.476562 89.039062 119.933594 89.039062 Z M 119.933594 89.039062 "/>
<path style=" stroke:none;fill-rule:nonzero;fill:rgb(0%,0%,0%);fill-opacity:1;" d="M 126.375 92.570312 L 126.375 90.566406 L 123.109375 90.566406 L 123.109375 89.953125 L 126.214844 85.308594 L 127.261719 85.308594 L 127.261719 89.816406 L 128.253906 89.816406 L 128.253906 90.566406 L 127.261719 90.566406 L 127.261719 92.570312 Z M 124.097656 89.816406 L 126.375 89.816406 L 126.375 87.707031 C 126.375 87.511719 126.378906 87.277344 126.394531 87.007812 C 126.40625 86.738281 126.417969 86.503906 126.433594 86.308594 L 126.386719 86.308594 C 126.296875 86.480469 126.203125 86.652344 126.101562 86.820312 C 126.003906 86.984375 125.902344 87.15625 125.796875 87.332031 Z M 124.097656 89.816406 "/>
<path style=" stroke:none;fill-rule:nonzero;fill:rgb(0%,0%,0%);fill-opacity:1;" d="M 253.097656 11.789062 L 253.382812 9.46875 L 252.472656 9.46875 L 252.472656 8.816406 L 253.464844 8.816406 L 253.667969 7.132812 L 252.699219 7.132812 L 252.699219 6.472656 L 253.75 6.472656 L 254.011719 4.390625 L 254.613281 4.390625 L 254.351562 6.472656 L 255.867188 6.472656 L 256.140625 4.390625 L 256.742188 4.390625 L 256.46875 6.472656 L 257.390625 6.472656 L 257.390625 7.132812 L 256.402344 7.132812 L 256.195312 8.816406 L 257.164062 8.816406 L 257.164062 9.46875 L 256.117188 9.46875 L 255.832031 11.789062 L 255.226562 11.789062 L 255.5 9.46875 L 254 9.46875 L 253.714844 11.789062 Z M 254.078125 8.816406 L 255.582031 8.816406 L 255.785156 7.132812 L 254.285156 7.132812 Z M 254.078125 8.816406 "/>
<path style=" stroke:none;fill-rule:nonzero;fill:rgb(0%,0%,0%);fill-opacity:1;" d="M 258.757812 11.789062 L 258.757812 4.320312 L 260.976562 4.320312 C 261.355469 4.320312 261.703125 4.355469 262.019531 4.421875 C 262.332031 4.488281 262.601562 4.59375 262.828125 4.738281 C 263.050781 4.886719 263.226562 5.070312 263.351562 5.304688 C 263.476562 5.539062 263.539062 5.8125 263.539062 6.140625 C 263.539062 6.515625 263.445312 6.851562 263.261719 7.148438 C 263.074219 7.449219 262.804688 7.65625 262.445312 7.769531 L 262.445312 7.816406 C 262.902344 7.898438 263.269531 8.085938 263.550781 8.386719 C 263.832031 8.679688 263.972656 9.089844 263.972656 9.605469 C 263.972656 9.96875 263.90625 10.285156 263.769531 10.558594 C 263.632812 10.832031 263.4375 11.0625 263.1875 11.242188 C 262.9375 11.425781 262.636719 11.5625 262.289062 11.652344 C 261.941406 11.746094 261.554688 11.789062 261.136719 11.789062 Z M 259.703125 7.496094 L 260.804688 7.496094 C 261.445312 7.496094 261.902344 7.386719 262.183594 7.167969 C 262.464844 6.945312 262.605469 6.648438 262.605469 6.265625 C 262.605469 5.832031 262.457031 5.527344 262.164062 5.34375 C 261.875 5.164062 261.4375 5.070312 260.851562 5.070312 L 259.699219 5.070312 L 259.699219 7.496094 Z M 259.703125 11.039062 L 261 11.039062 C 261.644531 11.039062 262.144531 10.917969 262.503906 10.679688 C 262.859375 10.441406 263.039062 10.070312 263.039062 9.566406 C 263.039062 9.105469 262.863281 8.765625 262.515625 8.550781 C 262.164062 8.332031 261.660156 8.222656 261 8.222656 L 259.703125 8.222656 Z M 259.703125 11.039062 "/>
<path style=" stroke:none;fill-rule:nonzero;fill:rgb(0%,0%,0%);fill-opacity:1;" d="M 267.113281 11.925781 C 266.824219 11.925781 266.5625 11.898438 266.324219 11.839844 C 266.082031 11.785156 265.867188 11.707031 265.667969 11.613281 C 265.46875 11.515625 265.292969 11.410156 265.140625 11.289062 C 264.984375 11.167969 264.84375 11.039062 264.722656 10.902344 L 265.203125 10.285156 C 265.421875 10.515625 265.675781 10.714844 265.972656 10.890625 C 266.261719 11.066406 266.625 11.152344 267.058594 11.152344 C 267.5 11.152344 267.859375 11.03125 268.140625 10.792969 C 268.417969 10.554688 268.558594 10.226562 268.558594 9.820312 C 268.558594 9.605469 268.519531 9.410156 268.441406 9.234375 C 268.359375 9.054688 268.230469 8.902344 268.046875 8.769531 C 267.867188 8.640625 267.625 8.542969 267.332031 8.476562 C 267.035156 8.40625 266.671875 8.375 266.238281 8.375 L 266.238281 7.65625 C 266.625 7.65625 266.949219 7.621094 267.210938 7.554688 C 267.472656 7.484375 267.6875 7.390625 267.851562 7.269531 C 268.011719 7.148438 268.128906 7.003906 268.195312 6.835938 C 268.265625 6.667969 268.296875 6.492188 268.296875 6.300781 C 268.296875 5.945312 268.1875 5.664062 267.960938 5.460938 C 267.738281 5.253906 267.433594 5.152344 267.046875 5.152344 C 266.742188 5.152344 266.464844 5.21875 266.210938 5.355469 C 265.957031 5.492188 265.71875 5.671875 265.5 5.890625 L 264.996094 5.300781 C 265.277344 5.035156 265.585938 4.816406 265.925781 4.644531 C 266.261719 4.476562 266.648438 4.390625 267.078125 4.390625 C 267.398438 4.390625 267.691406 4.429688 267.957031 4.515625 C 268.222656 4.597656 268.453125 4.71875 268.644531 4.875 C 268.835938 5.03125 268.988281 5.222656 269.09375 5.449219 C 269.199219 5.679688 269.253906 5.941406 269.253906 6.234375 C 269.253906 6.675781 269.132812 7.035156 268.890625 7.316406 C 268.648438 7.597656 268.328125 7.816406 267.933594 7.964844 L 267.933594 8.007812 C 268.152344 8.0625 268.359375 8.140625 268.546875 8.242188 C 268.734375 8.347656 268.902344 8.476562 269.046875 8.632812 C 269.191406 8.789062 269.304688 8.964844 269.386719 9.171875 C 269.464844 9.375 269.503906 9.605469 269.503906 9.855469 C 269.503906 10.171875 269.441406 10.460938 269.316406 10.71875 C 269.191406 10.976562 269.019531 11.195312 268.804688 11.375 C 268.589844 11.550781 268.335938 11.6875 268.046875 11.785156 C 267.757812 11.878906 267.445312 11.925781 267.113281 11.925781 Z M 267.113281 11.925781 "/>
<path style=" stroke:none;fill-rule:nonzero;fill:rgb(0%,0%,0%);fill-opacity:1;" d="M 272.417969 11.925781 C 272.03125 11.925781 271.691406 11.855469 271.398438 11.710938 C 271.109375 11.566406 270.863281 11.382812 270.664062 11.164062 L 271.1875 10.570312 C 271.339844 10.746094 271.519531 10.886719 271.730469 10.992188 C 271.9375 11.097656 272.15625 11.152344 272.382812 11.152344 C 272.640625 11.152344 272.882812 11.101562 273.113281 10.992188 C 273.339844 10.886719 273.542969 10.710938 273.714844 10.464844 C 273.890625 10.21875 274.03125 9.898438 274.136719 9.5 C 274.242188 9.109375 274.300781 8.617188 274.308594 8.035156 C 274.078125 8.320312 273.8125 8.550781 273.511719 8.71875 C 273.207031 8.886719 272.902344 8.964844 272.601562 8.964844 C 271.972656 8.964844 271.46875 8.78125 271.097656 8.410156 C 270.726562 8.035156 270.539062 7.472656 270.539062 6.722656 C 270.539062 6.375 270.597656 6.058594 270.710938 5.773438 C 270.824219 5.488281 270.980469 5.242188 271.171875 5.039062 C 271.367188 4.832031 271.59375 4.671875 271.855469 4.558594 C 272.117188 4.449219 272.390625 4.390625 272.679688 4.390625 C 273.039062 4.390625 273.371094 4.460938 273.675781 4.605469 C 273.984375 4.75 274.25 4.96875 274.472656 5.261719 C 274.695312 5.554688 274.871094 5.917969 274.996094 6.355469 C 275.121094 6.792969 275.1875 7.300781 275.1875 7.882812 C 275.1875 8.613281 275.109375 9.234375 274.957031 9.746094 C 274.808594 10.257812 274.601562 10.675781 274.34375 11 C 274.085938 11.324219 273.789062 11.558594 273.460938 11.707031 C 273.128906 11.851562 272.78125 11.925781 272.417969 11.925781 Z M 272.757812 8.261719 C 273 8.261719 273.257812 8.183594 273.527344 8.03125 C 273.796875 7.878906 274.050781 7.632812 274.285156 7.292969 C 274.222656 6.578125 274.058594 6.039062 273.785156 5.675781 C 273.511719 5.308594 273.140625 5.128906 272.679688 5.128906 C 272.503906 5.128906 272.339844 5.167969 272.183594 5.242188 C 272.027344 5.316406 271.894531 5.425781 271.777344 5.566406 C 271.664062 5.707031 271.574219 5.875 271.511719 6.074219 C 271.445312 6.269531 271.414062 6.488281 271.414062 6.722656 C 271.414062 7.199219 271.523438 7.574219 271.742188 7.847656 C 271.960938 8.121094 272.304688 8.261719 272.757812 8.261719 Z M 272.757812 8.261719 "/>
<path style=" stroke:none;fill-rule:nonzero;fill:rgb(0%,0%,0%);fill-opacity:1;" d="M 278.074219 11.925781 C 277.6875 11.925781 277.347656 11.855469 277.058594 11.710938 C 276.765625 11.566406 276.519531 11.382812 276.324219 11.164062 L 276.847656 10.570312 C 276.996094 10.746094 277.179688 10.886719 277.386719 10.992188 C 277.597656 11.097656 277.8125 11.152344 278.042969 11.152344 C 278.300781 11.152344 278.542969 11.101562 278.769531 10.992188 C 278.996094 10.886719 279.199219 10.710938 279.375 10.464844 C 279.546875 10.21875 279.6875 9.898438 279.792969 9.5 C 279.902344 9.109375 279.957031 8.617188 279.964844 8.035156 C 279.738281 8.320312 279.472656 8.550781 279.167969 8.71875 C 278.867188 8.886719 278.558594 8.964844 278.257812 8.964844 C 277.628906 8.964844 277.128906 8.78125 276.753906 8.410156 C 276.382812 8.035156 276.199219 7.472656 276.199219 6.722656 C 276.199219 6.375 276.253906 6.058594 276.367188 5.773438 C 276.480469 5.488281 276.636719 5.242188 276.832031 5.039062 C 277.023438 4.832031 277.25 4.671875 277.511719 4.558594 C 277.773438 4.449219 278.050781 4.390625 278.339844 4.390625 C 278.695312 4.390625 279.027344 4.460938 279.335938 4.605469 C 279.640625 4.75 279.910156 4.96875 280.132812 5.261719 C 280.355469 5.554688 280.53125 5.917969 280.65625 6.355469 C 280.78125 6.792969 280.84375 7.300781 280.84375 7.882812 C 280.84375 8.613281 280.765625 9.234375 280.617188 9.746094 C 280.464844 10.257812 280.257812 10.675781 280 11 C 279.742188 11.324219 279.449219 11.558594 279.121094 11.707031 C 278.785156 11.851562 278.441406 11.925781 278.074219 11.925781 Z M 278.417969 8.261719 C 278.660156 8.261719 278.917969 8.183594 279.1875 8.03125 C 279.457031 7.878906 279.707031 7.632812 279.941406 7.292969 C 279.882812 6.578125 279.714844 6.039062 279.441406 5.675781 C 279.167969 5.308594 278.800781 5.128906 278.335938 5.128906 C 278.164062 5.128906 277.996094 5.167969 277.839844 5.242188 C 277.683594 5.316406 277.550781 5.425781 277.4375 5.566406 C 277.324219 5.707031 277.234375 5.875 277.167969 6.074219 C 277.101562 6.269531 277.070312 6.488281 277.070312 6.722656 C 277.070312 7.199219 277.179688 7.574219 277.402344 7.847656 C 277.621094 8.121094 277.960938 8.261719 278.417969 8.261719 Z M 278.417969 8.261719 "/>
<path style=" stroke:none;fill-rule:nonzero;fill:rgb(0%,0%,0%);fill-opacity:1;" d="M 285.246094 11.925781 C 284.777344 11.925781 284.34375 11.839844 283.949219 11.664062 C 283.554688 11.492188 283.210938 11.238281 282.921875 10.90625 C 282.628906 10.578125 282.398438 10.171875 282.238281 9.691406 C 282.074219 9.207031 281.992188 8.660156 281.992188 8.054688 C 281.992188 7.453125 282.078125 6.917969 282.242188 6.4375 C 282.410156 5.960938 282.640625 5.554688 282.9375 5.21875 C 283.234375 4.886719 283.582031 4.632812 283.984375 4.449219 C 284.386719 4.273438 284.828125 4.183594 285.304688 4.183594 C 285.761719 4.183594 286.160156 4.277344 286.507812 4.460938 C 286.851562 4.648438 287.132812 4.863281 287.355469 5.105469 L 286.839844 5.722656 C 286.644531 5.507812 286.421875 5.339844 286.167969 5.210938 C 285.917969 5.082031 285.636719 5.015625 285.316406 5.015625 C 284.957031 5.015625 284.636719 5.085938 284.347656 5.226562 C 284.0625 5.367188 283.8125 5.570312 283.609375 5.832031 C 283.402344 6.09375 283.246094 6.410156 283.136719 6.78125 C 283.027344 7.152344 282.96875 7.570312 282.96875 8.035156 C 282.96875 8.503906 283.023438 8.929688 283.136719 9.304688 C 283.246094 9.679688 283.398438 10 283.597656 10.265625 C 283.792969 10.53125 284.035156 10.738281 284.320312 10.882812 C 284.605469 11.027344 284.925781 11.097656 285.28125 11.097656 C 285.644531 11.097656 285.964844 11.023438 286.238281 10.875 C 286.511719 10.726562 286.769531 10.519531 287.011719 10.253906 L 287.535156 10.847656 C 287.238281 11.1875 286.90625 11.453125 286.535156 11.644531 C 286.160156 11.832031 285.730469 11.925781 285.246094 11.925781 Z M 285.246094 11.925781 "/>
<path style=" stroke:none;fill-rule:nonzero;fill:rgb(0%,0%,0%);fill-opacity:1;" d="M 290.746094 11.925781 C 290.40625 11.925781 290.085938 11.878906 289.796875 11.777344 C 289.503906 11.679688 289.253906 11.542969 289.046875 11.363281 C 288.835938 11.183594 288.671875 10.972656 288.550781 10.730469 C 288.425781 10.484375 288.367188 10.222656 288.367188 9.933594 C 288.367188 9.699219 288.40625 9.480469 288.484375 9.277344 C 288.566406 9.078125 288.667969 8.894531 288.792969 8.730469 C 288.917969 8.570312 289.0625 8.425781 289.226562 8.300781 C 289.390625 8.175781 289.558594 8.066406 289.734375 7.976562 L 289.734375 7.929688 C 289.464844 7.742188 289.230469 7.511719 289.027344 7.242188 C 288.824219 6.972656 288.71875 6.644531 288.71875 6.257812 C 288.71875 5.976562 288.773438 5.722656 288.878906 5.492188 C 288.984375 5.265625 289.128906 5.070312 289.3125 4.90625 C 289.492188 4.742188 289.710938 4.617188 289.960938 4.527344 C 290.210938 4.433594 290.484375 4.390625 290.78125 4.390625 C 291.097656 4.390625 291.382812 4.4375 291.632812 4.53125 C 291.882812 4.628906 292.097656 4.761719 292.277344 4.929688 C 292.457031 5.101562 292.59375 5.304688 292.6875 5.546875 C 292.785156 5.785156 292.828125 6.046875 292.828125 6.324219 C 292.828125 6.515625 292.796875 6.695312 292.734375 6.871094 C 292.667969 7.046875 292.589844 7.210938 292.496094 7.363281 C 292.398438 7.511719 292.292969 7.648438 292.175781 7.773438 C 292.058594 7.894531 291.941406 7.996094 291.828125 8.078125 L 291.828125 8.125 C 291.988281 8.214844 292.144531 8.320312 292.296875 8.4375 C 292.449219 8.554688 292.582031 8.6875 292.699219 8.835938 C 292.816406 8.984375 292.914062 9.148438 292.984375 9.34375 C 293.058594 9.53125 293.09375 9.75 293.09375 9.988281 C 293.09375 10.261719 293.035156 10.519531 292.921875 10.753906 C 292.808594 10.988281 292.648438 11.195312 292.445312 11.367188 C 292.238281 11.542969 291.992188 11.679688 291.703125 11.777344 C 291.417969 11.878906 291.09375 11.925781 290.746094 11.925781 Z M 290.769531 11.230469 C 291.195312 11.230469 291.535156 11.113281 291.796875 10.878906 C 292.058594 10.640625 292.191406 10.335938 292.191406 9.957031 C 292.191406 9.722656 292.136719 9.519531 292.03125 9.351562 C 291.925781 9.1875 291.78125 9.039062 291.601562 8.914062 C 291.417969 8.789062 291.207031 8.675781 290.96875 8.574219 C 290.730469 8.472656 290.480469 8.367188 290.222656 8.261719 C 289.933594 8.457031 289.695312 8.6875 289.5 8.949219 C 289.308594 9.210938 289.210938 9.507812 289.210938 9.84375 C 289.210938 10.046875 289.25 10.234375 289.328125 10.402344 C 289.410156 10.570312 289.519531 10.714844 289.660156 10.839844 C 289.800781 10.964844 289.964844 11.0625 290.15625 11.132812 C 290.34375 11.199219 290.546875 11.230469 290.769531 11.230469 Z M 291.257812 7.828125 C 291.5 7.605469 291.691406 7.375 291.824219 7.132812 C 291.957031 6.890625 292.023438 6.632812 292.023438 6.367188 C 292.023438 6.003906 291.914062 5.699219 291.691406 5.453125 C 291.472656 5.207031 291.160156 5.082031 290.757812 5.082031 C 290.417969 5.082031 290.136719 5.1875 289.917969 5.402344 C 289.699219 5.613281 289.585938 5.898438 289.585938 6.253906 C 289.585938 6.472656 289.632812 6.660156 289.722656 6.816406 C 289.8125 6.972656 289.9375 7.113281 290.09375 7.234375 C 290.25 7.355469 290.425781 7.464844 290.628906 7.558594 C 290.828125 7.65625 291.039062 7.746094 291.257812 7.828125 Z M 291.257812 7.828125 "/>
<path style=" stroke:none;fill-rule:nonzero;fill:rgb(0%,0%,0%);fill-opacity:1;" d="M 253.097656 92.570312 L 253.382812 90.246094 L 252.472656 90.246094 L 252.472656 89.597656 L 253.464844 89.597656 L 253.667969 87.914062 L 252.699219 87.914062 L 252.699219 87.253906 L 253.75 87.253906 L 254.011719 85.171875 L 254.613281 85.171875 L 254.351562 87.253906 L 255.867188 87.253906 L 256.140625 85.171875 L 256.742188 85.171875 L 256.46875 87.253906 L 257.390625 87.253906 L 257.390625 87.914062 L 256.402344 87.914062 L 256.195312 89.597656 L 257.164062 89.597656 L 257.164062 90.246094 L 256.117188 90.246094 L 255.832031 92.570312 L 255.226562 92.570312 L 255.5 90.246094 L 254 90.246094 L 253.714844 92.570312 Z M 254.078125 89.597656 L 255.582031 89.597656 L 255.785156 87.914062 L 254.285156 87.914062 Z M 254.078125 89.597656 "/>
<path style=" stroke:none;fill-rule:nonzero;fill:rgb(0%,0%,0%);fill-opacity:1;" d="M 260.578125 92.707031 C 260.238281 92.707031 259.921875 92.65625 259.628906 92.558594 C 259.335938 92.460938 259.085938 92.320312 258.878906 92.140625 C 258.667969 91.964844 258.503906 91.753906 258.382812 91.507812 C 258.257812 91.265625 258.199219 91.003906 258.199219 90.714844 C 258.199219 90.476562 258.238281 90.261719 258.316406 90.058594 C 258.398438 89.859375 258.5 89.675781 258.625 89.511719 C 258.75 89.347656 258.894531 89.207031 259.058594 89.078125 C 259.222656 88.953125 259.390625 88.84375 259.566406 88.753906 L 259.566406 88.710938 C 259.296875 88.523438 259.066406 88.289062 258.859375 88.019531 C 258.65625 87.753906 258.550781 87.421875 258.550781 87.035156 C 258.550781 86.757812 258.605469 86.5 258.710938 86.273438 C 258.816406 86.046875 258.960938 85.851562 259.144531 85.6875 C 259.328125 85.523438 259.542969 85.398438 259.792969 85.308594 C 260.042969 85.214844 260.316406 85.171875 260.613281 85.171875 C 260.929688 85.171875 261.214844 85.21875 261.464844 85.3125 C 261.71875 85.40625 261.933594 85.542969 262.109375 85.710938 C 262.289062 85.882812 262.425781 86.085938 262.519531 86.324219 C 262.617188 86.566406 262.660156 86.828125 262.660156 87.105469 C 262.660156 87.296875 262.628906 87.476562 262.566406 87.652344 C 262.5 87.824219 262.421875 87.988281 262.328125 88.140625 C 262.230469 88.292969 262.125 88.429688 262.007812 88.550781 C 261.890625 88.671875 261.773438 88.777344 261.660156 88.859375 L 261.660156 88.902344 C 261.820312 88.996094 261.976562 89.097656 262.128906 89.214844 C 262.28125 89.332031 262.414062 89.464844 262.535156 89.613281 C 262.652344 89.761719 262.746094 89.929688 262.816406 90.121094 C 262.890625 90.3125 262.925781 90.527344 262.925781 90.769531 C 262.925781 91.042969 262.867188 91.296875 262.753906 91.535156 C 262.640625 91.769531 262.480469 91.976562 262.277344 92.148438 C 262.070312 92.324219 261.824219 92.460938 261.535156 92.558594 C 261.25 92.65625 260.925781 92.707031 260.578125 92.707031 Z M 260.601562 92.011719 C 261.027344 92.011719 261.367188 91.894531 261.628906 91.660156 C 261.894531 91.421875 262.023438 91.117188 262.023438 90.738281 C 262.023438 90.5 261.972656 90.300781 261.863281 90.132812 C 261.757812 89.96875 261.613281 89.820312 261.433594 89.695312 C 261.25 89.570312 261.039062 89.457031 260.800781 89.351562 C 260.5625 89.25 260.3125 89.144531 260.054688 89.039062 C 259.765625 89.238281 259.527344 89.46875 259.332031 89.730469 C 259.140625 89.992188 259.042969 90.289062 259.042969 90.625 C 259.042969 90.828125 259.082031 91.011719 259.160156 91.183594 C 259.242188 91.351562 259.351562 91.496094 259.492188 91.621094 C 259.632812 91.746094 259.796875 91.84375 259.988281 91.910156 C 260.175781 91.976562 260.378906 92.011719 260.601562 92.011719 Z M 261.089844 88.609375 C 261.332031 88.386719 261.523438 88.15625 261.65625 87.914062 C 261.789062 87.671875 261.855469 87.414062 261.855469 87.148438 C 261.855469 86.785156 261.746094 86.480469 261.523438 86.234375 C 261.304688 85.988281 260.992188 85.863281 260.589844 85.863281 C 260.25 85.863281 259.96875 85.96875 259.75 86.183594 C 259.53125 86.394531 259.417969 86.679688 259.417969 87.035156 C 259.417969 87.257812 259.464844 87.441406 259.554688 87.597656 C 259.648438 87.753906 259.769531 87.894531 259.925781 88.015625 C 260.082031 88.136719 260.261719 88.246094 260.460938 88.339844 C 260.660156 88.433594 260.871094 88.523438 261.089844 88.609375 Z M 261.089844 88.609375 "/>
<path style=" stroke:none;fill-rule:nonzero;fill:rgb(0%,0%,0%);fill-opacity:1;" d="M 265.722656 92.707031 C 265.335938 92.707031 264.996094 92.636719 264.707031 92.492188 C 264.414062 92.347656 264.167969 92.164062 263.972656 91.945312 L 264.496094 91.351562 C 264.644531 91.527344 264.828125 91.664062 265.035156 91.773438 C 265.246094 91.878906 265.460938 91.933594 265.691406 91.933594 C 265.949219 91.933594 266.191406 91.878906 266.417969 91.773438 C 266.644531 91.667969 266.847656 91.492188 267.023438 91.246094 C 267.195312 91 267.335938 90.675781 267.441406 90.28125 C 267.550781 89.886719 267.605469 89.398438 267.613281 88.8125 C 267.386719 89.101562 267.121094 89.328125 266.816406 89.496094 C 266.515625 89.664062 266.207031 89.746094 265.90625 89.746094 C 265.277344 89.746094 264.777344 89.5625 264.402344 89.1875 C 264.03125 88.816406 263.847656 88.253906 263.847656 87.503906 C 263.847656 87.152344 263.902344 86.839844 264.015625 86.554688 C 264.128906 86.269531 264.285156 86.023438 264.476562 85.816406 C 264.671875 85.613281 264.898438 85.453125 265.160156 85.339844 C 265.421875 85.226562 265.699219 85.171875 265.988281 85.171875 C 266.34375 85.171875 266.675781 85.242188 266.984375 85.386719 C 267.289062 85.53125 267.558594 85.75 267.78125 86.039062 C 268.003906 86.332031 268.179688 86.699219 268.304688 87.132812 C 268.429688 87.570312 268.492188 88.082031 268.492188 88.664062 C 268.492188 89.394531 268.414062 90.015625 268.265625 90.527344 C 268.113281 91.039062 267.90625 91.457031 267.648438 91.78125 C 267.390625 92.101562 267.097656 92.339844 266.769531 92.488281 C 266.4375 92.632812 266.089844 92.707031 265.722656 92.707031 Z M 266.066406 89.039062 C 266.308594 89.039062 266.566406 88.964844 266.835938 88.8125 C 267.105469 88.660156 267.355469 88.414062 267.589844 88.074219 C 267.53125 87.359375 267.363281 86.820312 267.089844 86.457031 C 266.816406 86.089844 266.449219 85.910156 265.984375 85.910156 C 265.8125 85.910156 265.644531 85.945312 265.488281 86.019531 C 265.332031 86.097656 265.199219 86.207031 265.085938 86.347656 C 264.972656 86.488281 264.882812 86.652344 264.816406 86.855469 C 264.75 87.050781 264.71875 87.265625 264.71875 87.5 C 264.71875 87.980469 264.828125 88.355469 265.050781 88.628906 C 265.269531 88.902344 265.609375 89.039062 266.066406 89.039062 Z M 266.066406 89.039062 "/>
<path style=" stroke:none;fill-rule:nonzero;fill:rgb(0%,0%,0%);fill-opacity:1;" d="M 272.097656 92.707031 C 271.742188 92.707031 271.414062 92.636719 271.109375 92.492188 C 270.804688 92.347656 270.542969 92.128906 270.316406 91.835938 C 270.09375 91.546875 269.917969 91.179688 269.789062 90.742188 C 269.65625 90.304688 269.59375 89.796875 269.59375 89.210938 C 269.59375 88.484375 269.671875 87.863281 269.824219 87.347656 C 269.972656 86.839844 270.179688 86.417969 270.4375 86.097656 C 270.695312 85.773438 270.988281 85.539062 271.320312 85.390625 C 271.648438 85.242188 271.996094 85.167969 272.359375 85.167969 C 272.757812 85.167969 273.09375 85.242188 273.378906 85.390625 C 273.664062 85.539062 273.90625 85.722656 274.113281 85.941406 L 273.589844 86.523438 C 273.4375 86.347656 273.257812 86.210938 273.050781 86.105469 C 272.839844 86.003906 272.621094 85.953125 272.394531 85.953125 C 272.144531 85.953125 271.90625 86.003906 271.679688 86.113281 C 271.449219 86.21875 271.25 86.394531 271.074219 86.632812 C 270.902344 86.878906 270.757812 87.195312 270.652344 87.585938 C 270.546875 87.976562 270.492188 88.460938 270.484375 89.039062 C 270.710938 88.757812 270.976562 88.535156 271.28125 88.375 C 271.582031 88.210938 271.882812 88.128906 272.179688 88.128906 C 272.808594 88.128906 273.3125 88.316406 273.6875 88.6875 C 274.0625 89.058594 274.253906 89.621094 274.253906 90.371094 C 274.253906 90.722656 274.195312 91.039062 274.082031 91.324219 C 273.96875 91.605469 273.8125 91.851562 273.613281 92.054688 C 273.417969 92.261719 273.1875 92.421875 272.933594 92.535156 C 272.671875 92.648438 272.394531 92.707031 272.097656 92.707031 Z M 272.097656 91.96875 C 272.28125 91.96875 272.449219 91.929688 272.601562 91.851562 C 272.75 91.777344 272.882812 91.671875 273 91.527344 C 273.113281 91.390625 273.203125 91.222656 273.265625 91.027344 C 273.332031 90.835938 273.363281 90.617188 273.363281 90.375 C 273.363281 89.894531 273.253906 89.519531 273.03125 89.246094 C 272.8125 88.972656 272.476562 88.835938 272.019531 88.835938 C 271.785156 88.835938 271.53125 88.910156 271.257812 89.058594 C 270.984375 89.207031 270.734375 89.453125 270.503906 89.792969 C 270.566406 90.507812 270.730469 91.046875 271 91.414062 C 271.269531 91.78125 271.636719 91.96875 272.097656 91.96875 Z M 272.097656 91.96875 "/>
<path style=" stroke:none;fill-rule:nonzero;fill:rgb(0%,0%,0%);fill-opacity:1;" d="M 276.722656 92.570312 C 276.753906 91.886719 276.8125 91.261719 276.902344 90.691406 C 276.996094 90.121094 277.121094 89.582031 277.285156 89.070312 C 277.449219 88.558594 277.65625 88.0625 277.910156 87.582031 C 278.164062 87.105469 278.46875 86.613281 278.824219 86.117188 L 275.207031 86.117188 L 275.207031 85.308594 L 279.882812 85.308594 L 279.882812 85.886719 C 279.453125 86.433594 279.101562 86.957031 278.832031 87.460938 C 278.5625 87.960938 278.347656 88.46875 278.1875 88.988281 C 278.027344 89.507812 277.914062 90.058594 277.839844 90.640625 C 277.769531 91.222656 277.71875 91.867188 277.6875 92.570312 Z M 276.722656 92.570312 "/>
<path style=" stroke:none;fill-rule:nonzero;fill:rgb(0%,0%,0%);fill-opacity:1;" d="M 280.398438 92.570312 L 282.925781 85.101562 L 283.996094 85.101562 L 286.523438 92.570312 L 285.507812 92.570312 L 284.804688 90.292969 L 282.082031 90.292969 L 281.367188 92.570312 Z M 282.675781 88.390625 L 282.320312 89.53125 L 284.566406 89.53125 L 284.210938 88.390625 C 284.074219 87.976562 283.945312 87.558594 283.824219 87.144531 C 283.703125 86.730469 283.582031 86.308594 283.460938 85.875 L 283.414062 85.875 C 283.300781 86.308594 283.183594 86.730469 283.0625 87.144531 C 282.941406 87.558594 282.8125 87.976562 282.675781 88.390625 Z M 282.675781 88.390625 "/>
<path style=" stroke:none;fill-rule:nonzero;fill:rgb(0%,0%,0%);fill-opacity:1;" d="M 286.523438 92.570312 L 289.050781 85.101562 L 290.121094 85.101562 L 292.648438 92.570312 L 291.632812 92.570312 L 290.929688 90.292969 L 288.207031 90.292969 L 287.492188 92.570312 Z M 288.800781 88.390625 L 288.445312 89.53125 L 290.6875 89.53125 L 290.335938 88.390625 C 290.199219 87.976562 290.070312 87.558594 289.949219 87.144531 C 289.828125 86.730469 289.707031 86.308594 289.585938 85.875 L 289.539062 85.875 C 289.425781 86.308594 289.308594 86.730469 289.1875 87.144531 C 289.066406 87.558594 288.9375 87.976562 288.800781 88.390625 Z M 288.800781 88.390625 "/>
<path style=" stroke:none;fill-rule:nonzero;fill:rgb(0%,0%,0%);fill-opacity:1;" d="M 415.730469 11.789062 L 416.015625 9.46875 L 415.105469 9.46875 L 415.105469 8.816406 L 416.09375 8.816406 L 416.296875 7.132812 L 415.328125 7.132812 L 415.328125 6.472656 L 416.378906 6.472656 L 416.640625 4.390625 L 417.242188 4.390625 L 416.980469 6.472656 L 418.496094 6.472656 L 418.769531 4.390625 L 419.371094 4.390625 L 419.097656 6.472656 L 420.019531 6.472656 L 420.019531 7.132812 L 419.03125 7.132812 L 418.828125 8.816406 L 419.792969 8.816406 L 419.792969 9.46875 L 418.746094 9.46875 L 418.460938 11.789062 L 417.855469 11.789062 L 418.128906 9.46875 L 416.628906 9.46875 L 416.339844 11.789062 Z M 416.707031 8.816406 L 418.210938 8.816406 L 418.417969 7.132812 L 416.914062 7.132812 Z M 416.707031 8.816406 "/>
<path style=" stroke:none;fill-rule:nonzero;fill:rgb(0%,0%,0%);fill-opacity:1;" d="M 421.386719 11.789062 L 421.386719 4.320312 L 425.691406 4.320312 L 425.691406 5.117188 L 422.332031 5.117188 L 422.332031 7.644531 L 425.179688 7.644531 L 425.179688 8.441406 L 422.332031 8.441406 L 422.332031 11.789062 Z M 421.386719 11.789062 "/>
<path style=" stroke:none;fill-rule:nonzero;fill:rgb(0%,0%,0%);fill-opacity:1;" d="M 429.449219 11.789062 L 429.449219 9.785156 L 426.179688 9.785156 L 426.179688 9.171875 L 429.285156 4.527344 L 430.335938 4.527344 L 430.335938 9.035156 L 431.324219 9.035156 L 431.324219 9.785156 L 430.335938 9.785156 L 430.335938 11.789062 Z M 427.171875 9.035156 L 429.449219 9.035156 L 429.449219 6.929688 C 429.449219 6.730469 429.453125 6.496094 429.464844 6.226562 C 429.476562 5.957031 429.492188 5.722656 429.503906 5.527344 L 429.457031 5.527344 C 429.367188 5.703125 429.273438 5.871094 429.175781 6.039062 C 429.074219 6.203125 428.972656 6.375 428.867188 6.550781 Z M 427.171875 9.035156 "/>
<path style=" stroke:none;fill-rule:nonzero;fill:rgb(0%,0%,0%);fill-opacity:1;" d="M 431.679688 11.789062 L 434.207031 4.320312 L 435.277344 4.320312 L 437.804688 11.789062 L 436.789062 11.789062 L 436.085938 9.511719 L 433.363281 9.511719 L 432.648438 11.789062 Z M 433.957031 7.609375 L 433.601562 8.75 L 435.84375 8.75 L 435.492188 7.609375 C 435.355469 7.195312 435.226562 6.777344 435.105469 6.363281 C 434.984375 5.949219 434.863281 5.527344 434.738281 5.09375 L 434.695312 5.09375 C 434.582031 5.527344 434.464844 5.949219 434.34375 6.363281 C 434.21875 6.777344 434.09375 7.195312 433.957031 7.609375 Z M 433.957031 7.609375 "/>
<path style=" stroke:none;fill-rule:nonzero;fill:rgb(0%,0%,0%);fill-opacity:1;" d="M 437.804688 11.789062 L 440.332031 4.320312 L 441.402344 4.320312 L 443.929688 11.789062 L 442.914062 11.789062 L 442.210938 9.511719 L 439.488281 9.511719 L 438.773438 11.789062 Z M 440.082031 7.609375 L 439.726562 8.75 L 441.96875 8.75 L 441.617188 7.609375 C 441.480469 7.195312 441.351562 6.777344 441.230469 6.363281 C 441.109375 5.949219 440.984375 5.527344 440.863281 5.09375 L 440.820312 5.09375 C 440.707031 5.527344 440.585938 5.949219 440.46875 6.363281 C 440.34375 6.777344 440.21875 7.195312 440.082031 7.609375 Z M 440.082031 7.609375 "/>
<path style=" stroke:none;fill-rule:nonzero;fill:rgb(0%,0%,0%);fill-opacity:1;" d="M 447.421875 11.789062 L 447.421875 9.785156 L 444.15625 9.785156 L 444.15625 9.171875 L 447.261719 4.527344 L 448.3125 4.527344 L 448.3125 9.035156 L 449.300781 9.035156 L 449.300781 9.785156 L 448.3125 9.785156 L 448.3125 11.789062 Z M 445.144531 9.035156 L 447.421875 9.035156 L 447.421875 6.929688 C 447.421875 6.730469 447.425781 6.496094 447.4375 6.226562 C 447.449219 5.957031 447.464844 5.722656 447.476562 5.527344 L 447.433594 5.527344 C 447.339844 5.703125 447.246094 5.871094 447.148438 6.039062 C 447.050781 6.203125 446.945312 6.375 446.84375 6.550781 Z M 445.144531 9.035156 "/>
<path style=" stroke:none;fill-rule:nonzero;fill:rgb(0%,0%,0%);fill-opacity:1;" d="M 450.519531 11.789062 L 450.519531 11.015625 L 452.179688 11.015625 L 452.179688 5.664062 L 450.859375 5.664062 L 450.859375 5.0625 C 451.195312 5 451.484375 4.925781 451.730469 4.835938 C 451.976562 4.75 452.199219 4.644531 452.398438 4.523438 L 453.113281 4.523438 L 453.113281 11.015625 L 454.617188 11.015625 L 454.617188 11.789062 Z M 450.519531 11.789062 "/>
<path style=" stroke:none;fill-rule:nonzero;fill:rgb(0%,0%,0%);fill-opacity:1;" d="M 415.730469 92.570312 L 416.015625 90.246094 L 415.105469 90.246094 L 415.105469 89.597656 L 416.09375 89.597656 L 416.296875 87.914062 L 415.328125 87.914062 L 415.328125 87.253906 L 416.378906 87.253906 L 416.640625 85.171875 L 417.242188 85.171875 L 416.980469 87.253906 L 418.496094 87.253906 L 418.769531 85.171875 L 419.371094 85.171875 L 419.097656 87.253906 L 420.019531 87.253906 L 420.019531 87.914062 L 419.03125 87.914062 L 418.828125 89.597656 L 419.792969 89.597656 L 419.792969 90.246094 L 418.746094 90.246094 L 418.460938 92.570312 L 417.855469 92.570312 L 418.128906 90.246094 L 416.628906 90.246094 L 416.339844 92.570312 Z M 416.707031 89.597656 L 418.210938 89.597656 L 418.417969 87.914062 L 416.914062 87.914062 Z M 416.707031 89.597656 "/>
<path style=" stroke:none;fill-rule:nonzero;fill:rgb(0%,0%,0%);fill-opacity:1;" d="M 421.386719 92.570312 L 421.386719 85.101562 L 425.691406 85.101562 L 425.691406 85.898438 L 422.332031 85.898438 L 422.332031 88.242188 L 425.167969 88.242188 L 425.167969 89.050781 L 422.332031 89.050781 L 422.332031 91.761719 L 425.804688 91.761719 L 425.804688 92.570312 Z M 421.386719 92.570312 "/>
<path style=" stroke:none;fill-rule:nonzero;fill:rgb(0%,0%,0%);fill-opacity:1;" d="M 426.816406 92.570312 L 426.816406 92.011719 C 427.367188 91.464844 427.851562 90.972656 428.273438 90.53125 C 428.699219 90.089844 429.058594 89.683594 429.34375 89.308594 C 429.632812 88.933594 429.851562 88.585938 430.003906 88.269531 C 430.160156 87.957031 430.234375 87.648438 430.234375 87.355469 C 430.234375 86.9375 430.121094 86.59375 429.890625 86.332031 C 429.664062 86.066406 429.320312 85.933594 428.855469 85.933594 C 428.550781 85.933594 428.273438 86.019531 428.011719 86.1875 C 427.757812 86.359375 427.519531 86.566406 427.308594 86.808594 L 426.769531 86.273438 C 427.078125 85.941406 427.398438 85.671875 427.738281 85.472656 C 428.082031 85.269531 428.492188 85.167969 428.96875 85.167969 C 429.644531 85.167969 430.175781 85.363281 430.5625 85.753906 C 430.949219 86.144531 431.140625 86.664062 431.140625 87.308594 C 431.140625 87.648438 431.066406 87.996094 430.921875 88.339844 C 430.769531 88.6875 430.566406 89.042969 430.304688 89.410156 C 430.042969 89.777344 429.730469 90.160156 429.371094 90.558594 C 429.011719 90.957031 428.613281 91.382812 428.183594 91.828125 C 428.378906 91.8125 428.582031 91.796875 428.796875 91.78125 C 429.011719 91.769531 429.210938 91.761719 429.398438 91.761719 L 431.507812 91.761719 L 431.507812 92.570312 Z M 426.816406 92.570312 "/>
<path style=" stroke:none;fill-rule:nonzero;fill:rgb(0%,0%,0%);fill-opacity:1;" d="M 434.035156 92.570312 C 434.066406 91.886719 434.125 91.261719 434.214844 90.691406 C 434.308594 90.121094 434.433594 89.582031 434.597656 89.070312 C 434.761719 88.558594 434.96875 88.0625 435.222656 87.582031 C 435.476562 87.105469 435.785156 86.613281 436.140625 86.117188 L 432.519531 86.117188 L 432.519531 85.308594 L 437.195312 85.308594 L 437.195312 85.886719 C 436.765625 86.433594 436.414062 86.957031 436.144531 87.460938 C 435.875 87.960938 435.660156 88.46875 435.503906 88.988281 C 435.34375 89.507812 435.226562 90.058594 435.15625 90.640625 C 435.082031 91.222656 435.03125 91.867188 435 92.570312 Z M 434.035156 92.570312 "/>
<path style=" stroke:none;fill-rule:nonzero;fill:rgb(0%,0%,0%);fill-opacity:1;" d="M 440.511719 92.707031 C 439.777344 92.707031 439.203125 92.382812 438.792969 91.726562 C 438.382812 91.074219 438.179688 90.136719 438.179688 88.914062 C 438.179688 87.695312 438.382812 86.761719 438.792969 86.125 C 439.203125 85.488281 439.777344 85.167969 440.511719 85.167969 C 441.242188 85.167969 441.8125 85.488281 442.222656 86.125 C 442.632812 86.761719 442.835938 87.695312 442.835938 88.914062 C 442.835938 90.136719 442.632812 91.074219 442.222656 91.726562 C 441.8125 92.378906 441.242188 92.707031 440.511719 92.707031 Z M 440.511719 91.957031 C 440.726562 91.957031 440.917969 91.898438 441.089844 91.78125 C 441.257812 91.664062 441.40625 91.480469 441.53125 91.234375 C 441.65625 90.988281 441.753906 90.671875 441.820312 90.289062 C 441.890625 89.90625 441.925781 89.445312 441.925781 88.914062 C 441.925781 88.386719 441.890625 87.929688 441.820312 87.546875 C 441.753906 87.167969 441.65625 86.859375 441.53125 86.621094 C 441.40625 86.382812 441.257812 86.207031 441.089844 86.089844 C 440.917969 85.980469 440.726562 85.921875 440.511719 85.921875 C 440.300781 85.921875 440.105469 85.980469 439.933594 86.089844 C 439.761719 86.207031 439.609375 86.382812 439.484375 86.621094 C 439.359375 86.859375 439.261719 87.167969 439.195312 87.546875 C 439.125 87.929688 439.089844 88.386719 439.089844 88.914062 C 439.089844 89.976562 439.222656 90.75 439.484375 91.234375 C 439.742188 91.714844 440.085938 91.957031 440.511719 91.957031 Z M 440.511719 91.957031 "/>
<path style=" stroke:none;fill-rule:nonzero;fill:rgb(0%,0%,0%);fill-opacity:1;" d="M 443.789062 92.570312 L 443.789062 92.011719 C 444.335938 91.464844 444.824219 90.972656 445.246094 90.53125 C 445.671875 90.09375 446.027344 89.683594 446.316406 89.308594 C 446.605469 88.933594 446.824219 88.585938 446.976562 88.269531 C 447.128906 87.957031 447.203125 87.648438 447.203125 87.355469 C 447.203125 86.9375 447.09375 86.59375 446.863281 86.332031 C 446.632812 86.066406 446.289062 85.933594 445.828125 85.933594 C 445.523438 85.933594 445.242188 86.019531 444.984375 86.1875 C 444.726562 86.359375 444.488281 86.566406 444.277344 86.808594 L 443.742188 86.273438 C 444.046875 85.941406 444.367188 85.671875 444.710938 85.472656 C 445.050781 85.269531 445.460938 85.167969 445.941406 85.167969 C 446.613281 85.167969 447.148438 85.363281 447.535156 85.753906 C 447.917969 86.144531 448.113281 86.664062 448.113281 87.308594 C 448.113281 87.648438 448.039062 87.996094 447.890625 88.339844 C 447.742188 88.6875 447.535156 89.042969 447.277344 89.410156 C 447.015625 89.777344 446.703125 90.160156 446.34375 90.558594 C 445.984375 90.957031 445.585938 91.382812 445.152344 91.828125 C 445.351562 91.8125 445.554688 91.796875 445.769531 91.78125 C 445.980469 91.769531 446.183594 91.761719 446.371094 91.761719 L 448.476562 91.761719 L 448.476562 92.570312 Z M 443.789062 92.570312 "/>
<path style=" stroke:none;fill-rule:nonzero;fill:rgb(0%,0%,0%);fill-opacity:1;" d="M 449.449219 92.570312 L 449.449219 92.011719 C 449.996094 91.464844 450.480469 90.972656 450.90625 90.53125 C 451.332031 90.089844 451.6875 89.683594 451.976562 89.308594 C 452.265625 88.933594 452.484375 88.585938 452.636719 88.269531 C 452.789062 87.957031 452.867188 87.648438 452.867188 87.355469 C 452.867188 86.9375 452.753906 86.59375 452.523438 86.332031 C 452.296875 86.066406 451.949219 85.933594 451.488281 85.933594 C 451.183594 85.933594 450.902344 86.019531 450.644531 86.1875 C 450.386719 86.359375 450.148438 86.566406 449.9375 86.808594 L 449.402344 86.273438 C 449.707031 85.941406 450.03125 85.671875 450.371094 85.472656 C 450.714844 85.269531 451.121094 85.167969 451.601562 85.167969 C 452.277344 85.167969 452.808594 85.363281 453.195312 85.753906 C 453.578125 86.144531 453.773438 86.664062 453.773438 87.308594 C 453.773438 87.648438 453.699219 87.996094 453.550781 88.339844 C 453.402344 88.6875 453.199219 89.042969 452.9375 89.410156 C 452.675781 89.777344 452.363281 90.160156 452.003906 90.558594 C 451.644531 90.957031 451.246094 91.382812 450.816406 91.828125 C 451.011719 91.8125 451.214844 91.796875 451.429688 91.78125 C 451.640625 91.769531 451.84375 91.761719 452.03125 91.761719 L 454.136719 91.761719 L 454.136719 92.570312 Z M 449.449219 92.570312 "/>
<path style=" stroke:none;fill-rule:nonzero;fill:rgb(0%,0%,0%);fill-opacity:1;" d="M 578.359375 11.789062 L 578.644531 9.46875 L 577.734375 9.46875 L 577.734375 8.816406 L 578.722656 8.816406 L 578.929688 7.132812 L 577.960938 7.132812 L 577.960938 6.472656 L 579.007812 6.472656 L 579.269531 4.390625 L 579.871094 4.390625 L 579.609375 6.472656 L 581.125 6.472656 L 581.398438 4.390625 L 582 4.390625 L 581.726562 6.472656 L 582.652344 6.472656 L 582.652344 7.132812 L 581.660156 7.132812 L 581.457031 8.816406 L 582.425781 8.816406 L 582.425781 9.46875 L 581.375 9.46875 L 581.089844 11.789062 L 580.488281 11.789062 L 580.761719 9.46875 L 579.257812 9.46875 L 578.972656 11.789062 Z M 579.339844 8.816406 L 580.84375 8.816406 L 581.046875 7.132812 L 579.542969 7.132812 Z M 579.339844 8.816406 "/>
<path style=" stroke:none;fill-rule:nonzero;fill:rgb(0%,0%,0%);fill-opacity:1;" d="M 583.027344 11.789062 L 585.554688 4.320312 L 586.625 4.320312 L 589.152344 11.789062 L 588.140625 11.789062 L 587.433594 9.511719 L 584.710938 9.511719 L 583.996094 11.789062 Z M 585.304688 7.609375 L 584.953125 8.75 L 587.195312 8.75 L 586.839844 7.609375 C 586.703125 7.195312 586.578125 6.777344 586.453125 6.363281 C 586.332031 5.949219 586.210938 5.527344 586.089844 5.09375 L 586.042969 5.09375 C 585.933594 5.527344 585.8125 5.949219 585.691406 6.363281 C 585.570312 6.777344 585.441406 7.195312 585.304688 7.609375 Z M 585.304688 7.609375 "/>
<path style=" stroke:none;fill-rule:nonzero;fill:rgb(0%,0%,0%);fill-opacity:1;" d="M 591.851562 11.925781 C 591.5625 11.925781 591.296875 11.898438 591.058594 11.839844 C 590.820312 11.785156 590.605469 11.710938 590.410156 11.617188 C 590.21875 11.527344 590.042969 11.425781 589.886719 11.304688 C 589.730469 11.1875 589.59375 11.066406 589.472656 10.933594 L 589.929688 10.320312 C 590.140625 10.539062 590.390625 10.734375 590.683594 10.898438 C 590.976562 11.066406 591.335938 11.152344 591.761719 11.152344 C 591.980469 11.152344 592.1875 11.113281 592.378906 11.03125 C 592.574219 10.949219 592.742188 10.839844 592.886719 10.695312 C 593.03125 10.550781 593.148438 10.375 593.230469 10.171875 C 593.3125 9.964844 593.355469 9.738281 593.355469 9.488281 C 593.355469 8.988281 593.214844 8.597656 592.933594 8.316406 C 592.652344 8.035156 592.277344 7.894531 591.804688 7.894531 C 591.554688 7.894531 591.34375 7.929688 591.164062 8.007812 C 590.984375 8.082031 590.785156 8.191406 590.566406 8.335938 L 590.066406 8.019531 L 590.300781 4.523438 L 593.933594 4.523438 L 593.933594 5.332031 L 591.121094 5.332031 L 590.925781 7.484375 C 591.101562 7.390625 591.277344 7.320312 591.449219 7.265625 C 591.625 7.214844 591.824219 7.1875 592.039062 7.1875 C 592.351562 7.1875 592.644531 7.230469 592.917969 7.324219 C 593.191406 7.414062 593.429688 7.554688 593.632812 7.738281 C 593.839844 7.925781 594 8.160156 594.117188 8.445312 C 594.234375 8.730469 594.292969 9.070312 594.292969 9.464844 C 594.292969 9.859375 594.226562 10.207031 594.089844 10.511719 C 593.953125 10.816406 593.769531 11.074219 593.542969 11.28125 C 593.316406 11.492188 593.054688 11.652344 592.765625 11.761719 C 592.472656 11.871094 592.171875 11.925781 591.851562 11.925781 Z M 591.851562 11.925781 "/>
<path style=" stroke:none;fill-rule:nonzero;fill:rgb(0%,0%,0%);fill-opacity:1;" d="M 596.859375 11.789062 C 596.890625 11.105469 596.949219 10.480469 597.039062 9.910156 C 597.132812 9.34375 597.257812 8.800781 597.421875 8.289062 C 597.585938 7.777344 597.792969 7.28125 598.046875 6.800781 C 598.300781 6.324219 598.609375 5.835938 598.960938 5.335938 L 595.34375 5.335938 L 595.34375 4.523438 L 600.019531 4.523438 L 600.019531 5.105469 C 599.585938 5.652344 599.238281 6.175781 598.96875 6.675781 C 598.699219 7.179688 598.484375 7.6875 598.324219 8.207031 C 598.164062 8.726562 598.050781 9.277344 597.976562 9.859375 C 597.90625 10.441406 597.851562 11.085938 597.824219 11.789062 Z M 596.859375 11.789062 "/>
<path style=" stroke:none;fill-rule:nonzero;fill:rgb(0%,0%,0%);fill-opacity:1;" d="M 602.835938 11.925781 C 602.449219 11.925781 602.109375 11.855469 601.816406 11.710938 C 601.523438 11.566406 601.28125 11.382812 601.082031 11.164062 L 601.605469 10.570312 C 601.757812 10.746094 601.9375 10.886719 602.144531 10.992188 C 602.355469 11.097656 602.574219 11.152344 602.800781 11.152344 C 603.058594 11.152344 603.300781 11.101562 603.527344 10.992188 C 603.757812 10.886719 603.957031 10.710938 604.128906 10.464844 C 604.304688 10.21875 604.445312 9.898438 604.554688 9.5 C 604.65625 9.109375 604.714844 8.617188 604.722656 8.035156 C 604.496094 8.320312 604.226562 8.550781 603.925781 8.71875 C 603.621094 8.886719 603.320312 8.964844 603.015625 8.964844 C 602.386719 8.964844 601.882812 8.78125 601.511719 8.410156 C 601.140625 8.035156 600.953125 7.472656 600.953125 6.722656 C 600.953125 6.375 601.007812 6.058594 601.125 5.773438 C 601.238281 5.488281 601.390625 5.242188 601.582031 5.039062 C 601.777344 4.832031 602.007812 4.671875 602.265625 4.558594 C 602.53125 4.449219 602.804688 4.390625 603.09375 4.390625 C 603.449219 4.390625 603.78125 4.460938 604.089844 4.605469 C 604.394531 4.75 604.664062 4.96875 604.886719 5.261719 C 605.109375 5.554688 605.285156 5.917969 605.410156 6.355469 C 605.535156 6.792969 605.597656 7.300781 605.597656 7.882812 C 605.597656 8.613281 605.519531 9.234375 605.367188 9.746094 C 605.214844 10.257812 605.011719 10.675781 604.753906 11 C 604.496094 11.324219 604.199219 11.558594 603.871094 11.707031 C 603.546875 11.851562 603.199219 11.925781 602.835938 11.925781 Z M 603.175781 8.261719 C 603.417969 8.261719 603.675781 8.183594 603.945312 8.03125 C 604.214844 7.878906 604.46875 7.632812 604.703125 7.292969 C 604.640625 6.578125 604.476562 6.039062 604.203125 5.675781 C 603.929688 5.308594 603.558594 5.128906 603.097656 5.128906 C 602.921875 5.128906 602.757812 5.167969 602.601562 5.242188 C 602.445312 5.316406 602.3125 5.425781 602.195312 5.566406 C 602.082031 5.707031 601.992188 5.875 601.929688 6.074219 C 601.863281 6.269531 601.832031 6.488281 601.832031 6.722656 C 601.832031 7.199219 601.941406 7.574219 602.160156 7.847656 C 602.382812 8.125 602.722656 8.261719 603.175781 8.261719 Z M 603.175781 8.261719 "/>
<path style=" stroke:none;fill-rule:nonzero;fill:rgb(0%,0%,0%);fill-opacity:1;" d="M 608.84375 11.925781 C 608.554688 11.925781 608.292969 11.898438 608.054688 11.839844 C 607.816406 11.785156 607.597656 11.707031 607.402344 11.613281 C 607.203125 11.515625 607.027344 11.410156 606.871094 11.289062 C 606.714844 11.167969 606.578125 11.039062 606.457031 10.902344 L 606.933594 10.285156 C 607.152344 10.515625 607.410156 10.714844 607.703125 10.890625 C 607.996094 11.066406 608.355469 11.152344 608.789062 11.152344 C 609.230469 11.152344 609.589844 11.03125 609.871094 10.792969 C 610.152344 10.554688 610.292969 10.226562 610.292969 9.820312 C 610.292969 9.605469 610.253906 9.410156 610.171875 9.234375 C 610.09375 9.054688 609.960938 8.902344 609.78125 8.769531 C 609.601562 8.640625 609.359375 8.542969 609.066406 8.476562 C 608.769531 8.40625 608.40625 8.375 607.972656 8.375 L 607.972656 7.65625 C 608.359375 7.65625 608.683594 7.621094 608.945312 7.554688 C 609.207031 7.484375 609.421875 7.390625 609.582031 7.269531 C 609.746094 7.148438 609.863281 7.003906 609.929688 6.835938 C 610 6.667969 610.035156 6.492188 610.035156 6.300781 C 610.035156 5.945312 609.921875 5.664062 609.695312 5.460938 C 609.472656 5.253906 609.167969 5.152344 608.78125 5.152344 C 608.476562 5.152344 608.199219 5.21875 607.945312 5.355469 C 607.6875 5.492188 607.453125 5.671875 607.230469 5.890625 L 606.730469 5.300781 C 607.011719 5.035156 607.320312 4.816406 607.65625 4.644531 C 607.996094 4.476562 608.378906 4.390625 608.8125 4.390625 C 609.132812 4.390625 609.425781 4.429688 609.6875 4.515625 C 609.957031 4.597656 610.183594 4.71875 610.378906 4.875 C 610.570312 5.03125 610.722656 5.222656 610.828125 5.449219 C 610.933594 5.679688 610.988281 5.941406 610.988281 6.234375 C 610.988281 6.675781 610.867188 7.035156 610.621094 7.316406 C 610.382812 7.597656 610.058594 7.816406 609.667969 7.964844 L 609.667969 8.007812 C 609.886719 8.0625 610.09375 8.140625 610.28125 8.242188 C 610.46875 8.347656 610.640625 8.476562 610.78125 8.632812 C 610.929688 8.789062 611.039062 8.964844 611.117188 9.171875 C 611.199219 9.375 611.238281 9.605469 611.238281 9.855469 C 611.238281 10.171875 611.175781 10.460938 611.050781 10.71875 C 610.925781 10.976562 610.753906 11.195312 610.539062 11.375 C 610.320312 11.550781 610.070312 11.6875 609.78125 11.785156 C 609.492188 11.878906 609.179688 11.925781 608.84375 11.925781 Z M 608.84375 11.925781 "/>
<path style=" stroke:none;fill-rule:nonzero;fill:rgb(0%,0%,0%);fill-opacity:1;" d="M 614.148438 11.925781 C 613.761719 11.925781 613.425781 11.855469 613.132812 11.710938 C 612.839844 11.566406 612.59375 11.382812 612.398438 11.164062 L 612.921875 10.570312 C 613.074219 10.746094 613.253906 10.886719 613.460938 10.992188 C 613.671875 11.101562 613.890625 11.152344 614.117188 11.152344 C 614.375 11.152344 614.617188 11.101562 614.84375 10.992188 C 615.070312 10.886719 615.273438 10.710938 615.449219 10.464844 C 615.621094 10.21875 615.761719 9.898438 615.867188 9.5 C 615.976562 9.109375 616.035156 8.617188 616.039062 8.035156 C 615.808594 8.320312 615.546875 8.550781 615.242188 8.71875 C 614.9375 8.886719 614.632812 8.964844 614.332031 8.964844 C 613.699219 8.964844 613.199219 8.78125 612.828125 8.410156 C 612.457031 8.035156 612.269531 7.472656 612.269531 6.722656 C 612.269531 6.375 612.328125 6.058594 612.4375 5.773438 C 612.554688 5.488281 612.707031 5.242188 612.902344 5.039062 C 613.09375 4.832031 613.320312 4.671875 613.585938 4.558594 C 613.84375 4.449219 614.121094 4.390625 614.410156 4.390625 C 614.765625 4.390625 615.097656 4.460938 615.402344 4.605469 C 615.710938 4.75 615.980469 4.96875 616.199219 5.261719 C 616.425781 5.554688 616.597656 5.917969 616.722656 6.355469 C 616.851562 6.792969 616.910156 7.300781 616.910156 7.882812 C 616.910156 8.613281 616.835938 9.234375 616.683594 9.746094 C 616.53125 10.257812 616.324219 10.675781 616.070312 11 C 615.8125 11.324219 615.515625 11.558594 615.1875 11.707031 C 614.855469 11.855469 614.515625 11.925781 614.148438 11.925781 Z M 614.492188 8.261719 C 614.734375 8.261719 614.992188 8.183594 615.261719 8.03125 C 615.53125 7.878906 615.78125 7.632812 616.019531 7.292969 C 615.957031 6.578125 615.789062 6.039062 615.515625 5.675781 C 615.242188 5.308594 614.875 5.128906 614.414062 5.128906 C 614.238281 5.128906 614.074219 5.167969 613.917969 5.242188 C 613.761719 5.316406 613.625 5.425781 613.511719 5.566406 C 613.398438 5.707031 613.308594 5.875 613.246094 6.074219 C 613.179688 6.269531 613.148438 6.488281 613.148438 6.722656 C 613.148438 7.199219 613.257812 7.574219 613.476562 7.847656 C 613.699219 8.125 614.039062 8.261719 614.492188 8.261719 Z M 614.492188 8.261719 "/>
<path style=" stroke:none;fill-rule:nonzero;fill:rgb(0%,0%,0%);fill-opacity:1;" d="M 578.359375 92.570312 L 578.644531 90.246094 L 577.734375 90.246094 L 577.734375 89.597656 L 578.722656 89.597656 L 578.929688 87.914062 L 577.960938 87.914062 L 577.960938 87.253906 L 579.007812 87.253906 L 579.269531 85.171875 L 579.871094 85.171875 L 579.609375 87.253906 L 581.125 87.253906 L 581.398438 85.171875 L 582 85.171875 L 581.726562 87.253906 L 582.652344 87.253906 L 582.652344 87.914062 L 581.660156 87.914062 L 581.457031 89.597656 L 582.425781 89.597656 L 582.425781 90.246094 L 581.375 90.246094 L 581.089844 92.570312 L 580.488281 92.570312 L 580.761719 90.246094 L 579.257812 90.246094 L 578.972656 92.570312 Z M 579.339844 89.597656 L 580.84375 89.597656 L 581.046875 87.914062 L 579.542969 87.914062 Z M 579.339844 89.597656 "/>
<path style=" stroke:none;fill-rule:nonzero;fill:rgb(0%,0%,0%);fill-opacity:1;" d="M 586.042969 92.707031 C 585.6875 92.707031 585.355469 92.636719 585.054688 92.492188 C 584.75 92.347656 584.488281 92.128906 584.265625 91.835938 C 584.039062 91.546875 583.863281 91.179688 583.734375 90.742188 C 583.605469 90.304688 583.542969 89.796875 583.542969 89.210938 C 583.542969 88.484375 583.617188 87.863281 583.769531 87.347656 C 583.921875 86.839844 584.128906 86.417969 584.382812 86.097656 C 584.644531 85.773438 584.9375 85.539062 585.265625 85.390625 C 585.597656 85.242188 585.945312 85.167969 586.308594 85.167969 C 586.703125 85.167969 587.042969 85.242188 587.328125 85.390625 C 587.613281 85.539062 587.855469 85.722656 588.0625 85.941406 L 587.539062 86.523438 C 587.386719 86.347656 587.207031 86.210938 587 86.105469 C 586.789062 86.003906 586.570312 85.953125 586.34375 85.953125 C 586.09375 85.953125 585.855469 86.003906 585.628906 86.113281 C 585.398438 86.21875 585.199219 86.394531 585.023438 86.632812 C 584.851562 86.878906 584.710938 87.195312 584.601562 87.585938 C 584.496094 87.976562 584.4375 88.460938 584.433594 89.039062 C 584.660156 88.757812 584.925781 88.535156 585.230469 88.375 C 585.535156 88.210938 585.832031 88.128906 586.128906 88.128906 C 586.761719 88.128906 587.261719 88.316406 587.636719 88.6875 C 588.015625 89.058594 588.203125 89.621094 588.203125 90.371094 C 588.203125 90.722656 588.144531 91.039062 588.03125 91.324219 C 587.917969 91.605469 587.761719 91.851562 587.566406 92.054688 C 587.367188 92.261719 587.140625 92.421875 586.882812 92.535156 C 586.617188 92.648438 586.34375 92.707031 586.042969 92.707031 Z M 586.042969 91.96875 C 586.226562 91.96875 586.394531 91.929688 586.546875 91.851562 C 586.699219 91.777344 586.832031 91.671875 586.945312 91.527344 C 587.058594 91.390625 587.148438 91.222656 587.210938 91.027344 C 587.277344 90.835938 587.308594 90.617188 587.308594 90.375 C 587.308594 89.894531 587.199219 89.519531 586.980469 89.246094 C 586.757812 88.972656 586.421875 88.835938 585.964844 88.835938 C 585.730469 88.835938 585.476562 88.910156 585.203125 89.058594 C 584.929688 89.207031 584.679688 89.453125 584.453125 89.792969 C 584.511719 90.507812 584.679688 91.046875 584.949219 91.414062 C 585.214844 91.78125 585.582031 91.96875 586.042969 91.96875 Z M 586.042969 91.96875 "/>
<path style=" stroke:none;fill-rule:nonzero;fill:rgb(0%,0%,0%);fill-opacity:1;" d="M 588.6875 92.570312 L 591.214844 85.101562 L 592.28125 85.101562 L 594.808594 92.570312 L 593.796875 92.570312 L 593.089844 90.292969 L 590.371094 90.292969 L 589.65625 92.570312 Z M 590.960938 88.390625 L 590.609375 89.53125 L 592.851562 89.53125 L 592.5 88.390625 C 592.363281 87.976562 592.234375 87.558594 592.113281 87.144531 C 591.988281 86.730469 591.867188 86.308594 591.746094 85.875 L 591.703125 85.875 C 591.589844 86.308594 591.46875 86.730469 591.347656 87.144531 C 591.226562 87.558594 591.097656 87.976562 590.960938 88.390625 Z M 590.960938 88.390625 "/>
<path style=" stroke:none;fill-rule:nonzero;fill:rgb(0%,0%,0%);fill-opacity:1;" d="M 598.304688 92.570312 L 598.304688 90.566406 L 595.039062 90.566406 L 595.039062 89.953125 L 598.144531 85.308594 L 599.191406 85.308594 L 599.191406 89.816406 L 600.183594 89.816406 L 600.183594 90.566406 L 599.191406 90.566406 L 599.191406 92.570312 Z M 596.027344 89.816406 L 598.304688 89.816406 L 598.304688 87.707031 C 598.304688 87.511719 598.308594 87.277344 598.324219 87.007812 C 598.332031 86.738281 598.347656 86.503906 598.359375 86.308594 L 598.316406 86.308594 C 598.222656 86.480469 598.128906 86.652344 598.03125 86.820312 C 597.929688 86.984375 597.832031 87.15625 597.722656 87.332031 Z M 596.027344 89.816406 "/>
<path style=" stroke:none;fill-rule:nonzero;fill:rgb(0%,0%,0%);fill-opacity:1;" d="M 603.554688 92.707031 C 603.195312 92.707031 602.863281 92.636719 602.5625 92.492188 C 602.257812 92.347656 601.996094 92.128906 601.773438 91.835938 C 601.550781 91.546875 601.371094 91.179688 601.242188 90.742188 C 601.113281 90.304688 601.050781 89.796875 601.050781 89.210938 C 601.050781 88.484375 601.125 87.863281 601.28125 87.347656 C 601.429688 86.839844 601.636719 86.417969 601.894531 86.097656 C 602.152344 85.773438 602.445312 85.539062 602.777344 85.390625 C 603.105469 85.242188 603.453125 85.167969 603.816406 85.167969 C 604.210938 85.167969 604.550781 85.242188 604.839844 85.390625 C 605.121094 85.539062 605.363281 85.722656 605.570312 85.941406 L 605.046875 86.523438 C 604.894531 86.347656 604.714844 86.210938 604.507812 86.105469 C 604.296875 86.003906 604.078125 85.953125 603.855469 85.953125 C 603.605469 85.953125 603.363281 86.003906 603.136719 86.113281 C 602.90625 86.21875 602.707031 86.394531 602.535156 86.632812 C 602.359375 86.878906 602.21875 87.195312 602.109375 87.585938 C 602.007812 87.976562 601.949219 88.460938 601.941406 89.039062 C 602.167969 88.757812 602.4375 88.535156 602.738281 88.375 C 603.042969 88.210938 603.339844 88.128906 603.636719 88.128906 C 604.269531 88.128906 604.769531 88.316406 605.148438 88.6875 C 605.523438 89.058594 605.710938 89.621094 605.710938 90.371094 C 605.710938 90.722656 605.652344 91.039062 605.539062 91.324219 C 605.425781 91.605469 605.269531 91.851562 605.074219 92.054688 C 604.875 92.261719 604.648438 92.421875 604.390625 92.535156 C 604.125 92.648438 603.847656 92.707031 603.554688 92.707031 Z M 603.554688 91.96875 C 603.734375 91.96875 603.902344 91.929688 604.054688 91.851562 C 604.207031 91.777344 604.339844 91.671875 604.453125 91.527344 C 604.566406 91.390625 604.65625 91.222656 604.722656 91.027344 C 604.785156 90.835938 604.816406 90.617188 604.816406 90.375 C 604.816406 89.894531 604.710938 89.519531 604.488281 89.246094 C 604.265625 88.972656 603.929688 88.835938 603.476562 88.835938 C 603.238281 88.835938 602.984375 88.910156 602.710938 89.058594 C 602.4375 89.207031 602.1875 89.453125 601.960938 89.792969 C 602.019531 90.507812 602.1875 91.046875 602.457031 91.414062 C 602.722656 91.78125 603.089844 91.96875 603.554688 91.96875 Z M 603.554688 91.96875 "/>
<path style=" stroke:none;fill-rule:nonzero;fill:rgb(0%,0%,0%);fill-opacity:1;" d="M 606.613281 92.570312 L 606.613281 92.011719 C 607.160156 91.464844 607.648438 90.972656 608.070312 90.53125 C 608.496094 90.089844 608.851562 89.683594 609.140625 89.308594 C 609.429688 88.933594 609.648438 88.585938 609.800781 88.269531 C 609.953125 87.957031 610.03125 87.648438 610.03125 87.355469 C 610.03125 86.9375 609.917969 86.59375 609.6875 86.332031 C 609.460938 86.066406 609.113281 85.933594 608.652344 85.933594 C 608.347656 85.933594 608.066406 86.019531 607.808594 86.1875 C 607.550781 86.359375 607.316406 86.566406 607.101562 86.808594 L 606.566406 86.273438 C 606.871094 85.941406 607.195312 85.671875 607.535156 85.472656 C 607.878906 85.269531 608.289062 85.167969 608.765625 85.167969 C 609.441406 85.167969 609.972656 85.363281 610.359375 85.753906 C 610.746094 86.144531 610.9375 86.664062 610.9375 87.308594 C 610.9375 87.648438 610.863281 87.996094 610.71875 88.339844 C 610.566406 88.6875 610.363281 89.042969 610.101562 89.410156 C 609.839844 89.777344 609.527344 90.160156 609.167969 90.558594 C 608.808594 90.957031 608.410156 91.382812 607.980469 91.828125 C 608.175781 91.8125 608.378906 91.796875 608.59375 91.78125 C 608.804688 91.769531 609.007812 91.761719 609.195312 91.761719 L 611.300781 91.761719 L 611.300781 92.570312 Z M 606.613281 92.570312 "/>
<path style=" stroke:none;fill-rule:nonzero;fill:rgb(0%,0%,0%);fill-opacity:1;" d="M 612.839844 92.570312 L 612.839844 85.101562 L 617.144531 85.101562 L 617.144531 85.898438 L 613.785156 85.898438 L 613.785156 88.425781 L 616.632812 88.425781 L 616.632812 89.222656 L 613.785156 89.222656 L 613.785156 92.570312 Z M 612.839844 92.570312 "/>
</g>
</svg>
