<?xml version="1.0" encoding="utf-8"?>
<!-- Generator: Adobe Illustrator 16.0.0, SVG Export Plug-In . SVG Version: 6.00 Build 0)  -->
<!DOCTYPE svg PUBLIC "-//W3C//DTD SVG 1.1//EN" "http://www.w3.org/Graphics/SVG/1.1/DTD/svg11.dtd">
<svg version="1.1" id="Ebene_1" xmlns="http://www.w3.org/2000/svg" xmlns:xlink="http://www.w3.org/1999/xlink" x="0px" y="0px"
	 width="30px" height="30px" viewBox="0 0 30 30" enable-background="new 0 0 30 30" xml:space="preserve">
<path fill="#92D3F5" stroke="#000000" stroke-width="1.5" stroke-linecap="round" stroke-linejoin="round" stroke-miterlimit="10" d="
	M22.875,6H7.125C6.506,6,6,6.506,6,7.125v15.751c0,0.619,0.506,1.125,1.125,1.125h8.438v-7.032h-2.25v-2.812h2.25v-1.688
	c0-4.781,4.5-3.656,5.625-3.656v2.531c0,0-1.406,0-1.688,0s-1.125,0-1.125,1.125v1.688h2.812l-0.281,2.812h-2.531v7.032h4.5
	c0.619,0,1.125-0.506,1.125-1.125V7.125C24,6.506,23.494,6,22.875,6z"/>
</svg>
