<?xml version="1.0" encoding="utf-8"?>
<!-- Generator: Adobe Illustrator 16.0.4, SVG Export Plug-In . SVG Version: 6.00 Build 0)  -->
<!DOCTYPE svg PUBLIC "-//W3C//DTD SVG 1.1//EN" "http://www.w3.org/Graphics/SVG/1.1/DTD/svg11.dtd">
<svg version="1.1" id="Ebene_1" xmlns="http://www.w3.org/2000/svg" xmlns:xlink="http://www.w3.org/1999/xlink" x="0px" y="0px"
	 width="258px" height="152px" viewBox="0 0 258 152" enable-background="new 0 0 258 152" xml:space="preserve">
<g>
	<rect x="116.8" y="27.7" fill="#E27022" width="11.6" height="1"/>
</g>
<g>
	<polygon fill="#E27022" points="127.1,30.4 126.4,29.7 127.9,28.2 126.4,26.8 127.1,26.1 129.3,28.2 	"/>
</g>
<g>
	<rect x="117.8" y="101.5" fill="#E27022" width="11.6" height="1"/>
</g>
<g>
	<polygon fill="#E27022" points="128.1,104.1 127.4,103.4 128.9,102 127.4,100.5 128.1,99.8 130.3,102 	"/>
</g>
<g enable-background="new    ">
	<path d="M49.677,149.008v-4.592h2.646v0.49h-2.065v1.441h1.743v0.497h-1.743v1.666h2.135v0.497H49.677z"/>
	<path d="M53.31,149.008v-3.402h0.476l0.049,0.49h0.021c0.149-0.163,0.312-0.3,0.486-0.409c0.175-0.109,0.365-0.165,0.57-0.165
		c0.262,0,0.466,0.058,0.613,0.172s0.255,0.274,0.326,0.479c0.177-0.196,0.355-0.354,0.535-0.473s0.375-0.179,0.584-0.179
		c0.35,0,0.61,0.112,0.781,0.336c0.17,0.225,0.255,0.556,0.255,0.994v2.156h-0.574v-2.079c0-0.322-0.051-0.554-0.154-0.696
		s-0.261-0.214-0.476-0.214c-0.257,0-0.542,0.175-0.854,0.525v2.464h-0.574v-2.079c0-0.322-0.052-0.554-0.154-0.696
		s-0.264-0.214-0.483-0.214c-0.257,0-0.542,0.175-0.854,0.525v2.464H53.31z"/>
	<path d="M60.436,149.092c-0.21,0-0.41-0.04-0.599-0.119s-0.356-0.194-0.5-0.347c-0.145-0.151-0.26-0.338-0.346-0.56
		c-0.086-0.222-0.13-0.473-0.13-0.753c0-0.284,0.043-0.537,0.13-0.759c0.086-0.222,0.202-0.41,0.346-0.563
		c0.145-0.154,0.312-0.271,0.5-0.351c0.189-0.079,0.389-0.119,0.599-0.119s0.41,0.04,0.599,0.119c0.189,0.08,0.355,0.196,0.5,0.351
		c0.145,0.153,0.26,0.342,0.346,0.563s0.13,0.475,0.13,0.759c0,0.28-0.043,0.531-0.13,0.753s-0.202,0.408-0.346,0.56
		c-0.145,0.152-0.312,0.268-0.5,0.347S60.646,149.092,60.436,149.092z M60.436,148.616c0.145,0,0.278-0.032,0.399-0.095
		c0.122-0.063,0.225-0.151,0.312-0.267c0.086-0.114,0.153-0.25,0.2-0.409c0.046-0.158,0.07-0.336,0.07-0.532
		c0-0.195-0.023-0.374-0.07-0.535c-0.047-0.161-0.113-0.3-0.2-0.417c-0.086-0.116-0.19-0.206-0.312-0.269
		c-0.121-0.063-0.254-0.095-0.399-0.095s-0.278,0.031-0.399,0.095c-0.122,0.062-0.225,0.152-0.312,0.269
		c-0.086,0.117-0.153,0.256-0.2,0.417c-0.046,0.161-0.07,0.34-0.07,0.535c0,0.196,0.023,0.374,0.07,0.532
		c0.047,0.159,0.113,0.295,0.2,0.409c0.086,0.115,0.19,0.203,0.312,0.267C60.158,148.584,60.291,148.616,60.436,148.616z"/>
	<path d="M62.557,150.526c-0.107,0-0.203-0.009-0.287-0.027s-0.156-0.04-0.217-0.063l0.119-0.434
		c0.042,0.014,0.091,0.026,0.147,0.038c0.056,0.012,0.114,0.018,0.175,0.018c0.168,0,0.28-0.059,0.336-0.175
		c0.056-0.117,0.084-0.28,0.084-0.49v-3.787h0.574v3.787c0,0.346-0.07,0.621-0.21,0.826
		C63.138,150.424,62.897,150.526,62.557,150.526z M63.208,144.906c-0.112,0-0.207-0.035-0.284-0.105
		c-0.077-0.07-0.115-0.158-0.115-0.266c0-0.112,0.039-0.202,0.115-0.27c0.077-0.068,0.172-0.102,0.284-0.102
		c0.107,0,0.2,0.033,0.276,0.102c0.077,0.067,0.116,0.157,0.116,0.27c0,0.107-0.039,0.195-0.116,0.266
		C63.407,144.871,63.315,144.906,63.208,144.906z"/>
	<path d="M64.93,144.906c-0.112,0-0.207-0.035-0.284-0.105s-0.115-0.158-0.115-0.266c0-0.112,0.038-0.202,0.115-0.27
		c0.077-0.068,0.171-0.102,0.284-0.102c0.112,0,0.207,0.033,0.283,0.102c0.077,0.067,0.116,0.157,0.116,0.27
		c0,0.107-0.039,0.195-0.116,0.266C65.136,144.871,65.042,144.906,64.93,144.906z M64.636,149.008v-3.402h0.574v3.402H64.636z"/>
</g>
<g enable-background="new    ">
	<path d="M187.309,149.092c-0.234,0-0.452-0.034-0.655-0.102s-0.378-0.18-0.524-0.336c-0.147-0.156-0.264-0.36-0.348-0.612
		s-0.125-0.562-0.125-0.932v-2.694h0.58v2.709c0,0.275,0.028,0.506,0.084,0.692c0.057,0.188,0.133,0.337,0.229,0.448
		c0.096,0.112,0.209,0.192,0.339,0.241c0.131,0.05,0.271,0.074,0.421,0.074c0.153,0,0.295-0.024,0.426-0.074
		c0.131-0.049,0.246-0.129,0.344-0.241c0.098-0.111,0.175-0.261,0.23-0.448c0.057-0.187,0.084-0.417,0.084-0.692v-2.709h0.561v2.694
		c0,0.369-0.043,0.68-0.127,0.932s-0.199,0.456-0.346,0.612s-0.32,0.269-0.521,0.336S187.541,149.092,187.309,149.092z"/>
	<path d="M190.191,149.008v-4.592h0.582v4.592H190.191z"/>
</g>
<g>
	<path fill="none" stroke="#010103" stroke-width="2" stroke-linecap="round" stroke-linejoin="round" stroke-miterlimit="10" d="
		M87.4,42.6"/>
</g>
<g>
	<path fill="none" stroke="#010103" stroke-width="2" stroke-linecap="round" stroke-linejoin="round" stroke-miterlimit="10" d="
		M153.5,42.4"/>
</g>
<g id="_x27A1__xFE0F__2_">
	<polygon fill="#3F3F3F" points="66.1,119.2 83.9,102.7 66.1,86.2 62.3,90.3 72.7,99.9 21.9,99.9 21.9,105.5 72.7,105.5 62.3,115.1 
			"/>
	<path fill="#1D1D1B" d="M66.1,120.2c-0.013,0-0.025,0-0.038-0.001c-0.265-0.01-0.515-0.125-0.695-0.319l-3.8-4.101
		c-0.181-0.194-0.276-0.453-0.266-0.719c0.01-0.266,0.125-0.516,0.321-0.695l8.521-7.865H21.9c-0.552,0-1-0.447-1-1v-5.6
		c0-0.553,0.448-1,1-1h48.243l-8.521-7.866c-0.195-0.18-0.311-0.43-0.321-0.695c-0.011-0.266,0.085-0.524,0.266-0.719l3.8-4.1
		c0.376-0.406,1.009-0.429,1.413-0.054l17.8,16.5c0.204,0.189,0.32,0.455,0.32,0.733s-0.116,0.544-0.32,0.733l-17.8,16.5
		C66.595,120.105,66.352,120.2,66.1,120.2z M63.714,115.155l2.439,2.632L82.429,102.7L66.154,87.613l-2.439,2.632l9.664,8.921
		c0.303,0.279,0.403,0.715,0.253,1.099s-0.52,0.636-0.931,0.636H22.9v3.6h49.8c0.412,0,0.781,0.252,0.931,0.636
		s0.05,0.819-0.253,1.099L63.714,115.155z"/>
</g>
<g id="_xD83D__xDD00__2_">
	<g>
		<g>
			<path fill="#3F3F3F" d="M73.6,52.7c-0.3,0-0.5-0.1-0.7-0.3L71,50.5c-0.2-0.2-0.3-0.5-0.3-0.7c0-0.2,0.1-0.5,0.4-0.7l3.3-2.8H69
				c-3.1,0-6-1-8-2.9l-4-3.7c-0.2-0.2-0.3-0.5-0.3-0.7c0-0.3,0.1-0.5,0.3-0.7l2-1.8c0.2-0.2,0.4-0.3,0.7-0.3
				c0.2,0,0.5,0.101,0.7,0.3l4,3.7c1.1,1,2.8,1.601,4.6,1.601h5.5L71.2,39c-0.2-0.2-0.3-0.4-0.4-0.7c-0.1-0.3,0.1-0.5,0.3-0.7
				l1.9-1.9c0.2-0.2,0.5-0.3,0.7-0.3c0.2,0,0.5,0.1,0.6,0.2l9.2,7.8c0.2,0.2,0.4,0.5,0.4,0.8c0,0.3-0.1,0.601-0.4,0.8l-9.2,7.8
				C74.1,52.6,73.9,52.7,73.6,52.7z"/>
		</g>
		<g>
			<path fill="#1D1D1B" d="M73.6,36.1l9.2,7.8l-9.2,7.8L71.7,49.8l5.4-4.601H69c-2.9,0-5.5-0.899-7.3-2.6l-4-3.7l2-1.8l4,3.7
				c1.2,1.2,3.2,1.8,5.3,1.8h8.2L71.8,38L73.6,36.1 M73.6,34.1c-0.5,0-1,0.2-1.4,0.6l-1.9,1.9c-0.4,0.4-0.6,0.9-0.6,1.5
				c0,0.6,0.3,1.1,0.7,1.4l1.2,1H69c-1.6,0-3.1-0.5-4-1.3l-4-3.7c-0.4-0.4-0.9-0.5-1.4-0.5s-1,0.2-1.4,0.5l-2,1.8
				c-0.4,0.399-0.6,0.899-0.6,1.5c0,0.6,0.2,1.1,0.6,1.5l4,3.7c2.2,2,5.3,3.1,8.7,3.1h2.7l-1.2,1c-0.4,0.4-0.7,0.9-0.7,1.4
				c0,0.6,0.2,1.1,0.6,1.5l1.9,1.9c0.4,0.4,0.9,0.6,1.4,0.6s0.9-0.2,1.3-0.5l9.2-7.8c0.4-0.399,0.7-0.899,0.7-1.5
				c0-0.6-0.3-1.1-0.7-1.5l-9.2-7.8C74.6,34.3,74.1,34.1,73.6,34.1L73.6,34.1z"/>
		</g>
	</g>
	<g>
		<g>
			<path fill="#3F3F3F" d="M44.5,27.8c-0.2,0-0.5-0.101-0.7-0.3l-4.3-3.9c-1.1-1-2.8-1.6-4.6-1.6h-12c-0.6,0-1-0.4-1-1v-2.6
				c0-0.6,0.4-1,1-1h12c3.1,0,6,1,8,2.9l4.3,4c0.2,0.2,0.3,0.5,0.3,0.7s-0.1,0.5-0.3,0.7l-2,1.8C45,27.7,44.8,27.8,44.5,27.8z"/>
		</g>
		<g>
			<path fill="#1D1D1B" d="M34.9,18.4c2.9,0,5.5,0.9,7.3,2.6l4.3,4l-2,1.8l-4.3-3.9C39,21.7,37,21,34.9,21h-12v-2.6H34.9 M34.9,16.4
				h-12c-1.1,0-2,0.9-2,2V21c0,1.1,0.9,2,2,2h12c1.6,0,3.1,0.5,4,1.3l4.3,3.899c0.4,0.4,0.9,0.5,1.4,0.5s1-0.2,1.3-0.5l2-1.8
				c0.4-0.4,0.7-0.9,0.7-1.5c0-0.6-0.2-1.1-0.6-1.5l-4.3-4C41.4,17.6,38.3,16.4,34.9,16.4L34.9,16.4z"/>
		</g>
	</g>
	<g>
		<g>
			<path fill="#3F3F3F" d="M22.9,46.2c-0.6,0-1-0.399-1-1v-2.6c0-0.6,0.4-1,1-1h12c1.8,0,3.6-0.6,4.6-1.6L61,20.3
				c2-1.8,4.9-2.9,8-2.9h5.5l-3.3-2.8c-0.2-0.2-0.3-0.4-0.4-0.7c-0.1-0.3,0.1-0.5,0.3-0.7L73,11.3c0.2-0.2,0.5-0.3,0.7-0.3
				c0.2,0,0.5,0.1,0.6,0.2l9.2,7.8c0.2,0.2,0.4,0.5,0.4,0.8c0,0.3-0.1,0.6-0.4,0.8l-9.2,7.8c-0.2,0.2-0.4,0.2-0.6,0.2
				c-0.3,0-0.5-0.1-0.7-0.3l-2-2c-0.2-0.2-0.3-0.5-0.3-0.7s0.1-0.5,0.4-0.7l3.3-2.8H69c-1.8,0-3.6,0.6-4.6,1.6L42.9,43.4
				c-2,1.8-4.9,2.9-8,2.9h-12V46.2z"/>
		</g>
		<g>
			<path fill="#1D1D1B" d="M73.6,11.9l9.2,7.8l-9.2,7.8l-1.9-1.9l5.4-4.6H69c-2.1,0-4.1,0.7-5.3,1.8L42.2,42.6
				c-1.8,1.7-4.5,2.6-7.3,2.6h-12v-2.6h12c2.1,0,4.1-0.7,5.3-1.8L61.6,21c1.8-1.7,4.5-2.6,7.3-2.6h8.2l-5.4-4.6L73.6,11.9 M73.6,9.9
				c-0.5,0-1,0.2-1.4,0.6l-1.9,1.9c-0.4,0.4-0.6,0.9-0.6,1.5c0,0.6,0.3,1.1,0.7,1.4l1.2,1H69c-3.4,0-6.5,1.1-8.7,3.1L38.9,39.3
				c-0.9,0.8-2.4,1.3-4,1.3h-12c-1.1,0-2,0.9-2,2v2.6c0,1.101,0.9,2,2,2h12c3.4,0,6.5-1.1,8.7-3.1L65,24.3c0.9-0.8,2.4-1.3,4-1.3
				h2.7l-1.2,1c-0.4,0.4-0.7,0.9-0.7,1.4c0,0.6,0.2,1.1,0.6,1.5l1.9,1.9c0.4,0.399,0.9,0.6,1.4,0.6s0.9-0.2,1.3-0.5l9.2-7.8
				c0.4-0.4,0.7-0.9,0.7-1.5c0-0.6-0.3-1.1-0.7-1.5L75,10.3C74.6,10.1,74.1,9.9,73.6,9.9L73.6,9.9z"/>
		</g>
	</g>
</g>
<g>
	<path fill="#1D1D1B" d="M220.799,51.1h-12.8c-2.825,0-5.594-1.082-7.407-2.893l-6.898-6.9c-0.391-0.391-0.391-1.024,0-1.414
		c0.391-0.391,1.023-0.391,1.414,0l6.898,6.9c1.446,1.444,3.687,2.307,5.993,2.307h12.8c0.553,0,1,0.448,1,1
		S221.352,51.1,220.799,51.1z"/>
</g>
<g>
	<path fill="#1D1D1B" d="M185.5,32.7c-0.256,0-0.512-0.098-0.707-0.293l-7-7c-1.388-1.474-3.564-2.307-5.993-2.307H159
		c-0.553,0-1-0.448-1-1s0.447-1,1-1h12.8c2.978,0,5.686,1.062,7.429,2.914l6.979,6.979c0.391,0.391,0.391,1.023,0,1.414
		C186.012,32.602,185.756,32.7,185.5,32.7z"/>
</g>
<g>
	<path fill="#1D1D1B" d="M171.8,51.1H159c-0.553,0-1-0.448-1-1s0.447-1,1-1h12.8c2.429,0,4.605-0.833,5.972-2.286l22.819-22.92
		C202.405,22.082,205.174,21,208,21h12.8c0.553,0,1,0.448,1,1s-0.447,1-1,1H208c-2.308,0-4.548,0.862-5.993,2.307l-22.798,22.898
		C177.485,50.038,174.777,51.1,171.8,51.1z"/>
</g>
<g>
	<path fill="#1D1D1B" d="M217.6,26.5c-0.256,0-0.512-0.098-0.707-0.293c-0.391-0.391-0.391-1.024,0-1.414l2.693-2.693l-2.693-2.693
		c-0.391-0.391-0.391-1.023,0-1.414s1.023-0.391,1.414,0l3.4,3.4C221.895,21.581,222,21.835,222,22.1s-0.105,0.52-0.293,0.707
		l-3.4,3.4C218.111,26.402,217.855,26.5,217.6,26.5z"/>
</g>
<g>
	<path fill="#1D1D1B" d="M217.6,54.5c-0.256,0-0.512-0.098-0.707-0.293c-0.391-0.391-0.391-1.024,0-1.414l2.693-2.693l-2.693-2.693
		c-0.391-0.391-0.391-1.023,0-1.414s1.023-0.391,1.414,0l3.4,3.4C221.895,49.581,222,49.835,222,50.1s-0.105,0.52-0.293,0.707
		l-3.4,3.4C218.111,54.402,217.855,54.5,217.6,54.5z"/>
</g>
<g>
	<path fill="#010103" d="M216.5,103.7h-62c-0.553,0-1-0.447-1-1s0.447-1,1-1h59.45l-15.93-14.767
		c-0.405-0.375-0.429-1.008-0.054-1.413c0.375-0.406,1.007-0.431,1.413-0.054l17.8,16.5c0.302,0.279,0.401,0.716,0.251,1.099
		S216.911,103.7,216.5,103.7z"/>
</g>
<g>
	<path fill="#010103" d="M198.7,120.2c-0.269,0-0.536-0.107-0.733-0.32c-0.375-0.405-0.352-1.038,0.054-1.413l17.8-16.5
		c0.404-0.377,1.036-0.353,1.413,0.054c0.375,0.405,0.352,1.038-0.054,1.413l-17.8,16.5C199.188,120.112,198.943,120.2,198.7,120.2z
		"/>
</g>
</svg>
