<?xml version="1.0" encoding="utf-8"?>
<!-- Generator: Adobe Illustrator 16.0.4, SVG Export Plug-In . SVG Version: 6.00 Build 0)  -->
<!DOCTYPE svg PUBLIC "-//W3C//DTD SVG 1.1//EN" "http://www.w3.org/Graphics/SVG/1.1/DTD/svg11.dtd">
<svg version="1.1" id="Ebene_1" xmlns="http://www.w3.org/2000/svg" xmlns:xlink="http://www.w3.org/1999/xlink" x="0px" y="0px"
	 width="258px" height="52px" viewBox="0 0 258 52" enable-background="new 0 0 258 52" xml:space="preserve">
<path d="M3,38c-0.3,0-0.6-0.2-0.8-0.4c-3.7-5.5-1.7-9.899,0-13.7c0.3-0.7,0.6-1.5,0.9-2.2c0.8-1.9,0.7-3.4,0.6-5.2
	c-0.1-1.8-0.1-3.9,0.6-6.8C5.9,4,11.9,0,19,0c4.8,0,7.6,2.2,8.5,3.1c1.6,0.3,7.5,1.7,7.9,8.9c0.3,5.7,0.7,6.6,2.2,9.8
	c0.3,0.7,0.7,1.6,1.2,2.7c2.4,5.7,0,11.2-2,13.2c-0.4,0.399-1,0.399-1.4,0c-0.4-0.4-0.4-1,0-1.4c1.8-1.8,3.5-6.5,1.6-11
	c-0.4-1-0.8-1.9-1.2-2.6c-1.5-3.3-2-4.5-2.3-10.5C33.1,5.5,27.2,5,26.9,5c-0.3,0-0.5-0.1-0.7-0.3C26.2,4.6,23.8,2,19,2
	C12.8,2,7.6,5.4,6.3,10.2c-0.7,2.6-0.6,4.4-0.6,6.2c0.1,1.9,0.1,3.6-0.8,6c-0.3,0.8-0.6,1.5-1,2.3C2.2,28.6,0.7,31.9,3.8,36.5
	C4.1,37,4,37.6,3.5,37.9C3.4,37.9,3.2,38,3,38z"/>
<path fill="#E27022" d="M39,52H1c-0.6,0-1-0.4-1-1v-4c0-5.3,5.1-10,11-10l0,0c0.2,0,0.5,0.1,0.6,0.2c5.6,4.7,11.1,4.7,16.7,0
	c0.2-0.101,0.4-0.2,0.6-0.2l0,0c5.9,0,11,4.7,11,10v4C40,51.6,39.6,52,39,52z M2,50h36v-3c0-4.5-4.5-7.8-8.7-8c-6.2,5-12.5,5-18.7,0
	C6.5,39.2,2,42.5,2,47V50z"/>
<path d="M26,20c0,1.1-0.9,2-2,2s-2-0.9-2-2s0.9-2,2-2S26,18.9,26,20"/>
<path fill="#E27022" d="M18,20c0,1.1-0.9,2-2,2s-2-0.9-2-2s0.9-2,2-2S18,18.9,18,20"/>
<path d="M20,36c-6.7,0-12-6.6-12-15v-1c0-1.6,2.3-2.9,7.4-5.8c3.3-1.9,7.1-4,8.9-5.9c0.4-0.4,1-0.4,1.4,0C29.8,12.4,32,15.6,32,21
	C32,29.4,26.7,36,20,36z M10,20.1V21c0,7.3,4.4,13,10,13s10-5.7,10-13c0-4.4-1.7-7.2-5-10.6c-2.1,1.8-5.5,3.8-8.6,5.5
	C13.9,17.3,10.4,19.3,10,20.1z M10,20.1L10,20.1L10,20.1z"/>
<path fill="#E27022" d="M20,36c-6.7,0-12-6.6-12-15v-1h2v1c0,7.3,4.4,13,10,13s10-5.7,10-13h2C32,29.4,26.7,36,20,36z"/>
<path d="M20,30c-1.2,0-2.3-0.3-3.4-0.9c-0.5-0.199-0.7-0.8-0.4-1.3c0.2-0.5,0.8-0.7,1.3-0.399c1.7,0.899,3.4,0.899,5.1,0
	c0.5-0.2,1.1,0,1.3,0.399c0.2,0.5,0,1.101-0.4,1.3C22.3,29.7,21.2,30,20,30z"/>
<path d="M115,38c-0.3,0-0.6-0.2-0.8-0.4c-3.7-5.5-1.7-9.899,0-13.7c0.3-0.7,0.6-1.5,0.9-2.2c0.8-1.9,0.7-3.4,0.6-5.2
	c-0.1-1.8-0.1-3.9,0.6-6.8C117.9,4,123.9,0,131,0c4.8,0,7.6,2.2,8.5,3.1c1.6,0.3,7.5,1.7,7.9,8.9c0.3,5.7,0.699,6.6,2.199,9.8
	c0.301,0.7,0.7,1.6,1.2,2.7c2.4,5.7,0,11.2-2,13.2c-0.399,0.399-1,0.399-1.399,0c-0.4-0.4-0.4-1,0-1.4c1.8-1.8,3.5-6.5,1.6-11
	c-0.4-1-0.8-1.9-1.2-2.6c-1.5-3.3-2-4.5-2.3-10.5c-0.4-6.6-6.2-7.1-6.5-7.1s-0.5-0.1-0.7-0.3C138.2,4.6,135.8,2,131,2
	c-6.2,0-11.4,3.4-12.7,8.2c-0.7,2.6-0.6,4.4-0.6,6.2c0.1,1.9,0.1,3.6-0.8,6c-0.3,0.8-0.6,1.5-1,2.3c-1.7,3.899-3.2,7.2-0.1,11.8
	c0.3,0.5,0.2,1.1-0.3,1.4C115.4,37.9,115.2,38,115,38z"/>
<path d="M151,51c-0.6,0-1-0.4-1-1v-3c0-4.5-4.5-7.8-8.7-8c-6.2,5-12.5,5-18.7,0c-4.2,0.2-8.7,3.5-8.7,8v3c0,0.6-0.4,1-1,1
	s-1-0.4-1-1v-3c0-5.3,5.1-10,11-10l0,0c0.2,0,0.5,0.1,0.6,0.2c5.6,4.7,11.1,4.7,16.7,0c0.2-0.101,0.399-0.2,0.6-0.2l0,0
	c5.9,0,11,4.7,11,10v3C152,50.6,151.6,51,151,51z"/>
<path d="M151,52h-38c-0.6,0-1-0.4-1-1s0.4-1,1-1h38c0.6,0,1,0.4,1,1S151.6,52,151,52z"/>
<path d="M138,20c0,1.1-0.9,2-2,2s-2-0.9-2-2s0.9-2,2-2S138,18.9,138,20"/>
<path d="M130,20c0,1.1-0.9,2-2,2s-2-0.9-2-2s0.9-2,2-2S130,18.9,130,20"/>
<path d="M132,36c-6.7,0-12-6.6-12-15v-1c0-1.6,2.3-2.9,7.4-5.8c3.3-1.9,7.1-4,8.9-5.9c0.4-0.4,1-0.4,1.4,0c4.1,4.1,6.3,7.3,6.3,12.7
	C144,29.4,138.7,36,132,36z M122,20.1V21c0,7.3,4.4,13,10,13c5.6,0,10-5.7,10-13c0-4.4-1.7-7.2-5-10.6c-2.1,1.8-5.5,3.8-8.6,5.5
	C125.9,17.3,122.4,19.3,122,20.1z M122,20.1L122,20.1L122,20.1z"/>
<path d="M132,30c-1.2,0-2.3-0.3-3.4-0.9c-0.5-0.199-0.7-0.8-0.4-1.3c0.2-0.5,0.8-0.7,1.3-0.399c1.7,0.899,3.4,0.899,5.1,0
	c0.5-0.2,1.101,0,1.301,0.399c0.199,0.5,0,1.101-0.4,1.3C134.3,29.7,133.2,30,132,30z"/>
<path d="M221,38c-0.3,0-0.6-0.2-0.8-0.4c-3.7-5.5-1.7-9.899,0-13.7c0.3-0.7,0.6-1.5,0.899-2.2c0.801-1.9,0.7-3.4,0.601-5.2
	c-0.101-1.8-0.101-3.9,0.6-6.8C223.9,4,229.9,0,237,0c4.8,0,7.6,2.2,8.5,3.1c1.6,0.3,7.5,1.7,7.9,8.9c0.3,5.7,0.699,6.6,2.199,9.8
	c0.301,0.7,0.7,1.6,1.2,2.7c2.4,5.7,0,11.2-2,13.2c-0.399,0.399-1,0.399-1.399,0c-0.4-0.4-0.4-1,0-1.4c1.8-1.8,3.5-6.5,1.6-11
	c-0.4-1-0.8-1.9-1.2-2.6c-1.5-3.3-2-4.5-2.3-10.5c-0.4-6.6-6.2-7.1-6.5-7.1s-0.5-0.1-0.7-0.3C244.2,4.6,241.8,2,237,2
	c-6.2,0-11.4,3.4-12.7,8.2c-0.7,2.6-0.6,4.4-0.6,6.2c0.1,1.9,0.1,3.6-0.8,6c-0.301,0.8-0.601,1.5-1,2.3
	c-1.7,3.899-3.2,7.2-0.101,11.8c0.3,0.5,0.2,1.1-0.3,1.4C221.4,37.9,221.2,38,221,38z"/>
<path d="M257,51c-0.6,0-1-0.4-1-1v-3c0-4.5-4.5-7.8-8.7-8c-6.2,5-12.5,5-18.7,0c-4.199,0.2-8.699,3.5-8.699,8v3c0,0.6-0.4,1-1,1
	c-0.601,0-1-0.4-1-1v-3c0-5.3,5.1-10,11-10l0,0c0.199,0,0.5,0.1,0.6,0.2c5.6,4.7,11.1,4.7,16.7,0c0.2-0.101,0.399-0.2,0.6-0.2l0,0
	c5.9,0,11,4.7,11,10v3C258,50.6,257.6,51,257,51z"/>
<path d="M257,52h-38c-0.6,0-1-0.4-1-1s0.4-1,1-1h38c0.6,0,1,0.4,1,1S257.6,52,257,52z"/>
<path d="M244,20c0,1.1-0.9,2-2,2s-2-0.9-2-2s0.9-2,2-2S244,18.9,244,20"/>
<path d="M236,20c0,1.1-0.9,2-2,2s-2-0.9-2-2s0.9-2,2-2S236,18.9,236,20"/>
<path d="M238,36c-6.7,0-12-6.6-12-15v-1c0-1.6,2.3-2.9,7.4-5.8c3.3-1.9,7.1-4,8.899-5.9c0.4-0.4,1-0.4,1.4,0
	c4.1,4.1,6.3,7.3,6.3,12.7C250,29.4,244.7,36,238,36z M228,20.1V21c0,7.3,4.4,13,10,13s10-5.7,10-13c0-4.4-1.7-7.2-5-10.6
	c-2.1,1.8-5.5,3.8-8.6,5.5C231.9,17.3,228.4,19.3,228,20.1z M228,20.1L228,20.1L228,20.1z"/>
<path d="M238,30c-1.2,0-2.3-0.3-3.4-0.9c-0.5-0.199-0.699-0.8-0.399-1.3c0.2-0.5,0.8-0.7,1.3-0.399c1.7,0.899,3.4,0.899,5.1,0
	c0.5-0.2,1.101,0,1.301,0.399c0.199,0.5,0,1.101-0.4,1.3C240.3,29.7,239.2,30,238,30z"/>
<line fill="none" stroke="#E27022" stroke-linecap="round" stroke-miterlimit="10" x1="121.6" y1="36.3" x2="142.2" y2="36.3"/>
<line fill="none" stroke="#E27022" stroke-linecap="round" stroke-miterlimit="10" x1="121.6" y1="4.8" x2="142.2" y2="4.8"/>
<line fill="none" stroke="#E27022" stroke-linecap="round" stroke-miterlimit="10" x1="128" y1="4.8" x2="128" y2="16.3"/>
<line fill="none" stroke="#E27022" stroke-linecap="round" stroke-miterlimit="10" x1="136" y1="4.8" x2="136" y2="16.3"/>
<g>
	<g>
		<line fill="none" stroke="#E27022" stroke-linecap="round" stroke-miterlimit="10" x1="234" y1="13.6" x2="234" y2="14.6"/>
		
			<line fill="none" stroke="#E27022" stroke-linecap="round" stroke-miterlimit="10" stroke-dasharray="2.0277,3.0416" x1="234" y1="17.7" x2="234" y2="31.4"/>
		<line fill="none" stroke="#E27022" stroke-linecap="round" stroke-miterlimit="10" x1="234" y1="32.9" x2="234" y2="33.9"/>
	</g>
</g>
<g>
	<g>
		<line fill="none" stroke="#E27022" stroke-linecap="round" stroke-miterlimit="10" x1="242" y1="13.6" x2="242" y2="14.6"/>
		
			<line fill="none" stroke="#E27022" stroke-linecap="round" stroke-miterlimit="10" stroke-dasharray="2.0277,3.0416" x1="242" y1="17.7" x2="242" y2="31.4"/>
		<line fill="none" stroke="#E27022" stroke-linecap="round" stroke-miterlimit="10" x1="242" y1="32.9" x2="242" y2="33.9"/>
	</g>
</g>
<line fill="none" stroke="#E27022" stroke-linecap="round" stroke-miterlimit="10" x1="128" y1="23.6" x2="128" y2="36.3"/>
<line fill="none" stroke="#E27022" stroke-linecap="round" stroke-miterlimit="10" x1="136" y1="23.6" x2="136" y2="36.3"/>
<polyline fill="none" stroke="#E27022" stroke-linecap="round" stroke-linejoin="round" stroke-miterlimit="10" points="129.9,15.6 
	128,17.5 126.1,15.6 "/>
<polyline fill="none" stroke="#E27022" stroke-linecap="round" stroke-linejoin="round" stroke-miterlimit="10" points="137.9,15.6 
	136,17.5 134.1,15.6 "/>
<polyline fill="none" stroke="#E27022" stroke-linecap="round" stroke-linejoin="round" stroke-miterlimit="10" points="134.1,24.4 
	136,22.5 137.9,24.4 "/>
<polyline fill="none" stroke="#E27022" stroke-linecap="round" stroke-linejoin="round" stroke-miterlimit="10" points="126.1,24.4 
	128,22.5 129.9,24.4 "/>
</svg>
