<svg width="2.442" height=".9667" version="1.1" viewBox="0 0 43.96 69.6" xmlns="http://www.w3.org/2000/svg">
  <g transform="translate(39.1 -1.2)">
    <g id="color">
      <polygon id="SVGID" points="50.6 17.67 43.13 13.7 35.94 12.58 27.04 14.31 21.58 17.43 16.54 22.66 13 30.24 13 42.96 18.77 52.65 27.04 58.27 35.94 60 43.34 58.81 51.28 54.35 56.55 48 59.64 38.51 58.87 30.28 54.94 22.13" style="fill:#fcea2b"/>
    </g>
    <g id="line">
      <circle cx="36" cy="36" r="23" stroke-miterlimit="10" style="fill:none;stroke-miterlimit:10;stroke-width:2;stroke:#000"/>
      <path d="m26.46 46.57c1.877-1.542 5.824-2.494 10-2.415 3.834 0.0726 7.293 1.003 9 2.415" style="fill:none;stroke-linecap:round;stroke-linejoin:round;stroke-width:2;stroke:#000"/>
      <circle cx="27.76" cy="31.38" r="6.5" style="fill:#fff"/>
      <circle cx="27.56" cy="31.38" r="6.5" stroke-miterlimit="10" style="fill:none;stroke-miterlimit:10;stroke-width:2;stroke:#000"/>
      <circle cx="44.45" cy="31.38" r="6.5" style="fill:#fff"/>
      <circle cx="44.65" cy="31.38" r="6.5" stroke-miterlimit="10" style="fill:none;stroke-miterlimit:10;stroke-width:2;stroke:#000"/>
      <circle cx="27.56" cy="30.39" r="4.619" style="fill-rule:evenodd;paint-order:stroke fill markers"/>
      <circle cx="44.65" cy="30.39" r="4.619" style="fill-rule:evenodd;paint-order:stroke fill markers"/>
      <path d="m52.32 24.93c-1.185-2.421-3-5-9-4" style="fill:none;stroke-linecap:round;stroke-linejoin:round;stroke-width:2;stroke:#000"/>
      <path d="m19.95 24.93c1.185-2.421 3-5 9-4" style="fill:none;stroke-linecap:round;stroke-linejoin:round;stroke-width:2;stroke:#000"/>
      <circle cx="26.08" cy="29.6" r="2" style="fill:#fff"/>
      <circle cx="43.17" cy="29.6" r="2" style="fill:#fff"/>
    </g>
  </g>
  <g transform="translate(39.1 -1.883)">
    <g transform="translate(-106.2 .6832)">
      <g data-name="color">
        <polygon points="13 30.24 13 42.96 18.77 52.65 27.04 58.27 35.94 60 43.34 58.81 51.28 54.35 56.55 48 59.64 38.51 58.87 30.28 54.94 22.13 50.6 17.67 43.13 13.7 35.94 12.58 27.04 14.31 21.58 17.43 16.54 22.66" style="fill:#fcea2b"/>
      </g>
    </g>
    <g transform="translate(-106.2 .6832)">
      <g>
        <path d="m31.24 31.39a3.46 3.46 0 1 1-3.46-3.46 3.462 3.462 0 0 1 3.46 3.46"/>
        <circle cx="36" cy="36" r="23" stroke-miterlimit="10" style="fill:none;stroke-miterlimit:10;stroke-width:2;stroke:#000"/>
        <path d="m48 31.39a3.46 3.46 0 1 1-3.46-3.46 3.462 3.462 0 0 1 3.46 3.46"/>
        <path d="m27 44.13c1.877-1.542 5.824-2.494 10-2.415 3.834 0.0726 7.293 1.003 9 2.415" style="fill:none;stroke-linecap:round;stroke-linejoin:round;stroke-width:2;stroke:#000"/>
        <path d="m22 27c1.185-2.421 3-5 9-4" style="fill:none;stroke-linecap:round;stroke-linejoin:round;stroke-width:2;stroke:#000"/>
        <path d="m51 27c-1.185-2.421-3-5-9-4" style="fill:none;stroke-linecap:round;stroke-linejoin:round;stroke-width:2;stroke:#000"/>
        <circle cx="26" cy="30" r="1" style="fill:#fff"/>
        <circle cx="43" cy="30" r="1" style="fill:#fff"/>
      </g>
    </g>
  </g>
  <g transform="translate(34.99 1.471)">
    <path d="m-24.5 33.55h22.97l-6.941-6.941" style="fill:none;stroke-linecap:round;stroke-linejoin:round;stroke-width:3.138;stroke:#000"/>
    <path d="m-1.523 33.55-6.508 6.508" style="fill:none;stroke-linecap:round;stroke-linejoin:round;stroke-width:3.138;stroke:#000"/>
  </g>
</svg>
