<?xml version="1.0" encoding="utf-8"?>
<!-- Generator: Adobe Illustrator 16.0.4, SVG Export Plug-In . SVG Version: 6.00 Build 0)  -->
<!DOCTYPE svg PUBLIC "-//W3C//DTD SVG 1.1//EN" "http://www.w3.org/Graphics/SVG/1.1/DTD/svg11.dtd">
<svg version="1.1" id="Ebene_1" xmlns="http://www.w3.org/2000/svg" xmlns:xlink="http://www.w3.org/1999/xlink" x="0px" y="0px"
	 width="72px" height="72px" viewBox="0 0 72 72" enable-background="new 0 0 72 72" xml:space="preserve">
<path fill="none" stroke="#E27022" stroke-width="0.5" stroke-linecap="round" stroke-linejoin="round" stroke-miterlimit="10" d="
	M53,68H19c-1.7,0-3-1.3-3-3V7c0-1.7,1.3-3,3-3h34c1.7,0,3,1.3,3,3v58C56,66.7,54.7,68,53,68z"/>
<path fill="none" stroke="#E27022" stroke-width="0.5" stroke-linecap="round" stroke-linejoin="round" stroke-miterlimit="10" d="
	M4,53V19c0-1.7,1.3-3,3-3h58c1.7,0,3,1.3,3,3v34c0,1.7-1.3,3-3,3H7C5.3,56,4,54.7,4,53z"/>
<path fill="none" stroke="#E27022" stroke-width="0.5" stroke-linecap="round" stroke-linejoin="round" stroke-miterlimit="10" d="
	M58,61H14c-1.7,0-3-1.3-3-3V14c0-1.7,1.3-3,3-3h44c1.7,0,3,1.3,3,3v44C61,59.7,59.7,61,58,61z"/>
<circle fill="none" stroke="#E27022" stroke-width="0.5" stroke-linecap="round" stroke-linejoin="round" stroke-miterlimit="10" cx="36" cy="36" r="29"/>
<g opacity="0.2">
	<path fill="#1D1D1B" d="M68,4v64H4V4H68 M72,0h-4H4H0v4v64v4h4h64h4v-4V4V0L72,0z"/>
</g>
<path fill="none" stroke="#000000" stroke-width="2" stroke-linecap="round" stroke-linejoin="round" stroke-miterlimit="10" d="
	M36,36"/>
</svg>
