<?xml version="1.0" encoding="utf-8"?>
<!-- Generator: Adobe Illustrator 16.0.4, SVG Export Plug-In . SVG Version: 6.00 Build 0)  -->
<!DOCTYPE svg PUBLIC "-//W3C//DTD SVG 1.1//EN" "http://www.w3.org/Graphics/SVG/1.1/DTD/svg11.dtd">
<svg version="1.1" id="Ebene_1" xmlns="http://www.w3.org/2000/svg" xmlns:xlink="http://www.w3.org/1999/xlink" x="0px" y="0px"
	 width="217.9px" height="62.1px" viewBox="0 0 217.9 62.1" enable-background="new 0 0 217.9 62.1" xml:space="preserve">
<g id="_xD83D__xDC07__2_">
	<g>
		<path fill="#FFFFFF" d="M102.9,29.5l-2.2,7.6l-8.5,1.3c0,0,0,2.8,0.2,3.2s2.4,3.8,2.4,3.8l3.8,2.5l1.4,1.4l-1.1,1.9
			c0,0-2.7,2-2.6,2.2c0.1,0.2,0.8,1.6,0.8,1.6l3.6,0.4c0,0,2.9-1,2.9-1.1c0-0.1,2.6-4.2,2.6-4.2s3.4-0.9,4.7,1.4l3.7-3.2l2-10.2
			c0,0-1.6-3.2-1.6-3.3c0-0.1-4.6-4.4-4.6-4.4l-5.2,1.6L102.9,29.5z"/>
		<path fill="#FFFFFF" d="M97.1,25.4l-5.4,3.2L88.2,34c0,0,0.7,3.6,0.8,3.6c0.1,0,6.9,1.4,6.9,1.4l5.7-2.3L97.1,25.4z"/>
		<g>
			<path fill="#3F3F3F" d="M104.4,24.8l1.6-4.7l-0.7-4.7l-3,1.3l-1.7,1.2c0,0-1-2.5-2.6-2.4l-2.8,3.4l-0.7,4.1l-0.8,0.8
				c0,0,0.2,2.6,0.8,2.8c0.2,0,0.6,0,1-0.1l-3,1.7c0,0-2.1,7.3,4.6,10.8c2.1,0.1,2.8,0.6,4.8-1.3c0,0,3-3.8,0.5-9.2l0,0
				c0-0.2-0.1-0.3-0.1-0.3L104.4,24.8z"/>
		</g>
		<path fill="#3F3F3F" d="M108,30.9c0,0,11.7,7.8,3.7,18.9l-0.9,2.6l1.5,1.7l5.4,1.6l6.6-0.5l4.4-3.2l0.4-3.4l-0.9-5.1l-2.9-4.9
			l-4-4.7l-4.1-2.5L108,30.9z"/>
		<path fill="#FFFFFF" d="M128.8,47.1l2.8-0.5l3.2,1.6c0,0,0.1,2.9,0.2,3s-2.7,2.8-2.8,2.8c-0.1,0-2.1,0.8-2.1,0.8s-2.9,0.3-4.2-0.8
			l2.6-2.3L128.8,47.1z"/>
		<path fill="none" stroke="#000000" stroke-width="2" stroke-linecap="round" stroke-linejoin="round" stroke-miterlimit="10" d="
			M101.1,36.6c-2.1,4.5-11.6,0.9-11.6,0.9c-0.5-0.2-0.9-0.7-1-1.3l-0.3-1.8c-0.1-0.4,0-0.9,0.2-1.2l1.7-2.8c0.8-1.4,2-2.4,3.4-3.1
			l3.3-1.6c0,0,3.1-9.5,8.2-10.3c0,0,4,4.1-3,13.1c0,0,1.8,1.2,3.2,3.5c0,0,13.3-7.8,21.8,9.1c7.8,15.6-7.3,14.6-12.4,13.9
			c-1.3-0.2-2.5-1-3-2.2c-0.6-1.2-0.5-2.7,2.9-3.2"/>
		<path fill="none" stroke="#000000" stroke-width="2" stroke-linecap="round" stroke-linejoin="round" stroke-miterlimit="10" d="
			M93.3,41.6c0.3,2.6,1.8,5.4,5.8,6c0,0,1.3,1.6,0,2.9c0,0-1.2,1-2.1,2c-1.1,1.1-0.3,3,1.2,3h3.4c0.6,0,1.2-0.3,1.5-0.8l3.3-5.2
			l1.1-3.5"/>
		<path fill="none" stroke="#000000" stroke-width="2" stroke-linecap="round" stroke-linejoin="round" stroke-miterlimit="10" d="
			M131.8,47.5c0,0,4.3-0.1,3,3.4c-1.3,3.5-4.4,3.2-4.4,3.2"/>
	</g>
	<path fill="none" stroke="#000000" stroke-width="2" stroke-linecap="round" stroke-linejoin="round" stroke-miterlimit="10" d="
		M94.5,23.2c-0.1-2.7,0.7-6.3,3.5-7.8c0,0,1.7-0.2,2.8,2.8"/>
</g>
<g id="_xD83E__xDD81__2_">
	<path fill="#A57939" d="M12.1,22.2c-0.6,0.2-6.8,7.5-7.5,12.2c-0.6,4.6-0.3,6.5-0.3,6.5s2.3,7,9,10.5c0,0,10.5,10.6,24.2,0.2
		c0,0,6.7-2.3,9.7-11.7L47,32l-1.9-5c0,0-3.6-3.5-3.8-3.8C41.2,22.9,37,20,37,20l-1.5-0.5l-19.3,0.3L12.1,22.2z"/>
	<path fill="#F4AA41" d="M45.3,18.7l0.2-4.6L44.6,11L40,10.4l-4.2,2l-2.5,2.1l-2.6-4.3l-4.7-2.2l-8.2,1.6l-0.9,0.2
		c0,0-1.9,1.4-1.8,2c0,0-5.4-2.4-7.8-0.3c0,0-3,5.5,0.3,9.2l3.2,2.8c0,0-7.7,6.9,1,15.7c0,0-2.1,4.5,0.9,9.6l2.6,5.4
		c4.8,4.3,15.6,4.1,20.5-0.2l1.9-3.9c0.7-0.9,3.8-4.8,3-9.5c0,0,6.8-6.5,1.3-16.7l-1.3-1.2l2.4-1.3L45.3,18.7z"/>
	<path fill="#A57939" d="M14.9,11.6c0,0,0.8-1.6,3.1-2.4c2.3-0.9,4.7-1.4,4.7-1.4s5.2,0.8,5.6,0.8c0.4,0.1,4.8,5.1,4.8,5.1l0.4,2
		c0,0-1.5,1.5-5.3-0.5c-3.8-2-4.7-1.9-4.8-1.8c-0.2,0.1-4.5,1.9-4.5,1.9l-1.7-1.4L14.9,11.6z"/>
	<path fill="#FFFFFF" d="M35.3,35.7c0.1-0.2,1.2-7,1.2-7h-0.1c0,0-2.1,3.9-4.5,4.6l-0.4,1.2l0.1,1.2c-0.5,0-1,0-1.4,0.2
		c-1,0.6-1.9,0.4-1.9,0.4l-1.5,1.4l-0.5,0.7L24.9,38c0,0-0.6-1.6-0.7-1.7c-0.2-0.1-1.7-0.6-1.7-0.6l-1,0.4c0,0-0.8-0.3-1.6-0.1
		l0.1-1.4l-0.4-1.2c-2.4-0.7-4.5-4.6-4.5-4.6H15c0,0,1.1,6.8,1.2,7c0.1,0.1,1.4,1.5,2,2.1c-0.6,1.8,0.2,3.7,0.2,3.7l1.8,2.3l4.2-0.6
		l1.6-1.3l1.5,0.8l3.2,1.2l2-1.1c0,0,1.4-3.6,1.4-3.8c0-0.1-0.2-0.9-0.4-1.6C34.3,36.8,35.2,35.8,35.3,35.7z"/>
	<path fill="#F4A941" d="M18.7,16.2c0,0,0.4,2.3-1.8,4.6c0,0-3.5,0.7-3.7,0.8c-0.2,0.1-1.9,1.1-2.1,1.2c-0.3,0.1-1.4-0.2-1.6-0.4
		C9.1,22.2,6.6,18,6.6,18l0.1-2.9l0.8-3.5l3.8-0.5l3.2,0.8l3.1,2.5L18.7,16.2z"/>
	<path fill="#F4A941" d="M33.1,15.5c0,0-0.4,2.3,1.8,4.6c0,0,3.5,0.7,3.7,0.8c0.2,0.1,1.9,1.1,2.1,1.2c0.3,0.1,1.4-0.2,1.6-0.4
		c0.3-0.2,2.8-4.4,2.8-4.4l-0.1-2.9l-0.8-3.5l-3.8-0.5l-3.2,0.8l-3.1,2.5L33.1,15.5z"/>
	<path fill="#FFFFFF" d="M19.2,43l1.6,3.6l2.1,1.3l4.6,0.3l3.6-1.3l1.9-4.2l-2.4,1.2l-3.5-1.2l-1.2-1.1L23.4,43c0,0,0,1.1-1.4,0.7
		C20.6,43.4,19.2,43,19.2,43z"/>
	<path d="M18.7,26.2c0.5-0.8,1.4-1,2.2-0.5c0.8,0.5,0.6,2.2,0.6,2.2s-1.4,1-2.2,0.6C18.5,28,18.2,27,18.7,26.2z"/>
	<path d="M33.3,26.2c-0.5-0.8-1.4-1-2.2-0.5c-0.8,0.5-0.5,2.2-0.5,2.2s1.4,1,2.2,0.6C33.5,28,33.7,27,33.3,26.2z"/>
	<path fill="none" stroke="#000000" stroke-width="2" stroke-linecap="round" stroke-linejoin="round" stroke-miterlimit="10" d="
		M29.4,36.3c0,0-1.5-1.1-2.4,1.7l-1.1,0.9L24.7,38c-0.9-2.8-2.4-1.7-2.4-1.7"/>
	<path fill="none" stroke="#000000" stroke-width="2" stroke-linecap="round" stroke-linejoin="round" stroke-miterlimit="10" d="
		M31.5,33.8l1.7,2.8c0.2,0.3,0.3,0.5,0.3,0.8l0.3,1.7c0.1,0.4,0,0.9-0.2,1.3l-0.9,1.9c-0.3,0.7-1,1.2-1.8,1.4l0,0
		c-0.5,0.1-1.1,0-1.6-0.1l-1-0.4c-0.3-0.1-0.5-0.2-0.7-0.4l-1.1-0.9h-1l-1.1,0.9c-0.2,0.2-0.4,0.3-0.7,0.4l-1,0.4
		c-0.5,0.2-1,0.2-1.6,0.1l0,0c-0.8-0.2-1.5-0.7-1.8-1.4l-0.9-1.9C18,40.1,18,39.6,18,39.2l0.3-1.7c0-0.3,0.1-0.6,0.3-0.8l1.7-2.8"/>
	
		<line fill="none" stroke="#000000" stroke-width="2" stroke-linecap="round" stroke-linejoin="round" stroke-miterlimit="10" x1="25.9" y1="38.9" x2="25.9" y2="41.1"/>
	<path fill="none" stroke="#000000" stroke-width="2" stroke-linecap="round" stroke-linejoin="round" stroke-miterlimit="10" d="
		M21.5,46.4l0.6,0.6c0.7,0.7,1.6,1.1,2.5,1.1l2.4,0.1c0.9,0,1.8-0.3,2.6-0.9l0.7-0.6"/>
	<path fill="none" stroke="#000000" stroke-width="2" stroke-linecap="round" stroke-linejoin="round" stroke-miterlimit="10" d="
		M11.2,23.2C3.1,20,7.3,11.8,7.3,11.8c6.1-3.7,11.1,3.8,11.1,3.8s3.9-3.7,9.9-1.1"/>
	<path fill="none" stroke="#000000" stroke-width="2" stroke-linecap="round" stroke-linejoin="round" stroke-miterlimit="10" d="
		M16.2,20.3c0,0-14,4.9-11.1,20.1"/>
	<path fill="none" stroke="#000000" stroke-width="2" stroke-linecap="round" stroke-linejoin="round" stroke-miterlimit="10" d="
		M12.5,38c-2.1,3-2.9,8,3.6,15.7"/>
	<path fill="none" stroke="#000000" stroke-width="2" stroke-linecap="round" stroke-linejoin="round" stroke-miterlimit="10" d="
		M16.2,24c0,0-4.5,6.8,1.7,14.3"/>
	<path fill="none" stroke="#000000" stroke-width="2" stroke-linecap="round" stroke-linejoin="round" stroke-miterlimit="10" d="
		M17.3,10.4c0,0,10.2-7.7,16,4.3"/>
	<path fill="none" stroke="#000000" stroke-width="2" stroke-linecap="round" stroke-linejoin="round" stroke-miterlimit="10" d="
		M33.3,14.9c0,0,5-7.5,11.1-3.8c0,0,4.2,8.2-3.9,11.4"/>
	<path fill="none" stroke="#000000" stroke-width="2" stroke-linecap="round" stroke-linejoin="round" stroke-miterlimit="10" d="
		M35.5,19.5c0,0,14,4.9,11.1,20.1"/>
	<path fill="none" stroke="#000000" stroke-width="2" stroke-linecap="round" stroke-linejoin="round" stroke-miterlimit="10" d="
		M40.1,38.9c1.3,3.1,1,7.7-4.5,14.1"/>
	<path fill="none" stroke="#000000" stroke-width="2" stroke-linecap="round" stroke-linejoin="round" stroke-miterlimit="10" d="
		M35.5,23.2c0,0,4.5,6.8-1.7,14.3"/>
</g>
<g id="_xD83C__xDF35__2_">
	<path fill="#B1CC33" d="M196.2,57.5V13.9c0-3.5-2.6-6.4-5.7-6.4s-5.7,2.9-5.7,6.4v43.6"/>
	<path fill="#5C9E31" d="M198.3,48.1h7.3c2.3,0,4.2-1.9,4.2-4.2V28.5c0-2.2-1.6-4.1-3.8-4.3c-2.5-0.2-4.6,1.7-4.6,4.2v5.6
		c0,3.3,0.1,4.2-3.1,4.2h-3l0.1,10.1H198.3"/>
	<path fill="#5C9E31" d="M181,40.8l-6.1-0.1c-2.4,0-6.3-4.3-6.3-6.6l0.2-9.9c0-2.2,2.2-3.3,4.5-3.5c2.6-0.2,3,0.5,3,3l1.4,2.8
		c0,3.3-0.1,4.2,3.3,4.2h3.1L184,40.8H181"/>
	<path fill="none" stroke="#D1CC1B" stroke-width="2" stroke-linecap="round" stroke-linejoin="round" d="M198.1,14.6"/>
	<path fill="none" stroke="#000000" stroke-width="2" stroke-linecap="round" stroke-linejoin="round" stroke-miterlimit="10" d="
		M196.2,56.7V13.8c0-3.5-2.6-6.3-5.7-6.3s-5.7,2.8-5.7,6.3v42.8"/>
	<circle cx="192.5" cy="18.5" r="0.9"/>
	<path fill="none" stroke="#000000" stroke-width="2" stroke-linecap="round" stroke-linejoin="round" stroke-miterlimit="10" d="
		M180.2,39.9h-5.6c-3.3,0-5.9-2.7-5.9-5.9v-9.7c0-2.4,2.1-4.4,4.6-4.2c2.2,0.2,3.8,2.2,3.8,4.3v4.2c0,1.6,1.3,3,3,3h0.2"/>
	<path fill="none" stroke="#000000" stroke-width="2" stroke-linecap="round" stroke-linejoin="round" stroke-miterlimit="10" d="
		M198.4,47.2h7.3c2.3,0,4.2-1.9,4.2-4.2V27.6c0-2.2-1.6-4.1-3.8-4.3c-2.5-0.2-4.6,1.7-4.6,4.2V33c0,3.3,0.1,5.9-3.1,5.9"/>
	<circle cx="171.9" cy="24.4" r="0.9"/>
	<circle cx="206.7" cy="35.2" r="0.9"/>
</g>
</svg>
