<?xml version="1.0" encoding="utf-8"?>
<!-- Generator: Adobe Illustrator 16.0.4, SVG Export Plug-In . SVG Version: 6.00 Build 0)  -->
<!DOCTYPE svg PUBLIC "-//W3C//DTD SVG 1.1//EN" "http://www.w3.org/Graphics/SVG/1.1/DTD/svg11.dtd">
<svg version="1.1" id="Ebene_1" xmlns="http://www.w3.org/2000/svg" xmlns:xlink="http://www.w3.org/1999/xlink" x="0px" y="0px"
	 width="217.9px" height="62.1px" viewBox="0 0 217.9 62.1" enable-background="new 0 0 217.9 62.1" xml:space="preserve">
<g id="_xD83D__xDE9B__4_">
	<path fill="#CECCCC" d="M10,46.2H6.2c-0.5,0-0.8-0.4-0.8-0.8l-0.1-6.1c0-0.4,0.1-0.8,0.3-1.1c0.2-0.4,0.5-1,0.5-1
		c0-0.1,0.1-0.1,0.1-0.2c0.1-0.4,0.6-1.8,1.8-6.1c1.2-4.4,8.8-4.9,11.3-5c0.5,0,0.8,0.4,0.8,0.8v18.7c0,0.3,0,0.6,0,0.6"/>
	<path fill="#3F4040" d="M38.5,45.6H23.1V25.7c0-0.5,0.4-0.8,0.8-0.8h32.5c0.5,0,0.8,0.4,0.8,0.8v18.2c0,0.5-0.7,1.6-1.1,1.6l-6.5,0
		"/>
	<path fill="#CECCCC" stroke="#000000" stroke-width="2" stroke-miterlimit="10" d="M17.4,46.5c0,1.4-1.1,2.5-2.5,2.5
		s-2.5-1.1-2.5-2.5c0-1.4,1.1-2.5,2.5-2.5S17.4,45.1,17.4,46.5z"/>
	<path fill="#3F4040" d="M9.5,36.3l4.9,0l0.1-5.7l-2.7,0.1c-0.4,0-0.7,0.2-0.8,0.6L9.5,36.3"/>
	
		<polyline fill="none" stroke="#000000" stroke-width="2" stroke-linecap="round" stroke-linejoin="round" stroke-miterlimit="10" points="
		10.3,36.3 14.5,36.3 14.5,31.4 	"/>
	<path fill="#CECCCC" stroke="#000000" stroke-width="2" stroke-miterlimit="10" d="M51.6,46.5c0,1.4-1.1,2.5-2.5,2.5
		c-1.4,0-2.5-1.1-2.5-2.5c0-1.4,1.1-2.5,2.5-2.5C50.5,44,51.6,45.1,51.6,46.5z"/>
	<path fill="#CECCCC" stroke="#000000" stroke-width="2" stroke-miterlimit="10" d="M44.1,46.5c0,1.4-1.1,2.5-2.5,2.5
		c-1.4,0-2.5-1.1-2.5-2.5c0-1.4,1.1-2.5,2.5-2.5C43,44,44.1,45.1,44.1,46.5z"/>
	<path fill="none" stroke="#000000" stroke-width="2" stroke-linecap="round" stroke-linejoin="round" stroke-miterlimit="10" d="
		M10,45.4H6.2c-0.5,0-0.8-0.4-0.8-0.8l-0.1-5.2c0-0.4,0.1-0.8,0.3-1.1c0.2-0.4,0.5-1,0.5-1c0-0.1,0.7-2,1.9-6.3
		c1.2-4.4,8.8-4.9,11.3-5c0.5,0,0.8,0.4,0.8,0.8v17.9c0,0.3,0,0.6,0,0.6"/>
	<path fill="none" stroke="#000000" stroke-width="2" stroke-linecap="round" stroke-linejoin="round" stroke-miterlimit="10" d="
		M36.8,44.8H23.1v-19c0-0.5,0.4-0.8,0.8-0.8h32.5c0.5,0,0.8,0.4,0.8,0.8v18.2c0,0.5-0.4,0.8-0.8,0.8h-2.6"/>
</g>
<g id="_xD83D__xDE97__3_">
	<path fill="#EA5947" d="M131.5,39.5l-0.9-0.5c-0.3-0.2-0.5-0.5-0.4-0.8c0.2-1.6,0.4-7.1-8.1-9.6c-0.2-0.1-0.3-0.1-0.5-0.1
		l-16.3,0.1c-0.3,0-0.7,0.1-0.9,0.2l-8.6,5.7c-0.2,0.1-0.3,0.2-0.5,0.2c-1.6-0.1-3.1,0.1-4.7,0.3c-4.5,0.9-6.3,3.3-7,4.6
		c-0.2,0.2-0.2,0.6-0.2,0.8c0.1,2-1.2,4.2,0.7,6.1l16.1-0.1l17-0.4l13.4-0.2c0.7-0.1,2-1.2,2.3-1.8
		C134.5,41.8,131.6,39.6,131.5,39.5z"/>
	<path fill="#9C9B99" d="M91.9,41.5c-1.8,0-3.3,1.5-3.3,3.3s1.5,3.3,3.3,3.3s3.3-1.5,3.3-3.3S93.8,41.5,91.9,41.5z"/>
	<path fill="#9C9B99" d="M125.1,41.5c-1.8,0-3.3,1.5-3.3,3.3s1.5,3.3,3.3,3.3c1.8,0,3.3-1.5,3.3-3.3S126.9,41.5,125.1,41.5z"/>
	<path fill="#92D2F4" d="M124.2,35.6V32c0-0.7-0.7-1.4-1.4-1.4l0,0h-17.6c-0.1,0-0.2,0-0.2,0.1l-6.7,4.7c-0.2,0.1-0.2,0.3-0.1,0.5
		c0.1,0.1,0.2,0.2,0.2,0.2c4.7,0,22.6-0.2,25.3-0.1C124.1,36,124.2,35.8,124.2,35.6C124.2,35.7,124.2,35.7,124.2,35.6z"/>
	<polygon fill="#FCEA31" points="84.9,36.6 88.3,37.9 86.5,40.3 82.4,40.4 	"/>
	<path fill="none" stroke="#1D1E1C" stroke-width="2" stroke-linecap="round" stroke-linejoin="round" d="M84.3,45.7"/>
	
		<line fill="none" stroke="#000000" stroke-width="2" stroke-linecap="round" stroke-linejoin="round" x1="117.2" y1="45.3" x2="100" y2="45.7"/>
	<path fill="none" stroke="#000000" stroke-width="2" stroke-linecap="round" stroke-linejoin="round" d="M84.3,45.7
		c-0.7-0.2-1.4-0.4-1.5-0.8c-0.1-0.8-0.2-3.2-0.2-4.2c0-0.4,0.1-0.9,0.3-1.2c0.9-1.7,4-5.7,12.4-5.3l8.6-5.7
		c0.4-0.2,0.9-0.4,1.3-0.4l16.3-0.1c0.2,0,0.5,0,0.7,0.1c1.8,0.5,9.7,3.3,8.7,10.5l0.9,0.5c0.4,0.2,0.7,0.6,0.8,1
		c0.3,1.2,0.2,2.4-0.2,3.6"/>
	<polyline fill="none" stroke="#000000" stroke-width="2" stroke-linecap="round" stroke-linejoin="round" points="98.3,36.1 
		123.4,35.9 123.4,32.2 	"/>
	
		<circle fill="none" stroke="#000000" stroke-width="2" stroke-linecap="round" stroke-linejoin="round" cx="91.9" cy="44.8" r="4.2"/>
	
		<circle fill="none" stroke="#000000" stroke-width="2" stroke-linecap="round" stroke-linejoin="round" cx="125.1" cy="44.8" r="4.2"/>
	<polyline fill="none" stroke="#000000" stroke-width="2" stroke-linecap="round" stroke-linejoin="round" points="87.8,38.6 
		86.3,40.4 83.2,40.3 	"/>
</g>
<g id="_xD83D__xDE82__2_">
	
		<path fill="#E85949" stroke="#000100" stroke-width="2" stroke-linecap="round" stroke-linejoin="round" stroke-miterlimit="10" d="
		M163.1,41.4"/>
	<path fill="#3F4040" d="M162.2,34.9v-6.5c0-0.5,0.4-0.8,0.9-0.8h48.7c0.5,0,0.9,0.4,0.9,0.8v7.7c0,0.5-0.4,0.8-0.9,0.8H163
		c-0.5,0-0.9-0.4-0.9-0.8V34.9"/>
	<path fill="#E85949" d="M209.9,36.9h-46.7c-0.5,0-0.9,0.4-0.9,0.9v4.2c0,1,0.8,1.9,1.9,1.9h45.7c0.5,0,0.9-0.4,0.9-0.9v-5.2
		C210.8,37.3,210.4,36.9,209.9,36.9z"/>
	
		<rect x="182.8" y="23.8" fill="#3F4040" stroke="#000000" stroke-width="2" stroke-linecap="round" stroke-linejoin="round" stroke-miterlimit="10" width="3.5" height="3.8"/>
	
		<path fill="#3F4040" stroke="#000000" stroke-width="2" stroke-linecap="round" stroke-linejoin="round" stroke-miterlimit="10" d="
		M179.4,29h-5.6c0,0,0,0,0,0v-5.3c0-1.1,0.9-2,2-2h1.9c1,0,1.8,0.8,1.8,1.8L179.4,29C179.4,29,179.4,29,179.4,29z"/>
	
		<rect x="164.6" y="18.2" fill="#3F4040" stroke="#000000" stroke-width="2" stroke-linecap="round" stroke-linejoin="round" stroke-miterlimit="10" width="2.6" height="9.7"/>
	
		<path fill="#3F4040" stroke="#000000" stroke-width="2" stroke-linecap="round" stroke-linejoin="round" stroke-miterlimit="10" d="
		M163,34v-5.6c0-0.5,0.4-0.8,0.8-0.8h30.7v-9.9h17.2v10.6c0,0,0,0.1,0,0.1v5.5"/>
	
		<rect x="201.4" y="15" fill="#3F4040" stroke="#000000" stroke-width="2" stroke-linecap="round" stroke-linejoin="round" stroke-miterlimit="10" width="3.8" height="2.7"/>
	
		<line fill="#3F4040" stroke="#000100" stroke-width="2" stroke-linecap="round" stroke-linejoin="round" stroke-miterlimit="10" x1="210" y1="36.9" x2="165.4" y2="36.9"/>
	
		<path fill="#E85949" stroke="#000000" stroke-width="2" stroke-linecap="round" stroke-linejoin="round" stroke-miterlimit="10" d="
		M163.1,39.7v2.6c0,0.5,0.4,0.8,0.8,0.8h5.2"/>
	
		<path fill="#E85949" stroke="#000000" stroke-width="2" stroke-linecap="round" stroke-linejoin="round" stroke-miterlimit="10" d="
		M207,43.1h3c0.5,0,0.8-0.4,0.8-0.8v-4.6c0-0.5-0.4-0.8-0.8-0.8h-46c-0.5,0-0.8,0.4-0.8,0.8v0.4"/>
	
		<line fill="#E85949" stroke="#000000" stroke-width="2" stroke-linecap="round" stroke-linejoin="round" stroke-miterlimit="10" x1="181.5" y1="43.1" x2="184.1" y2="43.1"/>
	
		<path fill="#E85949" stroke="#000000" stroke-width="2" stroke-linecap="round" stroke-linejoin="round" stroke-miterlimit="10" d="
		M212.3,39.1H161c-0.5,0-1-0.4-1-1v-0.7c0-0.5,0.4-1,1-1h51.3c0.5,0,1,0.4,1,1v0.7C213.3,38.7,212.8,39.1,212.3,39.1z"/>
	
		<circle fill="#E85949" stroke="#000000" stroke-width="2" stroke-linecap="round" stroke-linejoin="round" stroke-miterlimit="10" cx="201" cy="45.1" r="4.2"/>
	
		<circle fill="#E85949" stroke="#000000" stroke-width="2" stroke-linecap="round" stroke-linejoin="round" stroke-miterlimit="10" cx="190.2" cy="45.1" r="4.2"/>
	
		<circle fill="#E85949" stroke="#000000" stroke-width="2" stroke-linecap="round" stroke-linejoin="round" stroke-miterlimit="10" cx="175.3" cy="45.1" r="4.2"/>
	<path fill="#1D1E1C" d="M204.4,27.6h-6.7v-7.2c0-0.5,0.4-0.8,0.8-0.8h5.8V27.6z"/>
	
		<polyline fill="#1D1E1C" stroke="#000000" stroke-width="2" stroke-linecap="round" stroke-linejoin="round" stroke-miterlimit="10" points="
		204.3,20.4 204.3,27.6 198.5,27.6 	"/>
</g>
</svg>
