<?xml version="1.0" encoding="utf-8"?>
<!-- Generator: Adobe Illustrator 16.0.4, SVG Export Plug-In . SVG Version: 6.00 Build 0)  -->
<!DOCTYPE svg PUBLIC "-//W3C//DTD SVG 1.1//EN" "http://www.w3.org/Graphics/SVG/1.1/DTD/svg11.dtd">
<svg version="1.1" id="Ebene_3" xmlns="http://www.w3.org/2000/svg" xmlns:xlink="http://www.w3.org/1999/xlink" x="0px" y="0px"
	 width="24px" height="24px" viewBox="0 0 24 24" enable-background="new 0 0 24 24" xml:space="preserve">
<g id="_xDB80__xDC3B__1_">
	<polygon fill="#818080" points="9.656,14.656 11.181,15.946 13.119,16.036 21.74,7.851 22.597,5.944 21.797,4.559 19.984,2.422 
		18.349,1.845 16.886,2.828 13.117,6.148 14.862,7.931 17.944,5.042 18.621,4.552 19.968,5.905 19.574,6.68 12.597,13.423 
		11.76,13.49 11.384,12.983 	"/>
	<path fill="none" stroke="#818080" stroke-width="0.5" stroke-linecap="round" stroke-linejoin="round" stroke-miterlimit="10" d="
		M13.32,5.995l3.613-3.428c0.923-0.89,2.404-0.863,3.293,0.058l1.619,1.673c0.89,0.92,0.864,2.401-0.056,3.292l-8.093,7.823
		c-0.92,0.89-2.401,0.863-3.292-0.058l-0.527-0.567"/>
	<path fill="none" stroke="#818080" stroke-width="0.5" stroke-linecap="round" stroke-linejoin="round" stroke-miterlimit="10" d="
		M11.622,13.262"/>
	<path fill="none" stroke="#818080" stroke-width="0.5" stroke-linecap="round" stroke-linejoin="round" stroke-miterlimit="10" d="
		M14.977,7.722l3.017-2.942c0.308-0.296,0.748-0.343,0.991-0.093l0.728,0.755c0.243,0.25,0.182,0.688-0.125,0.985l-6.976,6.743
		c-0.269,0.258-0.64,0.327-0.89,0.173l-0.168-0.153"/>
	<polygon fill="#818080" points="14.526,9.484 13.271,8.268 11.075,8.23 2.425,16.592 1.571,18.496 2.37,19.884 4.257,21.834 
		5.896,22.412 7.28,21.612 10.921,18.025 9.274,16.361 6.22,19.398 5.392,19.658 4.22,18.346 4.519,17.673 11.494,10.929 
		12.406,10.723 12.826,11.19 	"/>
	<path fill="none" stroke="#818080" stroke-width="0.5" stroke-linecap="round" stroke-linejoin="round" stroke-miterlimit="10" d="
		M10.776,18.23L7.28,21.612c-0.92,0.89-2.403,0.866-3.293-0.055L2.37,19.884c-0.891-0.921-0.865-2.402,0.055-3.292l8.092-7.822
		c0.921-0.89,2.402-0.865,3.293,0.056l0.561,0.487"/>
	<path fill="none" stroke="#818080" stroke-width="0.5" stroke-linecap="round" stroke-linejoin="round" stroke-miterlimit="10" d="
		M9.129,16.567l-2.908,2.832c-0.307,0.296-0.746,0.345-0.991,0.093l-0.728-0.755c-0.242-0.25-0.18-0.69,0.127-0.984l6.976-6.741
		c0.264-0.256,0.625-0.327,0.876-0.181l0.189,0.172"/>
</g>
</svg>
