<?xml version="1.0" encoding="utf-8"?>
<!-- Generator: Adobe Illustrator 16.0.0, SVG Export Plug-In . SVG Version: 6.00 Build 0)  -->
<!DOCTYPE svg PUBLIC "-//W3C//DTD SVG 1.1//EN" "http://www.w3.org/Graphics/SVG/1.1/DTD/svg11.dtd">
<svg version="1.1" id="Ebene_1" xmlns="http://www.w3.org/2000/svg" xmlns:xlink="http://www.w3.org/1999/xlink" x="0px" y="0px"
	 width="1600px" height="900px" viewBox="0 0 1600 900" enable-background="new 0 0 1600 900" xml:space="preserve">
<g>
	<path fill="#D12F28" d="M780.8,282.095v-24.104c0-13.255,10.745-24,24-24c13.254,0,24,10.745,24,24v24"/>
	<path fill="#D7D8DE" d="M584,521.99L584,521.99c-13.255,0-24-10.744-24-24v-76.799c0-13.255,10.745-24,24-24
		c13.254,0,24,10.745,24,24v76.799C608,511.246,597.254,521.99,584,521.99"/>
	<path fill="#D7D8DE" d="M1016,521.99L1016,521.99c13.254,0,24-10.744,24-24v-76.799c0-13.255-10.746-24-24-24
		c-13.255,0-24,10.745-24,24v76.799C992,511.246,1002.745,521.99,1016,521.99"/>
	<g>
		<path fill="#D7D8DE" d="M909.925,666.096H690.076c-45.144,0-82.076-36.934-82.076-82.074V364.169
			c0-45.141,36.933-82.074,82.076-82.074h219.849c45.142,0,82.075,36.934,82.075,82.074v219.852
			C992,629.162,955.066,666.096,909.925,666.096"/>
	</g>
	<path fill="#AAAFB5" d="M790.379,666.088h127.55c38.099,0,69.271-36.932,69.271-82.074v-219.85
		c0-45.142-31.173-82.075-69.271-82.075h-22.585"/>
	<path fill="none" stroke="#1D1E1C" stroke-width="19.2" stroke-linecap="round" stroke-linejoin="round" stroke-miterlimit="2" d="
		M780.8,282.095v-24.104c0-13.255,10.745-24,24-24c13.254,0,24,10.745,24,24v24"/>
	<path fill="none" stroke="#1D1E1C" stroke-width="19.2" stroke-linecap="round" stroke-linejoin="round" stroke-miterlimit="2" d="
		M909.925,665.99H690.076c-45.144,0-82.076-36.934-82.076-82.074V364.067c0-45.143,36.933-82.076,82.076-82.076h219.849
		c45.142,0,82.075,36.934,82.075,82.076v219.849C992,629.057,955.066,665.99,909.925,665.99z"/>
	<path fill="#FFFFFF" d="M910.89,414.544c-4.281,14.402-19.428,22.605-33.829,18.323c-14.403-4.282-22.608-19.428-18.325-33.83
		c4.281-14.402,19.428-22.605,33.829-18.324C906.967,384.996,915.172,400.142,910.89,414.544"/>
	
		<circle fill="none" stroke="#1D1E1C" stroke-width="19.2" stroke-linecap="round" stroke-linejoin="round" stroke-miterlimit="2" cx="884.812" cy="406.791" r="27.205"/>
	<path fill="#FFFFFF" d="M742.89,414.544c-4.281,14.402-19.427,22.605-33.829,18.323s-22.608-19.428-18.326-33.83
		s19.43-22.605,33.83-18.324C738.967,384.996,747.172,400.142,742.89,414.544"/>
	
		<circle fill="none" stroke="#1D1E1C" stroke-width="19.2" stroke-linecap="round" stroke-linejoin="round" stroke-miterlimit="2" cx="716.812" cy="406.791" r="27.206"/>
	<path fill="#FFFFFF" d="M881.601,584.391H718.4c-21.12,0-38.4-17.279-38.4-38.4c0-21.119,17.28-38.398,38.4-38.398h163.2
		c21.119,0,38.399,17.279,38.399,38.398C920,567.111,902.72,584.391,881.601,584.391"/>
	<path fill="none" stroke="#1D1E1C" stroke-width="19.2" stroke-miterlimit="2" d="M881.601,584.391H718.4
		c-21.12,0-38.4-17.279-38.4-38.4c0-21.119,17.28-38.398,38.4-38.398h163.2c21.119,0,38.399,17.279,38.399,38.398
		C920,567.111,902.72,584.391,881.601,584.391z"/>
	<path fill="none" stroke="#1D1E1C" stroke-width="19.2" stroke-linecap="round" stroke-linejoin="round" stroke-miterlimit="2" d="
		M584,521.99L584,521.99c-13.255,0-24-10.744-24-24v-76.799c0-13.255,10.745-24,24-24c13.254,0,24,10.745,24,24v76.799
		C608,511.246,597.254,521.99,584,521.99z"/>
	<path fill="none" stroke="#1D1E1C" stroke-width="19.2" stroke-linecap="round" stroke-linejoin="round" stroke-miterlimit="2" d="
		M1016,521.99L1016,521.99c13.254,0,24-10.744,24-24v-76.799c0-13.255-10.746-24-24-24c-13.255,0-24,10.745-24,24v76.799
		C992,511.246,1002.745,521.99,1016,521.99z"/>
	
		<line fill="none" stroke="#1D1E1C" stroke-width="19.2" stroke-linecap="round" stroke-linejoin="round" stroke-miterlimit="2" x1="723.2" y1="512.391" x2="723.2" y2="579.592"/>
	
		<line fill="none" stroke="#1D1E1C" stroke-width="19.2" stroke-linecap="round" stroke-linejoin="round" stroke-miterlimit="2" x1="771.2" y1="512.391" x2="771.2" y2="579.592"/>
	
		<line fill="none" stroke="#1D1E1C" stroke-width="19.2" stroke-linecap="round" stroke-linejoin="round" stroke-miterlimit="2" x1="819.2" y1="512.391" x2="819.2" y2="579.592"/>
	
		<line fill="none" stroke="#1D1E1C" stroke-width="19.2" stroke-linecap="round" stroke-linejoin="round" stroke-miterlimit="2" x1="867.2" y1="512.391" x2="867.2" y2="579.592"/>
</g>
</svg>
