<svg id="Ebene_1" data-name="Ebene 1" xmlns="http://www.w3.org/2000/svg" viewBox="0 0 1920 1080">
  <rect y="3" width="1919" height="1078" fill="#fcea2b"/>
  <g id="_" data-name="ðŸ">
    <g>
      <path d="M346.5084,501.781s-153.8175-120.8391-153.8175-30.4,53.8361,45.6,69.2179,75.9994,38.4543,7.6,38.4543,7.6l38.4544,23.56" fill="#cfcecd"/>
      <path d="M335.1711,584.3487,300.9039,563.36c-4.8519,3.4289-13.2675,7.8746-22.6933,6.3605-9.1968-1.4769-16.7637-7.9636-22.4944-19.2819-3.68-7.2771-10.3684-8.3681-21.8671-9.6632-25.3371-2.8574-48.0793-10.3163-48.0793-69.394,0-18.7809,6.1587-31.2421,18.3034-37.0311,40.9554-19.5528,136.0361,53.6708,146.7425,62.076l-8.6147,10.71c-37.8234-29.6984-107.1352-72.3664-132.1118-60.4655-2.5911,1.2357-10.4773,4.9949-10.4773,24.7109,0,51.7635,16.5947,53.6338,35.8069,55.801,11.9344,1.347,25.461,2.8722,32.6825,17.1406,3.6238,7.1621,7.77,11.1625,12.3249,11.8972,7.4092,1.1875,14.9687-6.0042,15.0438-6.0747l3.8792-3.8334,43.1147,26.4142Z" fill="#cfcecd"/>
    </g>
    <g>
      <path d="M408.0354,501.781s153.8175-121.5991,153.8175-30.4-53.8361,45.6-69.2179,75.9994-38.4544,7.6-38.4544,7.6l-38.4543,22.8" fill="#cfcecd"/>
      <path d="M419.2863,583.6436l-7.12-11.7264,43.0885-25.55,3.8229,3.7777c2.08,2.0187,8.8625,7.0767,15.0888,6.0673,4.5364-.75,8.6673-4.75,12.28-11.89,7.2252-14.2832,20.7518-15.7008,32.6937-16.9514,19.2047-2.015,35.7881-3.7517,35.7881-55.99,0-20.02-7.9688-23.8092-10.59-25.0523-25.07-11.9009-94.2583,30.9675-131.9766,60.7921l-8.6522-10.68c10.6876-8.446,105.6143-81.9183,146.6223-62.4435,12.2348,5.815,18.4461,18.3913,18.4461,37.3837,0,59.6084-22.7947,66.9337-48.1806,69.5907-11.4537,1.2023-18.1081,2.234-21.7733,9.4665-5.7231,11.3183-13.2938,17.805-22.4868,19.2819-9.531,1.4992-17.92-2.9761-22.7647-6.405Z" fill="#cfcecd"/>
    </g>
    <ellipse cx="377.2719" cy="478.9812" rx="30.7635" ry="22.7998" fill="#fbe92b"/>
    <ellipse cx="377.2719" cy="516.9809" rx="30.7635" ry="15.1999" fill="#a47939"/>
    <path d="M369.581,533.7007c-97.6741,4.56,7.6909,142.8789,7.6909,142.8789S500.3259,526.8608,369.581,533.7007Z" fill="#fbe92b"/>
    <path d="M361.8977,460.742a7.7041,7.7041,0,0,1-6.73-3.9075l-15.3817-27.3606a7.5522,7.5522,0,0,1,2.9855-10.3348,7.7477,7.7477,0,0,1,10.4585,2.95L368.6121,449.45a7.5522,7.5522,0,0,1-2.9854,10.3348A7.7371,7.7371,0,0,1,361.8977,460.742Z"/>
    <path d="M394.9519,461.5028a7.77,7.77,0,0,1-3.207-.694,7.5592,7.5592,0,0,1-3.77-10.0788l13.076-28.1212a7.716,7.716,0,0,1,10.1994-3.7332,7.5592,7.5592,0,0,1,3.77,10.0788l-13.076,28.1213A7.6885,7.6885,0,0,1,394.9519,461.5028Z"/>
    <path d="M377.2719,509.3809c-21.2025,0-38.4544-13.6376-38.4544-30.4s17.2519-30.4,38.4544-30.4,38.4544,13.6376,38.4544,30.4S398.4744,509.3809,377.2719,509.3809Zm0-45.6c-12.5052,0-23.0726,6.9616-23.0726,15.2s10.5674,15.2,23.0726,15.2,23.0726-6.9616,23.0726-15.2S389.7771,463.7813,377.2719,463.7813Z"/>
    <path d="M377.2719,539.7807c-21.9235,0-38.4544-9.8005-38.4544-22.8s16.5309-22.8,38.4544-22.8,38.4544,9.8006,38.4544,22.8S399.1954,539.7807,377.2719,539.7807Zm0-30.4c-14.89,0-23.0726,5.7074-23.0726,7.6s8.1828,7.6,23.0726,7.6c14.886,0,23.0726-5.7074,23.0726-7.6S392.1579,509.3809,377.2719,509.3809Z"/>
    <path d="M377.2719,684.18h-.1427a7.7154,7.7154,0,0,1-6.001-3.0281c-6.88-9.0324-66.6154-89.4181-46.6485-131.4219,6.9436-14.6024,21.9836-22.5512,44.707-23.6162,33.2458-1.7441,54.6886,6.2529,63.7013,23.761,21.8785,42.475-42.2622,122.5119-49.6452,131.5A7.7465,7.7465,0,0,1,377.2719,684.18Zm.8224-143.1075q-3.8811,0-8.1077.2189c-.015,0-.03.0037-.0413.0037-16.8313.783-27.1509,5.6592-31.5446,14.8956-12.2311,25.7389,19.9932,80.5193,39.104,107.7129,20.3914-26.9115,54.9327-81.41,41.6765-107.1414C413.8036,546.3379,399.999,541.0721,378.0943,541.0721Zm-8.5133-7.37h0Z"/>
    <path d="M282.1424,570.7965a25.449,25.449,0,0,1-4.0558-.3266c-9.4558-1.514-17.2106-8.1417-23.0576-19.69-3.4887-6.8948-9.6549-7.8448-21.1649-9.0509C208.1139,539.0311,185,531.62,185,471.3812c0-19.3115,6.35-32.1179,18.8779-38.0665,41.4774-19.716,136.7121,54.0568,147.4335,62.5325a7.5326,7.5326,0,0,1,1.2017,10.68,7.75,7.75,0,0,1-10.8078,1.1875c-37.5906-29.7021-106.4367-72.47-131.1654-60.6993-2.5123,1.1912-10.1581,4.8242-10.1581,24.3658,0,51.5557,16.268,53.259,35.1046,55.2332,11.5326,1.21,25.8853,2.7127,33.3021,17.367,3.5074,6.932,7.4655,10.7988,11.7616,11.489,6.9211,1.0836,14.3-5.7964,14.3753-5.8632a7.7533,7.7533,0,0,1,10.8754,0,7.5337,7.5337,0,0,1,0,10.7468C304.6254,561.5192,294.8353,570.789,282.1424,570.7965Z"/>
    <path d="M472.4014,570.7965c-12.6929,0-22.4868-9.2773-23.6584-10.4425a7.5337,7.5337,0,0,1,0-10.7468,7.7535,7.7535,0,0,1,10.8528-.0223c2.0354,1.9668,8.6,6.8355,14.4429,5.8781,4.2811-.7125,8.2242-4.5756,11.7166-11.4816,7.413-14.6543,21.7658-16.1573,33.3021-17.367,18.8366-1.9742,35.1046-3.6775,35.1046-55.2332,0-19.5416-7.6458-23.1746-10.1618-24.3695-24.7626-11.7154-93.5824,31.0046-131.158,60.703a7.7525,7.7525,0,0,1-10.8153-1.1875,7.5424,7.5424,0,0,1,1.2017-10.68c10.7252-8.4757,105.9673-82.2708,147.4335-62.5325,12.5277,5.9486,18.8817,18.755,18.8817,38.0665,0,60.2392-23.1177,67.65-48.8641,70.3477-11.5063,1.2061-17.68,2.1561-21.1649,9.0509-5.8433,11.5484-13.6018,18.1761-23.0577,19.69A25.4468,25.4468,0,0,1,472.4014,570.7965Z"/>
  </g>
  <g>
    <g>
      <path d="M1102.8208,495.2619a22.9444,22.9444,0,0,0-22.0991-23.6058c13.5608-18.0811-7.5338-41.687-27.6239-28.1262h0a22.8649,22.8649,0,0,0-45.705,1.5068h0c-18.081-13.0586-44.7,7.5338-31.14,28.1261h0a22.8649,22.8649,0,0,0,1.5068,45.705l-1.5068-33.6509,1.0045,34.1532c-13.5608,18.081,7.5338,41.6869,27.6239,28.1261h0a22.8649,22.8649,0,1,0,45.705-1.5068h0c18.0811,13.5608,41.6869-7.5338,28.1261-28.1261h0A23.8349,23.8349,0,0,0,1102.8208,495.2619Z" fill="#f3a841"/>
      <path d="M1027.5722,572.1242a24.86,24.86,0,0,1-17.1276-6.852,25.532,25.532,0,0,1-7.6024-13.6942,22.29,22.29,0,0,1-29.679-30.454,24.9379,24.9379,0,0,1-13.4465-6.58,25.5424,25.5424,0,0,1-8.0709-17.6745,24.8506,24.8506,0,0,1,6.8324-18.1453,25.5409,25.5409,0,0,1,13.758-7.6147,21.64,21.64,0,0,1,4.9023-25.4707c6.6976-6.42,17.9345-9.6845,27.955-4.8876a24.9153,24.9153,0,0,1,6.6215-13.758,25.5485,25.5485,0,0,1,17.6769-8.0709,24.9941,24.9941,0,0,1,18.1429,6.8324,25.53,25.53,0,0,1,7.6024,13.6967,22.1027,22.1027,0,0,1,26.1378,4.4683,22.3253,22.3253,0,0,1,3.6786,25.7257,25.36,25.36,0,0,1,20.38,25.7159h0a26.1725,26.1725,0,0,1-22.4984,24.7055,22.5883,22.5883,0,0,1-4.6841,26.5743,21.966,21.966,0,0,1-25.2794,3.735,24.9192,24.9192,0,0,1-6.6067,13.66,25.5463,25.5463,0,0,1-17.677,8.0684C1028.2491,572.1144,1027.9107,572.1242,1027.5722,572.1242Zm-20.36-29.23.1814,4.5026a20.53,20.53,0,0,0,6.494,14.2166,19.5265,19.5265,0,0,0,14.4986,5.4689,20.5458,20.5458,0,0,0,14.2191-6.4891,19.87,19.87,0,0,0,5.4688-14.5035l-.2109-5.28,4.228,3.1709c8.3038,6.2242,17.3336,3.9729,22.616-.9956,4.998-4.7013,8.4952-13.7384,1.908-23.7418l-2.56-3.8919h4.66a21.2824,21.2824,0,0,0,21.5958-20.1907h0a20.3768,20.3768,0,0,0-19.6879-20.995l-4.7773-.1913,2.8645-3.8233c6.2732-8.36,3.9778-17.4587-1.0742-22.7681-4.6448-4.8877-13.4833-8.2793-23.136-1.7707l-3.7325,2.5211-.1815-4.5026a20.5348,20.5348,0,0,0-6.494-14.219,19.9772,19.9772,0,0,0-14.5035-5.4714,20.5493,20.5493,0,0,0-14.2141,6.494,19.8675,19.8675,0,0,0-5.4689,14.5011l.206,5.16-4.1887-3.0238c-8.6128-6.2119-19.2489-3.605-25.3088,2.1949-5.0667,4.8533-8.321,13.3166-2.2636,22.5155l2.4451,3.713-4.4413.1766a20.5478,20.5478,0,0,0-14.2191,6.4964,19.87,19.87,0,0,0-5.4713,14.501,20.5558,20.5558,0,0,0,6.494,14.2191,19.95,19.95,0,0,0,11.4968,5.3658l-.9122-30.964,5.02-.1864,1.6186,36.173-1.4469.0588a17.1569,17.1569,0,0,0,1.41,22.31c4.64,4.8852,13.4809,8.2818,23.136,1.7707Z" fill="#f3a841"/>
    </g>
    <path d="M1020.4514,505.8092a16.2949,16.2949,0,0,1-16.5743-16.072,15.9387,15.9387,0,0,1,10.045-15.0676c1.0046-.5023,2.5113,0,3.5158.5022l17.0766,14.5654,16.5743,14.063a5.4937,5.4937,0,0,1,2.009,6.5293,16.7243,16.7243,0,0,1-16.072,12.0541c-9.0406-.5023-16.5744-7.5338-16.5744-16.5744" fill="#fbe92b"/>
    <path d="M925.0235,530.42c20.09,24.61,14.063,62.7816,14.063,62.7816s-38.1711-2.009-58.2612-26.6194S866.7622,503.8,866.7622,503.8,904.9334,505.8092,925.0235,530.42Z" fill="#b0cb33"/>
    <path d="M939.09,598.2227c-.0883,0-.1766,0-.2649-.0049-1.65-.0883-40.6388-2.423-61.8913-28.4577-21.2648-26.0519-15.3913-65.0942-15.1313-66.7422a5.0252,5.0252,0,0,1,5.226-4.2328c1.6481.0858,40.6339,2.4254,61.884,28.4577h.0025c21.2648,26.0519,15.3937,65.0892,15.1337,66.7421A5.0211,5.0211,0,0,1,939.09,598.2227ZM871.2388,509.328c-.7725,10.56-.9294,36.43,13.476,54.0755,14.3956,17.6377,39.4788,22.8319,49.8966,24.269.77-10.56.927-36.4281-13.4809-54.078h.0025C906.7374,515.9617,881.6566,510.7651,871.2388,509.328Z" stroke="#000" stroke-miterlimit="10" stroke-width="3"/>
    <path d="M952.1412,682.1a5.0229,5.0229,0,0,1-4.9367-4.13c-9.7091-53.639,11.21-88.5318,30.4687-108.357a5.0208,5.0208,0,1,1,7.2051,6.9942c-17.6156,18.138-36.7394,50.1321-27.7906,99.5774a5.0227,5.0227,0,0,1-4.0465,5.8368A5.1372,5.1372,0,0,1,952.1412,682.1Z" stroke="#000" stroke-miterlimit="10" stroke-width="5"/>
    <g>
      <path d="M1031.4961,500.7862a5.0234,5.0234,0,0,1-3.9876-8.0684h0c.51-.6744,12.3307-16.6616-.3139-31.3466a5.0221,5.0221,0,1,1,7.6122-6.5528c14.4251,16.7523,6.749,36.1116.6769,44.0084A5.0244,5.0244,0,0,1,1031.4961,500.7862Z"/>
      <path d="M1033.5119,528.9129a19.8753,19.8753,0,0,1-20.09-20.09,5.0225,5.0225,0,1,1,10.045,0,10.0451,10.0451,0,0,0,20.09,0,5.0225,5.0225,0,1,1,10.045,0A19.8753,19.8753,0,0,1,1033.5119,528.9129Z"/>
      <path d="M1018.4444,513.8453a19.8753,19.8753,0,0,1-20.09-20.09,20.11,20.11,0,0,1,15.4452-19.46,5.0233,5.0233,0,0,1,2.2562,9.79,10.11,10.11,0,0,0-7.6564,9.67,9.8235,9.8235,0,0,0,10.0451,10.045,5.0226,5.0226,0,0,1,0,10.0451Z"/>
    </g>
    <g>
      <g>
        <path d="M1004.8777,445.0357a5.0236,5.0236,0,0,1-5.0152-4.841,30.1549,30.1549,0,0,1,60.2629-2.3764,5.0211,5.0211,0,1,1-10.0352.3728,20.1117,20.1117,0,0,0-40.19,1.6406,5.02,5.02,0,0,1-4.8361,5.2016C1005,445.0357,1004.9414,445.0357,1004.8777,445.0357Z" stroke="#000" stroke-miterlimit="10" stroke-width="4"/>
        <path d="M1084.6593,523.9075c-.3679,0-.7308-.0074-1.1036-.02a5.0234,5.0234,0,0,1,.363-10.04,19.9469,19.9469,0,0,0,15.46-33.64,19.7493,19.7493,0,0,0-13.8217-6.5455,5.0235,5.0235,0,0,1,.3727-10.04,30.5611,30.5611,0,0,1,28.9384,31.3246A30.2014,30.2014,0,0,1,1084.6593,523.9075Z" stroke="#000" stroke-miterlimit="10" stroke-width="4"/>
        <path d="M1085.2381,473.6651a5.0223,5.0223,0,0,1-4.0269-8.0194,16.5894,16.5894,0,0,0-1.27-21.9514c-4.7332-4.9343-13.13-7.936-22.5082-1.54a5.0227,5.0227,0,0,1-5.66-8.299c13.6353-9.3,27.6042-5.253,35.4176,2.884a26.6659,26.6659,0,0,1,2.0845,34.9A5.0146,5.0146,0,0,1,1085.2381,473.6651Z" stroke="#000" stroke-miterlimit="10" stroke-width="4"/>
      </g>
      <path d="M1066.4281,559.0578A27.2947,27.2947,0,0,1,1050.1,553.535a5.0226,5.0226,0,1,1,5.9937-8.0611,16.6015,16.6015,0,0,0,21.9539-1.2679c4.9342-4.738,7.9311-13.1375,1.54-22.5081a5.0227,5.0227,0,0,1,8.299-5.66c9.2946,13.63,5.2481,27.6092-2.8841,35.4128A26.73,26.73,0,0,1,1066.4281,559.0578Z" stroke="#000" stroke-miterlimit="10" stroke-width="4"/>
      <path d="M1028.0823,580.1583A30.2191,30.2191,0,0,1,997.8515,551.2a5.025,5.025,0,0,1,4.8337-5.2064,5.0922,5.0922,0,0,1,5.204,4.8336,20.1118,20.1118,0,1,0,40.19-1.6431,5.0209,5.0209,0,1,1,10.0353-.3629,30.2124,30.2124,0,0,1-28.9384,31.3172C1028.8082,580.1534,1028.4453,580.1583,1028.0823,580.1583Z" stroke="#000" stroke-miterlimit="10" stroke-width="4"/>
      <path d="M989.3883,560.5047a26.8934,26.8934,0,0,1-21.1814-43.128,5.0216,5.0216,0,0,1,8.0586,5.9937,16.59,16.59,0,0,0,1.2679,21.9539c4.7331,4.9392,13.14,7.9311,22.5081,1.54a5.0227,5.0227,0,1,1,5.66,8.2989A28.7647,28.7647,0,0,1,989.3883,560.5047Z" stroke="#000" stroke-miterlimit="10" stroke-width="4"/>
      <path d="M970.7329,475.6736a5.018,5.018,0,0,1-4.1838-2.2366c-7.7349-11.6023-6.3272-25.1862,3.5878-34.6034,9.0715-8.6128,24.9508-12.3626,37.7425-2.8521a5.0236,5.0236,0,0,1-5.9937,8.0635c-8.35-6.212-18.805-3.6541-24.8305,2.07-2.3911,2.2734-9.6135,10.5551-2.1484,21.75a5.0225,5.0225,0,0,1-4.1739,7.8084Z" stroke="#000" stroke-miterlimit="10" stroke-width="4"/>
      <path d="M971.3141,525.4133a30.2113,30.2113,0,0,1-30.2161-28.9605c-.6057-16.3747,12.6471-30.7188,28.9408-31.3245a4.9553,4.9553,0,0,1,5.2065,4.8337,5.0252,5.0252,0,0,1-4.8337,5.2064c-10.6655.3949-19.6732,10.1677-19.2735,20.9117a20.156,20.156,0,0,0,20.9191,19.2734,5.0233,5.0233,0,1,1,.358,10.04C972.0473,525.4059,971.68,525.4133,971.3141,525.4133Z" stroke="#000" stroke-miterlimit="10" stroke-width="4"/>
    </g>
    <circle cx="1055.6091" cy="488.7327" r="5.0225"/>
    <circle cx="1055.1068" cy="460.6065" r="5.0225"/>
  </g>
  <g>
    <polyline points="1687.078 445.363 1687.078 412.892 1481.431 412.892 1481.431 445.363" fill="#f3a841"/>
    <path d="M1632.9608,678.0689a81.0678,81.0678,0,0,0,81.1765-81.1765V472.4218a26.796,26.796,0,0,0-27.0589-27.0588h-205.647a26.796,26.796,0,0,0-27.0589,27.0588V596.8924a81.0678,81.0678,0,0,0,81.1765,81.1765Z" fill="#f3a841"/>
    <path d="M1578.8431,445.363v75.7647a27.0589,27.0589,0,0,0,54.1177,0v59.5294a16.2353,16.2353,0,0,0,32.4706,0V477.8336a16.2353,16.2353,0,1,0,32.4706,0V447.5277a24.23,24.23,0,0,0-10.8236-2.1647H1568.02V412.8924h119.0588V445.363" fill="#fae92e"/>
    <path d="M1687.0784,450.7748a5.41,5.41,0,0,1-5.4117-5.4118V418.3042H1486.8431V445.363a5.4118,5.4118,0,1,1-10.8235,0V412.8924a5.412,5.412,0,0,1,5.4118-5.4117h205.647a5.41,5.41,0,0,1,5.4118,5.4117V445.363A5.41,5.41,0,0,1,1687.0784,450.7748Z" fill="#1d1d1b" stroke="#000" stroke-miterlimit="10" stroke-width="5"/>
    <path d="M1649.1961,602.3042a21.4157,21.4157,0,0,1-21.6471-21.6471,5.4118,5.4118,0,0,1,10.8235,0,10.8236,10.8236,0,1,0,21.6471,0,5.4118,5.4118,0,0,1,10.8235,0A21.4156,21.4156,0,0,1,1649.1961,602.3042Z" fill="#1d1d1b" stroke="#000" stroke-miterlimit="10" stroke-width="3"/>
    <path d="M1605.902,553.5983a32.1267,32.1267,0,0,1-32.4706-32.4706,5.4118,5.4118,0,1,1,10.8235,0,21.6471,21.6471,0,1,0,43.2941,0,5.4118,5.4118,0,1,1,10.8235,0A32.1267,32.1267,0,0,1,1605.902,553.5983Z" fill="#1d1d1b" stroke="#000" stroke-miterlimit="10" stroke-width="3"/>
    <path d="M1632.9608,586.0689a5.4087,5.4087,0,0,1-5.4118-5.4118V521.1277a5.4118,5.4118,0,1,1,10.8235,0v59.5294A5.4086,5.4086,0,0,1,1632.9608,586.0689Z" fill="#1d1d1b" stroke="#000" stroke-miterlimit="10" stroke-width="3"/>
    <path d="M1578.8431,526.54a5.412,5.412,0,0,1-5.4117-5.4118V445.363a5.4118,5.4118,0,1,1,10.8235,0v75.7647A5.4121,5.4121,0,0,1,1578.8431,526.54Z" fill="#1d1d1b" stroke="#000" stroke-miterlimit="10" stroke-width="3"/>
    <path d="M1568.02,450.7748a5.4121,5.4121,0,0,1-5.4118-5.4118V412.8924a5.4118,5.4118,0,0,1,10.8236,0V445.363A5.4121,5.4121,0,0,1,1568.02,450.7748Z" fill="#1d1d1b"/>
    <path d="M1632.9608,683.4807H1535.549a86.6875,86.6875,0,0,1-86.5882-86.5883V472.4218a32.1267,32.1267,0,0,1,32.4706-32.4706h205.647a32.1267,32.1267,0,0,1,32.4706,32.4706V596.8924A86.6875,86.6875,0,0,1,1632.9608,683.4807ZM1481.4314,450.7748a21.4156,21.4156,0,0,0-21.6471,21.647V596.8924a75.85,75.85,0,0,0,75.7647,75.7647h97.4118a75.85,75.85,0,0,0,75.7647-75.7647V472.4218a21.4156,21.4156,0,0,0-21.6471-21.647Z" fill="#1d1d1b" stroke="#000" stroke-miterlimit="10" stroke-width="5"/>
  </g>
</svg>
