<?xml version="1.0" encoding="utf-8"?>
<!-- Generator: Adobe Illustrator 16.0.0, SVG Export Plug-In . SVG Version: 6.00 Build 0)  -->
<!DOCTYPE svg PUBLIC "-//W3C//DTD SVG 1.1//EN" "http://www.w3.org/Graphics/SVG/1.1/DTD/svg11.dtd">
<svg version="1.1" id="Ebene_1" xmlns="http://www.w3.org/2000/svg" xmlns:xlink="http://www.w3.org/1999/xlink" x="0px" y="0px"
	 width="1600px" height="900px" viewBox="0 0 1600 900" enable-background="new 0 0 1600 900" xml:space="preserve">
<g>
	<rect fill="#8967AA" width="1600" height="900"/>
	<g>
		<g>
			<polygon fill="#FFEA00" points="231.602,260.643 251.726,322.578 316.85,322.578 264.164,360.856 284.288,422.792 
				231.602,384.514 178.917,422.792 199.041,360.856 146.355,322.578 211.479,322.578 			"/>
			
				<polygon fill="none" stroke="#000000" stroke-width="14.4" stroke-linecap="round" stroke-linejoin="round" stroke-miterlimit="10" points="
				231.602,260.643 251.726,322.578 316.85,322.578 264.164,360.856 284.288,422.792 231.602,384.514 178.917,422.792 
				199.041,360.856 146.355,322.578 211.479,322.578 			"/>
			
				<line fill="none" stroke="#000000" stroke-width="14.4" stroke-linecap="round" stroke-linejoin="round" stroke-miterlimit="10" x1="479.191" y1="32.356" x2="268.196" y2="243.351"/>
			
				<line fill="none" stroke="#000000" stroke-width="14.4" stroke-linecap="round" stroke-linejoin="round" stroke-miterlimit="10" x1="340.53" y1="211.967" x2="590.505" y2="-38.008"/>
			
				<line fill="none" stroke="#000000" stroke-width="14.4" stroke-linecap="round" stroke-linejoin="round" stroke-miterlimit="10" x1="355.691" y1="277.043" x2="526.812" y2="105.921"/>
			
				<line fill="none" stroke="#000000" stroke-width="14.4" stroke-linecap="round" stroke-linejoin="round" stroke-miterlimit="10" x1="302.162" y1="289.473" x2="457.861" y2="133.774"/>
		</g>
		<g>
			<g>
				<path fill="#CECCCC" d="M1415.59,619.783c-0.893,0.147-1.784,0.296-2.673,0.444c-1.039,0-2.08,0.149-3.27,0.298
					c1.189-0.148,2.378-0.298,3.564-0.446C1414.104,620.079,1414.847,619.931,1415.59,619.783"/>
				<path fill="#CECCCC" d="M1413.212,620.079c-0.146,0-0.146,0-0.295,0.148c-1.039,0-2.08,0.149-3.27,0.298
					C1410.837,620.377,1412.025,620.228,1413.212,620.079"/>
				<path fill="#CECCCC" d="M1415.59,619.783c-0.893,0.147-1.784,0.296-2.673,0.444c-1.039,0-2.08,0.149-3.27,0.298
					c1.189-0.148,2.378-0.298,3.564-0.446C1414.104,620.079,1414.847,619.931,1415.59,619.783"/>
				<path fill="#CECCCC" d="M1428.21,631.96c-4.452,4.456-69.051,8.169-158.746,10.84c-24.055,0.596-49.894,1.189-76.773,1.784
					c-17.521,0.294-35.642,0.591-54.056,0.739c-6.235,0-12.323,0.149-18.562,0.149c-1.779,0.148-3.415,0.148-5.194,0.148
					c-9.655,0.149-19.307,0.149-29.106,0.301c-15.002,0.145-29.997,0.293-45.148,0.293c-45.141,0.298-90.286,0.149-132.457-0.293
					c-17.079-0.151-33.709-0.449-49.601-0.599c-2.375-0.148-4.602-0.148-6.979-0.148c-7.575-0.147-15-0.297-22.275-0.442
					c-88.802-2.229-153.25-6.235-159.787-12.772c-10.541-10.691-11.434-21.232-9.058-29.402c2.525-9.655,9.058-16.188,9.058-16.188
					l151.768-106.177h455.152L1428.21,586.37c0,0,4.307,8.763,5.942,19.008C1435.783,614.289,1435.341,624.833,1428.21,631.96"/>
				<polygon fill="#9B9A98" points="1118.383,490.389 1236.497,639.581 1422.742,630.623 1434.935,615.449 1422.214,582.175 
					1275.85,480.193 1114.878,482.42 				"/>
				<path fill="#CECCCC" d="M1120.964,630.474c-3.117,0-6.235,0.149-9.353,0.149h-6.831c3.118-0.149,6.235-0.149,9.354-0.149
					H1120.964z"/>
				<path fill="#CECCCC" d="M1198.927,629.29c-1.632,0-3.267,0-4.753,0.146c-2.97,0-5.938,0-8.908,0.148h-2.523
					c1.482-0.148,2.97-0.148,4.453-0.148c2.972,0,5.941-0.146,8.907-0.146H1198.927z"/>
				<path fill="#CECCCC" d="M1275.258,627.356v0.147c-3.415,0-6.834,0.148-10.397,0.298
					C1268.424,627.652,1271.843,627.504,1275.258,627.356"/>
				<path fill="#9B9A98" d="M1269.464,642.8c-24.203,45.146-110.334,78.706-213.54,80.04c1.482-1.188,2.816-2.671,4.158-4.006
					c19.153-19.157,35.936-39.057,50.19-58.809c3.415-4.898,6.682-9.651,9.8-14.553c24.802-0.149,49.154-0.445,72.618-0.889
					C1219.57,643.989,1245.409,643.396,1269.464,642.8"/>
				<path fill="#CECCCC" d="M1120.072,645.473c-3.118,4.901-6.385,9.654-9.8,14.553c-14.255,19.752-31.037,39.651-50.19,58.809
					c-1.339,1.335-2.676,2.821-4.163,4.006c-2.226,0.149-4.601,0.149-6.975,0.149c-12.922,0-25.691-0.442-38.021-1.483
					c-13.065-1.041-25.689-2.523-37.863-4.604c-68.755-11.287-122.364-37.571-142.71-70.538c-0.443-0.594-0.74-1.041-1.039-1.632
					c29.107,0.591,60.885,1.038,94.147,1.334c1.933,0,3.713-0.147,5.646,0c59.693,0.446,123.996,0.298,185.774-0.445
					C1116.657,645.621,1118.293,645.621,1120.072,645.473"/>
				<path fill="#CECCCC" d="M1120.964,630.474c-3.117,0-6.235,0.149-9.353,0.149h-6.831c3.118-0.149,6.235-0.149,9.354-0.149
					H1120.964z"/>
				<path fill="#CECCCC" d="M1198.927,629.29c-1.632,0-3.267,0-4.753,0.146c-2.97,0-5.938,0-8.908,0.148h-2.523
					c1.482-0.148,2.97-0.148,4.453-0.148c2.972,0,5.941-0.146,8.907-0.146H1198.927z"/>
				<path fill="#9B9A98" d="M1120.964,630.474c-3.117,0-6.235,0.149-9.353,0.149c0.888,0,1.779,0,2.522-0.149H1120.964z"/>
				<path fill="#9B9A98" d="M1194.174,629.437c-2.97,0-5.938,0-8.908,0.148c0.596,0,1.338,0,1.93-0.148H1194.174z"/>
				<path fill="#9B9A98" d="M1198.927,629.29c-1.632,0-3.267,0-4.753,0.146c0.743,0,1.338-0.146,1.929-0.146H1198.927z"/>
				<path fill="#9B9A98" d="M1283.868,627.208c-1.632,0-3.267,0-4.898,0.148c0.446,0,0.74,0,1.187-0.148H1283.868z"/>
				<path fill="#9B9A98" d="M1306.44,626.465c-1.631,0-3.267,0-4.898,0.147c0.591,0,1.037,0,1.482-0.147H1306.44z"/>
				<path fill="#9B9A98" d="M1335.104,625.278c-1.932,0.148-3.861,0.148-5.794,0.299c0.446,0,0.893,0,1.189-0.15
					C1332.131,625.427,1333.617,625.427,1335.104,625.278"/>
				<path fill="#9B9A98" d="M1415.59,619.783c-0.893,0.147-1.784,0.296-2.673,0.444c-1.039,0-2.08,0.149-3.27,0.298
					c1.189-0.148,2.378-0.298,3.564-0.446C1414.104,620.079,1414.847,619.931,1415.59,619.783"/>
				<path fill="#CECCCC" d="M744.963,626.465h-1.189c-1.633-0.149-3.265-0.295-4.75-0.295c1.337,0,2.673,0.146,4.008,0.146
					C743.773,626.315,744.37,626.465,744.963,626.465"/>
				<path fill="#CECCCC" d="M753.873,626.91c-3.119-0.149-6.087-0.298-8.91-0.445c2.674,0.147,5.198,0.296,7.869,0.296
					C753.132,626.91,753.577,626.91,753.873,626.91"/>
				<path fill="#CECCCC" d="M822.926,629.437c-1.04-0.146-1.932-0.146-2.822-0.146h2.674L822.926,629.437z"/>
				<path fill="#CECCCC" d="M1120.964,630.474c-3.117,0-6.235,0.149-9.353,0.149h-6.831c3.118-0.149,6.235-0.149,9.354-0.149
					H1120.964z"/>
				<path fill="#CECCCC" d="M1198.927,629.29c-1.632,0-3.267,0-4.753,0.146c-2.97,0-5.938,0-8.908,0.148h-2.523
					c1.482-0.148,2.97-0.148,4.453-0.148c2.972,0,5.941-0.146,8.907-0.146H1198.927z"/>
				<path fill="#CECCCC" d="M1275.997,627.356c-0.294,0.147-0.591,0.147-0.739,0.147c-3.415,0-6.834,0.148-10.397,0.298
					c3.563-0.149,6.982-0.298,10.397-0.445H1275.997z"/>
				<path fill="#CECCCC" d="M1413.212,620.079c-0.146,0-0.146,0-0.295,0.148c-1.039,0-2.08,0.149-3.27,0.298
					C1410.837,620.377,1412.025,620.228,1413.212,620.079"/>
				<path fill="#9B9A98" d="M1285.355,627.059c-0.446,0-1.041,0-1.487,0.149c-1.632,0-3.267,0-4.898,0.148
					c0.446,0,0.74,0,1.187-0.148C1281.94,627.208,1283.72,627.208,1285.355,627.059"/>
				<path fill="#9B9A98" d="M1307.63,626.315c-0.298,0-0.743,0-1.189,0.149c-1.635,0-3.267,0-4.898,0.147
					c0.591,0,1.037,0,1.482-0.147C1304.661,626.465,1306.144,626.465,1307.63,626.315"/>
				<path fill="#9B9A98" d="M1335.104,625.278c-1.932,0.148-3.861,0.148-5.794,0.299c0.446,0,0.893,0,1.189-0.15
					C1332.131,625.427,1333.617,625.427,1335.104,625.278"/>
				<path fill="#9B9A98" d="M1415.59,619.783c-0.893,0.147-1.784,0.296-2.673,0.444c-1.039,0-2.08,0.149-3.27,0.298
					c1.189-0.148,2.378-0.298,3.564-0.446C1414.104,620.079,1414.847,619.931,1415.59,619.783"/>
				<path fill="#CECCCC" d="M676.354,619.634c-0.294,0-0.591-0.148-0.889-0.148c-0.447-0.149-0.893-0.298-1.337-0.446
					c0.593,0.148,1.187,0.297,1.932,0.446C676.206,619.485,676.206,619.634,676.354,619.634"/>
				<path fill="#CECCCC" d="M744.963,626.465h-1.189c-0.296-0.149-0.444-0.149-0.742-0.149
					C743.773,626.315,744.37,626.465,744.963,626.465"/>
				<path fill="#CECCCC" d="M676.354,619.634c-0.294,0-0.591-0.148-0.889-0.148c-0.447-0.149-0.893-0.298-1.337-0.446
					c0.593,0.148,1.187,0.297,1.932,0.446C676.206,619.485,676.206,619.634,676.354,619.634"/>
				<path fill="#CECCCC" d="M744.963,626.465h-1.189c-0.296-0.149-0.444-0.149-0.742-0.149
					C743.773,626.315,744.37,626.465,744.963,626.465"/>
				<path fill="#62AFE1" d="M1275.85,478.708v1.485h-153.994c15.297-72.766-5.198-151.619-61.773-208.048
					c-1.339-1.486-2.824-2.822-4.308-4.159C1172.642,271.401,1267.384,363.027,1275.85,478.708"/>
				<path fill="#93D1F2" d="M1121.855,480.193h-299.97v-1.337c2.82-39.648,15.889-76.625,36.532-108.109
					c34.151-51.974,88.802-89.099,152.51-99.79c12.325-2.08,25.095-3.118,38.017-3.118c2.226,0,4.601,0,6.83,0.15
					c1.483,1.334,2.969,2.67,4.308,4.156C1116.657,328.574,1137.152,407.427,1121.855,480.193"/>
				<path fill="#93D1F2" d="M1285.355,563.206c0,4.605-1.041,9.061-2.97,13.07c-0.298,0.743-0.595,1.334-1.041,2.078
					c-5.199,9.059-15.147,15.295-26.285,15.295c-2.671,0-5.198-0.297-7.573-1.189c-7.87-1.927-14.701-7.127-18.562-14.105
					c-2.82-4.457-4.308-9.651-4.308-15.148c0-8.164,3.267-15.737,8.912-21.085c3.564-4.01,8.466-6.831,13.958-8.168
					c2.375-0.744,4.902-1.041,7.573-1.041C1271.694,532.912,1285.355,546.576,1285.355,563.206"/>
				<path fill="none" stroke="#000100" stroke-width="29.7" stroke-miterlimit="10" d="M1285.355,563.206
					c0,4.605-1.041,9.061-2.97,13.07c-0.298,0.743-0.595,1.334-1.041,2.078c-5.199,9.059-15.147,15.295-26.285,15.295
					c-2.671,0-5.198-0.297-7.573-1.189c-7.87-1.927-14.701-7.127-18.562-14.105c-2.82-4.457-4.308-9.651-4.308-15.148
					c0-8.164,3.267-15.737,8.912-21.085c3.564-4.01,8.466-6.831,13.958-8.168c2.375-0.744,4.902-1.041,7.573-1.041
					C1271.694,532.912,1285.355,546.576,1285.355,563.206z"/>
				<path fill="#93D1F2" d="M1079.757,563.206c0,4.605-1.041,9.061-2.969,13.07c-0.298,0.743-0.596,1.334-1.041,2.078
					c-5.199,9.059-15.147,15.295-26.285,15.295c-2.672,0-5.198-0.297-7.573-1.189c-7.871-1.927-14.702-7.127-18.562-14.105
					c-2.821-4.457-4.308-9.651-4.308-15.148c0-8.164,3.267-15.737,8.912-21.085c3.563-4.01,8.462-6.831,13.958-8.168
					c2.375-0.744,4.901-1.041,7.573-1.041C1066.093,532.912,1079.757,546.576,1079.757,563.206"/>
				<path fill="none" stroke="#000100" stroke-width="29.7" stroke-miterlimit="10" d="M1079.757,563.206
					c0,4.605-1.041,9.061-2.969,13.07c-0.298,0.743-0.596,1.334-1.041,2.078c-5.199,9.059-15.147,15.295-26.285,15.295
					c-2.672,0-5.198-0.297-7.573-1.189c-7.871-1.927-14.702-7.127-18.562-14.105c-2.821-4.457-4.308-9.651-4.308-15.148
					c0-8.164,3.267-15.737,8.912-21.085c3.563-4.01,8.462-6.831,13.958-8.168c2.375-0.744,4.901-1.041,7.573-1.041
					C1066.093,532.912,1079.757,546.576,1079.757,563.206z"/>
				<path fill="#93D1F2" d="M875.569,563.206c0,4.605-1.041,9.061-2.974,13.07c-0.293,0.743-0.591,1.334-1.036,2.078
					c-5.199,9.059-15.147,15.295-26.285,15.295c-2.672,0-5.198-0.297-7.573-1.189c-7.871-1.927-14.702-7.127-18.562-14.105
					c-2.822-4.457-4.308-9.651-4.308-15.148c0-8.164,3.268-15.737,8.911-21.085c3.563-4.01,8.465-6.831,13.959-8.168
					c2.375-0.744,4.901-1.041,7.573-1.041C861.905,532.912,875.569,546.576,875.569,563.206"/>
				<path fill="none" stroke="#000100" stroke-width="29.7" stroke-miterlimit="10" d="M875.569,563.206
					c0,4.605-1.041,9.061-2.974,13.07c-0.293,0.743-0.591,1.334-1.036,2.078c-5.199,9.059-15.147,15.295-26.285,15.295
					c-2.672,0-5.198-0.297-7.573-1.189c-7.871-1.927-14.702-7.127-18.562-14.105c-2.822-4.457-4.308-9.651-4.308-15.148
					c0-8.164,3.268-15.737,8.911-21.085c3.563-4.01,8.465-6.831,13.959-8.168c2.375-0.744,4.901-1.041,7.573-1.041
					C861.905,532.912,875.569,546.576,875.569,563.206z"/>
				
					<path fill="none" stroke="#000000" stroke-width="29.7" stroke-linecap="round" stroke-linejoin="round" stroke-miterlimit="10" d="
					M1428.21,631.96c-4.452,4.456-69.051,8.169-158.746,10.84c-24.055,0.596-49.894,1.189-76.773,1.784
					c-17.521,0.294-35.642,0.591-54.056,0.739c-6.235,0-12.323,0.149-18.562,0.149c-1.779,0.148-3.415,0.148-5.194,0.148
					c-9.655,0.149-19.307,0.149-29.106,0.301c-15.002,0.145-29.997,0.293-45.148,0.293c-45.141,0.298-90.286,0.149-132.457-0.293
					c-17.079-0.151-33.709-0.449-49.601-0.599c-2.375-0.148-4.602-0.148-6.979-0.148c-7.575-0.147-15-0.297-22.275-0.442
					c-88.802-2.229-153.25-6.235-159.787-12.772c-10.541-10.691-11.434-21.232-9.058-29.402c2.525-9.655,9.058-16.188,9.058-16.188
					l151.768-106.177h455.152L1428.21,586.37c0,0,4.307,8.763,5.942,19.008C1435.783,614.289,1435.341,624.833,1428.21,631.96z"/>
				
					<path fill="none" stroke="#000100" stroke-width="29.7" stroke-linecap="round" stroke-linejoin="round" stroke-miterlimit="10" d="
					M1138.635,645.323c-6.235,0.149-12.472,0.149-18.711,0.298c0.148,0,0.148-0.148,0.148-0.148
					C1126.312,645.473,1132.399,645.323,1138.635,645.323z"/>
				
					<path fill="none" stroke="#000100" stroke-width="29.7" stroke-linecap="round" stroke-linejoin="round" stroke-miterlimit="10" d="
					M1269.464,642.8c-24.203,45.146-110.334,78.706-213.54,80.04c-2.23,0.149-4.608,0.149-6.979,0.149
					c-12.922,0-25.694-0.442-38.017-1.483c-13.07-1.041-25.691-2.523-37.868-4.604c-68.758-11.287-122.365-37.571-142.71-70.538
					c-0.443-0.594-0.74-1.041-1.038-1.632c7.276,0.146,14.702,0.295,22.275,0.442c2.375,0,4.603,0,6.979,0.148
					c15.892,0.149,32.521,0.447,49.597,0.596c42.175,0.445,87.317,0.594,132.466,0.296c15.146,0,30.146-0.148,45.144-0.296
					c9.8-0.148,19.451-0.148,29.106-0.298h5.046c6.239-0.148,12.476-0.148,18.711-0.298c18.414-0.148,36.534-0.445,54.056-0.739
					C1219.57,643.989,1245.409,643.396,1269.464,642.8z"/>
				
					<path fill="none" stroke="#000100" stroke-width="29.7" stroke-linecap="round" stroke-linejoin="round" stroke-miterlimit="10" d="
					M1120.072,645.473c0,0,0,0.148-0.148,0.148h-5.046C1116.657,645.621,1118.293,645.621,1120.072,645.473z"/>
				
					<path fill="none" stroke="#000100" stroke-width="29.7" stroke-linecap="round" stroke-linejoin="round" stroke-miterlimit="10" d="
					M1138.635,645.323c-6.235,0.149-12.472,0.149-18.711,0.298h-5.046c1.779,0,3.415,0,5.194-0.148
					C1126.312,645.473,1132.399,645.323,1138.635,645.323z"/>
				
					<path fill="none" stroke="#000000" stroke-width="29.7" stroke-linecap="round" stroke-linejoin="round" stroke-miterlimit="10" d="
					M1275.85,478.708v1.485H821.886v-1.337c2.82-39.648,15.889-76.625,36.532-108.109c34.155-51.974,88.802-89.099,152.505-99.79
					c12.33-2.08,25.1-3.119,38.021-3.119c2.226,0,4.601,0,6.83,0.148C1172.642,271.401,1267.384,363.027,1275.85,478.708z"/>
			</g>
		</g>
	</g>
</g>
</svg>
