<?xml version="1.0" encoding="utf-8"?>
<!-- Generator: Adobe Illustrator 16.0.0, SVG Export Plug-In . SVG Version: 6.00 Build 0)  -->
<!DOCTYPE svg PUBLIC "-//W3C//DTD SVG 1.1//EN" "http://www.w3.org/Graphics/SVG/1.1/DTD/svg11.dtd">
<svg version="1.1" id="Ebene_1" xmlns="http://www.w3.org/2000/svg" xmlns:xlink="http://www.w3.org/1999/xlink" x="0px" y="0px"
	 width="1600px" height="900px" viewBox="0 0 1600 900" enable-background="new 0 0 1600 900" xml:space="preserve">
<rect fill="#F1B31C" width="1600" height="900"/>
<path fill="#FFEA00" d="M1390.603,251.733c0,53.073-43.024,96.097-96.098,96.097s-96.097-43.024-96.097-96.097
	c0-53.074,43.023-96.097,96.097-96.097S1390.603,198.659,1390.603,251.733"/>
<path fill="#FFB300" d="M1343.343,169.024c15.991,17.162,25.787,40.17,25.787,65.478c0,53.072-43.023,96.097-96.097,96.097
	c-17.735,0-34.334-4.824-48.594-13.202c17.525,18.708,42.408,30.433,70.065,30.433c53.073,0,96.098-43.024,96.098-96.097
	C1390.603,216.503,1371.613,185.753,1343.343,169.024"/>
<path fill="none" stroke="#FFFFFF" stroke-width="6.6274" stroke-linecap="round" stroke-linejoin="round" stroke-miterlimit="10" d="
	M1319.986,344.415c1.16-14.539,6.443-21.944,17.983-33.442c10.819-10.779,18.26-24.58,18.26-40.361
	c0-31.397-27.634-56.848-61.725-56.848s-61.724,25.451-61.724,56.848c0,15.781,7.44,29.583,18.26,40.361
	c11.54,11.498,16.823,18.903,17.983,33.442"/>
<circle fill="none" stroke="#000000" stroke-width="6.6274" stroke-linecap="round" stroke-linejoin="round" stroke-miterlimit="10" cx="1294.505" cy="251.733" r="96.097"/>
<path fill="#FD5A44" d="M1389.498,661.292c0,53.071-43.024,96.097-96.098,96.097s-96.097-43.025-96.097-96.097
	c0-53.075,43.023-96.098,96.097-96.098S1389.498,608.217,1389.498,661.292"/>
<path fill="#F02B22" d="M1342.238,578.58c15.991,17.165,25.787,40.174,25.787,65.479c0,53.074-43.023,96.097-96.098,96.097
	c-17.734,0-34.333-4.823-48.594-13.202c17.526,18.709,42.408,30.436,70.066,30.436c53.073,0,96.098-43.025,96.098-96.097
	C1389.498,626.061,1370.509,595.31,1342.238,578.58"/>
<line fill="none" stroke="#000000" stroke-width="6.6274" stroke-linecap="round" stroke-linejoin="round" stroke-miterlimit="10" x1="1197.304" y1="661.292" x2="1389.498" y2="661.292"/>
<line fill="none" stroke="#000000" stroke-width="6.6274" stroke-linecap="round" stroke-linejoin="round" stroke-miterlimit="10" x1="1293.4" y1="565.194" x2="1293.4" y2="757.389"/>
<path fill="none" stroke="#000000" stroke-width="6.6274" stroke-linecap="round" stroke-linejoin="round" stroke-miterlimit="10" d="
	M1356.866,733.449c-18.591-18.494-29.83-43.867-29.83-72.164c0-28.201,11.362-53.661,29.844-72.145"/>
<path fill="none" stroke="#000000" stroke-width="6.6274" stroke-linecap="round" stroke-linejoin="round" stroke-miterlimit="10" d="
	M1229.979,589.095c18.478,18.479,29.886,43.989,29.886,72.19c0,28.271-11.292,53.741-29.855,72.231"/>
<circle fill="none" stroke="#000000" stroke-width="6.6274" stroke-linecap="round" stroke-linejoin="round" stroke-miterlimit="10" cx="1293.401" cy="661.292" r="96.097"/>
<path fill="#B47A31" d="M800.786,142.394c-36.328,21.235-60.73,60.649-60.73,105.763c0,45.21,24.505,84.695,60.957,105.898h0.227
	c36.326-21.235,60.73-60.65,60.73-105.764c0-45.209-24.504-84.693-60.957-105.897"/>
<path fill="#76442A" d="M820.014,156.027c19.175,26.052,30.456,62.142,24.356,96.507c-6.883,38.783-31.324,70.029-63.69,87.031
	c6.241,5.612,13.034,10.62,20.333,14.868h0.227c36.326-21.235,60.73-60.651,60.73-105.766
	C861.97,213.016,844.335,178.4,820.014,156.027"/>
<line fill="none" stroke="#FFFFFF" stroke-width="6.6274" stroke-linecap="round" stroke-linejoin="round" stroke-miterlimit="10" x1="801.019" y1="142.954" x2="801.019" y2="353.531"/>
<line fill="none" stroke="#FFFFFF" stroke-width="6.6274" stroke-linecap="round" stroke-linejoin="round" stroke-miterlimit="10" x1="810.57" y1="248.242" x2="791.454" y2="248.242"/>
<line fill="none" stroke="#FFFFFF" stroke-width="6.6274" stroke-linecap="round" stroke-linejoin="round" stroke-miterlimit="10" x1="810.57" y1="231.673" x2="791.454" y2="231.673"/>
<line fill="none" stroke="#FFFFFF" stroke-width="6.6274" stroke-linecap="round" stroke-linejoin="round" stroke-miterlimit="10" x1="810.57" y1="264.811" x2="791.454" y2="264.811"/>
<line fill="none" stroke="#FFFFFF" stroke-width="6.6274" stroke-linecap="round" stroke-linejoin="round" stroke-miterlimit="10" x1="766.466" y1="323.387" x2="835.664" y2="323.387"/>
<line fill="none" stroke="#FFFFFF" stroke-width="6.6274" stroke-linecap="round" stroke-linejoin="round" stroke-miterlimit="10" x1="760.083" y1="182.158" x2="841.949" y2="182.158"/>
<path fill="none" stroke="#000000" stroke-width="6.6274" stroke-linecap="round" stroke-linejoin="round" stroke-miterlimit="10" d="
	M800.786,142.394c-36.333,21.239-60.74,60.66-60.74,105.784c0,45.214,24.509,84.706,60.966,105.913h0.227
	c36.333-21.239,60.742-60.66,60.742-105.782c0-45.216-24.511-84.708-60.969-105.915"/>
<path fill="#FFFFFF" d="M898.213,661.303c0,5.337-0.431,10.574-1.291,15.674c-2.353,14.548-8.02,28.003-16.203,39.566v0.034
	c-14.051,19.981-35.556,34.364-60.443,39.1c-5.897,1.128-11.963,1.724-18.158,1.724c-1.657,0-3.313-0.032-4.937-0.131h-0.232
	c-1.557-0.1-3.115-0.2-4.671-0.366c-0.134,0-0.266-0.032-0.4-0.032c-1.29-0.131-2.582-0.299-3.875-0.495
	c-0.363-0.068-0.762-0.104-1.125-0.168c-0.996-0.165-1.956-0.331-2.95-0.531c-1.558-0.297-3.115-0.628-4.672-1.026
	c-0.632-0.134-1.292-0.297-1.922-0.463c-0.861-0.232-1.724-0.499-2.585-0.762c-0.762-0.234-1.557-0.467-2.352-0.729
	c-0.796-0.231-1.558-0.497-2.32-0.796c-0.63-0.232-1.26-0.465-1.889-0.697c-0.363-0.099-0.696-0.23-1.061-0.396
	c-1.292-0.532-2.586-1.059-3.843-1.625c-1.724-0.762-3.414-1.59-5.104-2.45c-0.762-0.4-1.491-0.797-2.252-1.229
	c-0.862-0.462-1.69-0.927-2.519-1.424c-0.927-0.562-1.856-1.094-2.783-1.689c-0.265-0.166-0.53-0.363-0.795-0.529
	c-1.292-0.828-2.585-1.724-3.811-2.618c-1.061-0.728-2.088-1.523-3.082-2.285c-0.099-0.067-0.166-0.134-0.265-0.232
	c-0.896-0.695-1.756-1.393-2.584-2.122c-0.43-0.331-0.862-0.697-1.259-1.059c-0.333-0.299-0.63-0.566-0.962-0.863
	c-0.066-0.032-0.099-0.066-0.132-0.099c-0.1-0.102-0.199-0.2-0.299-0.265c-0.066-0.034-0.099-0.102-0.132-0.134
	c-0.067-0.034-0.102-0.066-0.131-0.133c-0.432-0.363-0.829-0.729-1.227-1.125c-0.43-0.398-0.828-0.762-1.194-1.162
	c-0.064-0.064-0.131-0.132-0.165-0.198c-0.332-0.331-0.664-0.631-0.994-0.928c-0.504-0.501-0.967-1.067-1.458-1.588l-0.067-0.068
	c0.002,0.002,0.004,0.004,0.007,0.004c-1.107-1.173-2.221-2.335-3.287-3.583c-0.795-0.927-1.591-1.889-2.355-2.883
	c-1.058-1.357-2.084-2.716-3.08-4.143c-8.151-11.63-13.784-25.149-16.137-39.796c-0.795-4.971-1.193-10.075-1.193-15.278
	c0-20.443,6.362-39.398,17.298-54.975c10.568-15.174,25.45-27.138,42.847-34.129c11.1-4.54,23.226-6.993,35.952-6.993
	c12.692,0,24.82,2.453,35.888,6.959c8.351,3.313,16.103,7.821,23.096,13.321c1.856,1.427,3.678,2.95,5.435,4.572h0.033
	c1.756,1.59,3.446,3.247,5.069,4.971c2.485,2.552,4.773,5.237,6.927,8.089c0.696,0.925,1.424,1.887,2.088,2.849v0.032
	c0,0,0-0.032,0.033,0c1.656,2.285,3.215,4.703,4.605,7.188c0.496,0.829,0.961,1.657,1.426,2.521
	c0.562,1.028,1.093,2.021,1.556,3.046c0.365,0.697,0.697,1.395,1.029,2.124c0.529,1.059,0.993,2.122,1.424,3.181
	c0.53,1.192,0.995,2.384,1.425,3.61c0.365,0.928,0.695,1.854,0.994,2.816c0.265,0.765,0.529,1.559,0.796,2.387
	c0.332,1.061,0.629,2.122,0.927,3.181c0.199,0.764,0.398,1.493,0.562,2.255c0.598,2.352,1.095,4.703,1.459,7.124
	c0.133,0.695,0.232,1.391,0.332,2.12c0.164,1.061,0.299,2.153,0.397,3.214c0.065,0.465,0.133,0.928,0.164,1.358
	c0.101,1.162,0.201,2.321,0.233,3.514c0.066,0.499,0.1,0.962,0.1,1.457C898.181,658.486,898.213,659.879,898.213,661.303"/>
<path fill="#D1CFCE" d="M898.213,661.303c0,5.337-0.431,10.574-1.291,15.674c-2.353,14.548-8.02,28.003-16.203,39.566v0.034
	c-14.051,19.981-35.556,34.364-60.443,39.1c-5.897,1.128-11.963,1.724-18.158,1.724c-1.657,0-3.313-0.032-4.937-0.131h-0.232
	c-1.557-0.1-3.115-0.2-4.671-0.366c-0.134,0-0.266-0.032-0.4-0.032c-1.29-0.131-2.582-0.299-3.875-0.495
	c-0.363-0.068-0.762-0.104-1.125-0.168c-0.996-0.165-1.956-0.331-2.95-0.531c-1.558-0.297-3.115-0.628-4.672-1.026
	c-0.632-0.134-1.292-0.297-1.922-0.463c-0.861-0.232-1.724-0.499-2.585-0.762c-0.762-0.234-1.557-0.467-2.352-0.729
	c-0.796-0.231-1.558-0.497-2.32-0.796c-0.63-0.232-1.26-0.465-1.889-0.697c-0.363-0.099-0.696-0.23-1.061-0.396
	c-1.292-0.532-2.586-1.059-3.843-1.625c-0.862-0.397-1.724-0.794-2.552-1.191c-0.862-0.398-1.69-0.831-2.552-1.259
	c-0.762-0.4-1.491-0.797-2.252-1.229c-0.862-0.462-1.69-0.927-2.519-1.424c-0.927-0.562-1.856-1.094-2.783-1.689
	c-0.265-0.166-0.53-0.363-0.795-0.529c-1.292-0.828-2.585-1.724-3.811-2.618c-1.061-0.728-2.088-1.523-3.082-2.285
	c-0.099-0.067-0.166-0.134-0.265-0.232c-0.896-0.695-1.756-1.393-2.584-2.122c-0.067-0.032-0.133-0.099-0.199-0.166
	c-0.862-0.729-1.724-1.491-2.585-2.253c-0.067-0.034-0.102-0.066-0.131-0.133c-0.863-0.828-1.757-1.623-2.585-2.485
	c-0.862-0.86-1.69-1.722-2.519-2.584c13.221,7.755,28.498,12.493,44.802,13.089c1.259,0.066,2.518,0.102,3.777,0.102
	c22.401,0,43.044-7.656,59.379-20.548c19.852-15.606,33.403-38.869,36.188-65.347c0.364-3.346,0.529-6.758,0.529-10.203
	c0-6.862-0.729-13.521-2.087-19.949v-0.034c-3.678-17.396-12.028-32.972-23.692-45.497c3.512,2.088,6.926,4.407,10.139,6.893
	c1.856,1.459,3.678,2.982,5.435,4.572c0,0,0-0.032,0.033,0c1.756,1.625,3.446,3.247,5.069,4.971
	c3.249,3.415,6.297,7.092,9.015,10.97c1.656,2.319,3.214,4.703,4.639,7.188c0.496,0.829,0.961,1.657,1.426,2.521
	c0.562,1.028,1.093,2.021,1.556,3.046c0.365,0.697,0.697,1.395,1.029,2.124c0.529,1.059,0.993,2.122,1.424,3.181
	c0.53,1.192,0.995,2.384,1.425,3.61c0.365,0.928,0.695,1.854,0.994,2.816c0.265,0.765,0.529,1.559,0.796,2.387
	c0.332,1.061,0.629,2.122,0.927,3.181c0.199,0.764,0.398,1.493,0.562,2.255c0.598,2.352,1.095,4.703,1.459,7.124
	c0.133,0.695,0.232,1.391,0.332,2.12c0.164,1.061,0.299,2.153,0.397,3.214c0.065,0.465,0.133,0.928,0.164,1.358
	c0.101,1.162,0.201,2.321,0.233,3.514c0.066,0.499,0.1,0.962,0.1,1.457C898.181,658.486,898.213,659.879,898.213,661.303"/>
<path fill="none" stroke="#000000" stroke-width="6.6274" stroke-linecap="round" stroke-linejoin="round" stroke-miterlimit="10" d="
	M898.213,661.303c0,5.337-0.431,10.574-1.291,15.674c-2.353,14.548-8.02,28.003-16.203,39.566v0.034
	c-14.051,19.981-35.556,34.364-60.443,39.1c-5.897,1.128-11.963,1.724-18.158,1.724c-1.657,0-3.313-0.032-4.937-0.131h-0.232
	c-1.557-0.1-3.115-0.2-4.671-0.366c-0.134,0-0.266-0.032-0.4-0.032c-1.29-0.131-2.582-0.299-3.875-0.495
	c-0.363-0.068-0.762-0.104-1.125-0.168c-0.996-0.165-1.956-0.331-2.95-0.531c-1.558-0.297-3.115-0.628-4.672-1.026
	c-0.632-0.134-1.292-0.297-1.922-0.463c-0.861-0.232-1.724-0.499-2.585-0.762c-0.762-0.234-1.557-0.467-2.352-0.729
	c-0.796-0.231-1.558-0.497-2.32-0.796c-0.63-0.232-1.26-0.465-1.889-0.697c-0.363-0.099-0.696-0.23-1.061-0.396
	c-1.292-0.532-2.586-1.059-3.843-1.625c-1.724-0.762-3.414-1.59-5.104-2.45c-0.762-0.4-1.491-0.797-2.252-1.229
	c-0.862-0.462-1.69-0.927-2.519-1.424c-0.927-0.562-1.856-1.094-2.783-1.689c-0.265-0.166-0.53-0.363-0.795-0.529
	c-1.292-0.828-2.585-1.724-3.811-2.618c-1.061-0.728-2.088-1.523-3.082-2.285c-0.099-0.067-0.166-0.134-0.265-0.232
	c-0.896-0.695-1.756-1.393-2.584-2.122c-0.43-0.331-0.862-0.697-1.259-1.059c-0.333-0.299-0.63-0.566-0.962-0.863
	c-0.066-0.032-0.099-0.066-0.132-0.099c-0.1-0.102-0.199-0.2-0.299-0.265c-0.066-0.034-0.099-0.102-0.132-0.134
	c-0.067-0.034-0.102-0.066-0.131-0.133c-0.432-0.363-0.829-0.729-1.227-1.125c-0.43-0.398-0.828-0.762-1.194-1.162
	c-0.064-0.064-0.131-0.132-0.165-0.198c-0.332-0.331-0.664-0.631-0.994-0.928c-0.504-0.501-0.967-1.067-1.458-1.588l-0.067-0.068
	c0.002,0.002,0.004,0.004,0.007,0.004c-1.107-1.173-2.221-2.335-3.287-3.583c-0.795-0.927-1.591-1.889-2.355-2.883
	c-1.058-1.357-2.084-2.716-3.08-4.143c-8.151-11.63-13.784-25.149-16.137-39.796c-0.795-4.971-1.193-10.075-1.193-15.278
	c0-20.443,6.362-39.398,17.298-54.975c10.568-15.174,25.45-27.138,42.847-34.129c11.1-4.54,23.226-6.993,35.952-6.993
	c12.692,0,24.82,2.453,35.888,6.959c8.351,3.313,16.103,7.821,23.096,13.321c1.856,1.427,3.678,2.95,5.435,4.572h0.033
	c1.756,1.59,3.446,3.247,5.069,4.971c2.485,2.552,4.773,5.237,6.927,8.089c0.696,0.925,1.424,1.887,2.088,2.849v0.032
	c0,0,0-0.032,0.033,0c1.656,2.285,3.215,4.703,4.605,7.188c0.496,0.829,0.961,1.657,1.426,2.521
	c0.562,1.028,1.093,2.021,1.556,3.046c0.365,0.697,0.697,1.395,1.029,2.124c0.529,1.059,0.993,2.122,1.424,3.181
	c0.53,1.192,0.995,2.384,1.425,3.61c0.365,0.928,0.695,1.854,0.994,2.816c0.265,0.765,0.529,1.559,0.796,2.387
	c0.332,1.061,0.629,2.122,0.927,3.181c0.199,0.764,0.398,1.493,0.562,2.255c0.598,2.352,1.095,4.703,1.459,7.124
	c0.133,0.695,0.232,1.391,0.332,2.12c0.164,1.061,0.299,2.153,0.397,3.214c0.065,0.465,0.133,0.928,0.164,1.358
	c0.101,1.162,0.201,2.321,0.233,3.514c0.066,0.499,0.1,0.962,0.1,1.457C898.181,658.486,898.213,659.879,898.213,661.303z"/>
<path d="M796.274,635.035l-20.398,14.819c-3.484,2.531-4.941,7.021-3.611,11.117l7.791,23.979c1.332,4.096,5.149,6.866,9.455,6.866
	h25.212c4.307,0,8.125-2.771,9.456-6.866l7.791-23.979c1.33-4.096-0.127-8.586-3.612-11.117l-20.396-14.819
	C804.478,632.504,799.757,632.504,796.274,635.035"/>
<path d="M836.183,575.745l-27.87,13.653c-1.953,0.927-4.074,1.39-6.195,1.357c-1.888-0.034-3.777-0.465-5.566-1.293l-28.531-13.586
	c-1.392-0.663-2.121-2.219-1.856-3.678c11.101-4.54,23.229-6.993,35.954-6.993c12.692,0,24.82,2.453,35.888,6.959
	C838.27,573.592,837.574,575.08,836.183,575.745"/>
<path d="M783.925,755.677c-1.558-0.297-3.115-0.628-4.672-1.026c-0.629-0.134-1.292-0.297-1.923-0.463
	c-0.86-0.232-1.723-0.499-2.584-0.762c-0.762-0.234-1.558-0.465-2.352-0.729c-0.796-0.231-1.558-0.497-2.32-0.796
	c-0.63-0.232-1.26-0.465-1.889-0.697c-0.365-0.099-0.696-0.23-1.061-0.396c-1.292-0.532-2.584-1.059-3.843-1.625
	c-1.73-0.764-3.424-1.592-5.099-2.455c-0.763-0.392-1.51-0.803-2.259-1.213c-0.848-0.467-1.687-0.943-2.519-1.436
	c-0.936-0.55-1.868-1.103-2.782-1.683c-0.271-0.173-0.534-0.358-0.802-0.533c-10.373-6.727-19.383-15.372-26.471-25.486
	c0.629-1.125,1.923-1.82,3.347-1.656l30.951,3.778c2.12,0.265,4.109,0.994,5.832,2.153c1.625,1.094,3.016,2.518,4.043,4.209
	l9.345,15.209l7.257,11.862C784.853,753.127,784.754,754.618,783.925,755.677"/>
<path d="M733.06,645.961c-0.462,1.922-1.358,3.744-2.619,5.334l-19.551,24.192c-0.928,1.126-2.419,1.523-3.677,1.094
	c-0.796-4.971-1.192-10.075-1.192-15.278c0-20.443,6.361-39.398,17.296-54.973c1.392,0.166,2.619,1.16,2.916,2.617l6.893,30.918
	C733.589,641.886,733.557,643.973,733.06,645.961"/>
<path d="M880.719,716.543v0.034c-14.051,19.981-35.556,34.364-60.443,39.1c-0.86-1.059-0.961-2.584-0.23-3.809l16.535-26.972
	c1.061-1.727,2.451-3.15,4.108-4.244c1.724-1.127,3.677-1.856,5.765-2.121l30.852-3.778
	C878.762,714.589,880.089,715.351,880.719,716.543"/>
<path d="M898.213,661.303c0,5.337-0.431,10.574-1.291,15.674c-1.194,0.267-2.484-0.129-3.313-1.16l-17.396-21.539l-2.42-2.982
	c-2.584-3.18-3.578-7.389-2.649-11.43l3.512-15.74v-0.034l3.446-15.54c0.265-1.291,1.293-2.287,2.552-2.552c0-0.032,0-0.032,0.033,0
	c1.656,2.285,3.215,4.703,4.605,7.188c0.496,0.829,0.961,1.657,1.426,2.521c0.562,1.028,1.093,2.021,1.556,3.046
	c0.365,0.697,0.697,1.395,1.029,2.124c0.529,1.059,0.993,2.122,1.424,3.181c0.53,1.192,0.995,2.384,1.425,3.61
	c0.365,0.928,0.695,1.854,0.994,2.816c0.265,0.765,0.529,1.559,0.796,2.387c0.332,1.061,0.629,2.122,0.927,3.181
	c0.199,0.764,0.398,1.493,0.562,2.255c0.598,2.352,1.095,4.703,1.459,7.124c0.133,0.695,0.232,1.391,0.332,2.12
	c0.164,1.061,0.299,2.153,0.397,3.214c0.065,0.465,0.133,0.928,0.164,1.358c0.101,1.162,0.201,2.321,0.233,3.514
	c0.066,0.499,0.1,0.962,0.1,1.457C898.181,658.486,898.213,659.879,898.213,661.303"/>
<line fill="none" stroke="#000000" stroke-width="6.6274" stroke-linecap="round" stroke-linejoin="round" stroke-miterlimit="10" x1="802.117" y1="590.763" x2="802.117" y2="633.137"/>
<line fill="none" stroke="#000000" stroke-width="6.6274" stroke-linecap="round" stroke-linejoin="round" stroke-miterlimit="10" x1="831.903" y1="654.644" x2="871.082" y2="645.818"/>
<line fill="none" stroke="#000000" stroke-width="6.6274" stroke-linecap="round" stroke-linejoin="round" stroke-miterlimit="10" x1="820.643" y1="689.86" x2="840.681" y2="720.66"/>
<line fill="none" stroke="#000000" stroke-width="6.6274" stroke-linecap="round" stroke-linejoin="round" stroke-miterlimit="10" x1="783.54" y1="689.821" x2="763.491" y2="720.66"/>
<line fill="none" stroke="#000000" stroke-width="6.6274" stroke-linecap="round" stroke-linejoin="round" stroke-miterlimit="10" x1="772.297" y1="654.74" x2="733.071" y2="645.973"/>
<path fill="#FFFFFF" d="M401.383,253.942c0,53.073-43.024,96.097-96.097,96.097c-53.074,0-96.097-43.024-96.097-96.097
	c0-53.074,43.023-96.097,96.097-96.097C358.359,157.845,401.383,200.868,401.383,253.942"/>
<g opacity="0.2">
	<g>
		<defs>
			<rect id="SVGID_1_" x="339.902" y="185.791" width="36.8" height="143.119"/>
		</defs>
		<clipPath id="SVGID_2_">
			<use xlink:href="#SVGID_1_"  overflow="visible"/>
		</clipPath>
		<path clip-path="url(#SVGID_2_)" fill="none" stroke="#222221" stroke-width="9.9411" stroke-miterlimit="10" d="M373.196,325.384
			c-17.495-17.404-28.325-41.501-28.325-68.128c0-26.537,10.756-50.562,28.147-67.952"/>
	</g>
</g>
<g opacity="0.2">
	<g>
		<defs>
			<rect id="SVGID_3_" x="233.823" y="185.791" width="36.759" height="143.072"/>
		</defs>
		<clipPath id="SVGID_4_">
			<use xlink:href="#SVGID_3_"  overflow="visible"/>
		</clipPath>
		<path clip-path="url(#SVGID_4_)" fill="none" stroke="#222221" stroke-width="9.9411" stroke-miterlimit="10" d="M237.464,189.304
			c17.391,17.39,28.146,41.415,28.146,67.952c0,26.604-10.81,50.683-28.28,68.085"/>
	</g>
</g>
<path fill="#D1CFCE" d="M354.124,171.233c15.991,17.163,25.787,40.171,25.787,65.478c0,53.072-43.023,96.097-96.097,96.097
	c-17.735,0-34.333-4.825-48.594-13.202c17.528,18.708,42.409,30.433,70.066,30.433c53.073,0,96.097-43.024,96.097-96.097
	C401.383,218.712,382.394,187.963,354.124,171.233"/>
<circle fill="none" stroke="#000000" stroke-width="6.6274" stroke-linecap="round" stroke-linejoin="round" stroke-miterlimit="10" cx="305.286" cy="253.942" r="96.097"/>
<path fill="none" stroke="#000000" stroke-width="6.6274" stroke-linecap="round" stroke-linejoin="round" stroke-miterlimit="10" d="
	M373.196,322.071c-17.495-17.404-28.325-41.502-28.325-68.129c0-26.537,10.756-50.562,28.147-67.951"/>
<path fill="none" stroke="#000000" stroke-width="6.6274" stroke-linecap="round" stroke-linejoin="round" stroke-miterlimit="10" d="
	M237.464,185.991c17.391,17.39,28.146,41.414,28.146,67.951c0,26.604-10.753,50.623-28.223,68.023"/>
<polyline fill="none" stroke="#000000" stroke-width="6.6274" stroke-linecap="round" stroke-linejoin="round" stroke-miterlimit="10" points="
	338.243,252.285 344.871,255.599 351.498,252.285 "/>
<polyline fill="none" stroke="#000000" stroke-width="6.6274" stroke-linecap="round" stroke-linejoin="round" stroke-miterlimit="10" points="
	272.238,255.599 265.611,252.285 258.984,255.599 "/>
<polyline fill="none" stroke="#000000" stroke-width="6.6274" stroke-linecap="round" stroke-linejoin="round" stroke-miterlimit="10" points="
	269.505,278.376 263.614,273.884 256.482,275.903 "/>
<polyline fill="none" stroke="#000000" stroke-width="6.6274" stroke-linecap="round" stroke-linejoin="round" stroke-miterlimit="10" points="
	262.212,298.666 257.312,293.106 249.926,293.688 "/>
<polyline fill="none" stroke="#000000" stroke-width="6.6274" stroke-linecap="round" stroke-linejoin="round" stroke-miterlimit="10" points="
	250.933,315.869 248.372,308.917 241.271,306.794 "/>
<polyline fill="none" stroke="#000000" stroke-width="6.6274" stroke-linecap="round" stroke-linejoin="round" stroke-miterlimit="10" points="
	253.16,193.756 246.036,195.795 243.393,202.718 "/>
<polyline fill="none" stroke="#000000" stroke-width="6.6274" stroke-linecap="round" stroke-linejoin="round" stroke-miterlimit="10" points="
	263.823,212.799 256.538,213.162 252.276,219.307 "/>
<polyline fill="none" stroke="#000000" stroke-width="6.6274" stroke-linecap="round" stroke-linejoin="round" stroke-miterlimit="10" points="
	270.408,233.386 263.102,232.146 257.728,237.245 "/>
<polyline fill="none" stroke="#000000" stroke-width="6.6274" stroke-linecap="round" stroke-linejoin="round" stroke-miterlimit="10" points="
	340.977,229.507 346.87,233.998 354,231.979 "/>
<polyline fill="none" stroke="#000000" stroke-width="6.6274" stroke-linecap="round" stroke-linejoin="round" stroke-miterlimit="10" points="
	348.272,209.216 353.17,214.776 360.556,214.194 "/>
<polyline fill="none" stroke="#000000" stroke-width="6.6274" stroke-linecap="round" stroke-linejoin="round" stroke-miterlimit="10" points="
	359.959,191.511 362.521,198.463 369.62,200.584 "/>
<polyline fill="none" stroke="#000000" stroke-width="6.6274" stroke-linecap="round" stroke-linejoin="round" stroke-miterlimit="10" points="
	356.796,313.436 363.92,311.395 366.562,304.474 "/>
<polyline fill="none" stroke="#000000" stroke-width="6.6274" stroke-linecap="round" stroke-linejoin="round" stroke-miterlimit="10" points="
	346.648,295.266 354.048,294.899 358.197,288.758 "/>
<polyline fill="none" stroke="#000000" stroke-width="6.6274" stroke-linecap="round" stroke-linejoin="round" stroke-miterlimit="10" points="
	340.075,274.494 347.379,275.735 352.755,270.636 "/>
<path fill="#F2A842" d="M380.076,580.407c-40.854-10.712-86.15-0.058-118.171,31.964c-32.088,32.088-42.719,77.506-31.897,118.428
	l0.163,0.158c40.853,10.715,86.149,0.058,118.171-31.963c32.086-32.085,42.718-77.506,31.896-118.426"/>
<path fill="#E07022" d="M384.714,604.02c-4.862,31.982-22.408,65.479-51.018,85.466c-32.292,22.557-71.67,27.37-106.577,16.505
	c0.445,8.381,1.706,16.725,3.864,24.889l0.161,0.161c40.702,10.671,85.83,0.056,117.73-31.844
	C374.084,673.985,386.09,637.039,384.714,604.02"/>
<path fill="none" stroke="#000000" stroke-width="6.6274" stroke-linecap="round" stroke-linejoin="round" stroke-miterlimit="10" d="
	M380.076,580.407c-40.854-10.712-86.15-0.058-118.171,31.964c-32.088,32.088-42.719,77.506-31.897,118.428l0.163,0.158
	c40.853,10.715,86.149,0.058,118.171-31.963c32.086-32.085,42.718-77.506,31.896-118.426"/>
<line fill="none" stroke="#000000" stroke-width="6.6274" stroke-linecap="round" stroke-linejoin="round" stroke-miterlimit="10" x1="380.242" y1="580.571" x2="230.012" y2="730.801"/>
<line fill="none" stroke="#000000" stroke-width="6.6274" stroke-linecap="round" stroke-linejoin="round" stroke-miterlimit="10" x1="323.597" y1="650.725" x2="310.079" y2="637.207"/>
<line fill="none" stroke="#000000" stroke-width="6.6274" stroke-linecap="round" stroke-linejoin="round" stroke-miterlimit="10" x1="335.314" y1="639.01" x2="321.797" y2="625.49"/>
<line fill="none" stroke="#000000" stroke-width="6.6274" stroke-linecap="round" stroke-linejoin="round" stroke-miterlimit="10" x1="311.882" y1="662.439" x2="298.364" y2="648.925"/>
<line fill="none" stroke="#000000" stroke-width="6.6274" stroke-linecap="round" stroke-linejoin="round" stroke-miterlimit="10" x1="300.166" y1="674.157" x2="286.648" y2="660.641"/>
<line fill="none" stroke="#000000" stroke-width="6.6274" stroke-linecap="round" stroke-linejoin="round" stroke-miterlimit="10" x1="288.45" y1="685.873" x2="274.933" y2="672.355"/>
<path fill="none" stroke="#000000" stroke-width="6.6274" stroke-linecap="round" stroke-linejoin="round" stroke-miterlimit="10" d="
	M272.038,656.137c0-5.962,1.574-11.559,4.33-16.391"/>
<path fill="none" stroke="#000000" stroke-width="6.6274" stroke-linecap="round" stroke-linejoin="round" stroke-miterlimit="10" d="
	M321.718,684.855c-4.868,2.81-10.519,4.419-16.543,4.419"/>
<path fill="none" stroke="#000000" stroke-width="6.6274" stroke-linecap="round" stroke-linejoin="round" stroke-miterlimit="10" d="
	M338.312,656.137c0,6.029-1.611,11.684-4.427,16.555"/>
<path fill="none" stroke="#000000" stroke-width="6.6274" stroke-linecap="round" stroke-linejoin="round" stroke-miterlimit="10" d="
	M288.508,627.489c4.83-2.816,10.436-4.445,16.42-4.489"/>
</svg>
