<?xml version="1.0" encoding="UTF-8"?>
<svg xmlns="http://www.w3.org/2000/svg" xmlns:xlink="http://www.w3.org/1999/xlink" width="630px" height="px" viewBox="0 0 628 147" version="1.1">
<g id="surface1">
<path style=" stroke:none;fill-rule:nonzero;fill:rgb(11.372549%,11.372549%,10.588235%);fill-opacity:1;" d="M 613.523438 53.453125 C 613.523438 55.914062 611.53125 57.910156 609.070312 57.910156 C 606.609375 57.910156 604.617188 55.914062 604.617188 53.453125 C 604.617188 50.996094 606.609375 49 609.070312 49 C 611.53125 49 613.523438 50.996094 613.523438 53.453125 Z M 613.523438 53.453125 "/>
<path style=" stroke:none;fill-rule:nonzero;fill:rgb(11.372549%,11.372549%,10.588235%);fill-opacity:1;" d="M 535.804688 53.453125 C 535.804688 57.144531 532.8125 60.136719 529.125 60.136719 C 525.433594 60.136719 522.441406 57.144531 522.441406 53.453125 C 522.441406 49.765625 525.433594 46.773438 529.125 46.773438 C 532.8125 46.773438 535.804688 49.765625 535.804688 53.453125 Z M 535.804688 53.453125 "/>
<path style=" stroke:none;fill-rule:nonzero;fill:rgb(11.372549%,11.372549%,10.588235%);fill-opacity:1;" d="M 53.445312 106.910156 C 23.976562 106.910156 0 82.929688 0 53.453125 C 0 23.980469 23.976562 0 53.445312 0 C 82.917969 0 106.894531 23.980469 106.894531 53.453125 C 106.894531 82.929688 82.917969 106.910156 53.445312 106.910156 Z M 53.445312 4.453125 C 26.433594 4.453125 4.453125 26.433594 4.453125 53.453125 C 4.453125 80.472656 26.433594 102.453125 53.445312 102.453125 C 80.460938 102.453125 102.441406 80.472656 102.441406 53.453125 C 102.441406 26.433594 80.460938 4.453125 53.445312 4.453125 Z M 53.445312 4.453125 "/>
<path style=" stroke:none;fill-rule:nonzero;fill:rgb(11.372549%,11.372549%,10.588235%);fill-opacity:1;" d="M 209.332031 89.089844 C 189.6875 89.089844 173.703125 73.105469 173.703125 53.453125 C 173.703125 33.804688 189.6875 17.816406 209.332031 17.816406 C 228.980469 17.816406 244.964844 33.804688 244.964844 53.453125 C 244.964844 73.105469 228.980469 89.089844 209.332031 89.089844 Z M 209.332031 22.273438 C 192.140625 22.273438 178.15625 36.261719 178.15625 53.453125 C 178.15625 70.648438 192.140625 84.636719 209.332031 84.636719 C 226.523438 84.636719 240.511719 70.648438 240.511719 53.453125 C 240.511719 36.261719 226.523438 22.273438 209.332031 22.273438 Z M 209.332031 22.273438 "/>
<path style=" stroke:none;fill-rule:nonzero;fill:rgb(11.372549%,11.372549%,10.588235%);fill-opacity:1;" d="M 336.269531 77.953125 C 322.761719 77.953125 311.773438 66.964844 311.773438 53.453125 C 311.773438 39.945312 322.761719 28.953125 336.269531 28.953125 C 349.777344 28.953125 360.765625 39.945312 360.765625 53.453125 C 360.765625 66.964844 349.777344 77.953125 336.269531 77.953125 Z M 336.269531 33.410156 C 325.21875 33.410156 316.230469 42.402344 316.230469 53.453125 C 316.230469 64.507812 325.21875 73.5 336.269531 73.5 C 347.320312 73.5 356.3125 64.507812 356.3125 53.453125 C 356.3125 42.402344 347.320312 33.410156 336.269531 33.410156 Z M 336.269531 33.410156 "/>
<path style=" stroke:none;fill-rule:nonzero;fill:rgb(11.372549%,11.372549%,10.588235%);fill-opacity:1;" d="M 443.164062 66.816406 C 435.792969 66.816406 429.800781 60.824219 429.800781 53.453125 C 429.800781 46.085938 435.792969 40.089844 443.164062 40.089844 C 450.53125 40.089844 456.523438 46.085938 456.523438 53.453125 C 456.523438 60.824219 450.53125 66.816406 443.164062 66.816406 Z M 443.164062 44.546875 C 438.25 44.546875 434.253906 48.542969 434.253906 53.453125 C 434.253906 58.367188 438.25 62.363281 443.164062 62.363281 C 448.074219 62.363281 452.070312 58.367188 452.070312 53.453125 C 452.070312 48.542969 448.074219 44.546875 443.164062 44.546875 Z M 443.164062 44.546875 "/>
<path style=" stroke:none;fill-rule:nonzero;fill:rgb(0%,0%,0%);fill-opacity:1;" d="M 34.070312 141.398438 C 33.113281 141.398438 32.351562 141.054688 31.789062 140.371094 C 31.222656 139.683594 30.9375 138.707031 30.9375 137.4375 C 30.9375 136.824219 31.03125 136.273438 31.214844 135.777344 C 31.394531 135.285156 31.636719 134.867188 31.9375 134.523438 C 32.238281 134.183594 32.585938 133.917969 32.980469 133.730469 C 33.375 133.542969 33.792969 133.449219 34.226562 133.449219 C 34.664062 133.449219 35.042969 133.527344 35.367188 133.683594 C 35.6875 133.839844 36.015625 134.054688 36.347656 134.324219 L 36.285156 133.027344 L 36.285156 130.109375 L 37.578125 130.109375 L 37.578125 141.210938 L 36.519531 141.210938 L 36.410156 140.324219 L 36.363281 140.324219 C 36.0625 140.613281 35.714844 140.867188 35.324219 141.078125 C 34.9375 141.292969 34.519531 141.398438 34.070312 141.398438 Z M 34.351562 140.324219 C 34.703125 140.324219 35.035156 140.238281 35.347656 140.066406 C 35.660156 139.894531 35.972656 139.632812 36.285156 139.277344 L 36.285156 135.316406 C 35.960938 135.027344 35.652344 134.820312 35.355469 134.703125 C 35.058594 134.585938 34.753906 134.523438 34.441406 134.523438 C 34.140625 134.523438 33.859375 134.59375 33.59375 134.738281 C 33.328125 134.875 33.097656 135.074219 32.898438 135.328125 C 32.699219 135.585938 32.542969 135.886719 32.429688 136.238281 C 32.316406 136.59375 32.257812 136.988281 32.257812 137.425781 C 32.257812 138.339844 32.441406 139.050781 32.804688 139.5625 C 33.167969 140.070312 33.6875 140.324219 34.351562 140.324219 Z M 34.351562 140.324219 "/>
<path style=" stroke:none;fill-rule:nonzero;fill:rgb(0%,0%,0%);fill-opacity:1;" d="M 40.804688 135.769531 C 40.542969 135.769531 40.324219 135.679688 40.144531 135.5 C 39.960938 135.316406 39.867188 135.085938 39.867188 134.804688 C 39.867188 134.5 39.960938 134.261719 40.144531 134.078125 C 40.324219 133.898438 40.546875 133.804688 40.804688 133.804688 C 41.054688 133.804688 41.269531 133.898438 41.453125 134.078125 C 41.636719 134.261719 41.726562 134.5 41.726562 134.804688 C 41.726562 135.085938 41.636719 135.3125 41.453125 135.5 C 41.269531 135.683594 41.054688 135.769531 40.804688 135.769531 Z M 40.804688 141.398438 C 40.542969 141.398438 40.324219 141.308594 40.144531 141.125 C 39.960938 140.945312 39.867188 140.710938 39.867188 140.433594 C 39.867188 140.128906 39.960938 139.886719 40.144531 139.707031 C 40.324219 139.523438 40.546875 139.433594 40.804688 139.433594 C 41.054688 139.433594 41.269531 139.523438 41.453125 139.707031 C 41.636719 139.886719 41.726562 140.128906 41.726562 140.433594 C 41.726562 140.710938 41.636719 140.941406 41.453125 141.125 C 41.269531 141.308594 41.054688 141.398438 40.804688 141.398438 Z M 40.804688 141.398438 "/>
<path style=" stroke:none;fill-rule:nonzero;fill:rgb(0%,0%,0%);fill-opacity:1;" d="M 50.59375 141.210938 L 50.59375 138.46875 L 46.121094 138.46875 L 46.121094 137.625 L 50.375 131.265625 L 51.808594 131.265625 L 51.808594 137.4375 L 53.167969 137.4375 L 53.167969 138.46875 L 51.808594 138.46875 L 51.808594 141.210938 Z M 47.476562 137.4375 L 50.59375 137.4375 L 50.59375 134.554688 C 50.59375 134.285156 50.601562 133.964844 50.617188 133.59375 C 50.632812 133.226562 50.652344 132.90625 50.671875 132.636719 L 50.609375 132.636719 C 50.484375 132.875 50.355469 133.109375 50.21875 133.335938 C 50.085938 133.5625 49.945312 133.800781 49.800781 134.039062 Z M 47.476562 137.4375 "/>
<path style=" stroke:none;fill-rule:nonzero;fill:rgb(0%,0%,0%);fill-opacity:1;" d="M 57.78125 141.398438 C 57.292969 141.398438 56.839844 141.300781 56.425781 141.101562 C 56.007812 140.902344 55.648438 140.605469 55.339844 140.207031 C 55.03125 139.808594 54.792969 139.308594 54.617188 138.710938 C 54.4375 138.109375 54.351562 137.410156 54.351562 136.613281 C 54.351562 135.617188 54.457031 134.765625 54.664062 134.0625 C 54.871094 133.363281 55.152344 132.789062 55.503906 132.347656 C 55.859375 131.902344 56.257812 131.582031 56.710938 131.378906 C 57.164062 131.175781 57.640625 131.074219 58.140625 131.074219 C 58.679688 131.074219 59.144531 131.175781 59.53125 131.378906 C 59.921875 131.582031 60.257812 131.835938 60.539062 132.136719 L 59.824219 132.929688 C 59.617188 132.691406 59.367188 132.503906 59.082031 132.359375 C 58.796875 132.222656 58.496094 132.148438 58.1875 132.148438 C 57.84375 132.148438 57.515625 132.222656 57.203125 132.367188 C 56.890625 132.515625 56.617188 132.753906 56.378906 133.085938 C 56.140625 133.414062 55.945312 133.851562 55.800781 134.386719 C 55.65625 134.921875 55.578125 135.585938 55.566406 136.375 C 55.878906 135.992188 56.242188 135.683594 56.65625 135.464844 C 57.074219 135.238281 57.484375 135.128906 57.890625 135.128906 C 58.753906 135.128906 59.441406 135.386719 59.957031 135.894531 C 60.46875 136.40625 60.730469 137.171875 60.730469 138.203125 C 60.730469 138.679688 60.652344 139.113281 60.496094 139.503906 C 60.339844 139.894531 60.125 140.226562 59.855469 140.507812 C 59.585938 140.789062 59.273438 141.007812 58.921875 141.164062 C 58.566406 141.320312 58.1875 141.398438 57.78125 141.398438 Z M 57.78125 140.386719 C 58.03125 140.386719 58.257812 140.332031 58.464844 140.230469 C 58.671875 140.125 58.855469 139.980469 59.011719 139.785156 C 59.167969 139.59375 59.289062 139.367188 59.378906 139.101562 C 59.464844 138.835938 59.511719 138.535156 59.511719 138.203125 C 59.511719 137.550781 59.363281 137.035156 59.058594 136.660156 C 58.753906 136.285156 58.292969 136.101562 57.671875 136.101562 C 57.347656 136.101562 57 136.199219 56.625 136.40625 C 56.253906 136.609375 55.910156 136.941406 55.597656 137.410156 C 55.679688 138.386719 55.90625 139.125 56.277344 139.628906 C 56.648438 140.132812 57.148438 140.386719 57.78125 140.386719 Z M 57.78125 140.386719 "/>
<path style=" stroke:none;fill-rule:nonzero;fill:rgb(0%,0%,0%);fill-opacity:1;" d="M 62.628906 144.40625 L 62.628906 133.632812 L 63.691406 133.632812 L 63.800781 134.507812 L 63.847656 134.507812 C 64.191406 134.21875 64.566406 133.96875 64.976562 133.761719 C 65.386719 133.550781 65.816406 133.445312 66.261719 133.445312 C 66.75 133.445312 67.183594 133.539062 67.558594 133.722656 C 67.929688 133.902344 68.242188 134.160156 68.492188 134.5 C 68.742188 134.839844 68.929688 135.246094 69.058594 135.714844 C 69.191406 136.191406 69.253906 136.722656 69.253906 137.316406 C 69.253906 137.960938 69.164062 138.535156 68.988281 139.039062 C 68.808594 139.542969 68.570312 139.972656 68.273438 140.324219 C 67.972656 140.675781 67.621094 140.945312 67.226562 141.125 C 66.832031 141.308594 66.417969 141.398438 65.980469 141.398438 C 65.625 141.398438 65.277344 141.320312 64.925781 141.164062 C 64.578125 141.011719 64.226562 140.796875 63.875 140.527344 L 63.90625 141.851562 L 63.90625 144.40625 Z M 65.761719 140.324219 C 66.074219 140.324219 66.363281 140.253906 66.628906 140.113281 C 66.894531 139.972656 67.121094 139.773438 67.3125 139.519531 C 67.503906 139.265625 67.65625 138.949219 67.765625 138.578125 C 67.875 138.203125 67.929688 137.78125 67.929688 137.3125 C 67.929688 136.898438 67.894531 136.519531 67.820312 136.175781 C 67.75 135.832031 67.632812 135.539062 67.472656 135.292969 C 67.3125 135.046875 67.101562 134.859375 66.847656 134.722656 C 66.59375 134.585938 66.292969 134.519531 65.9375 134.519531 C 65.613281 134.519531 65.289062 134.609375 64.960938 134.785156 C 64.636719 134.960938 64.28125 135.214844 63.910156 135.550781 L 63.910156 139.523438 C 64.253906 139.816406 64.582031 140.023438 64.90625 140.140625 C 65.226562 140.261719 65.511719 140.324219 65.761719 140.324219 Z M 65.761719 140.324219 "/>
<path style=" stroke:none;fill-rule:nonzero;fill:rgb(0%,0%,0%);fill-opacity:1;" d="M 69.957031 141.210938 L 72.4375 137.25 L 70.144531 133.632812 L 71.53125 133.632812 L 72.546875 135.300781 C 72.660156 135.511719 72.777344 135.722656 72.902344 135.933594 C 73.027344 136.148438 73.15625 136.355469 73.292969 136.566406 L 73.355469 136.566406 C 73.46875 136.355469 73.585938 136.148438 73.699219 135.933594 C 73.8125 135.722656 73.929688 135.511719 74.042969 135.300781 L 74.960938 133.632812 L 76.300781 133.632812 L 74.011719 137.394531 L 76.472656 141.214844 L 75.085938 141.214844 L 73.980469 139.453125 C 73.84375 139.222656 73.710938 138.996094 73.574219 138.765625 C 73.4375 138.535156 73.296875 138.3125 73.152344 138.09375 L 73.089844 138.09375 C 72.953125 138.3125 72.824219 138.53125 72.699219 138.757812 C 72.574219 138.980469 72.449219 139.210938 72.324219 139.453125 L 71.296875 141.214844 L 69.957031 141.214844 Z M 69.957031 141.210938 "/>
<path style=" stroke:none;fill-rule:nonzero;fill:rgb(0%,0%,0%);fill-opacity:1;" d="M 189.957031 141.398438 C 189 141.398438 188.238281 141.054688 187.675781 140.371094 C 187.109375 139.683594 186.824219 138.707031 186.824219 137.4375 C 186.824219 136.824219 186.917969 136.273438 187.097656 135.777344 C 187.28125 135.285156 187.523438 134.867188 187.824219 134.523438 C 188.125 134.183594 188.472656 133.917969 188.867188 133.730469 C 189.261719 133.542969 189.679688 133.449219 190.113281 133.449219 C 190.550781 133.449219 190.929688 133.527344 191.253906 133.683594 C 191.574219 133.839844 191.902344 134.054688 192.234375 134.324219 L 192.171875 133.027344 L 192.171875 130.109375 L 193.464844 130.109375 L 193.464844 141.210938 L 192.40625 141.210938 L 192.296875 140.324219 L 192.25 140.324219 C 191.949219 140.613281 191.601562 140.867188 191.210938 141.078125 C 190.824219 141.292969 190.402344 141.398438 189.957031 141.398438 Z M 190.238281 140.324219 C 190.589844 140.324219 190.921875 140.238281 191.234375 140.066406 C 191.546875 139.894531 191.859375 139.632812 192.171875 139.277344 L 192.171875 135.316406 C 191.847656 135.027344 191.539062 134.820312 191.242188 134.703125 C 190.945312 134.585938 190.640625 134.523438 190.328125 134.523438 C 190.027344 134.523438 189.746094 134.59375 189.480469 134.738281 C 189.214844 134.875 188.984375 135.074219 188.785156 135.328125 C 188.585938 135.585938 188.429688 135.886719 188.316406 136.238281 C 188.203125 136.59375 188.144531 136.988281 188.144531 137.425781 C 188.144531 138.339844 188.328125 139.050781 188.691406 139.5625 C 189.054688 140.070312 189.574219 140.324219 190.238281 140.324219 Z M 190.238281 140.324219 "/>
<path style=" stroke:none;fill-rule:nonzero;fill:rgb(0%,0%,0%);fill-opacity:1;" d="M 196.691406 135.769531 C 196.429688 135.769531 196.210938 135.679688 196.03125 135.5 C 195.847656 135.316406 195.753906 135.085938 195.753906 134.804688 C 195.753906 134.5 195.847656 134.261719 196.03125 134.078125 C 196.210938 133.898438 196.433594 133.804688 196.691406 133.804688 C 196.941406 133.804688 197.15625 133.898438 197.339844 134.078125 C 197.523438 134.261719 197.613281 134.5 197.613281 134.804688 C 197.613281 135.085938 197.523438 135.3125 197.339844 135.5 C 197.15625 135.683594 196.941406 135.769531 196.691406 135.769531 Z M 196.691406 141.398438 C 196.429688 141.398438 196.210938 141.308594 196.03125 141.125 C 195.847656 140.945312 195.753906 140.710938 195.753906 140.433594 C 195.753906 140.128906 195.847656 139.886719 196.03125 139.707031 C 196.210938 139.523438 196.433594 139.433594 196.691406 139.433594 C 196.941406 139.433594 197.15625 139.523438 197.339844 139.707031 C 197.523438 139.886719 197.613281 140.128906 197.613281 140.433594 C 197.613281 140.710938 197.523438 140.941406 197.339844 141.125 C 197.15625 141.308594 196.941406 141.398438 196.691406 141.398438 Z M 196.691406 141.398438 "/>
<path style=" stroke:none;fill-rule:nonzero;fill:rgb(0%,0%,0%);fill-opacity:1;" d="M 205.421875 141.398438 C 205.027344 141.398438 204.664062 141.359375 204.339844 141.28125 C 204.011719 141.203125 203.710938 141.101562 203.441406 140.96875 C 203.171875 140.835938 202.929688 140.691406 202.71875 140.523438 C 202.503906 140.359375 202.3125 140.183594 202.148438 139.996094 L 202.804688 139.152344 C 203.105469 139.464844 203.453125 139.742188 203.855469 139.980469 C 204.257812 140.21875 204.753906 140.339844 205.34375 140.339844 C 205.949219 140.339844 206.441406 140.171875 206.824219 139.847656 C 207.207031 139.519531 207.402344 139.074219 207.402344 138.511719 C 207.402344 138.21875 207.347656 137.953125 207.238281 137.710938 C 207.128906 137.46875 206.949219 137.253906 206.699219 137.078125 C 206.453125 136.902344 206.125 136.765625 205.71875 136.671875 C 205.3125 136.578125 204.816406 136.535156 204.222656 136.535156 L 204.222656 135.550781 C 204.753906 135.550781 205.199219 135.503906 205.554688 135.414062 C 205.914062 135.316406 206.207031 135.1875 206.429688 135.023438 C 206.652344 134.855469 206.808594 134.660156 206.902344 134.429688 C 206.996094 134.199219 207.042969 133.957031 207.042969 133.695312 C 207.042969 133.207031 206.890625 132.824219 206.582031 132.542969 C 206.277344 132.261719 205.859375 132.121094 205.328125 132.121094 C 204.914062 132.121094 204.53125 132.214844 204.183594 132.402344 C 203.835938 132.589844 203.511719 132.832031 203.210938 133.136719 L 202.523438 132.324219 C 202.90625 131.960938 203.332031 131.664062 203.792969 131.429688 C 204.257812 131.199219 204.785156 131.078125 205.375 131.078125 C 205.808594 131.078125 206.210938 131.136719 206.574219 131.25 C 206.9375 131.363281 207.253906 131.53125 207.515625 131.742188 C 207.78125 131.953125 207.984375 132.21875 208.132812 132.53125 C 208.277344 132.84375 208.351562 133.203125 208.351562 133.605469 C 208.351562 134.207031 208.183594 134.699219 207.851562 135.085938 C 207.519531 135.472656 207.082031 135.769531 206.542969 135.976562 L 206.542969 136.035156 C 206.847656 136.109375 207.125 136.214844 207.382812 136.355469 C 207.644531 136.496094 207.871094 136.675781 208.070312 136.886719 C 208.269531 137.101562 208.421875 137.34375 208.53125 137.625 C 208.640625 137.90625 208.695312 138.21875 208.695312 138.5625 C 208.695312 138.996094 208.609375 139.394531 208.4375 139.746094 C 208.265625 140.101562 208.03125 140.398438 207.738281 140.640625 C 207.441406 140.886719 207.09375 141.074219 206.699219 141.203125 C 206.304688 141.332031 205.878906 141.398438 205.421875 141.398438 Z M 205.421875 141.398438 "/>
<path style=" stroke:none;fill-rule:nonzero;fill:rgb(0%,0%,0%);fill-opacity:1;" d="M 213.371094 141.398438 C 212.363281 141.398438 211.578125 140.953125 211.015625 140.058594 C 210.457031 139.164062 210.175781 137.878906 210.175781 136.207031 C 210.175781 134.535156 210.457031 133.261719 211.015625 132.386719 C 211.578125 131.515625 212.363281 131.078125 213.371094 131.078125 C 214.367188 131.078125 215.148438 131.515625 215.710938 132.386719 C 216.269531 133.261719 216.550781 134.535156 216.550781 136.207031 C 216.550781 137.882812 216.269531 139.164062 215.710938 140.058594 C 215.148438 140.949219 214.367188 141.398438 213.371094 141.398438 Z M 213.371094 140.371094 C 213.660156 140.371094 213.925781 140.289062 214.160156 140.128906 C 214.394531 139.96875 214.59375 139.71875 214.765625 139.378906 C 214.9375 139.042969 215.070312 138.609375 215.164062 138.085938 C 215.257812 137.5625 215.304688 136.933594 215.304688 136.207031 C 215.304688 135.480469 215.257812 134.855469 215.164062 134.335938 C 215.070312 133.816406 214.9375 133.390625 214.765625 133.066406 C 214.59375 132.738281 214.394531 132.496094 214.160156 132.339844 C 213.925781 132.1875 213.664062 132.109375 213.371094 132.109375 C 213.078125 132.109375 212.8125 132.1875 212.574219 132.339844 C 212.335938 132.496094 212.128906 132.738281 211.957031 133.066406 C 211.789062 133.390625 211.65625 133.816406 211.5625 134.335938 C 211.46875 134.855469 211.421875 135.480469 211.421875 136.207031 C 211.421875 137.660156 211.601562 138.71875 211.957031 139.378906 C 212.320312 140.039062 212.789062 140.371094 213.371094 140.371094 Z M 213.371094 140.371094 "/>
<path style=" stroke:none;fill-rule:nonzero;fill:rgb(0%,0%,0%);fill-opacity:1;" d="M 218.515625 144.40625 L 218.515625 133.632812 L 219.578125 133.632812 L 219.6875 134.507812 L 219.734375 134.507812 C 220.074219 134.21875 220.453125 133.96875 220.863281 133.761719 C 221.273438 133.550781 221.703125 133.445312 222.148438 133.445312 C 222.636719 133.445312 223.070312 133.539062 223.441406 133.722656 C 223.816406 133.902344 224.128906 134.160156 224.378906 134.5 C 224.628906 134.839844 224.816406 135.246094 224.945312 135.714844 C 225.078125 136.191406 225.140625 136.722656 225.140625 137.316406 C 225.140625 137.960938 225.050781 138.535156 224.875 139.039062 C 224.695312 139.542969 224.457031 139.972656 224.15625 140.324219 C 223.859375 140.675781 223.507812 140.945312 223.113281 141.125 C 222.71875 141.308594 222.304688 141.398438 221.867188 141.398438 C 221.511719 141.398438 221.164062 141.320312 220.8125 141.164062 C 220.464844 141.011719 220.113281 140.796875 219.761719 140.527344 L 219.792969 141.851562 L 219.792969 144.40625 Z M 221.648438 140.324219 C 221.960938 140.324219 222.25 140.253906 222.515625 140.113281 C 222.78125 139.972656 223.007812 139.773438 223.199219 139.519531 C 223.390625 139.265625 223.542969 138.949219 223.652344 138.578125 C 223.761719 138.203125 223.816406 137.78125 223.816406 137.3125 C 223.816406 136.898438 223.78125 136.519531 223.707031 136.175781 C 223.636719 135.832031 223.519531 135.539062 223.359375 135.292969 C 223.199219 135.046875 222.988281 134.859375 222.734375 134.722656 C 222.480469 134.585938 222.179688 134.519531 221.824219 134.519531 C 221.5 134.519531 221.175781 134.609375 220.847656 134.785156 C 220.523438 134.960938 220.167969 135.214844 219.796875 135.550781 L 219.796875 139.523438 C 220.136719 139.816406 220.46875 140.023438 220.792969 140.140625 C 221.113281 140.261719 221.398438 140.324219 221.648438 140.324219 Z M 221.648438 140.324219 "/>
<path style=" stroke:none;fill-rule:nonzero;fill:rgb(0%,0%,0%);fill-opacity:1;" d="M 225.84375 141.210938 L 228.324219 137.25 L 226.03125 133.632812 L 227.417969 133.632812 L 228.433594 135.300781 C 228.546875 135.511719 228.664062 135.722656 228.789062 135.933594 C 228.914062 136.148438 229.042969 136.355469 229.179688 136.566406 L 229.242188 136.566406 C 229.355469 136.355469 229.472656 136.148438 229.585938 135.933594 C 229.699219 135.722656 229.816406 135.511719 229.929688 135.300781 L 230.847656 133.632812 L 232.1875 133.632812 L 229.898438 137.394531 L 232.359375 141.214844 L 230.972656 141.214844 L 229.867188 139.453125 C 229.730469 139.222656 229.597656 138.996094 229.460938 138.765625 C 229.324219 138.535156 229.183594 138.3125 229.039062 138.09375 L 228.976562 138.09375 C 228.839844 138.3125 228.710938 138.53125 228.585938 138.757812 C 228.460938 138.980469 228.339844 139.210938 228.214844 139.453125 L 227.183594 141.214844 L 225.84375 141.214844 Z M 225.84375 141.210938 "/>
<path style=" stroke:none;fill-rule:nonzero;fill:rgb(0%,0%,0%);fill-opacity:1;" d="M 316.894531 141.398438 C 315.9375 141.398438 315.175781 141.054688 314.609375 140.371094 C 314.042969 139.683594 313.761719 138.707031 313.761719 137.4375 C 313.761719 136.824219 313.851562 136.273438 314.035156 135.777344 C 314.21875 135.285156 314.457031 134.867188 314.757812 134.523438 C 315.0625 134.183594 315.410156 133.917969 315.804688 133.730469 C 316.199219 133.542969 316.613281 133.449219 317.054688 133.449219 C 317.492188 133.449219 317.867188 133.527344 318.191406 133.683594 C 318.515625 133.839844 318.839844 134.054688 319.171875 134.324219 L 319.109375 133.027344 L 319.109375 130.109375 L 320.40625 130.109375 L 320.40625 141.210938 L 319.34375 141.210938 L 319.234375 140.324219 L 319.1875 140.324219 C 318.882812 140.613281 318.539062 140.867188 318.148438 141.078125 C 317.757812 141.292969 317.339844 141.398438 316.894531 141.398438 Z M 317.171875 140.324219 C 317.523438 140.324219 317.863281 140.238281 318.171875 140.066406 C 318.480469 139.894531 318.792969 139.632812 319.105469 139.277344 L 319.105469 135.316406 C 318.785156 135.027344 318.472656 134.820312 318.179688 134.703125 C 317.882812 134.585938 317.578125 134.523438 317.265625 134.523438 C 316.964844 134.523438 316.679688 134.59375 316.417969 134.738281 C 316.152344 134.875 315.917969 135.074219 315.722656 135.328125 C 315.523438 135.582031 315.371094 135.886719 315.253906 136.238281 C 315.140625 136.59375 315.085938 136.988281 315.085938 137.425781 C 315.085938 138.339844 315.265625 139.050781 315.628906 139.5625 C 315.996094 140.066406 316.507812 140.324219 317.171875 140.324219 Z M 317.171875 140.324219 "/>
<path style=" stroke:none;fill-rule:nonzero;fill:rgb(0%,0%,0%);fill-opacity:1;" d="M 323.628906 135.769531 C 323.367188 135.769531 323.144531 135.679688 322.964844 135.5 C 322.78125 135.316406 322.695312 135.085938 322.695312 134.804688 C 322.695312 134.5 322.78125 134.261719 322.964844 134.078125 C 323.144531 133.898438 323.367188 133.804688 323.628906 133.804688 C 323.875 133.804688 324.09375 133.898438 324.273438 134.078125 C 324.457031 134.261719 324.546875 134.5 324.546875 134.804688 C 324.546875 135.085938 324.457031 135.3125 324.273438 135.5 C 324.09375 135.683594 323.875 135.769531 323.628906 135.769531 Z M 323.628906 141.398438 C 323.367188 141.398438 323.144531 141.308594 322.964844 141.125 C 322.78125 140.945312 322.695312 140.710938 322.695312 140.433594 C 322.695312 140.128906 322.78125 139.886719 322.964844 139.707031 C 323.144531 139.523438 323.367188 139.433594 323.628906 139.433594 C 323.875 139.433594 324.09375 139.523438 324.273438 139.707031 C 324.457031 139.886719 324.546875 140.128906 324.546875 140.433594 C 324.546875 140.710938 324.457031 140.941406 324.273438 141.125 C 324.09375 141.308594 323.875 141.398438 323.628906 141.398438 Z M 323.628906 141.398438 "/>
<path style=" stroke:none;fill-rule:nonzero;fill:rgb(0%,0%,0%);fill-opacity:1;" d="M 329.300781 141.210938 L 329.300781 140.449219 C 330.050781 139.699219 330.714844 139.023438 331.296875 138.421875 C 331.878906 137.820312 332.367188 137.261719 332.761719 136.742188 C 333.160156 136.230469 333.457031 135.757812 333.667969 135.324219 C 333.875 134.890625 333.976562 134.472656 333.976562 134.070312 C 333.976562 133.5 333.824219 133.03125 333.511719 132.667969 C 333.195312 132.304688 332.722656 132.121094 332.089844 132.121094 C 331.671875 132.121094 331.292969 132.238281 330.9375 132.472656 C 330.585938 132.707031 330.257812 132.988281 329.96875 133.324219 L 329.238281 132.589844 C 329.652344 132.132812 330.09375 131.765625 330.5625 131.492188 C 331.03125 131.214844 331.589844 131.078125 332.246094 131.078125 C 333.167969 131.078125 333.898438 131.34375 334.429688 131.878906 C 334.957031 132.414062 335.21875 133.125 335.21875 134.007812 C 335.21875 134.472656 335.121094 134.945312 334.917969 135.417969 C 334.714844 135.894531 334.433594 136.378906 334.074219 136.882812 C 333.71875 137.390625 333.289062 137.914062 332.796875 138.457031 C 332.304688 139.003906 331.761719 139.582031 331.167969 140.195312 C 331.4375 140.175781 331.71875 140.152344 332.011719 140.132812 C 332.304688 140.113281 332.578125 140.101562 332.835938 140.101562 L 335.722656 140.101562 L 335.722656 141.210938 Z M 329.300781 141.210938 "/>
<path style=" stroke:none;fill-rule:nonzero;fill:rgb(0%,0%,0%);fill-opacity:1;" d="M 340.308594 141.398438 C 339.300781 141.398438 338.515625 140.953125 337.953125 140.058594 C 337.390625 139.164062 337.109375 137.878906 337.109375 136.207031 C 337.109375 134.535156 337.390625 133.261719 337.953125 132.386719 C 338.515625 131.515625 339.296875 131.078125 340.308594 131.078125 C 341.304688 131.078125 342.085938 131.515625 342.644531 132.386719 C 343.207031 133.261719 343.488281 134.535156 343.488281 136.207031 C 343.488281 137.882812 343.207031 139.164062 342.644531 140.058594 C 342.085938 140.949219 341.304688 141.398438 340.308594 141.398438 Z M 340.308594 140.371094 C 340.597656 140.371094 340.863281 140.289062 341.097656 140.128906 C 341.328125 139.96875 341.53125 139.71875 341.703125 139.378906 C 341.875 139.042969 342.007812 138.609375 342.101562 138.085938 C 342.191406 137.5625 342.238281 136.933594 342.238281 136.207031 C 342.238281 135.480469 342.191406 134.855469 342.101562 134.335938 C 342.007812 133.816406 341.875 133.390625 341.703125 133.066406 C 341.53125 132.738281 341.328125 132.496094 341.097656 132.339844 C 340.863281 132.1875 340.597656 132.109375 340.308594 132.109375 C 340.015625 132.109375 339.753906 132.1875 339.515625 132.339844 C 339.277344 132.496094 339.070312 132.738281 338.898438 133.066406 C 338.726562 133.390625 338.59375 133.816406 338.5 134.335938 C 338.40625 134.855469 338.363281 135.480469 338.363281 136.207031 C 338.363281 137.660156 338.539062 138.71875 338.898438 139.378906 C 339.253906 140.039062 339.726562 140.371094 340.308594 140.371094 Z M 340.308594 140.371094 "/>
<path style=" stroke:none;fill-rule:nonzero;fill:rgb(0%,0%,0%);fill-opacity:1;" d="M 345.453125 144.40625 L 345.453125 133.632812 L 346.511719 133.632812 L 346.621094 134.507812 L 346.667969 134.507812 C 347.011719 134.21875 347.386719 133.96875 347.800781 133.761719 C 348.210938 133.550781 348.640625 133.445312 349.085938 133.445312 C 349.574219 133.445312 350.003906 133.539062 350.378906 133.722656 C 350.753906 133.902344 351.066406 134.160156 351.316406 134.5 C 351.5625 134.839844 351.753906 135.246094 351.886719 135.714844 C 352.015625 136.191406 352.078125 136.722656 352.078125 137.316406 C 352.078125 137.960938 351.988281 138.535156 351.816406 139.039062 C 351.636719 139.542969 351.398438 139.972656 351.097656 140.324219 C 350.796875 140.675781 350.449219 140.945312 350.054688 141.125 C 349.65625 141.308594 349.242188 141.398438 348.804688 141.398438 C 348.453125 141.398438 348.101562 141.320312 347.75 141.164062 C 347.402344 141.011719 347.050781 140.796875 346.699219 140.527344 L 346.730469 141.851562 L 346.730469 144.40625 Z M 348.585938 140.324219 C 348.898438 140.324219 349.1875 140.253906 349.453125 140.113281 C 349.714844 139.972656 349.945312 139.773438 350.140625 139.519531 C 350.332031 139.265625 350.480469 138.949219 350.589844 138.578125 C 350.699219 138.203125 350.753906 137.78125 350.753906 137.3125 C 350.753906 136.898438 350.714844 136.519531 350.644531 136.175781 C 350.570312 135.832031 350.453125 135.539062 350.292969 135.292969 C 350.132812 135.046875 349.925781 134.859375 349.671875 134.722656 C 349.414062 134.585938 349.113281 134.519531 348.757812 134.519531 C 348.433594 134.519531 348.113281 134.609375 347.78125 134.785156 C 347.457031 134.960938 347.105469 135.214844 346.730469 135.550781 L 346.730469 139.523438 C 347.074219 139.816406 347.40625 140.023438 347.730469 140.140625 C 348.050781 140.261719 348.335938 140.324219 348.585938 140.324219 Z M 348.585938 140.324219 "/>
<path style=" stroke:none;fill-rule:nonzero;fill:rgb(0%,0%,0%);fill-opacity:1;" d="M 352.78125 141.210938 L 355.257812 137.25 L 352.96875 133.632812 L 354.355469 133.632812 L 355.367188 135.300781 C 355.480469 135.511719 355.601562 135.722656 355.722656 135.933594 C 355.851562 136.148438 355.980469 136.355469 356.117188 136.566406 L 356.175781 136.566406 C 356.292969 136.355469 356.40625 136.148438 356.519531 135.933594 C 356.628906 135.722656 356.75 135.511719 356.863281 135.300781 L 357.78125 133.632812 L 359.121094 133.632812 L 356.832031 137.394531 L 359.292969 141.214844 L 357.90625 141.214844 L 356.800781 139.453125 C 356.664062 139.222656 356.53125 138.996094 356.394531 138.765625 C 356.257812 138.535156 356.117188 138.3125 355.976562 138.09375 L 355.910156 138.09375 C 355.773438 138.3125 355.648438 138.53125 355.523438 138.757812 C 355.398438 138.980469 355.273438 139.210938 355.148438 139.453125 L 354.117188 141.214844 L 352.78125 141.214844 Z M 352.78125 141.210938 "/>
<path style=" stroke:none;fill-rule:nonzero;fill:rgb(0%,0%,0%);fill-opacity:1;" d="M 423.785156 141.398438 C 422.832031 141.398438 422.070312 141.054688 421.503906 140.371094 C 420.9375 139.683594 420.652344 138.707031 420.652344 137.4375 C 420.652344 136.824219 420.746094 136.273438 420.925781 135.777344 C 421.109375 135.285156 421.347656 134.867188 421.652344 134.523438 C 421.953125 134.183594 422.300781 133.917969 422.699219 133.730469 C 423.089844 133.542969 423.503906 133.449219 423.945312 133.449219 C 424.382812 133.449219 424.757812 133.527344 425.082031 133.683594 C 425.40625 133.839844 425.730469 134.054688 426.066406 134.324219 L 426.003906 133.027344 L 426.003906 130.109375 L 427.296875 130.109375 L 427.296875 141.210938 L 426.234375 141.210938 L 426.125 140.324219 L 426.078125 140.324219 C 425.773438 140.613281 425.433594 140.867188 425.039062 141.078125 C 424.652344 141.292969 424.234375 141.398438 423.785156 141.398438 Z M 424.066406 140.324219 C 424.417969 140.324219 424.753906 140.238281 425.066406 140.066406 C 425.375 139.894531 425.6875 139.632812 426 139.277344 L 426 135.316406 C 425.675781 135.027344 425.367188 134.820312 425.070312 134.703125 C 424.773438 134.585938 424.46875 134.523438 424.160156 134.523438 C 423.859375 134.523438 423.574219 134.59375 423.308594 134.738281 C 423.042969 134.875 422.8125 135.074219 422.617188 135.328125 C 422.417969 135.582031 422.261719 135.886719 422.148438 136.238281 C 422.035156 136.59375 421.976562 136.988281 421.976562 137.425781 C 421.976562 138.339844 422.160156 139.050781 422.523438 139.5625 C 422.890625 140.066406 423.402344 140.324219 424.066406 140.324219 Z M 424.066406 140.324219 "/>
<path style=" stroke:none;fill-rule:nonzero;fill:rgb(0%,0%,0%);fill-opacity:1;" d="M 430.523438 135.769531 C 430.261719 135.769531 430.039062 135.679688 429.859375 135.5 C 429.675781 135.316406 429.585938 135.085938 429.585938 134.804688 C 429.585938 134.5 429.675781 134.261719 429.859375 134.078125 C 430.039062 133.898438 430.261719 133.804688 430.523438 133.804688 C 430.769531 133.804688 430.988281 133.898438 431.167969 134.078125 C 431.347656 134.261719 431.441406 134.5 431.441406 134.804688 C 431.441406 135.085938 431.347656 135.3125 431.167969 135.5 C 430.988281 135.683594 430.769531 135.769531 430.523438 135.769531 Z M 430.523438 141.398438 C 430.261719 141.398438 430.039062 141.308594 429.859375 141.125 C 429.675781 140.945312 429.585938 140.710938 429.585938 140.433594 C 429.585938 140.128906 429.675781 139.886719 429.859375 139.707031 C 430.039062 139.523438 430.261719 139.433594 430.523438 139.433594 C 430.769531 139.433594 430.988281 139.523438 431.167969 139.707031 C 431.347656 139.886719 431.441406 140.128906 431.441406 140.433594 C 431.441406 140.710938 431.347656 140.941406 431.167969 141.125 C 430.988281 141.308594 430.769531 141.398438 430.523438 141.398438 Z M 430.523438 141.398438 "/>
<path style=" stroke:none;fill-rule:nonzero;fill:rgb(0%,0%,0%);fill-opacity:1;" d="M 436.804688 141.210938 L 436.804688 140.152344 L 439.078125 140.152344 L 439.078125 132.824219 L 437.269531 132.824219 L 437.269531 131.996094 C 437.726562 131.914062 438.125 131.8125 438.460938 131.691406 C 438.796875 131.570312 439.101562 131.429688 439.371094 131.265625 L 440.351562 131.265625 L 440.351562 140.152344 L 442.414062 140.152344 L 442.414062 141.210938 Z M 436.804688 141.210938 "/>
<path style=" stroke:none;fill-rule:nonzero;fill:rgb(0%,0%,0%);fill-opacity:1;" d="M 447.203125 141.398438 C 446.195312 141.398438 445.40625 140.953125 444.847656 140.058594 C 444.285156 139.164062 444.003906 137.878906 444.003906 136.207031 C 444.003906 134.535156 444.285156 133.261719 444.847656 132.386719 C 445.40625 131.515625 446.191406 131.078125 447.203125 131.078125 C 448.199219 131.078125 448.976562 131.515625 449.539062 132.386719 C 450.101562 133.261719 450.382812 134.535156 450.382812 136.207031 C 450.382812 137.882812 450.101562 139.164062 449.539062 140.058594 C 448.976562 140.949219 448.199219 141.398438 447.203125 141.398438 Z M 447.203125 140.371094 C 447.492188 140.371094 447.753906 140.289062 447.992188 140.128906 C 448.222656 139.96875 448.425781 139.71875 448.597656 139.378906 C 448.769531 139.042969 448.898438 138.609375 448.996094 138.085938 C 449.085938 137.5625 449.132812 136.933594 449.132812 136.207031 C 449.132812 135.480469 449.085938 134.855469 448.996094 134.335938 C 448.898438 133.816406 448.769531 133.390625 448.597656 133.066406 C 448.425781 132.738281 448.222656 132.496094 447.992188 132.339844 C 447.757812 132.1875 447.492188 132.109375 447.203125 132.109375 C 446.910156 132.109375 446.644531 132.1875 446.40625 132.339844 C 446.167969 132.496094 445.964844 132.738281 445.789062 133.066406 C 445.621094 133.390625 445.488281 133.816406 445.394531 134.335938 C 445.300781 134.855469 445.257812 135.480469 445.257812 136.207031 C 445.257812 137.660156 445.433594 138.71875 445.789062 139.378906 C 446.148438 140.039062 446.621094 140.371094 447.203125 140.371094 Z M 447.203125 140.371094 "/>
<path style=" stroke:none;fill-rule:nonzero;fill:rgb(0%,0%,0%);fill-opacity:1;" d="M 452.347656 144.40625 L 452.347656 133.632812 L 453.40625 133.632812 L 453.515625 134.507812 L 453.5625 134.507812 C 453.90625 134.21875 454.28125 133.96875 454.695312 133.761719 C 455.105469 133.550781 455.535156 133.445312 455.980469 133.445312 C 456.46875 133.445312 456.898438 133.539062 457.273438 133.722656 C 457.648438 133.902344 457.960938 134.160156 458.207031 134.5 C 458.457031 134.839844 458.648438 135.246094 458.777344 135.714844 C 458.910156 136.191406 458.972656 136.722656 458.972656 137.316406 C 458.972656 137.960938 458.882812 138.535156 458.710938 139.039062 C 458.53125 139.542969 458.289062 139.972656 457.992188 140.324219 C 457.691406 140.675781 457.34375 140.945312 456.949219 141.125 C 456.550781 141.308594 456.136719 141.398438 455.699219 141.398438 C 455.347656 141.398438 454.996094 141.320312 454.644531 141.164062 C 454.296875 141.011719 453.945312 140.796875 453.59375 140.527344 L 453.625 141.851562 L 453.625 144.40625 Z M 455.480469 140.324219 C 455.792969 140.324219 456.082031 140.253906 456.347656 140.113281 C 456.609375 139.972656 456.839844 139.773438 457.03125 139.519531 C 457.222656 139.265625 457.375 138.949219 457.480469 138.578125 C 457.59375 138.203125 457.648438 137.78125 457.648438 137.3125 C 457.648438 136.898438 457.609375 136.519531 457.539062 136.175781 C 457.464844 135.832031 457.347656 135.539062 457.1875 135.292969 C 457.027344 135.046875 456.820312 134.859375 456.566406 134.722656 C 456.308594 134.585938 456.007812 134.519531 455.652344 134.519531 C 455.328125 134.519531 455.007812 134.609375 454.675781 134.785156 C 454.351562 134.960938 453.996094 135.214844 453.625 135.550781 L 453.625 139.523438 C 453.964844 139.816406 454.300781 140.023438 454.621094 140.140625 C 454.945312 140.261719 455.230469 140.324219 455.480469 140.324219 Z M 455.480469 140.324219 "/>
<path style=" stroke:none;fill-rule:nonzero;fill:rgb(0%,0%,0%);fill-opacity:1;" d="M 459.671875 141.210938 L 462.152344 137.25 L 459.859375 133.632812 L 461.25 133.632812 L 462.261719 135.300781 C 462.375 135.511719 462.496094 135.722656 462.617188 135.933594 C 462.746094 136.148438 462.875 136.355469 463.007812 136.566406 L 463.070312 136.566406 C 463.1875 136.355469 463.300781 136.148438 463.414062 135.933594 C 463.523438 135.722656 463.640625 135.511719 463.753906 135.300781 L 464.675781 133.632812 L 466.015625 133.632812 L 463.726562 137.394531 L 466.1875 141.214844 L 464.800781 141.214844 L 463.695312 139.453125 C 463.558594 139.222656 463.425781 138.996094 463.289062 138.765625 C 463.148438 138.535156 463.011719 138.3125 462.871094 138.09375 L 462.804688 138.09375 C 462.667969 138.3125 462.542969 138.53125 462.417969 138.757812 C 462.289062 138.980469 462.164062 139.210938 462.042969 139.453125 L 461.011719 141.214844 L 459.671875 141.214844 Z M 459.671875 141.210938 "/>
<path style=" stroke:none;fill-rule:nonzero;fill:rgb(0%,0%,0%);fill-opacity:1;" d="M 509.714844 141.398438 C 508.753906 141.398438 507.996094 141.054688 507.429688 140.371094 C 506.863281 139.683594 506.582031 138.707031 506.582031 137.4375 C 506.582031 136.824219 506.671875 136.273438 506.855469 135.777344 C 507.035156 135.285156 507.277344 134.867188 507.578125 134.523438 C 507.878906 134.183594 508.226562 133.917969 508.621094 133.730469 C 509.019531 133.542969 509.433594 133.449219 509.871094 133.449219 C 510.304688 133.449219 510.6875 133.527344 511.007812 133.683594 C 511.332031 133.839844 511.660156 134.054688 511.988281 134.324219 L 511.929688 133.027344 L 511.929688 130.109375 L 513.222656 130.109375 L 513.222656 141.210938 L 512.164062 141.210938 L 512.054688 140.324219 L 512.007812 140.324219 C 511.703125 140.613281 511.359375 140.867188 510.96875 141.078125 C 510.578125 141.292969 510.160156 141.398438 509.714844 141.398438 Z M 509.992188 140.324219 C 510.347656 140.324219 510.679688 140.238281 510.992188 140.066406 C 511.304688 139.894531 511.613281 139.632812 511.925781 139.277344 L 511.925781 135.316406 C 511.605469 135.027344 511.296875 134.820312 511 134.703125 C 510.703125 134.585938 510.398438 134.523438 510.085938 134.523438 C 509.785156 134.523438 509.503906 134.59375 509.238281 134.738281 C 508.972656 134.875 508.742188 135.074219 508.542969 135.328125 C 508.347656 135.582031 508.191406 135.886719 508.078125 136.238281 C 507.964844 136.59375 507.90625 136.988281 507.90625 137.425781 C 507.90625 138.339844 508.085938 139.050781 508.453125 139.5625 C 508.816406 140.066406 509.332031 140.324219 509.992188 140.324219 Z M 509.992188 140.324219 "/>
<path style=" stroke:none;fill-rule:nonzero;fill:rgb(0%,0%,0%);fill-opacity:1;" d="M 516.449219 135.769531 C 516.1875 135.769531 515.96875 135.679688 515.785156 135.5 C 515.605469 135.316406 515.511719 135.085938 515.511719 134.804688 C 515.511719 134.5 515.605469 134.261719 515.785156 134.078125 C 515.96875 133.898438 516.1875 133.804688 516.449219 133.804688 C 516.695312 133.804688 516.914062 133.898438 517.09375 134.078125 C 517.277344 134.261719 517.371094 134.5 517.371094 134.804688 C 517.371094 135.085938 517.277344 135.3125 517.09375 135.5 C 516.914062 135.683594 516.695312 135.769531 516.449219 135.769531 Z M 516.449219 141.398438 C 516.1875 141.398438 515.96875 141.308594 515.785156 141.125 C 515.605469 140.945312 515.511719 140.710938 515.511719 140.433594 C 515.511719 140.128906 515.605469 139.886719 515.785156 139.707031 C 515.96875 139.523438 516.1875 139.433594 516.449219 139.433594 C 516.695312 139.433594 516.914062 139.523438 517.09375 139.707031 C 517.277344 139.886719 517.371094 140.128906 517.371094 140.433594 C 517.371094 140.710938 517.277344 140.941406 517.09375 141.125 C 516.914062 141.308594 516.695312 141.398438 516.449219 141.398438 Z M 516.449219 141.398438 "/>
<path style=" stroke:none;fill-rule:nonzero;fill:rgb(0%,0%,0%);fill-opacity:1;" d="M 525.675781 141.398438 C 525.1875 141.398438 524.734375 141.300781 524.320312 141.101562 C 523.902344 140.902344 523.542969 140.605469 523.238281 140.207031 C 522.933594 139.808594 522.691406 139.308594 522.515625 138.710938 C 522.335938 138.109375 522.25 137.410156 522.25 136.613281 C 522.25 135.617188 522.351562 134.765625 522.5625 134.0625 C 522.769531 133.363281 523.050781 132.789062 523.40625 132.347656 C 523.757812 131.90625 524.160156 131.582031 524.613281 131.378906 C 525.0625 131.175781 525.539062 131.074219 526.039062 131.074219 C 526.582031 131.074219 527.042969 131.175781 527.433594 131.378906 C 527.824219 131.582031 528.160156 131.835938 528.441406 132.136719 L 527.722656 132.929688 C 527.515625 132.691406 527.269531 132.503906 526.980469 132.359375 C 526.695312 132.222656 526.398438 132.148438 526.085938 132.148438 C 525.742188 132.148438 525.414062 132.222656 525.105469 132.367188 C 524.796875 132.515625 524.519531 132.753906 524.28125 133.085938 C 524.042969 133.414062 523.847656 133.851562 523.703125 134.386719 C 523.554688 134.921875 523.476562 135.585938 523.46875 136.375 C 523.78125 135.992188 524.144531 135.683594 524.558594 135.464844 C 524.976562 135.238281 525.386719 135.128906 525.792969 135.128906 C 526.65625 135.128906 527.34375 135.386719 527.859375 135.894531 C 528.371094 136.40625 528.632812 137.171875 528.632812 138.203125 C 528.632812 138.679688 528.554688 139.113281 528.398438 139.503906 C 528.242188 139.894531 528.03125 140.226562 527.761719 140.507812 C 527.488281 140.789062 527.175781 141.007812 526.824219 141.164062 C 526.460938 141.320312 526.082031 141.398438 525.675781 141.398438 Z M 525.675781 140.386719 C 525.921875 140.386719 526.15625 140.332031 526.363281 140.230469 C 526.570312 140.125 526.75 139.980469 526.90625 139.785156 C 527.0625 139.59375 527.1875 139.367188 527.273438 139.101562 C 527.363281 138.835938 527.410156 138.535156 527.410156 138.203125 C 527.410156 137.550781 527.257812 137.035156 526.957031 136.660156 C 526.652344 136.285156 526.191406 136.101562 525.570312 136.101562 C 525.246094 136.101562 524.898438 136.199219 524.523438 136.40625 C 524.152344 136.609375 523.808594 136.941406 523.492188 137.410156 C 523.574219 138.386719 523.804688 139.125 524.171875 139.628906 C 524.539062 140.132812 525.042969 140.386719 525.675781 140.386719 Z M 525.675781 140.386719 "/>
<path style=" stroke:none;fill-rule:nonzero;fill:rgb(0%,0%,0%);fill-opacity:1;" d="M 530.527344 144.40625 L 530.527344 133.632812 L 531.585938 133.632812 L 531.695312 134.507812 L 531.742188 134.507812 C 532.085938 134.21875 532.460938 133.96875 532.875 133.761719 C 533.285156 133.550781 533.714844 133.445312 534.160156 133.445312 C 534.648438 133.445312 535.078125 133.539062 535.453125 133.722656 C 535.828125 133.902344 536.140625 134.160156 536.386719 134.5 C 536.636719 134.839844 536.828125 135.246094 536.957031 135.714844 C 537.089844 136.191406 537.152344 136.722656 537.152344 137.316406 C 537.152344 137.960938 537.066406 138.535156 536.890625 139.039062 C 536.710938 139.542969 536.46875 139.972656 536.171875 140.324219 C 535.871094 140.675781 535.523438 140.945312 535.128906 141.125 C 534.730469 141.308594 534.316406 141.398438 533.878906 141.398438 C 533.527344 141.398438 533.175781 141.320312 532.824219 141.164062 C 532.476562 141.011719 532.128906 140.796875 531.769531 140.527344 L 531.804688 141.851562 L 531.804688 144.40625 Z M 533.65625 140.324219 C 533.972656 140.324219 534.257812 140.253906 534.523438 140.113281 C 534.789062 139.972656 535.019531 139.773438 535.210938 139.519531 C 535.402344 139.265625 535.550781 138.949219 535.660156 138.578125 C 535.773438 138.203125 535.824219 137.78125 535.824219 137.3125 C 535.824219 136.898438 535.789062 136.519531 535.714844 136.175781 C 535.640625 135.832031 535.527344 135.539062 535.367188 135.292969 C 535.207031 135.046875 535 134.859375 534.742188 134.722656 C 534.488281 134.585938 534.183594 134.519531 533.832031 134.519531 C 533.507812 134.519531 533.183594 134.609375 532.855469 134.785156 C 532.527344 134.960938 532.175781 135.214844 531.800781 135.550781 L 531.800781 139.523438 C 532.144531 139.816406 532.480469 140.023438 532.800781 140.140625 C 533.121094 140.257812 533.410156 140.324219 533.65625 140.324219 Z M 533.65625 140.324219 "/>
<path style=" stroke:none;fill-rule:nonzero;fill:rgb(0%,0%,0%);fill-opacity:1;" d="M 537.851562 141.210938 L 540.328125 137.25 L 538.039062 133.632812 L 539.425781 133.632812 L 540.4375 135.300781 C 540.554688 135.511719 540.671875 135.722656 540.796875 135.933594 C 540.921875 136.148438 541.050781 136.355469 541.1875 136.566406 L 541.25 136.566406 C 541.363281 136.355469 541.480469 136.148438 541.589844 135.933594 C 541.707031 135.722656 541.820312 135.511719 541.933594 135.300781 L 542.855469 133.632812 L 544.195312 133.632812 L 541.902344 137.394531 L 544.363281 141.214844 L 542.976562 141.214844 L 541.871094 139.453125 C 541.738281 139.222656 541.601562 138.996094 541.46875 138.765625 C 541.328125 138.535156 541.1875 138.3125 541.046875 138.09375 L 540.984375 138.09375 C 540.847656 138.3125 540.722656 138.53125 540.59375 138.757812 C 540.46875 138.980469 540.34375 139.210938 540.21875 139.453125 L 539.191406 141.214844 L 537.851562 141.214844 Z M 537.851562 141.210938 "/>
<path style=" stroke:none;fill-rule:nonzero;fill:rgb(0%,0%,0%);fill-opacity:1;" d="M 593.492188 141.398438 C 592.535156 141.398438 591.773438 141.054688 591.207031 140.371094 C 590.644531 139.683594 590.359375 138.707031 590.359375 137.4375 C 590.359375 136.824219 590.449219 136.273438 590.632812 135.777344 C 590.8125 135.285156 591.050781 134.867188 591.355469 134.523438 C 591.660156 134.183594 592.003906 133.917969 592.402344 133.730469 C 592.796875 133.542969 593.210938 133.449219 593.648438 133.449219 C 594.089844 133.449219 594.464844 133.527344 594.789062 133.683594 C 595.109375 133.839844 595.433594 134.054688 595.769531 134.324219 L 595.707031 133.027344 L 595.707031 130.109375 L 597 130.109375 L 597 141.210938 L 595.9375 141.210938 L 595.828125 140.324219 L 595.78125 140.324219 C 595.480469 140.613281 595.136719 140.867188 594.746094 141.078125 C 594.359375 141.292969 593.9375 141.398438 593.492188 141.398438 Z M 593.773438 140.324219 C 594.125 140.324219 594.460938 140.238281 594.769531 140.066406 C 595.078125 139.894531 595.394531 139.632812 595.703125 139.277344 L 595.703125 135.316406 C 595.382812 135.027344 595.074219 134.820312 594.777344 134.703125 C 594.480469 134.585938 594.175781 134.523438 593.867188 134.523438 C 593.5625 134.523438 593.28125 134.59375 593.015625 134.738281 C 592.75 134.875 592.519531 135.074219 592.320312 135.328125 C 592.121094 135.582031 591.96875 135.886719 591.851562 136.238281 C 591.738281 136.59375 591.683594 136.988281 591.683594 137.425781 C 591.683594 138.339844 591.863281 139.050781 592.226562 139.5625 C 592.59375 140.066406 593.109375 140.324219 593.773438 140.324219 Z M 593.773438 140.324219 "/>
<path style=" stroke:none;fill-rule:nonzero;fill:rgb(0%,0%,0%);fill-opacity:1;" d="M 600.226562 135.769531 C 599.96875 135.769531 599.746094 135.679688 599.5625 135.5 C 599.382812 135.316406 599.292969 135.085938 599.292969 134.804688 C 599.292969 134.5 599.382812 134.261719 599.5625 134.078125 C 599.746094 133.898438 599.96875 133.804688 600.226562 133.804688 C 600.476562 133.804688 600.691406 133.898438 600.875 134.078125 C 601.054688 134.261719 601.144531 134.5 601.144531 134.804688 C 601.144531 135.085938 601.054688 135.3125 600.875 135.5 C 600.691406 135.683594 600.476562 135.769531 600.226562 135.769531 Z M 600.226562 141.398438 C 599.96875 141.398438 599.746094 141.308594 599.5625 141.125 C 599.382812 140.945312 599.292969 140.710938 599.292969 140.433594 C 599.292969 140.128906 599.382812 139.886719 599.5625 139.707031 C 599.746094 139.523438 599.96875 139.433594 600.226562 139.433594 C 600.476562 139.433594 600.691406 139.523438 600.875 139.707031 C 601.054688 139.886719 601.144531 140.128906 601.144531 140.433594 C 601.144531 140.710938 601.054688 140.941406 600.875 141.125 C 600.691406 141.308594 600.476562 141.398438 600.226562 141.398438 Z M 600.226562 141.398438 "/>
<path style=" stroke:none;fill-rule:nonzero;fill:rgb(0%,0%,0%);fill-opacity:1;" d="M 610.015625 141.210938 L 610.015625 138.46875 L 605.542969 138.46875 L 605.542969 137.625 L 609.792969 131.265625 L 611.230469 131.265625 L 611.230469 137.4375 L 612.585938 137.4375 L 612.585938 138.46875 L 611.230469 138.46875 L 611.230469 141.210938 Z M 606.898438 137.4375 L 610.015625 137.4375 L 610.015625 134.554688 C 610.015625 134.285156 610.023438 133.964844 610.039062 133.59375 C 610.054688 133.226562 610.074219 132.90625 610.09375 132.636719 L 610.03125 132.636719 C 609.90625 132.875 609.777344 133.109375 609.640625 133.335938 C 609.503906 133.5625 609.363281 133.800781 609.222656 134.039062 Z M 606.898438 137.4375 "/>
<path style=" stroke:none;fill-rule:nonzero;fill:rgb(0%,0%,0%);fill-opacity:1;" d="M 614.300781 144.40625 L 614.300781 133.632812 L 615.363281 133.632812 L 615.472656 134.507812 L 615.519531 134.507812 C 615.859375 134.21875 616.238281 133.96875 616.648438 133.761719 C 617.0625 133.550781 617.488281 133.445312 617.933594 133.445312 C 618.425781 133.445312 618.855469 133.539062 619.230469 133.722656 C 619.605469 133.902344 619.917969 134.160156 620.164062 134.5 C 620.414062 134.839844 620.605469 135.246094 620.734375 135.714844 C 620.863281 136.191406 620.925781 136.722656 620.925781 137.316406 C 620.925781 137.960938 620.839844 138.535156 620.664062 139.039062 C 620.488281 139.539062 620.246094 139.972656 619.949219 140.324219 C 619.644531 140.675781 619.296875 140.945312 618.902344 141.125 C 618.507812 141.308594 618.09375 141.398438 617.65625 141.398438 C 617.300781 141.398438 616.953125 141.320312 616.601562 141.164062 C 616.253906 141.011719 615.902344 140.796875 615.550781 140.527344 L 615.582031 141.851562 L 615.582031 144.40625 Z M 617.433594 140.324219 C 617.746094 140.324219 618.035156 140.253906 618.300781 140.113281 C 618.5625 139.972656 618.796875 139.773438 618.988281 139.519531 C 619.179688 139.261719 619.332031 138.949219 619.441406 138.578125 C 619.546875 138.203125 619.605469 137.78125 619.605469 137.3125 C 619.605469 136.898438 619.5625 136.519531 619.492188 136.175781 C 619.421875 135.832031 619.304688 135.539062 619.144531 135.292969 C 618.984375 135.046875 618.773438 134.859375 618.519531 134.722656 C 618.265625 134.585938 617.960938 134.519531 617.609375 134.519531 C 617.285156 134.519531 616.960938 134.609375 616.632812 134.785156 C 616.304688 134.960938 615.953125 135.214844 615.582031 135.550781 L 615.582031 139.523438 C 615.921875 139.816406 616.253906 140.023438 616.578125 140.140625 C 616.902344 140.261719 617.1875 140.324219 617.433594 140.324219 Z M 617.433594 140.324219 "/>
<path style=" stroke:none;fill-rule:nonzero;fill:rgb(0%,0%,0%);fill-opacity:1;" d="M 621.632812 141.210938 L 624.105469 137.25 L 621.816406 133.632812 L 623.207031 133.632812 L 624.214844 135.300781 C 624.332031 135.511719 624.449219 135.722656 624.574219 135.933594 C 624.703125 136.148438 624.828125 136.355469 624.96875 136.566406 L 625.027344 136.566406 C 625.140625 136.355469 625.257812 136.148438 625.371094 135.933594 C 625.484375 135.722656 625.597656 135.511719 625.714844 135.300781 L 626.628906 133.632812 L 627.972656 133.632812 L 625.683594 137.394531 L 628.144531 141.214844 L 626.757812 141.214844 L 625.648438 139.453125 C 625.511719 139.222656 625.378906 138.996094 625.242188 138.765625 C 625.105469 138.535156 624.96875 138.3125 624.824219 138.09375 L 624.761719 138.09375 C 624.625 138.3125 624.496094 138.53125 624.371094 138.757812 C 624.246094 138.980469 624.121094 139.210938 624 139.453125 L 622.96875 141.214844 L 621.632812 141.214844 Z M 621.632812 141.210938 "/>
</g>
</svg>
