<?xml version="1.0" encoding="UTF-8"?>
<svg xmlns="http://www.w3.org/2000/svg" xmlns:xlink="http://www.w3.org/1999/xlink" width="630px" height="px" viewBox="0 0 629 371" version="1.1">
<g id="surface1">
<path style=" stroke:none;fill-rule:nonzero;fill:rgb(88.627451%,43.921569%,13.333333%);fill-opacity:1;" d="M 284.757812 67.609375 L 313.039062 67.609375 L 313.039062 70.050781 L 284.757812 70.050781 Z M 284.757812 67.609375 "/>
<path style=" stroke:none;fill-rule:nonzero;fill:rgb(88.627451%,43.921569%,13.333333%);fill-opacity:1;" d="M 309.867188 74.199219 L 308.160156 72.492188 L 311.816406 68.832031 L 308.160156 65.414062 L 309.867188 63.703125 L 315.230469 68.832031 Z M 309.867188 74.199219 "/>
<path style=" stroke:none;fill-rule:nonzero;fill:rgb(88.627451%,43.921569%,13.333333%);fill-opacity:1;" d="M 287.195312 247.738281 L 315.476562 247.738281 L 315.476562 250.179688 L 287.195312 250.179688 Z M 287.195312 247.738281 "/>
<path style=" stroke:none;fill-rule:nonzero;fill:rgb(88.627451%,43.921569%,13.333333%);fill-opacity:1;" d="M 312.304688 254.085938 L 310.597656 252.378906 L 314.257812 248.960938 L 310.597656 245.300781 L 312.304688 243.589844 L 317.667969 248.960938 Z M 312.304688 254.085938 "/>
<path style=" stroke:none;fill-rule:nonzero;fill:rgb(0%,0%,0%);fill-opacity:1;" d="M 121.113281 363.695312 L 121.113281 352.488281 L 127.5625 352.488281 L 127.5625 353.683594 L 122.527344 353.683594 L 122.527344 357.203125 L 126.777344 357.203125 L 126.777344 358.414062 L 122.527344 358.414062 L 122.527344 362.480469 L 127.734375 362.480469 L 127.734375 363.695312 Z M 121.113281 363.695312 "/>
<path style=" stroke:none;fill-rule:nonzero;fill:rgb(0%,0%,0%);fill-opacity:1;" d="M 129.96875 363.695312 L 129.96875 355.394531 L 131.128906 355.394531 L 131.25 356.589844 L 131.300781 356.589844 C 131.664062 356.191406 132.0625 355.855469 132.484375 355.589844 C 132.910156 355.324219 133.375 355.1875 133.875 355.1875 C 134.511719 355.1875 135.011719 355.332031 135.367188 355.609375 C 135.726562 355.886719 135.992188 356.277344 136.164062 356.777344 C 136.59375 356.300781 137.03125 355.914062 137.46875 355.621094 C 137.90625 355.332031 138.382812 355.1875 138.890625 355.1875 C 139.746094 355.1875 140.378906 355.460938 140.796875 356.007812 C 141.210938 356.554688 141.417969 357.363281 141.417969 358.433594 L 141.417969 363.695312 L 140.019531 363.695312 L 140.019531 358.621094 C 140.019531 357.835938 139.894531 357.269531 139.644531 356.921875 C 139.390625 356.574219 139.007812 356.398438 138.480469 356.398438 C 137.855469 356.398438 137.160156 356.828125 136.398438 357.679688 L 136.398438 363.695312 L 135 363.695312 L 135 358.621094 C 135 357.835938 134.875 357.269531 134.625 356.921875 C 134.375 356.574219 133.980469 356.398438 133.449219 356.398438 C 132.820312 356.398438 132.125 356.828125 131.367188 357.679688 L 131.367188 363.695312 Z M 129.96875 363.695312 "/>
<path style=" stroke:none;fill-rule:nonzero;fill:rgb(0%,0%,0%);fill-opacity:1;" d="M 147.34375 363.902344 C 146.828125 363.902344 146.34375 363.804688 145.882812 363.613281 C 145.421875 363.417969 145.015625 363.136719 144.664062 362.765625 C 144.308594 362.394531 144.027344 361.941406 143.820312 361.398438 C 143.609375 360.855469 143.503906 360.242188 143.503906 359.558594 C 143.503906 358.867188 143.605469 358.25 143.820312 357.707031 C 144.027344 357.164062 144.3125 356.707031 144.664062 356.332031 C 145.015625 355.957031 145.421875 355.671875 145.882812 355.476562 C 146.34375 355.285156 146.828125 355.1875 147.34375 355.1875 C 147.855469 355.1875 148.339844 355.285156 148.800781 355.476562 C 149.261719 355.671875 149.667969 355.953125 150.019531 356.332031 C 150.375 356.707031 150.65625 357.167969 150.863281 357.707031 C 151.074219 358.246094 151.183594 358.867188 151.183594 359.558594 C 151.183594 360.242188 151.078125 360.855469 150.863281 361.398438 C 150.652344 361.941406 150.371094 362.394531 150.019531 362.765625 C 149.667969 363.136719 149.261719 363.417969 148.800781 363.613281 C 148.34375 363.804688 147.855469 363.902344 147.34375 363.902344 Z M 147.34375 362.742188 C 147.695312 362.742188 148.019531 362.664062 148.316406 362.507812 C 148.613281 362.355469 148.863281 362.140625 149.074219 361.855469 C 149.285156 361.578125 149.449219 361.246094 149.5625 360.859375 C 149.675781 360.472656 149.734375 360.039062 149.734375 359.558594 C 149.734375 359.085938 149.675781 358.648438 149.5625 358.253906 C 149.449219 357.859375 149.289062 357.523438 149.074219 357.238281 C 148.867188 356.953125 148.613281 356.734375 148.316406 356.578125 C 148.019531 356.425781 147.695312 356.347656 147.34375 356.347656 C 146.988281 356.347656 146.664062 356.421875 146.371094 356.578125 C 146.070312 356.730469 145.820312 356.949219 145.609375 357.238281 C 145.398438 357.523438 145.234375 357.859375 145.121094 358.253906 C 145.007812 358.648438 144.949219 359.085938 144.949219 359.558594 C 144.949219 360.039062 145.007812 360.472656 145.121094 360.859375 C 145.234375 361.246094 145.398438 361.578125 145.609375 361.855469 C 145.816406 362.136719 146.070312 362.351562 146.371094 362.507812 C 146.664062 362.664062 146.988281 362.742188 147.34375 362.742188 Z M 147.34375 362.742188 "/>
<path style=" stroke:none;fill-rule:nonzero;fill:rgb(0%,0%,0%);fill-opacity:1;" d="M 152.511719 367.402344 C 152.253906 367.402344 152.019531 367.378906 151.8125 367.335938 C 151.609375 367.292969 151.433594 367.238281 151.285156 367.183594 L 151.574219 366.125 C 151.675781 366.15625 151.796875 366.1875 151.933594 366.214844 C 152.070312 366.246094 152.210938 366.261719 152.359375 366.261719 C 152.769531 366.261719 153.042969 366.117188 153.179688 365.832031 C 153.316406 365.546875 153.382812 365.148438 153.382812 364.636719 L 153.382812 355.394531 L 154.78125 355.394531 L 154.78125 364.636719 C 154.78125 365.480469 154.613281 366.152344 154.269531 366.652344 C 153.929688 367.152344 153.34375 367.402344 152.511719 367.402344 Z M 154.101562 353.683594 C 153.828125 353.683594 153.59375 353.601562 153.40625 353.429688 C 153.21875 353.257812 153.128906 353.042969 153.128906 352.78125 C 153.128906 352.507812 153.222656 352.285156 153.40625 352.121094 C 153.59375 351.953125 153.828125 351.871094 154.101562 351.871094 C 154.359375 351.871094 154.585938 351.953125 154.773438 352.121094 C 154.960938 352.285156 155.054688 352.503906 155.054688 352.78125 C 155.054688 353.039062 154.960938 353.253906 154.773438 353.429688 C 154.585938 353.601562 154.359375 353.683594 154.101562 353.683594 Z M 154.101562 353.683594 "/>
<path style=" stroke:none;fill-rule:nonzero;fill:rgb(0%,0%,0%);fill-opacity:1;" d="M 158.296875 353.683594 C 158.023438 353.683594 157.792969 353.601562 157.605469 353.429688 C 157.417969 353.257812 157.324219 353.042969 157.324219 352.78125 C 157.324219 352.507812 157.417969 352.285156 157.605469 352.121094 C 157.792969 351.953125 158.023438 351.871094 158.296875 351.871094 C 158.570312 351.871094 158.804688 351.953125 158.988281 352.121094 C 159.175781 352.285156 159.269531 352.503906 159.269531 352.78125 C 159.269531 353.039062 159.175781 353.253906 158.988281 353.429688 C 158.800781 353.601562 158.570312 353.683594 158.296875 353.683594 Z M 157.582031 363.695312 L 157.582031 355.394531 L 158.980469 355.394531 L 158.980469 363.695312 Z M 157.582031 363.695312 "/>
<path style=" stroke:none;fill-rule:nonzero;fill:rgb(0%,0%,0%);fill-opacity:1;" d="M 456.65625 363.902344 C 456.085938 363.902344 455.554688 363.820312 455.058594 363.652344 C 454.566406 363.488281 454.136719 363.214844 453.78125 362.832031 C 453.421875 362.453125 453.136719 361.953125 452.933594 361.339844 C 452.730469 360.722656 452.628906 359.96875 452.628906 359.066406 L 452.628906 352.488281 L 454.042969 352.488281 L 454.042969 359.101562 C 454.042969 359.773438 454.109375 360.335938 454.246094 360.789062 C 454.386719 361.25 454.570312 361.613281 454.804688 361.882812 C 455.039062 362.15625 455.316406 362.351562 455.632812 362.472656 C 455.953125 362.59375 456.292969 362.652344 456.660156 362.652344 C 457.03125 362.652344 457.378906 362.59375 457.699219 362.472656 C 458.015625 362.351562 458.296875 362.15625 458.535156 361.882812 C 458.773438 361.613281 458.960938 361.246094 459.097656 360.789062 C 459.234375 360.332031 459.300781 359.773438 459.300781 359.101562 L 459.300781 352.488281 L 460.667969 352.488281 L 460.667969 359.066406 C 460.667969 359.964844 460.566406 360.722656 460.359375 361.339844 C 460.15625 361.953125 459.875 362.453125 459.515625 362.832031 C 459.15625 363.214844 458.734375 363.488281 458.246094 363.652344 C 457.757812 363.816406 457.222656 363.902344 456.65625 363.902344 Z M 456.65625 363.902344 "/>
<path style=" stroke:none;fill-rule:nonzero;fill:rgb(0%,0%,0%);fill-opacity:1;" d="M 463.683594 363.695312 L 463.683594 352.488281 L 465.101562 352.488281 L 465.101562 363.695312 Z M 463.683594 363.695312 "/>
<path style=" stroke:none;fill-rule:nonzero;fill:rgb(24.705882%,24.705882%,24.705882%);fill-opacity:1;" d="M 161.152344 290.941406 L 204.546875 250.667969 L 161.152344 210.394531 L 151.886719 220.402344 L 177.242188 243.835938 L 53.390625 243.835938 L 53.390625 257.503906 L 177.242188 257.503906 L 151.886719 280.933594 Z M 161.152344 290.941406 "/>
<path style=" stroke:none;fill-rule:nonzero;fill:rgb(11.372549%,11.372549%,10.588235%);fill-opacity:1;" d="M 161.152344 293.382812 C 161.117188 293.382812 161.089844 293.382812 161.058594 293.378906 C 160.410156 293.355469 159.800781 293.074219 159.363281 292.601562 L 150.097656 282.59375 C 149.65625 282.117188 149.425781 281.488281 149.449219 280.835938 C 149.476562 280.1875 149.753906 279.578125 150.234375 279.140625 L 171.007812 259.945312 L 53.390625 259.945312 C 52.046875 259.945312 50.953125 258.851562 50.953125 257.503906 L 50.953125 243.835938 C 50.953125 242.484375 52.046875 241.394531 53.390625 241.394531 L 171.007812 241.394531 L 150.234375 222.195312 C 149.757812 221.753906 149.476562 221.144531 149.449219 220.5 C 149.425781 219.847656 149.65625 219.21875 150.097656 218.742188 L 159.363281 208.734375 C 160.28125 207.746094 161.824219 207.6875 162.808594 208.605469 L 206.203125 248.878906 C 206.703125 249.339844 206.984375 249.988281 206.984375 250.667969 C 206.984375 251.34375 206.703125 251.996094 206.203125 252.457031 L 162.808594 292.730469 C 162.359375 293.152344 161.765625 293.382812 161.152344 293.382812 Z M 155.332031 281.070312 L 161.28125 287.492188 L 200.960938 250.667969 L 161.28125 213.84375 L 155.335938 220.269531 L 178.898438 242.042969 C 179.636719 242.722656 179.878906 243.789062 179.515625 244.726562 C 179.148438 245.664062 178.246094 246.277344 177.242188 246.277344 L 55.828125 246.277344 L 55.828125 255.066406 L 177.242188 255.066406 C 178.246094 255.066406 179.144531 255.679688 179.511719 256.617188 C 179.875 257.554688 179.632812 258.617188 178.894531 259.300781 Z M 155.332031 281.070312 "/>
<path style=" stroke:none;fill-rule:nonzero;fill:rgb(24.705882%,24.705882%,24.705882%);fill-opacity:1;" d="M 179.4375 128.628906 C 178.703125 128.628906 178.214844 128.386719 177.730469 127.898438 L 173.097656 123.261719 C 172.609375 122.773438 172.367188 122.039062 172.367188 121.550781 C 172.367188 121.0625 172.609375 120.332031 173.339844 119.84375 L 181.386719 113.007812 L 168.222656 113.007812 C 160.664062 113.007812 153.59375 110.566406 148.71875 105.929688 L 138.964844 96.898438 C 138.476562 96.410156 138.234375 95.679688 138.234375 95.191406 C 138.234375 94.457031 138.476562 93.96875 138.964844 93.480469 L 143.839844 89.089844 C 144.328125 88.601562 144.816406 88.355469 145.546875 88.355469 C 146.035156 88.355469 146.765625 88.601562 147.253906 89.089844 L 157.007812 98.121094 C 159.6875 100.558594 163.832031 102.027344 168.222656 102.027344 L 181.628906 102.027344 L 173.585938 95.191406 C 173.097656 94.703125 172.851562 94.214844 172.609375 93.480469 C 172.367188 92.75 172.851562 92.261719 173.339844 91.773438 L 177.972656 87.136719 C 178.460938 86.648438 179.191406 86.402344 179.679688 86.402344 C 180.167969 86.402344 180.898438 86.648438 181.140625 86.890625 L 203.570312 105.929688 C 204.058594 106.417969 204.546875 107.152344 204.546875 107.882812 C 204.546875 108.613281 204.304688 109.351562 203.570312 109.835938 L 181.140625 128.875 C 180.65625 128.386719 180.167969 128.628906 179.4375 128.628906 Z M 179.4375 128.628906 "/>
<path style=" stroke:none;fill-rule:nonzero;fill:rgb(11.372549%,11.372549%,10.588235%);fill-opacity:1;" d="M 179.4375 88.113281 L 201.863281 107.152344 L 179.4375 126.1875 L 174.804688 121.550781 L 187.96875 110.320312 L 168.222656 110.320312 C 161.152344 110.320312 154.8125 108.128906 150.421875 103.976562 L 140.671875 94.945312 L 145.546875 90.550781 L 155.300781 99.582031 C 158.226562 102.511719 163.101562 103.976562 168.222656 103.976562 L 188.210938 103.976562 L 175.046875 92.75 L 179.4375 88.113281 M 179.4375 83.230469 C 178.214844 83.230469 176.996094 83.71875 176.023438 84.695312 L 171.390625 89.332031 C 170.414062 90.308594 169.925781 91.53125 169.925781 92.992188 C 169.925781 94.457031 170.660156 95.679688 171.632812 96.410156 L 174.558594 98.851562 L 168.222656 98.851562 C 164.320312 98.851562 160.664062 97.632812 158.46875 95.679688 L 148.71875 86.648438 C 147.742188 85.671875 146.523438 85.425781 145.304688 85.425781 C 144.085938 85.425781 142.867188 85.914062 141.890625 86.648438 L 137.015625 91.042969 C 136.039062 92.015625 135.550781 93.234375 135.550781 94.703125 C 135.550781 96.167969 136.039062 97.386719 137.015625 98.363281 L 146.765625 107.394531 C 152.128906 112.277344 159.6875 114.960938 167.976562 114.960938 L 174.558594 114.960938 L 171.632812 117.402344 C 170.660156 118.378906 169.925781 119.597656 169.925781 120.820312 C 169.925781 122.285156 170.414062 123.503906 171.390625 124.480469 L 176.023438 129.117188 C 176.996094 130.09375 178.214844 130.582031 179.4375 130.582031 C 180.65625 130.582031 181.628906 130.09375 182.605469 129.363281 L 205.035156 110.324219 C 206.007812 109.351562 206.742188 108.128906 206.742188 106.664062 C 206.742188 105.199219 206.007812 103.976562 205.035156 103 L 182.605469 83.964844 C 181.875 83.71875 180.65625 83.230469 179.4375 83.230469 Z M 179.4375 83.230469 "/>
<path style=" stroke:none;fill-rule:nonzero;fill:rgb(24.705882%,24.705882%,24.705882%);fill-opacity:1;" d="M 108.492188 67.855469 C 108.003906 67.855469 107.269531 67.609375 106.785156 67.121094 L 96.300781 57.601562 C 93.617188 55.160156 89.472656 53.699219 85.085938 53.699219 L 55.828125 53.699219 C 54.367188 53.699219 53.390625 52.722656 53.390625 51.257812 L 53.390625 44.910156 C 53.390625 43.445312 54.367188 42.46875 55.828125 42.46875 L 85.085938 42.46875 C 92.644531 42.46875 99.714844 44.910156 104.589844 49.546875 L 115.074219 59.3125 C 115.558594 59.800781 115.804688 60.53125 115.804688 61.019531 C 115.804688 61.507812 115.558594 62.238281 115.074219 62.726562 L 110.195312 67.121094 C 109.710938 67.609375 109.222656 67.855469 108.492188 67.855469 Z M 108.492188 67.855469 "/>
<path style=" stroke:none;fill-rule:nonzero;fill:rgb(11.372549%,11.372549%,10.588235%);fill-opacity:1;" d="M 85.085938 44.910156 C 92.15625 44.910156 98.496094 47.105469 102.882812 51.257812 L 113.367188 61.019531 L 108.492188 65.414062 L 98.007812 55.894531 C 95.082031 52.964844 90.207031 51.257812 85.085938 51.257812 L 55.828125 51.257812 L 55.828125 44.910156 L 85.085938 44.910156 M 85.085938 40.027344 L 55.828125 40.027344 C 53.148438 40.027344 50.953125 42.226562 50.953125 44.910156 L 50.953125 51.257812 C 50.953125 53.941406 53.148438 56.136719 55.828125 56.136719 L 85.085938 56.136719 C 88.988281 56.136719 92.644531 57.359375 94.835938 59.3125 L 105.320312 68.828125 C 106.296875 69.804688 107.515625 70.046875 108.734375 70.046875 C 109.953125 70.046875 111.171875 69.558594 111.902344 68.828125 L 116.78125 64.433594 C 117.753906 63.457031 118.484375 62.238281 118.484375 60.773438 C 118.484375 59.308594 118 58.089844 117.023438 57.113281 L 106.539062 47.347656 C 100.933594 42.957031 93.375 40.027344 85.085938 40.027344 Z M 85.085938 40.027344 "/>
<path style=" stroke:none;fill-rule:nonzero;fill:rgb(24.705882%,24.705882%,24.705882%);fill-opacity:1;" d="M 55.828125 112.765625 C 54.367188 112.765625 53.390625 111.789062 53.390625 110.324219 L 53.390625 103.976562 C 53.390625 102.511719 54.367188 101.535156 55.828125 101.535156 L 85.085938 101.535156 C 89.472656 101.535156 93.863281 100.074219 96.300781 97.632812 L 148.71875 49.546875 C 153.59375 45.15625 160.664062 42.46875 168.222656 42.46875 L 181.628906 42.46875 L 173.585938 35.636719 C 173.097656 35.148438 172.851562 34.660156 172.609375 33.925781 C 172.367188 33.195312 172.851562 32.707031 173.339844 32.21875 L 177.972656 27.582031 C 178.460938 27.09375 179.191406 26.847656 179.679688 26.847656 C 180.167969 26.847656 180.898438 27.09375 181.140625 27.335938 L 203.570312 46.375 C 204.058594 46.863281 204.546875 47.59375 204.546875 48.328125 C 204.546875 49.058594 204.304688 49.792969 203.570312 50.28125 L 181.140625 69.320312 C 180.65625 69.804688 180.167969 69.804688 179.679688 69.804688 C 178.949219 69.804688 178.460938 69.5625 177.972656 69.074219 L 173.097656 64.191406 C 172.609375 63.703125 172.367188 62.972656 172.367188 62.484375 C 172.367188 61.996094 172.609375 61.265625 173.339844 60.777344 L 181.386719 53.941406 L 168.222656 53.941406 C 163.832031 53.941406 159.445312 55.40625 157.007812 57.847656 L 104.589844 105.929688 C 99.714844 110.324219 92.644531 113.007812 85.085938 113.007812 L 55.828125 113.007812 Z M 55.828125 112.765625 "/>
<path style=" stroke:none;fill-rule:nonzero;fill:rgb(11.372549%,11.372549%,10.588235%);fill-opacity:1;" d="M 179.4375 29.046875 L 201.863281 48.082031 L 179.4375 67.121094 L 174.804688 62.484375 L 187.96875 51.257812 L 168.222656 51.257812 C 163.101562 51.257812 158.226562 52.964844 155.300781 55.648438 L 102.882812 103.976562 C 98.496094 108.128906 91.910156 110.324219 85.085938 110.324219 L 55.828125 110.324219 L 55.828125 103.976562 L 85.085938 103.976562 C 90.207031 103.976562 95.082031 102.269531 98.007812 99.585938 L 150.179688 51.257812 C 154.566406 47.105469 161.152344 44.910156 167.976562 44.910156 L 187.96875 44.910156 L 174.804688 33.683594 L 179.4375 29.046875 M 179.4375 24.164062 C 178.214844 24.164062 176.996094 24.652344 176.023438 25.628906 L 171.390625 30.265625 C 170.414062 31.242188 169.925781 32.460938 169.925781 33.925781 C 169.925781 35.390625 170.660156 36.613281 171.632812 37.34375 L 174.558594 39.785156 L 168.222656 39.785156 C 159.933594 39.785156 152.375 42.46875 147.011719 47.351562 L 94.835938 95.921875 C 92.644531 97.875 88.988281 99.097656 85.085938 99.097656 L 55.828125 99.097656 C 53.148438 99.097656 50.953125 101.292969 50.953125 103.976562 L 50.953125 110.324219 C 50.953125 113.011719 53.148438 115.207031 55.828125 115.207031 L 85.085938 115.207031 C 93.375 115.207031 100.933594 112.519531 106.296875 107.640625 L 158.46875 59.3125 C 160.664062 57.359375 164.320312 56.136719 168.222656 56.136719 L 174.804688 56.136719 L 171.878906 58.578125 C 170.902344 59.554688 170.171875 60.777344 170.171875 61.996094 C 170.171875 63.460938 170.660156 64.679688 171.632812 65.65625 L 176.265625 70.292969 C 177.242188 71.269531 178.460938 71.757812 179.679688 71.757812 C 180.898438 71.757812 181.875 71.269531 182.847656 70.539062 L 205.277344 51.5 C 206.253906 50.523438 206.984375 49.304688 206.984375 47.839844 C 206.984375 46.375 206.253906 45.15625 205.277344 44.179688 L 182.847656 25.140625 C 181.875 24.652344 180.65625 24.164062 179.4375 24.164062 Z M 179.4375 24.164062 "/>
<path style=" stroke:none;fill-rule:nonzero;fill:rgb(11.372549%,11.372549%,10.588235%);fill-opacity:1;" d="M 538.304688 124.722656 L 507.097656 124.722656 C 500.210938 124.722656 493.460938 122.082031 489.039062 117.664062 L 472.222656 100.820312 C 471.269531 99.867188 471.269531 98.324219 472.222656 97.371094 C 473.175781 96.417969 474.71875 96.417969 475.671875 97.371094 L 492.488281 114.210938 C 496.011719 117.738281 501.476562 119.84375 507.097656 119.84375 L 538.304688 119.84375 C 539.652344 119.84375 540.742188 120.9375 540.742188 122.285156 C 540.742188 123.632812 539.652344 124.722656 538.304688 124.722656 Z M 538.304688 124.722656 "/>
<path style=" stroke:none;fill-rule:nonzero;fill:rgb(11.372549%,11.372549%,10.588235%);fill-opacity:1;" d="M 452.246094 79.8125 C 451.621094 79.8125 450.996094 79.574219 450.523438 79.097656 L 433.457031 62.011719 C 430.074219 58.414062 424.769531 56.382812 418.847656 56.382812 L 387.640625 56.382812 C 386.292969 56.382812 385.203125 55.289062 385.203125 53.941406 C 385.203125 52.59375 386.292969 51.5 387.640625 51.5 L 418.847656 51.5 C 426.105469 51.5 432.707031 54.09375 436.957031 58.613281 L 453.972656 75.648438 C 454.925781 76.601562 454.925781 78.144531 453.972656 79.097656 C 453.496094 79.574219 452.871094 79.8125 452.246094 79.8125 Z M 452.246094 79.8125 "/>
<path style=" stroke:none;fill-rule:nonzero;fill:rgb(11.372549%,11.372549%,10.588235%);fill-opacity:1;" d="M 418.847656 124.722656 L 387.640625 124.722656 C 386.292969 124.722656 385.203125 123.632812 385.203125 122.285156 C 385.203125 120.9375 386.292969 119.84375 387.640625 119.84375 L 418.847656 119.84375 C 424.769531 119.84375 430.074219 117.808594 433.40625 114.261719 L 489.039062 58.320312 C 493.460938 53.898438 500.210938 51.257812 507.101562 51.257812 L 538.308594 51.257812 C 539.65625 51.257812 540.746094 52.351562 540.746094 53.699219 C 540.746094 55.042969 539.65625 56.136719 538.308594 56.136719 L 507.101562 56.136719 C 501.472656 56.136719 496.011719 58.242188 492.488281 61.769531 L 436.910156 117.660156 C 432.707031 122.132812 426.105469 124.722656 418.847656 124.722656 Z M 418.847656 124.722656 "/>
<path style=" stroke:none;fill-rule:nonzero;fill:rgb(11.372549%,11.372549%,10.588235%);fill-opacity:1;" d="M 530.503906 64.679688 C 529.882812 64.679688 529.257812 64.441406 528.78125 63.964844 C 527.828125 63.011719 527.828125 61.464844 528.78125 60.515625 L 535.347656 53.941406 L 528.78125 47.367188 C 527.828125 46.414062 527.828125 44.871094 528.78125 43.917969 C 529.734375 42.960938 531.277344 42.960938 532.230469 43.917969 L 540.519531 52.214844 C 540.976562 52.675781 541.234375 53.292969 541.234375 53.941406 C 541.234375 54.589844 540.976562 55.210938 540.519531 55.667969 L 532.230469 63.964844 C 531.75 64.441406 531.128906 64.679688 530.503906 64.679688 Z M 530.503906 64.679688 "/>
<path style=" stroke:none;fill-rule:nonzero;fill:rgb(11.372549%,11.372549%,10.588235%);fill-opacity:1;" d="M 530.503906 133.023438 C 529.882812 133.023438 529.257812 132.785156 528.78125 132.308594 C 527.828125 131.355469 527.828125 129.808594 528.78125 128.855469 L 535.347656 122.285156 L 528.78125 115.710938 C 527.828125 114.757812 527.828125 113.214844 528.78125 112.257812 C 529.734375 111.304688 531.277344 111.304688 532.230469 112.257812 L 540.519531 120.558594 C 540.976562 121.015625 541.234375 121.636719 541.234375 122.285156 C 541.234375 122.929688 540.976562 123.554688 540.519531 124.007812 L 532.230469 132.308594 C 531.75 132.785156 531.128906 133.023438 530.503906 133.023438 Z M 530.503906 133.023438 "/>
<path style=" stroke:none;fill-rule:nonzero;fill:rgb(0.392157%,0.392157%,1.176471%);fill-opacity:1;" d="M 527.824219 253.109375 L 376.667969 253.109375 C 375.320312 253.109375 374.230469 252.019531 374.230469 250.667969 C 374.230469 249.320312 375.320312 248.226562 376.667969 248.226562 L 521.605469 248.226562 L 482.769531 212.183594 C 481.78125 211.269531 481.722656 209.726562 482.636719 208.734375 C 483.550781 207.746094 485.09375 207.683594 486.082031 208.605469 L 529.480469 248.878906 C 530.214844 249.558594 530.457031 250.625 530.089844 251.558594 C 529.726562 252.496094 528.824219 253.109375 527.824219 253.109375 Z M 527.824219 253.109375 "/>
<path style=" stroke:none;fill-rule:nonzero;fill:rgb(0.392157%,0.392157%,1.176471%);fill-opacity:1;" d="M 484.425781 293.382812 C 483.773438 293.382812 483.121094 293.121094 482.640625 292.601562 C 481.726562 291.613281 481.78125 290.066406 482.773438 289.152344 L 526.167969 248.878906 C 527.152344 247.960938 528.695312 248.019531 529.613281 249.011719 C 530.527344 250 530.472656 251.546875 529.480469 252.460938 L 486.085938 292.734375 C 485.617188 293.167969 485.019531 293.382812 484.425781 293.382812 Z M 484.425781 293.382812 "/>
</g>
</svg>
