<?xml version="1.0" encoding="UTF-8"?>
<svg xmlns="http://www.w3.org/2000/svg" xmlns:xlink="http://www.w3.org/1999/xlink" width="630px" height="px" viewBox="0 0 629 143" version="1.1">
<defs>
<filter id="alpha" filterUnits="objectBoundingBox" x="0%" y="0%" width="100%" height="100%">
  <feColorMatrix type="matrix" in="SourceGraphic" values="0 0 0 0 1 0 0 0 0 1 0 0 0 0 1 0 0 0 1 0"/>
</filter>
<mask id="mask0">
  <g filter="url(#alpha)">
<rect x="0" y="0" width="629" height="143" style="fill:rgb(0%,0%,0%);fill-opacity:0.2;stroke:none;"/>
  </g>
</mask>
<clipPath id="clip1">
  <rect x="0" y="0" width="629" height="143"/>
</clipPath>
<g id="surface5" clip-path="url(#clip1)">
<path style=" stroke:none;fill-rule:nonzero;fill:rgb(11.372549%,11.372549%,10.588235%);fill-opacity:1;" d="M 105.164062 8.9375 C 107.941406 8.9375 110.125 11.121094 110.125 13.902344 L 110.125 129.097656 C 110.125 131.878906 107.941406 134.0625 105.164062 134.0625 L 37.699219 134.0625 C 34.921875 134.0625 32.738281 131.878906 32.738281 129.097656 L 32.738281 13.902344 C 32.738281 11.121094 34.921875 8.9375 37.699219 8.9375 L 105.164062 8.9375 M 105.164062 7.945312 L 37.699219 7.945312 C 34.328125 7.945312 31.746094 10.527344 31.746094 13.902344 L 31.746094 129.097656 C 31.746094 132.472656 34.328125 135.054688 37.699219 135.054688 L 105.164062 135.054688 C 108.539062 135.054688 111.117188 132.472656 111.117188 129.097656 L 111.117188 13.902344 C 111.117188 10.527344 108.539062 7.945312 105.164062 7.945312 Z M 105.164062 7.945312 "/>
</g>
<mask id="mask1">
  <g filter="url(#alpha)">
<rect x="0" y="0" width="629" height="143" style="fill:rgb(0%,0%,0%);fill-opacity:0.2;stroke:none;"/>
  </g>
</mask>
<clipPath id="clip2">
  <rect x="0" y="0" width="629" height="143"/>
</clipPath>
<g id="surface8" clip-path="url(#clip2)">
<path style=" stroke:none;fill-rule:nonzero;fill:rgb(11.372549%,11.372549%,10.588235%);fill-opacity:1;" d="M 128.976562 32.769531 C 131.75 32.769531 133.933594 34.957031 133.933594 37.734375 L 133.933594 105.265625 C 133.933594 108.042969 131.75 110.230469 128.976562 110.230469 L 13.890625 110.230469 C 11.113281 110.230469 8.929688 108.042969 8.929688 105.265625 L 8.929688 37.734375 C 8.929688 34.957031 11.113281 32.769531 13.890625 32.769531 L 128.976562 32.769531 M 128.976562 31.777344 L 13.890625 31.777344 C 10.515625 31.777344 7.9375 34.359375 7.9375 37.734375 L 7.9375 105.265625 C 7.9375 108.640625 10.515625 111.222656 13.890625 111.222656 L 128.976562 111.222656 C 132.347656 111.222656 134.925781 108.640625 134.925781 105.265625 L 134.925781 37.734375 C 134.925781 34.359375 132.347656 31.777344 128.976562 31.777344 Z M 128.976562 31.777344 "/>
</g>
<mask id="mask2">
  <g filter="url(#alpha)">
<rect x="0" y="0" width="629" height="143" style="fill:rgb(0%,0%,0%);fill-opacity:0.2;stroke:none;"/>
  </g>
</mask>
<clipPath id="clip3">
  <rect x="0" y="0" width="629" height="143"/>
</clipPath>
<g id="surface11" clip-path="url(#clip3)">
<path style=" stroke:none;fill-rule:nonzero;fill:rgb(11.372549%,11.372549%,10.588235%);fill-opacity:1;" d="M 115.085938 22.839844 C 117.859375 22.839844 120.046875 25.023438 120.046875 27.804688 L 120.046875 115.195312 C 120.046875 117.976562 117.859375 120.160156 115.085938 120.160156 L 27.777344 120.160156 C 25 120.160156 22.820312 117.976562 22.820312 115.195312 L 22.820312 27.804688 C 22.820312 25.023438 25 22.839844 27.777344 22.839844 L 115.085938 22.839844 M 115.085938 21.847656 L 27.777344 21.847656 C 24.40625 21.847656 21.828125 24.429688 21.828125 27.804688 L 21.828125 115.195312 C 21.828125 118.570312 24.40625 121.152344 27.777344 121.152344 L 115.085938 121.152344 C 118.457031 121.152344 121.039062 118.570312 121.039062 115.195312 L 121.039062 27.804688 C 121.039062 24.429688 118.457031 21.847656 115.085938 21.847656 Z M 115.085938 21.847656 "/>
</g>
<mask id="mask3">
  <g filter="url(#alpha)">
<rect x="0" y="0" width="629" height="143" style="fill:rgb(0%,0%,0%);fill-opacity:0.2;stroke:none;"/>
  </g>
</mask>
<clipPath id="clip4">
  <rect x="0" y="0" width="629" height="143"/>
</clipPath>
<g id="surface14" clip-path="url(#clip4)">
<path style=" stroke:none;fill-rule:nonzero;fill:rgb(11.372549%,11.372549%,10.588235%);fill-opacity:1;" d="M 371.050781 32.769531 C 373.828125 32.769531 376.011719 34.957031 376.011719 37.734375 L 376.011719 105.265625 C 376.011719 108.042969 373.828125 110.230469 371.050781 110.230469 L 255.964844 110.230469 C 253.1875 110.230469 251.003906 108.042969 251.003906 105.265625 L 251.003906 37.734375 C 251.003906 34.957031 253.1875 32.769531 255.964844 32.769531 L 371.050781 32.769531 M 371.050781 31.777344 L 255.964844 31.777344 C 252.59375 31.777344 250.011719 34.359375 250.011719 37.734375 L 250.011719 105.265625 C 250.011719 108.640625 252.59375 111.222656 255.964844 111.222656 L 371.050781 111.222656 C 374.421875 111.222656 377.003906 108.640625 377.003906 105.265625 L 377.003906 37.734375 C 377.003906 34.359375 374.421875 31.777344 371.050781 31.777344 Z M 371.050781 31.777344 "/>
</g>
<mask id="mask4">
  <g filter="url(#alpha)">
<rect x="0" y="0" width="629" height="143" style="fill:rgb(0%,0%,0%);fill-opacity:0.2;stroke:none;"/>
  </g>
</mask>
<clipPath id="clip5">
  <rect x="0" y="0" width="629" height="143"/>
</clipPath>
<g id="surface17" clip-path="url(#clip5)">
<path style=" stroke:none;fill-rule:nonzero;fill:rgb(11.372549%,11.372549%,10.588235%);fill-opacity:1;" d="M 357.160156 22.839844 C 359.9375 22.839844 362.121094 25.023438 362.121094 27.804688 L 362.121094 115.195312 C 362.121094 117.976562 359.9375 120.160156 357.160156 120.160156 L 269.855469 120.160156 C 267.078125 120.160156 264.894531 117.976562 264.894531 115.195312 L 264.894531 27.804688 C 264.894531 25.023438 267.078125 22.839844 269.855469 22.839844 L 357.160156 22.839844 M 357.160156 21.847656 L 269.855469 21.847656 C 266.480469 21.847656 263.902344 24.429688 263.902344 27.804688 L 263.902344 115.195312 C 263.902344 118.570312 266.480469 121.152344 269.855469 121.152344 L 357.160156 121.152344 C 360.535156 121.152344 363.113281 118.570312 363.113281 115.195312 L 363.113281 27.804688 C 363.113281 24.429688 360.535156 21.847656 357.160156 21.847656 Z M 357.160156 21.847656 "/>
</g>
<mask id="mask5">
  <g filter="url(#alpha)">
<rect x="0" y="0" width="629" height="143" style="fill:rgb(0%,0%,0%);fill-opacity:0.2;stroke:none;"/>
  </g>
</mask>
<clipPath id="clip6">
  <rect x="0" y="0" width="629" height="143"/>
</clipPath>
<g id="surface20" clip-path="url(#clip6)">
<path style=" stroke:none;fill-rule:nonzero;fill:rgb(11.372549%,11.372549%,10.588235%);fill-opacity:1;" d="M 313.507812 14.894531 C 344.660156 14.894531 370.058594 40.316406 370.058594 71.5 C 370.058594 102.683594 344.859375 128.105469 313.507812 128.105469 C 282.15625 128.105469 256.957031 102.683594 256.957031 71.5 C 256.957031 40.316406 282.355469 14.894531 313.507812 14.894531 M 313.507812 13.902344 C 281.761719 13.902344 255.964844 39.722656 255.964844 71.5 C 255.964844 103.277344 281.761719 129.097656 313.507812 129.097656 C 345.253906 129.097656 371.050781 103.277344 371.050781 71.5 C 371.050781 39.722656 345.453125 13.902344 313.507812 13.902344 Z M 313.507812 13.902344 "/>
</g>
<mask id="mask6">
  <g filter="url(#alpha)">
<rect x="0" y="0" width="629" height="143" style="fill:rgb(0%,0%,0%);fill-opacity:0.2;stroke:none;"/>
  </g>
</mask>
<clipPath id="clip7">
  <rect x="0" y="0" width="629" height="143"/>
</clipPath>
<g id="surface23" clip-path="url(#clip7)">
<path style=" stroke:none;fill-rule:nonzero;fill:rgb(11.372549%,11.372549%,10.588235%);fill-opacity:1;" d="M 590.507812 8.9375 C 593.285156 8.9375 595.464844 11.121094 595.464844 13.902344 L 595.464844 129.097656 C 595.464844 131.878906 593.285156 134.0625 590.507812 134.0625 L 523.042969 134.0625 C 520.265625 134.0625 518.082031 131.878906 518.082031 129.097656 L 518.082031 13.902344 C 518.082031 11.121094 520.265625 8.9375 523.042969 8.9375 L 590.507812 8.9375 M 590.507812 7.945312 L 523.042969 7.945312 C 519.667969 7.945312 517.089844 10.527344 517.089844 13.902344 L 517.089844 129.097656 C 517.089844 132.472656 519.667969 135.054688 523.042969 135.054688 L 590.507812 135.054688 C 593.878906 135.054688 596.457031 132.472656 596.457031 129.097656 L 596.457031 13.902344 C 596.457031 10.527344 593.878906 7.945312 590.507812 7.945312 Z M 590.507812 7.945312 "/>
</g>
<mask id="mask7">
  <g filter="url(#alpha)">
<rect x="0" y="0" width="629" height="143" style="fill:rgb(0%,0%,0%);fill-opacity:0.2;stroke:none;"/>
  </g>
</mask>
<clipPath id="clip8">
  <rect x="0" y="0" width="629" height="143"/>
</clipPath>
<g id="surface26" clip-path="url(#clip8)">
<path style=" stroke:none;fill-rule:nonzero;fill:rgb(11.372549%,11.372549%,10.588235%);fill-opacity:1;" d="M 600.425781 22.839844 C 603.203125 22.839844 605.386719 25.023438 605.386719 27.804688 L 605.386719 115.195312 C 605.386719 117.976562 603.203125 120.160156 600.425781 120.160156 L 513.121094 120.160156 C 510.34375 120.160156 508.160156 117.976562 508.160156 115.195312 L 508.160156 27.804688 C 508.160156 25.023438 510.34375 22.839844 513.121094 22.839844 L 600.425781 22.839844 M 600.425781 21.847656 L 513.121094 21.847656 C 509.746094 21.847656 507.167969 24.429688 507.167969 27.804688 L 507.167969 115.195312 C 507.167969 118.570312 509.746094 121.152344 513.121094 121.152344 L 600.425781 121.152344 C 603.800781 121.152344 606.378906 118.570312 606.378906 115.195312 L 606.378906 27.804688 C 606.378906 24.429688 603.800781 21.847656 600.425781 21.847656 Z M 600.425781 21.847656 "/>
</g>
<mask id="mask8">
  <g filter="url(#alpha)">
<rect x="0" y="0" width="629" height="143" style="fill:rgb(0%,0%,0%);fill-opacity:0.2;stroke:none;"/>
  </g>
</mask>
<clipPath id="clip9">
  <rect x="0" y="0" width="629" height="143"/>
</clipPath>
<g id="surface29" clip-path="url(#clip9)">
<path style=" stroke:none;fill-rule:nonzero;fill:rgb(11.372549%,11.372549%,10.588235%);fill-opacity:1;" d="M 556.773438 14.894531 C 587.925781 14.894531 613.324219 40.316406 613.324219 71.5 C 613.324219 102.683594 587.925781 128.105469 556.773438 128.105469 C 525.621094 128.105469 500.222656 102.683594 500.222656 71.5 C 500.222656 40.316406 525.621094 14.894531 556.773438 14.894531 M 556.773438 13.902344 C 525.027344 13.902344 499.230469 39.722656 499.230469 71.5 C 499.230469 103.277344 525.027344 129.097656 556.773438 129.097656 C 588.523438 129.097656 614.316406 103.277344 614.316406 71.5 C 614.316406 39.722656 588.523438 13.902344 556.773438 13.902344 Z M 556.773438 13.902344 "/>
</g>
</defs>
<g id="surface1">
<use xlink:href="#surface5" mask="url(#mask0)"/>
<use xlink:href="#surface8" mask="url(#mask1)"/>
<use xlink:href="#surface11" mask="url(#mask2)"/>
<path style=" stroke:none;fill-rule:nonzero;fill:rgb(2.352941%,2.352941%,2.352941%);fill-opacity:1;" d="M 68.058594 128.5 C 67.066406 128.5 66.074219 127.707031 66.074219 126.515625 L 66.074219 105.460938 L 51.789062 91.359375 C 50.996094 90.566406 50.996094 89.375 51.789062 88.582031 C 52.582031 87.789062 53.773438 87.789062 54.566406 88.582031 L 69.449219 103.277344 C 69.84375 103.675781 70.042969 104.070312 70.042969 104.667969 L 70.042969 126.515625 C 70.042969 127.507812 69.050781 128.5 68.058594 128.5 Z M 68.058594 128.5 "/>
<path style=" stroke:none;fill-rule:nonzero;fill:rgb(2.352941%,2.352941%,2.352941%);fill-opacity:1;" d="M 68.058594 106.652344 C 67.664062 106.652344 67.066406 106.453125 66.671875 106.058594 C 65.878906 105.265625 65.878906 104.070312 66.671875 103.277344 L 75.203125 94.339844 C 75.996094 93.546875 77.1875 93.546875 77.980469 94.339844 C 78.773438 95.132812 78.773438 96.328125 77.980469 97.121094 L 69.449219 106.058594 C 69.050781 106.457031 68.652344 106.652344 68.058594 106.652344 Z M 68.058594 106.652344 "/>
<path style=" stroke:none;fill-rule:nonzero;fill:rgb(2.352941%,2.352941%,2.352941%);fill-opacity:1;" d="M 77.980469 89.972656 C 68.652344 89.972656 59.921875 87.585938 53.773438 83.21875 C 49.605469 85.402344 44.84375 86.394531 40.082031 86.394531 C 26.390625 86.394531 15.082031 77.65625 15.082031 66.734375 C 15.082031 59.1875 20.636719 52.234375 29.171875 49.058594 C 29.171875 48.460938 29.171875 47.867188 29.171875 47.070312 C 29.171875 29.59375 45.242188 15.292969 65.085938 15.292969 C 78.378906 15.292969 90.679688 22.046875 96.832031 32.375 C 97.425781 32.375 98.222656 32.375 98.816406 32.375 C 112.707031 32.375 123.816406 41.113281 123.816406 52.035156 C 123.816406 59.582031 118.261719 66.535156 109.730469 69.710938 C 109.730469 69.910156 109.730469 70.109375 109.730469 70.308594 C 109.726562 81.230469 95.640625 89.972656 77.980469 89.972656 Z M 54.167969 78.453125 L 55.160156 79.246094 C 60.519531 83.417969 69.050781 85.996094 77.980469 85.996094 C 93.058594 85.996094 105.957031 78.847656 105.957031 70.304688 C 105.957031 69.710938 105.957031 69.3125 105.757812 68.71875 L 105.363281 66.929688 L 106.949219 66.335938 C 114.886719 63.753906 119.847656 58.191406 119.847656 51.835938 C 119.847656 43.097656 110.324219 36.144531 98.816406 36.144531 C 97.824219 36.144531 96.832031 36.144531 95.839844 36.34375 L 94.449219 36.542969 L 93.855469 35.351562 C 88.695312 25.421875 77.1875 19.066406 64.882812 19.066406 C 47.222656 19.066406 32.9375 31.578125 32.9375 46.871094 C 32.9375 47.863281 32.9375 48.855469 33.136719 49.847656 L 33.335938 51.4375 L 31.746094 51.835938 C 24.007812 54.417969 18.851562 59.980469 18.851562 66.335938 C 18.851562 75.074219 28.375 82.027344 40.082031 82.027344 C 44.445312 82.027344 48.808594 80.835938 52.777344 78.648438 Z M 54.167969 78.453125 "/>
<use xlink:href="#surface14" mask="url(#mask3)"/>
<use xlink:href="#surface17" mask="url(#mask4)"/>
<use xlink:href="#surface20" mask="url(#mask5)"/>
<path style=" stroke:none;fill-rule:nonzero;fill:rgb(11.372549%,11.372549%,10.588235%);fill-opacity:1;" d="M 327.398438 61.570312 C 326.203125 61.570312 325.414062 60.773438 325.414062 59.582031 L 325.414062 43.695312 L 313.507812 33.765625 L 301.601562 43.695312 L 301.601562 59.582031 C 301.601562 60.773438 300.808594 61.570312 299.617188 61.570312 C 298.425781 61.570312 297.632812 60.773438 297.632812 59.582031 L 297.632812 42.703125 C 297.632812 42.105469 297.832031 41.507812 298.425781 41.113281 L 311.125 30.585938 C 312.515625 29.394531 314.695312 29.394531 316.085938 30.585938 L 328.785156 41.113281 C 329.179688 41.507812 329.574219 42.105469 329.574219 42.703125 L 329.574219 59.582031 C 329.382812 60.773438 328.589844 61.570312 327.398438 61.570312 Z M 327.398438 61.570312 "/>
<path style=" stroke:none;fill-rule:nonzero;fill:rgb(11.372549%,11.372549%,10.588235%);fill-opacity:1;" d="M 313.507812 31.777344 C 312.316406 31.777344 311.523438 30.984375 311.523438 29.792969 L 311.523438 13.902344 C 311.523438 12.710938 312.316406 11.917969 313.507812 11.917969 C 314.699219 11.917969 315.492188 12.710938 315.492188 13.902344 L 315.492188 29.792969 C 315.492188 30.984375 314.699219 31.777344 313.507812 31.777344 Z M 313.507812 31.777344 "/>
<path style=" stroke:none;fill-rule:nonzero;fill:rgb(11.372549%,11.372549%,10.588235%);fill-opacity:1;" d="M 320.453125 23.832031 L 306.5625 23.832031 C 305.371094 23.832031 304.578125 23.039062 304.578125 21.847656 C 304.578125 20.65625 305.371094 19.859375 306.5625 19.859375 L 320.453125 19.859375 C 321.644531 19.859375 322.4375 20.65625 322.4375 21.847656 C 322.4375 23.039062 321.644531 23.832031 320.453125 23.832031 Z M 320.453125 23.832031 "/>
<path style=" stroke:none;fill-rule:nonzero;fill:rgb(11.372549%,11.372549%,10.588235%);fill-opacity:1;" d="M 321.644531 135.054688 L 305.570312 135.054688 C 303.386719 135.054688 301.800781 133.269531 301.800781 131.082031 L 301.800781 116.980469 C 301.800781 108.242188 309.539062 103.078125 311.921875 101.6875 C 313.113281 101.09375 314.503906 101.09375 315.691406 101.6875 C 318.070312 103.078125 325.8125 108.242188 325.8125 116.980469 L 325.8125 131.082031 C 325.414062 133.269531 323.824219 135.054688 321.644531 135.054688 Z M 313.507812 105.265625 C 311.523438 106.457031 305.570312 110.429688 305.570312 116.980469 L 305.570312 131.082031 L 321.644531 131.082031 L 321.445312 116.980469 C 321.445312 110.625 316.085938 106.851562 313.507812 105.265625 Z M 313.507812 105.265625 "/>
<path style=" stroke:none;fill-rule:nonzero;fill:rgb(11.372549%,11.372549%,10.588235%);fill-opacity:1;" d="M 313.507812 97.320312 C 306.960938 97.320312 301.601562 91.957031 301.601562 85.402344 C 301.601562 78.847656 306.960938 73.484375 313.507812 73.484375 C 320.054688 73.484375 325.414062 78.847656 325.414062 85.402344 C 325.414062 91.957031 320.054688 97.320312 313.507812 97.320312 Z M 313.507812 77.457031 C 309.144531 77.457031 305.570312 81.035156 305.570312 85.402344 C 305.570312 89.773438 309.144531 93.347656 313.507812 93.347656 C 317.875 93.347656 321.445312 89.773438 321.445312 85.402344 C 321.445312 81.035156 317.875 77.457031 313.507812 77.457031 Z M 313.507812 77.457031 "/>
<path style=" stroke:none;fill-rule:nonzero;fill:rgb(11.372549%,11.372549%,10.588235%);fill-opacity:1;" d="M 313.507812 58.390625 L 345.253906 86.59375 L 345.253906 131.082031 L 281.761719 131.082031 L 281.761719 86.59375 L 313.507812 58.390625 M 313.507812 53.625 C 313.109375 53.625 312.714844 53.824219 312.316406 54.023438 L 278.386719 84.011719 C 277.988281 84.410156 277.789062 85.003906 277.789062 85.402344 L 277.789062 133.070312 C 277.789062 134.0625 278.582031 135.054688 279.574219 135.054688 L 347.238281 135.054688 C 348.230469 135.054688 349.023438 134.261719 349.023438 133.070312 L 349.023438 85.601562 C 349.023438 85.003906 348.824219 84.410156 348.429688 84.214844 L 314.5 54.222656 C 314.5 53.824219 314.101562 53.625 313.507812 53.625 Z M 313.507812 53.625 "/>
<use xlink:href="#surface23" mask="url(#mask6)"/>
<use xlink:href="#surface26" mask="url(#mask7)"/>
<use xlink:href="#surface29" mask="url(#mask8)"/>
<path style=" stroke:none;fill-rule:nonzero;fill:rgb(0%,0%,0%);fill-opacity:1;" d="M 616.300781 99.902344 L 616.300781 97.914062 C 616.894531 97.914062 617.292969 97.519531 617.292969 96.921875 L 617.292969 53.824219 C 617.292969 53.226562 616.894531 52.832031 616.300781 52.832031 L 616.300781 50.84375 C 617.886719 50.84375 619.277344 52.234375 619.277344 53.824219 L 619.277344 96.921875 C 619.277344 98.511719 618.085938 99.902344 616.300781 99.902344 Z M 616.300781 99.902344 "/>
<path style=" stroke:none;fill-rule:nonzero;fill:rgb(0%,0%,0%);fill-opacity:1;" d="M 616.300781 100.894531 C 615.308594 100.894531 614.316406 100.101562 614.316406 98.910156 C 614.316406 97.714844 615.109375 96.921875 616.300781 96.921875 L 616.300781 53.824219 C 615.308594 53.824219 614.316406 53.027344 614.316406 51.835938 C 614.316406 50.84375 615.109375 49.851562 616.300781 49.851562 C 618.484375 49.851562 620.269531 51.640625 620.269531 53.824219 L 620.269531 96.921875 C 620.269531 99.105469 618.484375 100.894531 616.300781 100.894531 Z M 616.300781 100.894531 "/>
<path style=" stroke:none;fill-rule:nonzero;fill:rgb(0%,0%,0%);fill-opacity:1;" d="M 518.28125 110.824219 C 513.914062 110.824219 510.34375 107.25 510.34375 102.878906 C 510.34375 98.511719 513.914062 94.9375 518.28125 94.9375 C 522.644531 94.9375 526.21875 98.511719 526.21875 102.878906 C 526.21875 107.25 522.644531 110.824219 518.28125 110.824219 Z M 518.28125 99.105469 C 516.09375 99.105469 514.3125 100.890625 514.3125 103.078125 C 514.3125 105.265625 516.09375 107.050781 518.28125 107.050781 C 520.460938 107.050781 522.25 105.265625 522.25 103.078125 C 522.050781 100.894531 520.460938 99.105469 518.28125 99.105469 Z M 518.28125 99.105469 "/>
<path style=" stroke:none;fill-rule:nonzero;fill:rgb(0%,0%,0%);fill-opacity:1;" d="M 517.289062 80.835938 L 507.367188 80.835938 C 506.375 80.835938 505.382812 80.039062 505.382812 78.847656 C 505.382812 77.65625 506.175781 76.863281 507.367188 76.863281 L 515.304688 76.863281 L 515.304688 67.128906 C 515.304688 66.136719 516.09375 65.144531 517.289062 65.144531 C 518.28125 65.144531 519.273438 65.9375 519.273438 67.128906 L 519.273438 78.847656 C 519.273438 80.039062 518.28125 80.835938 517.289062 80.835938 Z M 517.289062 80.835938 "/>
<path style=" stroke:none;fill-rule:nonzero;fill:rgb(0%,0%,0%);fill-opacity:1;" d="M 599.039062 110.824219 C 594.675781 110.824219 591.101562 107.25 591.101562 102.878906 C 591.101562 98.511719 594.675781 94.9375 599.039062 94.9375 C 603.402344 94.9375 606.976562 98.511719 606.976562 102.878906 C 606.976562 107.25 603.402344 110.824219 599.039062 110.824219 Z M 599.039062 99.105469 C 596.855469 99.105469 595.070312 100.890625 595.070312 103.078125 C 595.070312 105.265625 596.855469 107.050781 599.039062 107.050781 C 601.222656 107.050781 603.007812 105.265625 603.007812 103.078125 C 603.007812 100.894531 601.222656 99.105469 599.039062 99.105469 Z M 599.039062 99.105469 "/>
<path style=" stroke:none;fill-rule:nonzero;fill:rgb(0%,0%,0%);fill-opacity:1;" d="M 581.378906 110.824219 C 577.011719 110.824219 573.441406 107.25 573.441406 102.878906 C 573.441406 98.511719 577.011719 94.9375 581.378906 94.9375 C 585.742188 94.9375 589.316406 98.511719 589.316406 102.878906 C 589.316406 107.25 585.546875 110.824219 581.378906 110.824219 Z M 581.378906 99.105469 C 579.195312 99.105469 577.410156 100.890625 577.410156 103.078125 C 577.410156 105.265625 579.195312 107.050781 581.378906 107.050781 C 583.5625 107.050781 585.347656 105.265625 585.347656 103.078125 C 585.148438 100.894531 583.5625 99.105469 581.378906 99.105469 Z M 581.378906 99.105469 "/>
<path style=" stroke:none;fill-rule:nonzero;fill:rgb(0%,0%,0%);fill-opacity:1;" d="M 506.375 102.285156 L 497.644531 102.285156 C 495.460938 102.285156 493.675781 100.496094 493.675781 98.3125 L 493.476562 86 C 493.476562 84.808594 493.675781 83.417969 494.269531 82.421875 C 495.0625 80.835938 495.460938 80.238281 495.460938 79.839844 C 495.660156 79.246094 497.246094 74.675781 499.824219 65.34375 C 503 54.023438 520.859375 52.234375 528.398438 52.035156 C 529.589844 52.035156 530.582031 52.433594 531.175781 53.226562 C 531.96875 54.023438 532.367188 55.015625 532.367188 56.007812 L 532.367188 97.914062 C 532.367188 98.910156 531.574219 99.902344 530.382812 99.902344 C 529.390625 99.902344 528.398438 99.109375 528.398438 97.914062 L 528.398438 56.007812 C 517.683594 56.207031 505.578125 59.1875 503.394531 66.335938 C 501.808594 71.898438 499.226562 81.035156 498.4375 82.027344 C 498.4375 82.226562 497.839844 83.21875 497.445312 84.214844 C 497.242188 84.808594 497.046875 85.40625 497.046875 86 L 497.246094 98.3125 L 505.976562 98.3125 C 506.96875 98.3125 507.960938 99.105469 507.960938 100.296875 C 507.960938 101.492188 507.566406 102.285156 506.375 102.285156 Z M 506.375 102.285156 "/>
<path style=" stroke:none;fill-rule:nonzero;fill:rgb(0%,0%,0%);fill-opacity:1;" d="M 616.300781 100.894531 L 610.148438 100.894531 C 609.15625 100.894531 608.164062 100.101562 608.164062 98.910156 C 608.164062 97.714844 608.957031 96.921875 610.148438 96.921875 L 616.300781 96.921875 L 616.300781 53.824219 L 539.511719 53.824219 L 539.511719 96.921875 L 569.871094 96.921875 C 570.863281 96.921875 571.855469 97.714844 571.855469 98.910156 C 571.855469 100.101562 571.0625 100.894531 569.871094 100.894531 L 537.527344 100.894531 C 536.535156 100.894531 535.542969 100.101562 535.542969 98.910156 L 535.542969 53.824219 C 535.542969 51.640625 537.328125 49.851562 539.511719 49.851562 L 616.300781 49.851562 C 618.484375 49.851562 620.269531 51.640625 620.269531 53.824219 L 620.269531 96.921875 C 620.269531 99.105469 618.484375 100.894531 616.300781 100.894531 Z M 616.300781 100.894531 "/>
<path style=" stroke:none;fill-rule:nonzero;fill:rgb(88.627451%,43.921569%,13.333333%);fill-opacity:1;" d="M 71.433594 15.890625 C 101.988281 15.890625 126.992188 40.914062 126.992188 71.5 C 126.992188 102.085938 101.988281 127.109375 71.433594 127.109375 C 40.875 127.109375 15.875 102.085938 15.875 71.5 C 15.875 40.914062 40.875 15.890625 71.433594 15.890625 M 71.433594 13.902344 C 39.683594 13.902344 13.890625 39.722656 13.890625 71.5 C 13.890625 103.277344 39.683594 129.097656 71.433594 129.097656 C 103.179688 129.097656 128.976562 103.277344 128.976562 71.5 C 128.976562 39.722656 103.179688 13.902344 71.433594 13.902344 Z M 71.433594 13.902344 "/>
<path style=" stroke:none;fill-rule:nonzero;fill:rgb(88.627451%,43.921569%,13.333333%);fill-opacity:1;" d="M 347.238281 9.929688 C 349.421875 9.929688 351.207031 11.71875 351.207031 13.902344 L 351.207031 129.097656 C 351.207031 131.28125 349.421875 133.070312 347.238281 133.070312 L 279.777344 133.070312 C 277.589844 133.070312 275.808594 131.28125 275.808594 129.097656 L 275.808594 13.902344 C 275.808594 11.71875 277.589844 9.929688 279.777344 9.929688 L 347.238281 9.929688 M 347.238281 7.945312 L 279.777344 7.945312 C 276.402344 7.945312 273.824219 10.527344 273.824219 13.902344 L 273.824219 129.097656 C 273.824219 132.472656 276.402344 135.054688 279.777344 135.054688 L 347.238281 135.054688 C 350.613281 135.054688 353.191406 132.472656 353.191406 129.097656 L 353.191406 13.902344 C 353.191406 10.527344 350.613281 7.945312 347.238281 7.945312 Z M 347.238281 7.945312 "/>
<path style=" stroke:none;fill-rule:nonzero;fill:rgb(88.627451%,43.921569%,13.333333%);fill-opacity:1;" d="M 614.316406 33.765625 C 616.5 33.765625 618.285156 35.550781 618.285156 37.734375 L 618.285156 105.265625 C 618.285156 107.449219 616.5 109.234375 614.316406 109.234375 L 499.230469 109.234375 C 497.050781 109.234375 495.261719 107.449219 495.261719 105.265625 L 495.261719 37.734375 C 495.261719 35.550781 497.050781 33.765625 499.230469 33.765625 L 614.316406 33.765625 M 614.316406 31.777344 L 499.230469 31.777344 C 495.859375 31.777344 493.277344 34.359375 493.277344 37.734375 L 493.277344 105.265625 C 493.277344 108.640625 495.859375 111.222656 499.230469 111.222656 L 614.316406 111.222656 C 617.691406 111.222656 620.269531 108.640625 620.269531 105.265625 L 620.269531 37.734375 C 620.269531 34.359375 617.691406 31.777344 614.316406 31.777344 Z M 614.316406 31.777344 "/>
</g>
</svg>
