<?xml version="1.0" encoding="UTF-8"?>
<svg xmlns="http://www.w3.org/2000/svg" xmlns:xlink="http://www.w3.org/1999/xlink" width="630px" height="px" viewBox="0 0 630 127" version="1.1">
<g id="surface1">
<path style=" stroke:none;fill-rule:nonzero;fill:rgb(0%,0%,0%);fill-opacity:1;" d="M 7.324219 92.808594 C 6.59375 92.808594 5.859375 92.320312 5.371094 91.832031 C -3.664062 78.398438 1.222656 67.65625 5.371094 58.371094 C 6.105469 56.660156 6.835938 54.707031 7.570312 53 C 9.523438 48.359375 9.277344 44.695312 9.035156 40.296875 C 8.789062 35.902344 8.789062 30.773438 10.5 23.691406 C 14.40625 9.769531 29.058594 0 46.394531 0 C 58.117188 0 64.953125 5.375 67.152344 7.570312 C 71.058594 8.304688 85.464844 11.722656 86.441406 29.308594 C 87.175781 43.230469 88.152344 45.425781 91.8125 53.242188 C 92.546875 54.953125 93.523438 57.148438 94.746094 59.835938 C 100.605469 73.757812 94.746094 87.191406 89.859375 92.074219 C 88.882812 93.050781 87.417969 93.050781 86.441406 92.074219 C 85.464844 91.097656 85.464844 89.632812 86.441406 88.65625 C 90.835938 84.257812 94.988281 72.78125 90.347656 61.789062 C 89.371094 59.347656 88.394531 57.148438 87.417969 55.441406 C 83.753906 47.378906 82.535156 44.449219 81.800781 29.796875 C 80.824219 13.433594 66.417969 12.210938 65.6875 12.210938 C 64.953125 12.210938 64.464844 11.96875 63.976562 11.480469 C 63.976562 11.234375 58.117188 4.882812 46.394531 4.882812 C 31.253906 4.882812 18.558594 13.1875 15.382812 24.910156 C 13.675781 31.261719 13.917969 35.65625 13.917969 40.054688 C 14.164062 44.695312 14.164062 48.847656 11.964844 54.707031 C 11.234375 56.660156 10.5 58.371094 9.523438 60.324219 C 5.371094 69.851562 1.710938 77.910156 9.277344 89.144531 C 10.011719 90.367188 9.765625 91.832031 8.546875 92.5625 C 8.300781 92.5625 7.8125 92.808594 7.324219 92.808594 Z M 7.324219 92.808594 "/>
<path style=" stroke:none;fill-rule:nonzero;fill:rgb(88.627451%,43.921569%,13.333333%);fill-opacity:1;" d="M 95.234375 127 L 2.441406 127 C 0.976562 127 0 126.023438 0 124.558594 L 0 114.789062 C 0 101.84375 12.453125 90.367188 26.859375 90.367188 C 27.347656 90.367188 28.082031 90.609375 28.324219 90.855469 C 42 102.332031 55.429688 102.332031 69.105469 90.855469 C 69.59375 90.605469 70.082031 90.367188 70.570312 90.367188 C 84.976562 90.367188 97.429688 101.84375 97.429688 114.789062 L 97.429688 124.558594 C 97.675781 126.023438 96.699219 127 95.234375 127 Z M 4.882812 122.117188 L 92.789062 122.117188 L 92.789062 114.789062 C 92.789062 103.796875 81.800781 95.738281 71.546875 95.25 C 56.40625 107.460938 41.023438 107.460938 25.882812 95.25 C 15.871094 95.738281 4.882812 103.796875 4.882812 114.789062 Z M 4.882812 122.117188 "/>
<path style=" stroke:none;fill-rule:nonzero;fill:rgb(0%,0%,0%);fill-opacity:1;" d="M 63.488281 48.847656 C 63.488281 51.53125 61.289062 53.730469 58.605469 53.730469 C 55.917969 53.730469 53.722656 51.53125 53.722656 48.847656 C 53.722656 46.160156 55.917969 43.960938 58.605469 43.960938 C 61.289062 43.960938 63.488281 46.160156 63.488281 48.847656 "/>
<path style=" stroke:none;fill-rule:nonzero;fill:rgb(88.627451%,43.921569%,13.333333%);fill-opacity:1;" d="M 43.953125 48.847656 C 43.953125 51.53125 41.753906 53.730469 39.070312 53.730469 C 36.382812 53.730469 34.1875 51.53125 34.1875 48.847656 C 34.1875 46.160156 36.382812 43.960938 39.070312 43.960938 C 41.753906 43.960938 43.953125 46.160156 43.953125 48.847656 "/>
<path style=" stroke:none;fill-rule:nonzero;fill:rgb(0%,0%,0%);fill-opacity:1;" d="M 48.835938 87.921875 C 32.476562 87.921875 19.535156 71.804688 19.535156 51.289062 L 19.535156 48.847656 C 19.535156 44.9375 25.152344 41.761719 37.605469 34.679688 C 45.664062 30.039062 54.941406 24.910156 59.335938 20.269531 C 60.3125 19.292969 61.777344 19.292969 62.753906 20.269531 C 72.765625 30.285156 78.140625 38.101562 78.140625 51.289062 C 78.140625 71.804688 65.199219 87.921875 48.835938 87.921875 Z M 24.417969 49.089844 L 24.417969 51.289062 C 24.417969 69.117188 35.164062 83.039062 48.835938 83.039062 C 62.511719 83.039062 73.253906 69.117188 73.253906 51.289062 C 73.253906 40.542969 69.105469 33.703125 61.046875 25.398438 C 55.917969 29.796875 47.617188 34.679688 40.046875 38.832031 C 33.941406 42.25 25.394531 47.136719 24.417969 49.089844 Z M 24.417969 49.089844 Z M 24.417969 49.089844 "/>
<path style=" stroke:none;fill-rule:nonzero;fill:rgb(88.627451%,43.921569%,13.333333%);fill-opacity:1;" d="M 48.835938 87.921875 C 32.476562 87.921875 19.535156 71.804688 19.535156 51.289062 L 19.535156 48.847656 L 24.417969 48.847656 L 24.417969 51.289062 C 24.417969 69.117188 35.164062 83.039062 48.835938 83.039062 C 62.511719 83.039062 73.253906 69.117188 73.253906 51.289062 L 78.140625 51.289062 C 78.140625 71.804688 65.199219 87.921875 48.835938 87.921875 Z M 48.835938 87.921875 "/>
<path style=" stroke:none;fill-rule:nonzero;fill:rgb(0%,0%,0%);fill-opacity:1;" d="M 48.835938 73.269531 C 45.90625 73.269531 43.222656 72.535156 40.535156 71.070312 C 39.3125 70.585938 38.824219 69.117188 39.558594 67.894531 C 40.046875 66.675781 41.511719 66.1875 42.734375 66.921875 C 46.882812 69.117188 51.035156 69.117188 55.1875 66.921875 C 56.40625 66.433594 57.871094 66.921875 58.359375 67.894531 C 58.847656 69.117188 58.359375 70.585938 57.382812 71.070312 C 54.453125 72.535156 51.765625 73.269531 48.835938 73.269531 Z M 48.835938 73.269531 "/>
<path style=" stroke:none;fill-rule:nonzero;fill:rgb(0%,0%,0%);fill-opacity:1;" d="M 280.8125 92.808594 C 280.082031 92.808594 279.347656 92.320312 278.859375 91.832031 C 269.824219 78.398438 274.710938 67.65625 278.859375 58.371094 C 279.59375 56.660156 280.324219 54.707031 281.058594 53 C 283.011719 48.359375 282.765625 44.695312 282.523438 40.296875 C 282.277344 35.902344 282.277344 30.773438 283.988281 23.691406 C 287.894531 9.769531 302.546875 0 319.882812 0 C 331.605469 0 338.441406 5.375 340.640625 7.570312 C 344.546875 8.304688 358.953125 11.722656 359.929688 29.308594 C 360.664062 43.230469 361.636719 45.425781 365.300781 53.242188 C 366.035156 54.953125 367.007812 57.148438 368.230469 59.835938 C 374.089844 73.757812 368.230469 87.191406 363.347656 92.074219 C 362.371094 93.050781 360.90625 93.050781 359.929688 92.074219 C 358.953125 91.097656 358.953125 89.632812 359.929688 88.65625 C 364.324219 84.257812 368.476562 72.78125 363.835938 61.789062 C 362.859375 59.347656 361.882812 57.148438 360.90625 55.441406 C 357.246094 47.378906 356.023438 44.449219 355.289062 29.796875 C 354.3125 13.675781 340.152344 12.457031 339.417969 12.457031 C 338.6875 12.457031 338.199219 12.210938 337.710938 11.722656 C 337.464844 11.234375 331.605469 4.882812 319.882812 4.882812 C 304.746094 4.882812 292.046875 13.1875 288.871094 24.910156 C 287.164062 31.261719 287.40625 35.65625 287.40625 40.054688 C 287.652344 44.695312 287.652344 48.847656 285.453125 54.707031 C 284.722656 56.660156 283.988281 58.371094 283.011719 60.324219 C 278.859375 69.847656 275.199219 77.910156 282.765625 89.144531 C 283.5 90.367188 283.253906 91.832031 282.035156 92.5625 C 281.789062 92.5625 281.300781 92.808594 280.8125 92.808594 Z M 280.8125 92.808594 "/>
<path style=" stroke:none;fill-rule:nonzero;fill:rgb(0%,0%,0%);fill-opacity:1;" d="M 368.722656 124.558594 C 367.253906 124.558594 366.277344 123.582031 366.277344 122.117188 L 366.277344 114.789062 C 366.277344 103.796875 355.289062 95.738281 345.035156 95.25 C 329.894531 107.460938 314.511719 107.460938 299.371094 95.25 C 289.117188 95.738281 278.128906 103.796875 278.128906 114.789062 L 278.128906 122.117188 C 278.128906 123.582031 277.152344 124.558594 275.6875 124.558594 C 274.222656 124.558594 273.246094 123.582031 273.246094 122.117188 L 273.246094 114.789062 C 273.246094 101.84375 285.699219 90.367188 300.105469 90.367188 C 300.59375 90.367188 301.324219 90.609375 301.570312 90.855469 C 315.246094 102.332031 328.675781 102.332031 342.347656 90.855469 C 342.835938 90.605469 343.324219 90.367188 343.8125 90.367188 C 358.222656 90.367188 370.675781 101.84375 370.675781 114.789062 L 370.675781 122.117188 C 371.164062 123.582031 370.1875 124.558594 368.722656 124.558594 Z M 368.722656 124.558594 "/>
<path style=" stroke:none;fill-rule:nonzero;fill:rgb(0%,0%,0%);fill-opacity:1;" d="M 368.722656 127 L 275.929688 127 C 274.464844 127 273.488281 126.023438 273.488281 124.558594 C 273.488281 123.09375 274.464844 122.117188 275.929688 122.117188 L 368.722656 122.117188 C 370.1875 122.117188 371.164062 123.09375 371.164062 124.558594 C 371.164062 126.023438 370.1875 127 368.722656 127 Z M 368.722656 127 "/>
<path style=" stroke:none;fill-rule:nonzero;fill:rgb(0%,0%,0%);fill-opacity:1;" d="M 336.976562 48.847656 C 336.976562 51.53125 334.777344 53.730469 332.09375 53.730469 C 329.40625 53.730469 327.210938 51.53125 327.210938 48.847656 C 327.210938 46.160156 329.40625 43.960938 332.09375 43.960938 C 334.777344 43.960938 336.976562 46.160156 336.976562 48.847656 "/>
<path style=" stroke:none;fill-rule:nonzero;fill:rgb(0%,0%,0%);fill-opacity:1;" d="M 317.441406 48.847656 C 317.441406 51.53125 315.246094 53.730469 312.558594 53.730469 C 309.871094 53.730469 307.675781 51.53125 307.675781 48.847656 C 307.675781 46.160156 309.871094 43.960938 312.558594 43.960938 C 315.246094 43.960938 317.441406 46.160156 317.441406 48.847656 "/>
<path style=" stroke:none;fill-rule:nonzero;fill:rgb(0%,0%,0%);fill-opacity:1;" d="M 322.324219 87.921875 C 305.964844 87.921875 293.023438 71.804688 293.023438 51.289062 L 293.023438 48.847656 C 293.023438 44.9375 298.640625 41.761719 311.09375 34.679688 C 319.152344 30.039062 328.429688 24.910156 332.824219 20.269531 C 333.800781 19.292969 335.265625 19.292969 336.246094 20.269531 C 346.253906 30.285156 351.628906 38.101562 351.628906 51.289062 C 351.628906 71.804688 338.6875 87.921875 322.324219 87.921875 Z M 297.90625 49.089844 L 297.90625 51.289062 C 297.90625 69.117188 308.652344 83.039062 322.324219 83.039062 C 336 83.039062 346.746094 69.117188 346.746094 51.289062 C 346.746094 40.542969 342.59375 33.703125 334.535156 25.398438 C 329.40625 29.796875 321.105469 34.679688 313.535156 38.832031 C 307.429688 42.25 298.882812 47.136719 297.90625 49.089844 Z M 297.90625 49.089844 Z M 297.90625 49.089844 "/>
<path style=" stroke:none;fill-rule:nonzero;fill:rgb(0%,0%,0%);fill-opacity:1;" d="M 322.324219 73.269531 C 319.394531 73.269531 316.710938 72.535156 314.023438 71.070312 C 312.800781 70.585938 312.3125 69.117188 313.046875 67.894531 C 313.535156 66.675781 315 66.1875 316.222656 66.921875 C 320.371094 69.117188 324.523438 69.117188 328.675781 66.921875 C 329.894531 66.433594 331.363281 66.921875 331.851562 67.894531 C 332.335938 69.117188 331.851562 70.585938 330.875 71.070312 C 327.941406 72.535156 325.253906 73.269531 322.324219 73.269531 Z M 322.324219 73.269531 "/>
<path style=" stroke:none;fill-rule:nonzero;fill:rgb(0%,0%,0%);fill-opacity:1;" d="M 539.652344 92.808594 C 538.917969 92.808594 538.1875 92.320312 537.699219 91.832031 C 528.664062 78.398438 533.546875 67.65625 537.699219 58.371094 C 538.429688 56.660156 539.164062 54.707031 539.894531 53 C 541.847656 48.359375 541.601562 44.695312 541.359375 40.296875 C 541.113281 35.902344 541.113281 30.773438 542.824219 23.691406 C 546.734375 9.769531 561.382812 0 578.722656 0 C 590.441406 0 597.277344 5.375 599.476562 7.570312 C 603.382812 8.304688 617.789062 11.722656 618.765625 29.308594 C 619.5 43.230469 620.472656 45.425781 624.136719 53.242188 C 624.871094 54.953125 625.847656 57.148438 627.066406 59.835938 C 632.929688 73.757812 627.066406 87.191406 622.183594 92.074219 C 621.210938 93.050781 619.742188 93.050781 618.765625 92.074219 C 617.789062 91.097656 617.789062 89.632812 618.765625 88.65625 C 623.164062 84.257812 627.3125 72.78125 622.675781 61.789062 C 621.699219 59.347656 620.722656 57.148438 619.746094 55.441406 C 616.082031 47.378906 614.859375 44.449219 614.128906 29.796875 C 613.152344 13.675781 598.988281 12.457031 598.253906 12.457031 C 597.523438 12.457031 597.035156 12.210938 596.546875 11.722656 C 596.300781 11.234375 590.441406 4.882812 578.722656 4.882812 C 563.582031 4.882812 550.882812 13.1875 547.710938 24.910156 C 546 31.261719 546.246094 35.65625 546.246094 40.054688 C 546.488281 44.695312 546.488281 48.847656 544.289062 54.707031 C 543.554688 56.660156 542.824219 58.371094 541.847656 60.324219 C 537.699219 69.847656 534.035156 77.910156 541.601562 89.144531 C 542.335938 90.367188 542.089844 91.832031 540.871094 92.5625 C 540.628906 92.5625 540.140625 92.808594 539.652344 92.808594 Z M 539.652344 92.808594 "/>
<path style=" stroke:none;fill-rule:nonzero;fill:rgb(0%,0%,0%);fill-opacity:1;" d="M 627.558594 124.558594 C 626.09375 124.558594 625.117188 123.582031 625.117188 122.117188 L 625.117188 114.789062 C 625.117188 103.796875 614.128906 95.738281 603.871094 95.25 C 588.734375 107.460938 573.347656 107.460938 558.210938 95.25 C 547.957031 95.738281 536.96875 103.796875 536.96875 114.789062 L 536.96875 122.117188 C 536.96875 123.582031 535.992188 124.558594 534.527344 124.558594 C 533.058594 124.558594 532.082031 123.582031 532.082031 122.117188 L 532.082031 114.789062 C 532.082031 101.84375 544.539062 90.367188 558.945312 90.367188 C 559.429688 90.367188 560.164062 90.609375 560.410156 90.855469 C 574.082031 102.332031 587.515625 102.332031 601.1875 90.855469 C 601.675781 90.605469 602.164062 90.367188 602.652344 90.367188 C 617.0625 90.367188 629.515625 101.84375 629.515625 114.789062 L 629.515625 122.117188 C 630 123.582031 629.023438 124.558594 627.558594 124.558594 Z M 627.558594 124.558594 "/>
<path style=" stroke:none;fill-rule:nonzero;fill:rgb(0%,0%,0%);fill-opacity:1;" d="M 627.558594 127 L 534.765625 127 C 533.300781 127 532.324219 126.023438 532.324219 124.558594 C 532.324219 123.09375 533.300781 122.117188 534.765625 122.117188 L 627.558594 122.117188 C 629.023438 122.117188 630 123.09375 630 124.558594 C 630 126.023438 629.023438 127 627.558594 127 Z M 627.558594 127 "/>
<path style=" stroke:none;fill-rule:nonzero;fill:rgb(0%,0%,0%);fill-opacity:1;" d="M 595.8125 48.847656 C 595.8125 51.53125 593.617188 53.730469 590.929688 53.730469 C 588.246094 53.730469 586.046875 51.53125 586.046875 48.847656 C 586.046875 46.160156 588.246094 43.960938 590.929688 43.960938 C 593.617188 43.960938 595.8125 46.160156 595.8125 48.847656 "/>
<path style=" stroke:none;fill-rule:nonzero;fill:rgb(0%,0%,0%);fill-opacity:1;" d="M 576.277344 48.847656 C 576.277344 51.53125 574.082031 53.730469 571.394531 53.730469 C 568.710938 53.730469 566.511719 51.53125 566.511719 48.847656 C 566.511719 46.160156 568.710938 43.960938 571.394531 43.960938 C 574.082031 43.960938 576.277344 46.160156 576.277344 48.847656 "/>
<path style=" stroke:none;fill-rule:nonzero;fill:rgb(0%,0%,0%);fill-opacity:1;" d="M 581.164062 87.921875 C 564.800781 87.921875 551.859375 71.804688 551.859375 51.289062 L 551.859375 48.847656 C 551.859375 44.9375 557.476562 41.761719 569.929688 34.679688 C 577.988281 30.039062 587.265625 24.910156 591.660156 20.269531 C 592.636719 19.292969 594.101562 19.292969 595.078125 20.269531 C 605.089844 30.285156 610.460938 38.101562 610.460938 51.289062 C 610.464844 71.804688 597.523438 87.921875 581.164062 87.921875 Z M 556.746094 49.089844 L 556.746094 51.289062 C 556.746094 69.117188 567.488281 83.039062 581.164062 83.039062 C 594.835938 83.039062 605.582031 69.117188 605.582031 51.289062 C 605.582031 40.542969 601.429688 33.703125 593.371094 25.398438 C 588.246094 29.796875 579.941406 34.679688 572.371094 38.832031 C 566.265625 42.25 557.722656 47.136719 556.746094 49.089844 Z M 556.746094 49.089844 Z M 556.746094 49.089844 "/>
<path style=" stroke:none;fill-rule:nonzero;fill:rgb(0%,0%,0%);fill-opacity:1;" d="M 581.164062 73.269531 C 578.234375 73.269531 575.546875 72.535156 572.859375 71.070312 C 571.640625 70.585938 571.152344 69.117188 571.886719 67.894531 C 572.375 66.675781 573.839844 66.1875 575.0625 66.921875 C 579.210938 69.117188 583.363281 69.117188 587.515625 66.921875 C 588.734375 66.433594 590.203125 66.921875 590.691406 67.894531 C 591.175781 69.117188 590.691406 70.585938 589.714844 71.070312 C 586.777344 72.535156 584.09375 73.269531 581.164062 73.269531 Z M 581.164062 73.269531 "/>
<path style="fill:none;stroke-width:1;stroke-linecap:round;stroke-linejoin:miter;stroke:rgb(88.627451%,43.921569%,13.333333%);stroke-opacity:1;stroke-miterlimit:10;" d="M 121.599777 36.300197 L 142.200744 36.300197 " transform="matrix(2.44186,0,0,2.442308,0,0)"/>
<path style="fill:none;stroke-width:1;stroke-linecap:round;stroke-linejoin:miter;stroke:rgb(88.627451%,43.921569%,13.333333%);stroke-opacity:1;stroke-miterlimit:10;" d="M 121.599777 4.799828 L 142.200744 4.799828 " transform="matrix(2.44186,0,0,2.442308,0,0)"/>
<path style="fill:none;stroke-width:1;stroke-linecap:round;stroke-linejoin:miter;stroke:rgb(88.627451%,43.921569%,13.333333%);stroke-opacity:1;stroke-miterlimit:10;" d="M 128.000186 4.799828 L 128.000186 16.299582 " transform="matrix(2.44186,0,0,2.442308,0,0)"/>
<path style="fill:none;stroke-width:1;stroke-linecap:round;stroke-linejoin:miter;stroke:rgb(88.627451%,43.921569%,13.333333%);stroke-opacity:1;stroke-miterlimit:10;" d="M 136.000298 4.799828 L 136.000298 16.299582 " transform="matrix(2.44186,0,0,2.442308,0,0)"/>
<path style="fill:none;stroke-width:1;stroke-linecap:round;stroke-linejoin:miter;stroke:rgb(88.627451%,43.921569%,13.333333%);stroke-opacity:1;stroke-miterlimit:10;" d="M 233.999665 13.599779 L 233.999665 14.599409 " transform="matrix(2.44186,0,0,2.442308,0,0)"/>
<path style="fill:none;stroke-width:1;stroke-linecap:round;stroke-linejoin:miter;stroke:rgb(88.627451%,43.921569%,13.333333%);stroke-opacity:1;stroke-dasharray:2.0277,3.0416;stroke-miterlimit:10;" d="M 233.999665 17.700664 L 233.999665 31.399606 " transform="matrix(2.44186,0,0,2.442308,0,0)"/>
<path style="fill:none;stroke-width:1;stroke-linecap:round;stroke-linejoin:miter;stroke:rgb(88.627451%,43.921569%,13.333333%);stroke-opacity:1;stroke-miterlimit:10;" d="M 233.999665 32.899852 L 233.999665 33.899483 " transform="matrix(2.44186,0,0,2.442308,0,0)"/>
<path style="fill:none;stroke-width:1;stroke-linecap:round;stroke-linejoin:miter;stroke:rgb(88.627451%,43.921569%,13.333333%);stroke-opacity:1;stroke-miterlimit:10;" d="M 241.999777 13.599779 L 241.999777 14.599409 " transform="matrix(2.44186,0,0,2.442308,0,0)"/>
<path style="fill:none;stroke-width:1;stroke-linecap:round;stroke-linejoin:miter;stroke:rgb(88.627451%,43.921569%,13.333333%);stroke-opacity:1;stroke-dasharray:2.0277,3.0416;stroke-miterlimit:10;" d="M 241.999777 17.700664 L 241.999777 31.399606 " transform="matrix(2.44186,0,0,2.442308,0,0)"/>
<path style="fill:none;stroke-width:1;stroke-linecap:round;stroke-linejoin:miter;stroke:rgb(88.627451%,43.921569%,13.333333%);stroke-opacity:1;stroke-miterlimit:10;" d="M 241.999777 32.899852 L 241.999777 33.899483 " transform="matrix(2.44186,0,0,2.442308,0,0)"/>
<path style="fill:none;stroke-width:1;stroke-linecap:round;stroke-linejoin:miter;stroke:rgb(88.627451%,43.921569%,13.333333%);stroke-opacity:1;stroke-miterlimit:10;" d="M 128.000186 23.599286 L 128.000186 36.300197 " transform="matrix(2.44186,0,0,2.442308,0,0)"/>
<path style="fill:none;stroke-width:1;stroke-linecap:round;stroke-linejoin:miter;stroke:rgb(88.627451%,43.921569%,13.333333%);stroke-opacity:1;stroke-miterlimit:10;" d="M 136.000298 23.599286 L 136.000298 36.300197 " transform="matrix(2.44186,0,0,2.442308,0,0)"/>
<path style="fill:none;stroke-width:1;stroke-linecap:round;stroke-linejoin:round;stroke:rgb(88.627451%,43.921569%,13.333333%);stroke-opacity:1;stroke-miterlimit:10;" d="M 129.900632 15.60064 L 128.000186 17.500738 L 126.09974 15.60064 " transform="matrix(2.44186,0,0,2.442308,0,0)"/>
<path style="fill:none;stroke-width:1;stroke-linecap:round;stroke-linejoin:round;stroke:rgb(88.627451%,43.921569%,13.333333%);stroke-opacity:1;stroke-miterlimit:10;" d="M 137.900744 15.60064 L 136.000298 17.500738 L 134.099851 15.60064 " transform="matrix(2.44186,0,0,2.442308,0,0)"/>
<path style="fill:none;stroke-width:1;stroke-linecap:round;stroke-linejoin:round;stroke:rgb(88.627451%,43.921569%,13.333333%);stroke-opacity:1;stroke-miterlimit:10;" d="M 134.099851 24.400591 L 136.000298 22.500492 L 137.900744 24.400591 " transform="matrix(2.44186,0,0,2.442308,0,0)"/>
<path style="fill:none;stroke-width:1;stroke-linecap:round;stroke-linejoin:round;stroke:rgb(88.627451%,43.921569%,13.333333%);stroke-opacity:1;stroke-miterlimit:10;" d="M 126.09974 24.400591 L 128.000186 22.500492 L 129.900632 24.400591 " transform="matrix(2.44186,0,0,2.442308,0,0)"/>
</g>
</svg>
