<?xml version="1.0" encoding="UTF-8"?>
<svg xmlns="http://www.w3.org/2000/svg" xmlns:xlink="http://www.w3.org/1999/xlink" width="630px" height="px" viewBox="0 0 628 168" version="1.1">
<g id="surface1">
<path style=" stroke:none;fill-rule:nonzero;fill:rgb(0%,0%,0%);fill-opacity:1;" d="M 61.582031 152.175781 L 38.945312 152.175781 C 18.011719 152.175781 2.433594 135.375 2.433594 113.21875 C 2.433594 93.007812 14.847656 80.347656 15.335938 79.859375 C 16.308594 78.886719 17.769531 78.886719 18.742188 79.859375 C 19.714844 80.835938 19.714844 82.296875 18.742188 83.269531 C 18.742188 83.269531 7.300781 94.957031 7.300781 113.21875 C 7.300781 132.9375 20.691406 147.304688 38.945312 147.304688 L 61.582031 147.304688 C 63.042969 147.304688 64.015625 148.277344 64.015625 149.738281 C 64.015625 151.199219 63.042969 152.175781 61.582031 152.175781 Z M 61.582031 152.175781 "/>
<path style=" stroke:none;fill-rule:nonzero;fill:rgb(0%,0%,0%);fill-opacity:1;" d="M 17.039062 84 C 16.550781 84 16.066406 83.757812 15.578125 83.511719 C 14.605469 82.78125 14.359375 81.078125 15.089844 80.105469 L 51.601562 33.84375 C 55.742188 28.730469 61.339844 28.488281 64.746094 30.433594 C 67.910156 32.140625 69.128906 35.546875 67.910156 38.46875 L 52.089844 78.886719 L 60.121094 78.886719 C 61.582031 78.886719 62.554688 79.859375 62.554688 81.320312 C 62.554688 82.78125 61.582031 83.757812 60.121094 83.757812 L 48.683594 83.757812 C 47.953125 83.757812 47.222656 83.269531 46.734375 82.78125 C 46.25 82.296875 46.25 81.320312 46.492188 80.589844 L 63.53125 36.765625 C 64.015625 35.546875 63.042969 35.0625 62.554688 34.574219 C 60.851562 33.601562 57.933594 33.84375 55.496094 36.765625 L 18.984375 83.027344 C 18.5 83.757812 17.769531 84 17.039062 84 Z M 17.039062 84 "/>
<path style=" stroke:none;fill-rule:nonzero;fill:rgb(0%,0%,0%);fill-opacity:1;" d="M 107.585938 101.042969 L 75.945312 101.042969 C 69.128906 101.042969 63.773438 96.175781 63.773438 90.085938 C 63.773438 84 69.128906 79.128906 75.945312 79.128906 L 107.585938 79.128906 C 114.402344 79.128906 119.757812 84 119.757812 90.085938 C 119.757812 96.175781 114.402344 101.042969 107.585938 101.042969 Z M 75.945312 84 C 71.804688 84 68.640625 86.679688 68.640625 90.085938 C 68.640625 93.496094 71.804688 96.175781 75.945312 96.175781 L 107.585938 96.175781 C 111.726562 96.175781 114.890625 93.496094 114.890625 90.085938 C 114.890625 86.679688 111.726562 84 107.585938 84 Z M 75.945312 84 "/>
<path style=" stroke:none;fill-rule:nonzero;fill:rgb(100%,100%,100%);fill-opacity:1;" d="M 77.648438 140 C 76.1875 140 75.214844 140.972656 75.214844 141.21875 C 75.214844 141.460938 76.1875 142.433594 77.648438 142.433594 L 95.417969 142.433594 C 96.878906 142.433594 97.851562 141.460938 97.851562 141.21875 C 97.851562 140.972656 96.878906 140 95.417969 140 Z M 77.648438 140 "/>
<path style=" stroke:none;fill-rule:nonzero;fill:rgb(0%,0%,0%);fill-opacity:1;" d="M 95.171875 152.175781 L 78.136719 152.175781 C 71.320312 152.175781 65.964844 147.304688 65.964844 141.21875 C 65.964844 135.128906 71.320312 130.261719 78.136719 130.261719 L 95.171875 130.261719 C 101.988281 130.261719 107.34375 135.128906 107.34375 141.21875 C 107.34375 147.304688 101.746094 152.175781 95.171875 152.175781 Z M 78.136719 135.128906 C 73.996094 135.128906 70.832031 137.808594 70.832031 141.21875 C 70.832031 144.625 73.996094 147.304688 78.136719 147.304688 L 95.171875 147.304688 C 99.3125 147.304688 102.476562 144.625 102.476562 141.21875 C 102.476562 137.808594 99.3125 135.128906 95.171875 135.128906 Z M 78.136719 135.128906 "/>
<path style=" stroke:none;fill-rule:nonzero;fill:rgb(0%,0%,0%);fill-opacity:1;" d="M 111.96875 118.816406 L 65.722656 118.816406 C 58.90625 118.816406 53.550781 113.949219 53.550781 107.859375 C 53.550781 101.773438 58.90625 96.90625 65.722656 96.90625 L 111.96875 96.90625 C 118.785156 96.90625 124.140625 101.773438 124.140625 107.859375 C 124.140625 113.949219 118.785156 118.816406 111.96875 118.816406 Z M 65.722656 101.773438 C 61.582031 101.773438 58.417969 104.453125 58.417969 107.859375 C 58.417969 111.269531 61.582031 113.949219 65.722656 113.949219 L 111.96875 113.949219 C 116.105469 113.949219 119.269531 111.269531 119.269531 107.859375 C 119.269531 104.453125 116.105469 101.773438 111.96875 101.773438 Z M 65.722656 101.773438 "/>
<path style=" stroke:none;fill-rule:nonzero;fill:rgb(0%,0%,0%);fill-opacity:1;" d="M 107.101562 135.128906 L 70.589844 135.128906 C 63.773438 135.128906 58.417969 130.261719 58.417969 124.175781 C 58.417969 118.085938 63.773438 113.21875 70.589844 113.21875 L 107.101562 113.21875 C 113.917969 113.21875 119.269531 118.085938 119.269531 124.175781 C 119.269531 130.261719 113.917969 135.128906 107.101562 135.128906 Z M 70.589844 118.085938 C 66.449219 118.085938 63.285156 120.765625 63.285156 124.175781 C 63.285156 127.582031 66.449219 130.261719 70.589844 130.261719 L 107.101562 130.261719 C 111.238281 130.261719 114.402344 127.582031 114.402344 124.175781 C 114.402344 120.765625 111.238281 118.085938 107.101562 118.085938 Z M 70.589844 118.085938 "/>
<path style=" stroke:none;fill-rule:nonzero;fill:rgb(0%,0%,0%);fill-opacity:1;" d="M 355.867188 78.644531 C 354.402344 78.644531 353.433594 77.425781 353.433594 75.964844 L 357.8125 19.964844 C 358.058594 17.773438 357.328125 15.824219 356.109375 14.609375 C 355.378906 13.878906 354.164062 12.90625 352.457031 12.90625 C 349.054688 12.90625 345.644531 16.3125 344.914062 20.453125 L 339.070312 62.816406 C 338.339844 68.417969 335.664062 74.503906 331.28125 74.503906 C 327.148438 74.503906 324.464844 68.417969 323.738281 62.816406 L 318.382812 20.695312 C 317.894531 16.554688 314.488281 13.148438 311.078125 13.148438 C 309.375 13.148438 308.15625 14.121094 307.671875 14.609375 C 306.453125 15.824219 305.96875 17.773438 306.210938 19.964844 L 312.296875 71.09375 C 312.539062 72.3125 311.566406 73.53125 310.105469 73.773438 C 308.886719 74.015625 307.671875 73.042969 307.429688 71.582031 L 301.34375 20.453125 C 300.855469 17.042969 301.828125 13.636719 304.019531 11.199219 C 305.96875 9.007812 308.402344 8.035156 311.078125 8.035156 C 316.921875 8.035156 322.519531 13.390625 323.25 19.722656 L 328.605469 61.84375 C 329.089844 65.984375 330.550781 68.660156 331.28125 69.148438 C 332.015625 68.417969 333.472656 65.984375 334.203125 61.84375 L 340.046875 19.476562 C 341.015625 12.90625 346.375 7.792969 352.214844 7.792969 C 354.894531 7.792969 357.570312 9.007812 359.519531 10.957031 C 361.707031 13.390625 362.683594 16.554688 362.4375 20.207031 L 358.058594 76.453125 C 358.300781 77.667969 357.082031 78.644531 355.867188 78.644531 Z M 355.867188 78.644531 "/>
<path style=" stroke:none;fill-rule:nonzero;fill:rgb(100%,100%,100%);fill-opacity:1;" d="M 283.332031 122.46875 L 277.488281 122.46875 C 270.671875 122.46875 265.316406 117.113281 265.316406 110.296875 L 265.316406 84.730469 C 265.316406 77.914062 270.671875 72.554688 277.488281 72.554688 L 283.574219 72.554688 C 290.390625 72.554688 295.746094 77.914062 295.746094 84.730469 L 295.746094 110.296875 C 295.5 117.113281 290.144531 122.46875 283.332031 122.46875 Z M 283.332031 122.46875 "/>
<path style=" stroke:none;fill-rule:nonzero;fill:rgb(0%,0%,0%);fill-opacity:1;" d="M 279.191406 118.816406 C 273.105469 118.816406 268.238281 113.460938 268.238281 106.644531 L 268.238281 89.601562 C 268.238281 82.78125 273.105469 77.425781 279.191406 77.425781 C 285.277344 77.425781 290.144531 82.78125 290.144531 89.601562 L 290.144531 106.644531 C 290.144531 113.460938 285.277344 118.816406 279.191406 118.816406 Z M 279.191406 82.296875 C 275.785156 82.296875 273.105469 85.460938 273.105469 89.601562 L 273.105469 106.644531 C 273.105469 110.78125 275.785156 113.949219 279.191406 113.949219 C 282.601562 113.949219 285.277344 110.78125 285.277344 106.644531 L 285.277344 89.601562 C 285.277344 85.460938 282.601562 82.296875 279.191406 82.296875 Z M 279.191406 82.296875 "/>
<path style=" stroke:none;fill-rule:nonzero;fill:rgb(0%,0%,0%);fill-opacity:1;" d="M 358.300781 122.714844 C 357.082031 122.714844 355.867188 121.738281 355.867188 120.523438 L 354.164062 93.496094 C 353.917969 89.355469 350.269531 85.945312 346.375 85.945312 L 322.03125 85.945312 C 317.894531 85.945312 314.730469 88.625 314.730469 92.03125 C 314.730469 95.441406 318.136719 98.851562 322.277344 99.09375 L 324.710938 99.335938 C 330.550781 100.066406 336.636719 103.234375 336.636719 107.613281 L 336.636719 112.484375 C 336.636719 113.945312 335.664062 114.917969 334.203125 114.917969 C 332.742188 114.917969 331.769531 113.945312 331.769531 112.484375 L 331.769531 107.613281 C 331.769531 106.882812 329.089844 104.691406 324.222656 104.207031 L 321.789062 103.960938 C 315.21875 103.230469 309.863281 97.875 309.863281 92.03125 C 309.863281 85.945312 315.21875 81.074219 322.03125 81.074219 L 346.375 81.074219 C 352.945312 81.074219 358.789062 86.433594 359.03125 93.007812 L 360.734375 120.03125 C 360.976562 121.496094 359.761719 122.714844 358.300781 122.714844 C 358.542969 122.714844 358.300781 122.714844 358.300781 122.714844 Z M 358.300781 122.714844 "/>
<path style=" stroke:none;fill-rule:nonzero;fill:rgb(0%,0%,0%);fill-opacity:1;" d="M 320.328125 122.226562 C 319.597656 122.226562 318.867188 121.980469 318.382812 121.496094 C 317.410156 120.523438 317.652344 119.0625 318.628906 118.085938 C 323.496094 113.949219 327.875 111.757812 333.714844 110.296875 C 334.933594 110.050781 336.394531 110.78125 336.636719 112.242188 C 336.882812 113.460938 336.148438 114.925781 334.691406 115.164062 C 329.578125 116.382812 325.925781 118.332031 321.789062 121.738281 C 321.300781 122.226562 320.816406 122.226562 320.328125 122.226562 Z M 320.328125 122.226562 "/>
<path style=" stroke:none;fill-rule:nonzero;fill:rgb(0%,0%,0%);fill-opacity:1;" d="M 296.230469 130.503906 C 290.144531 130.503906 285.277344 125.148438 285.277344 118.332031 L 285.277344 81.808594 C 285.277344 74.992188 290.144531 69.636719 296.230469 69.636719 C 302.316406 69.636719 307.183594 74.992188 307.183594 81.808594 L 307.183594 118.332031 C 307.183594 124.90625 302.074219 130.503906 296.230469 130.503906 Z M 296.230469 74.503906 C 292.824219 74.503906 290.144531 77.667969 290.144531 81.808594 L 290.144531 118.332031 C 290.144531 122.46875 292.824219 125.636719 296.230469 125.636719 C 299.640625 125.636719 302.316406 122.46875 302.316406 118.332031 L 302.316406 81.808594 C 302.316406 77.667969 299.394531 74.503906 296.230469 74.503906 Z M 296.230469 74.503906 "/>
<path style=" stroke:none;fill-rule:nonzero;fill:rgb(88.627451%,43.921569%,13.333333%);fill-opacity:1;" d="M 41.625 152.175781 C 17.527344 152.175781 2.433594 136.835938 2.433594 112 C 2.433594 111.511719 2.433594 101.285156 7.300781 91.792969 L 11.683594 93.984375 C 7.300781 102.503906 7.300781 112 7.300781 112 C 7.300781 134.15625 20.203125 147.304688 41.625 147.304688 Z M 41.625 152.175781 "/>
<path style=" stroke:none;fill-rule:nonzero;fill:rgb(88.627451%,43.921569%,13.333333%);fill-opacity:1;" d="M 314.730469 163.859375 C 292.824219 163.859375 274.8125 149.007812 270.917969 128.070312 C 270.671875 126.851562 271.648438 125.390625 273.105469 125.390625 C 274.324219 125.148438 275.542969 126.121094 275.785156 127.339844 C 279.191406 145.847656 295.5 158.992188 314.972656 158.992188 C 338.339844 158.992188 356.109375 142.433594 356.109375 120.28125 L 360.976562 120.28125 C 360.734375 145.113281 341.019531 163.859375 314.730469 163.859375 Z M 314.730469 163.859375 "/>
<path style=" stroke:none;fill-rule:nonzero;fill:rgb(0%,0%,0%);fill-opacity:1;" d="M 562.765625 150.226562 L 540.371094 150.226562 C 519.4375 150.226562 503.859375 133.425781 503.859375 111.269531 C 503.859375 91.0625 516.273438 78.398438 516.761719 77.914062 C 517.734375 76.9375 519.195312 76.9375 520.167969 77.914062 C 521.140625 78.886719 521.140625 80.347656 520.167969 81.320312 C 520.167969 81.320312 508.730469 93.007812 508.730469 111.269531 C 508.730469 130.992188 522.117188 145.355469 540.371094 145.355469 L 562.765625 145.355469 C 564.226562 145.355469 565.199219 146.328125 565.199219 147.792969 C 565.199219 149.253906 564.226562 150.226562 562.765625 150.226562 Z M 562.765625 150.226562 "/>
<path style=" stroke:none;fill-rule:nonzero;fill:rgb(0%,0%,0%);fill-opacity:1;" d="M 518.464844 82.050781 C 517.976562 82.050781 517.492188 81.808594 517.003906 81.566406 C 516.03125 80.835938 515.789062 79.128906 516.519531 78.15625 L 553.03125 31.894531 C 557.167969 26.78125 562.765625 26.539062 566.171875 28.488281 C 569.339844 30.191406 570.554688 33.601562 569.339844 36.523438 L 553.515625 76.9375 L 562.765625 76.9375 C 564.226562 76.9375 565.199219 77.914062 565.199219 79.375 C 565.199219 80.835938 564.226562 81.808594 562.765625 81.808594 L 550.109375 81.808594 C 549.378906 81.808594 548.648438 81.320312 548.160156 80.835938 C 547.675781 80.347656 547.675781 79.375 547.914062 78.644531 L 564.953125 34.816406 C 565.441406 33.601562 564.46875 33.113281 563.984375 32.625 C 562.277344 31.652344 559.359375 31.894531 556.925781 34.816406 L 520.414062 81.078125 C 519.925781 81.808594 519.195312 82.050781 518.464844 82.050781 Z M 518.464844 82.050781 "/>
<path style=" stroke:none;fill-rule:nonzero;fill:rgb(0%,0%,0%);fill-opacity:1;" d="M 596.601562 151.199219 L 579.5625 151.199219 C 572.746094 151.199219 567.390625 146.332031 567.390625 140.242188 C 567.390625 134.15625 572.746094 129.285156 579.5625 129.285156 L 596.601562 129.285156 C 603.417969 129.285156 608.769531 134.15625 608.769531 140.242188 C 608.769531 146.332031 603.171875 151.199219 596.601562 151.199219 Z M 579.5625 134.15625 C 575.425781 134.15625 572.257812 136.835938 572.257812 140.242188 C 572.257812 143.652344 575.425781 146.332031 579.5625 146.332031 L 596.601562 146.332031 C 600.738281 146.332031 603.902344 143.652344 603.902344 140.242188 C 603.902344 136.835938 600.738281 134.15625 596.601562 134.15625 Z M 579.5625 134.15625 "/>
<path style=" stroke:none;fill-rule:nonzero;fill:rgb(0%,0%,0%);fill-opacity:1;" d="M 613.394531 117.113281 L 567.148438 117.113281 C 560.332031 117.113281 554.976562 112.242188 554.976562 106.15625 C 554.976562 100.070312 560.332031 95.199219 567.148438 95.199219 L 613.394531 95.199219 C 620.210938 95.199219 625.566406 100.070312 625.566406 106.15625 C 625.566406 112.242188 620.210938 117.113281 613.394531 117.113281 Z M 567.148438 100.070312 C 563.007812 100.070312 559.84375 102.75 559.84375 106.15625 C 559.84375 109.566406 563.007812 112.242188 567.148438 112.242188 L 613.394531 112.242188 C 617.535156 112.242188 620.699219 109.566406 620.699219 106.15625 C 620.699219 102.75 617.535156 100.070312 613.394531 100.070312 Z M 567.148438 100.070312 "/>
<path style=" stroke:none;fill-rule:nonzero;fill:rgb(0%,0%,0%);fill-opacity:1;" d="M 608.527344 134.15625 L 572.015625 134.15625 C 565.199219 134.15625 559.84375 129.285156 559.84375 123.199219 C 559.84375 117.113281 565.199219 112.242188 572.015625 112.242188 L 608.527344 112.242188 C 615.34375 112.242188 620.699219 117.113281 620.699219 123.199219 C 620.699219 129.285156 615.34375 134.15625 608.527344 134.15625 Z M 572.015625 117.113281 C 567.878906 117.113281 564.714844 119.792969 564.714844 123.199219 C 564.714844 126.609375 567.878906 129.285156 572.015625 129.285156 L 608.527344 129.285156 C 612.664062 129.285156 615.828125 126.609375 615.828125 123.199219 C 615.828125 119.792969 612.664062 117.113281 608.527344 117.113281 Z M 572.015625 117.113281 "/>
<path style=" stroke:none;fill-rule:nonzero;fill:rgb(88.627451%,43.921569%,13.333333%);fill-opacity:1;" d="M 609.015625 99.824219 L 577.371094 99.824219 C 570.554688 99.824219 565.199219 94.957031 565.199219 88.871094 C 565.199219 82.78125 570.554688 77.914062 577.371094 77.914062 L 609.015625 77.914062 C 615.828125 77.914062 621.183594 82.78125 621.183594 88.871094 C 621.183594 94.957031 615.828125 99.824219 609.015625 99.824219 Z M 577.371094 82.78125 C 573.234375 82.78125 570.066406 85.460938 570.066406 88.871094 C 570.066406 92.277344 573.234375 94.957031 577.371094 94.957031 L 609.015625 94.957031 C 613.152344 94.957031 616.316406 92.277344 616.316406 88.871094 C 616.316406 85.460938 613.152344 82.78125 609.015625 82.78125 Z M 577.371094 82.78125 "/>
</g>
</svg>
