<?xml version="1.0" encoding="UTF-8"?>
<svg xmlns="http://www.w3.org/2000/svg" xmlns:xlink="http://www.w3.org/1999/xlink" width="630px" height="px" viewBox="0 0 629 231" version="1.1">
<g id="surface1">
<path style=" stroke:none;fill-rule:nonzero;fill:rgb(53.72549%,40.392157%,66.666667%);fill-opacity:1;" d="M 193.5625 55.925781 C 194.167969 91.183594 183.230469 122.792969 165.910156 138.601562 C 165.605469 138.902344 165.300781 139.207031 165 139.511719 C 164.390625 140.121094 163.78125 140.726562 163.175781 141.335938 C 162.265625 142.25 161.351562 143.164062 160.441406 144.070312 C 159.226562 144.984375 158.3125 145.894531 157.097656 147.109375 C 156.492188 147.71875 155.882812 148.023438 155.273438 148.328125 C 153.453125 149.542969 151.933594 150.757812 150.109375 151.972656 C 149.5 152.28125 148.894531 152.886719 148.285156 153.191406 C 129.75 165.039062 106.960938 170.820312 83.5625 168.386719 C 81.132812 168.078125 78.699219 167.777344 76.269531 167.171875 C 72.625 166.257812 69.28125 165.042969 66.242188 163.523438 C 175.328125 162.613281 165.605469 64.742188 165.300781 54.710938 Z M 193.5625 55.925781 "/>
<path style=" stroke:none;fill-rule:nonzero;fill:rgb(53.72549%,40.392157%,66.666667%);fill-opacity:1;" d="M 94.199219 172.035156 C 90.550781 172.035156 86.90625 171.726562 82.953125 171.425781 C 80.21875 171.121094 77.789062 170.820312 75.359375 170.210938 C 71.710938 169.296875 68.066406 168.082031 64.417969 166.257812 C 63.203125 165.652344 62.597656 164.132812 62.898438 162.914062 C 63.203125 161.699219 64.417969 160.480469 65.9375 160.480469 C 98.148438 160.175781 122.761719 151.367188 139.171875 134.039062 C 151.019531 121.574219 164.390625 98.175781 162.265625 56.535156 C 162.265625 55.925781 162.265625 55.320312 162.265625 54.707031 C 162.265625 53.796875 162.566406 53.1875 163.175781 52.582031 C 163.78125 51.976562 164.695312 51.671875 165.300781 51.671875 L 193.5625 52.585938 C 195.082031 52.585938 196.601562 53.796875 196.601562 55.625 C 197.207031 91.183594 186.269531 123.707031 167.734375 140.730469 L 167.734375 141.035156 C 167.429688 141.339844 167.125 141.640625 167.125 141.640625 C 166.519531 142.25 165.910156 142.855469 165.300781 143.464844 C 164.390625 144.378906 163.480469 145.292969 162.566406 146.203125 C 161.351562 147.113281 160.441406 148.027344 159.226562 149.242188 C 158.921875 149.546875 158.3125 149.847656 158.007812 150.152344 L 157.402344 150.457031 C 155.578125 151.976562 153.753906 153.191406 151.933594 154.410156 L 151.019531 155.011719 C 150.414062 155.320312 150.109375 155.621094 149.5 155.929688 C 133.09375 166.5625 113.949219 172.035156 94.199219 172.035156 Z M 84.777344 165.652344 C 106.351562 167.777344 128.230469 162.613281 146.460938 150.761719 C 147.070312 150.453125 147.375 150.152344 147.679688 149.847656 L 148.285156 149.542969 C 149.804688 148.328125 151.628906 147.109375 153.148438 145.894531 L 153.753906 145.289062 C 154.058594 144.984375 154.363281 144.683594 154.667969 144.375 C 155.882812 143.464844 156.792969 142.550781 158.007812 141.640625 C 158.921875 140.730469 159.832031 139.816406 160.746094 139.210938 C 161.351562 138.601562 161.960938 137.996094 162.566406 137.382812 C 162.871094 137.082031 163.175781 136.777344 163.175781 136.777344 L 163.480469 136.472656 C 180.191406 121.273438 190.523438 91.488281 190.21875 58.964844 L 168.039062 58.359375 C 169.859375 100.910156 155.578125 125.535156 143.121094 138.601562 C 129.445312 153.191406 109.695312 162.308594 84.777344 165.652344 Z M 84.777344 165.652344 "/>
<path style=" stroke:none;fill-rule:nonzero;fill:rgb(70.196078%,60%,78.431373%);fill-opacity:1;" d="M 140.992188 52.277344 L 140.386719 52.277344 C 140.6875 51.671875 140.6875 51.671875 140.992188 52.277344 Z M 140.992188 52.277344 "/>
<path style=" stroke:none;fill-rule:nonzero;fill:rgb(70.196078%,60%,78.431373%);fill-opacity:1;" d="M 140.992188 55.320312 C 140.992188 55.320312 140.6875 55.320312 140.992188 55.320312 L 140.082031 55.320312 C 138.867188 55.320312 137.953125 54.40625 137.652344 53.496094 C 137.347656 52.582031 137.347656 51.367188 138.257812 50.457031 C 139.472656 48.933594 140.992188 48.933594 141.601562 49.238281 C 142.816406 49.546875 143.726562 50.457031 144.335938 51.671875 C 144.640625 52.585938 144.640625 53.796875 144.03125 54.40625 C 142.816406 54.710938 141.90625 55.320312 140.992188 55.320312 Z M 140.386719 52.277344 L 137.953125 53.191406 C 138.257812 53.796875 138.867188 54.710938 140.082031 54.710938 C 140.992188 55.015625 142.207031 54.40625 142.511719 54.105469 Z M 140.386719 52.277344 "/>
<path style=" stroke:none;fill-rule:nonzero;fill:rgb(70.196078%,60%,78.431373%);fill-opacity:1;" d="M 65.9375 163.523438 C 65.636719 163.523438 65.332031 163.21875 65.027344 163.21875 C 48.921875 154.410156 39.503906 136.472656 43.453125 117.933594 C 48.316406 95.136719 71.105469 80.246094 94.804688 84.804688 C 94.804688 84.804688 119.417969 92.707031 135.523438 73.253906 C 140.992188 66.566406 142.207031 54.410156 140.992188 52.28125 L 173.8125 54.710938 L 164.695312 50.457031 C 165 59.878906 175.328125 162.914062 65.9375 163.523438 Z M 65.9375 163.523438 "/>
<path style=" stroke:none;fill-rule:nonzero;fill:rgb(70.196078%,60%,78.431373%);fill-opacity:1;" d="M 65.9375 166.5625 C 65.636719 166.5625 65.027344 166.5625 64.722656 166.257812 C 64.417969 165.957031 63.8125 165.957031 63.507812 165.652344 C 45.578125 155.929688 36.160156 136.472656 40.414062 117.019531 C 45.578125 92.703125 70.191406 76.59375 95.414062 81.761719 L 95.71875 81.761719 C 96.628906 82.066406 118.507812 88.753906 133.09375 71.125 C 137.652344 65.347656 138.867188 55.015625 138.257812 53.191406 C 137.652344 52.277344 137.953125 51.066406 138.5625 50.152344 C 139.171875 49.238281 140.386719 48.9375 141.296875 48.9375 L 161.960938 50.457031 L 161.960938 50.152344 C 161.960938 48.9375 162.566406 48.027344 163.480469 47.417969 C 164.390625 46.8125 165.605469 46.8125 166.519531 47.113281 L 175.632812 51.367188 C 176.847656 51.976562 177.761719 53.496094 177.152344 55.015625 C 176.847656 56.535156 175.632812 57.445312 174.113281 57.140625 L 168.644531 56.839844 C 169.554688 100 155.273438 124.617188 142.816406 137.992188 C 124.886719 156.835938 99.058594 166.5625 65.9375 166.5625 Z M 85.992188 86.929688 C 67.152344 86.929688 50.136719 99.695312 46.1875 118.535156 C 42.542969 135.257812 50.746094 152.277344 66.242188 160.484375 C 97.238281 160.179688 121.242188 151.367188 137.347656 134.039062 C 149.199219 121.574219 162.871094 97.871094 161.65625 56.535156 L 144.03125 55.320312 C 144.03125 61.09375 141.90625 69.605469 137.347656 75.074219 C 121.546875 95.136719 96.628906 88.449219 94.199219 87.839844 C 91.464844 87.234375 88.726562 86.929688 85.992188 86.929688 Z M 85.992188 86.929688 "/>
<path style=" stroke:none;fill-rule:nonzero;fill:rgb(0%,0%,0%);fill-opacity:1;" d="M 94.199219 172.035156 C 90.550781 172.035156 86.90625 171.726562 83.257812 171.425781 C 80.828125 171.121094 78.09375 170.820312 75.664062 170.210938 C 51.050781 164.433594 35.550781 141.335938 40.71875 117.324219 C 45.882812 92.699219 70.496094 76.898438 95.71875 81.761719 C 96.019531 81.761719 117.898438 87.234375 132.179688 72.949219 C 133.398438 71.734375 135.21875 71.734375 136.433594 72.949219 C 137.652344 74.164062 137.652344 75.988281 136.433594 77.203125 C 120.027344 93.917969 95.414062 87.839844 94.5 87.535156 C 72.320312 83.585938 51.050781 97.261719 46.492188 118.539062 C 42.238281 139.210938 55.605469 159.574219 76.878906 164.4375 C 79.003906 164.742188 81.4375 165.351562 83.867188 165.351562 C 131.878906 170.515625 177.152344 138.601562 186.875 92.402344 L 187.179688 91.1875 C 188.394531 86.023438 189.308594 80.550781 189.613281 75.6875 C 189.613281 73.863281 191.132812 72.644531 192.953125 72.949219 C 194.777344 72.949219 195.992188 74.46875 195.6875 76.296875 C 195.386719 81.769531 194.167969 87.238281 192.953125 92.707031 L 192.648438 93.921875 C 183.230469 139.511719 140.992188 172.035156 94.199219 172.035156 Z M 94.199219 172.035156 "/>
<path style=" stroke:none;fill-rule:nonzero;fill:rgb(36.078431%,61.960784%,19.215686%);fill-opacity:1;" d="M 196.90625 63.222656 C 196.90625 63.222656 185.660156 64.742188 176.242188 57.75 C 174.722656 69.304688 165.605469 75.988281 165.605469 75.988281 C 165.605469 75.988281 156.492188 69.304688 154.972656 57.75 C 152.84375 59.269531 150.414062 60.484375 148.285156 61.398438 C 140.992188 64.132812 134.308594 63.222656 134.308594 63.222656 C 134.308594 63.222656 132.484375 49.546875 142.207031 39.820312 C 144.335938 37.691406 146.460938 36.171875 148.589844 35.261719 C 157.097656 31.003906 179.886719 30.09375 189.613281 39.820312 C 198.726562 49.546875 196.90625 63.222656 196.90625 63.222656 Z M 196.90625 63.222656 "/>
<path style=" stroke:none;fill-rule:nonzero;fill:rgb(36.078431%,61.960784%,19.215686%);fill-opacity:1;" d="M 165.300781 79.027344 C 164.695312 79.027344 164.085938 78.722656 163.480469 78.421875 C 163.175781 78.113281 155.578125 72.34375 152.539062 62.617188 C 151.324219 63.222656 150.109375 63.828125 148.894531 64.136719 C 140.992188 67.175781 133.699219 66.261719 133.398438 66.261719 C 132.179688 65.957031 130.964844 65.046875 130.660156 63.527344 C 130.660156 62.921875 128.535156 48.332031 139.171875 37.691406 C 141.296875 35.566406 143.425781 34.046875 146.160156 32.527344 C 155.273438 27.664062 179.886719 26.753906 190.828125 37.691406 C 201.460938 48.332031 199.640625 62.921875 199.335938 63.527344 C 199.03125 64.742188 198.121094 65.960938 196.90625 65.960938 C 196.601562 65.960938 187.179688 67.175781 177.761719 62.3125 C 174.722656 72.039062 167.125 77.816406 166.820312 78.117188 C 166.820312 78.722656 165.910156 79.027344 165.300781 79.027344 Z M 154.667969 54.710938 C 154.972656 54.710938 155.578125 54.710938 155.882812 55.015625 C 156.792969 55.320312 157.707031 56.230469 157.707031 57.449219 C 158.617188 64.441406 162.871094 69.605469 165.300781 72.039062 C 167.734375 69.605469 171.988281 64.441406 172.898438 57.449219 C 172.898438 56.234375 173.8125 55.625 174.722656 55.015625 C 175.632812 54.710938 176.847656 54.710938 177.761719 55.320312 C 183.535156 59.578125 190.21875 60.488281 193.5625 60.488281 C 193.5625 56.539062 192.648438 48.332031 186.574219 42.25 C 177.761719 33.4375 156.492188 34.347656 149.199219 38.300781 C 147.070312 39.511719 145.246094 40.730469 143.726562 42.25 C 137.652344 48.332031 136.738281 56.539062 136.738281 60.488281 C 139.171875 60.488281 142.816406 60.183594 146.765625 58.664062 C 148.894531 57.75 151.019531 56.839844 152.539062 55.320312 C 153.453125 55.015625 154.058594 54.710938 154.667969 54.710938 Z M 196.90625 63.222656 Z M 196.90625 63.222656 Z M 196.90625 63.222656 "/>
<path style=" stroke:none;fill-rule:nonzero;fill:rgb(0%,0%,0%);fill-opacity:1;" d="M 163.78125 22.796875 C 162.871094 22.796875 161.65625 22.191406 161.046875 21.277344 C 159.226562 18.238281 156.492188 16.71875 152.234375 16.71875 C 150.414062 16.71875 149.199219 15.503906 149.199219 13.675781 C 149.199219 11.855469 150.414062 10.636719 152.234375 10.636719 C 160.136719 10.636719 164.390625 14.59375 166.519531 18.238281 C 167.429688 19.757812 166.820312 21.582031 165.300781 22.492188 C 164.695312 22.796875 164.085938 22.796875 163.78125 22.796875 Z M 163.78125 22.796875 "/>
<path style=" stroke:none;fill-rule:nonzero;fill:rgb(69.411765%,80%,20%);fill-opacity:1;" d="M 165.300781 75.988281 C 165.300781 75.988281 156.1875 69.304688 154.667969 57.75 C 152.539062 59.269531 150.109375 60.484375 147.980469 61.398438 C 140.6875 64.132812 134.003906 63.222656 134.003906 63.222656 C 134.003906 63.222656 132.179688 49.546875 141.90625 39.820312 C 144.03125 37.691406 146.160156 36.171875 148.285156 35.261719 C 156.792969 31.003906 165.300781 32.222656 165.300781 32.222656 Z M 165.300781 75.988281 "/>
<path style=" stroke:none;fill-rule:nonzero;fill:rgb(0%,0%,0%);fill-opacity:1;" d="M 165.300781 79.027344 C 164.695312 79.027344 164.085938 78.722656 163.480469 78.421875 C 163.175781 78.113281 155.578125 72.34375 152.539062 62.617188 C 151.324219 63.222656 150.109375 63.828125 148.894531 64.136719 C 140.992188 67.175781 133.699219 66.261719 133.398438 66.261719 C 132.179688 65.957031 130.964844 65.046875 130.660156 63.527344 C 130.660156 62.921875 128.535156 48.332031 139.171875 37.691406 C 141.296875 35.566406 143.425781 34.046875 146.160156 32.527344 C 155.273438 27.664062 179.886719 26.753906 190.828125 37.691406 C 201.460938 48.332031 199.640625 62.921875 199.335938 63.527344 C 199.03125 64.742188 198.121094 65.960938 196.90625 65.960938 C 196.601562 65.960938 187.179688 67.175781 177.761719 62.3125 C 174.722656 72.039062 167.125 77.816406 166.820312 78.117188 C 166.820312 78.722656 165.910156 79.027344 165.300781 79.027344 Z M 154.667969 54.710938 C 154.972656 54.710938 155.578125 54.710938 155.882812 55.015625 C 156.792969 55.320312 157.707031 56.230469 157.707031 57.449219 C 158.617188 64.441406 162.871094 69.605469 165.300781 72.039062 C 167.734375 69.605469 171.988281 64.441406 172.898438 57.449219 C 172.898438 56.234375 173.8125 55.625 174.722656 55.015625 C 175.632812 54.710938 176.847656 54.710938 177.761719 55.320312 C 183.535156 59.578125 190.21875 60.488281 193.5625 60.488281 C 193.5625 56.539062 192.648438 48.332031 186.574219 42.25 C 177.761719 33.4375 156.492188 34.347656 149.199219 38.300781 C 147.070312 39.511719 145.246094 40.730469 143.726562 42.25 C 137.652344 48.332031 136.738281 56.539062 136.738281 60.488281 C 139.171875 60.488281 142.816406 60.183594 146.765625 58.664062 C 148.894531 57.75 151.019531 56.839844 152.539062 55.320312 C 153.453125 55.015625 154.058594 54.710938 154.667969 54.710938 Z M 196.90625 63.222656 Z M 196.90625 63.222656 Z M 196.90625 63.222656 "/>
<path style=" stroke:none;fill-rule:nonzero;fill:rgb(0%,0%,0%);fill-opacity:1;" d="M 134.003906 78.113281 C 133.09375 78.113281 132.484375 77.808594 131.878906 77.203125 C 130.660156 75.988281 130.660156 74.164062 131.878906 72.949219 C 132.179688 72.644531 132.484375 72.34375 132.789062 71.734375 C 134.003906 70.519531 135.828125 70.519531 137.042969 71.425781 C 138.257812 72.644531 138.257812 74.46875 137.347656 75.683594 C 137.042969 75.988281 136.433594 76.59375 136.132812 76.898438 C 135.523438 77.808594 134.613281 78.113281 134.003906 78.113281 Z M 134.003906 78.113281 "/>
<path style=" stroke:none;fill-rule:nonzero;fill:rgb(64.705882%,47.45098%,22.352941%);fill-opacity:1;" d="M 498.339844 55.925781 C 494.386719 48.632812 487.703125 44.074219 483.144531 41.945312 C 480.714844 40.730469 477.980469 39.816406 475.246094 39.210938 C 466.128906 37.082031 459.746094 33.128906 456.40625 30.699219 C 454.277344 29.179688 452.757812 26.746094 452.453125 24.011719 C 451.847656 18.539062 456.40625 16.414062 464.914062 17.324219 C 472.207031 18.238281 476.765625 23.710938 479.195312 27.050781 C 480.714844 29.484375 482.539062 31.914062 484.964844 32.828125 C 491.648438 35.867188 492.257812 26.441406 492.257812 26.441406 L 487.394531 22.792969 L 476.152344 11.851562 L 464 7.59375 L 452.757812 10.941406 L 446.984375 15.804688 L 444.554688 25.230469 L 453.671875 38.300781 L 467.652344 44.683594 L 482.84375 50.457031 L 491.046875 58.359375 L 493.476562 66.867188 L 488.3125 72.035156 L 480.105469 72.035156 L 465.519531 66.261719 L 449.71875 62.917969 L 440.605469 67.171875 L 434.527344 67.476562 L 436.046875 58.964844 L 433.007812 55.320312 L 425.410156 55.320312 L 420.546875 59.269531 L 414.164062 52.886719 L 404.746094 49.542969 L 390.765625 60.179688 L 386.515625 72.949219 L 387.726562 82.066406 L 391.984375 93.3125 L 398.363281 103.34375 L 395.632812 110.636719 L 381.046875 127.355469 L 361.898438 137.082031 L 346.101562 143.160156 L 340.628906 149.542969 L 343.976562 153.191406 L 363.726562 149.542969 L 384.390625 144.070312 L 403.226562 139.816406 L 415.992188 122.1875 L 420.851562 111.855469 L 429.359375 118.847656 L 435.4375 126.75 L 430.273438 141.640625 L 426.019531 148.933594 L 412.34375 152.28125 L 405.050781 157.449219 L 408.394531 162.613281 L 420.851562 165.957031 L 431.792969 164.132812 L 447.292969 167.171875 L 463.398438 162.308594 L 469.171875 141.945312 L 469.773438 125.835938 L 486.183594 115.804688 L 497.425781 97.261719 L 498.945312 88.144531 C 498.945312 88.144531 496.820312 83.585938 493.171875 78.421875 C 505.632812 69.605469 498.339844 55.925781 498.339844 55.925781 Z M 498.339844 55.925781 "/>
<path style=" stroke:none;fill-rule:nonzero;fill:rgb(41.568627%,27.45098%,18.431373%);fill-opacity:1;" d="M 489.222656 113.070312 L 488.007812 120.972656 L 495 132.523438 L 515.054688 138.90625 L 516.875 150.152344 L 516.875 166.5625 L 510.195312 169.296875 L 502.292969 165.652344 L 501.078125 154.710938 C 501.078125 154.710938 497.125 152.277344 496.519531 152.277344 C 495.914062 152.277344 474.945312 141.03125 474.945312 141.03125 C 474.945312 141.03125 469.472656 134.648438 470.691406 124.316406 L 489.222656 113.070312 "/>
<path style=" stroke:none;fill-rule:nonzero;fill:rgb(95.686275%,66.666667%,25.490196%);fill-opacity:1;" d="M 398.671875 74.164062 L 411.738281 75.074219 L 415.078125 83.585938 L 411.128906 91.183594 L 410.21875 97.871094 L 395.328125 97.871094 L 392.59375 89.96875 L 388.339844 80.851562 L 391.984375 75.074219 Z M 398.671875 74.164062 "/>
<path style="fill:none;stroke-width:2;stroke-linecap:round;stroke-linejoin:round;stroke:rgb(0%,0%,0%);stroke-opacity:1;stroke-miterlimit:10;" d="M 161.000143 9.000068 C 154.800067 -1.100108 147.099786 3.30161 146.400462 6.500406 C 145.798837 9.300798 146.90053 12.700081 155.699933 15.100785 C 158.99987 16.000406 160.899872 17.800933 162.000279 19.700419 C 163.299943 21.900636 161.100414 24.600785 158.600072 23.801407 C 153.901487 22.201366 149.201616 18.802083 143.600594 22.901786 " transform="matrix(3.038647,0,0,3.039474,0,0)"/>
<path style="fill:none;stroke-width:2;stroke-linecap:round;stroke-linejoin:round;stroke:rgb(0%,0%,0%);stroke-opacity:1;stroke-miterlimit:10;" d="M 140.399642 28.800731 C 145.400325 29.101461 143.199511 19.101529 143.199511 19.101529 C 142.699442 18.300866 140.899711 17.301001 138.598625 20.300595 C 137.598488 16.801069 133.498957 16.600582 133.498957 16.600582 C 131.898481 17.401245 126.999354 19.601461 127.999491 25.600649 " transform="matrix(3.038647,0,0,3.039474,0,0)"/>
<path style="fill:none;stroke-width:2;stroke-linecap:round;stroke-linejoin:round;stroke:rgb(0%,0%,0%);stroke-opacity:1;stroke-miterlimit:10;" d="M 129.200169 29.600108 C 129.200169 29.600108 126.199759 25.799851 129.999764 24.999188 C 133.799769 24.198525 135.299974 24.999188 135.299974 24.999188 C 135.299974 24.999188 138.300384 25.799851 135.299974 29.600108 C 135.299974 29.600108 136.400381 32.999391 132.600376 32.999391 C 128.800371 32.999391 129.200169 29.600108 129.200169 29.600108 Z M 129.200169 29.600108 " transform="matrix(3.038647,0,0,3.039474,0,0)"/>
<path style="fill:none;stroke-width:2;stroke-linecap:round;stroke-linejoin:round;stroke:rgb(0%,0%,0%);stroke-opacity:1;stroke-miterlimit:10;" d="M 136.400381 39.800528 L 133.099159 45.801001 C 133.099159 45.801001 125.199622 47.601529 122.799552 48.200419 C 120.998534 48.700352 117.400356 49.80046 115.798595 50.300392 C 115.099271 50.499594 114.29839 50.499594 113.599066 50.10119 C 112.498659 49.499729 111.700349 47.300798 119.40063 44.90138 C 126.199759 42.701163 131.200442 37.300866 131.499969 32.900433 " transform="matrix(3.038647,0,0,3.039474,0,0)"/>
<path style="fill:none;stroke-width:2;stroke-linecap:round;stroke-linejoin:round;stroke:rgb(0%,0%,0%);stroke-opacity:1;stroke-miterlimit:10;" d="M 144.299918 30.999662 C 144.299918 30.999662 152.199455 38.899621 149.799384 42.499391 C 147.999652 45.19954 145.300055 50.099905 143.90012 52.599567 C 143.400052 53.499188 142.500186 54.099364 141.399779 54.099364 L 136.400381 54.099364 C 133.798483 54.099364 133.500242 50.200149 136.099569 49.899418 C 136.298825 49.899418 136.400381 49.899418 136.599637 49.899418 C 137.700045 49.899418 140.700455 49.300528 141.200523 48.299378 L 144.299918 41.400568 C 144.299918 41.400568 141.401064 37.100379 138.200113 36.500203 " transform="matrix(3.038647,0,0,3.039474,0,0)"/>
<path style="fill:none;stroke-width:2;stroke-linecap:round;stroke-linejoin:round;stroke:rgb(0%,0%,0%);stroke-opacity:1;stroke-miterlimit:10;" d="M 163.69974 29.200419 C 163.69974 29.200419 166.70015 35.900027 154.599526 41.30161 C 154.599526 41.30161 154.699796 47.000068 153.298577 52.301407 C 152.99905 53.299986 152.099184 53.901448 151.099047 53.699675 L 147.799111 53.699675 " transform="matrix(3.038647,0,0,3.039474,0,0)"/>
<path style="fill:none;stroke-width:2;stroke-linecap:round;stroke-linejoin:round;stroke:rgb(0%,0%,0%);stroke-opacity:1;stroke-miterlimit:10;" d="M 157.399394 46.000203 C 158.399531 48.999797 163.400214 50.200149 165.400487 49.999662 L 165.499472 52.800054 C 165.499472 54.100649 166.70015 55.199472 167.999814 55.100514 C 168.99995 55.000271 170.000087 54.40138 170.100358 53.401515 C 170.399884 49.999662 169.399748 46.000203 169.399748 46.000203 C 159.700479 44.199675 160.098991 38.800663 160.098991 38.800663 " transform="matrix(3.038647,0,0,3.039474,0,0)"/>
<path style=" stroke:none;fill-rule:nonzero;fill:rgb(0%,0%,0%);fill-opacity:1;" d="M 177.058594 208.378906 C 176.636719 208.378906 176.234375 208.304688 175.855469 208.148438 C 175.476562 207.996094 175.140625 207.804688 174.859375 207.570312 L 175.355469 206.898438 C 175.617188 207.105469 175.882812 207.28125 176.152344 207.40625 C 176.425781 207.539062 176.738281 207.601562 177.09375 207.601562 C 177.484375 207.601562 177.777344 207.515625 177.96875 207.335938 C 178.164062 207.15625 178.261719 206.9375 178.261719 206.679688 C 178.261719 206.523438 178.222656 206.390625 178.140625 206.277344 C 178.0625 206.160156 177.957031 206.0625 177.832031 205.976562 C 177.707031 205.894531 177.5625 205.816406 177.398438 205.75 C 177.234375 205.6875 177.074219 205.625 176.914062 205.558594 C 176.703125 205.488281 176.492188 205.402344 176.28125 205.308594 C 176.070312 205.21875 175.882812 205.105469 175.714844 204.96875 C 175.546875 204.835938 175.410156 204.679688 175.308594 204.503906 C 175.203125 204.324219 175.152344 204.109375 175.152344 203.859375 C 175.152344 203.625 175.195312 203.40625 175.289062 203.195312 C 175.382812 202.992188 175.519531 202.8125 175.691406 202.660156 C 175.863281 202.507812 176.078125 202.390625 176.328125 202.308594 C 176.582031 202.226562 176.863281 202.179688 177.179688 202.179688 C 177.554688 202.179688 177.894531 202.242188 178.207031 202.375 C 178.519531 202.5 178.789062 202.664062 179.015625 202.84375 L 178.542969 203.476562 C 178.339844 203.324219 178.128906 203.199219 177.910156 203.101562 C 177.691406 203.007812 177.449219 202.953125 177.191406 202.953125 C 176.820312 202.953125 176.546875 203.039062 176.371094 203.210938 C 176.199219 203.382812 176.109375 203.582031 176.109375 203.804688 C 176.109375 203.945312 176.148438 204.0625 176.21875 204.164062 C 176.292969 204.265625 176.390625 204.351562 176.511719 204.433594 C 176.632812 204.507812 176.773438 204.578125 176.929688 204.636719 C 177.089844 204.699219 177.253906 204.761719 177.421875 204.828125 C 177.632812 204.90625 177.847656 204.996094 178.0625 205.082031 C 178.277344 205.171875 178.46875 205.28125 178.640625 205.417969 C 178.808594 205.550781 178.949219 205.714844 179.058594 205.910156 C 179.167969 206.101562 179.222656 206.335938 179.222656 206.609375 C 179.222656 206.855469 179.175781 207.082031 179.082031 207.296875 C 178.988281 207.507812 178.851562 207.691406 178.667969 207.855469 C 178.488281 208.019531 178.257812 208.144531 177.988281 208.238281 C 177.71875 208.328125 177.40625 208.378906 177.058594 208.378906 Z M 177.058594 208.378906 "/>
<path style=" stroke:none;fill-rule:nonzero;fill:rgb(0%,0%,0%);fill-opacity:1;" d="M 180.609375 208.234375 L 180.609375 199.578125 L 181.605469 199.578125 L 181.605469 201.933594 L 181.566406 203.148438 C 181.851562 202.882812 182.144531 202.652344 182.457031 202.460938 C 182.761719 202.269531 183.125 202.171875 183.539062 202.171875 C 184.160156 202.171875 184.617188 202.367188 184.90625 202.757812 C 185.191406 203.144531 185.335938 203.722656 185.335938 204.480469 L 185.335938 208.226562 L 184.339844 208.226562 L 184.339844 204.613281 C 184.339844 204.054688 184.25 203.652344 184.070312 203.40625 C 183.894531 203.160156 183.609375 203.035156 183.222656 203.035156 C 182.910156 203.035156 182.640625 203.113281 182.40625 203.269531 C 182.171875 203.421875 181.902344 203.648438 181.605469 203.949219 L 181.605469 208.226562 L 180.609375 208.226562 Z M 180.609375 208.234375 "/>
<path style=" stroke:none;fill-rule:nonzero;fill:rgb(0%,0%,0%);fill-opacity:1;" d="M 188.582031 208.378906 C 188.085938 208.378906 187.675781 208.234375 187.347656 207.941406 C 187.019531 207.648438 186.855469 207.238281 186.855469 206.703125 C 186.855469 206.050781 187.144531 205.554688 187.71875 205.214844 C 188.292969 204.871094 189.214844 204.628906 190.476562 204.488281 C 190.476562 204.304688 190.460938 204.121094 190.421875 203.941406 C 190.386719 203.761719 190.324219 203.609375 190.234375 203.46875 C 190.144531 203.332031 190.023438 203.21875 189.863281 203.136719 C 189.707031 203.050781 189.503906 203.007812 189.261719 203.007812 C 188.921875 203.007812 188.601562 203.074219 188.300781 203.199219 C 188 203.332031 187.734375 203.476562 187.5 203.640625 L 187.109375 202.945312 C 187.386719 202.765625 187.722656 202.597656 188.121094 202.429688 C 188.515625 202.261719 188.953125 202.179688 189.433594 202.179688 C 190.152344 202.179688 190.675781 202.402344 191 202.84375 C 191.324219 203.285156 191.488281 203.875 191.488281 204.609375 L 191.488281 208.234375 L 190.660156 208.234375 L 190.574219 207.527344 L 190.539062 207.527344 C 190.253906 207.765625 189.953125 207.96875 189.625 208.132812 C 189.300781 208.296875 188.953125 208.378906 188.582031 208.378906 Z M 188.875 207.582031 C 189.15625 207.582031 189.421875 207.515625 189.675781 207.378906 C 189.925781 207.246094 190.191406 207.050781 190.476562 206.792969 L 190.476562 205.152344 C 189.980469 205.214844 189.570312 205.292969 189.230469 205.378906 C 188.894531 205.472656 188.625 205.574219 188.417969 205.695312 C 188.210938 205.816406 188.058594 205.957031 187.96875 206.117188 C 187.875 206.273438 187.828125 206.445312 187.828125 206.632812 C 187.828125 206.972656 187.929688 207.214844 188.132812 207.363281 C 188.332031 207.503906 188.582031 207.582031 188.875 207.582031 Z M 188.875 207.582031 "/>
<path style=" stroke:none;fill-rule:nonzero;fill:rgb(0%,0%,0%);fill-opacity:1;" d="M 195.363281 208.378906 C 194.617188 208.378906 194.023438 208.113281 193.582031 207.578125 C 193.140625 207.042969 192.921875 206.28125 192.921875 205.292969 C 192.921875 204.816406 192.992188 204.378906 193.132812 203.996094 C 193.277344 203.609375 193.464844 203.285156 193.699219 203.019531 C 193.9375 202.75 194.207031 202.542969 194.511719 202.398438 C 194.824219 202.253906 195.144531 202.179688 195.484375 202.179688 C 195.824219 202.179688 196.121094 202.242188 196.371094 202.363281 C 196.625 202.488281 196.878906 202.652344 197.136719 202.863281 L 197.089844 201.855469 L 197.089844 199.582031 L 198.097656 199.582031 L 198.097656 208.238281 L 197.273438 208.238281 L 197.1875 207.542969 L 197.152344 207.542969 C 196.914062 207.769531 196.644531 207.96875 196.34375 208.132812 C 196.039062 208.296875 195.710938 208.378906 195.363281 208.378906 Z M 195.582031 207.542969 C 195.859375 207.542969 196.117188 207.476562 196.359375 207.34375 C 196.605469 207.210938 196.847656 207.007812 197.089844 206.730469 L 197.089844 203.640625 C 196.835938 203.414062 196.597656 203.253906 196.367188 203.160156 C 196.136719 203.070312 195.898438 203.023438 195.65625 203.023438 C 195.421875 203.023438 195.199219 203.078125 194.992188 203.1875 C 194.785156 203.296875 194.605469 203.449219 194.453125 203.648438 C 194.296875 203.84375 194.175781 204.085938 194.085938 204.355469 C 194 204.632812 193.953125 204.941406 193.953125 205.28125 C 193.953125 205.996094 194.097656 206.550781 194.378906 206.949219 C 194.660156 207.347656 195.0625 207.542969 195.582031 207.542969 Z M 195.582031 207.542969 "/>
<path style=" stroke:none;fill-rule:nonzero;fill:rgb(0%,0%,0%);fill-opacity:1;" d="M 202.386719 208.378906 C 202.019531 208.378906 201.675781 208.3125 201.347656 208.175781 C 201.019531 208.035156 200.726562 207.839844 200.476562 207.574219 C 200.230469 207.308594 200.023438 206.988281 199.875 206.601562 C 199.726562 206.214844 199.652344 205.78125 199.652344 205.296875 C 199.652344 204.800781 199.722656 204.359375 199.875 203.972656 C 200.023438 203.589844 200.230469 203.265625 200.476562 202.996094 C 200.726562 202.730469 201.019531 202.527344 201.347656 202.390625 C 201.675781 202.25 202.019531 202.183594 202.386719 202.183594 C 202.75 202.183594 203.097656 202.25 203.425781 202.390625 C 203.753906 202.527344 204.046875 202.730469 204.292969 202.996094 C 204.542969 203.265625 204.746094 203.589844 204.894531 203.972656 C 205.042969 204.359375 205.121094 204.796875 205.121094 205.296875 C 205.121094 205.78125 205.046875 206.214844 204.894531 206.601562 C 204.742188 206.988281 204.542969 207.308594 204.292969 207.574219 C 204.046875 207.839844 203.753906 208.035156 203.425781 208.175781 C 203.097656 208.3125 202.753906 208.378906 202.386719 208.378906 Z M 202.386719 207.554688 C 202.636719 207.554688 202.871094 207.5 203.078125 207.390625 C 203.289062 207.28125 203.46875 207.128906 203.621094 206.929688 C 203.769531 206.734375 203.882812 206.492188 203.964844 206.21875 C 204.046875 205.945312 204.085938 205.636719 204.085938 205.296875 C 204.085938 204.953125 204.046875 204.644531 203.964844 204.363281 C 203.882812 204.082031 203.773438 203.84375 203.621094 203.640625 C 203.46875 203.4375 203.289062 203.28125 203.078125 203.171875 C 202.871094 203.0625 202.636719 203.007812 202.386719 203.007812 C 202.136719 203.007812 201.902344 203.0625 201.691406 203.171875 C 201.484375 203.28125 201.304688 203.4375 201.152344 203.640625 C 201 203.84375 200.886719 204.085938 200.804688 204.363281 C 200.722656 204.644531 200.683594 204.953125 200.683594 205.296875 C 200.683594 205.632812 200.722656 205.941406 200.804688 206.21875 C 200.886719 206.496094 201 206.734375 201.152344 206.929688 C 201.300781 207.128906 201.480469 207.28125 201.691406 207.390625 C 201.90625 207.5 202.136719 207.554688 202.386719 207.554688 Z M 202.386719 207.554688 "/>
<path style=" stroke:none;fill-rule:nonzero;fill:rgb(0%,0%,0%);fill-opacity:1;" d="M 207.566406 208.234375 L 205.925781 202.324219 L 206.945312 202.324219 L 207.820312 205.742188 C 207.886719 206.027344 207.945312 206.304688 208.003906 206.570312 C 208.0625 206.835938 208.121094 207.105469 208.175781 207.382812 L 208.222656 207.382812 C 208.289062 207.105469 208.351562 206.832031 208.417969 206.5625 C 208.480469 206.289062 208.550781 206.015625 208.625 205.738281 L 209.535156 202.324219 L 210.507812 202.324219 L 211.433594 205.738281 C 211.503906 206.023438 211.574219 206.300781 211.644531 206.566406 C 211.710938 206.832031 211.777344 207.105469 211.84375 207.378906 L 211.894531 207.378906 C 211.957031 207.105469 212.019531 206.832031 212.078125 206.566406 C 212.132812 206.296875 212.195312 206.023438 212.257812 205.738281 L 213.121094 202.324219 L 214.070312 202.324219 L 212.488281 208.230469 L 211.273438 208.230469 L 210.421875 205.058594 C 210.351562 204.773438 210.285156 204.492188 210.222656 204.21875 C 210.160156 203.945312 210.09375 203.65625 210.023438 203.359375 L 209.972656 203.359375 C 209.910156 203.660156 209.84375 203.945312 209.777344 204.226562 C 209.714844 204.507812 209.640625 204.789062 209.558594 205.070312 L 208.734375 208.230469 L 207.566406 208.230469 Z M 207.566406 208.234375 "/>
<path style=" stroke:none;fill-rule:nonzero;fill:rgb(0%,0%,0%);fill-opacity:1;" d="M 218.296875 201.113281 C 218.101562 201.113281 217.9375 201.050781 217.804688 200.925781 C 217.671875 200.804688 217.605469 200.652344 217.605469 200.46875 C 217.605469 200.273438 217.671875 200.117188 217.804688 200 C 217.9375 199.882812 218.101562 199.824219 218.296875 199.824219 C 218.492188 199.824219 218.65625 199.882812 218.789062 200 C 218.921875 200.117188 218.988281 200.273438 218.988281 200.46875 C 218.988281 200.65625 218.921875 200.804688 218.789062 200.925781 C 218.65625 201.050781 218.492188 201.113281 218.296875 201.113281 Z M 217.785156 208.234375 L 217.785156 202.324219 L 218.78125 202.324219 L 218.78125 208.234375 Z M 217.785156 208.234375 "/>
<path style=" stroke:none;fill-rule:nonzero;fill:rgb(0%,0%,0%);fill-opacity:1;" d="M 220.777344 208.234375 L 220.777344 202.324219 L 221.601562 202.324219 L 221.6875 203.175781 L 221.722656 203.175781 C 222.007812 202.894531 222.304688 202.65625 222.617188 202.464844 C 222.929688 202.277344 223.292969 202.179688 223.707031 202.179688 C 224.328125 202.179688 224.785156 202.375 225.074219 202.761719 C 225.359375 203.152344 225.503906 203.726562 225.503906 204.488281 L 225.503906 208.230469 L 224.507812 208.230469 L 224.507812 204.621094 C 224.507812 204.0625 224.417969 203.660156 224.238281 203.414062 C 224.0625 203.167969 223.777344 203.042969 223.390625 203.042969 C 223.078125 203.042969 222.808594 203.117188 222.574219 203.273438 C 222.339844 203.429688 222.070312 203.652344 221.773438 203.953125 L 221.773438 208.234375 Z M 220.777344 208.234375 "/>
<path style=" stroke:none;fill-rule:nonzero;fill:rgb(0%,0%,0%);fill-opacity:1;" d="M 177.375 222.96875 C 177.058594 222.96875 176.792969 222.921875 176.578125 222.824219 C 176.363281 222.726562 176.191406 222.59375 176.054688 222.421875 C 175.921875 222.25 175.828125 222.046875 175.769531 221.800781 C 175.710938 221.558594 175.683594 221.292969 175.683594 221 L 175.683594 217.730469 L 174.808594 217.730469 L 174.808594 216.976562 L 175.734375 216.910156 L 175.855469 215.257812 L 176.695312 215.257812 L 176.695312 216.910156 L 178.285156 216.910156 L 178.285156 217.730469 L 176.695312 217.730469 L 176.695312 221.011719 C 176.695312 221.378906 176.761719 221.65625 176.894531 221.855469 C 177.027344 222.050781 177.265625 222.15625 177.605469 222.15625 C 177.710938 222.15625 177.824219 222.136719 177.945312 222.101562 C 178.066406 222.070312 178.175781 222.035156 178.273438 221.992188 L 178.46875 222.746094 C 178.308594 222.808594 178.132812 222.855469 177.941406 222.902344 C 177.75 222.949219 177.558594 222.96875 177.375 222.96875 Z M 177.375 222.96875 "/>
<path style=" stroke:none;fill-rule:nonzero;fill:rgb(0%,0%,0%);fill-opacity:1;" d="M 179.625 222.824219 L 179.625 214.167969 L 180.621094 214.167969 L 180.621094 216.523438 L 180.582031 217.738281 C 180.867188 217.472656 181.160156 217.242188 181.472656 217.046875 C 181.777344 216.859375 182.140625 216.761719 182.554688 216.761719 C 183.175781 216.761719 183.632812 216.957031 183.921875 217.347656 C 184.207031 217.734375 184.351562 218.308594 184.351562 219.070312 L 184.351562 222.816406 L 183.355469 222.816406 L 183.355469 219.203125 C 183.355469 218.644531 183.265625 218.242188 183.085938 217.996094 C 182.910156 217.75 182.625 217.625 182.238281 217.625 C 181.925781 217.625 181.65625 217.703125 181.421875 217.855469 C 181.1875 218.011719 180.917969 218.238281 180.621094 218.539062 L 180.621094 222.816406 L 179.625 222.816406 Z M 179.625 222.824219 "/>
<path style=" stroke:none;fill-rule:nonzero;fill:rgb(0%,0%,0%);fill-opacity:1;" d="M 188.628906 222.96875 C 188.230469 222.96875 187.863281 222.898438 187.519531 222.757812 C 187.175781 222.617188 186.875 222.414062 186.617188 222.152344 C 186.363281 221.886719 186.164062 221.566406 186.015625 221.183594 C 185.871094 220.804688 185.796875 220.371094 185.796875 219.882812 C 185.796875 219.398438 185.871094 218.960938 186.023438 218.574219 C 186.171875 218.191406 186.371094 217.867188 186.617188 217.597656 C 186.863281 217.332031 187.148438 217.128906 187.464844 216.984375 C 187.777344 216.84375 188.109375 216.773438 188.449219 216.773438 C 188.820312 216.773438 189.152344 216.835938 189.449219 216.964844 C 189.746094 217.09375 189.992188 217.28125 190.191406 217.527344 C 190.390625 217.769531 190.542969 218.0625 190.648438 218.402344 C 190.753906 218.742188 190.804688 219.121094 190.804688 219.542969 C 190.804688 219.652344 190.804688 219.75 190.800781 219.855469 C 190.796875 219.957031 190.785156 220.046875 190.769531 220.117188 L 186.78125 220.117188 C 186.824219 220.75 187.019531 221.25 187.371094 221.617188 C 187.722656 221.988281 188.183594 222.171875 188.75 222.171875 C 189.039062 222.171875 189.296875 222.128906 189.535156 222.046875 C 189.777344 221.960938 190.003906 221.851562 190.222656 221.710938 L 190.574219 222.367188 C 190.316406 222.53125 190.027344 222.675781 189.710938 222.796875 C 189.394531 222.917969 189.035156 222.96875 188.628906 222.96875 Z M 186.765625 219.394531 L 189.925781 219.394531 C 189.925781 218.796875 189.800781 218.335938 189.542969 218.027344 C 189.289062 217.71875 188.929688 217.558594 188.46875 217.558594 C 188.257812 217.558594 188.058594 217.601562 187.867188 217.679688 C 187.675781 217.761719 187.503906 217.882812 187.351562 218.039062 C 187.199219 218.199219 187.070312 218.390625 186.96875 218.617188 C 186.867188 218.84375 186.800781 219.105469 186.765625 219.394531 Z M 186.765625 219.394531 "/>
<path style=" stroke:none;fill-rule:nonzero;fill:rgb(0%,0%,0%);fill-opacity:1;" d="M 194.695312 222.824219 L 194.695312 216.914062 L 195.523438 216.914062 L 195.605469 217.988281 L 195.644531 217.988281 C 195.84375 217.613281 196.089844 217.320312 196.378906 217.101562 C 196.667969 216.882812 196.980469 216.773438 197.320312 216.773438 C 197.558594 216.773438 197.765625 216.816406 197.953125 216.894531 L 197.757812 217.769531 C 197.660156 217.734375 197.570312 217.710938 197.492188 217.695312 C 197.410156 217.679688 197.308594 217.671875 197.1875 217.671875 C 196.933594 217.671875 196.675781 217.773438 196.402344 217.980469 C 196.132812 218.179688 195.894531 218.535156 195.691406 219.035156 L 195.691406 222.828125 L 194.695312 222.828125 Z M 194.695312 222.824219 "/>
<path style=" stroke:none;fill-rule:nonzero;fill:rgb(0%,0%,0%);fill-opacity:1;" d="M 199.421875 215.703125 C 199.226562 215.703125 199.0625 215.636719 198.929688 215.515625 C 198.792969 215.394531 198.726562 215.242188 198.726562 215.058594 C 198.726562 214.863281 198.792969 214.707031 198.929688 214.589844 C 199.0625 214.472656 199.226562 214.414062 199.421875 214.414062 C 199.613281 214.414062 199.777344 214.472656 199.914062 214.589844 C 200.046875 214.707031 200.113281 214.863281 200.113281 215.058594 C 200.113281 215.246094 200.046875 215.394531 199.914062 215.515625 C 199.777344 215.636719 199.613281 215.703125 199.421875 215.703125 Z M 198.910156 222.824219 L 198.910156 216.914062 L 199.90625 216.914062 L 199.90625 222.824219 Z M 198.910156 222.824219 "/>
<path style=" stroke:none;fill-rule:nonzero;fill:rgb(0%,0%,0%);fill-opacity:1;" d="M 203.894531 225.550781 C 203.527344 225.550781 203.199219 225.515625 202.898438 225.445312 C 202.597656 225.378906 202.339844 225.273438 202.125 225.132812 C 201.910156 224.996094 201.746094 224.828125 201.625 224.636719 C 201.507812 224.445312 201.449219 224.210938 201.449219 223.953125 C 201.449219 223.703125 201.527344 223.464844 201.679688 223.238281 C 201.835938 223.011719 202.046875 222.800781 202.3125 222.617188 L 202.3125 222.570312 C 202.167969 222.480469 202.046875 222.355469 201.941406 222.199219 C 201.84375 222.039062 201.789062 221.84375 201.789062 221.609375 C 201.789062 221.359375 201.855469 221.140625 201.996094 220.953125 C 202.136719 220.761719 202.28125 220.621094 202.433594 220.515625 L 202.433594 220.460938 C 202.238281 220.300781 202.0625 220.085938 201.90625 219.8125 C 201.746094 219.542969 201.667969 219.226562 201.667969 218.871094 C 201.667969 218.546875 201.730469 218.253906 201.84375 217.992188 C 201.960938 217.734375 202.121094 217.515625 202.324219 217.332031 C 202.527344 217.144531 202.765625 217.007812 203.035156 216.910156 C 203.308594 216.816406 203.59375 216.761719 203.894531 216.761719 C 204.054688 216.761719 204.210938 216.777344 204.347656 216.808594 C 204.492188 216.835938 204.621094 216.871094 204.730469 216.910156 L 206.785156 216.910156 L 206.785156 217.675781 L 205.570312 217.675781 C 205.707031 217.816406 205.824219 217.992188 205.917969 218.199219 C 206.011719 218.410156 206.058594 218.640625 206.058594 218.894531 C 206.058594 219.210938 206 219.496094 205.886719 219.75 C 205.769531 220.007812 205.621094 220.21875 205.425781 220.394531 C 205.230469 220.570312 205.003906 220.707031 204.738281 220.800781 C 204.472656 220.898438 204.191406 220.949219 203.894531 220.949219 C 203.746094 220.949219 203.597656 220.929688 203.445312 220.894531 C 203.289062 220.855469 203.144531 220.804688 203.007812 220.742188 C 202.898438 220.828125 202.8125 220.929688 202.738281 221.039062 C 202.664062 221.148438 202.628906 221.285156 202.628906 221.445312 C 202.628906 221.636719 202.703125 221.789062 202.847656 221.910156 C 202.992188 222.03125 203.269531 222.089844 203.675781 222.089844 L 204.816406 222.089844 C 205.507812 222.089844 206.019531 222.203125 206.367188 222.425781 C 206.714844 222.648438 206.882812 223.007812 206.882812 223.5 C 206.882812 223.777344 206.816406 224.039062 206.675781 224.289062 C 206.539062 224.535156 206.34375 224.75 206.082031 224.9375 C 205.824219 225.125 205.507812 225.269531 205.140625 225.382812 C 204.769531 225.492188 204.355469 225.550781 203.894531 225.550781 Z M 204.039062 224.855469 C 204.320312 224.855469 204.578125 224.816406 204.8125 224.75 C 205.042969 224.683594 205.238281 224.59375 205.402344 224.484375 C 205.5625 224.375 205.6875 224.246094 205.777344 224.101562 C 205.867188 223.953125 205.910156 223.800781 205.910156 223.652344 C 205.910156 223.378906 205.8125 223.183594 205.605469 223.082031 C 205.40625 222.976562 205.109375 222.925781 204.71875 222.925781 L 203.699219 222.925781 C 203.585938 222.925781 203.460938 222.917969 203.328125 222.90625 C 203.195312 222.894531 203.0625 222.867188 202.933594 222.828125 C 202.722656 222.980469 202.570312 223.144531 202.472656 223.3125 C 202.375 223.484375 202.324219 223.652344 202.324219 223.824219 C 202.324219 224.140625 202.476562 224.390625 202.78125 224.578125 C 203.085938 224.761719 203.503906 224.855469 204.039062 224.855469 Z M 203.894531 220.28125 C 204.0625 220.28125 204.222656 220.25 204.375 220.1875 C 204.523438 220.121094 204.65625 220.027344 204.773438 219.90625 C 204.894531 219.785156 204.984375 219.636719 205.046875 219.460938 C 205.113281 219.289062 205.144531 219.09375 205.144531 218.875 C 205.144531 218.433594 205.023438 218.097656 204.78125 217.859375 C 204.539062 217.621094 204.242188 217.5 203.894531 217.5 C 203.542969 217.5 203.25 217.621094 203.007812 217.859375 C 202.761719 218.097656 202.640625 218.433594 202.640625 218.875 C 202.640625 219.09375 202.675781 219.292969 202.738281 219.460938 C 202.800781 219.636719 202.894531 219.785156 203.011719 219.90625 C 203.128906 220.027344 203.265625 220.117188 203.414062 220.1875 C 203.5625 220.253906 203.722656 220.28125 203.894531 220.28125 Z M 203.894531 220.28125 "/>
<path style=" stroke:none;fill-rule:nonzero;fill:rgb(0%,0%,0%);fill-opacity:1;" d="M 208.027344 222.824219 L 208.027344 214.167969 L 209.023438 214.167969 L 209.023438 216.523438 L 208.984375 217.738281 C 209.269531 217.472656 209.5625 217.242188 209.875 217.046875 C 210.179688 216.859375 210.542969 216.761719 210.953125 216.761719 C 211.578125 216.761719 212.035156 216.957031 212.324219 217.347656 C 212.609375 217.734375 212.753906 218.308594 212.753906 219.070312 L 212.753906 222.816406 L 211.757812 222.816406 L 211.757812 219.203125 C 211.757812 218.644531 211.667969 218.242188 211.488281 217.996094 C 211.3125 217.75 211.027344 217.625 210.640625 217.625 C 210.328125 217.625 210.058594 217.703125 209.824219 217.855469 C 209.589844 218.011719 209.320312 218.238281 209.023438 218.539062 L 209.023438 222.816406 L 208.027344 222.816406 Z M 208.027344 222.824219 "/>
<path style=" stroke:none;fill-rule:nonzero;fill:rgb(0%,0%,0%);fill-opacity:1;" d="M 216.5 222.96875 C 216.183594 222.96875 215.921875 222.921875 215.703125 222.824219 C 215.488281 222.726562 215.316406 222.59375 215.183594 222.421875 C 215.046875 222.25 214.953125 222.046875 214.894531 221.800781 C 214.839844 221.558594 214.8125 221.292969 214.8125 221 L 214.8125 217.730469 L 213.9375 217.730469 L 213.9375 216.976562 L 214.859375 216.910156 L 214.980469 215.257812 L 215.820312 215.257812 L 215.820312 216.910156 L 217.414062 216.910156 L 217.414062 217.730469 L 215.820312 217.730469 L 215.820312 221.011719 C 215.820312 221.378906 215.886719 221.65625 216.019531 221.855469 C 216.152344 222.050781 216.390625 222.15625 216.730469 222.15625 C 216.835938 222.15625 216.949219 222.136719 217.070312 222.101562 C 217.195312 222.070312 217.304688 222.035156 217.398438 221.992188 L 217.59375 222.746094 C 217.433594 222.808594 217.257812 222.855469 217.066406 222.902344 C 216.875 222.949219 216.6875 222.96875 216.5 222.96875 Z M 216.5 222.96875 "/>
<path style=" stroke:none;fill-rule:nonzero;fill:rgb(0%,0%,0%);fill-opacity:1;" d="M 223.050781 222.96875 C 222.742188 222.96875 222.460938 222.9375 222.203125 222.878906 C 221.949219 222.816406 221.714844 222.738281 221.503906 222.636719 C 221.296875 222.535156 221.105469 222.417969 220.941406 222.292969 C 220.773438 222.160156 220.625 222.023438 220.496094 221.878906 L 221.007812 221.21875 C 221.242188 221.460938 221.515625 221.679688 221.828125 221.863281 C 222.140625 222.050781 222.527344 222.144531 222.988281 222.144531 C 223.460938 222.144531 223.84375 222.019531 224.144531 221.761719 C 224.445312 221.507812 224.59375 221.160156 224.59375 220.71875 C 224.59375 220.496094 224.550781 220.285156 224.464844 220.09375 C 224.378906 219.90625 224.238281 219.742188 224.046875 219.605469 C 223.851562 219.464844 223.597656 219.363281 223.28125 219.289062 C 222.964844 219.214844 222.574219 219.179688 222.113281 219.179688 L 222.113281 218.414062 C 222.527344 218.414062 222.871094 218.378906 223.152344 218.304688 C 223.433594 218.234375 223.660156 218.132812 223.832031 218 C 224.007812 217.871094 224.128906 217.714844 224.203125 217.539062 C 224.277344 217.359375 224.3125 217.171875 224.3125 216.964844 C 224.3125 216.582031 224.195312 216.28125 223.953125 216.066406 C 223.714844 215.847656 223.390625 215.738281 222.976562 215.738281 C 222.652344 215.738281 222.351562 215.8125 222.082031 215.957031 C 221.8125 216.105469 221.558594 216.292969 221.324219 216.527344 L 220.789062 215.898438 C 221.089844 215.613281 221.417969 215.378906 221.777344 215.199219 C 222.140625 215.015625 222.550781 214.925781 223.011719 214.925781 C 223.351562 214.925781 223.664062 214.972656 223.949219 215.0625 C 224.230469 215.148438 224.476562 215.277344 224.683594 215.445312 C 224.890625 215.609375 225.050781 215.816406 225.164062 216.058594 C 225.277344 216.296875 225.332031 216.582031 225.332031 216.894531 C 225.332031 217.363281 225.207031 217.746094 224.945312 218.046875 C 224.683594 218.351562 224.347656 218.582031 223.925781 218.746094 L 223.925781 218.792969 C 224.15625 218.851562 224.375 218.933594 224.582031 219.042969 C 224.78125 219.152344 224.960938 219.289062 225.113281 219.457031 C 225.269531 219.625 225.386719 219.816406 225.472656 220.035156 C 225.558594 220.253906 225.601562 220.496094 225.601562 220.761719 C 225.601562 221.101562 225.535156 221.410156 225.402344 221.6875 C 225.265625 221.964844 225.085938 222.195312 224.855469 222.382812 C 224.621094 222.574219 224.351562 222.71875 224.046875 222.824219 C 223.738281 222.925781 223.40625 222.96875 223.050781 222.96875 Z M 223.050781 222.96875 "/>
<path style=" stroke:none;fill-rule:nonzero;fill:rgb(0%,0%,0%);fill-opacity:1;" d="M 227.21875 222.824219 L 227.21875 216.914062 L 228.042969 216.914062 L 228.128906 217.988281 L 228.164062 217.988281 C 228.367188 217.613281 228.613281 217.320312 228.902344 217.101562 C 229.191406 216.882812 229.503906 216.773438 229.84375 216.773438 C 230.082031 216.773438 230.289062 216.816406 230.476562 216.894531 L 230.28125 217.769531 C 230.183594 217.734375 230.09375 217.710938 230.011719 217.695312 C 229.929688 217.679688 229.832031 217.671875 229.710938 217.671875 C 229.457031 217.671875 229.199219 217.773438 228.925781 217.980469 C 228.65625 218.179688 228.417969 218.535156 228.214844 219.035156 L 228.214844 222.828125 L 227.21875 222.828125 Z M 227.21875 222.824219 "/>
<path style=" stroke:none;fill-rule:nonzero;fill:rgb(0%,0%,0%);fill-opacity:1;" d="M 233.335938 222.96875 C 232.585938 222.96875 231.996094 222.703125 231.554688 222.167969 C 231.113281 221.632812 230.890625 220.871094 230.890625 219.882812 C 230.890625 219.40625 230.960938 218.96875 231.105469 218.585938 C 231.246094 218.199219 231.433594 217.875 231.667969 217.609375 C 231.90625 217.339844 232.175781 217.132812 232.484375 216.988281 C 232.792969 216.84375 233.117188 216.769531 233.457031 216.769531 C 233.796875 216.769531 234.089844 216.832031 234.34375 216.953125 C 234.597656 217.074219 234.851562 217.242188 235.109375 217.453125 L 235.0625 216.445312 L 235.0625 214.171875 L 236.070312 214.171875 L 236.070312 222.828125 L 235.242188 222.828125 L 235.15625 222.132812 L 235.121094 222.132812 C 234.882812 222.359375 234.617188 222.554688 234.3125 222.71875 C 234.007812 222.882812 233.679688 222.96875 233.335938 222.96875 Z M 233.550781 222.132812 C 233.828125 222.132812 234.085938 222.066406 234.328125 221.933594 C 234.570312 221.800781 234.816406 221.597656 235.058594 221.320312 L 235.058594 218.230469 C 234.804688 218.003906 234.566406 217.84375 234.335938 217.75 C 234.101562 217.660156 233.867188 217.609375 233.625 217.609375 C 233.390625 217.609375 233.167969 217.664062 232.960938 217.773438 C 232.753906 217.882812 232.574219 218.039062 232.421875 218.238281 C 232.265625 218.433594 232.144531 218.675781 232.054688 218.945312 C 231.96875 219.222656 231.921875 219.527344 231.921875 219.871094 C 231.921875 220.582031 232.066406 221.140625 232.347656 221.539062 C 232.628906 221.9375 233.035156 222.132812 233.550781 222.132812 Z M 233.550781 222.132812 "/>
<path style=" stroke:none;fill-rule:nonzero;fill:rgb(0%,0%,0%);fill-opacity:1;" d="M 514.675781 205.339844 C 514.253906 205.339844 513.851562 205.265625 513.472656 205.109375 C 513.09375 204.953125 512.761719 204.761719 512.476562 204.527344 L 512.976562 203.859375 C 513.238281 204.066406 513.503906 204.242188 513.773438 204.367188 C 514.046875 204.5 514.359375 204.5625 514.714844 204.5625 C 515.109375 204.5625 515.398438 204.472656 515.59375 204.296875 C 515.785156 204.117188 515.886719 203.898438 515.886719 203.636719 C 515.886719 203.484375 515.84375 203.351562 515.761719 203.238281 C 515.6875 203.121094 515.578125 203.023438 515.453125 202.9375 C 515.328125 202.855469 515.183594 202.777344 515.019531 202.710938 C 514.855469 202.648438 514.699219 202.582031 514.535156 202.519531 C 514.324219 202.445312 514.113281 202.363281 513.902344 202.269531 C 513.691406 202.179688 513.503906 202.0625 513.335938 201.929688 C 513.167969 201.796875 513.03125 201.640625 512.925781 201.464844 C 512.820312 201.28125 512.769531 201.070312 512.769531 200.816406 C 512.769531 200.585938 512.8125 200.363281 512.910156 200.15625 C 513.003906 199.953125 513.132812 199.773438 513.3125 199.621094 C 513.484375 199.46875 513.699219 199.351562 513.949219 199.269531 C 514.199219 199.1875 514.484375 199.140625 514.796875 199.140625 C 515.167969 199.140625 515.511719 199.203125 515.824219 199.335938 C 516.136719 199.460938 516.40625 199.625 516.636719 199.804688 L 516.164062 200.4375 C 515.960938 200.285156 515.746094 200.160156 515.53125 200.0625 C 515.3125 199.96875 515.070312 199.914062 514.8125 199.914062 C 514.441406 199.914062 514.167969 200 513.992188 200.171875 C 513.816406 200.34375 513.730469 200.542969 513.730469 200.765625 C 513.730469 200.90625 513.769531 201.023438 513.839844 201.125 C 513.910156 201.226562 514.011719 201.3125 514.132812 201.390625 C 514.25 201.46875 514.394531 201.539062 514.550781 201.597656 C 514.710938 201.660156 514.875 201.722656 515.042969 201.789062 C 515.253906 201.867188 515.46875 201.953125 515.683594 202.042969 C 515.894531 202.132812 516.089844 202.242188 516.257812 202.378906 C 516.429688 202.511719 516.570312 202.675781 516.679688 202.871094 C 516.785156 203.0625 516.84375 203.296875 516.84375 203.570312 C 516.84375 203.816406 516.796875 204.042969 516.703125 204.253906 C 516.609375 204.46875 516.472656 204.652344 516.289062 204.816406 C 516.109375 204.980469 515.878906 205.105469 515.609375 205.199219 C 515.335938 205.296875 515.027344 205.339844 514.675781 205.339844 Z M 514.675781 205.339844 "/>
<path style=" stroke:none;fill-rule:nonzero;fill:rgb(0%,0%,0%);fill-opacity:1;" d="M 518.226562 205.195312 L 518.226562 196.539062 L 519.222656 196.539062 L 519.222656 198.894531 L 519.1875 200.109375 C 519.46875 199.84375 519.761719 199.613281 520.070312 199.417969 C 520.378906 199.230469 520.742188 199.132812 521.152344 199.132812 C 521.773438 199.132812 522.230469 199.328125 522.519531 199.71875 C 522.804688 200.105469 522.953125 200.679688 522.953125 201.441406 L 522.953125 205.1875 L 521.957031 205.1875 L 521.957031 201.574219 C 521.957031 201.015625 521.871094 200.613281 521.6875 200.367188 C 521.507812 200.121094 521.226562 199.996094 520.835938 199.996094 C 520.527344 199.996094 520.257812 200.074219 520.023438 200.226562 C 519.785156 200.382812 519.515625 200.609375 519.21875 200.910156 L 519.21875 205.1875 L 518.226562 205.1875 Z M 518.226562 205.195312 "/>
<path style=" stroke:none;fill-rule:nonzero;fill:rgb(0%,0%,0%);fill-opacity:1;" d="M 526.199219 205.339844 C 525.703125 205.339844 525.292969 205.195312 524.96875 204.902344 C 524.640625 204.609375 524.476562 204.199219 524.476562 203.664062 C 524.476562 203.011719 524.761719 202.515625 525.335938 202.171875 C 525.910156 201.832031 526.832031 201.589844 528.09375 201.449219 C 528.09375 201.265625 528.078125 201.082031 528.039062 200.902344 C 528.003906 200.722656 527.941406 200.570312 527.851562 200.429688 C 527.765625 200.292969 527.640625 200.179688 527.484375 200.097656 C 527.324219 200.011719 527.125 199.96875 526.878906 199.96875 C 526.542969 199.96875 526.222656 200.035156 525.921875 200.160156 C 525.621094 200.292969 525.355469 200.4375 525.117188 200.601562 L 524.730469 199.90625 C 525.003906 199.726562 525.34375 199.558594 525.742188 199.390625 C 526.136719 199.222656 526.570312 199.140625 527.054688 199.140625 C 527.773438 199.140625 528.296875 199.363281 528.621094 199.804688 C 528.945312 200.246094 529.109375 200.835938 529.109375 201.570312 L 529.109375 205.195312 L 528.285156 205.195312 L 528.199219 204.488281 L 528.160156 204.488281 C 527.875 204.726562 527.574219 204.925781 527.25 205.089844 C 526.917969 205.257812 526.570312 205.339844 526.199219 205.339844 Z M 526.496094 204.542969 C 526.777344 204.542969 527.042969 204.472656 527.296875 204.339844 C 527.546875 204.207031 527.8125 204.011719 528.097656 203.753906 L 528.097656 202.113281 C 527.605469 202.175781 527.191406 202.253906 526.851562 202.339844 C 526.519531 202.433594 526.25 202.535156 526.039062 202.65625 C 525.828125 202.777344 525.683594 202.917969 525.589844 203.078125 C 525.496094 203.234375 525.449219 203.40625 525.449219 203.59375 C 525.449219 203.933594 525.550781 204.175781 525.757812 204.324219 C 525.960938 204.46875 526.199219 204.542969 526.496094 204.542969 Z M 526.496094 204.542969 "/>
<path style=" stroke:none;fill-rule:nonzero;fill:rgb(0%,0%,0%);fill-opacity:1;" d="M 532.980469 205.339844 C 532.238281 205.339844 531.644531 205.074219 531.199219 204.539062 C 530.757812 204.003906 530.539062 203.242188 530.539062 202.253906 C 530.539062 201.777344 530.609375 201.339844 530.75 200.957031 C 530.890625 200.570312 531.078125 200.246094 531.316406 199.980469 C 531.550781 199.710938 531.820312 199.503906 532.132812 199.359375 C 532.441406 199.214844 532.761719 199.140625 533.101562 199.140625 C 533.441406 199.140625 533.738281 199.203125 533.992188 199.324219 C 534.242188 199.445312 534.5 199.613281 534.757812 199.824219 L 534.703125 198.816406 L 534.703125 196.542969 L 535.714844 196.542969 L 535.714844 205.199219 L 534.890625 205.199219 L 534.804688 204.503906 L 534.769531 204.503906 C 534.535156 204.730469 534.265625 204.925781 533.957031 205.089844 C 533.65625 205.257812 533.332031 205.339844 532.980469 205.339844 Z M 533.199219 204.503906 C 533.480469 204.503906 533.738281 204.4375 533.976562 204.304688 C 534.222656 204.171875 534.464844 203.96875 534.707031 203.691406 L 534.707031 200.601562 C 534.457031 200.375 534.214844 200.214844 533.984375 200.121094 C 533.757812 200.03125 533.519531 199.980469 533.277344 199.980469 C 533.042969 199.980469 532.824219 200.035156 532.613281 200.144531 C 532.40625 200.253906 532.226562 200.410156 532.074219 200.609375 C 531.917969 200.804688 531.792969 201.046875 531.707031 201.316406 C 531.617188 201.59375 531.574219 201.898438 531.574219 202.242188 C 531.574219 202.953125 531.71875 203.511719 532 203.910156 C 532.28125 204.308594 532.683594 204.503906 533.199219 204.503906 Z M 533.199219 204.503906 "/>
<path style=" stroke:none;fill-rule:nonzero;fill:rgb(0%,0%,0%);fill-opacity:1;" d="M 540.007812 205.339844 C 539.640625 205.339844 539.296875 205.273438 538.96875 205.136719 C 538.640625 204.996094 538.351562 204.800781 538.097656 204.535156 C 537.847656 204.269531 537.644531 203.949219 537.496094 203.5625 C 537.347656 203.175781 537.273438 202.742188 537.273438 202.253906 C 537.273438 201.761719 537.347656 201.320312 537.496094 200.933594 C 537.644531 200.550781 537.847656 200.226562 538.097656 199.957031 C 538.351562 199.691406 538.640625 199.488281 538.96875 199.351562 C 539.292969 199.210938 539.640625 199.144531 540.007812 199.144531 C 540.371094 199.144531 540.71875 199.210938 541.046875 199.351562 C 541.375 199.488281 541.664062 199.691406 541.914062 199.957031 C 542.167969 200.226562 542.367188 200.550781 542.515625 200.933594 C 542.664062 201.320312 542.742188 201.757812 542.742188 202.253906 C 542.742188 202.742188 542.664062 203.175781 542.515625 203.5625 C 542.367188 203.949219 542.167969 204.269531 541.914062 204.535156 C 541.664062 204.800781 541.375 204.996094 541.046875 205.136719 C 540.71875 205.273438 540.371094 205.339844 540.007812 205.339844 Z M 540.007812 204.515625 C 540.257812 204.515625 540.488281 204.460938 540.703125 204.351562 C 540.910156 204.242188 541.09375 204.089844 541.242188 203.890625 C 541.394531 203.695312 541.507812 203.453125 541.585938 203.179688 C 541.667969 202.902344 541.710938 202.597656 541.710938 202.253906 C 541.710938 201.914062 541.667969 201.605469 541.585938 201.324219 C 541.507812 201.042969 541.394531 200.804688 541.242188 200.601562 C 541.09375 200.398438 540.914062 200.242188 540.703125 200.132812 C 540.492188 200.023438 540.257812 199.96875 540.007812 199.96875 C 539.753906 199.96875 539.527344 200.023438 539.3125 200.132812 C 539.105469 200.242188 538.921875 200.398438 538.769531 200.601562 C 538.621094 200.804688 538.507812 201.046875 538.425781 201.324219 C 538.34375 201.605469 538.300781 201.914062 538.300781 202.253906 C 538.300781 202.59375 538.34375 202.902344 538.425781 203.179688 C 538.507812 203.457031 538.621094 203.695312 538.769531 203.890625 C 538.921875 204.089844 539.101562 204.242188 539.3125 204.351562 C 539.527344 204.460938 539.757812 204.515625 540.007812 204.515625 Z M 540.007812 204.515625 "/>
<path style=" stroke:none;fill-rule:nonzero;fill:rgb(0%,0%,0%);fill-opacity:1;" d="M 545.183594 205.195312 L 543.542969 199.285156 L 544.566406 199.285156 L 545.441406 202.703125 C 545.503906 202.988281 545.566406 203.265625 545.621094 203.527344 C 545.683594 203.796875 545.734375 204.066406 545.796875 204.34375 L 545.84375 204.34375 C 545.90625 204.066406 545.976562 203.792969 546.039062 203.523438 C 546.101562 203.25 546.167969 202.976562 546.242188 202.699219 L 547.152344 199.28125 L 548.125 199.28125 L 549.054688 202.699219 C 549.125 202.984375 549.195312 203.261719 549.261719 203.527344 C 549.328125 203.789062 549.398438 204.0625 549.460938 204.339844 L 549.511719 204.339844 C 549.574219 204.0625 549.636719 203.792969 549.695312 203.527344 C 549.753906 203.257812 549.8125 202.980469 549.878906 202.699219 L 550.738281 199.28125 L 551.6875 199.28125 L 550.109375 205.191406 L 548.890625 205.191406 L 548.042969 202.019531 C 547.96875 201.734375 547.902344 201.453125 547.84375 201.179688 C 547.78125 200.90625 547.714844 200.617188 547.644531 200.320312 L 547.59375 200.320312 C 547.53125 200.621094 547.464844 200.90625 547.398438 201.1875 C 547.335938 201.46875 547.261719 201.75 547.179688 202.03125 L 546.359375 205.191406 L 545.183594 205.191406 Z M 545.183594 205.195312 "/>
<path style=" stroke:none;fill-rule:nonzero;fill:rgb(0%,0%,0%);fill-opacity:1;" d="M 555.917969 198.074219 C 555.722656 198.074219 555.554688 198.007812 555.425781 197.886719 C 555.289062 197.765625 555.226562 197.613281 555.226562 197.429688 C 555.226562 197.234375 555.289062 197.078125 555.425781 196.960938 C 555.554688 196.84375 555.722656 196.785156 555.917969 196.785156 C 556.109375 196.785156 556.273438 196.84375 556.410156 196.960938 C 556.539062 197.078125 556.605469 197.234375 556.605469 197.429688 C 556.605469 197.617188 556.539062 197.765625 556.410156 197.886719 C 556.273438 198.007812 556.113281 198.074219 555.917969 198.074219 Z M 555.40625 205.195312 L 555.40625 199.285156 L 556.402344 199.285156 L 556.402344 205.195312 Z M 555.40625 205.195312 "/>
<path style=" stroke:none;fill-rule:nonzero;fill:rgb(0%,0%,0%);fill-opacity:1;" d="M 558.398438 205.195312 L 558.398438 199.285156 L 559.222656 199.285156 L 559.304688 200.136719 L 559.34375 200.136719 C 559.628906 199.855469 559.921875 199.617188 560.238281 199.425781 C 560.546875 199.238281 560.910156 199.140625 561.324219 199.140625 C 561.945312 199.140625 562.402344 199.335938 562.691406 199.722656 C 562.980469 200.113281 563.121094 200.6875 563.121094 201.445312 L 563.121094 205.191406 L 562.125 205.191406 L 562.125 201.582031 C 562.125 201.023438 562.039062 200.621094 561.859375 200.375 C 561.679688 200.128906 561.394531 200.003906 561.011719 200.003906 C 560.699219 200.003906 560.429688 200.078125 560.191406 200.234375 C 559.957031 200.390625 559.691406 200.613281 559.386719 200.914062 L 559.386719 205.195312 Z M 558.398438 205.195312 "/>
<path style=" stroke:none;fill-rule:nonzero;fill:rgb(0%,0%,0%);fill-opacity:1;" d="M 514.988281 219.929688 C 514.675781 219.929688 514.410156 219.882812 514.195312 219.785156 C 513.976562 219.6875 513.804688 219.554688 513.671875 219.382812 C 513.539062 219.210938 513.441406 219.007812 513.386719 218.761719 C 513.328125 218.519531 513.300781 218.253906 513.300781 217.960938 L 513.300781 214.691406 L 512.425781 214.691406 L 512.425781 213.9375 L 513.351562 213.871094 L 513.46875 212.21875 L 514.308594 212.21875 L 514.308594 213.871094 L 515.902344 213.871094 L 515.902344 214.691406 L 514.308594 214.691406 L 514.308594 217.972656 C 514.308594 218.335938 514.375 218.617188 514.511719 218.816406 C 514.644531 219.011719 514.878906 219.117188 515.21875 219.117188 C 515.324219 219.117188 515.4375 219.097656 515.558594 219.0625 C 515.679688 219.03125 515.789062 218.996094 515.886719 218.953125 L 516.078125 219.707031 C 515.914062 219.769531 515.742188 219.816406 515.550781 219.863281 C 515.359375 219.910156 515.179688 219.929688 514.988281 219.929688 Z M 514.988281 219.929688 "/>
<path style=" stroke:none;fill-rule:nonzero;fill:rgb(0%,0%,0%);fill-opacity:1;" d="M 517.242188 219.785156 L 517.242188 211.128906 L 518.238281 211.128906 L 518.238281 213.484375 L 518.203125 214.699219 C 518.488281 214.433594 518.777344 214.203125 519.089844 214.007812 C 519.394531 213.820312 519.757812 213.722656 520.171875 213.722656 C 520.792969 213.722656 521.25 213.917969 521.535156 214.308594 C 521.824219 214.695312 521.96875 215.269531 521.96875 216.03125 L 521.96875 219.773438 L 520.972656 219.773438 L 520.972656 216.164062 C 520.972656 215.605469 520.886719 215.203125 520.707031 214.957031 C 520.527344 214.710938 520.242188 214.585938 519.855469 214.585938 C 519.542969 214.585938 519.277344 214.664062 519.039062 214.816406 C 518.804688 214.972656 518.535156 215.199219 518.234375 215.5 L 518.234375 219.777344 L 517.242188 219.777344 Z M 517.242188 219.785156 "/>
<path style=" stroke:none;fill-rule:nonzero;fill:rgb(0%,0%,0%);fill-opacity:1;" d="M 526.25 219.929688 C 525.851562 219.929688 525.480469 219.859375 525.136719 219.71875 C 524.792969 219.578125 524.496094 219.375 524.238281 219.113281 C 523.984375 218.847656 523.785156 218.527344 523.636719 218.144531 C 523.492188 217.765625 523.417969 217.332031 523.417969 216.84375 C 523.417969 216.359375 523.492188 215.921875 523.640625 215.535156 C 523.792969 215.152344 523.992188 214.828125 524.238281 214.558594 C 524.484375 214.292969 524.769531 214.089844 525.082031 213.945312 C 525.394531 213.800781 525.726562 213.734375 526.066406 213.734375 C 526.441406 213.734375 526.769531 213.796875 527.070312 213.925781 C 527.367188 214.054688 527.609375 214.242188 527.808594 214.488281 C 528.003906 214.730469 528.160156 215.023438 528.261719 215.363281 C 528.367188 215.703125 528.421875 216.082031 528.421875 216.503906 C 528.421875 216.609375 528.421875 216.710938 528.414062 216.816406 C 528.410156 216.917969 528.402344 217.007812 528.382812 217.078125 L 524.398438 217.078125 C 524.441406 217.710938 524.632812 218.210938 524.988281 218.578125 C 525.339844 218.949219 525.800781 219.132812 526.367188 219.132812 C 526.652344 219.132812 526.914062 219.089844 527.152344 219.007812 C 527.390625 218.921875 527.617188 218.8125 527.839844 218.671875 L 528.191406 219.328125 C 527.929688 219.492188 527.644531 219.636719 527.328125 219.757812 C 527.015625 219.878906 526.652344 219.929688 526.25 219.929688 Z M 524.386719 216.355469 L 527.546875 216.355469 C 527.546875 215.757812 527.417969 215.296875 527.164062 214.988281 C 526.90625 214.679688 526.550781 214.519531 526.085938 214.519531 C 525.878906 214.519531 525.675781 214.5625 525.488281 214.640625 C 525.296875 214.722656 525.125 214.84375 524.96875 215 C 524.816406 215.160156 524.6875 215.351562 524.585938 215.578125 C 524.484375 215.804688 524.421875 216.066406 524.386719 216.355469 Z M 524.386719 216.355469 "/>
<path style=" stroke:none;fill-rule:nonzero;fill:rgb(0%,0%,0%);fill-opacity:1;" d="M 534.925781 219.929688 C 534.648438 219.929688 534.363281 219.867188 534.070312 219.734375 C 533.773438 219.597656 533.5 219.414062 533.238281 219.175781 L 533.199219 219.175781 L 533.117188 219.785156 L 532.316406 219.785156 L 532.316406 211.128906 L 533.308594 211.128906 L 533.308594 213.484375 L 533.285156 214.554688 C 533.554688 214.324219 533.847656 214.121094 534.160156 213.964844 C 534.472656 213.8125 534.800781 213.730469 535.132812 213.730469 C 535.511719 213.730469 535.851562 213.800781 536.140625 213.941406 C 536.433594 214.085938 536.675781 214.285156 536.878906 214.550781 C 537.070312 214.8125 537.222656 215.128906 537.324219 215.5 C 537.425781 215.871094 537.476562 216.28125 537.476562 216.734375 C 537.476562 217.234375 537.410156 217.683594 537.269531 218.082031 C 537.132812 218.476562 536.949219 218.816406 536.710938 219.089844 C 536.476562 219.363281 536.207031 219.574219 535.894531 219.714844 C 535.59375 219.859375 535.265625 219.929688 534.925781 219.929688 Z M 534.753906 219.09375 C 534.996094 219.09375 535.222656 219.035156 535.429688 218.925781 C 535.640625 218.816406 535.816406 218.664062 535.964844 218.46875 C 536.113281 218.269531 536.234375 218.023438 536.316406 217.734375 C 536.402344 217.4375 536.445312 217.113281 536.445312 216.746094 C 536.445312 216.425781 536.414062 216.128906 536.363281 215.859375 C 536.304688 215.59375 536.214844 215.363281 536.085938 215.171875 C 535.960938 214.980469 535.796875 214.835938 535.605469 214.730469 C 535.402344 214.625 535.164062 214.570312 534.894531 214.570312 C 534.414062 214.570312 533.886719 214.839844 533.308594 215.375 L 533.308594 218.476562 C 533.566406 218.703125 533.828125 218.863281 534.085938 218.953125 C 534.339844 219.046875 534.5625 219.09375 534.753906 219.09375 Z M 534.753906 219.09375 "/>
<path style=" stroke:none;fill-rule:nonzero;fill:rgb(0%,0%,0%);fill-opacity:1;" d="M 540.226562 219.929688 C 539.730469 219.929688 539.316406 219.785156 538.992188 219.492188 C 538.667969 219.199219 538.5 218.789062 538.5 218.253906 C 538.5 217.601562 538.789062 217.105469 539.363281 216.761719 C 539.933594 216.417969 540.855469 216.179688 542.117188 216.039062 C 542.117188 215.855469 542.101562 215.671875 542.0625 215.492188 C 542.027344 215.3125 541.964844 215.160156 541.875 215.019531 C 541.789062 214.882812 541.667969 214.769531 541.507812 214.6875 C 541.347656 214.601562 541.148438 214.558594 540.90625 214.558594 C 540.566406 214.558594 540.246094 214.625 539.949219 214.75 C 539.644531 214.882812 539.378906 215.027344 539.144531 215.191406 L 538.753906 214.496094 C 539.03125 214.316406 539.367188 214.144531 539.765625 213.980469 C 540.160156 213.8125 540.597656 213.730469 541.078125 213.730469 C 541.800781 213.730469 542.324219 213.953125 542.644531 214.390625 C 542.96875 214.835938 543.132812 215.425781 543.132812 216.160156 L 543.132812 219.785156 L 542.308594 219.785156 L 542.226562 219.078125 L 542.1875 219.078125 C 541.902344 219.316406 541.597656 219.515625 541.273438 219.679688 C 540.941406 219.847656 540.597656 219.929688 540.226562 219.929688 Z M 540.519531 219.128906 C 540.804688 219.128906 541.070312 219.0625 541.320312 218.925781 C 541.570312 218.792969 541.839844 218.597656 542.121094 218.339844 L 542.121094 216.699219 C 541.628906 216.761719 541.214844 216.839844 540.878906 216.925781 C 540.546875 217.019531 540.273438 217.121094 540.0625 217.242188 C 539.851562 217.363281 539.707031 217.503906 539.613281 217.664062 C 539.523438 217.820312 539.476562 217.992188 539.476562 218.179688 C 539.476562 218.519531 539.574219 218.761719 539.777344 218.910156 C 539.984375 219.054688 540.226562 219.128906 540.519531 219.128906 Z M 540.519531 219.128906 "/>
<path style=" stroke:none;fill-rule:nonzero;fill:rgb(0%,0%,0%);fill-opacity:1;" d="M 547.324219 219.929688 C 546.933594 219.929688 546.570312 219.863281 546.230469 219.726562 C 545.890625 219.585938 545.597656 219.390625 545.347656 219.125 C 545.101562 218.859375 544.910156 218.539062 544.769531 218.152344 C 544.628906 217.765625 544.554688 217.332031 544.554688 216.84375 C 544.554688 216.351562 544.632812 215.910156 544.785156 215.523438 C 544.941406 215.140625 545.144531 214.816406 545.402344 214.546875 C 545.664062 214.28125 545.96875 214.078125 546.3125 213.9375 C 546.65625 213.800781 547.015625 213.734375 547.398438 213.734375 C 547.789062 213.734375 548.121094 213.800781 548.394531 213.9375 C 548.671875 214.078125 548.914062 214.242188 549.125 214.425781 L 548.613281 215.082031 C 548.4375 214.925781 548.261719 214.800781 548.070312 214.707031 C 547.878906 214.609375 547.667969 214.558594 547.429688 214.558594 C 547.164062 214.558594 546.917969 214.613281 546.691406 214.722656 C 546.464844 214.832031 546.269531 214.988281 546.109375 215.191406 C 545.949219 215.390625 545.816406 215.636719 545.726562 215.910156 C 545.632812 216.195312 545.585938 216.5 545.585938 216.84375 C 545.585938 217.183594 545.632812 217.492188 545.71875 217.769531 C 545.808594 218.046875 545.933594 218.28125 546.089844 218.480469 C 546.25 218.679688 546.441406 218.828125 546.664062 218.9375 C 546.894531 219.046875 547.140625 219.105469 547.40625 219.105469 C 547.6875 219.105469 547.933594 219.046875 548.164062 218.925781 C 548.398438 218.8125 548.605469 218.671875 548.792969 218.507812 L 549.234375 219.175781 C 548.964844 219.410156 548.667969 219.597656 548.34375 219.734375 C 548.019531 219.867188 547.679688 219.929688 547.324219 219.929688 Z M 547.324219 219.929688 "/>
<path style=" stroke:none;fill-rule:nonzero;fill:rgb(0%,0%,0%);fill-opacity:1;" d="M 550.53125 219.785156 L 550.53125 211.128906 L 551.515625 211.128906 L 551.515625 216.988281 L 551.554688 216.988281 L 554.070312 213.875 L 555.175781 213.875 L 553.195312 216.246094 L 555.445312 219.785156 L 554.347656 219.785156 L 552.625 216.9375 L 551.515625 218.226562 L 551.515625 219.785156 Z M 550.53125 219.785156 "/>
<path style=" stroke:none;fill-rule:nonzero;fill:rgb(0%,0%,0%);fill-opacity:1;" d="M 558.421875 222.511719 C 558.054688 222.511719 557.722656 222.472656 557.425781 222.40625 C 557.121094 222.335938 556.867188 222.234375 556.652344 222.09375 C 556.441406 221.957031 556.273438 221.789062 556.15625 221.597656 C 556.035156 221.40625 555.976562 221.171875 555.976562 220.914062 C 555.976562 220.664062 556.050781 220.425781 556.207031 220.199219 C 556.359375 219.972656 556.570312 219.761719 556.839844 219.578125 L 556.839844 219.527344 C 556.691406 219.441406 556.566406 219.316406 556.46875 219.160156 C 556.367188 219 556.316406 218.804688 556.316406 218.570312 C 556.316406 218.320312 556.382812 218.101562 556.519531 217.910156 C 556.660156 217.722656 556.804688 217.582031 556.960938 217.472656 L 556.960938 217.421875 C 556.765625 217.261719 556.589844 217.046875 556.429688 216.773438 C 556.269531 216.5 556.195312 216.1875 556.195312 215.828125 C 556.195312 215.507812 556.253906 215.214844 556.375 214.953125 C 556.488281 214.695312 556.648438 214.472656 556.851562 214.292969 C 557.054688 214.105469 557.292969 213.96875 557.5625 213.871094 C 557.832031 213.773438 558.117188 213.722656 558.417969 213.722656 C 558.578125 213.722656 558.734375 213.738281 558.871094 213.769531 C 559.015625 213.796875 559.140625 213.832031 559.253906 213.871094 L 561.308594 213.871094 L 561.308594 214.636719 L 560.09375 214.636719 C 560.234375 214.773438 560.347656 214.953125 560.441406 215.160156 C 560.53125 215.371094 560.578125 215.601562 560.578125 215.855469 C 560.578125 216.171875 560.523438 216.457031 560.410156 216.710938 C 560.296875 216.964844 560.140625 217.179688 559.949219 217.355469 C 559.753906 217.53125 559.523438 217.664062 559.261719 217.761719 C 559 217.859375 558.714844 217.910156 558.417969 217.910156 C 558.269531 217.910156 558.121094 217.890625 557.96875 217.855469 C 557.8125 217.816406 557.667969 217.765625 557.527344 217.703125 C 557.425781 217.789062 557.335938 217.890625 557.261719 218 C 557.191406 218.109375 557.152344 218.246094 557.152344 218.40625 C 557.152344 218.597656 557.222656 218.746094 557.371094 218.871094 C 557.515625 218.992188 557.796875 219.050781 558.195312 219.050781 L 559.339844 219.050781 C 560.027344 219.050781 560.542969 219.164062 560.890625 219.386719 C 561.234375 219.609375 561.40625 219.964844 561.40625 220.460938 C 561.40625 220.738281 561.339844 221 561.203125 221.25 C 561.0625 221.496094 560.863281 221.710938 560.605469 221.898438 C 560.347656 222.085938 560.035156 222.230469 559.664062 222.34375 C 559.300781 222.453125 558.886719 222.511719 558.421875 222.511719 Z M 558.566406 221.816406 C 558.851562 221.816406 559.109375 221.777344 559.339844 221.710938 C 559.566406 221.644531 559.765625 221.554688 559.929688 221.445312 C 560.089844 221.335938 560.214844 221.207031 560.300781 221.0625 C 560.390625 220.914062 560.4375 220.761719 560.4375 220.613281 C 560.4375 220.335938 560.339844 220.144531 560.132812 220.042969 C 559.929688 219.9375 559.632812 219.882812 559.246094 219.882812 L 558.222656 219.882812 C 558.113281 219.882812 557.988281 219.878906 557.851562 219.867188 C 557.71875 219.855469 557.589844 219.828125 557.457031 219.789062 C 557.25 219.941406 557.09375 220.101562 556.996094 220.273438 C 556.902344 220.445312 556.851562 220.613281 556.851562 220.785156 C 556.851562 221.101562 557.003906 221.351562 557.304688 221.539062 C 557.613281 221.722656 558.03125 221.816406 558.566406 221.816406 Z M 558.421875 217.242188 C 558.589844 217.242188 558.75 217.210938 558.902344 217.144531 C 559.050781 217.082031 559.183594 216.988281 559.300781 216.867188 C 559.417969 216.746094 559.507812 216.597656 559.574219 216.421875 C 559.636719 216.25 559.671875 216.054688 559.671875 215.835938 C 559.671875 215.394531 559.546875 215.058594 559.304688 214.820312 C 559.0625 214.582031 558.769531 214.460938 558.421875 214.460938 C 558.070312 214.460938 557.773438 214.582031 557.53125 214.820312 C 557.289062 215.058594 557.167969 215.394531 557.167969 215.835938 C 557.167969 216.054688 557.199219 216.253906 557.261719 216.421875 C 557.328125 216.597656 557.421875 216.746094 557.535156 216.867188 C 557.65625 216.988281 557.792969 217.078125 557.941406 217.144531 C 558.089844 217.214844 558.25 217.242188 558.421875 217.242188 Z M 558.421875 217.242188 "/>
<path style=" stroke:none;fill-rule:nonzero;fill:rgb(0%,0%,0%);fill-opacity:1;" d="M 562.554688 219.785156 L 562.554688 213.875 L 563.378906 213.875 L 563.460938 214.949219 L 563.503906 214.949219 C 563.703125 214.574219 563.945312 214.28125 564.234375 214.0625 C 564.523438 213.84375 564.835938 213.734375 565.175781 213.734375 C 565.414062 213.734375 565.621094 213.773438 565.8125 213.855469 L 565.617188 214.730469 C 565.523438 214.695312 565.429688 214.671875 565.347656 214.65625 C 565.265625 214.640625 565.164062 214.632812 565.046875 214.632812 C 564.792969 214.632812 564.53125 214.734375 564.261719 214.9375 C 563.988281 215.140625 563.75 215.496094 563.550781 215.996094 L 563.550781 219.789062 L 562.554688 219.789062 Z M 562.554688 219.785156 "/>
<path style=" stroke:none;fill-rule:nonzero;fill:rgb(0%,0%,0%);fill-opacity:1;" d="M 568.945312 219.929688 C 568.582031 219.929688 568.234375 219.863281 567.90625 219.726562 C 567.578125 219.585938 567.289062 219.390625 567.039062 219.125 C 566.785156 218.859375 566.585938 218.539062 566.433594 218.152344 C 566.285156 217.765625 566.210938 217.332031 566.210938 216.84375 C 566.210938 216.351562 566.285156 215.910156 566.433594 215.523438 C 566.585938 215.140625 566.785156 214.816406 567.039062 214.546875 C 567.289062 214.28125 567.578125 214.078125 567.90625 213.9375 C 568.234375 213.800781 568.582031 213.734375 568.945312 213.734375 C 569.3125 213.734375 569.65625 213.800781 569.984375 213.9375 C 570.316406 214.078125 570.601562 214.28125 570.855469 214.546875 C 571.105469 214.816406 571.304688 215.140625 571.453125 215.523438 C 571.605469 215.910156 571.679688 216.347656 571.679688 216.84375 C 571.679688 217.332031 571.605469 217.765625 571.453125 218.152344 C 571.304688 218.539062 571.105469 218.859375 570.855469 219.125 C 570.601562 219.390625 570.316406 219.585938 569.984375 219.726562 C 569.660156 219.863281 569.3125 219.929688 568.945312 219.929688 Z M 568.945312 219.105469 C 569.195312 219.105469 569.425781 219.046875 569.640625 218.9375 C 569.851562 218.828125 570.03125 218.679688 570.179688 218.480469 C 570.332031 218.28125 570.449219 218.042969 570.527344 217.769531 C 570.605469 217.496094 570.648438 217.1875 570.648438 216.84375 C 570.648438 216.503906 570.605469 216.195312 570.527344 215.910156 C 570.449219 215.632812 570.332031 215.390625 570.179688 215.191406 C 570.03125 214.988281 569.851562 214.832031 569.640625 214.722656 C 569.425781 214.613281 569.195312 214.558594 568.945312 214.558594 C 568.695312 214.558594 568.464844 214.613281 568.25 214.722656 C 568.039062 214.832031 567.863281 214.988281 567.710938 215.191406 C 567.558594 215.390625 567.445312 215.636719 567.363281 215.910156 C 567.28125 216.195312 567.242188 216.5 567.242188 216.84375 C 567.242188 217.183594 567.28125 217.492188 567.363281 217.769531 C 567.445312 218.046875 567.558594 218.28125 567.710938 218.480469 C 567.863281 218.679688 568.039062 218.828125 568.25 218.9375 C 568.464844 219.046875 568.695312 219.105469 568.945312 219.105469 Z M 568.945312 219.105469 "/>
<path style=" stroke:none;fill-rule:nonzero;fill:rgb(0%,0%,0%);fill-opacity:1;" d="M 574.964844 219.929688 C 574.332031 219.929688 573.871094 219.738281 573.585938 219.351562 C 573.296875 218.957031 573.152344 218.386719 573.152344 217.625 L 573.152344 213.878906 L 574.160156 213.878906 L 574.160156 217.488281 C 574.160156 218.046875 574.246094 218.449219 574.421875 218.695312 C 574.597656 218.945312 574.878906 219.066406 575.265625 219.066406 C 575.574219 219.066406 575.84375 218.992188 576.082031 218.828125 C 576.316406 218.671875 576.578125 218.417969 576.859375 218.070312 L 576.859375 213.875 L 577.855469 213.875 L 577.855469 219.785156 L 577.03125 219.785156 L 576.949219 218.859375 L 576.910156 218.859375 C 576.632812 219.183594 576.34375 219.441406 576.039062 219.636719 C 575.734375 219.832031 575.378906 219.929688 574.964844 219.929688 Z M 574.964844 219.929688 "/>
<path style=" stroke:none;fill-rule:nonzero;fill:rgb(0%,0%,0%);fill-opacity:1;" d="M 579.847656 219.785156 L 579.847656 213.875 L 580.671875 213.875 L 580.757812 214.726562 L 580.792969 214.726562 C 581.082031 214.445312 581.375 214.207031 581.6875 214.015625 C 582 213.828125 582.363281 213.730469 582.777344 213.730469 C 583.398438 213.730469 583.855469 213.925781 584.140625 214.3125 C 584.429688 214.703125 584.574219 215.277344 584.574219 216.035156 L 584.574219 219.78125 L 583.578125 219.78125 L 583.578125 216.171875 C 583.578125 215.609375 583.488281 215.210938 583.3125 214.964844 C 583.132812 214.71875 582.847656 214.59375 582.460938 214.59375 C 582.148438 214.59375 581.882812 214.667969 581.644531 214.824219 C 581.410156 214.980469 581.140625 215.203125 580.839844 215.503906 L 580.839844 219.785156 Z M 579.847656 219.785156 "/>
<path style=" stroke:none;fill-rule:nonzero;fill:rgb(0%,0%,0%);fill-opacity:1;" d="M 588.515625 219.929688 C 587.773438 219.929688 587.179688 219.664062 586.730469 219.128906 C 586.292969 218.59375 586.074219 217.828125 586.074219 216.84375 C 586.074219 216.363281 586.144531 215.929688 586.28125 215.546875 C 586.425781 215.160156 586.609375 214.835938 586.851562 214.570312 C 587.085938 214.300781 587.355469 214.09375 587.664062 213.949219 C 587.976562 213.800781 588.296875 213.730469 588.636719 213.730469 C 588.976562 213.730469 589.273438 213.792969 589.523438 213.914062 C 589.777344 214.035156 590.03125 214.203125 590.289062 214.414062 L 590.238281 213.40625 L 590.238281 211.132812 L 591.246094 211.132812 L 591.246094 219.789062 L 590.425781 219.789062 L 590.339844 219.09375 L 590.304688 219.09375 C 590.070312 219.320312 589.796875 219.515625 589.492188 219.679688 C 589.1875 219.847656 588.863281 219.929688 588.515625 219.929688 Z M 588.730469 219.09375 C 589.011719 219.09375 589.269531 219.027344 589.507812 218.894531 C 589.753906 218.761719 589.996094 218.554688 590.238281 218.28125 L 590.238281 215.191406 C 589.988281 214.964844 589.746094 214.800781 589.515625 214.710938 C 589.289062 214.621094 589.050781 214.570312 588.808594 214.570312 C 588.574219 214.570312 588.355469 214.625 588.144531 214.734375 C 587.9375 214.84375 587.757812 215 587.605469 215.199219 C 587.449219 215.394531 587.324219 215.636719 587.238281 215.90625 C 587.148438 216.183594 587.105469 216.488281 587.105469 216.832031 C 587.105469 217.542969 587.25 218.101562 587.53125 218.5 C 587.8125 218.898438 588.214844 219.09375 588.730469 219.09375 Z M 588.730469 219.09375 "/>
</g>
</svg>
