<?xml version="1.0" encoding="UTF-8"?>
<svg xmlns="http://www.w3.org/2000/svg" xmlns:xlink="http://www.w3.org/1999/xlink" width="630px" height="px" viewBox="0 0 630 141" version="1.1">
<g id="surface1">
<path style=" stroke:none;fill-rule:nonzero;fill:rgb(52.941176%,40.392157%,66.27451%);fill-opacity:1;" d="M 357.335938 64 C 357.507812 64 358.011719 62.140625 358.011719 59.777344 C 358.011719 56.316406 356.074219 51.839844 348.480469 51.417969 C 345.78125 53.191406 343.507812 54.457031 340.890625 54.457031 L 340.976562 54.457031 C 338.363281 54.457031 336.085938 53.191406 333.386719 51.417969 C 330.433594 51.417969 328.324219 52.515625 327.058594 54.035156 C 324.023438 57.75 324.953125 64 324.953125 64 "/>
<path style=" stroke:none;fill-rule:nonzero;fill:rgb(70.196078%,60%,78.431373%);fill-opacity:1;" d="M 342.242188 62.226562 L 341.820312 61.972656 C 335.15625 61.972656 329.675781 55.976562 329.675781 49.222656 L 328.832031 41.960938 L 328.832031 36.304688 C 328.832031 29.636719 335.074219 24.148438 341.820312 24.148438 C 348.480469 24.148438 354.722656 29.550781 354.722656 36.304688 L 354.808594 47.535156 C 354.808594 48.292969 354.21875 50.742188 354.046875 51.417969 C 355.988281 53.53125 355.566406 55.554688 351.6875 59.015625 C 349.410156 61.128906 345.53125 62.226562 342.242188 62.226562 Z M 342.242188 62.226562 "/>
<path style=" stroke:none;fill-rule:nonzero;fill:rgb(70.196078%,60%,78.431373%);fill-opacity:1;" d="M 337.855469 58.933594 L 351.179688 58.933594 L 351.179688 64 L 337.855469 64 Z M 337.855469 58.933594 "/>
<path style=" stroke:none;fill-rule:nonzero;fill:rgb(98.823529%,91.764706%,17.254902%);fill-opacity:1;" d="M 351.097656 39.765625 C 349.15625 34.195312 345.867188 32 341.566406 28.960938 C 338.191406 32.167969 334.988281 33.011719 332.035156 39.765625 C 332.035156 46.351562 336.335938 50.40625 341.566406 50.40625 C 346.796875 50.40625 351.097656 46.351562 351.097656 39.765625 Z M 351.097656 39.765625 "/>
<path style=" stroke:none;fill-rule:nonzero;fill:rgb(0%,0.392157%,0%);fill-opacity:1;" d="M 346.625 37.148438 C 346.625 38.078125 345.867188 38.839844 344.941406 38.839844 C 344.011719 38.839844 343.253906 38.078125 343.253906 37.148438 C 343.253906 36.222656 344.011719 35.460938 344.941406 35.460938 C 345.867188 35.460938 346.625 36.222656 346.625 37.148438 "/>
<path style=" stroke:none;fill-rule:nonzero;fill:rgb(0%,0.392157%,0%);fill-opacity:1;" d="M 339.878906 37.148438 C 339.878906 38.078125 339.121094 38.839844 338.191406 38.839844 C 337.265625 38.839844 336.507812 38.078125 336.507812 37.148438 C 336.507812 36.222656 337.265625 35.460938 338.191406 35.460938 C 339.121094 35.460938 339.878906 36.222656 339.878906 37.148438 "/>
<path style=" stroke:none;fill-rule:nonzero;fill:rgb(0%,0.392157%,0%);fill-opacity:1;" d="M 341.566406 45.59375 C 340.554688 45.59375 339.625 45.339844 338.699219 44.832031 C 338.277344 44.664062 338.109375 44.15625 338.363281 43.734375 C 338.53125 43.3125 339.035156 43.144531 339.457031 43.398438 C 340.890625 44.15625 342.324219 44.15625 343.757812 43.398438 C 344.179688 43.230469 344.6875 43.398438 344.855469 43.734375 C 345.023438 44.15625 344.855469 44.664062 344.519531 44.832031 C 343.507812 45.425781 342.492188 45.59375 341.566406 45.59375 Z M 341.566406 45.59375 "/>
<path style="fill:none;stroke-width:2;stroke-linecap:round;stroke-linejoin:round;stroke:rgb(0%,0%,0%);stroke-opacity:1;stroke-miterlimit:10;" d="M 423.3 68.398936 C 424.300446 71.60051 423.800223 74.899241 423.800223 74.899241 " transform="matrix(0.843373,0,0,0.844311,0,0)"/>
<path style="fill:none;stroke-width:2;stroke-linecap:round;stroke-linejoin:round;stroke:rgb(0%,0%,0%);stroke-opacity:1;stroke-miterlimit:10;" d="M 385.899051 74.899241 C 385.899051 74.899241 384.801339 67.802111 389.099554 64.10087 " transform="matrix(0.843373,0,0,0.844311,0,0)"/>
<path style="fill:none;stroke-width:2;stroke-linecap:round;stroke-linejoin:round;stroke:rgb(0%,0%,0%);stroke-opacity:1;stroke-miterlimit:10;" d="M 405.102065 34.601978 L 404.89827 34.601978 C 404.89827 34.601978 391.697935 41.999834 394.699275 51.299202 C 394.699275 51.299202 397.001228 59.599235 405.000167 59.599235 C 412.999107 59.599235 415.30106 51.299202 415.30106 51.299202 C 418.297768 41.999834 405.102065 34.601978 405.102065 34.601978 Z M 405.102065 34.601978 " transform="matrix(0.843373,0,0,0.844311,0,0)"/>
<path style="fill:none;stroke-width:2;stroke-linecap:round;stroke-linejoin:round;stroke:rgb(0%,0%,0%);stroke-opacity:1;stroke-miterlimit:10;" d="M 405.000167 28.698498 C 405.000167 28.698498 391.299609 28.101673 390.201897 43.498836 C 389.099554 58.900626 392.198158 62.500083 392.198158 62.500083 C 392.198158 62.500083 396.098047 72.599845 405.801451 73.798122 C 415.500223 75.001025 421.401004 64.998421 421.401004 64.998421 C 421.401004 64.998421 423.3 60.098903 415.699386 59.70102 C 414.101451 60.700355 409.502176 63.901928 404.89827 59.70102 " transform="matrix(0.843373,0,0,0.844311,0,0)"/>
<path style="fill:none;stroke-width:2;stroke-linecap:round;stroke-linejoin:round;stroke:rgb(0%,0%,0%);stroke-opacity:1;stroke-miterlimit:10;" d="M 405.19933 28.698498 C 405.19933 28.698498 418.899888 28.101673 420.002232 43.498836 C 420.298661 47.699745 420.298661 51.10026 420.099498 53.700382 L 419.701172 56.499446 " transform="matrix(0.843373,0,0,0.844311,0,0)"/>
<path style="fill:none;stroke-width:2;stroke-linecap:round;stroke-linejoin:round;stroke:rgb(0%,0%,0%);stroke-opacity:1;stroke-miterlimit:10;" d="M 400.998382 72.201961 L 400.998382 74.899241 " transform="matrix(0.843373,0,0,0.844311,0,0)"/>
<path style="fill:none;stroke-width:2;stroke-linecap:round;stroke-linejoin:round;stroke:rgb(0%,0%,0%);stroke-opacity:1;stroke-miterlimit:10;" d="M 416.398772 70.499391 L 416.398772 74.899241 " transform="matrix(0.843373,0,0,0.844311,0,0)"/>
<path style="fill:none;stroke-width:2;stroke-linecap:round;stroke-linejoin:round;stroke:rgb(0%,0%,0%);stroke-opacity:1;stroke-miterlimit:10;" d="M 417.598382 63.402261 C 417.598382 63.402261 414.101451 69.102172 406.801897 68.09821 C 400.998382 67.297817 390.998549 60.001745 389.900837 50.498809 " transform="matrix(0.843373,0,0,0.844311,0,0)"/>
<path style=" stroke:none;fill-rule:nonzero;fill:rgb(98.823529%,91.764706%,16.862745%);fill-opacity:1;" d="M 297.457031 27.695312 C 297.457031 29.558594 295.949219 31.070312 294.085938 31.070312 C 292.222656 31.070312 290.710938 29.558594 290.710938 27.695312 C 290.710938 25.828125 292.222656 24.316406 294.085938 24.316406 C 295.949219 24.316406 297.457031 25.828125 297.457031 27.695312 Z M 297.457031 27.695312 "/>
<path style=" stroke:none;fill-rule:nonzero;fill:rgb(98.823529%,91.764706%,16.862745%);fill-opacity:1;" d="M 294.335938 35.460938 L 291.554688 43.398438 L 290.457031 44.917969 L 293.578125 50.152344 L 294.335938 50.910156 L 295.941406 54.542969 L 296.277344 68.8125 C 296.277344 68.8125 295.855469 71.429688 292.652344 70.585938 L 291.386719 57.582031 L 285.902344 51.925781 L 280.085938 57.246094 L 268.53125 62.984375 L 267.011719 61.296875 L 272.15625 57.496094 L 276.625 54.375 L 280.085938 48.96875 L 283.964844 40.527344 L 287.925781 32.929688 L 291.046875 32.082031 L 293.410156 33.855469 Z M 294.335938 35.460938 "/>
<path style="fill:none;stroke-width:2;stroke-linecap:round;stroke-linejoin:round;stroke:rgb(0%,0%,0%);stroke-opacity:1;stroke-miterlimit:10;" d="M 348.29894 29.799618 C 346.79827 29.998559 345.598661 31.201463 345.598661 32.80225 C 345.598661 34.301252 346.701004 35.601313 348.201674 35.800255 " transform="matrix(0.843373,0,0,0.844311,0,0)"/>
<path style="fill:none;stroke-width:2;stroke-linecap:round;stroke-linejoin:round;stroke:rgb(0%,0%,0%);stroke-opacity:1;stroke-miterlimit:10;" d="M 347.502288 82.699607 L 345.899721 69.698997 C 345.797824 68.597878 345.001172 67.098875 344.199888 66.298482 L 340.999386 63.101535 C 340.198103 62.301141 338.901228 61.098238 337.998047 60.399629 L 335.098605 57.998449 C 334.301953 57.299839 333.597935 55.800837 333.597935 54.699717 C 333.597935 53.598598 334.000893 51.900654 334.598382 50.901319 L 339.600614 41.699108 " transform="matrix(0.843373,0,0,0.844311,0,0)"/>
<path style="fill:none;stroke-width:2;stroke-linecap:round;stroke-linejoin:round;stroke:rgb(0%,0%,0%);stroke-opacity:1;stroke-miterlimit:10;" d="M 344.802009 50.998476 C 344.802009 50.998476 344.500949 51.599928 344.199888 52.298537 C 343.898828 53.001773 344.097991 54.398992 344.700112 55.301169 L 348.099777 60.700355 " transform="matrix(0.843373,0,0,0.844311,0,0)"/>
<path style="fill:none;stroke-width:2;stroke-linecap:round;stroke-linejoin:round;stroke:rgb(0%,0%,0%);stroke-opacity:1;stroke-miterlimit:10;" d="M 333.699833 55.699053 L 327.799051 64.10087 C 327.201563 64.998421 325.900056 66.201324 324.899609 66.798149 L 318.202176 70.800116 C 317.298996 71.401568 316.701507 72.498061 316.997935 73.298454 C 317.298996 74.098848 318.299442 74.501357 319.299888 74.00169 L 327.799051 70.499391 C 328.799498 70.101507 330.300167 69.102172 331.101451 68.398936 L 338.600167 61.69969 " transform="matrix(0.843373,0,0,0.844311,0,0)"/>
<path style="fill:none;stroke-width:2;stroke-linecap:round;stroke-linejoin:round;stroke:rgb(0%,0%,0%);stroke-opacity:1;stroke-miterlimit:10;" d="M 339.697879 41.699108 C 341.698772 37.701768 344.097991 37.498199 345.700558 38.099651 C 347.298493 38.701103 348.099777 40.301889 348.099777 41.89805 " transform="matrix(0.843373,0,0,0.844311,0,0)"/>
<path style="fill:none;stroke-width:2;stroke-linecap:round;stroke-linejoin:round;stroke:rgb(0%,0%,0%);stroke-opacity:1;stroke-miterlimit:10;" d="M 344.500949 42.800227 L 348.201674 48.301197 " transform="matrix(0.843373,0,0,0.844311,0,0)"/>
<path style="fill:none;stroke-width:2;stroke-linecap:round;stroke-linejoin:round;stroke:rgb(0%,0%,0%);stroke-opacity:1;stroke-miterlimit:10;" d="M 351.800502 20.699191 L 351.800502 82.699607 " transform="matrix(0.843373,0,0,0.844311,0,0)"/>
<path style="fill:none;stroke-width:2;stroke-linecap:round;stroke-linejoin:round;stroke:rgb(0%,0%,0%);stroke-opacity:1;stroke-miterlimit:10;" d="M 310.999888 36.79959 L 330.402065 36.79959 " transform="matrix(0.843373,0,0,0.844311,0,0)"/>
<path style="fill:none;stroke-width:2;stroke-linecap:round;stroke-linejoin:round;stroke:rgb(0%,0%,0%);stroke-opacity:1;stroke-miterlimit:10;" d="M 325.900056 31.900072 L 330.698493 36.79959 " transform="matrix(0.843373,0,0,0.844311,0,0)"/>
<path style="fill:none;stroke-width:2;stroke-linecap:round;stroke-linejoin:round;stroke:rgb(0%,0%,0%);stroke-opacity:1;stroke-miterlimit:10;" d="M 325.900056 41.60195 L 330.698493 36.79959 " transform="matrix(0.843373,0,0,0.844311,0,0)"/>
<path style=" stroke:none;fill-rule:nonzero;fill:rgb(98.823529%,91.764706%,16.862745%);fill-opacity:1;" d="M 156.53125 20.515625 C 156.53125 21.914062 155.398438 23.050781 154 23.050781 C 152.601562 23.050781 151.46875 21.914062 151.46875 20.515625 C 151.46875 19.117188 152.601562 17.984375 154 17.984375 C 155.398438 17.984375 156.53125 19.117188 156.53125 20.515625 Z M 156.53125 20.515625 "/>
<path style=" stroke:none;fill-rule:nonzero;fill:rgb(98.823529%,91.764706%,16.862745%);fill-opacity:1;" d="M 150.796875 34.953125 L 146.664062 70.246094 L 149.445312 70.246094 L 154.757812 47.789062 L 156.613281 47.789062 L 156.363281 58.425781 L 154.335938 70.246094 L 157.121094 70.246094 L 160.746094 58.425781 L 161.84375 47.367188 L 161.421875 36.558594 C 161.421875 36.558594 164.289062 49.390625 165.386719 50.40625 C 166.480469 51.417969 167.832031 50.828125 167.832031 50.828125 L 163.363281 31.832031 L 161.167969 27.441406 L 157.878906 26.257812 L 148.855469 28.199219 L 142.953125 38.164062 L 137.386719 44.664062 C 137.386719 44.664062 137.554688 45.339844 139.578125 45.339844 C 141.097656 45.253906 143.625 41.878906 144.132812 41.203125 C 145.480469 39.429688 149.53125 31.746094 150.964844 31.660156 C 151.132812 31.492188 150.964844 34.449219 150.796875 34.953125 Z M 150.796875 34.953125 "/>
<path style=" stroke:none;fill-rule:nonzero;fill:rgb(64.705882%,47.45098%,22.352941%);fill-opacity:1;" d="M 138.902344 46.691406 C 138.902344 46.691406 139.410156 47.535156 139.746094 48.378906 L 139.746094 50.910156 L 143.203125 55.976562 L 145.652344 54.289062 L 143.289062 49.308594 C 143.289062 49.308594 142.53125 48.464844 142.023438 48.210938 C 141.011719 47.789062 140.335938 47.789062 140.335938 47.789062 C 139.746094 47.195312 139.664062 47.027344 139.410156 46.691406 C 139.15625 46.351562 139.15625 45.761719 138.566406 46.269531 "/>
<path style="fill:none;stroke-width:2;stroke-linecap:butt;stroke-linejoin:miter;stroke:rgb(0%,0%,0%);stroke-opacity:1;stroke-miterlimit:10;" d="M 185.601339 24.298648 C 185.601339 25.954953 184.258147 27.30128 182.6 27.30128 C 180.941853 27.30128 179.598661 25.954953 179.598661 24.298648 C 179.598661 22.642343 180.941853 21.300643 182.6 21.300643 C 184.258147 21.300643 185.601339 22.642343 185.601339 24.298648 Z M 185.601339 24.298648 " transform="matrix(0.843373,0,0,0.844311,0,0)"/>
<path style="fill:none;stroke-width:2;stroke-linecap:round;stroke-linejoin:round;stroke:rgb(0%,0%,0%);stroke-opacity:1;stroke-miterlimit:10;" d="M 189.598493 37.2021 L 191.599386 54.098266 C 191.701283 55.199385 191.798549 56.999113 191.599386 58.100233 L 190.700837 67.200659 C 190.59894 68.301779 190.200614 70.101507 189.899554 71.100842 L 186.800949 81.297762 C 186.499888 82.398881 185.499442 83.199274 184.600893 83.199274 C 183.697712 83.199274 183.100223 82.301723 183.299386 81.200604 L 184.999219 71.100842 C 185.198382 69.999723 185.402176 68.199994 185.402176 67.098875 L 185.601339 58.498116 C 185.601339 57.401623 185.198382 56.499446 184.600893 56.499446 C 183.998772 56.499446 183.299386 57.401623 182.998326 58.400959 L 177.597768 81.09882 C 177.301339 82.199939 176.398158 83.000332 175.499609 83.000332 C 174.60106 83.000332 173.99894 82.098155 174.100837 81.001662 L 179.098437 37.997867 " transform="matrix(0.843373,0,0,0.844311,0,0)"/>
<path style="fill:none;stroke-width:2;stroke-linecap:round;stroke-linejoin:round;stroke:rgb(0%,0%,0%);stroke-opacity:1;stroke-miterlimit:10;" d="M 163.600781 52.20138 C 163.600781 52.20138 164.300167 51.701712 165.101451 51.202045 C 165.898103 50.69775 167.699833 48.301197 169.098605 45.900017 L 173.99894 37.498199 C 175.397712 35.101646 178.301786 32.700465 180.501842 32.200798 C 182.701897 31.70113 186.300725 31.201463 188.500781 31.201463 C 190.700837 31.201463 192.798996 33.399075 193.201953 36.100981 L 193.799442 40.200105 C 194.197768 42.902011 195.100949 47.301862 195.902232 49.999141 L 198.500614 59.201352 " transform="matrix(0.843373,0,0,0.844311,0,0)"/>
<path style="fill:none;stroke-width:2;stroke-linecap:round;stroke-linejoin:round;stroke:rgb(0%,0%,0%);stroke-opacity:1;stroke-miterlimit:10;" d="M 164.601228 55.199385 C 164.601228 55.199385 165.198717 56.19872 165.601674 57.198055 L 165.601674 60.200687 L 169.700725 66.201324 L 172.600167 64.198027 L 169.297768 59.201352 " transform="matrix(0.843373,0,0,0.844311,0,0)"/>
<path style=" stroke:none;fill-rule:nonzero;fill:rgb(57.254902%,82.745098%,96.078431%);fill-opacity:1;" d="M 456.179688 66.277344 L 456.179688 64.675781 C 456.179688 57.582031 457.109375 42.976562 459.636719 37.570312 L 484.941406 37.570312 C 487.46875 42.890625 488.230469 57.496094 488.230469 64.675781 L 488.230469 66.277344 Z M 456.179688 66.277344 "/>
<path style=" stroke:none;fill-rule:nonzero;fill:rgb(38.039216%,69.803922%,89.411765%);fill-opacity:1;" d="M 488.230469 66.277344 L 478.109375 66.277344 C 478.109375 66.277344 478.109375 56.570312 478.109375 52.347656 C 478.109375 49.8125 477.265625 48.96875 477.265625 48.96875 L 481.820312 46.523438 L 485.53125 39.765625 L 486.710938 42.804688 Z M 488.230469 66.277344 "/>
<path style=" stroke:none;fill-rule:nonzero;fill:rgb(98.823529%,91.764706%,16.862745%);fill-opacity:1;" d="M 479.035156 48.96875 C 485.78125 45.507812 484.941406 40.527344 484.941406 35.207031 C 484.941406 27.523438 479.710938 21.953125 472.289062 21.953125 C 464.867188 21.953125 459.636719 27.441406 459.636719 35.207031 C 459.636719 40.527344 458.964844 45.507812 465.625 48.96875 C 465.625 48.96875 468.578125 49.8125 472.289062 49.8125 C 476.507812 49.8125 479.035156 48.96875 479.035156 48.96875 Z M 479.035156 48.96875 "/>
<path style=" stroke:none;fill-rule:nonzero;fill:rgb(91.764706%,35.294118%,27.843137%);fill-opacity:1;" d="M 474.734375 43.480469 C 474.734375 44.882812 473.601562 46.015625 472.203125 46.015625 C 470.808594 46.015625 469.675781 44.882812 469.675781 43.480469 C 469.675781 42.082031 470.808594 40.949219 472.203125 40.949219 C 473.601562 40.949219 474.734375 42.082031 474.734375 43.480469 Z M 474.734375 43.480469 "/>
<path style="fill:none;stroke-width:2;stroke-linecap:round;stroke-linejoin:miter;stroke:rgb(0%,0%,0%);stroke-opacity:1;stroke-miterlimit:10;" d="M 550.898605 43.998504 C 550.898605 43.998504 551.899051 42.999169 552.899498 42.999169 C 553.899944 42.999169 554.900391 43.998504 554.900391 43.998504 " transform="matrix(0.843373,0,0,0.844311,0,0)"/>
<path style="fill:none;stroke-width:2;stroke-linecap:round;stroke-linejoin:miter;stroke:rgb(0%,0%,0%);stroke-opacity:1;stroke-miterlimit:10;" d="M 564.900223 43.998504 C 564.900223 43.998504 565.90067 42.999169 566.901116 42.999169 C 567.901562 42.999169 568.902009 43.998504 568.902009 43.998504 " transform="matrix(0.843373,0,0,0.844311,0,0)"/>
<path style="fill:none;stroke-width:2;stroke-linecap:round;stroke-linejoin:round;stroke:rgb(1.568627%,1.568627%,1.568627%);stroke-opacity:1;stroke-miterlimit:4;" d="M 574.900056 45.298565 C 577.901395 48.301197 578.901842 67.001718 578.901842 75.001025 L 578.901842 77.499363 " transform="matrix(0.843373,0,0,0.844311,0,0)"/>
<path style="fill:none;stroke-width:2;stroke-linecap:round;stroke-linejoin:round;stroke:rgb(1.568627%,1.568627%,1.568627%);stroke-opacity:1;stroke-miterlimit:4;" d="M 540.898772 77.499363 L 540.898772 75.001025 C 540.898772 67.001718 541.899219 48.301197 544.900558 45.298565 " transform="matrix(0.843373,0,0,0.844311,0,0)"/>
<path style="fill:none;stroke-width:2;stroke-linecap:round;stroke-linejoin:miter;stroke:rgb(1.568627%,1.568627%,1.568627%);stroke-opacity:1;stroke-miterlimit:10;" d="M 555.900837 32.001856 L 554.900391 33.001191 " transform="matrix(0.843373,0,0,0.844311,0,0)"/>
<path style="fill:none;stroke-width:2;stroke-linecap:round;stroke-linejoin:miter;stroke:rgb(1.568627%,1.568627%,1.568627%);stroke-opacity:1;stroke-miterlimit:10;" d="M 559.897991 30.997895 L 558.902176 33.001191 " transform="matrix(0.843373,0,0,0.844311,0,0)"/>
<path style="fill:none;stroke-width:2;stroke-linecap:round;stroke-linejoin:miter;stroke:rgb(1.568627%,1.568627%,1.568627%);stroke-opacity:1;stroke-miterlimit:10;" d="M 563.899777 32.001856 L 564.900223 33.001191 " transform="matrix(0.843373,0,0,0.844311,0,0)"/>
<path style="fill:none;stroke-width:2;stroke-linecap:butt;stroke-linejoin:miter;stroke:rgb(1.568627%,1.568627%,1.568627%);stroke-opacity:1;stroke-miterlimit:10;" d="M 562.89933 51.498144 C 562.89933 53.159076 561.556138 54.500776 559.897991 54.500776 C 558.244475 54.500776 556.901283 53.159076 556.901283 51.498144 C 556.901283 49.841838 558.244475 48.500139 559.897991 48.500139 C 561.556138 48.500139 562.89933 49.841838 562.89933 51.498144 Z M 562.89933 51.498144 " transform="matrix(0.843373,0,0,0.844311,0,0)"/>
<path style="fill:none;stroke-width:2;stroke-linecap:round;stroke-linejoin:round;stroke:rgb(1.568627%,1.568627%,1.568627%);stroke-opacity:1;stroke-miterlimit:10;" d="M 556.600223 51.599928 C 555.497879 51.299202 554.900391 50.998476 554.900391 50.998476 " transform="matrix(0.843373,0,0,0.844311,0,0)"/>
<path style="fill:none;stroke-width:2;stroke-linecap:round;stroke-linejoin:round;stroke:rgb(1.568627%,1.568627%,1.568627%);stroke-opacity:1;stroke-miterlimit:10;" d="M 564.900223 50.998476 C 564.900223 50.998476 564.4 51.299202 563.399554 51.599928 " transform="matrix(0.843373,0,0,0.844311,0,0)"/>
<path style="fill:none;stroke-width:2;stroke-linecap:round;stroke-linejoin:round;stroke:rgb(1.568627%,1.568627%,1.568627%);stroke-opacity:1;stroke-miterlimit:4;" d="M 567.901562 57.998449 C 575.900502 55.000443 574.900056 46.001801 574.900056 42.198775 C 574.900056 33.399075 568.698214 27.000554 559.897991 27.000554 C 551.097768 27.000554 544.900558 33.301917 544.900558 42.198775 C 544.900558 46.001801 543.900112 55.000443 552.000949 57.998449 C 555.701674 59.400294 564.200837 59.29851 567.901562 57.998449 Z M 567.901562 57.998449 " transform="matrix(0.843373,0,0,0.844311,0,0)"/>
<path style=" stroke:none;fill-rule:nonzero;fill:rgb(57.254902%,82.745098%,96.078431%);fill-opacity:1;" d="M 589.855469 46.269531 C 589.855469 46.269531 586.480469 47.113281 586.480469 48.800781 L 588.167969 50.488281 C 588.167969 50.488281 589.011719 53.867188 589.011719 55.554688 C 589.011719 57.246094 588.167969 64.84375 588.167969 64.84375 L 613.46875 64.84375 C 613.46875 64.84375 611.78125 52.179688 612.625 51.335938 C 613.46875 50.488281 615.15625 48.800781 615.15625 48.800781 C 615.15625 47.113281 611.78125 46.269531 611.78125 46.269531 "/>
<path style=" stroke:none;fill-rule:nonzero;fill:rgb(94.509804%,70.196078%,10.980392%);fill-opacity:1;" d="M 592.386719 46.269531 C 589.011719 46.269531 589.011719 41.203125 589.011719 35.292969 C 589.011719 29.382812 592.386719 23.472656 600.820312 23.472656 C 609.253906 23.472656 612.625 29.382812 612.625 35.292969 C 612.625 41.203125 612.625 46.269531 609.253906 46.269531 "/>
<path style=" stroke:none;fill-rule:nonzero;fill:rgb(98.823529%,91.764706%,16.862745%);fill-opacity:1;" d="M 591.542969 39.515625 C 591.542969 47.113281 595.675781 51.335938 600.820312 51.335938 C 605.796875 51.335938 610.179688 47.113281 610.179688 39.515625 C 610.179688 36.980469 609.335938 35.292969 609.335938 35.292969 C 606.808594 32.757812 603.433594 28.539062 603.433594 28.539062 C 600.058594 31.070312 597.53125 33.605469 592.46875 34.449219 C 592.46875 34.449219 591.542969 35.292969 591.542969 39.515625 Z M 591.542969 39.515625 "/>
<path style=" stroke:none;fill-rule:nonzero;fill:rgb(98.823529%,91.764706%,16.862745%);fill-opacity:1;" d="M 582.265625 64.84375 L 584.710938 54.457031 L 583.953125 53.445312 L 580.578125 50.910156 L 577.203125 45.847656 C 577.203125 45.847656 576.363281 45 577.203125 44.15625 C 578.046875 43.3125 578.890625 44.15625 578.890625 44.15625 L 582.265625 47.535156 C 583.109375 48.378906 583.953125 48.378906 586.480469 49.222656 C 589.011719 50.066406 589.097656 51.925781 589.011719 53.445312 C 588.421875 61.042969 588.167969 64.925781 588.167969 64.925781 "/>
<path style=" stroke:none;fill-rule:nonzero;fill:rgb(98.823529%,91.764706%,16.862745%);fill-opacity:1;" d="M 587.324219 49.5625 C 587.324219 49.5625 586.480469 47.113281 585.554688 44.578125 C 585.21875 43.566406 583.953125 43.734375 583.953125 44.410156 C 583.953125 44.917969 583.953125 47.535156 583.953125 47.535156 "/>
<path style=" stroke:none;fill-rule:nonzero;fill:rgb(98.823529%,91.764706%,16.862745%);fill-opacity:1;" d="M 614.3125 49.5625 C 614.3125 49.5625 615.15625 47.113281 616.085938 44.578125 C 616.421875 43.566406 617.6875 43.734375 617.6875 44.410156 C 617.6875 44.917969 617.6875 47.535156 617.6875 47.535156 "/>
<path style="fill:none;stroke-width:2;stroke-linecap:round;stroke-linejoin:round;stroke:rgb(1.568627%,1.568627%,1.568627%);stroke-opacity:1;stroke-miterlimit:4;" d="M 722.40106 54.801502 C 726.398214 54.801502 726.398214 48.800864 726.398214 41.800892 C 726.398214 34.80092 722.40106 27.800947 712.401228 27.800947 C 702.401395 27.800947 698.399609 34.80092 698.399609 41.800892 C 698.399609 48.800864 698.399609 54.801502 702.401395 54.801502 " transform="matrix(0.843373,0,0,0.844311,0,0)"/>
<path style=" stroke:none;fill-rule:nonzero;fill:rgb(1.568627%,1.568627%,1.568627%);fill-opacity:1;" d="M 605.796875 38.667969 C 605.796875 39.597656 605.035156 40.359375 604.109375 40.359375 C 603.179688 40.359375 602.421875 39.597656 602.421875 38.667969 C 602.421875 37.742188 603.179688 36.980469 604.109375 36.980469 C 605.035156 36.980469 605.796875 37.742188 605.796875 38.667969 "/>
<path style=" stroke:none;fill-rule:nonzero;fill:rgb(1.568627%,1.568627%,1.568627%);fill-opacity:1;" d="M 599.046875 38.667969 C 599.046875 39.597656 598.289062 40.359375 597.363281 40.359375 C 596.433594 40.359375 595.675781 39.597656 595.675781 38.667969 C 595.675781 37.742188 596.433594 36.980469 597.363281 36.980469 C 598.289062 36.980469 599.046875 37.742188 599.046875 38.667969 "/>
<path style="fill:none;stroke-width:2;stroke-linecap:butt;stroke-linejoin:round;stroke:rgb(1.568627%,1.568627%,1.568627%);stroke-opacity:1;stroke-miterlimit:4;" d="M 701.400949 46.802194 C 701.400949 55.800837 706.301283 60.802139 712.401228 60.802139 C 718.302009 60.802139 723.498772 55.800837 723.498772 46.802194 C 723.498772 43.799562 722.498326 41.800892 722.498326 41.800892 C 719.501618 38.79826 715.499833 33.801585 715.499833 33.801585 C 711.498047 36.79959 708.501339 39.802222 702.498661 40.801557 C 702.401395 40.801557 701.400949 41.800892 701.400949 46.802194 Z M 701.400949 46.802194 " transform="matrix(0.843373,0,0,0.844311,0,0)"/>
<path style="fill:none;stroke-width:2;stroke-linecap:round;stroke-linejoin:round;stroke:rgb(1.568627%,1.568627%,1.568627%);stroke-opacity:1;stroke-miterlimit:4;" d="M 710.502232 53.802166 C 712.401228 54.20005 714.402121 53.802166 714.402121 53.802166 " transform="matrix(0.843373,0,0,0.844311,0,0)"/>
<path style="fill:none;stroke-width:2;stroke-linecap:round;stroke-linejoin:round;stroke:rgb(0%,0%,0%);stroke-opacity:1;stroke-miterlimit:10;" d="M 690.40067 75.801418 L 693.300112 64.498753 L 692.401562 63.300477 L 688.399777 60.297845 L 684.397991 54.301834 C 684.397991 54.301834 683.402176 53.297872 684.397991 52.298537 C 685.398438 51.299202 686.398884 52.298537 686.398884 52.298537 L 690.40067 56.300504 C 691.401116 57.299839 692.401562 57.299839 695.39827 58.299174 C 698.399609 59.29851 698.501507 61.500748 698.399609 63.300477 C 697.700223 72.299119 697.399163 75.898576 697.399163 75.898576 " transform="matrix(0.843373,0,0,0.844311,0,0)"/>
<path style="fill:none;stroke-width:2;stroke-linecap:round;stroke-linejoin:round;stroke:rgb(0%,0%,0%);stroke-opacity:1;stroke-miterlimit:10;" d="M 696.398717 58.701684 C 696.398717 58.701684 695.39827 55.800837 694.300558 52.798205 C 693.902232 51.599928 692.401562 51.79887 692.401562 52.599263 C 692.401562 53.200715 692.401562 56.300504 692.401562 56.300504 " transform="matrix(0.843373,0,0,0.844311,0,0)"/>
<path style="fill:none;stroke-width:2;stroke-linecap:round;stroke-linejoin:round;stroke:rgb(0%,0%,0%);stroke-opacity:1;stroke-miterlimit:10;" d="M 728.399107 58.701684 C 728.399107 58.701684 729.399554 55.800837 730.501897 52.798205 C 730.900223 51.599928 732.400893 51.79887 732.400893 52.599263 C 732.400893 53.200715 732.400893 56.300504 732.400893 56.300504 " transform="matrix(0.843373,0,0,0.844311,0,0)"/>
<path style="fill:none;stroke-width:2;stroke-linecap:round;stroke-linejoin:round;stroke:rgb(0%,0%,0%);stroke-opacity:1;stroke-miterlimit:10;" d="M 699.400056 55.800837 L 702.401395 54.801502 " transform="matrix(0.843373,0,0,0.844311,0,0)"/>
<path style="fill:none;stroke-width:2;stroke-linecap:round;stroke-linejoin:round;stroke:rgb(1.568627%,1.568627%,1.568627%);stroke-opacity:1;stroke-miterlimit:4;" d="M 722.901283 54.801502 L 725.897991 55.800837 " transform="matrix(0.843373,0,0,0.844311,0,0)"/>
<path style=" stroke:none;fill-rule:nonzero;fill:rgb(98.823529%,91.764706%,17.254902%);fill-opacity:1;" d="M 221.132812 39.765625 C 221.132812 33.144531 216.867188 27.777344 211.601562 27.777344 C 206.339844 27.777344 202.074219 33.144531 202.074219 39.765625 C 202.074219 46.386719 206.339844 51.757812 211.601562 51.757812 C 216.867188 51.757812 221.132812 46.386719 221.132812 39.765625 Z M 221.132812 39.765625 "/>
<path style=" stroke:none;fill-rule:nonzero;fill:rgb(95.686275%,66.666667%,25.882353%);fill-opacity:1;" d="M 219.363281 32.421875 C 219.363281 32.421875 216.492188 32.253906 214.046875 33.179688 L 214.046875 33.265625 C 217.421875 36.558594 220.796875 35.882812 220.796875 35.882812 C 220.457031 34.617188 219.953125 33.433594 219.363281 32.421875 "/>
<path style=" stroke:none;fill-rule:nonzero;fill:rgb(95.686275%,66.666667%,25.882353%);fill-opacity:1;" d="M 203.84375 32.421875 C 203.253906 33.433594 202.832031 34.617188 202.492188 35.796875 L 202.492188 35.882812 C 202.492188 35.882812 205.867188 36.558594 209.242188 33.265625 L 209.242188 33.179688 C 206.796875 32.335938 203.84375 32.421875 203.84375 32.421875 "/>
<path style=" stroke:none;fill-rule:nonzero;fill:rgb(24.705882%,24.705882%,24.705882%);fill-opacity:1;" d="M 227.625 65.097656 C 227.625 65.097656 229.3125 53.277344 219.191406 53.277344 C 216.492188 55.050781 214.21875 56.316406 211.601562 56.316406 L 211.6875 56.316406 C 209.074219 56.316406 206.796875 55.050781 204.097656 53.277344 C 193.976562 53.277344 195.664062 65.097656 195.664062 65.097656 "/>
<path style=" stroke:none;fill-rule:nonzero;fill:rgb(0%,0.392157%,0%);fill-opacity:1;" d="M 216.746094 38.164062 C 216.746094 39.089844 215.988281 39.851562 215.058594 39.851562 C 214.132812 39.851562 213.375 39.089844 213.375 38.164062 C 213.375 37.234375 214.132812 36.472656 215.058594 36.472656 C 215.988281 36.472656 216.746094 37.234375 216.746094 38.164062 "/>
<path style=" stroke:none;fill-rule:nonzero;fill:rgb(0%,0.392157%,0%);fill-opacity:1;" d="M 210 38.164062 C 210 39.089844 209.242188 39.851562 208.3125 39.851562 C 207.386719 39.851562 206.625 39.089844 206.625 38.164062 C 206.625 37.234375 207.386719 36.472656 208.3125 36.472656 C 209.242188 36.472656 210 37.234375 210 38.164062 "/>
<path style=" stroke:none;fill-rule:nonzero;fill:rgb(0%,0.392157%,0%);fill-opacity:1;" d="M 211.6875 46.691406 C 210.675781 46.691406 209.746094 46.4375 208.820312 45.929688 C 208.398438 45.761719 208.230469 45.253906 208.480469 44.832031 C 208.652344 44.410156 209.15625 44.242188 209.578125 44.496094 C 211.011719 45.253906 212.445312 45.253906 213.878906 44.496094 C 214.300781 44.328125 214.808594 44.496094 214.976562 44.832031 C 215.144531 45.253906 214.976562 45.761719 214.636719 45.929688 C 213.625 46.4375 212.699219 46.691406 211.6875 46.691406 Z M 211.6875 46.691406 "/>
<path style="fill:none;stroke-width:2;stroke-linecap:butt;stroke-linejoin:miter;stroke:rgb(0%,0%,0%);stroke-opacity:1;stroke-miterlimit:10;" d="M 262.302232 46.598626 C 262.302232 38.756621 257.239788 32.39974 251.000893 32.39974 C 244.757366 32.39974 239.699554 38.756621 239.699554 46.598626 C 239.699554 54.440631 244.757366 60.802139 251.000893 60.802139 C 257.239788 60.802139 262.302232 54.440631 262.302232 46.598626 Z M 262.302232 46.598626 " transform="matrix(0.843373,0,0,0.844311,0,0)"/>
<path style=" stroke:none;fill-rule:nonzero;fill:rgb(24.705882%,24.705882%,24.705882%);fill-opacity:1;" d="M 219.445312 25.75 L 219.445312 32.507812 C 219.445312 32.507812 213.796875 32.253906 211.6875 34.703125 C 209.578125 32.253906 203.925781 32.507812 203.925781 32.507812 L 203.925781 25.835938 L 211.601562 26.597656 Z M 219.445312 25.75 "/>
<path style=" stroke:none;fill-rule:nonzero;fill:rgb(60.392157%,60.784314%,60%);fill-opacity:1;" d="M 199.375 25.246094 L 211.097656 23.132812 L 223.832031 25.246094 L 219.445312 25.75 L 211.601562 26.511719 L 203.925781 25.75 Z M 199.375 25.246094 "/>
<path style="fill:none;stroke-width:2;stroke-linecap:round;stroke-linejoin:round;stroke:rgb(0%,0%,0%);stroke-opacity:1;stroke-miterlimit:10;" d="M 236.401786 29.901402 L 241.797712 30.498227 L 250.898996 31.400404 L 260.199442 30.498227 L 265.400837 29.901402 " transform="matrix(0.843373,0,0,0.844311,0,0)"/>
<path style="fill:none;stroke-width:2;stroke-linecap:round;stroke-linejoin:round;stroke:rgb(0%,0%,0%);stroke-opacity:1;stroke-miterlimit:10;" d="M 241.797712 29.901402 L 241.797712 38.298593 C 241.797712 38.298593 248.499777 37.997867 251.000893 40.898715 " transform="matrix(0.843373,0,0,0.844311,0,0)"/>
<path style="fill:none;stroke-width:2;stroke-linecap:round;stroke-linejoin:round;stroke:rgb(0%,0%,0%);stroke-opacity:1;stroke-miterlimit:10;" d="M 260.199442 29.901402 L 260.199442 38.400377 C 260.199442 38.400377 253.502009 38.099651 251.000893 41.000499 " transform="matrix(0.843373,0,0,0.844311,0,0)"/>
<path style="fill:none;stroke-width:2;stroke-linecap:round;stroke-linejoin:round;stroke:rgb(0%,0%,0%);stroke-opacity:1;stroke-miterlimit:10;" d="M 265.400837 29.901402 L 250.301507 27.398438 L 236.401786 29.901402 " transform="matrix(0.843373,0,0,0.844311,0,0)"/>
<path style="fill:none;stroke-width:2;stroke-linecap:round;stroke-linejoin:round;stroke:rgb(0%,0%,0%);stroke-opacity:1;stroke-miterlimit:10;" d="M 236.401786 30.202128 L 236.401786 38.298593 " transform="matrix(0.843373,0,0,0.844311,0,0)"/>
<path style="fill:none;stroke-width:2;stroke-linecap:round;stroke-linejoin:round;stroke:rgb(0%,0%,0%);stroke-opacity:1;stroke-miterlimit:10;" d="M 236.401786 38.298593 L 234.400893 40.898715 " transform="matrix(0.843373,0,0,0.844311,0,0)"/>
<path style="fill:none;stroke-width:2;stroke-linecap:round;stroke-linejoin:round;stroke:rgb(0%,0%,0%);stroke-opacity:1;stroke-miterlimit:10;" d="M 236.401786 38.298593 L 236.401786 42.397717 " transform="matrix(0.843373,0,0,0.844311,0,0)"/>
<path style="fill:none;stroke-width:2;stroke-linecap:round;stroke-linejoin:round;stroke:rgb(0%,0%,0%);stroke-opacity:1;stroke-miterlimit:10;" d="M 261.899275 42.499501 C 261.899275 42.499501 257.902121 43.299895 253.900335 39.399712 " transform="matrix(0.843373,0,0,0.844311,0,0)"/>
<path style="fill:none;stroke-width:2;stroke-linecap:round;stroke-linejoin:round;stroke:rgb(0%,0%,0%);stroke-opacity:1;stroke-miterlimit:10;" d="M 240.199777 42.499501 C 240.199777 42.499501 244.201562 43.299895 248.198717 39.399712 " transform="matrix(0.843373,0,0,0.844311,0,0)"/>
<path style="fill:none;stroke-width:2;stroke-linecap:round;stroke-linejoin:miter;stroke:rgb(100%,100%,100%);stroke-opacity:1;stroke-miterlimit:10;" d="M 259.898382 65.100205 C 256.697879 67.200659 254.002232 68.699662 250.898996 68.699662 L 251.000893 68.699662 C 247.902288 68.699662 245.202009 67.200659 242.001507 65.100205 " transform="matrix(0.843373,0,0,0.844311,0,0)"/>
<path style="fill:none;stroke-width:2;stroke-linecap:round;stroke-linejoin:round;stroke:rgb(0%,0%,0%);stroke-opacity:1;stroke-miterlimit:10;" d="M 269.800949 76.102144 C 269.800949 76.102144 271.801842 63.101535 259.801116 63.101535 C 256.600614 65.201989 253.900335 66.700992 250.80173 66.700992 L 250.898996 66.700992 C 247.800391 66.700992 245.100112 65.201989 241.899609 63.101535 C 229.898884 63.101535 231.899777 76.102144 231.899777 76.102144 " transform="matrix(0.843373,0,0,0.844311,0,0)"/>
<path style=" stroke:none;fill-rule:nonzero;fill:rgb(98.823529%,91.764706%,16.862745%);fill-opacity:1;" d="M 33.230469 26.003906 C 33.230469 27.402344 32.097656 28.539062 30.699219 28.539062 C 29.300781 28.539062 28.167969 27.402344 28.167969 26.003906 C 28.167969 24.605469 29.300781 23.472656 30.699219 23.472656 C 32.097656 23.472656 33.230469 24.605469 33.230469 26.003906 Z M 33.230469 26.003906 "/>
<path style=" stroke:none;fill-rule:nonzero;fill:rgb(98.823529%,91.764706%,16.862745%);fill-opacity:1;" d="M 25.636719 27.609375 C 25.636719 29.464844 24.121094 30.984375 22.265625 30.984375 C 20.410156 30.984375 18.890625 29.464844 18.890625 27.609375 C 18.890625 25.75 20.410156 24.230469 22.265625 24.230469 C 24.121094 24.230469 25.636719 25.75 25.636719 27.609375 Z M 25.636719 27.609375 "/>
<path style=" stroke:none;fill-rule:nonzero;fill:rgb(98.823529%,91.764706%,16.862745%);fill-opacity:1;" d="M 39.132812 32.675781 L 46.722656 41.117188 L 46.722656 44.496094 L 41.664062 48.714844 L 37.445312 54.625 L 35.085938 64.757812 L 32.21875 64.757812 L 33.230469 52.09375 L 38.289062 42.804688 L 30.699219 35.375 C 30.699219 35.375 30.023438 34.449219 29.011719 34.449219 C 28 34.449219 26.652344 34.785156 24.796875 34.785156 C 23.445312 34.785156 20.492188 33.855469 18.21875 32.421875 C 18.21875 32.421875 16.867188 30.984375 18.132812 29.804688 C 19.398438 28.621094 18.132812 29.804688 18.132812 29.804688 C 18.132812 29.804688 19.820312 30.816406 21.085938 31.410156 C 22.519531 32.082031 25.976562 32.929688 29.265625 32 C 29.265625 32 34.746094 30.058594 36.265625 30.816406 C 37.78125 31.578125 39.132812 32.675781 39.132812 32.675781 Z M 39.132812 32.675781 "/>
<path style=" stroke:none;fill-rule:nonzero;fill:rgb(97.254902%,92.156863%,16.862745%);fill-opacity:1;" d="M 46.722656 43.652344 L 47.566406 52.9375 L 51.109375 63.070312 L 48.578125 63.070312 L 43.347656 53.78125 L 42.507812 48.714844 "/>
<path style=" stroke:none;fill-rule:nonzero;fill:rgb(98.823529%,91.764706%,16.862745%);fill-opacity:1;" d="M 19.230469 37.910156 L 14.84375 42.804688 L 18.21875 52.9375 L 17.542969 64.757812 L 14.675781 64.757812 L 14 53.78125 L 11.46875 48.714844 L 6.410156 44.496094 L 6.410156 41.117188 L 14 32.675781 C 14 32.675781 15.519531 30.140625 16.191406 30.058594 C 17.542969 29.886719 18.976562 29.636719 20.15625 30.140625 C 20.832031 30.394531 22.011719 32.253906 22.011719 34.277344 C 22.011719 34.785156 21.84375 35.375 21.589844 35.882812 C 21.589844 35.96875 24.121094 37.742188 25.21875 36.894531 C 26.734375 35.714844 28.253906 32.167969 29.265625 32.167969 C 30.445312 32.167969 28.421875 37.234375 26.734375 38.585938 C 24.035156 40.695312 20.324219 37.910156 19.902344 38.417969 "/>
<path style=" stroke:none;fill-rule:nonzero;fill:rgb(97.254902%,92.156863%,16.862745%);fill-opacity:1;" d="M 7.085938 45.339844 L 7.085938 53.78125 L 5.398438 63.070312 L 7.925781 63.070312 L 10.457031 54.625 L 11.300781 49.5625 "/>
<path style="fill:none;stroke-width:2;stroke-linecap:butt;stroke-linejoin:miter;stroke:rgb(0%,0%,0%);stroke-opacity:1;stroke-miterlimit:10;" d="M 39.401842 30.798953 C 39.401842 32.455258 38.05865 33.801585 36.400502 33.801585 C 34.742355 33.801585 33.399163 32.455258 33.399163 30.798953 C 33.399163 29.142647 34.742355 27.800947 36.400502 27.800947 C 38.05865 27.800947 39.401842 29.142647 39.401842 30.798953 Z M 39.401842 30.798953 " transform="matrix(0.843373,0,0,0.844311,0,0)"/>
<path style="fill:none;stroke-width:2;stroke-linecap:round;stroke-linejoin:round;stroke:rgb(0%,0%,0%);stroke-opacity:1;stroke-miterlimit:10;" d="M 37.400949 41.699108 L 44.098382 49.198748 C 44.797768 49.999141 45.001562 51.498144 44.501339 52.502105 L 40.402288 60.001745 C 39.902065 61.00108 39.401842 62.699025 39.299944 63.69836 L 38.401395 74.700299 C 38.299498 75.801418 38.998884 76.698969 39.902065 76.698969 C 40.800614 76.698969 41.80106 75.801418 42.102121 74.802083 L 44.001116 66.700992 C 44.302176 65.599873 45.001562 63.999086 45.599051 63.101535 L 48.29933 59.400294 C 48.901451 58.498116 50.198326 57.198055 50.999609 56.499446 L 53.899051 54.098266 C 54.700335 53.399656 55.399721 51.900654 55.399721 50.799535 C 55.399721 49.698415 54.802232 48.102255 54.098214 47.301862 L 46.400335 38.79826 " transform="matrix(0.843373,0,0,0.844311,0,0)"/>
<path style="fill:none;stroke-width:2;stroke-linecap:round;stroke-linejoin:round;stroke:rgb(0%,0%,0%);stroke-opacity:1;stroke-miterlimit:10;" d="M 55.399721 51.701712 L 56.201004 60.700355 C 56.29827 61.801474 56.701228 63.499418 57.002288 64.600537 L 59.90173 72.798787 C 60.300056 73.798122 59.90173 74.700299 59.100446 74.700299 C 58.299163 74.700299 57.201451 73.899906 56.59933 72.997728 L 52.398382 65.498088 C 51.898158 64.498753 51.30067 62.897967 51.101507 61.801474 L 50.402121 57.799507 " transform="matrix(0.843373,0,0,0.844311,0,0)"/>
<path style="fill:none;stroke-width:2;stroke-linecap:round;stroke-linejoin:round;stroke:rgb(0%,0%,0%);stroke-opacity:1;stroke-miterlimit:10;" d="M 46.400335 38.701103 C 44.399442 36.697806 42.102121 36.100981 40.402288 36.697806 C 37.400949 37.701768 32.398717 38.701103 30.397824 38.701103 C 28.401563 38.701103 25.400223 37.701768 22.398884 35.698471 " transform="matrix(0.843373,0,0,0.844311,0,0)"/>
<path style="fill:none;stroke-width:2;stroke-linecap:round;stroke-linejoin:round;stroke:rgb(0%,0%,0%);stroke-opacity:1;stroke-miterlimit:10;" d="M 22.801842 44.900682 L 18.901953 49.300532 C 18.197935 50.100925 17.901507 51.599928 18.197935 52.701047 L 20.898214 60.899296 C 21.199275 61.898631 21.500335 63.69836 21.398438 64.799479 L 20.898214 74.802083 C 20.800949 75.898576 19.999665 76.800754 19.101116 76.800754 C 18.197935 76.800754 17.299386 75.898576 17.299386 74.802083 L 16.701897 65.798814 C 16.6 64.697695 16.201674 62.999751 15.701451 62.000416 L 14.501842 59.599235 C 14.001618 58.5999 12.899275 57.198055 12.097991 56.499446 L 9.101283 54.001108 C 8.3 53.297872 7.600614 51.79887 7.600614 50.69775 C 7.600614 49.601258 8.198103 48.000471 8.902121 47.200078 L 16.6 38.701103 " transform="matrix(0.843373,0,0,0.844311,0,0)"/>
<path style="fill:none;stroke-width:2;stroke-linecap:round;stroke-linejoin:round;stroke:rgb(0%,0%,0%);stroke-opacity:1;stroke-miterlimit:10;" d="M 8.401897 53.700382 L 8.401897 61.69969 C 8.401897 62.800809 8.198103 64.600537 7.99894 65.701657 L 6.702065 72.798787 C 6.49827 73.899906 6.998493 74.802083 7.799777 74.802083 C 8.60106 74.802083 9.601507 73.899906 9.897935 72.900571 L 11.801562 66.700992 C 12.097991 65.599873 12.500949 63.901928 12.700112 62.800809 L 13.399498 58.798842 " transform="matrix(0.843373,0,0,0.844311,0,0)"/>
<path style="fill:none;stroke-width:2;stroke-linecap:round;stroke-linejoin:round;stroke:rgb(0%,0%,0%);stroke-opacity:1;stroke-miterlimit:10;" d="M 19.499442 36.498864 C 18.698158 36.79959 17.697712 37.498199 16.6 38.701103 " transform="matrix(0.843373,0,0,0.844311,0,0)"/>
<path style="fill:none;stroke-width:2;stroke-linecap:round;stroke-linejoin:miter;stroke:rgb(0%,0%,0%);stroke-opacity:1;stroke-miterlimit:10;" d="M 21.602232 39.700438 C 21.602232 39.700438 26.497935 43.697778 28.498828 43.697778 C 29.499275 43.697778 31.500167 43.697778 32.500614 38.701103 " transform="matrix(0.843373,0,0,0.844311,0,0)"/>
<path style="fill:none;stroke-width:2;stroke-linecap:round;stroke-linejoin:miter;stroke:rgb(0%,0%,0%);stroke-opacity:1;stroke-miterlimit:10;" d="M 28.498828 34.898077 C 29.100949 34.39841 29.402009 33.598016 29.402009 32.700465 C 29.402009 30.997895 28.100502 29.697834 26.40067 29.697834 C 24.700837 29.697834 23.39933 30.997895 23.39933 32.700465 " transform="matrix(0.843373,0,0,0.844311,0,0)"/>
<path style=" stroke:none;fill-rule:nonzero;fill:rgb(98.823529%,91.764706%,16.862745%);fill-opacity:1;" d="M 408.78125 23.808594 C 408.78125 25.207031 407.648438 26.34375 406.253906 26.34375 C 404.855469 26.34375 403.722656 25.207031 403.722656 23.808594 C 403.722656 22.410156 404.855469 21.277344 406.253906 21.277344 C 407.648438 21.277344 408.78125 22.410156 408.78125 23.808594 Z M 408.78125 23.808594 "/>
<path style=" stroke:none;fill-rule:nonzero;fill:rgb(98.823529%,91.764706%,16.862745%);fill-opacity:1;" d="M 406.253906 32.167969 L 408.023438 29.636719 L 411.230469 29.71875 L 416.457031 41.707031 L 414.769531 44.832031 L 412.578125 46.945312 L 409.964844 56.398438 L 407.097656 62.058594 L 405.074219 60.367188 L 405.832031 54.375 L 402.625 48.546875 L 402.710938 45.675781 L 409.542969 41.457031 L 407.097656 35.125 "/>
<path style="fill:none;stroke-width:2;stroke-linecap:butt;stroke-linejoin:miter;stroke:rgb(0%,0%,0%);stroke-opacity:1;stroke-miterlimit:10;" d="M 484.697768 28.198831 C 484.697768 29.855136 483.354576 31.201463 481.70106 31.201463 C 480.042913 31.201463 478.699721 29.855136 478.699721 28.198831 C 478.699721 26.542525 480.042913 25.200826 481.70106 25.200826 C 483.354576 25.200826 484.697768 26.542525 484.697768 28.198831 Z M 484.697768 28.198831 " transform="matrix(0.843373,0,0,0.844311,0,0)"/>
<path style="fill:none;stroke-width:2;stroke-linecap:round;stroke-linejoin:round;stroke:rgb(0%,0%,0%);stroke-opacity:1;stroke-miterlimit:10;" d="M 473.702121 45.201407 L 478.000335 42.30056 C 478.898884 41.699108 480.200391 40.399047 480.797879 39.501496 L 482.701507 36.79959 C 483.298996 35.902039 484.697768 35.198803 485.800112 35.198803 C 486.897824 35.198803 488.102065 36.100981 488.500391 37.100316 L 493.099665 47.597961 C 493.497991 48.601923 493.497991 50.198083 492.997768 51.202045 L 492.900502 51.400986 C 492.400279 52.400321 491.098772 53.501441 490.098326 53.899324 L 484.600502 56.300504 C 483.600056 56.698388 483.099833 57.901291 483.498158 58.900626 L 486.101172 65.299147 C 486.499498 66.298482 486.198438 67.598543 485.401786 68.09821 C 484.600502 68.699662 483.498158 68.301779 482.90067 67.297817 L 478.500558 59.099568 C 478.000335 58.100233 477.602009 56.60123 477.602009 55.699053 C 477.602009 54.801502 478.398661 53.598598 479.301842 53.001773 L 483.901116 50.100925 C 484.799665 49.499474 485.401786 48.199413 485.100725 47.098293 L 483.600056 41.000499 " transform="matrix(0.843373,0,0,0.844311,0,0)"/>
<path style="fill:none;stroke-width:2;stroke-linecap:butt;stroke-linejoin:miter;stroke:rgb(0%,0%,0%);stroke-opacity:1;stroke-miterlimit:10;" d="M 477.602009 69.102172 C 477.602009 74.732685 473.035156 79.299091 467.398382 79.299091 C 461.766239 79.299091 457.199386 74.732685 457.199386 69.102172 C 457.199386 63.467032 461.766239 58.900626 467.398382 58.900626 C 473.035156 58.900626 477.602009 63.467032 477.602009 69.102172 Z M 477.602009 69.102172 " transform="matrix(0.843373,0,0,0.844311,0,0)"/>
<path style="fill:none;stroke-width:2;stroke-linecap:butt;stroke-linejoin:miter;stroke:rgb(0%,0%,0%);stroke-opacity:1;stroke-miterlimit:10;" d="M 509.597768 69.102172 C 509.597768 74.732685 505.035547 79.299091 499.398772 79.299091 C 493.766629 79.299091 489.199777 74.732685 489.199777 69.102172 C 489.199777 63.467032 493.766629 58.900626 499.398772 58.900626 C 505.035547 58.900626 509.597768 63.467032 509.597768 69.102172 Z M 509.597768 69.102172 " transform="matrix(0.843373,0,0,0.844311,0,0)"/>
<path style="fill:none;stroke-width:2;stroke-linecap:round;stroke-linejoin:round;stroke:rgb(0%,0%,0%);stroke-opacity:1;stroke-miterlimit:10;" d="M 467.602176 69.102172 L 469.598437 45.099623 L 473.299163 45.099623 " transform="matrix(0.843373,0,0,0.844311,0,0)"/>
<path style="fill:none;stroke-width:2;stroke-linecap:butt;stroke-linejoin:miter;stroke:rgb(0%,0%,0%);stroke-opacity:1;stroke-miterlimit:10;" d="M 485.299888 68.09821 L 484.299442 71.198 C 483.998382 72.299119 482.90067 73.099512 481.900223 73.099512 C 480.899777 73.099512 480.200391 72.201961 480.302288 71.100842 L 481.200837 64.401596 " transform="matrix(0.843373,0,0,0.844311,0,0)"/>
<path style="fill:none;stroke-width:2;stroke-linecap:butt;stroke-linejoin:miter;stroke:rgb(0%,0%,0%);stroke-opacity:1;stroke-miterlimit:10;" d="M 489.7 54.001108 L 486.101172 65.599873 " transform="matrix(0.843373,0,0,0.844311,0,0)"/>
<path style=" stroke:none;fill-rule:nonzero;fill:rgb(98.823529%,91.764706%,16.862745%);fill-opacity:1;" d="M 526.097656 24.316406 C 526.097656 25.714844 524.964844 26.847656 523.566406 26.847656 C 522.167969 26.847656 521.035156 25.714844 521.035156 24.316406 C 521.035156 22.917969 522.167969 21.785156 523.566406 21.785156 C 524.964844 21.785156 526.097656 22.917969 526.097656 24.316406 Z M 526.097656 24.316406 "/>
<path style=" stroke:none;fill-rule:nonzero;fill:rgb(98.823529%,91.764706%,16.862745%);fill-opacity:1;" d="M 523.3125 32.335938 C 523.3125 32.335938 523.566406 35.460938 526.097656 39.9375 C 526.265625 40.273438 526.941406 41.371094 526.941406 41.371094 L 521.878906 51.25 L 521.710938 66.449219 L 524.578125 66.449219 L 526.097656 53.78125 L 531.15625 48.714844 L 536.21875 44.496094 L 536.21875 41.117188 L 531.15625 31.832031 "/>
<path style=" stroke:none;fill-rule:nonzero;fill:rgb(98.823529%,91.764706%,16.862745%);fill-opacity:1;" d="M 536.21875 43.652344 L 542.121094 52.09375 L 550.722656 57.160156 L 549.878906 59.691406 L 539.589844 55.472656 L 532 48.714844 "/>
<path style=" stroke:none;fill-rule:nonzero;fill:rgb(98.823529%,91.764706%,16.862745%);fill-opacity:1;" d="M 531.15625 31.832031 C 529.46875 28.453125 527.445312 28.285156 526.097656 28.792969 C 524.15625 29.550781 523.652344 31.832031 524.410156 33.519531 "/>
<path style="fill:none;stroke-width:2;stroke-linecap:butt;stroke-linejoin:miter;stroke:rgb(0%,0%,0%);stroke-opacity:1;stroke-miterlimit:10;" d="M 623.801507 28.800283 C 623.801507 30.456588 622.458315 31.798288 620.800167 31.798288 C 619.14202 31.798288 617.798828 30.456588 617.798828 28.800283 C 617.798828 27.143977 619.14202 25.802277 620.800167 25.802277 C 622.458315 25.802277 623.801507 27.143977 623.801507 28.800283 Z M 623.801507 28.800283 " transform="matrix(0.843373,0,0,0.844311,0,0)"/>
<path style="fill:none;stroke-width:2;stroke-linecap:round;stroke-linejoin:round;stroke:rgb(0%,0%,0%);stroke-opacity:1;stroke-miterlimit:10;" d="M 635.802232 51.701712 L 641.698382 60.098903 C 642.300502 61.00108 643.602009 62.199357 644.597824 62.800809 L 651.299888 66.798149 C 652.198437 67.399601 652.800558 68.50072 652.499498 69.301114 C 652.198437 70.101507 651.197991 70.499391 650.202176 69.999723 L 641.698382 66.50205 C 640.697935 66.09954 639.201897 65.100205 638.400614 64.401596 L 630.901897 57.697723 " transform="matrix(0.843373,0,0,0.844311,0,0)"/>
<path style="fill:none;stroke-width:2;stroke-linecap:round;stroke-linejoin:round;stroke:rgb(0%,0%,0%);stroke-opacity:1;stroke-miterlimit:10;" d="M 624.598158 47.098293 C 624.598158 47.098293 624.899219 47.699745 625.200279 48.398354 C 625.501339 49.10159 625.302176 50.498809 624.700056 51.400986 L 619.799721 58.997784 C 619.202232 59.899961 618.702009 61.597906 618.702009 62.699025 L 618.498214 76.698969 C 618.498214 77.800089 619.202232 78.702266 620.198047 78.702266 C 621.198493 78.702266 621.999777 77.800089 622.19894 76.698969 L 623.500446 65.701657 C 623.597712 64.600537 624.398996 63.101535 625.200279 62.301141 L 628.400781 59.099568 C 629.202065 58.299174 630.49894 57.100898 631.402121 56.402288 L 634.301563 54.001108 C 635.098214 53.297872 635.802232 51.79887 635.802232 50.69775 C 635.802232 49.601258 635.399275 47.898687 634.801786 46.899352 L 629.799554 37.701768 " transform="matrix(0.843373,0,0,0.844311,0,0)"/>
<path style="fill:none;stroke-width:2;stroke-linecap:round;stroke-linejoin:round;stroke:rgb(0%,0%,0%);stroke-opacity:1;stroke-miterlimit:10;" d="M 629.799554 37.701768 C 627.798661 33.699801 625.399442 33.500859 623.801507 34.102311 C 622.19894 34.699136 621.402288 36.299922 621.402288 37.900709 " transform="matrix(0.843373,0,0,0.844311,0,0)"/>
<path style="fill:none;stroke-width:2;stroke-linecap:round;stroke-linejoin:round;stroke:rgb(0%,0%,0%);stroke-opacity:1;stroke-miterlimit:10;" d="M 624.801953 37.701768 L 623.301283 42.800227 C 623.000223 43.901346 621.897879 44.70174 620.800167 44.70174 L 613.89894 44.70174 " transform="matrix(0.843373,0,0,0.844311,0,0)"/>
<path style=" stroke:none;fill-rule:nonzero;fill:rgb(94.509804%,70.196078%,10.980392%);fill-opacity:1;" d="M 107.53125 53.613281 C 108.542969 53.023438 110.144531 46.605469 107.867188 42.636719 C 107.53125 41.878906 107.191406 41.203125 106.855469 40.441406 C 105.589844 37.65625 105.167969 36.644531 104.914062 31.578125 C 104.914062 28.453125 101.710938 25.835938 98.589844 25.582031 C 98.335938 25.582031 98.167969 25.5 98 25.328125 C 97.914062 25.246094 95.976562 23.050781 91.925781 23.050781 C 86.699219 23.050781 82.3125 25.921875 81.21875 29.972656 C 80.796875 31.660156 80.625 33.433594 80.710938 35.207031 C 80.878906 36.894531 80.625 38.667969 80.035156 40.273438 C 79.867188 40.949219 79.53125 41.539062 79.109375 42.046875 C 75.902344 45.761719 78.265625 54.121094 78.097656 53.867188 C 86.613281 61.550781 100.109375 60.539062 107.53125 53.613281 Z M 107.53125 53.613281 "/>
<path style=" stroke:none;fill-rule:nonzero;fill:rgb(98.823529%,91.764706%,16.862745%);fill-opacity:1;" d="M 84.421875 38.667969 L 84.421875 39.515625 C 84.421875 45.929688 88.300781 50.996094 93.277344 50.996094 C 98.253906 50.996094 102.132812 45.929688 102.132812 39.515625 C 102.132812 35.546875 100.613281 33.179688 97.664062 30.140625 C 95.300781 32 92.769531 33.605469 90.074219 35.039062 C 87.796875 36.222656 84.757812 37.992188 84.421875 38.667969 Z M 84.421875 38.667969 "/>
<path style=" stroke:none;fill-rule:nonzero;fill:rgb(57.254902%,82.745098%,96.078431%);fill-opacity:1;" d="M 109.636719 65.265625 C 109.132812 65.265625 108.796875 64.925781 108.796875 64.421875 L 108.796875 61.886719 C 108.796875 58.089844 105 54.457031 101.457031 54.289062 C 96.230469 58.511719 90.914062 58.511719 85.6875 54.289062 C 82.144531 54.457031 77.507812 58.089844 77.507812 61.886719 L 77.507812 64.421875 C 77.507812 64.925781 77.167969 65.265625 76.664062 65.265625 "/>
<path style="fill:none;stroke-width:2;stroke-linecap:round;stroke-linejoin:round;stroke:rgb(1.568627%,1.568627%,1.568627%);stroke-opacity:1;stroke-miterlimit:4;" d="M 93.300893 62.999751 C 89.600167 57.100898 92.698772 52.899989 94.500502 48.301197 C 96.098438 44.100288 94.301339 41.800892 95.802009 36.299922 C 97.298047 30.798953 103.101562 27.30128 109.497935 27.30128 C 114.898493 27.30128 117.501507 30.299285 117.501507 30.299285 C 121.697824 30.701795 124.898326 34.199468 124.898326 38.298593 C 125.301283 45.502133 125.898772 45.502133 128.297991 51.10026 C 129.997824 55.000443 129.400335 59.400294 126.899219 62.800809 " transform="matrix(0.843373,0,0,0.844311,0,0)"/>
<path style="fill:none;stroke-width:2;stroke-linecap:round;stroke-linejoin:round;stroke:rgb(1.568627%,1.568627%,1.568627%);stroke-opacity:1;stroke-miterlimit:4;" d="M 91.499163 76.199302 L 91.499163 73.201297 C 91.499163 68.199994 96.501395 64.198027 101.498996 64.198027 C 107.501674 69.19933 113.499721 69.19933 119.497768 64.198027 C 124.5 64.198027 129.502232 68.199994 129.502232 73.201297 L 129.502232 76.199302 " transform="matrix(0.843373,0,0,0.844311,0,0)"/>
<path style=" stroke:none;fill-rule:nonzero;fill:rgb(1.568627%,1.568627%,1.568627%);fill-opacity:1;" d="M 98.253906 39.007812 C 98.253906 39.9375 97.492188 40.695312 96.566406 40.695312 C 95.636719 40.695312 94.878906 39.9375 94.878906 39.007812 C 94.878906 38.078125 95.636719 37.320312 96.566406 37.320312 C 97.492188 37.320312 98.253906 38.078125 98.253906 39.007812 "/>
<path style=" stroke:none;fill-rule:nonzero;fill:rgb(1.568627%,1.568627%,1.568627%);fill-opacity:1;" d="M 91.507812 39.007812 C 91.507812 39.9375 90.746094 40.695312 89.820312 40.695312 C 88.890625 40.695312 88.132812 39.9375 88.132812 39.007812 C 88.132812 38.078125 88.890625 37.320312 89.820312 37.320312 C 90.746094 37.320312 91.507812 38.078125 91.507812 39.007812 "/>
<path style="fill:none;stroke-width:2;stroke-linecap:butt;stroke-linejoin:round;stroke:rgb(1.568627%,1.568627%,1.568627%);stroke-opacity:1;stroke-miterlimit:4;" d="M 99.498103 47.200078 C 99.498103 55.199385 104.500335 61.200022 110.498382 61.200022 C 116.50106 61.200022 121.498661 55.199385 121.498661 47.200078 C 121.498661 42.198775 119.497768 39.20077 115.500614 35.198803 C 111.498828 39.20077 99.498103 44.202072 99.498103 46.200742 Z M 99.498103 47.200078 " transform="matrix(0.843373,0,0,0.844311,0,0)"/>
<path style="fill:none;stroke-width:2;stroke-linecap:round;stroke-linejoin:round;stroke:rgb(1.568627%,1.568627%,1.568627%);stroke-opacity:1;stroke-miterlimit:4;" d="M 107.501674 54.500776 C 109.40067 55.500111 111.600725 55.500111 113.499721 54.500776 " transform="matrix(0.843373,0,0,0.844311,0,0)"/>
<path style=" stroke:none;fill-rule:nonzero;fill:rgb(98.823529%,91.764706%,16.862745%);fill-opacity:1;" d="M 619.457031 64.84375 L 617.011719 54.457031 L 617.769531 53.445312 L 621.144531 50.910156 L 624.519531 45.847656 L 624.433594 46.015625 L 624.519531 44.15625 C 623.675781 43.3125 622.832031 44.15625 622.832031 44.15625 L 619.457031 47.535156 C 618.613281 48.378906 617.769531 48.378906 615.242188 49.222656 C 612.710938 50.066406 612.625 51.925781 612.710938 53.445312 C 613.300781 61.042969 613.554688 64.925781 613.554688 64.925781 "/>
<path style="fill:none;stroke-width:2;stroke-linecap:round;stroke-linejoin:round;stroke:rgb(0%,0%,0%);stroke-opacity:1;stroke-miterlimit:10;" d="M 727.500558 75.801418 C 727.500558 75.801418 727.199498 72.201961 726.500112 63.198692 C 726.398214 61.398964 726.500112 59.201352 729.501451 58.202017 C 732.498158 57.198055 733.498605 57.198055 734.499051 56.19872 L 738.500837 52.20138 C 738.500837 52.20138 739.501283 51.202045 740.50173 52.20138 C 741.298382 53.001773 740.700893 53.899324 740.50173 54.20005 L 736.499944 60.200687 L 732.498158 63.198692 L 731.599609 64.401596 L 734.499051 75.699634 " transform="matrix(0.843373,0,0,0.844311,0,0)"/>
</g>
</svg>
