<?xml version="1.0" encoding="UTF-8"?>
<svg xmlns="http://www.w3.org/2000/svg" xmlns:xlink="http://www.w3.org/1999/xlink" width="630px" height="px" viewBox="0 0 628 138" version="1.1">
<g id="surface1">
<path style=" stroke:none;fill-rule:nonzero;fill:rgb(0%,0%,0%);fill-opacity:1;" d="M 118.070312 25.9375 L 106.582031 25.9375 C 105.050781 25.9375 103.644531 24.660156 103.644531 23 L 103.644531 2.9375 C 103.644531 1.40625 104.921875 0 106.582031 0 L 118.070312 0 C 119.601562 0 121.003906 1.277344 121.003906 2.9375 C 121.003906 4.601562 119.726562 5.878906 118.070312 5.878906 L 109.390625 5.878906 L 109.390625 20.316406 L 118.070312 20.316406 C 119.601562 20.316406 121.003906 21.59375 121.003906 23.253906 C 121.003906 24.917969 119.601562 25.9375 118.070312 25.9375 Z M 118.070312 25.9375 "/>
<path style=" stroke:none;fill-rule:nonzero;fill:rgb(0%,0%,0%);fill-opacity:1;" d="M 115.132812 15.84375 L 106.453125 15.84375 C 104.921875 15.84375 103.519531 14.566406 103.519531 12.90625 C 103.519531 11.246094 104.792969 9.964844 106.453125 9.964844 L 115.132812 9.964844 C 116.664062 9.964844 118.070312 11.246094 118.070312 12.90625 C 118.070312 14.566406 116.792969 15.84375 115.132812 15.84375 Z M 115.132812 15.84375 "/>
<path style=" stroke:none;fill-rule:nonzero;fill:rgb(0%,0%,0%);fill-opacity:1;" d="M 20.167969 25.9375 C 19.019531 25.9375 17.996094 25.300781 17.488281 24.148438 L 11.488281 10.222656 L 5.488281 24.277344 C 4.851562 25.683594 3.191406 26.449219 1.660156 25.8125 C 0.253906 25.171875 -0.511719 23.511719 0.128906 21.976562 L 8.933594 1.789062 C 9.316406 0.765625 10.339844 0 11.488281 0 C 12.636719 0 13.65625 0.640625 14.167969 1.789062 L 22.847656 21.976562 C 23.484375 23.382812 22.847656 25.171875 21.316406 25.8125 C 20.933594 25.9375 20.550781 25.9375 20.167969 25.9375 Z M 20.167969 25.9375 "/>
<path style=" stroke:none;fill-rule:nonzero;fill:rgb(0%,0%,0%);fill-opacity:1;" d="M 17.230469 21.082031 L 5.742188 21.082031 C 4.210938 21.082031 2.808594 19.804688 2.808594 18.144531 C 2.808594 16.609375 4.085938 15.207031 5.742188 15.207031 L 17.230469 15.207031 C 18.761719 15.207031 20.167969 16.484375 20.167969 18.144531 C 20.167969 19.804688 18.890625 21.082031 17.230469 21.082031 Z M 17.230469 21.082031 "/>
<path style=" stroke:none;fill-rule:nonzero;fill:rgb(0%,0%,0%);fill-opacity:1;" d="M 129.558594 25.9375 C 128.023438 25.9375 126.621094 24.660156 126.621094 23 L 126.621094 2.9375 C 126.621094 1.40625 127.898438 0 129.558594 0 L 141.042969 0 C 142.578125 0 143.980469 1.277344 143.980469 2.9375 C 143.980469 4.601562 142.703125 5.878906 141.042969 5.878906 L 132.363281 5.878906 L 132.363281 10.222656 L 138.109375 10.222656 C 139.640625 10.222656 141.042969 11.5 141.042969 13.160156 C 141.042969 14.820312 139.769531 16.101562 138.109375 16.101562 L 132.363281 16.101562 L 132.363281 23.253906 C 132.492188 24.660156 131.214844 25.9375 129.558594 25.9375 Z M 129.558594 25.9375 "/>
<path style=" stroke:none;fill-rule:nonzero;fill:rgb(0%,0%,0%);fill-opacity:1;" d="M 175.636719 25.9375 C 174.105469 25.9375 172.699219 24.660156 172.699219 23 L 172.699219 2.9375 C 172.699219 1.40625 173.976562 0 175.636719 0 C 177.296875 0 178.570312 1.277344 178.570312 2.9375 L 178.570312 23.128906 C 178.570312 24.660156 177.296875 25.9375 175.636719 25.9375 Z M 175.636719 25.9375 "/>
<path style=" stroke:none;fill-rule:nonzero;fill:rgb(0%,0%,0%);fill-opacity:1;" d="M 187.125 25.9375 C 185.59375 25.9375 184.1875 24.660156 184.1875 23 L 184.1875 2.9375 C 184.1875 1.40625 185.464844 0 187.125 0 C 188.78125 0 190.058594 1.277344 190.058594 2.9375 L 190.058594 23.128906 C 190.058594 24.660156 188.78125 25.9375 187.125 25.9375 Z M 187.125 25.9375 "/>
<path style=" stroke:none;fill-rule:nonzero;fill:rgb(0%,0%,0%);fill-opacity:1;" d="M 187.125 15.84375 L 175.636719 15.84375 C 174.105469 15.84375 172.699219 14.566406 172.699219 12.90625 C 172.699219 11.246094 173.976562 9.964844 175.636719 9.964844 L 187.125 9.964844 C 188.65625 9.964844 190.058594 11.246094 190.058594 12.90625 C 190.058594 14.566406 188.78125 15.84375 187.125 15.84375 Z M 187.125 15.84375 "/>
<path style=" stroke:none;fill-rule:nonzero;fill:rgb(0%,0%,0%);fill-opacity:1;" d="M 201.546875 25.9375 C 200.015625 25.9375 198.613281 24.660156 198.613281 23 L 198.613281 2.9375 C 198.613281 1.40625 199.886719 0 201.546875 0 C 203.078125 0 204.484375 1.277344 204.484375 2.9375 L 204.484375 23.128906 C 204.484375 24.660156 203.207031 25.9375 201.546875 25.9375 Z M 201.546875 25.9375 "/>
<path style=" stroke:none;fill-rule:nonzero;fill:rgb(0%,0%,0%);fill-opacity:1;" d="M 328.296875 25.9375 C 327.402344 25.9375 326.507812 25.554688 326 24.789062 L 316.808594 11.882812 L 316.808594 23.128906 C 316.808594 24.660156 315.53125 26.066406 313.871094 26.066406 C 312.214844 26.066406 310.9375 24.789062 310.9375 23.128906 L 310.9375 2.9375 C 310.9375 1.660156 311.703125 0.640625 312.980469 0.253906 C 314.128906 -0.128906 315.53125 0.253906 316.167969 1.277344 L 325.359375 14.183594 L 325.359375 2.9375 C 325.359375 1.40625 326.636719 0 328.296875 0 C 329.828125 0 331.230469 1.277344 331.230469 2.9375 L 331.230469 23.128906 C 331.230469 24.40625 330.464844 25.429688 329.1875 25.8125 C 328.804688 25.9375 328.550781 25.9375 328.296875 25.9375 Z M 328.296875 25.9375 "/>
<path style=" stroke:none;fill-rule:nonzero;fill:rgb(0%,0%,0%);fill-opacity:1;" d="M 236.136719 25.9375 C 234.605469 25.9375 233.203125 24.660156 233.203125 23 L 233.203125 2.9375 C 233.203125 1.40625 234.480469 0 236.136719 0 C 237.796875 0 239.074219 1.277344 239.074219 2.9375 L 239.074219 23.128906 C 238.945312 24.660156 237.667969 25.9375 236.136719 25.9375 Z M 236.136719 25.9375 "/>
<path style=" stroke:none;fill-rule:nonzero;fill:rgb(0%,0%,0%);fill-opacity:1;" d="M 236.136719 18.910156 C 235.5 18.910156 234.734375 18.65625 234.222656 18.144531 C 233.074219 17.121094 232.945312 15.332031 233.96875 14.054688 L 245.457031 1.023438 C 246.476562 -0.128906 248.265625 -0.253906 249.539062 0.765625 C 250.6875 1.789062 250.816406 3.578125 249.796875 4.855469 L 238.308594 17.890625 C 237.667969 18.527344 236.902344 18.910156 236.136719 18.910156 Z M 236.136719 18.910156 "/>
<path style=" stroke:none;fill-rule:nonzero;fill:rgb(0%,0%,0%);fill-opacity:1;" d="M 248.519531 25.9375 C 247.5 25.9375 246.476562 25.429688 245.964844 24.40625 L 239.074219 10.988281 C 238.308594 9.582031 238.945312 7.792969 240.351562 7.15625 C 241.753906 6.390625 243.542969 7.027344 244.179688 8.433594 L 251.074219 21.851562 C 251.839844 23.253906 251.199219 25.042969 249.796875 25.683594 C 249.414062 25.8125 249.03125 25.9375 248.519531 25.9375 Z M 248.519531 25.9375 "/>
<path style=" stroke:none;fill-rule:nonzero;fill:rgb(0%,0%,0%);fill-opacity:1;" d="M 270.730469 25.9375 L 262.050781 25.9375 C 260.519531 25.9375 259.113281 24.660156 259.113281 23 L 259.113281 2.9375 C 259.113281 1.40625 260.390625 0 262.050781 0 C 263.707031 0 264.984375 1.277344 264.984375 2.9375 L 264.984375 20.1875 L 270.730469 20.1875 C 272.261719 20.1875 273.664062 21.464844 273.664062 23.128906 C 273.664062 24.789062 272.261719 25.9375 270.730469 25.9375 Z M 270.730469 25.9375 "/>
<path style=" stroke:none;fill-rule:nonzero;fill:rgb(0%,0%,0%);fill-opacity:1;" d="M 299.449219 25.9375 C 297.917969 25.9375 296.511719 24.660156 296.511719 23 L 296.511719 15.078125 L 293.320312 21.464844 C 292.300781 23.382812 289.109375 23.382812 288.214844 21.464844 L 285.023438 15.078125 L 285.023438 23 C 285.023438 24.535156 283.75 25.9375 282.089844 25.9375 C 280.558594 25.9375 279.152344 24.660156 279.152344 23 L 279.152344 2.9375 C 279.152344 1.660156 280.046875 0.382812 281.324219 0.128906 C 282.601562 -0.128906 284.003906 0.382812 284.515625 1.660156 L 290.640625 13.800781 L 296.769531 1.660156 C 297.40625 0.511719 298.683594 -0.128906 299.960938 0.128906 C 301.234375 0.382812 302.128906 1.660156 302.128906 2.9375 L 302.128906 23.128906 C 302.382812 24.660156 301.109375 25.9375 299.449219 25.9375 Z M 299.449219 25.9375 "/>
<path style=" stroke:none;fill-rule:nonzero;fill:rgb(0%,0%,0%);fill-opacity:1;" d="M 346.933594 25.9375 C 341.316406 25.9375 336.847656 21.464844 336.847656 15.84375 L 336.847656 10.09375 C 336.847656 4.472656 341.316406 0 346.933594 0 C 352.546875 0 357.015625 4.472656 357.015625 10.09375 L 357.015625 15.84375 C 357.015625 21.464844 352.546875 25.9375 346.933594 25.9375 Z M 346.933594 5.75 C 344.507812 5.75 342.59375 7.667969 342.59375 10.09375 L 342.59375 15.84375 C 342.59375 18.273438 344.507812 20.1875 346.933594 20.1875 C 349.355469 20.1875 351.273438 18.273438 351.273438 15.84375 L 351.273438 10.09375 C 351.273438 7.667969 349.355469 5.75 346.933594 5.75 Z M 346.933594 5.75 "/>
<path style=" stroke:none;fill-rule:nonzero;fill:rgb(0%,0%,0%);fill-opacity:1;" d="M 200.015625 78.199219 C 195.421875 78.199219 191.589844 74.367188 191.589844 69.765625 L 191.589844 60.695312 C 191.589844 56.09375 195.292969 52.261719 200.015625 52.261719 C 204.609375 52.261719 208.441406 56.09375 208.441406 60.695312 L 208.441406 69.765625 C 208.441406 74.496094 204.738281 78.199219 200.015625 78.199219 Z M 200.015625 58.011719 C 198.613281 58.011719 197.335938 59.160156 197.335938 60.695312 L 197.335938 69.765625 C 197.335938 71.171875 198.484375 72.449219 200.015625 72.449219 C 201.546875 72.449219 202.695312 71.300781 202.695312 69.765625 L 202.695312 60.695312 C 202.695312 59.289062 201.546875 58.011719 200.015625 58.011719 Z M 200.015625 58.011719 "/>
<path style=" stroke:none;fill-rule:nonzero;fill:rgb(0%,0%,0%);fill-opacity:1;" d="M 35.867188 78.199219 L 23.484375 78.199219 C 22.335938 78.199219 21.316406 77.5625 20.804688 76.539062 C 20.296875 75.515625 20.550781 74.238281 21.316406 73.472656 L 31.78125 61.589844 C 32.421875 60.820312 32.546875 59.671875 31.910156 59.035156 C 31.273438 58.394531 30.507812 58.011719 29.613281 58.011719 C 28.082031 58.011719 26.675781 59.160156 26.421875 60.695312 C 26.167969 62.226562 24.636719 63.25 22.976562 62.996094 C 21.445312 62.738281 20.421875 61.207031 20.679688 59.542969 C 21.570312 55.328125 25.273438 52.261719 29.613281 52.261719 C 32.039062 52.261719 34.335938 53.15625 35.996094 54.945312 C 38.804688 57.753906 38.804688 62.355469 36.121094 65.421875 L 29.867188 72.449219 L 35.867188 72.449219 C 37.398438 72.449219 38.804688 73.726562 38.804688 75.390625 C 38.804688 76.921875 37.398438 78.199219 35.867188 78.199219 Z M 35.867188 78.199219 "/>
<path style=" stroke:none;fill-rule:nonzero;fill:rgb(0%,0%,0%);fill-opacity:1;" d="M 50.929688 78.199219 C 46.972656 78.199219 43.398438 75.515625 42.503906 71.9375 C 42.121094 70.40625 43.144531 68.871094 44.675781 68.488281 C 46.207031 68.105469 47.738281 69.128906 48.121094 70.660156 C 48.375 71.683594 49.523438 72.449219 50.929688 72.449219 C 52.460938 72.449219 53.738281 71.429688 53.738281 70.277344 C 53.738281 69.128906 52.460938 68.105469 50.929688 68.105469 C 49.398438 68.105469 47.992188 66.828125 47.992188 65.167969 C 47.992188 63.503906 49.269531 62.226562 50.929688 62.226562 C 52.460938 62.226562 53.738281 61.207031 53.738281 60.054688 C 53.738281 58.90625 52.460938 57.882812 50.929688 57.882812 C 49.652344 57.882812 48.375 58.648438 48.121094 59.671875 C 47.738281 61.207031 46.207031 62.226562 44.675781 61.84375 C 43.144531 61.460938 42.121094 59.929688 42.503906 58.394531 C 43.398438 54.816406 46.84375 52.132812 50.929688 52.132812 C 55.652344 52.132812 59.480469 55.710938 59.480469 60.054688 C 59.480469 61.972656 58.714844 63.761719 57.566406 65.039062 C 58.84375 66.445312 59.480469 68.234375 59.480469 70.023438 C 59.480469 74.75 55.652344 78.199219 50.929688 78.199219 Z M 50.929688 78.199219 "/>
<path style=" stroke:none;fill-rule:nonzero;fill:rgb(0%,0%,0%);fill-opacity:1;" d="M 444.707031 25.9375 C 440.367188 25.9375 436.664062 23.382812 435.769531 19.804688 C 435.386719 18.273438 436.28125 16.738281 437.8125 16.355469 C 439.34375 15.972656 440.875 16.867188 441.257812 18.398438 C 441.515625 19.292969 442.792969 20.316406 444.707031 20.316406 C 446.621094 20.316406 448.152344 19.167969 448.152344 18.144531 C 448.152344 17.121094 446.621094 15.972656 444.707031 15.972656 C 444.578125 15.972656 444.449219 15.972656 444.195312 15.972656 C 439.34375 15.714844 435.515625 12.265625 435.515625 8.050781 C 435.515625 3.707031 439.601562 0.128906 444.707031 0.128906 C 449.046875 0.128906 452.746094 2.683594 453.640625 6.261719 C 454.023438 7.792969 453.128906 9.328125 451.597656 9.710938 C 450.066406 10.09375 448.535156 9.199219 448.152344 7.667969 C 447.898438 6.773438 446.621094 5.75 444.707031 5.75 C 442.792969 5.75 441.257812 6.898438 441.257812 7.921875 C 441.257812 8.945312 442.792969 10.09375 444.707031 10.09375 C 444.832031 10.09375 444.960938 10.09375 445.214844 10.09375 C 450.066406 10.351562 453.894531 13.800781 453.894531 18.015625 C 453.894531 22.359375 449.8125 25.9375 444.707031 25.9375 Z M 444.707031 25.9375 "/>
<path style=" stroke:none;fill-rule:nonzero;fill:rgb(0%,0%,0%);fill-opacity:1;" d="M 61.90625 25.9375 C 56.289062 25.9375 51.824219 21.464844 51.824219 15.84375 L 51.824219 10.09375 C 51.824219 4.472656 56.289062 0 61.90625 0 C 64.332031 0 66.757812 0.894531 68.542969 2.554688 C 69.691406 3.578125 69.820312 5.496094 68.800781 6.644531 C 67.777344 7.792969 65.863281 7.921875 64.714844 6.898438 C 63.949219 6.261719 62.925781 5.75 61.90625 5.75 C 59.480469 5.75 57.566406 7.667969 57.566406 10.09375 L 57.566406 15.84375 C 57.566406 18.273438 59.480469 20.1875 61.90625 20.1875 C 62.925781 20.1875 63.949219 19.804688 64.714844 19.039062 C 65.863281 18.015625 67.777344 18.144531 68.800781 19.292969 C 69.820312 20.445312 69.691406 22.359375 68.542969 23.382812 C 66.757812 25.042969 64.332031 25.9375 61.90625 25.9375 Z M 61.90625 25.9375 "/>
<path style=" stroke:none;fill-rule:nonzero;fill:rgb(0%,0%,0%);fill-opacity:1;" d="M 157 25.9375 C 151.382812 25.9375 146.917969 21.464844 146.917969 15.84375 L 146.917969 10.09375 C 146.917969 4.472656 151.382812 0 157 0 C 159.425781 0 161.851562 0.894531 163.636719 2.554688 C 164.785156 3.578125 164.914062 5.496094 163.894531 6.644531 C 162.871094 7.792969 160.957031 7.921875 159.808594 6.898438 C 159.042969 6.261719 158.019531 5.75 157 5.75 C 154.574219 5.75 152.660156 7.667969 152.660156 10.09375 L 152.660156 15.84375 C 152.660156 18.273438 154.574219 20.1875 157 20.1875 C 159.425781 20.1875 161.339844 18.273438 161.339844 15.84375 L 158.402344 15.84375 C 156.871094 15.84375 155.46875 14.566406 155.46875 12.90625 C 155.46875 11.246094 156.746094 9.964844 158.402344 9.964844 L 164.148438 9.964844 C 165.679688 9.964844 167.082031 11.246094 167.082031 12.90625 L 167.082031 15.84375 C 166.957031 21.464844 162.488281 25.9375 157 25.9375 Z M 157 25.9375 "/>
<path style=" stroke:none;fill-rule:nonzero;fill:rgb(0%,0%,0%);fill-opacity:1;" d="M 214.566406 25.9375 C 212.015625 25.9375 209.714844 25.042969 207.800781 23.382812 C 206.652344 22.359375 206.523438 20.445312 207.546875 19.292969 C 208.566406 18.144531 210.480469 18.015625 211.632812 19.039062 C 212.398438 19.804688 213.417969 20.1875 214.566406 20.1875 C 216.992188 20.1875 218.90625 18.273438 218.90625 15.84375 L 218.90625 2.9375 C 218.90625 1.40625 220.183594 0 221.84375 0 C 223.5 0 224.777344 1.277344 224.777344 2.9375 L 224.777344 15.972656 C 224.652344 21.464844 220.054688 25.9375 214.566406 25.9375 Z M 214.566406 25.9375 "/>
<path style=" stroke:none;fill-rule:nonzero;fill:rgb(0%,0%,0%);fill-opacity:1;" d="M 490.914062 25.9375 C 485.296875 25.9375 480.828125 21.464844 480.828125 15.84375 L 480.828125 2.9375 C 480.828125 1.40625 482.105469 0 483.765625 0 C 485.421875 0 486.699219 1.277344 486.699219 2.9375 L 486.699219 15.972656 C 486.699219 18.398438 488.613281 20.316406 491.039062 20.316406 C 493.464844 20.316406 495.378906 18.398438 495.378906 15.972656 L 495.378906 2.9375 C 495.378906 1.40625 496.65625 0 498.316406 0 C 499.847656 0 501.25 1.277344 501.25 2.9375 L 501.25 15.972656 C 500.996094 21.464844 496.527344 25.9375 490.914062 25.9375 Z M 490.914062 25.9375 "/>
<path style=" stroke:none;fill-rule:nonzero;fill:rgb(0%,0%,0%);fill-opacity:1;" d="M 395.945312 25.9375 C 390.332031 25.9375 385.863281 21.464844 385.863281 15.84375 L 385.863281 10.09375 C 385.863281 4.472656 390.332031 0 395.945312 0 C 401.5625 0 406.03125 4.472656 406.03125 10.09375 L 406.03125 15.84375 C 406.03125 21.464844 401.5625 25.9375 395.945312 25.9375 Z M 395.945312 5.75 C 393.519531 5.75 391.605469 7.667969 391.605469 10.09375 L 391.605469 15.84375 C 391.605469 18.273438 393.519531 20.1875 395.945312 20.1875 C 398.371094 20.1875 400.285156 18.273438 400.285156 15.84375 L 400.285156 10.09375 C 400.285156 7.667969 398.371094 5.75 395.945312 5.75 Z M 395.945312 5.75 "/>
<path style=" stroke:none;fill-rule:nonzero;fill:rgb(0%,0%,0%);fill-opacity:1;" d="M 403.09375 25.9375 C 402.328125 25.9375 401.691406 25.683594 401.050781 25.042969 L 396.203125 20.1875 C 395.691406 19.679688 395.308594 18.910156 395.308594 18.144531 C 395.308594 17.378906 395.5625 16.738281 396.203125 16.101562 C 397.351562 14.949219 399.136719 14.949219 400.285156 16.101562 L 405.136719 20.957031 C 405.648438 21.464844 406.03125 22.234375 406.03125 23 C 406.03125 23.765625 405.773438 24.535156 405.136719 25.042969 C 404.625 25.683594 403.859375 25.9375 403.09375 25.9375 Z M 403.09375 25.9375 "/>
<path style=" stroke:none;fill-rule:nonzero;fill:rgb(0%,0%,0%);fill-opacity:1;" d="M 472.277344 5.75 L 460.789062 5.75 C 459.257812 5.75 457.851562 4.472656 457.851562 2.8125 C 457.851562 1.148438 459.128906 -0.128906 460.789062 -0.128906 L 472.277344 -0.128906 C 473.808594 -0.128906 475.210938 1.148438 475.210938 2.8125 C 475.210938 4.472656 473.808594 5.75 472.277344 5.75 Z M 472.277344 5.75 "/>
<path style=" stroke:none;fill-rule:nonzero;fill:rgb(0%,0%,0%);fill-opacity:1;" d="M 466.53125 25.9375 C 465 25.9375 463.597656 24.660156 463.597656 23 L 463.597656 2.9375 C 463.597656 1.40625 464.875 0 466.53125 0 C 468.191406 0 469.46875 1.277344 469.46875 2.9375 L 469.46875 23.128906 C 469.339844 24.660156 468.0625 25.9375 466.53125 25.9375 Z M 466.53125 25.9375 "/>
<path style=" stroke:none;fill-rule:nonzero;fill:rgb(0%,0%,0%);fill-opacity:1;" d="M 515.417969 25.9375 C 514.144531 25.9375 512.996094 25.042969 512.613281 23.894531 L 506.867188 3.707031 C 506.484375 2.171875 507.378906 0.640625 508.910156 0.128906 C 510.441406 -0.253906 511.972656 0.640625 512.484375 2.171875 L 515.417969 12.648438 L 518.355469 2.171875 C 518.738281 0.640625 520.398438 -0.253906 521.929688 0.128906 C 523.460938 0.511719 524.355469 2.171875 523.972656 3.707031 L 518.226562 23.894531 C 517.84375 25.171875 516.695312 25.9375 515.417969 25.9375 Z M 515.417969 25.9375 "/>
<path style=" stroke:none;fill-rule:nonzero;fill:rgb(0%,0%,0%);fill-opacity:1;" d="M 550.011719 25.9375 C 548.734375 25.9375 547.585938 25.042969 547.203125 23.894531 L 544.265625 13.417969 L 541.332031 23.894531 C 540.949219 25.171875 539.800781 25.9375 538.523438 25.9375 C 537.246094 25.9375 536.097656 25.042969 535.714844 23.894531 L 529.972656 3.707031 C 529.585938 2.171875 530.480469 0.640625 532.011719 0.128906 C 533.542969 -0.253906 535.078125 0.640625 535.585938 2.171875 L 538.523438 12.648438 L 541.457031 2.171875 C 541.839844 0.894531 542.992188 0.128906 544.265625 0.128906 C 545.542969 0.128906 546.691406 1.023438 547.074219 2.171875 L 550.011719 12.648438 L 552.945312 2.171875 C 553.328125 0.640625 554.988281 -0.253906 556.519531 0.128906 C 558.050781 0.511719 558.945312 2.171875 558.5625 3.707031 L 552.820312 23.894531 C 552.4375 25.171875 551.285156 25.9375 550.011719 25.9375 Z M 550.011719 25.9375 "/>
<path style=" stroke:none;fill-rule:nonzero;fill:rgb(0%,0%,0%);fill-opacity:1;" d="M 578.859375 25.9375 C 577.835938 25.9375 576.941406 25.429688 576.304688 24.535156 L 564.816406 4.34375 C 564.050781 2.9375 564.5625 1.148438 565.839844 0.382812 C 567.242188 -0.382812 569.027344 0.128906 569.796875 1.40625 L 581.28125 21.59375 C 582.046875 23 581.539062 24.789062 580.261719 25.554688 C 579.75 25.8125 579.242188 25.9375 578.859375 25.9375 Z M 578.859375 25.9375 "/>
<path style=" stroke:none;fill-rule:nonzero;fill:rgb(0%,0%,0%);fill-opacity:1;" d="M 567.242188 25.9375 C 566.730469 25.9375 566.222656 25.8125 565.839844 25.554688 C 564.433594 24.789062 563.921875 23 564.816406 21.59375 L 576.304688 1.40625 C 577.070312 0 578.859375 -0.511719 580.261719 0.382812 C 581.664062 1.148438 582.175781 2.9375 581.28125 4.34375 L 569.796875 24.535156 C 569.285156 25.429688 568.261719 25.9375 567.242188 25.9375 Z M 567.242188 25.9375 "/>
<path style=" stroke:none;fill-rule:nonzero;fill:rgb(0%,0%,0%);fill-opacity:1;" d="M 596.089844 25.9375 C 594.558594 25.9375 593.152344 24.660156 593.152344 23 L 593.152344 15.078125 L 587.664062 4.214844 C 586.898438 2.8125 587.539062 1.023438 588.941406 0.382812 C 590.34375 -0.382812 592.132812 0.253906 592.769531 1.660156 L 595.960938 8.050781 L 599.152344 1.660156 C 599.917969 0.253906 601.578125 -0.382812 602.980469 0.382812 C 604.003906 0.894531 604.515625 1.917969 604.515625 2.9375 C 604.515625 3.320312 604.386719 3.832031 604.257812 4.214844 L 598.769531 15.078125 L 598.769531 23 C 598.898438 24.660156 597.621094 25.9375 596.089844 25.9375 Z M 596.089844 25.9375 "/>
<path style=" stroke:none;fill-rule:nonzero;fill:rgb(0%,0%,0%);fill-opacity:1;" d="M 624.808594 25.9375 L 613.320312 25.9375 C 612.300781 25.9375 611.40625 25.429688 610.769531 24.535156 C 610.257812 23.640625 610.257812 22.488281 610.769531 21.59375 L 619.832031 5.75 L 613.320312 5.75 C 611.789062 5.75 610.386719 4.472656 610.386719 2.8125 C 610.386719 1.148438 611.660156 -0.128906 613.320312 -0.128906 L 624.808594 -0.128906 C 625.832031 -0.128906 626.722656 0.382812 627.363281 1.277344 C 627.871094 2.171875 627.871094 3.320312 627.363281 4.214844 L 618.300781 20.0625 L 624.808594 20.0625 C 626.339844 20.0625 627.746094 21.339844 627.746094 23 C 627.746094 24.660156 626.46875 25.9375 624.808594 25.9375 Z M 624.808594 25.9375 "/>
<path style=" stroke:none;fill-rule:nonzero;fill:rgb(0%,0%,0%);fill-opacity:1;" d="M 30.378906 25.9375 C 28.847656 25.9375 27.441406 24.660156 27.441406 23 L 27.441406 2.9375 C 27.441406 1.40625 28.71875 0 30.378906 0 C 32.039062 0 33.316406 1.277344 33.316406 2.9375 L 33.316406 23.128906 C 33.316406 24.660156 32.039062 25.9375 30.378906 25.9375 Z M 30.378906 25.9375 "/>
<path style=" stroke:none;fill-rule:nonzero;fill:rgb(0%,0%,0%);fill-opacity:1;" d="M 9.316406 78.199219 C 7.785156 78.199219 6.382812 76.921875 6.382812 75.261719 L 6.382812 60.949219 L 5.359375 61.714844 C 4.085938 62.609375 2.296875 62.355469 1.277344 61.078125 C 0.382812 59.800781 0.636719 58.011719 1.914062 56.988281 L 7.660156 52.898438 C 8.550781 52.261719 9.699219 52.132812 10.722656 52.644531 C 11.742188 53.15625 12.253906 54.179688 12.253906 55.199219 L 12.253906 75.390625 C 12.253906 76.921875 10.976562 78.199219 9.316406 78.199219 Z M 9.316406 78.199219 "/>
<path style=" stroke:none;fill-rule:nonzero;fill:rgb(0%,0%,0%);fill-opacity:1;" d="M 366.460938 25.9375 C 364.929688 25.9375 363.523438 24.660156 363.523438 23 L 363.523438 2.9375 C 363.523438 1.40625 364.800781 0 366.460938 0 L 374.121094 0 C 378.460938 0 382.035156 3.578125 382.035156 7.921875 C 382.035156 12.265625 378.460938 15.84375 374.121094 15.84375 L 369.269531 15.84375 L 369.269531 23.128906 C 369.269531 24.660156 367.992188 25.9375 366.460938 25.9375 Z M 369.269531 10.09375 L 374.121094 10.09375 C 375.269531 10.09375 376.289062 9.070312 376.289062 7.921875 C 376.289062 6.773438 375.269531 5.75 374.121094 5.75 L 369.269531 5.75 Z M 369.269531 10.09375 "/>
<path style=" stroke:none;fill-rule:nonzero;fill:rgb(0%,0%,0%);fill-opacity:1;" d="M 38.164062 15.84375 L 30.507812 15.84375 C 28.976562 15.84375 27.570312 14.566406 27.570312 12.90625 L 27.570312 2.9375 C 27.570312 1.40625 28.847656 0 30.507812 0 L 38.164062 0 C 42.503906 0 46.078125 3.578125 46.078125 7.921875 C 46.078125 12.265625 42.503906 15.84375 38.164062 15.84375 Z M 33.316406 10.09375 L 38.164062 10.09375 C 39.3125 10.09375 40.335938 9.070312 40.335938 7.921875 C 40.335938 6.773438 39.3125 5.75 38.164062 5.75 L 33.316406 5.75 Z M 33.316406 10.09375 "/>
<path style=" stroke:none;fill-rule:nonzero;fill:rgb(0%,0%,0%);fill-opacity:1;" d="M 38.164062 25.9375 L 30.507812 25.9375 C 28.976562 25.9375 27.570312 24.660156 27.570312 23 L 27.570312 12.90625 C 27.570312 11.371094 28.847656 9.964844 30.507812 9.964844 L 38.164062 9.964844 C 42.503906 9.964844 46.078125 13.542969 46.078125 17.890625 C 46.078125 22.359375 42.503906 25.9375 38.164062 25.9375 Z M 33.316406 20.0625 L 38.164062 20.0625 C 39.3125 20.0625 40.335938 19.039062 40.335938 17.890625 C 40.335938 16.738281 39.3125 15.714844 38.164062 15.714844 L 33.316406 15.714844 Z M 33.316406 20.0625 "/>
<path style=" stroke:none;fill-rule:nonzero;fill:rgb(0%,0%,0%);fill-opacity:1;" d="M 86.667969 25.9375 L 79.648438 25.9375 C 78.117188 25.9375 76.714844 24.660156 76.714844 23 L 76.714844 2.9375 C 76.714844 1.40625 77.988281 0 79.648438 0 L 86.667969 0 C 91.519531 0 95.476562 3.960938 95.476562 8.816406 L 95.476562 16.867188 C 95.476562 21.851562 91.519531 25.9375 86.667969 25.9375 Z M 82.457031 20.0625 L 86.542969 20.0625 C 88.199219 20.0625 89.605469 18.65625 89.605469 16.996094 L 89.605469 8.945312 C 89.605469 7.285156 88.199219 5.878906 86.542969 5.878906 L 82.457031 5.878906 Z M 82.457031 20.0625 "/>
<path style=" stroke:none;fill-rule:nonzero;fill:rgb(0%,0%,0%);fill-opacity:1;" d="M 415.21875 25.9375 C 413.6875 25.9375 412.285156 24.660156 412.285156 23 L 412.285156 2.9375 C 412.285156 1.40625 413.5625 0 415.21875 0 L 422.878906 0 C 427.21875 0 430.792969 3.578125 430.792969 7.921875 C 430.792969 12.265625 427.21875 15.84375 422.878906 15.84375 L 418.027344 15.84375 L 418.027344 23.128906 C 418.027344 24.660156 416.753906 25.9375 415.21875 25.9375 Z M 418.027344 10.09375 L 422.878906 10.09375 C 424.027344 10.09375 425.046875 9.070312 425.046875 7.921875 C 425.046875 6.773438 424.027344 5.75 422.878906 5.75 L 418.027344 5.75 Z M 418.027344 10.09375 "/>
<path style=" stroke:none;fill-rule:nonzero;fill:rgb(0%,0%,0%);fill-opacity:1;" d="M 427.21875 25.9375 C 426.070312 25.9375 425.046875 25.300781 424.539062 24.148438 L 420.199219 14.054688 C 419.558594 12.648438 420.199219 10.859375 421.730469 10.222656 C 423.132812 9.582031 424.921875 10.222656 425.558594 11.753906 L 429.898438 21.851562 C 430.539062 23.253906 429.898438 25.042969 428.367188 25.683594 C 427.984375 25.9375 427.601562 25.9375 427.21875 25.9375 Z M 427.21875 25.9375 "/>
<path style=" stroke:none;fill-rule:nonzero;fill:rgb(0%,0%,0%);fill-opacity:1;" d="M 77.863281 75.003906 L 66.117188 75.003906 C 65.097656 75.003906 64.203125 74.496094 63.695312 73.726562 C 63.183594 72.960938 63.054688 71.9375 63.4375 71.042969 L 70.96875 54.050781 C 71.605469 52.644531 73.265625 51.878906 74.796875 52.515625 C 76.203125 53.15625 76.96875 54.816406 76.203125 56.351562 L 70.457031 69.253906 L 77.863281 69.253906 C 79.394531 69.253906 80.796875 70.535156 80.796875 72.195312 C 80.667969 73.726562 79.394531 75.003906 77.863281 75.003906 Z M 77.863281 75.003906 "/>
<path style=" stroke:none;fill-rule:nonzero;fill:rgb(0%,0%,0%);fill-opacity:1;" d="M 75.820312 78.199219 C 74.289062 78.199219 72.882812 76.921875 72.882812 75.261719 L 72.882812 65.804688 C 72.882812 64.273438 74.160156 62.867188 75.820312 62.867188 C 77.480469 62.867188 78.753906 64.144531 78.753906 65.804688 L 78.753906 75.390625 C 78.753906 76.921875 77.480469 78.199219 75.820312 78.199219 Z M 75.820312 78.199219 "/>
<path style=" stroke:none;fill-rule:nonzero;fill:rgb(0%,0%,0%);fill-opacity:1;" d="M 93.6875 78.199219 C 90.242188 78.199219 87.308594 76.15625 86.285156 73.089844 C 85.777344 71.554688 86.542969 69.894531 87.945312 69.382812 C 89.476562 68.871094 91.136719 69.640625 91.648438 71.042969 C 91.902344 71.8125 92.667969 72.320312 93.5625 72.320312 C 94.839844 72.320312 95.730469 71.429688 95.730469 70.277344 L 95.730469 69.253906 C 95.730469 68.105469 94.839844 67.210938 93.6875 67.210938 L 88.964844 67.210938 C 87.433594 67.210938 86.03125 65.933594 86.03125 64.273438 L 86.03125 54.945312 C 86.03125 53.410156 87.308594 52.003906 88.964844 52.003906 L 98.539062 52.003906 C 100.070312 52.003906 101.476562 53.285156 101.476562 54.945312 C 101.476562 56.605469 100.199219 57.882812 98.539062 57.882812 L 91.773438 57.882812 L 91.773438 61.460938 L 93.433594 61.460938 C 97.902344 61.460938 101.347656 64.910156 101.347656 69.253906 L 101.347656 70.277344 C 101.347656 74.75 97.902344 78.199219 93.6875 78.199219 Z M 93.6875 78.199219 "/>
<path style=" stroke:none;fill-rule:nonzero;fill:rgb(0%,0%,0%);fill-opacity:1;" d="M 157.765625 78.199219 L 157 78.199219 C 152.660156 78.199219 149.085938 74.621094 149.085938 70.277344 C 149.085938 65.933594 152.660156 62.355469 157 62.355469 L 157.765625 62.355469 C 162.105469 62.355469 165.679688 65.933594 165.679688 70.277344 C 165.679688 74.621094 162.105469 78.199219 157.765625 78.199219 Z M 157 68.105469 C 155.851562 68.105469 154.832031 69.128906 154.832031 70.277344 C 154.832031 71.429688 155.851562 72.449219 157 72.449219 L 157.765625 72.449219 C 158.914062 72.449219 159.9375 71.429688 159.9375 70.277344 C 159.9375 69.128906 158.914062 68.105469 157.765625 68.105469 Z M 157 68.105469 "/>
<path style=" stroke:none;fill-rule:nonzero;fill:rgb(0%,0%,0%);fill-opacity:1;" d="M 157.765625 68.105469 L 157 68.105469 C 152.660156 68.105469 149.085938 64.527344 149.085938 60.183594 C 149.085938 55.839844 152.660156 52.261719 157 52.261719 L 157.765625 52.261719 C 162.105469 52.261719 165.679688 55.839844 165.679688 60.183594 C 165.679688 64.527344 162.105469 68.105469 157.765625 68.105469 Z M 157 58.011719 C 155.851562 58.011719 154.832031 59.035156 154.832031 60.183594 C 154.832031 61.332031 155.851562 62.355469 157 62.355469 L 157.765625 62.355469 C 158.914062 62.355469 159.9375 61.332031 159.9375 60.183594 C 159.9375 59.035156 158.914062 58.011719 157.765625 58.011719 Z M 157 58.011719 "/>
<path style=" stroke:none;fill-rule:nonzero;fill:rgb(0%,0%,0%);fill-opacity:1;" d="M 114.496094 78.199219 C 110.28125 78.199219 106.835938 74.75 106.835938 70.535156 L 106.835938 69.382812 C 106.835938 65.167969 110.28125 61.714844 114.496094 61.714844 C 118.707031 61.714844 122.152344 65.167969 122.152344 69.382812 L 122.152344 70.535156 C 122.28125 74.75 118.835938 78.199219 114.496094 78.199219 Z M 114.496094 67.464844 C 113.472656 67.464844 112.582031 68.359375 112.582031 69.382812 L 112.582031 70.535156 C 112.582031 71.554688 113.472656 72.449219 114.496094 72.449219 C 115.515625 72.449219 116.410156 71.554688 116.410156 70.535156 L 116.410156 69.382812 C 116.539062 68.234375 115.644531 67.464844 114.496094 67.464844 Z M 114.496094 67.464844 "/>
<path style=" stroke:none;fill-rule:nonzero;fill:rgb(0%,0%,0%);fill-opacity:1;" d="M 110.410156 69.765625 C 110.027344 69.765625 109.644531 69.640625 109.261719 69.511719 C 107.859375 68.871094 107.21875 67.210938 107.859375 65.679688 L 113.089844 53.921875 C 113.730469 52.515625 115.386719 51.75 116.921875 52.515625 C 118.324219 53.15625 118.960938 54.816406 118.324219 56.351562 L 113.089844 68.105469 C 112.582031 69.128906 111.433594 69.765625 110.410156 69.765625 Z M 110.410156 69.765625 "/>
<path style=" stroke:none;fill-rule:nonzero;fill:rgb(0%,0%,0%);fill-opacity:1;" d="M 178.828125 68.871094 C 174.613281 68.871094 171.167969 65.421875 171.167969 61.207031 L 171.167969 60.054688 C 171.167969 55.839844 174.613281 52.390625 178.828125 52.390625 C 183.039062 52.390625 186.484375 55.839844 186.484375 60.054688 L 186.484375 61.207031 C 186.484375 65.421875 183.039062 68.871094 178.828125 68.871094 Z M 178.828125 58.011719 C 177.804688 58.011719 176.914062 58.90625 176.914062 59.929688 L 176.914062 61.078125 C 176.914062 62.101562 177.804688 62.996094 178.828125 62.996094 C 179.847656 62.996094 180.742188 62.101562 180.742188 61.078125 L 180.742188 60.054688 C 180.742188 58.90625 179.847656 58.011719 178.828125 58.011719 Z M 178.828125 58.011719 "/>
<path style=" stroke:none;fill-rule:nonzero;fill:rgb(0%,0%,0%);fill-opacity:1;" d="M 177.804688 78.199219 C 177.421875 78.199219 177.039062 78.070312 176.65625 77.945312 C 175.253906 77.304688 174.613281 75.644531 175.253906 74.109375 L 180.484375 62.355469 C 181.125 60.949219 182.785156 60.183594 184.316406 60.949219 C 185.71875 61.589844 186.359375 63.25 185.71875 64.785156 L 180.484375 76.539062 C 179.847656 77.5625 178.828125 78.199219 177.804688 78.199219 Z M 177.804688 78.199219 "/>
<path style=" stroke:none;fill-rule:nonzero;fill:rgb(0%,0%,0%);fill-opacity:1;" d="M 134.789062 78.199219 C 134.535156 78.199219 134.152344 78.199219 133.898438 78.070312 C 132.363281 77.5625 131.597656 75.898438 132.109375 74.367188 L 137.726562 58.011719 L 133.257812 58.011719 L 133.257812 60.054688 C 133.257812 61.589844 131.980469 62.996094 130.324219 62.996094 C 128.664062 62.996094 127.386719 61.714844 127.386719 60.054688 L 127.386719 55.070312 C 127.386719 53.539062 128.664062 52.132812 130.324219 52.132812 L 141.683594 52.132812 C 142.578125 52.132812 143.46875 52.644531 143.980469 53.285156 C 144.492188 54.050781 144.617188 55.070312 144.363281 55.839844 L 137.34375 76.027344 C 137.085938 77.5625 135.9375 78.199219 134.789062 78.199219 Z M 134.789062 78.199219 "/>
<path style=" stroke:none;fill-rule:nonzero;fill:rgb(0%,0%,0%);fill-opacity:1;" d="M 10.210938 132.761719 C 5.871094 132.761719 2.167969 130.207031 1.277344 126.628906 C 0.894531 125.09375 1.785156 123.5625 3.320312 123.179688 C 4.851562 122.667969 6.382812 123.6875 6.765625 125.222656 C 7.019531 126.117188 8.296875 127.140625 10.210938 127.140625 C 12.125 127.140625 13.65625 125.988281 13.65625 124.964844 C 13.65625 123.945312 12.125 122.667969 10.210938 122.667969 C 10.082031 122.667969 9.957031 122.667969 9.699219 122.667969 C 4.851562 122.410156 1.019531 118.960938 1.019531 114.746094 C 1.019531 110.398438 5.105469 106.820312 10.210938 106.820312 C 14.550781 106.820312 18.253906 109.378906 19.144531 112.957031 C 19.527344 114.488281 18.636719 116.023438 17.105469 116.40625 C 15.574219 116.789062 14.039062 115.894531 13.65625 114.359375 C 13.402344 113.464844 12.125 112.445312 10.210938 112.445312 C 8.296875 112.445312 6.765625 113.59375 6.765625 114.617188 C 6.765625 115.640625 8.296875 116.789062 10.210938 116.789062 C 10.339844 116.789062 10.464844 116.789062 10.722656 116.789062 C 15.574219 117.042969 19.402344 120.496094 19.402344 124.710938 C 19.402344 129.3125 15.316406 132.761719 10.210938 132.761719 Z M 10.210938 132.761719 "/>
<path style=" stroke:none;fill-rule:nonzero;fill:rgb(0%,0%,0%);fill-opacity:1;" d="M 10.210938 112.570312 C 8.679688 112.570312 7.277344 111.292969 7.277344 109.632812 L 7.277344 104.777344 C 7.277344 103.246094 8.550781 101.839844 10.210938 101.839844 C 11.871094 101.839844 13.148438 103.117188 13.148438 104.777344 L 13.148438 109.632812 C 13.148438 111.292969 11.871094 112.570312 10.210938 112.570312 Z M 10.210938 112.570312 "/>
<path style=" stroke:none;fill-rule:nonzero;fill:rgb(0%,0%,0%);fill-opacity:1;" d="M 10.210938 137.617188 C 8.679688 137.617188 7.277344 136.339844 7.277344 134.679688 L 7.277344 129.820312 C 7.277344 128.289062 8.550781 126.882812 10.210938 126.882812 C 11.871094 126.882812 13.148438 128.160156 13.148438 129.820312 L 13.148438 134.679688 C 13.148438 136.339844 11.871094 137.617188 10.210938 137.617188 Z M 10.210938 137.617188 "/>
<path style=" stroke:none;fill-rule:nonzero;fill:rgb(0%,0%,0%);fill-opacity:1;" d="M 55.90625 132.761719 C 54.375 132.761719 52.972656 131.484375 52.972656 129.820312 L 52.972656 121.898438 L 47.484375 111.039062 C 46.71875 109.632812 47.355469 107.84375 48.757812 107.207031 C 50.164062 106.4375 51.949219 107.078125 52.589844 108.484375 L 55.78125 114.871094 L 58.972656 108.484375 C 59.738281 107.078125 61.394531 106.4375 62.800781 107.207031 C 63.820312 107.714844 64.332031 108.738281 64.332031 109.761719 C 64.332031 110.144531 64.203125 110.65625 64.078125 111.039062 L 58.585938 121.898438 L 58.585938 129.820312 C 58.84375 131.484375 57.566406 132.761719 55.90625 132.761719 Z M 55.90625 132.761719 "/>
<path style=" stroke:none;fill-rule:nonzero;fill:rgb(0%,0%,0%);fill-opacity:1;" d="M 61.269531 122.667969 L 50.417969 122.667969 C 48.886719 122.667969 47.484375 121.390625 47.484375 119.726562 C 47.484375 118.066406 48.757812 116.789062 50.417969 116.789062 L 61.269531 116.789062 C 62.800781 116.789062 64.203125 118.066406 64.203125 119.726562 C 64.203125 121.390625 62.925781 122.667969 61.269531 122.667969 Z M 61.269531 122.667969 "/>
<path style=" stroke:none;fill-rule:nonzero;fill:rgb(0%,0%,0%);fill-opacity:1;" d="M 81.691406 132.761719 C 76.074219 132.761719 71.605469 128.289062 71.605469 122.667969 L 71.605469 116.917969 C 71.605469 111.292969 76.074219 106.820312 81.691406 106.820312 C 84.117188 106.820312 86.542969 107.714844 88.328125 109.378906 C 89.476562 110.398438 89.605469 112.316406 88.582031 113.464844 C 87.5625 114.617188 85.648438 114.746094 84.5 113.722656 C 83.734375 113.082031 82.710938 112.699219 81.691406 112.699219 C 79.265625 112.699219 77.351562 114.617188 77.351562 117.042969 L 77.351562 122.667969 C 77.351562 125.09375 79.265625 127.011719 81.691406 127.011719 C 82.710938 127.011719 83.734375 126.628906 84.5 125.988281 C 85.648438 124.964844 87.5625 125.09375 88.582031 126.246094 C 89.605469 127.394531 89.476562 129.3125 88.328125 130.332031 C 86.542969 131.867188 84.242188 132.761719 81.691406 132.761719 Z M 81.691406 132.761719 "/>
<path style=" stroke:none;fill-rule:nonzero;fill:rgb(0%,0%,0%);fill-opacity:1;" d="M 81.054688 122.667969 L 70.203125 122.667969 C 68.671875 122.667969 67.265625 121.390625 67.265625 119.726562 C 67.265625 118.066406 68.542969 116.789062 70.203125 116.789062 L 81.054688 116.789062 C 82.585938 116.789062 83.988281 118.066406 83.988281 119.726562 C 83.988281 121.390625 82.710938 122.667969 81.054688 122.667969 Z M 81.054688 122.667969 "/>
<path style=" stroke:none;fill-rule:nonzero;fill:rgb(0%,0%,0%);fill-opacity:1;" d="M 101.476562 125.09375 C 99.945312 125.09375 98.539062 123.816406 98.539062 122.15625 L 98.539062 109.632812 C 98.539062 108.101562 99.816406 106.695312 101.476562 106.695312 C 103.136719 106.695312 104.410156 107.972656 104.410156 109.632812 L 104.410156 122.15625 C 104.410156 123.816406 103.136719 125.09375 101.476562 125.09375 Z M 101.476562 125.09375 "/>
<path style=" stroke:none;fill-rule:nonzero;fill:rgb(0%,0%,0%);fill-opacity:1;" d="M 104.410156 129.949219 C 104.410156 131.574219 103.097656 132.890625 101.476562 132.890625 C 99.855469 132.890625 98.539062 131.574219 98.539062 129.949219 C 98.539062 128.328125 99.855469 127.011719 101.476562 127.011719 C 103.097656 127.011719 104.410156 128.328125 104.410156 129.949219 Z M 104.410156 129.949219 "/>
<path style=" stroke:none;fill-rule:nonzero;fill:rgb(0%,0%,0%);fill-opacity:1;" d="M 146.277344 125.605469 C 144.746094 125.605469 143.34375 124.328125 143.34375 122.667969 L 143.34375 119.726562 C 143.34375 118.195312 144.617188 116.789062 146.277344 116.789062 C 147.683594 116.789062 148.957031 115.765625 148.957031 114.617188 C 148.957031 113.464844 147.808594 112.445312 146.277344 112.445312 C 145 112.445312 143.980469 113.210938 143.726562 114.234375 C 143.34375 115.765625 141.8125 116.789062 140.277344 116.40625 C 138.746094 116.023438 137.726562 114.488281 138.109375 112.957031 C 138.875 109.378906 142.320312 106.695312 146.277344 106.695312 C 150.875 106.695312 154.703125 110.273438 154.703125 114.617188 C 154.703125 118.066406 152.40625 121.003906 149.214844 122.027344 L 149.214844 122.667969 C 149.085938 124.328125 147.808594 125.605469 146.277344 125.605469 Z M 146.277344 125.605469 "/>
<path style=" stroke:none;fill-rule:nonzero;fill:rgb(0%,0%,0%);fill-opacity:1;" d="M 149.214844 129.949219 C 149.214844 131.574219 147.898438 132.890625 146.277344 132.890625 C 144.65625 132.890625 143.34375 131.574219 143.34375 129.949219 C 143.34375 128.328125 144.65625 127.011719 146.277344 127.011719 C 147.898438 127.011719 149.214844 128.328125 149.214844 129.949219 Z M 149.214844 129.949219 "/>
<path style=" stroke:none;fill-rule:nonzero;fill:rgb(0%,0%,0%);fill-opacity:1;" d="M 115.773438 132.761719 C 115.644531 132.761719 115.515625 132.761719 115.386719 132.761719 C 113.855469 132.503906 112.707031 131.101562 112.964844 129.4375 L 116.027344 109.25 C 116.28125 107.714844 117.6875 106.566406 119.34375 106.820312 C 120.878906 107.078125 122.027344 108.484375 121.769531 110.144531 L 118.707031 130.332031 C 118.453125 131.738281 117.175781 132.761719 115.773438 132.761719 Z M 115.773438 132.761719 "/>
<path style=" stroke:none;fill-rule:nonzero;fill:rgb(0%,0%,0%);fill-opacity:1;" d="M 124.835938 132.761719 C 124.707031 132.761719 124.578125 132.761719 124.453125 132.761719 C 122.917969 132.503906 121.769531 131.101562 122.027344 129.4375 L 125.089844 109.25 C 125.34375 107.714844 126.75 106.566406 128.40625 106.820312 C 129.941406 107.078125 131.089844 108.484375 130.832031 110.144531 L 127.640625 130.332031 C 127.386719 131.738281 126.238281 132.761719 124.835938 132.761719 Z M 124.835938 132.761719 "/>
<path style=" stroke:none;fill-rule:nonzero;fill:rgb(0%,0%,0%);fill-opacity:1;" d="M 112.324219 118.195312 C 110.792969 118.195312 109.390625 116.917969 109.390625 115.253906 C 109.390625 113.722656 110.664062 112.316406 112.324219 112.316406 L 132.746094 112.316406 C 134.28125 112.316406 135.683594 113.59375 135.683594 115.253906 C 135.683594 116.789062 134.40625 118.195312 132.746094 118.195312 Z M 112.324219 118.195312 "/>
<path style=" stroke:none;fill-rule:nonzero;fill:rgb(0%,0%,0%);fill-opacity:1;" d="M 110.921875 127.140625 C 109.390625 127.140625 107.984375 125.859375 107.984375 124.199219 C 107.984375 122.667969 109.261719 121.261719 110.921875 121.261719 L 131.34375 121.261719 C 132.875 121.261719 134.28125 122.539062 134.28125 124.199219 C 134.28125 125.734375 133.003906 127.140625 131.34375 127.140625 Z M 110.921875 127.140625 "/>
<path style=" stroke:none;fill-rule:nonzero;fill:rgb(0%,0%,0%);fill-opacity:1;" d="M 32.164062 122.667969 L 27.058594 122.667969 C 25.527344 122.667969 24.253906 121.390625 24.253906 119.855469 C 24.253906 118.320312 25.527344 116.917969 27.1875 116.917969 L 32.292969 116.917969 C 33.824219 116.917969 35.230469 118.195312 35.230469 119.855469 C 35.230469 121.515625 33.824219 122.667969 32.164062 122.667969 Z M 32.164062 122.667969 "/>
<path style=" stroke:none;fill-rule:nonzero;fill:rgb(0%,0%,0%);fill-opacity:1;" d="M 40.460938 132.761719 L 29.742188 132.761719 C 28.207031 132.761719 26.804688 131.484375 26.804688 129.820312 L 26.804688 115.128906 C 26.804688 110.527344 30.507812 106.820312 35.101562 106.820312 C 39.3125 106.820312 42.886719 110.015625 43.269531 114.234375 C 43.398438 115.765625 42.25 117.171875 40.71875 117.429688 C 39.1875 117.554688 37.78125 116.40625 37.527344 114.871094 C 37.398438 113.59375 36.378906 112.570312 34.972656 112.570312 C 33.570312 112.570312 32.421875 113.722656 32.421875 115.128906 L 32.421875 127.011719 L 40.335938 127.011719 C 41.867188 127.011719 43.269531 128.289062 43.269531 129.949219 C 43.269531 131.609375 41.996094 132.761719 40.460938 132.761719 Z M 40.460938 132.761719 "/>
</g>
</svg>
