<?xml version="1.0" encoding="UTF-8"?>
<svg xmlns="http://www.w3.org/2000/svg" xmlns:xlink="http://www.w3.org/1999/xlink" width="630px" height="px" viewBox="0 0 630 181" version="1.1">
<g id="surface1">
<path style=" stroke:none;fill-rule:nonzero;fill:rgb(11.372549%,11.372549%,10.588235%);fill-opacity:1;" d="M 81.078125 103.9375 C 80.804688 103.9375 80.257812 103.9375 79.984375 103.664062 C 78.613281 103.113281 77.792969 101.46875 78.613281 100.097656 L 111.207031 21.390625 C 97.785156 25.777344 89.570312 38.394531 83.816406 49.363281 C 80.53125 55.398438 70.667969 77.0625 62.453125 95.4375 C 61.90625 96.808594 60.261719 97.351562 58.890625 96.808594 C 57.523438 96.257812 56.972656 94.613281 57.523438 93.242188 C 65.738281 74.867188 75.875 53.203125 78.886719 46.898438 C 82.996094 38.945312 93.953125 17.828125 115.316406 14.8125 C 116.414062 14.539062 117.234375 15.085938 117.78125 15.910156 C 118.332031 16.730469 118.605469 17.828125 118.054688 18.652344 L 83.542969 102.292969 C 83.269531 103.390625 82.175781 103.9375 81.078125 103.9375 Z M 81.078125 103.9375 "/>
<path style=" stroke:none;fill-rule:nonzero;fill:rgb(11.372549%,11.372549%,10.588235%);fill-opacity:1;" d="M 76.148438 114.363281 C 75.324219 114.085938 74.777344 113.535156 74.503906 112.992188 C 74.230469 112.4375 74.230469 111.34375 74.503906 110.792969 L 77.792969 103.113281 L 61.90625 97.90625 C 58.34375 106.132812 55.332031 112.714844 53.414062 117.648438 L 43.824219 127.523438 C 44.648438 123.683594 53.6875 102.292969 57.523438 93.242188 C 58.070312 91.871094 59.4375 91.324219 60.808594 91.871094 L 81.898438 98.726562 C 82.722656 99.003906 83.269531 99.554688 83.542969 100.097656 C 83.816406 100.925781 83.816406 101.46875 83.542969 102.296875 L 80.257812 109.972656 Z M 76.148438 114.363281 "/>
<path style=" stroke:none;fill-rule:nonzero;fill:rgb(11.372549%,11.372549%,10.588235%);fill-opacity:1;" d="M 95.59375 99.277344 C 94.5 99.277344 93.679688 98.726562 93.128906 97.628906 C 92.582031 96.257812 93.128906 94.609375 94.5 94.066406 C 104.636719 89.402344 109.839844 86.660156 113.949219 84.742188 C 124.90625 78.980469 137.777344 71.027344 141.886719 57.316406 L 107.648438 71.578125 C 106.277344 72.125 104.636719 71.578125 104.085938 70.207031 C 103.539062 68.835938 104.085938 67.1875 105.457031 66.640625 L 144.351562 50.1875 C 145.175781 49.914062 146.269531 49.914062 147.089844 50.460938 C 147.914062 51.007812 148.1875 52.105469 148.1875 52.929688 C 144.898438 74.320312 124.082031 85.289062 116.140625 89.402344 C 112.03125 91.597656 106.550781 94.339844 96.417969 99 C 96.417969 99.277344 95.871094 99.277344 95.59375 99.277344 Z M 95.59375 99.277344 "/>
<path style=" stroke:none;fill-rule:nonzero;fill:rgb(88.627451%,43.921569%,13.333333%);fill-opacity:1;" d="M 27.664062 112.992188 C 19.449219 112.992188 12.601562 106.132812 12.601562 97.90625 C 12.601562 89.679688 19.449219 82.824219 27.664062 82.824219 C 35.882812 82.824219 42.730469 89.679688 42.730469 97.90625 C 42.730469 106.132812 35.882812 112.992188 27.664062 112.992188 Z M 27.664062 88.03125 C 22.460938 88.03125 18.078125 92.421875 18.078125 97.628906 C 18.078125 102.839844 22.460938 107.230469 27.664062 107.230469 C 32.871094 107.230469 37.253906 102.839844 37.253906 97.628906 C 37.253906 92.421875 32.871094 88.03125 27.664062 88.03125 Z M 27.664062 88.03125 "/>
<path style=" stroke:none;fill-rule:nonzero;fill:rgb(88.627451%,43.921569%,13.333333%);fill-opacity:1;" d="M 27.664062 125.878906 C 12.601562 125.878906 0.273438 113.535156 0.273438 98.453125 C 0.273438 83.371094 12.601562 71.027344 27.664062 71.027344 C 42.730469 71.027344 55.054688 83.371094 55.054688 98.453125 C 55.054688 113.535156 42.730469 125.878906 27.664062 125.878906 Z M 27.664062 76.511719 C 15.613281 76.511719 5.753906 86.386719 5.753906 98.453125 C 5.753906 110.519531 15.613281 120.390625 27.664062 120.390625 C 39.71875 120.390625 49.578125 110.519531 49.578125 98.453125 C 49.578125 86.386719 39.71875 76.511719 27.664062 76.511719 Z M 27.664062 76.511719 "/>
<path style=" stroke:none;fill-rule:nonzero;fill:rgb(88.627451%,43.921569%,13.333333%);fill-opacity:1;" d="M 70.667969 151.109375 C 62.453125 151.109375 55.605469 144.25 55.605469 136.023438 C 55.605469 127.796875 62.453125 120.941406 70.667969 120.941406 C 78.886719 120.941406 85.734375 127.796875 85.734375 136.023438 C 85.734375 144.25 79.160156 151.109375 70.667969 151.109375 Z M 70.667969 126.152344 C 65.464844 126.152344 61.082031 130.542969 61.082031 135.75 C 61.082031 140.960938 65.464844 145.347656 70.667969 145.347656 C 75.875 145.347656 80.257812 140.960938 80.257812 135.75 C 80.257812 130.539062 76.148438 126.152344 70.667969 126.152344 Z M 70.667969 126.152344 "/>
<path style=" stroke:none;fill-rule:nonzero;fill:rgb(88.627451%,43.921569%,13.333333%);fill-opacity:1;" d="M 70.121094 163.449219 C 55.054688 163.449219 42.730469 151.109375 42.730469 136.023438 C 42.730469 120.941406 55.054688 108.601562 70.121094 108.601562 C 85.1875 108.601562 97.511719 120.941406 97.511719 136.023438 C 97.511719 151.109375 85.1875 163.449219 70.121094 163.449219 Z M 70.121094 113.8125 C 58.070312 113.8125 48.207031 123.6875 48.207031 135.75 C 48.207031 147.816406 58.070312 157.6875 70.121094 157.6875 C 82.175781 157.6875 92.035156 147.816406 92.035156 135.75 C 92.035156 123.683594 82.175781 113.8125 70.121094 113.8125 Z M 70.121094 113.8125 "/>
<path style=" stroke:none;fill-rule:nonzero;fill:rgb(88.627451%,43.921569%,13.333333%);fill-opacity:1;" d="M 595.761719 170.03125 C 586.71875 170.03125 579.324219 162.628906 579.324219 153.574219 C 579.324219 144.527344 586.71875 137.121094 595.761719 137.121094 C 604.796875 137.121094 612.195312 144.527344 612.195312 153.574219 C 612.195312 162.625 604.796875 170.03125 595.761719 170.03125 Z M 595.761719 142.605469 C 589.730469 142.605469 584.804688 147.546875 584.804688 153.574219 C 584.804688 159.613281 589.730469 164.546875 595.761719 164.546875 C 601.785156 164.546875 606.71875 159.613281 606.71875 153.574219 C 606.71875 147.542969 601.785156 142.605469 595.761719 142.605469 Z M 595.761719 142.605469 "/>
<path style=" stroke:none;fill-rule:nonzero;fill:rgb(88.627451%,43.921569%,13.333333%);fill-opacity:1;" d="M 560.152344 163.996094 C 523.992188 163.996094 494.414062 134.375 494.414062 98.179688 C 494.414062 61.980469 523.992188 32.359375 560.152344 32.359375 C 596.304688 32.359375 625.890625 61.980469 625.890625 98.179688 C 625.890625 134.378906 596.578125 163.996094 560.152344 163.996094 Z M 560.152344 37.84375 C 527.007812 37.84375 499.890625 64.996094 499.890625 98.179688 C 499.890625 131.363281 527.007812 158.511719 560.152344 158.511719 C 593.296875 158.511719 620.414062 131.363281 620.414062 98.179688 C 620.414062 64.996094 593.296875 37.84375 560.152344 37.84375 Z M 560.152344 37.84375 "/>
<path style=" stroke:none;fill-rule:nonzero;fill:rgb(88.627451%,43.921569%,13.333333%);fill-opacity:1;" d="M 540.425781 98.179688 C 540.425781 101.207031 537.976562 103.664062 534.949219 103.664062 C 531.925781 103.664062 529.472656 101.207031 529.472656 98.179688 C 529.472656 95.148438 531.925781 92.695312 534.949219 92.695312 C 537.976562 92.695312 540.425781 95.148438 540.425781 98.179688 Z M 540.425781 98.179688 "/>
<path style=" stroke:none;fill-rule:nonzero;fill:rgb(88.627451%,43.921569%,13.333333%);fill-opacity:1;" d="M 565.628906 98.179688 C 565.628906 101.207031 563.175781 103.664062 560.152344 103.664062 C 557.125 103.664062 554.675781 101.207031 554.675781 98.179688 C 554.675781 95.148438 557.125 92.695312 560.152344 92.695312 C 563.175781 92.695312 565.628906 95.148438 565.628906 98.179688 Z M 565.628906 98.179688 "/>
<path style=" stroke:none;fill-rule:nonzero;fill:rgb(88.627451%,43.921569%,13.333333%);fill-opacity:1;" d="M 590.832031 98.179688 C 590.832031 101.207031 588.378906 103.664062 585.351562 103.664062 C 582.328125 103.664062 579.875 101.207031 579.875 98.179688 C 579.875 95.148438 582.328125 92.695312 585.351562 92.695312 C 588.378906 92.695312 590.832031 95.148438 590.832031 98.179688 Z M 590.832031 98.179688 "/>
<path style=" stroke:none;fill-rule:nonzero;fill:rgb(88.627451%,43.921569%,13.333333%);fill-opacity:1;" d="M 629.179688 172.222656 C 629.179688 176.769531 625.5 180.453125 620.960938 180.453125 C 616.421875 180.453125 612.742188 176.769531 612.742188 172.222656 C 612.742188 167.679688 616.421875 163.996094 620.960938 163.996094 C 625.5 163.996094 629.179688 167.679688 629.179688 172.222656 Z M 629.179688 172.222656 "/>
<path style=" stroke:none;fill-rule:nonzero;fill:rgb(1.568627%,1.568627%,1.568627%);fill-opacity:1;" d="M 292.539062 109.421875 C 291.445312 109.421875 290.621094 108.878906 290.074219 107.777344 C 289.527344 106.40625 290.074219 104.761719 291.445312 104.210938 C 295.277344 102.292969 302.949219 101.191406 311.4375 101.191406 C 319.109375 101.191406 325.957031 102.289062 329.515625 104.210938 C 330.882812 104.761719 331.433594 106.40625 330.609375 107.777344 C 330.066406 109.148438 328.417969 109.695312 327.050781 108.875 C 324.308594 107.503906 318.011719 106.40625 311.4375 106.40625 C 302.945312 106.40625 296.644531 107.503906 293.90625 108.875 C 293.359375 109.421875 293.085938 109.421875 292.539062 109.421875 Z M 292.539062 109.421875 "/>
<path style=" stroke:none;fill-rule:nonzero;fill:rgb(1.568627%,1.568627%,1.568627%);fill-opacity:1;" d="M 276.105469 59.238281 C 275.28125 59.238281 274.460938 58.960938 273.914062 58.140625 C 272.816406 57.042969 273.089844 55.121094 274.1875 54.300781 C 276.105469 52.65625 281.855469 48.816406 289.527344 49.089844 C 295.824219 49.363281 300.207031 52.378906 302.398438 54.300781 C 303.496094 55.398438 303.769531 57.042969 302.675781 58.140625 C 301.578125 59.238281 299.933594 59.511719 298.839844 58.414062 C 297.195312 57.042969 293.910156 54.847656 289.253906 54.574219 C 283.5 54.300781 279.117188 57.042969 277.746094 58.414062 C 277.472656 59.238281 276.925781 59.238281 276.105469 59.238281 Z M 276.105469 59.238281 "/>
<path style=" stroke:none;fill-rule:nonzero;fill:rgb(1.568627%,1.568627%,1.568627%);fill-opacity:1;" d="M 334.992188 59.238281 C 327.871094 59.238281 322.667969 55.671875 320.753906 54.027344 C 319.65625 52.929688 319.382812 51.285156 320.476562 50.1875 C 321.570312 49.089844 323.21875 48.816406 324.308594 49.914062 C 325.957031 51.285156 330.066406 54.027344 335.816406 53.75 C 340.46875 53.476562 343.757812 51.285156 345.402344 49.914062 C 346.496094 48.816406 348.414062 49.089844 349.238281 50.1875 C 350.328125 51.285156 350.054688 53.203125 348.960938 54.027344 C 346.769531 55.671875 342.386719 58.6875 336.085938 59.238281 C 335.816406 59.238281 335.542969 59.238281 334.992188 59.238281 Z M 334.992188 59.238281 "/>
<path style=" stroke:none;fill-rule:nonzero;fill:rgb(0%,0%,0%);fill-opacity:1;" d="M 380.464844 29.890625 C 380.1875 29.890625 379.917969 29.890625 379.917969 29.890625 C 378.546875 29.617188 377.453125 27.972656 378.003906 26.601562 L 379.371094 21.390625 C 379.644531 20.566406 379.917969 20.019531 380.464844 19.746094 C 381.011719 19.472656 381.835938 19.195312 382.65625 19.472656 C 386.765625 20.566406 390.875 18.375 391.699219 14.535156 C 392.515625 10.96875 389.777344 7.128906 385.667969 6.035156 C 382.113281 5.210938 378.546875 6.582031 377.179688 9.597656 C 376.628906 10.96875 374.988281 11.519531 373.617188 10.96875 C 372.246094 10.421875 371.699219 8.777344 372.246094 7.40625 C 374.710938 2.195312 381.011719 -0.546875 387.035156 0.824219 C 394.160156 2.46875 398.542969 9.324219 396.898438 15.90625 C 395.53125 21.664062 390.050781 25.503906 384.027344 25.230469 L 383.203125 28.246094 C 382.65625 28.796875 381.558594 29.890625 380.464844 29.890625 Z M 380.464844 29.890625 "/>
<path style=" stroke:none;fill-rule:nonzero;fill:rgb(88.627451%,43.921569%,13.333333%);fill-opacity:1;" d="M 311.714844 153.300781 C 275.554688 153.300781 245.972656 123.683594 245.972656 87.484375 C 245.972656 51.285156 275.554688 21.664062 311.714844 21.664062 C 347.871094 21.664062 377.453125 51.285156 377.453125 87.484375 C 377.449219 123.683594 348.144531 153.300781 311.714844 153.300781 Z M 311.714844 27.148438 C 278.570312 27.148438 251.453125 54.300781 251.453125 87.484375 C 251.453125 120.667969 278.570312 147.816406 311.714844 147.816406 C 344.855469 147.816406 371.972656 120.667969 371.972656 87.484375 C 371.972656 54.300781 345.128906 27.148438 311.714844 27.148438 Z M 311.714844 27.148438 "/>
<path style=" stroke:none;fill-rule:nonzero;fill:rgb(88.627451%,43.921569%,13.333333%);fill-opacity:1;" d="M 382.65625 40.3125 C 382.65625 43.34375 380.203125 45.796875 377.179688 45.796875 C 374.152344 45.796875 371.699219 43.34375 371.699219 40.3125 C 371.699219 37.285156 374.152344 34.828125 377.179688 34.828125 C 380.203125 34.828125 382.65625 37.285156 382.65625 40.3125 Z M 382.65625 40.3125 "/>
<path style=" stroke:none;fill-rule:nonzero;fill:rgb(88.627451%,43.921569%,13.333333%);fill-opacity:1;" d="M 344.578125 72.949219 C 344.578125 77.492188 340.902344 81.175781 336.363281 81.175781 C 331.824219 81.175781 328.144531 77.492188 328.144531 72.949219 C 328.144531 68.40625 331.824219 64.722656 336.363281 64.722656 C 340.902344 64.722656 344.578125 68.40625 344.578125 72.949219 Z M 344.578125 72.949219 "/>
<path style=" stroke:none;fill-rule:nonzero;fill:rgb(88.627451%,43.921569%,13.333333%);fill-opacity:1;" d="M 297.195312 72.949219 C 297.195312 77.492188 293.515625 81.175781 288.976562 81.175781 C 284.441406 81.175781 280.761719 77.492188 280.761719 72.949219 C 280.761719 68.40625 284.441406 64.722656 288.976562 64.722656 C 293.515625 64.722656 297.195312 68.40625 297.195312 72.949219 Z M 297.195312 72.949219 "/>
</g>
</svg>
