<?xml version="1.0" encoding="utf-8"?>
<!-- Generator: Adobe Illustrator 16.0.4, SVG Export Plug-In . SVG Version: 6.00 Build 0)  -->
<!DOCTYPE svg PUBLIC "-//W3C//DTD SVG 1.1//EN" "http://www.w3.org/Graphics/SVG/1.1/DTD/svg11.dtd">
<svg version="1.1" id="Ebene_3" xmlns="http://www.w3.org/2000/svg" xmlns:xlink="http://www.w3.org/1999/xlink" x="0px" y="0px"
	 width="24px" height="24px" viewBox="467.977 272.986 24 24" enable-background="new 467.977 272.986 24 24" xml:space="preserve">
<g id="_xDB80__xDC3B__1_">
	<polygon fill="#818080" points="477.531,287.5 478.993,289.043 481.182,288.873 489.002,279.73 489.674,277.752 488.746,276.448 
		486.682,274.683 484.998,274.263 483.693,275.19 480.205,279.221 481.975,280.732 484.957,277.293 485.758,276.957 
		487.232,278.218 486.734,278.77 480.426,286.143 479.622,286.516 479.045,285.732 	"/>
	<path fill="none" stroke="#818080" stroke-linecap="round" stroke-linejoin="round" stroke-miterlimit="10" d="M480.485,278.79
		l3.279-3.834c0.834-0.973,2.311-1.087,3.283-0.254l1.77,1.513c0.973,0.832,1.088,2.309,0.256,3.282l-7.316,8.553
		c-0.832,0.973-2.309,1.087-3.282,0.255l-0.589-0.505"/>
	<path fill="none" stroke="#818080" stroke-linecap="round" stroke-linejoin="round" stroke-miterlimit="10" d="M482.256,280.304
		l2.771-3.245c0.279-0.325,0.713-0.412,0.979-0.187l0.795,0.682c0.266,0.227,0.246,0.669-0.031,0.993l-6.306,7.373
		c-0.278,0.322-0.712,0.412-0.977,0.185l-0.089-0.075"/>
	<polygon fill="#818080" points="482.172,282.312 480.656,280.979 478.467,281.148 470.647,290.291 469.977,292.268 
		470.903,293.573 472.967,295.337 474.652,295.757 475.955,294.83 479.5,290.609 477.731,289.098 474.69,292.727 473.891,293.063 
		472.417,291.805 472.833,291.169 479.14,283.796 480.027,283.504 480.6,284.025 	"/>
	<path fill="none" stroke="#818080" stroke-linecap="round" stroke-linejoin="round" stroke-miterlimit="10" d="M479.234,290.996
		l-3.279,3.834c-0.832,0.973-2.31,1.089-3.283,0.257l-1.769-1.514c-0.973-0.832-1.088-2.31-0.256-3.282l7.315-8.553
		c0.833-0.973,2.309-1.087,3.283-0.255l0.59,0.505"/>
	<path fill="none" stroke="#818080" stroke-linecap="round" stroke-linejoin="round" stroke-miterlimit="10" d="M477.465,289.482
		l-2.774,3.244c-0.277,0.325-0.71,0.415-0.977,0.187l-0.796-0.682c-0.265-0.226-0.244-0.67,0.033-0.992l6.307-7.371
		c0.277-0.325,0.71-0.415,0.976-0.187"/>
</g>
</svg>
