<?xml version="1.0" encoding="utf-8"?>
<!-- Generator: Adobe Illustrator 16.0.4, SVG Export Plug-In . SVG Version: 6.00 Build 0)  -->
<!DOCTYPE svg PUBLIC "-//W3C//DTD SVG 1.1//EN" "http://www.w3.org/Graphics/SVG/1.1/DTD/svg11.dtd">
<svg version="1.1" id="Ebene_1" xmlns="http://www.w3.org/2000/svg" xmlns:xlink="http://www.w3.org/1999/xlink" x="0px" y="0px"
	 width="491.8px" height="107.7px" viewBox="0 0 491.8 107.7" enable-background="new 0 0 491.8 107.7" xml:space="preserve">
<g>
	<path d="M92.5,20.3h-9c-1.2,0-2.3-1-2.3-2.3V2.3c0-1.2,1-2.3,2.3-2.3h9c1.2,0,2.3,1,2.3,2.3s-1,2.3-2.3,2.3h-6.8v11.3h6.8
		c1.2,0,2.3,1,2.3,2.3S93.7,20.3,92.5,20.3z"/>
	<path d="M90.2,12.4h-6.8c-1.2,0-2.3-1-2.3-2.3s1-2.3,2.3-2.3h6.8c1.2,0,2.3,1,2.3,2.3S91.5,12.4,90.2,12.4z"/>
</g>
<g>
	<path d="M15.8,20.3c-0.9,0-1.7-0.5-2.1-1.4L9,8L4.3,19c-0.5,1.1-1.8,1.7-3,1.2c-1.1-0.5-1.7-1.8-1.2-3L7,1.4C7.3,0.6,8.1,0,9,0
		s1.7,0.5,2.1,1.4l6.8,15.8c0.5,1.1,0,2.5-1.2,3C16.4,20.3,16.1,20.3,15.8,20.3z"/>
	<path d="M13.5,16.5h-9c-1.2,0-2.3-1-2.3-2.3c0-1.2,1-2.3,2.3-2.3h9c1.2,0,2.3,1,2.3,2.3C15.8,15.5,14.8,16.5,13.5,16.5z"/>
</g>
<path fill="none" stroke="#000000" stroke-width="2" stroke-linecap="round" stroke-linejoin="round" stroke-miterlimit="10" d="
	M165.9,17.4"/>
<path d="M101.5,20.3c-1.2,0-2.3-1-2.3-2.3V2.3c0-1.2,1-2.3,2.3-2.3h9c1.2,0,2.3,1,2.3,2.3s-1,2.3-2.3,2.3h-6.8v3.4h4.5
	c1.2,0,2.3,1,2.3,2.3s-1,2.3-2.3,2.3h-4.5v5.6C103.8,19.3,102.8,20.3,101.5,20.3z"/>
<g>
	<path d="M137.6,20.3c-1.2,0-2.3-1-2.3-2.3V2.3c0-1.2,1-2.3,2.3-2.3s2.3,1,2.3,2.3v15.8C139.9,19.3,138.9,20.3,137.6,20.3z"/>
	<path d="M146.6,20.3c-1.2,0-2.3-1-2.3-2.3V2.3c0-1.2,1-2.3,2.3-2.3s2.3,1,2.3,2.3v15.8C148.9,19.3,147.9,20.3,146.6,20.3z"/>
	<path d="M146.6,12.4h-9c-1.2,0-2.3-1-2.3-2.3s1-2.3,2.3-2.3h9c1.2,0,2.3,1,2.3,2.3S147.9,12.4,146.6,12.4z"/>
</g>
<path d="M157.9,20.3c-1.2,0-2.3-1-2.3-2.3V2.3c0-1.2,1-2.3,2.3-2.3c1.2,0,2.3,1,2.3,2.3v15.8C160.2,19.3,159.2,20.3,157.9,20.3z"/>
<path d="M257.2,20.3c-0.7,0-1.4-0.3-1.8-0.9l-7.2-10.1v8.8c0,1.2-1,2.3-2.3,2.3s-2.3-1-2.3-2.3V2.3c0-1,0.6-1.8,1.6-2.1
	c0.9-0.3,2,0,2.5,0.8l7.2,10.1V2.3c0-1.2,1-2.3,2.3-2.3c1.2,0,2.3,1,2.3,2.3v15.8c0,1-0.6,1.8-1.6,2.1
	C257.6,20.3,257.4,20.3,257.2,20.3z"/>
<g>
	<path d="M185,20.3c-1.2,0-2.3-1-2.3-2.3V2.3c0-1.2,1-2.3,2.3-2.3s2.3,1,2.3,2.3v15.8C187.2,19.3,186.2,20.3,185,20.3z"/>
	<path d="M185,14.8c-0.5,0-1.1-0.2-1.5-0.6c-0.9-0.8-1-2.2-0.2-3.2l9-10.2c0.8-0.9,2.2-1,3.2-0.2c0.9,0.8,1,2.2,0.2,3.2l-9,10.2
		C186.2,14.5,185.6,14.8,185,14.8z"/>
	<path d="M194.7,20.3c-0.8,0-1.6-0.4-2-1.2l-5.4-10.5c-0.6-1.1-0.1-2.5,1-3c1.1-0.6,2.5-0.1,3,1l5.4,10.5c0.6,1.1,0.1,2.5-1,3
		C195.4,20.2,195.1,20.3,194.7,20.3z"/>
</g>
<path d="M212.1,20.3h-6.8c-1.2,0-2.3-1-2.3-2.3V2.3c0-1.2,1-2.3,2.3-2.3s2.3,1,2.3,2.3v13.5h4.5c1.2,0,2.3,1,2.3,2.3
	S213.3,20.3,212.1,20.3z"/>
<path d="M234.6,20.3c-1.2,0-2.3-1-2.3-2.3v-6.2l-2.5,5c-0.8,1.5-3.3,1.5-4,0l-2.5-5v6.2c0,1.2-1,2.3-2.3,2.3c-1.2,0-2.3-1-2.3-2.3
	V2.3c0-1,0.7-2,1.7-2.2c1-0.2,2.1,0.2,2.5,1.2l4.8,9.5l4.8-9.5c0.5-0.9,1.5-1.4,2.5-1.2c1,0.2,1.7,1.2,1.7,2.2v15.8
	C236.9,19.3,235.9,20.3,234.6,20.3z"/>
<path d="M271.8,20.3c-4.4,0-7.9-3.5-7.9-7.9V7.9c0-4.4,3.5-7.9,7.9-7.9c4.4,0,7.9,3.5,7.9,7.9v4.5C279.7,16.8,276.2,20.3,271.8,20.3
	z M271.8,4.5c-1.9,0-3.4,1.5-3.4,3.4v4.5c0,1.9,1.5,3.4,3.4,3.4s3.4-1.5,3.4-3.4V7.9C275.2,6,273.7,4.5,271.8,4.5z"/>
<path d="M156.7,61.2c-3.6,0-6.6-3-6.6-6.6v-7.1c0-3.6,2.9-6.6,6.6-6.6c3.6,0,6.6,3,6.6,6.6v7.1C163.3,58.3,160.4,61.2,156.7,61.2z
	 M156.7,45.4c-1.1,0-2.1,0.9-2.1,2.1v7.1c0,1.1,0.9,2.1,2.1,2.1s2.1-0.9,2.1-2.1v-7.1C158.8,46.4,157.9,45.4,156.7,45.4z"/>
<path d="M28.1,61.2h-9.7c-0.9,0-1.7-0.5-2.1-1.3c-0.4-0.8-0.2-1.8,0.4-2.4l8.2-9.3c0.5-0.6,0.6-1.5,0.1-2c-0.5-0.5-1.1-0.8-1.8-0.8
	c-1.2,0-2.3,0.9-2.5,2.1c-0.2,1.2-1.4,2-2.7,1.8c-1.2-0.2-2-1.4-1.8-2.7c0.7-3.3,3.6-5.7,7-5.7c1.9,0,3.7,0.7,5,2.1
	c2.2,2.2,2.2,5.8,0.1,8.2l-4.9,5.5h4.7c1.2,0,2.3,1,2.3,2.3C30.4,60.2,29.3,61.2,28.1,61.2z"/>
<path d="M39.9,61.2c-3.1,0-5.9-2.1-6.6-4.9c-0.3-1.2,0.5-2.4,1.7-2.7c1.2-0.3,2.4,0.5,2.7,1.7c0.2,0.8,1.1,1.4,2.2,1.4
	c1.2,0,2.2-0.8,2.2-1.7c0-0.9-1-1.7-2.2-1.7c-1.2,0-2.3-1-2.3-2.3s1-2.3,2.3-2.3c1.2,0,2.2-0.8,2.2-1.7c0-0.9-1-1.7-2.2-1.7
	c-1,0-2,0.6-2.2,1.4c-0.3,1.2-1.5,2-2.7,1.7c-1.2-0.3-2-1.5-1.7-2.7c0.7-2.8,3.4-4.9,6.6-4.9c3.7,0,6.7,2.8,6.7,6.2
	c0,1.5-0.6,2.9-1.5,3.9c1,1.1,1.5,2.5,1.5,3.9C46.6,58.5,43.6,61.2,39.9,61.2z"/>
<path d="M348.4,20.3c-3.4,0-6.3-2-7-4.8c-0.3-1.2,0.4-2.4,1.6-2.7c1.2-0.3,2.4,0.4,2.7,1.6c0.2,0.7,1.2,1.5,2.7,1.5
	c1.5,0,2.7-0.9,2.7-1.7s-1.2-1.7-2.7-1.7c-0.1,0-0.2,0-0.4,0c-3.8-0.2-6.8-2.9-6.8-6.2c0-3.4,3.2-6.2,7.2-6.2c3.4,0,6.3,2,7,4.8
	c0.3,1.2-0.4,2.4-1.6,2.7c-1.2,0.3-2.4-0.4-2.7-1.6c-0.2-0.7-1.2-1.5-2.7-1.5c-1.5,0-2.7,0.9-2.7,1.7s1.2,1.7,2.7,1.7
	c0.1,0,0.2,0,0.4,0c3.8,0.2,6.8,2.9,6.8,6.2C355.6,17.5,352.4,20.3,348.4,20.3z"/>
<path d="M48.5,20.3c-4.4,0-7.9-3.5-7.9-7.9c0,0,0,0,0,0V7.9c0,0,0,0,0,0c0-4.4,3.5-7.9,7.9-7.9c1.9,0,3.8,0.7,5.2,2
	c0.9,0.8,1,2.3,0.2,3.2c-0.8,0.9-2.3,1-3.2,0.2c-0.6-0.5-1.4-0.9-2.2-0.9c-1.9,0-3.4,1.5-3.4,3.4v4.5c0,1.9,1.5,3.4,3.4,3.4
	c0.8,0,1.6-0.3,2.2-0.9c0.9-0.8,2.4-0.7,3.2,0.2c0.8,0.9,0.7,2.4-0.2,3.2C52.3,19.6,50.4,20.3,48.5,20.3z"/>
<path d="M123,20.3c-4.4,0-7.9-3.5-7.9-7.9V7.9c0-4.4,3.5-7.9,7.9-7.9c1.9,0,3.8,0.7,5.2,2c0.9,0.8,1,2.3,0.2,3.2
	c-0.8,0.9-2.3,1-3.2,0.2c-0.6-0.5-1.4-0.9-2.2-0.9c-1.9,0-3.4,1.5-3.4,3.4v4.5c0,1.9,1.5,3.4,3.4,3.4c1.9,0,3.4-1.5,3.4-3.4v0h-2.3
	c-1.2,0-2.3-1-2.3-2.3s1-2.3,2.3-2.3h4.5c1.2,0,2.3,1,2.3,2.3v2.3C130.8,16.8,127.3,20.3,123,20.3z"/>
<path d="M168.1,20.3c-2,0-3.8-0.7-5.3-2c-0.9-0.8-1-2.3-0.2-3.2c0.8-0.9,2.3-1,3.2-0.2c0.6,0.6,1.4,0.9,2.3,0.9
	c1.9,0,3.4-1.5,3.4-3.4V2.3c0-1.2,1-2.3,2.3-2.3s2.3,1,2.3,2.3v10.2C176,16.8,172.4,20.3,168.1,20.3z"/>
<path d="M384.6,20.3c-4.4,0-7.9-3.5-7.9-7.9V2.3c0-1.2,1-2.3,2.3-2.3s2.3,1,2.3,2.3v10.2c0,1.9,1.5,3.4,3.4,3.4s3.4-1.5,3.4-3.4V2.3
	c0-1.2,1-2.3,2.3-2.3c1.2,0,2.3,1,2.3,2.3v10.2C392.5,16.8,389,20.3,384.6,20.3z"/>
<g>
	<path d="M310.2,20.3c-4.4,0-7.9-3.5-7.9-7.9V7.9c0-4.4,3.5-7.9,7.9-7.9s7.9,3.5,7.9,7.9v4.5C318.1,16.8,314.6,20.3,310.2,20.3z
		 M310.2,4.5c-1.9,0-3.4,1.5-3.4,3.4v4.5c0,1.9,1.5,3.4,3.4,3.4s3.4-1.5,3.4-3.4V7.9C313.6,6,312.1,4.5,310.2,4.5z"/>
	<path d="M315.8,20.3c-0.6,0-1.1-0.2-1.6-0.7l-3.8-3.8c-0.4-0.4-0.7-1-0.7-1.6c0-0.6,0.2-1.1,0.7-1.6c0.9-0.9,2.3-0.9,3.2,0l3.8,3.8
		c0.4,0.4,0.7,1,0.7,1.6c0,0.6-0.2,1.2-0.7,1.6C317,20.1,316.4,20.3,315.8,20.3z"/>
</g>
<g>
	<path d="M370,4.5h-9c-1.2,0-2.3-1-2.3-2.3s1-2.3,2.3-2.3h9c1.2,0,2.3,1,2.3,2.3S371.2,4.5,370,4.5z"/>
	<path d="M365.5,20.3c-1.2,0-2.3-1-2.3-2.3V2.3c0-1.2,1-2.3,2.3-2.3s2.3,1,2.3,2.3v15.8C367.7,19.3,366.7,20.3,365.5,20.3z"/>
</g>
<path d="M403.8,20.3c-1,0-1.9-0.7-2.2-1.6l-4.5-15.8c-0.3-1.2,0.4-2.4,1.6-2.8c1.2-0.3,2.4,0.4,2.8,1.6l2.3,8.2l2.3-8.2
	c0.3-1.2,1.6-1.9,2.8-1.6c1.2,0.3,1.9,1.6,1.6,2.8L406,18.7C405.7,19.7,404.8,20.3,403.8,20.3z"/>
<path d="M430.9,20.3c-1,0-1.9-0.7-2.2-1.6l-2.3-8.2l-2.3,8.2c-0.3,1-1.2,1.6-2.2,1.6s-1.9-0.7-2.2-1.6l-4.5-15.8
	c-0.3-1.2,0.4-2.4,1.6-2.8c1.2-0.3,2.4,0.4,2.8,1.6l2.3,8.2l2.3-8.2c0.3-1,1.2-1.6,2.2-1.6s1.9,0.7,2.2,1.6l2.3,8.2l2.3-8.2
	c0.3-1.2,1.6-1.9,2.8-1.6c1.2,0.3,1.9,1.6,1.6,2.8l-4.5,15.8C432.8,19.7,431.9,20.3,430.9,20.3z"/>
<g>
	<path d="M453.5,20.3c-0.8,0-1.5-0.4-2-1.1l-9-15.8c-0.6-1.1-0.2-2.5,0.8-3.1c1.1-0.6,2.5-0.2,3.1,0.8l9,15.8
		c0.6,1.1,0.2,2.5-0.8,3.1C454.2,20.2,453.8,20.3,453.5,20.3z"/>
	<path d="M444.4,20.3c-0.4,0-0.8-0.1-1.1-0.3c-1.1-0.6-1.5-2-0.8-3.1l9-15.8c0.6-1.1,2-1.5,3.1-0.8c1.1,0.6,1.5,2,0.8,3.1l-9,15.8
		C446,19.9,445.2,20.3,444.4,20.3z"/>
</g>
<path d="M467,20.3c-1.2,0-2.3-1-2.3-2.3v-6.2l-4.3-8.5c-0.6-1.1-0.1-2.5,1-3c1.1-0.6,2.5-0.1,3,1l2.5,5l2.5-5c0.6-1.1,1.9-1.6,3-1
	c0.8,0.4,1.2,1.2,1.2,2c0,0.3-0.1,0.7-0.2,1l-4.3,8.5v6.2C469.2,19.3,468.2,20.3,467,20.3z"/>
<path d="M489.5,20.3h-9c-0.8,0-1.5-0.4-2-1.1c-0.4-0.7-0.4-1.6,0-2.3l7.1-12.4h-5.1c-1.2,0-2.3-1-2.3-2.3s1-2.3,2.3-2.3h9
	c0.8,0,1.5,0.4,2,1.1c0.4,0.7,0.4,1.6,0,2.3l-7.1,12.4h5.1c1.2,0,2.3,1,2.3,2.3S490.8,20.3,489.5,20.3z"/>
<path d="M23.8,20.3c-1.2,0-2.3-1-2.3-2.3V2.3c0-1.2,1-2.3,2.3-2.3s2.3,1,2.3,2.3v15.8C26.1,19.3,25.1,20.3,23.8,20.3z"/>
<path d="M7.3,61.2c-1.2,0-2.3-1-2.3-2.3V47.7l-0.8,0.6c-1,0.7-2.4,0.5-3.2-0.5c-0.7-1-0.5-2.4,0.5-3.2L6,41.4
	c0.7-0.5,1.6-0.6,2.4-0.2c0.8,0.4,1.2,1.2,1.2,2V59C9.6,60.2,8.6,61.2,7.3,61.2z"/>
<path d="M287.1,20.3c-1.2,0-2.3-1-2.3-2.3V2.3c0-1.2,1-2.3,2.3-2.3h6c3.4,0,6.2,2.8,6.2,6.2c0,3.4-2.8,6.2-6.2,6.2h-3.8v5.7
	C289.3,19.3,288.3,20.3,287.1,20.3z M289.3,7.9h3.8c0.9,0,1.7-0.8,1.7-1.7c0-0.9-0.8-1.7-1.7-1.7h-3.8V7.9z"/>
<g>
	<path d="M29.9,12.4h-6c-1.2,0-2.3-1-2.3-2.3V2.3c0-1.2,1-2.3,2.3-2.3h6c3.4,0,6.2,2.8,6.2,6.2C36.1,9.6,33.3,12.4,29.9,12.4z
		 M26.1,7.9h3.8c0.9,0,1.7-0.8,1.7-1.7c0-0.9-0.8-1.7-1.7-1.7h-3.8V7.9z"/>
	<path d="M29.9,20.3h-6c-1.2,0-2.3-1-2.3-2.3v-7.9c0-1.2,1-2.3,2.3-2.3h6c3.4,0,6.2,2.8,6.2,6.2C36.1,17.5,33.3,20.3,29.9,20.3z
		 M26.1,15.7h3.8c0.9,0,1.7-0.8,1.7-1.7c0-0.9-0.8-1.7-1.7-1.7h-3.8V15.7z"/>
</g>
<path d="M67.9,20.3h-5.5c-1.2,0-2.3-1-2.3-2.3V2.3c0-1.2,1-2.3,2.3-2.3h5.5c3.8,0,6.9,3.1,6.9,6.9v6.3
	C74.8,17.1,71.7,20.3,67.9,20.3z M64.6,15.7h3.2c1.3,0,2.4-1.1,2.4-2.4V7c0-1.3-1.1-2.4-2.4-2.4h-3.2V15.7z"/>
<g>
	<path d="M325.3,20.3c-1.2,0-2.3-1-2.3-2.3V2.3c0-1.2,1-2.3,2.3-2.3h6c3.4,0,6.2,2.8,6.2,6.2c0,3.4-2.8,6.2-6.2,6.2h-3.8v5.7
		C327.5,19.3,326.5,20.3,325.3,20.3z M327.5,7.9h3.8c0.9,0,1.7-0.8,1.7-1.7c0-0.9-0.8-1.7-1.7-1.7h-3.8V7.9z"/>
	<path d="M334.7,20.3c-0.9,0-1.7-0.5-2.1-1.4l-3.4-7.9c-0.5-1.1,0-2.5,1.2-3c1.1-0.5,2.5,0,3,1.2l3.4,7.9c0.5,1.1,0,2.5-1.2,3
		C335.3,20.3,335,20.3,334.7,20.3z"/>
</g>
<g>
	<path d="M61,58.7h-9.2c-0.8,0-1.5-0.4-1.9-1c-0.4-0.6-0.5-1.4-0.2-2.1l5.9-13.3c0.5-1.1,1.8-1.7,3-1.2c1.1,0.5,1.7,1.8,1.1,3
		l-4.5,10.1H61c1.2,0,2.3,1,2.3,2.3C63.2,57.7,62.2,58.7,61,58.7z"/>
	<path d="M59.4,61.2c-1.2,0-2.3-1-2.3-2.3v-7.4c0-1.2,1-2.3,2.3-2.3s2.3,1,2.3,2.3V59C61.7,60.2,60.7,61.2,59.4,61.2z"/>
</g>
<path d="M73.4,61.2c-2.7,0-5-1.6-5.8-4c-0.4-1.2,0.2-2.5,1.3-2.9c1.2-0.4,2.5,0.2,2.9,1.3c0.2,0.6,0.8,1,1.5,1c1,0,1.7-0.7,1.7-1.6
	v-0.8c0-0.9-0.7-1.6-1.6-1.6h-3.7c-1.2,0-2.3-1-2.3-2.3v-7.3c0-1.2,1-2.3,2.3-2.3h7.5c1.2,0,2.3,1,2.3,2.3s-1,2.3-2.3,2.3h-5.3v2.8
	h1.3c3.5,0,6.2,2.7,6.2,6.1v0.8C79.4,58.5,76.7,61.2,73.4,61.2z"/>
<g>
	<path d="M123.6,61.2H123c-3.4,0-6.2-2.8-6.2-6.2c0-3.4,2.8-6.2,6.2-6.2h0.6c3.4,0,6.2,2.8,6.2,6.2C129.8,58.4,127,61.2,123.6,61.2z
		 M123,53.3c-0.9,0-1.7,0.8-1.7,1.7s0.8,1.7,1.7,1.7h0.6c0.9,0,1.7-0.8,1.7-1.7s-0.8-1.7-1.7-1.7H123z"/>
	<path d="M123.6,53.3H123c-3.4,0-6.2-2.8-6.2-6.2s2.8-6.2,6.2-6.2h0.6c3.4,0,6.2,2.8,6.2,6.2S127,53.3,123.6,53.3z M123,45.4
		c-0.9,0-1.7,0.8-1.7,1.7s0.8,1.7,1.7,1.7h0.6c0.9,0,1.7-0.8,1.7-1.7s-0.8-1.7-1.7-1.7H123z"/>
</g>
<g>
	<path d="M89.7,61.2c-3.3,0-6-2.7-6-6v-0.9c0-3.3,2.7-6,6-6c3.3,0,6,2.7,6,6v0.9C95.8,58.5,93.1,61.2,89.7,61.2z M89.7,52.8
		c-0.8,0-1.5,0.7-1.5,1.5v0.9c0,0.8,0.7,1.5,1.5,1.5s1.5-0.7,1.5-1.5v-0.9C91.3,53.4,90.6,52.8,89.7,52.8z"/>
	<path d="M86.5,54.6c-0.3,0-0.6-0.1-0.9-0.2c-1.1-0.5-1.6-1.8-1.1-3l4.1-9.2c0.5-1.1,1.8-1.7,3-1.1c1.1,0.5,1.6,1.8,1.1,3l-4.1,9.2
		C88.2,54.1,87.3,54.6,86.5,54.6z"/>
</g>
<g>
	<path d="M140.1,53.9c-3.3,0-6-2.7-6-6V47c0-3.3,2.7-6,6-6c3.3,0,6,2.7,6,6v0.9C146.1,51.2,143.4,53.9,140.1,53.9z M140.1,45.4
		c-0.8,0-1.5,0.7-1.5,1.5v0.9c0,0.8,0.7,1.5,1.5,1.5c0.8,0,1.5-0.7,1.5-1.5V47C141.6,46.1,140.9,45.4,140.1,45.4z"/>
	<path d="M139.3,61.2c-0.3,0-0.6-0.1-0.9-0.2c-1.1-0.5-1.6-1.8-1.1-3l4.1-9.2c0.5-1.1,1.8-1.7,3-1.1c1.1,0.5,1.6,1.8,1.1,3l-4.1,9.2
		C140.9,60.7,140.1,61.2,139.3,61.2z"/>
</g>
<path d="M105.6,61.2c-0.2,0-0.5,0-0.7-0.1c-1.2-0.4-1.8-1.7-1.4-2.9l4.4-12.8h-3.5v1.6c0,1.2-1,2.3-2.3,2.3s-2.3-1-2.3-2.3v-3.9
	c0-1.2,1-2.3,2.3-2.3h8.9c0.7,0,1.4,0.4,1.8,0.9c0.4,0.6,0.5,1.4,0.3,2l-5.5,15.8C107.4,60.7,106.5,61.2,105.6,61.2z"/>
<g>
	<path d="M8,103.9c-3.4,0-6.3-2-7-4.8c-0.3-1.2,0.4-2.4,1.6-2.7C3.8,96,5,96.8,5.3,98c0.2,0.7,1.2,1.5,2.7,1.5
		c1.5,0,2.7-0.9,2.7-1.7S9.5,96,8,96c-0.1,0-0.2,0-0.4,0c-3.8-0.2-6.8-2.9-6.8-6.2c0-3.4,3.2-6.2,7.2-6.2c3.4,0,6.3,2,7,4.8
		c0.3,1.2-0.4,2.4-1.6,2.7c-1.2,0.3-2.4-0.4-2.7-1.6c-0.2-0.7-1.2-1.5-2.7-1.5c-1.5,0-2.7,0.9-2.7,1.7s1.2,1.7,2.7,1.7
		c0.1,0,0.2,0,0.4,0c3.8,0.2,6.8,2.9,6.8,6.2C15.2,101.2,12,103.9,8,103.9z"/>
	<path d="M8,88.1c-1.2,0-2.3-1-2.3-2.3v-3.8c0-1.2,1-2.3,2.3-2.3s2.3,1,2.3,2.3v3.8C10.3,87.1,9.3,88.1,8,88.1z"/>
	<path d="M8,107.7c-1.2,0-2.3-1-2.3-2.3v-3.8c0-1.2,1-2.3,2.3-2.3s2.3,1,2.3,2.3v3.8C10.3,106.7,9.3,107.7,8,107.7z"/>
</g>
<g>
	<path d="M43.8,103.9c-1.2,0-2.3-1-2.3-2.3v-6.2l-4.3-8.5c-0.6-1.1-0.1-2.5,1-3c1.1-0.6,2.5-0.1,3,1l2.5,5l2.5-5
		c0.6-1.1,1.9-1.6,3-1c0.8,0.4,1.2,1.2,1.2,2c0,0.3-0.1,0.7-0.2,1l-4.3,8.5v6.2C46.1,102.9,45.1,103.9,43.8,103.9z"/>
	<path d="M48,96h-8.5c-1.2,0-2.3-1-2.3-2.3s1-2.3,2.3-2.3H48c1.2,0,2.3,1,2.3,2.3S49.3,96,48,96z"/>
</g>
<g>
	<path d="M64,103.9c-4.4,0-7.9-3.5-7.9-7.9c0,0,0,0,0,0v-4.5c0,0,0,0,0,0c0-4.4,3.5-7.9,7.9-7.9c1.9,0,3.8,0.7,5.2,2
		c0.9,0.8,1,2.3,0.2,3.2c-0.8,0.9-2.3,1-3.2,0.2c-0.6-0.5-1.4-0.8-2.2-0.8c-1.9,0-3.4,1.5-3.4,3.4V96c0,1.9,1.5,3.4,3.4,3.4
		c0.8,0,1.6-0.3,2.2-0.8c0.9-0.8,2.4-0.7,3.2,0.2c0.8,0.9,0.7,2.4-0.2,3.2C67.8,103.2,66,103.9,64,103.9z"/>
	<path d="M63.5,96H55c-1.2,0-2.3-1-2.3-2.3s1-2.3,2.3-2.3h8.5c1.2,0,2.3,1,2.3,2.3S64.8,96,63.5,96z"/>
</g>
<g>
	<path d="M79.5,97.9c-1.2,0-2.3-1-2.3-2.3v-9.8c0-1.2,1-2.3,2.3-2.3s2.3,1,2.3,2.3v9.8C81.8,96.9,80.8,97.9,79.5,97.9z"/>
	<circle cx="79.5" cy="101.7" r="2.3"/>
</g>
<g>
	<path d="M114.6,98.3c-1.2,0-2.3-1-2.3-2.3v-2.3c0-1.2,1-2.3,2.3-2.3c1.1,0,2.1-0.8,2.1-1.7c0-0.9-0.9-1.7-2.1-1.7
		c-1,0-1.8,0.6-2,1.4c-0.3,1.2-1.5,2-2.7,1.7c-1.2-0.3-2-1.5-1.7-2.7c0.6-2.8,3.3-4.9,6.4-4.9c3.6,0,6.6,2.8,6.6,6.2
		c0,2.7-1.8,5-4.3,5.8V96C116.8,97.3,115.8,98.3,114.6,98.3z"/>
	<circle cx="114.6" cy="101.7" r="2.3"/>
</g>
<g>
	<path d="M90.7,103.9c-0.1,0-0.2,0-0.3,0c-1.2-0.2-2.1-1.3-1.9-2.6l2.4-15.8c0.2-1.2,1.3-2.1,2.6-1.9c1.2,0.2,2.1,1.3,1.9,2.6
		L93,102C92.8,103.1,91.8,103.9,90.7,103.9z"/>
	<path d="M97.8,103.9c-0.1,0-0.2,0-0.3,0c-1.2-0.2-2.1-1.3-1.9-2.6l2.4-15.8c0.2-1.2,1.3-2.1,2.6-1.9c1.2,0.2,2.1,1.3,1.9,2.6
		L100,102C99.8,103.1,98.9,103.9,97.8,103.9z"/>
	<path d="M88,92.5c-1.2,0-2.3-1-2.3-2.3c0-1.2,1-2.3,2.3-2.3l16,0h0c1.2,0,2.3,1,2.3,2.3c0,1.2-1,2.3-2.3,2.3L88,92.5L88,92.5z"/>
	<path d="M86.9,99.5c-1.2,0-2.3-1-2.3-2.3c0-1.2,1-2.3,2.3-2.3l16,0h0c1.2,0,2.3,1,2.3,2.3c0,1.2-1,2.3-2.3,2.3L86.9,99.5L86.9,99.5
		z"/>
</g>
<g>
	<path d="M25.2,96h-4C20,96,19,95,19,93.8s1-2.3,2.3-2.3h4c1.2,0,2.3,1,2.3,2.3S26.5,96,25.2,96z"/>
	<path d="M31.7,103.9h-8.4c-1.2,0-2.3-1-2.3-2.3V90.1c0-3.6,2.9-6.5,6.5-6.5c3.3,0,6.1,2.5,6.4,5.8c0.1,1.2-0.8,2.3-2,2.5
		c-1.2,0.1-2.3-0.8-2.5-2c-0.1-1-0.9-1.8-2-1.8c-1.1,0-2,0.9-2,2v9.3h6.2c1.2,0,2.3,1,2.3,2.3S32.9,103.9,31.7,103.9z"/>
</g>
</svg>
