<?xml version="1.0" encoding="utf-8"?>
<!-- Generator: Adobe Illustrator 16.0.4, SVG Export Plug-In . SVG Version: 6.00 Build 0)  -->
<!DOCTYPE svg PUBLIC "-//W3C//DTD SVG 1.1//EN" "http://www.w3.org/Graphics/SVG/1.1/DTD/svg11.dtd">
<svg version="1.1" id="Ebene_1" xmlns="http://www.w3.org/2000/svg" xmlns:xlink="http://www.w3.org/1999/xlink" x="0px" y="0px"
	 width="58.875px" height="53.771px" viewBox="0 0 58.875 53.771" enable-background="new 0 0 58.875 53.771" xml:space="preserve">
<g id="farbe">
	<path fill="#92D3F5" d="M16.5,31.771c0,0-4,1-4,3l2,2c0,0,1,4,1,6s-1,11-1,11h30c0,0-2-15-1-16s3-3,3-3c0-2-4-3-4-3"/>
	<path fill="#F1B31C" d="M19.5,31.771c-4,0-4-6-4-13s4-14,14-14s14,7,14,14s0,13-4,13"/>
	<path fill="#FCEA2B" d="M18.5,23.771c0,9,4.937,14,11,14c5.937,0,11.063-5,11.063-14c0-3-1-5-1-5c-3-3-7-8-7-8c-4,3-7,6-13,7
		C19.563,17.771,18.5,18.771,18.5,23.771z"/>
	<path fill="#FCEA2B" d="M7.468,53.771l2.938-12.306l-0.938-1.25l-4-3l-4-6c0,0-1-1,0-2s2,0,2,0l4,4c1,1,2,1,5,2s3.131,3.237,3,5
		c-0.666,8.973-1,13.556-1,13.556"/>
	<path fill="#FCEA2B" d="M13.491,35.66c0,0-1.023-2.89-2.117-5.89c-0.432-1.182-1.906-1.031-1.906-0.166c0,0.625,0,3.69,0,3.69"/>
	<path fill="#FCEA2B" d="M51.532,53.771l-2.938-12.306l0.938-1.25l4-3l4-6c0,0,1-1,0-2s-2,0-2,0l-4,4c-1,1-2,1-5,2s-3.131,3.237-3,5
		c0.667,8.973,1,13.556,1,13.556"/>
	<path fill="#FCEA2B" d="M45.51,35.66c0,0,1.022-2.89,2.116-5.89c0.431-1.182,1.906-1.031,1.906-0.166c0,0.625,0,3.69,0,3.69"/>
	<path fill="none" stroke="#040404" stroke-width="2" stroke-linecap="round" stroke-linejoin="round" d="M39.5,31.771c4,0,4-6,4-13
		s-4-14-14-14s-14,7-14,14s0,13,4,13"/>
	<path fill="#040404" d="M35.373,22.771c0,1.104-0.896,2-2,2s-2-0.896-2-2c0-1.104,0.896-2,2-2S35.373,21.667,35.373,22.771"/>
	<path fill="#040404" d="M27.373,22.771c0,1.104-0.896,2-2,2s-2-0.896-2-2c0-1.104,0.896-2,2-2S27.373,21.667,27.373,22.771"/>
	<path fill="none" stroke="#040404" stroke-width="2" stroke-linejoin="round" d="M18.437,23.771c0,9,4.937,14,11,14
		c5.937,0,11.063-5,11.063-14c0-3-1-5-1-5c-3-3-7-8-7-8c-4,3-7,6-13,7C19.5,17.771,18.437,18.771,18.437,23.771z"/>
	<path fill="none" stroke="#040404" stroke-width="2" stroke-linecap="round" stroke-linejoin="round" d="M27.584,30.771
		c1.916,0.393,3.937,0,3.937,0"/>
	<path fill="none" stroke="#000000" stroke-width="2" stroke-linecap="round" stroke-linejoin="round" stroke-miterlimit="10" d="
		M7.468,52.771l2.938-11.306l-0.938-1.25l-4-3l-4-6c0,0-1-1,0-2s2,0,2,0l4,4c1,1,2,1,5,2s3.131,3.237,3,5
		c-0.666,8.973-1,12.556-1,12.556"/>
	<path fill="none" stroke="#000000" stroke-width="2" stroke-linecap="round" stroke-linejoin="round" stroke-miterlimit="10" d="
		M13.491,35.66c0,0-1.023-2.89-2.117-5.89c-0.432-1.182-1.906-1.031-1.906-0.166c0,0.625,0,3.69,0,3.69"/>
	<path fill="none" stroke="#000000" stroke-width="2" stroke-linecap="round" stroke-linejoin="round" stroke-miterlimit="10" d="
		M51.532,52.771l-2.938-11.306l0.938-1.25l4-3l4-6c0,0,1-1,0-2s-2,0-2,0l-4,4c-1,1-2,1-5,2s-3.131,3.237-3,5
		c0.667,8.973,1,12.556,1,12.556"/>
	<path fill="none" stroke="#000000" stroke-width="2" stroke-linecap="round" stroke-linejoin="round" stroke-miterlimit="10" d="
		M45.51,35.66c0,0,1.022-2.89,2.116-5.89c0.431-1.182,1.906-1.031,1.906-0.166c0,0.625,0,3.69,0,3.69"/>
	
		<line fill="none" stroke="#000000" stroke-width="2" stroke-linecap="round" stroke-linejoin="round" stroke-miterlimit="10" x1="16.5" y1="32.771" x2="19.5" y2="31.771"/>
	
		<line fill="none" stroke="#040404" stroke-width="2" stroke-linecap="round" stroke-linejoin="round" x1="39.944" y1="31.771" x2="42.944" y2="32.771"/>
</g>
</svg>
