<?xml version="1.0" encoding="utf-8"?>
<!-- Generator: Adobe Illustrator 23.0.2, SVG Export Plug-In . SVG Version: 6.00 Build 0)  -->
<svg version="1.1" id="emoji" xmlns="http://www.w3.org/2000/svg" xmlns:xlink="http://www.w3.org/1999/xlink" x="0px" y="0px"
	 viewBox="0 0 72 72" style="enable-background:new 0 0 72 72;" xml:space="preserve">
<style type="text/css">
	.st0{display:none;}
	.st1{display:inline;fill:#B3B3B3;}
	.st2{display:inline;fill:none;stroke:#00A5FF;stroke-width:0.1;stroke-miterlimit:10;}
	.st3{fill:#3F3F3F;}
	.st4{fill:#D0CFCE;}
	.st5{fill:#9B9B9A;}
	.st6{fill:#FFE8BC;}
	.st7{fill:#D22F27;}
	.st8{fill:none;stroke:#000000;stroke-width:2;stroke-linecap:round;stroke-linejoin:round;}
	.st9{fill:none;stroke:#000000;stroke-linecap:round;stroke-miterlimit:10;}
</style>
<title>1F469-200D-1F680</title>
<g id="grid" class="st0">
	<path class="st1" d="M68,4v64H4V4H68 M72,0H0v72h72V0z"/>
	<path class="st2" d="M12.9,11h46.2c1.1,0,1.9,0.9,1.9,1.9v0V59c0,1.1-0.9,1.9-1.9,1.9H12.9C11.9,61,11,60.1,11,59l0,0V12.9
		C11,11.8,11.9,11,12.9,11L12.9,11z"/>
	<path class="st2" d="M18.3,4h35.5C55,4,56,5,56,6.3v59.5c0,1.2-1,2.3-2.3,2.3H18.3C17,68,16,67,16,65.7V6.3C16,5,17,4,18.3,4z"/>
	<path class="st2" d="M68,18.3v35.5c0,1.2-1,2.3-2.3,2.3H6.3C5,56,4,55,4,53.7V18.3C4,17,5,16,6.3,16h59.5C67,16,68,17,68,18.3z"/>
	<circle class="st2" cx="36" cy="36" r="29"/>
</g>
<g id="color">
	<path class="st3" d="M11,62.5c-3.5-3.3-0.2-9.9,1.4-13.3c2.9-5.6,4.6-11.8,5.2-18.1c0.4-4.7-0.1-9.2,1.5-13.7c1.9-5.7,7-9.6,13-10
		c3.3-0.3,10.4,0.3,12,4c4.7-0.1,7.3,3.5,8.4,7.7c1.4,5.6,1.5,11.4,3,16.9c1.1,3.9,1.7,9.3,4.1,12.6c0,0,6.5,11.3,1.5,13.7"/>
	<path class="st4" d="M13.7,65c0,0-1.7-16,12.2-16c3.7,2.4,6.9,4.2,10.5,4.2h-0.1c3.6,0,7.3-2.9,9.7-5.5C62.2,51.2,58.8,65,58.8,65"
		/>
	<path class="st5" d="M43.1,50.7l3.1-2.1c0,0,9.3-1.5,11.6,9.1l1.1,7.3H52C52,65,54.3,53.4,43.1,50.7z"/>
</g>
<g id="skin">
	<path class="st6" d="M41.9,15c-2.3,4.3-13.6,10-19.1,12.6h0.1c-0.1,0.8-0.1,1.6-0.1,2.4c0,9.1,5.9,16.5,13.1,16.5
		c7.3,0,13.1-7.3,13.1-16.5c0-1.3-0.1-2.6-0.3-4c-0.9-4.7-3.4-8.6-6.7-10.7"/>
	<path class="st7" d="M35.9,39.5c-1.4,0-2.7-0.4-4-1c-0.5-0.3-0.8-1-0.5-1.5c0.3-0.5,1-0.8,1.5-0.5c1.8,1,4.1,1,5.9,0
		c0.5-0.3,1.2-0.1,1.5,0.5c0.3,0.5,0.1,1.2-0.5,1.5C38.7,39.2,37.3,39.5,35.9,39.5z"/>
</g>
<g id="line">
	<path class="st8" d="M41.9,15c-2.3,4.3-13.6,10-19.1,12.6h0.1c-0.1,0.8-0.1,1.6-0.1,2.4c0,9.1,5.9,16.5,13.1,16.5
		c7.3,0,13.1-7.3,13.1-16.5c0-1.3-0.1-2.6-0.3-4c-0.9-4.7-3.4-8.6-6.7-10.7"/>
	<path class="st8" d="M25.3,48.6c3.7,2.4,6.9,4.2,10.5,4.2h-0.1c3.6,0,6.7-1.7,10.5-4.2"/>
	<path class="st8" d="M13.7,63.7c0,0-2.3-15.1,11.6-15.1"/>
	<path class="st8" d="M46.4,48.6c14,0,11.6,15.1,11.6,15.1"/>
	<path d="M42.9,27.9c0,1.3-1,2.3-2.3,2.3s-2.3-1-2.3-2.3s1-2.3,2.3-2.3c0,0,0,0,0,0C41.9,25.6,42.9,26.6,42.9,27.9"/>
	<path class="st8" d="M11,62.5c-3.5-3.3-0.2-9.9,1.4-13.3c2.9-5.6,4.6-11.8,5.2-18.1c0.4-4.7-0.1-9.2,1.5-13.7c1.9-5.7,7-9.6,13-10
		c3.3-0.3,10.4,0.3,12,4c4.7-0.1,7.3,3.5,8.4,7.7c1.2,4.7,1.4,9.6,2.4,14.3c1.3,5.9,2.8,11.4,5.5,16.8c1.8,3.4,4.8,9.3,0.6,12.2"/>
	<path class="st9" d="M38.2,23.2c2-1.1,4.5-0.8,6.2,0.7"/>
	<path class="st9" d="M34.5,23.2c-0.5-0.3-1-0.4-1.6-0.6"/>
	<path class="st9" d="M41.3,26.6c0.8-0.3,1.4-0.9,1.7-1.6"/>
	<path class="st9" d="M42.2,27.3c0.8,0,1.6-0.4,2.1-1.1"/>
	<path d="M29.6,27.9c0-1.3,1-2.3,2.3-2.3s2.3,1,2.3,2.3s-1,2.3-2.3,2.3C30.6,30.2,29.6,29.2,29.6,27.9"/>
	<path class="st9" d="M31.2,26.6c-0.8-0.3-1.4-0.9-1.7-1.6"/>
	<path class="st9" d="M30.3,27.3c-0.8,0-1.6-0.4-2.1-1.1"/>
</g>
</svg>
