<?xml version="1.0" encoding="UTF-8"?>
<!DOCTYPE svg PUBLIC "-//W3C//DTD SVG 1.1//EN" "http://www.w3.org/Graphics/SVG/1.1/DTD/svg11.dtd">
<svg version="1.1" xmlns="http://www.w3.org/2000/svg" xmlns:xlink="http://www.w3.org/1999/xlink" x="0" y="0" width="55" height="65" viewBox="0, 0, 55, 65">
  <g id="color"/>
  <g id="hair"/>
  <g id="skin">
    <path d="M17.706,18.03 C15.818,20.836 14.674,24.503 14.674,28.516 C14.674,37.339 20.204,44.492 27.026,44.492 C33.848,44.492 39.378,37.339 39.378,28.516 C39.378,27.21 39.257,25.941 39.028,24.727 C35.766,24.378 26.934,16.805 26.94,17.237 C26.947,17.67 21.798,13.457 17.706,18.03 z" fill="#FFE8BC"/>
  </g>
  <g id="line">
    <path d="M15.717,26.625 C15.665,27.238 15.639,29.21 15.639,29.842 C15.639,38.61 20.733,44.369 27.018,44.369 C33.302,44.369 38.396,38.61 38.396,29.842 C38.396,28.544 38.285,25.934 38.074,24.727" fill-opacity="0" stroke="#000000" stroke-width="2" stroke-linecap="round" stroke-linejoin="round" stroke-miterlimit="10"/>
    <path d="M33.606,26.982 C33.606,28.227 32.595,29.236 31.351,29.236 C30.107,29.236 29.097,28.227 29.097,26.982 C29.097,25.738 30.107,24.727 31.351,24.727 C32.595,24.727 33.606,25.738 33.606,26.982" fill="#000000"/>
    <path d="M24.588,26.982 C24.588,28.227 23.577,29.236 22.333,29.236 C21.089,29.236 20.079,28.227 20.079,26.982 C20.079,25.738 21.089,24.727 22.333,24.727 C23.577,24.727 24.588,25.738 24.588,26.982" fill="#000000"/>
    <g>
      <path d="M18.755,18.255 C18.755,18.372 24.372,15.329 29.638,19.425 C29.638,19.425 33.149,24.106 37.83,24.106 C43.681,16.968 39.936,8.074 30.898,7.831 C27.883,7.138 21.681,3.861 18.404,10.765 C13.957,11.351 9.627,21.064 15.361,27.383 L15.834,26.712 C15.595,23.287 18.755,18.138 18.755,18.255 z" fill="#98751F"/>
      <path d="M18.755,18.255 C18.755,18.372 24.372,15.329 29.638,19.425 C29.638,19.425 33.149,24.106 37.83,24.106 C43.681,16.968 39.936,8.074 30.898,7.831 C27.883,7.138 21.681,3.861 18.404,10.765 C13.957,11.351 9.627,21.064 15.361,27.383 L15.834,26.712 C15.595,23.287 18.755,18.138 18.755,18.255 z" fill-opacity="0" stroke="#000000" stroke-width="2" stroke-linecap="round" stroke-linejoin="round" stroke-miterlimit="10"/>
    </g>
    <path d="M7.375,64.421 L7.375,54.621 C7.375,49.621 12.375,45.621 17.375,45.621 C23.375,50.621 29.375,50.621 35.375,45.621 C40.375,45.621 45.375,49.621 45.375,54.621 L45.375,64.421 L7.375,64.421 z" fill="#565656"/>
    <path d="M35.875,45.421 C32.675,47.521 30.975,48.421 26.975,49.021 C39.975,49.421 39.975,60.421 40.775,64.421 L45.875,64.421 C45.875,64.421 47.875,45.421 35.875,45.421" fill="#000000"/>
    <path d="M7.575,63.421 L7.575,54.421 C7.575,49.421 12.575,45.421 17.575,45.421 C23.575,50.421 29.575,50.421 35.575,45.421 C40.575,45.421 45.575,49.421 45.575,54.421 L45.575,63.421" fill-opacity="0" stroke="#1C1C1B" stroke-width="2" stroke-linecap="round" stroke-linejoin="round"/>
    <path d="M26.875,36.948 C26.563,38.764 28.045,42.239 28.91,37.193 C29.325,42.043 30.744,41.04 31.295,38.433 C31.846,35.827 31.664,35.068 31.647,35.169" fill-opacity="0" stroke="#000000" stroke-width="1" stroke-linecap="round" stroke-linejoin="round"/>
  </g>
</svg>
