<?xml version="1.0" encoding="utf-8"?>
<!-- Generator: Adobe Illustrator 23.0.2, SVG Export Plug-In . SVG Version: 6.00 Build 0)  -->
<svg version="1.1" id="Ebene_1" xmlns="http://www.w3.org/2000/svg" xmlns:xlink="http://www.w3.org/1999/xlink" x="0px" y="0px"
	 viewBox="0 0 72 72" style="enable-background:new 0 0 72 72;" xml:space="preserve">
<style type="text/css">
	.st0{fill:#3F3F3F;}
	.st1{fill:#FFE8BC;}
	.st2{fill:#EA5A47;}
	.st3{fill:none;stroke:#000000;stroke-width:2;stroke-linecap:round;stroke-linejoin:round;}
</style>
<g>
	<g id="emoji">
		<g id="color">
			<polygon class="st0" points="17,60 55,60 55,55 53,50 48,47 46,46 39,49 34,49 29,47 27,46 21,47 18,50 17,56 			"/>
			<polyline points="49.6,60 55,60 55,55 53,50 48,47 46,46 42,47.7 			"/>
			<g id="skin">
				<path class="st1" d="M25.2,27c-0.9,0.1,1.3,2.7,1.3,3.7c0,1.2-1.4,1.5-1.2,2.6c1.2,6.2,5.7,10.8,11,10.8
					c6.3,0,11.3-6.3,11.3-14.2c0-1-0.1-1.9-0.2-2.9c0.4-0.1-3.2-4.6-8.4-6.8v-0.6c0,0-0.8,2.2-2.4,2.8l0.7-0.4l-0.8-4.8l-0.7,0.4
					C35.9,17.7,30.1,26.5,25.2,27z"/>
			</g>
		</g>
		<g id="hair">
			<path class="st2" d="M53,33c0,0-1,3-5,1l-2-2v-2l1-3l-7-7l0,4.4l-4-1l0-5.4l-2,4l-4,3l-5,2l1,3l-1,3l-2,1c0,0-1,4-4,2s-1-2-1-2
				l2-2l1-2v-6l3-3l3-3l2-2l3-1l3-1l4,2l2-1h2l2,3l1,3l1,1l3,1l1,2v7L53,33z"/>
		</g>
		<g id="line">
			<g id="line-2">
				<path d="M41.9,28.1c0,1.1-0.9,2-2,2s-2-0.9-2-2s0.9-2,2-2C41,26.1,41.9,27,41.9,28.1"/>
				<path d="M33.9,28.1c0,1.1-0.9,2-2,2c-1.1,0-2-0.9-2-2s0.9-2,2-2C33,26.1,33.9,27,33.9,28.1"/>
				<path d="M35.9,38.1c-1.2,0-2.4-0.3-3.4-0.9C32,37,31.8,36.4,32,35.9s0.8-0.7,1.3-0.4l0,0c1.6,0.9,3.5,0.9,5.1,0
					c0.5-0.2,1.1,0,1.3,0.4s0,1.1-0.4,1.3C38.3,37.8,37.1,38.1,35.9,38.1z"/>
				<path class="st3" d="M25,33.3c1.3,6,5.7,10.3,10.9,10.3c5,0,9.2-4,10.7-9.6"/>
				<path class="st3" d="M54.7,58.9c0,0,2-13-10-13c-3.2,2.1-5.9,3.6-9,3.6h0.1c-3.1,0-5.8-1.5-9-3.6c-12,0-10,13-10,13"/>
			</g>
			<path class="st3" d="M23,34c0,0,5-1,2-7c-0.3,0.1,4,0,11-9c0,0-1,3,1,5"/>
			<path class="st3" d="M40,24c-2-2,1-5,1-5c0,2,6,8,6,8s-3,6,2,7"/>
			<path class="st3" d="M53,33c0,0-4,0-2-4s-1-6-1-6s-4,0-5-5s-6-2-6-2s-5-5-11,1s-8,6-7,10c0.6,2.2-0.2,4.6-2,6c0,0-2,2,0,3"/>
		</g>
	</g>
</g>
</svg>
