<?xml version="1.0" encoding="utf-8"?>
<!-- Generator: Adobe Illustrator 16.0.4, SVG Export Plug-In . SVG Version: 6.00 Build 0)  -->
<!DOCTYPE svg PUBLIC "-//W3C//DTD SVG 1.1//EN" "http://www.w3.org/Graphics/SVG/1.1/DTD/svg11.dtd">
<svg version="1.1" id="Ebene_1" xmlns="http://www.w3.org/2000/svg" xmlns:xlink="http://www.w3.org/1999/xlink" x="0px" y="0px"
	 width="55px" height="65px" viewBox="0 0 55 65" enable-background="new 0 0 55 65" xml:space="preserve">
<path fill="#1C1C1B" d="M33.4,27.896c0,1.104-0.896,2-2,2c-1.104,0-2-0.896-2-2c0-1.104,0.896-2,2-2
	C32.504,25.896,33.4,26.792,33.4,27.896"/>
<path fill="#1C1C1B" d="M25.401,27.896c0,1.104-0.896,2-2,2c-1.104,0-2-0.896-2-2c0-1.104,0.896-2,2-2
	C24.504,25.896,25.401,26.792,25.401,27.896"/>
<path fill="#FFE8BC" d="M15.166,28.418c-0.103,8,5.519,14.889,12.454,14.889c7.064,0,9.868-6.158,11.064-14.002
	c0.753-4.943-1.577-15.604-1.577-15.604c-9.525-8.01-17.112-2.26-21.013,2.327C16.093,16.028,15.228,23.418,15.166,28.418"/>
<path d="M33.4,27.896c0,1.104-0.896,2-2,2c-1.104,0-2-0.896-2-2c0-1.104,0.896-2,2-2C32.504,25.896,33.4,26.792,33.4,27.896"/>
<path d="M25.401,27.896c0,1.104-0.896,2-2,2c-1.104,0-2-0.896-2-2c0-1.104,0.896-2,2-2C24.504,25.896,25.401,26.792,25.401,27.896"
	/>
<path fill="none" stroke="#1C1C1B" stroke-width="2" stroke-linecap="round" stroke-linejoin="round" d="M24.401,37.148
	c2.127,0.75,4.126,0.75,6,0"/>
<path fill="#996633" d="M24.868,39.486l-6.327-2.338c0.439,2.912,11.508,11.299,18.083,0.051l-6.224,2.287H24.868z"/>
<path fill="none" stroke="#1C1C1B" stroke-linecap="round" stroke-linejoin="round" d="M24.868,39.486l-6.454-3.197
	c0.127,2.475,10.264,12.48,17.485,0.873l-5.499,2.324H24.868z"/>
<path fill="#83674C" d="M17.562,20.621l2.707-6.296c-3.36-3.062-6.561,5.757-4.448,10.979L17.562,20.621z"/>
<path fill="none" stroke="#1C1C1B" stroke-linecap="round" stroke-linejoin="round" d="M18.414,13.648
	c-1.581-0.013-4.184,7.43-3.084,12.867l4.938-12.19L18.414,13.648z"/>
<path fill="#83674C" d="M36.729,20.621l-2.707-6.296c3.359-3.062,6.56,5.757,4.447,10.979L36.729,20.621z"/>
<path fill="none" stroke="#1C1C1B" stroke-linecap="round" stroke-linejoin="round" d="M35.877,13.648
	c1.581-0.013,4.183,7.43,3.084,12.867l-4.939-12.19L35.877,13.648z"/>
<path fill="none" stroke="#003366" stroke-linecap="round" stroke-linejoin="round" stroke-miterlimit="10" d="M26,27.751
	c-0.132,2.229-1.316,3.062-3.471,3.062c-2.151,0-3.988-1.312-3.988-3.465c0-1.05,0.09-1.703,0.09-1.703
	c0.709-0.736,2.705-0.665,3.807-0.665c1.295,0,3.615,0.2,3.615,0.2S26.061,26.703,26,27.751z"/>
<path fill="none" stroke="#003366" stroke-linecap="round" stroke-linejoin="round" stroke-miterlimit="10" d="M28.516,27.751
	c0.131,2.229,1.314,3.062,3.469,3.062c2.152,0,3.99-1.312,3.99-3.465c0-1.05-0.09-1.703-0.09-1.703
	c-0.71-0.736-2.705-0.665-3.809-0.665c-1.295,0-3.615,0.2-3.615,0.2S28.453,26.703,28.516,27.751z"/>
<line fill="none" stroke="#003366" stroke-linecap="round" stroke-linejoin="round" stroke-miterlimit="10" x1="16.462" y1="27.349" x2="18.54" y2="27.349"/>
<line fill="none" stroke="#003366" stroke-linecap="round" stroke-linejoin="round" stroke-miterlimit="10" x1="36.45" y1="27.191" x2="38.526" y2="27.191"/>
<path fill="#F0BB29" d="M46.28,64.992c-0.553,0,0-10.057,0-10.057c0-4.451-5.5-8.756-9.651-8.936
	c-6.205,5.012-12.139,4.947-18.348-0.064c-4.156,0.182-9.898,3.363-9.898,7.814c0,0,0.447,11.242-0.106,11.242"/>
<path fill="#DF873A" d="M36.589,46.496c-3.171,2.113-4.875,3-8.938,3.588c13.063,0.412,13.063,11.412,13.825,15.412h5.113
	C46.589,65.496,48.589,46.496,36.589,46.496"/>
<path fill="none" stroke="#030404" stroke-width="2" stroke-linecap="round" stroke-linejoin="round" d="M8.281,63.936v-9
	c0-4.994,5.008-9,10-9c6,5,12,5,18,0c4.993,0,10,4.006,10,9v9"/>
<path fill="none" stroke="#000000" stroke-linecap="round" stroke-linejoin="round" stroke-miterlimit="10" d="M19.835,24.588
	l1.603-0.606c0,0,2.426-0.51,3.873,0.05"/>
<path fill="none" stroke="#000000" stroke-linecap="round" stroke-linejoin="round" stroke-miterlimit="10" d="M35.048,24.588
	l-1.604-0.606c0,0-2.426-0.51-3.872,0.05"/>
<path fill="none" stroke="#1C1C1B" stroke-width="2" stroke-linejoin="round" d="M38.527,28.896
	C36.45,38.617,33.4,42.898,27.464,42.898c-6.063,0-10.228-6.998-11.701-13.727c0,0-4.662-19.038,12.031-19.038
	C42.818,10.134,38.527,28.896,38.527,28.896z"/>
<path fill="#A47938" d="M30.251,57.682l-2.47,2.623h4.096c0.27,0,0.487-0.219,0.487-0.488V58.17c0-0.27-0.218-0.488-0.487-0.488
	H30.251"/>
<path fill="none" stroke="#A47938" stroke-linecap="round" stroke-linejoin="round" d="M30.251,57.682l-2.47,2.623h4.096
	c0.27,0,0.487-0.219,0.487-0.488V58.17c0-0.27-0.218-0.488-0.487-0.488H30.251"/>
<path fill="#A47938" d="M26.237,60.305h-4.116c-0.271,0-0.488-0.219-0.488-0.488V58.17c0-0.27,0.218-0.488,0.488-0.488h1.605
	L26.237,60.305z"/>
<path fill="#F4A941" d="M26.237,60.305h-4.359c-0.27,0-0.489,0.219-0.489,0.488v1.463c0,0.27,0.22,0.486,0.489,0.486h10.244
	c0.269,0,0.487-0.217,0.487-0.486v-1.463c0-0.27-0.219-0.488-0.487-0.488h-4.339"/>
<path fill="#E16F20" d="M29.926,60.305h2.194c0.271,0,0.488,0.219,0.488,0.488v1.463c0,0.27-0.218,0.486-0.488,0.486h-2.194V60.305z
	"/>
<path fill="#F4A941" d="M32.608,57.176c0,0.27-0.219,0.488-0.487,0.488H21.877c-0.27,0-0.489-0.219-0.489-0.488
	c0.363-2.775,2.735-4.92,5.611-4.92C29.874,52.256,32.247,54.4,32.608,57.176"/>
<path fill="#E16F20" d="M28.463,52.461c0.749,1.256,1.257,2.979,1.463,5.203h2.194c0.271,0,0.487-0.219,0.487-0.488
	C32.242,54.436,30.01,52.789,28.463,52.461"/>
<polygon fill="#FBEA2E" points="30.399,57.682 23.598,57.682 27,61.082 "/>
<path fill="#6A462F" d="M29.926,57.664v2.641h1.95c0.271,0,0.488-0.219,0.488-0.488V58.17c0-0.27-0.218-0.488-0.488-0.488H30.25"/>
<path fill="none" stroke="#A47938" stroke-linecap="round" stroke-linejoin="round" d="M29.926,57.664v2.641h1.95
	c0.271,0,0.488-0.219,0.488-0.488V58.17c0-0.27-0.218-0.488-0.488-0.488H30.25"/>
<path fill="none" stroke="#000000" stroke-linecap="round" stroke-linejoin="round" stroke-miterlimit="10" d="M26.237,60.305
	h-4.116c-0.271,0-0.488-0.219-0.488-0.488V58.17c0-0.27,0.218-0.488,0.488-0.488h9.756c0.27,0,0.488,0.219,0.488,0.488v1.646
	c0,0.27-0.219,0.488-0.488,0.488h-4.095"/>
<path fill="none" stroke="#000000" stroke-linecap="round" stroke-linejoin="round" stroke-miterlimit="10" d="M26.237,60.305
	h-4.359c-0.27,0-0.489,0.219-0.489,0.488v1.463c0,0.27,0.22,0.486,0.489,0.486h10.244c0.269,0,0.487-0.217,0.487-0.486v-1.463
	c0-0.27-0.219-0.488-0.487-0.488h-4.339"/>
<path fill="none" stroke="#000000" stroke-linecap="round" stroke-linejoin="round" stroke-miterlimit="10" d="M32.608,57.176
	c0,0.27-0.219,0.488-0.487,0.488H21.877c-0.27,0-0.489-0.219-0.489-0.488c0.363-2.775,2.735-4.92,5.611-4.92
	C29.874,52.256,32.247,54.4,32.608,57.176z"/>
<polygon fill="none" stroke="#000000" stroke-linecap="round" stroke-linejoin="round" stroke-miterlimit="10" points="
	30.399,57.682 23.598,57.682 27,61.082 "/>
</svg>
