<?xml version="1.0" encoding="utf-8"?>
<!-- Generator: Adobe Illustrator 16.0.4, SVG Export Plug-In . SVG Version: 6.00 Build 0)  -->
<!DOCTYPE svg PUBLIC "-//W3C//DTD SVG 1.1//EN" "http://www.w3.org/Graphics/SVG/1.1/DTD/svg11.dtd">
<svg version="1.1" id="Ebene_1" xmlns="http://www.w3.org/2000/svg" xmlns:xlink="http://www.w3.org/1999/xlink" x="0px" y="0px"
	 width="55px" height="65px" viewBox="0 0 55 65" enable-background="new 0 0 55 65" xml:space="preserve">
<path fill="#1C1C1B" d="M34.4,27.9c0,1.1-0.9,2-2,2c-1.1,0-2-0.9-2-2c0-1.1,0.9-2,2-2C33.5,25.9,34.4,26.8,34.4,27.9"/>
<path fill="#1C1C1B" d="M26.4,27.9c0,1.1-0.9,2-2,2c-1.1,0-2-0.9-2-2c0-1.1,0.9-2,2-2C25.5,25.9,26.4,26.8,26.4,27.9"/>
<path fill="#FFE8BC" d="M16.2,28.4c-0.1,8,5.5,14.9,12.5,14.9c7.1,0,9.9-6.2,11.1-14c0.8-4.9-1.6-15.6-1.6-15.6
	c-9.5-8-17.1-2.3-21,2.3C17.1,16,16.2,23.4,16.2,28.4"/>
<path d="M34.4,27.9c0,1.1-0.9,2-2,2c-1.1,0-2-0.9-2-2c0-1.1,0.9-2,2-2C33.5,25.9,34.4,26.8,34.4,27.9"/>
<path d="M26.4,27.9c0,1.1-0.9,2-2,2c-1.1,0-2-0.9-2-2c0-1.1,0.9-2,2-2C25.5,25.9,26.4,26.8,26.4,27.9"/>
<path fill="none" stroke="#1C1C1B" stroke-width="2" stroke-linecap="round" stroke-linejoin="round" d="M25.4,37.2
	c2.1,0.8,4.1,0.8,6,0"/>
<path fill="#996633" d="M25.9,39.5l-6.3-2.3c0.4,2.9,11.5,11.3,18.1,0.1l-6.2,2.3H25.9z"/>
<path fill="none" stroke="#1C1C1B" stroke-linecap="round" stroke-linejoin="round" d="M25.9,39.5l-6.5-3.2
	c0.1,2.5,10.3,12.5,17.5,0.9l-5.5,2.3H25.9z"/>
<path fill="#83674C" d="M18.6,20.6l2.7-6.3c-3.4-3.1-6.6,5.8-4.4,11L18.6,20.6z"/>
<path fill="none" stroke="#1C1C1B" stroke-linecap="round" stroke-linejoin="round" d="M19.4,13.7c-1.6,0-4.2,7.4-3.1,12.9l4.9-12.2
	L19.4,13.7z"/>
<path fill="#83674C" d="M37.7,20.6L35,14.3c3.4-3.1,6.6,5.8,4.4,11L37.7,20.6z"/>
<path fill="none" stroke="#1C1C1B" stroke-linecap="round" stroke-linejoin="round" d="M36.9,13.7c1.6,0,4.2,7.4,3.1,12.9L35,14.3
	L36.9,13.7z"/>
<path fill="none" stroke="#003366" stroke-linecap="round" stroke-linejoin="round" stroke-miterlimit="10" d="M27,27.8
	c-0.1,2.2-1.3,3.1-3.5,3.1c-2.2,0-4-1.3-4-3.5c0-1,0.1-1.7,0.1-1.7c0.7-0.7,2.7-0.7,3.8-0.7c1.3,0,3.6,0.2,3.6,0.2
	S27.1,26.7,27,27.8z"/>
<path fill="none" stroke="#003366" stroke-linecap="round" stroke-linejoin="round" stroke-miterlimit="10" d="M29.5,27.8
	c0.1,2.2,1.3,3.1,3.5,3.1c2.2,0,4-1.3,4-3.5c0-1-0.1-1.7-0.1-1.7c-0.7-0.7-2.7-0.7-3.8-0.7c-1.3,0-3.6,0.2-3.6,0.2
	S29.5,26.7,29.5,27.8z"/>
<line fill="none" stroke="#003366" stroke-linecap="round" stroke-linejoin="round" stroke-miterlimit="10" x1="17.5" y1="27.4" x2="19.5" y2="27.4"/>
<line fill="none" stroke="#003366" stroke-linecap="round" stroke-linejoin="round" stroke-miterlimit="10" x1="37.5" y1="27.2" x2="39.5" y2="27.2"/>
<path fill="#AAAFB5" d="M47.3,65c-0.6,0,0-10.1,0-10.1c0-4.5-5.5-8.8-9.7-8.9C31.4,51,25.5,51,19.3,46c-4.2,0.2-9.9,3.4-9.9,7.8
	c0,0,0.4,11.2-0.1,11.2"/>
<path fill="#5A5E5F" d="M37.6,46.5c-3.2,2.1-4.9,3-8.9,3.6c13.1,0.4,13.1,11.4,13.8,15.4h5.1C47.6,65.5,49.6,46.5,37.6,46.5"/>
<path fill="none" stroke="#030404" stroke-width="2" stroke-linecap="round" stroke-linejoin="round" d="M9.3,64v-9c0-5,5-9,10-9
	c6,5,12,5,18,0c5,0,10,4,10,9v9"/>
<path fill="none" stroke="#000000" stroke-linecap="round" stroke-linejoin="round" stroke-miterlimit="10" d="M20.8,24.6l1.6-0.6
	c0,0,2.4-0.5,3.9,0.1"/>
<path fill="none" stroke="#000000" stroke-linecap="round" stroke-linejoin="round" stroke-miterlimit="10" d="M36.1,24.6L34.4,24
	c0,0-2.4-0.5-3.9,0.1"/>
<path fill="none" stroke="#1C1C1B" stroke-width="2" stroke-linejoin="round" d="M39.5,28.9c-2.1,9.7-5.1,14-11.1,14
	c-6.1,0-10.2-7-11.7-13.7c0,0-4.7-19,12-19C43.8,10.2,39.5,28.9,39.5,28.9z"/>
<path fill="#A47938" d="M31.3,57.7l-2.5,2.6h4.1c0.3,0,0.5-0.2,0.5-0.5v-1.6c0-0.3-0.2-0.5-0.5-0.5H31.3"/>
<path fill="none" stroke="#A47938" stroke-linecap="round" stroke-linejoin="round" d="M31.3,57.7l-2.5,2.6h4.1
	c0.3,0,0.5-0.2,0.5-0.5v-1.6c0-0.3-0.2-0.5-0.5-0.5H31.3"/>
<path fill="#A47938" d="M27.2,60.3h-4.1c-0.3,0-0.5-0.2-0.5-0.5v-1.6c0-0.3,0.2-0.5,0.5-0.5h1.6L27.2,60.3z"/>
<path fill="#F4A941" d="M27.2,60.3h-4.4c-0.3,0-0.5,0.2-0.5,0.5v1.5c0,0.3,0.2,0.5,0.5,0.5h10.2c0.3,0,0.5-0.2,0.5-0.5v-1.5
	c0-0.3-0.2-0.5-0.5-0.5h-4.3"/>
<path fill="#E16F20" d="M30.9,60.3h2.2c0.3,0,0.5,0.2,0.5,0.5v1.5c0,0.3-0.2,0.5-0.5,0.5h-2.2V60.3z"/>
<path fill="#F4A941" d="M33.6,57.2c0,0.3-0.2,0.5-0.5,0.5H22.9c-0.3,0-0.5-0.2-0.5-0.5c0.4-2.8,2.7-4.9,5.6-4.9S33.3,54.4,33.6,57.2
	"/>
<path fill="#E16F20" d="M29.5,52.5c0.8,1.3,1.3,3,1.5,5.2h2.2c0.3,0,0.5-0.2,0.5-0.5C33.2,54.5,31,52.8,29.5,52.5"/>
<polygon fill="#FBEA2E" points="31.4,57.7 24.6,57.7 28,61.1 "/>
<path fill="#6A462F" d="M30.9,57.7v2.6h1.9c0.3,0,0.5-0.2,0.5-0.5v-1.6c0-0.3-0.2-0.5-0.5-0.5h-1.6"/>
<path fill="none" stroke="#A47938" stroke-linecap="round" stroke-linejoin="round" d="M30.9,57.7v2.6h1.9c0.3,0,0.5-0.2,0.5-0.5
	v-1.6c0-0.3-0.2-0.5-0.5-0.5h-1.6"/>
<path fill="none" stroke="#000000" stroke-linecap="round" stroke-linejoin="round" stroke-miterlimit="10" d="M27.2,60.3h-4.1
	c-0.3,0-0.5-0.2-0.5-0.5v-1.6c0-0.3,0.2-0.5,0.5-0.5h9.8c0.3,0,0.5,0.2,0.5,0.5v1.6c0,0.3-0.2,0.5-0.5,0.5h-4.1"/>
<path fill="none" stroke="#000000" stroke-linecap="round" stroke-linejoin="round" stroke-miterlimit="10" d="M27.2,60.3h-4.4
	c-0.3,0-0.5,0.2-0.5,0.5v1.5c0,0.3,0.2,0.5,0.5,0.5h10.2c0.3,0,0.5-0.2,0.5-0.5v-1.5c0-0.3-0.2-0.5-0.5-0.5h-4.3"/>
<path fill="none" stroke="#000000" stroke-linecap="round" stroke-linejoin="round" stroke-miterlimit="10" d="M33.6,57.2
	c0,0.3-0.2,0.5-0.5,0.5H22.9c-0.3,0-0.5-0.2-0.5-0.5c0.4-2.8,2.7-4.9,5.6-4.9S33.3,54.4,33.6,57.2z"/>
<polygon fill="none" stroke="#000000" stroke-linecap="round" stroke-linejoin="round" stroke-miterlimit="10" points="31.4,57.7 
	24.6,57.7 28,61.1 "/>
</svg>
