<?xml version="1.0" encoding="utf-8"?>
<!-- Generator: Adobe Illustrator 24.0.0, SVG Export Plug-In . SVG Version: 6.00 Build 0)  -->
<svg version="1.1" id="Ebene_1" xmlns="http://www.w3.org/2000/svg" xmlns:xlink="http://www.w3.org/1999/xlink" x="0px" y="0px"
	 viewBox="0 0 55 65" style="enable-background:new 0 0 55 65;" xml:space="preserve">
<style type="text/css">
	.st0{fill:#FFE8BC;}
	.st1{fill:#BD9760;}
	.st2{fill:#F0BB29;}
	.st3{fill:#DF873A;}
	.st4{fill:#1C1C1B;}
	.st5{fill:none;stroke:#1C1C1B;stroke-width:2;stroke-linecap:round;stroke-linejoin:round;}
	.st6{fill:none;stroke:#8C8C8C;stroke-linecap:round;stroke-linejoin:round;stroke-miterlimit:10;}
	.st7{fill:none;stroke:#030404;stroke-width:2;stroke-linecap:round;stroke-linejoin:round;}
	.st8{fill:none;stroke:#000000;stroke-linecap:round;stroke-linejoin:round;stroke-miterlimit:10;}
	.st9{fill:none;stroke:#1C1C1B;stroke-width:2;stroke-linejoin:round;}
	.st10{fill:#A47938;}
	.st11{fill:none;stroke:#A47938;stroke-linecap:round;stroke-linejoin:round;}
	.st12{fill:#F4A941;}
	.st13{fill:#E16F20;}
	.st14{fill:#FBEA2E;}
	.st15{fill:#6A462F;}
</style>
<path class="st0" d="M27.5,10.1c13,0,12,11.3,11.4,19c-0.6,7.8-4.2,13.7-11.4,13.7s-10.9-6-11.4-13.7C15.5,21.4,14.5,10.1,27.5,10.1
	"/>
<path class="st1" d="M16.5,32.1c1.2,6.2,4.8,10.7,11,10.7c6.4,0,10-4.7,11.1-11.2c-1.3,1.6-2.8,2.8-5,2.8c-4,0-4-0.5-6.3-0.5
	s-2.4,0.5-6.3,0.5C19.1,34.3,17.7,33.4,16.5,32.1z"/>
<path class="st2" d="M46.3,65c-0.6,0,0-10.1,0-10.1c0-4.5-5.5-8.8-9.7-8.9c-6.2,5-12.1,4.9-18.3-0.1c-4.2,0.2-9.9,3.4-9.9,7.8
	c0,0,0.4,11.2-0.1,11.2"/>
<path class="st3" d="M41.4,65h5.2c0.2-3,0.8-18.5-10-18.5c-3.2,2.1-4.9,3-8.9,3.6C40.2,50.5,40.7,60.6,41.4,65z"/>
<path class="st4" d="M33.1,27.9c0,1.1-0.9,2-2,2s-2-0.9-2-2s0.9-2,2-2C32.2,25.9,33.1,26.8,33.1,27.9"/>
<path class="st4" d="M25.1,27.9c0,1.1-0.9,2-2,2s-2-0.9-2-2s0.9-2,2-2S25.1,26.8,25.1,27.9"/>
<path d="M33.1,27.9c0,1.1-0.9,2-2,2s-2-0.9-2-2s0.9-2,2-2C32.2,25.9,33.1,26.8,33.1,27.9"/>
<path d="M25.1,27.9c0,1.1-0.9,2-2,2s-2-0.9-2-2s0.9-2,2-2S25.1,26.8,25.1,27.9"/>
<path class="st5" d="M24.5,37.1c2.1,0.8,4.1,0.8,6,0"/>
<line class="st6" x1="16.2" y1="27.3" x2="18.2" y2="27.3"/>
<line class="st6" x1="36.2" y1="27.2" x2="38.2" y2="27.2"/>
<path class="st7" d="M8.3,63.9v-9c0-5,5-9,10-9c6,5,12,5,18,0c5,0,10,4,10,9v9"/>
<path class="st8" d="M19.5,24.6l1.6-0.6c0,0,2.4-0.5,3.9,0"/>
<path class="st8" d="M34.7,24.6L33.1,24c0,0-2.4-0.5-3.9,0"/>
<path class="st9" d="M27.5,10.1c13,0,12,11.3,11.4,19c-0.6,7.8-4.2,13.7-11.4,13.7s-10.9-6-11.4-13.7C15.5,21.4,14.5,10.1,27.5,10.1
	"/>
<path class="st10" d="M30.3,57.7l-2.5,2.6h4.1c0.3,0,0.5-0.2,0.5-0.5v-1.6c0-0.3-0.2-0.5-0.5-0.5H30.3"/>
<path class="st11" d="M30.3,57.7l-2.5,2.6h4.1c0.3,0,0.5-0.2,0.5-0.5v-1.6c0-0.3-0.2-0.5-0.5-0.5H30.3"/>
<path class="st10" d="M26.2,60.3h-4.1c-0.3,0-0.5-0.2-0.5-0.5v-1.6c0-0.3,0.2-0.5,0.5-0.5h1.6L26.2,60.3z"/>
<path class="st12" d="M26.2,60.3h-4.4c-0.3,0-0.5,0.2-0.5,0.5v1.5c0,0.3,0.2,0.5,0.5,0.5H32c0.3,0,0.5-0.2,0.5-0.5v-1.5
	c0-0.3-0.2-0.5-0.5-0.5h-4.3"/>
<path class="st13" d="M29.9,60.3h2.2c0.3,0,0.5,0.2,0.5,0.5v1.5c0,0.3-0.2,0.5-0.5,0.5h-2.2C29.9,62.7,29.9,60.3,29.9,60.3z"/>
<path class="st12" d="M32.6,57.2c0,0.3-0.2,0.5-0.5,0.5H21.9c-0.3,0-0.5-0.2-0.5-0.5c0.4-2.8,2.7-4.9,5.6-4.9S32.2,54.4,32.6,57.2"
	/>
<path class="st13" d="M28.5,52.5c0.7,1.3,1.3,3,1.5,5.2h2.2c0.3,0,0.5-0.2,0.5-0.5C32.2,54.4,30,52.8,28.5,52.5"/>
<polygon class="st14" points="30.4,57.7 23.6,57.7 27,61.1 "/>
<path class="st15" d="M29.9,57.7v2.6h2c0.3,0,0.5-0.2,0.5-0.5v-1.6c0-0.3-0.2-0.5-0.5-0.5h-1.6"/>
<path class="st11" d="M29.9,57.7v2.6h2c0.3,0,0.5-0.2,0.5-0.5v-1.6c0-0.3-0.2-0.5-0.5-0.5h-1.6"/>
<path class="st8" d="M26.2,60.3h-4.1c-0.3,0-0.5-0.2-0.5-0.5v-1.6c0-0.3,0.2-0.5,0.5-0.5h9.8c0.3,0,0.5,0.2,0.5,0.5v1.6
	c0,0.3-0.2,0.5-0.5,0.5h-4.1"/>
<path class="st8" d="M26.2,60.3h-4.4c-0.3,0-0.5,0.2-0.5,0.5v1.5c0,0.3,0.2,0.5,0.5,0.5H32c0.3,0,0.5-0.2,0.5-0.5v-1.5
	c0-0.3-0.2-0.5-0.5-0.5h-4.3"/>
<path class="st8" d="M32.6,57.2c0,0.3-0.2,0.5-0.5,0.5H21.9c-0.3,0-0.5-0.2-0.5-0.5c0.4-2.8,2.7-4.9,5.6-4.9S32.2,54.4,32.6,57.2z"
	/>
<polygon class="st8" points="30.4,57.7 23.6,57.7 27,61.1 "/>
<path class="st6" d="M25.7,27.8c-0.1,2.2-1.3,3.1-3.5,3.1s-4-1.3-4-3.5c0-1,0.1-1.7,0.1-1.7C19,25,21,25,22.1,25
	c1.3,0,3.6,0.2,3.6,0.2S25.8,26.7,25.7,27.8z"/>
<path class="st6" d="M28.2,27.8c0.1,2.2,1.3,3.1,3.5,3.1s4-1.3,4-3.5c0-1-0.1-1.7-0.1-1.7C34.9,25,32.9,25,31.8,25
	c-1.3,0-3.6,0.2-3.6,0.2S28.2,26.7,28.2,27.8z"/>
</svg>
