<svg width="55" height="65" enable-background="new 0 0 55 65" version="1.1" viewBox="0 0 55 65" xmlns="http://www.w3.org/2000/svg">
  <path d="m33.4 27.9c0 1.1-0.9 2-2 2s-2-0.9-2-2 0.9-2 2-2 2 0.9 2 2" fill="#1C1C1B"/>
  <path d="m25.4 27.9c0 1.1-0.9 2-2 2s-2-0.9-2-2 0.9-2 2-2 2 0.9 2 2" fill="#1C1C1B"/>
  <path d="m16.4 28.9c-0.1 8 4.1 14 11 14 7.1 0 11.1-6 11.1-14 0-5-1.692-10.92-1.692-10.92-8 0-13.03-0.2704-19.27 0.9182 0 0-1.038 5-1.138 10" fill="#fcd29b"/>
  <path d="m17.68 18.9s-1.179 5.029-0.9323 10c0.6516 9.59 6.166 14.09 10.79 14 5.081-0.1042 9.664-4.774 10.58-14.08 0.4873-4.976-1.312-10.84-1.312-10.84" fill="none" stroke-linejoin="round" stroke-width="2" stroke="#000"/>
  <path d="m33.5 27.9c0 1.1-0.9 2-2 2s-2-0.9-2-2 0.9-2 2-2 2 0.9 2 2"/>
  <path d="m25.5 27.9c0 1.1-0.9 2-2 2s-2-0.9-2-2 0.9-2 2-2 2 0.9 2 2"/>
  <path d="m24.05 35.9c1.3 1.8 5.5 1.7 6.9 0" fill="none" stroke-linecap="round" stroke-linejoin="round" stroke-width="2" stroke="#000"/>
  <path d="m16.73 26.95c-0.0071-2.374 0.3201-4.97 0.7664-7.331 0.7224-3.821 4.086-6.464 9.898-6.474 5.632-0.0096 8.178 1.092 9.33 4.628 0.9871 3.028 1.503 7.385 1.466 9.178" stroke-miterlimit="10" fill="none" stroke-linecap="round" stroke-linejoin="round" stroke-width="2" stroke="#904d15"/>
  <path d="m17.68 18.93c1.919-8.205 12.9-4.47 17.47-6.55 2.152 1.316 1.666 4.133 1.57 6.42-6.262-1.778-11.52-2.177-19.04 0.1295z" stroke-miterlimit="10" fill="#904d15" stroke-linecap="round" stroke-linejoin="round" stroke-width="2" stroke="#904d15"/>
  <path d="m46.2 65c-0.6 0 0-10.1 0-10.1 0-4.5-5.5-8.8-9.7-8.9-6.1 5-12 5-18.3 0-4.2 0.2-9.9 3.4-9.9 7.8 0 0 0.5 11.2-0.1 11.2" fill="#94d8e2"/>
  <path d="m31.88 51.02c-0.2967-0.564-0.8006-1.127-0.5441-1.569 0.5623-0.9698 2.795-1.751 4.867-3.448 4.2 0.1 9.7 4.4 9.7 8.9 0 0-0.6 10.1 0 10.1l-18.25-0.02891 0.04336-6.524m-4.514-7.569c0.9571-1.719-2.095-2.35-5.28-4.878-4.2 0.2-9.9 3.4-9.9 7.8 0 0 0.5 11.2-0.1 11.2l19.23 0.08672 0.02044-6.646z" fill="#429a2a"/>
  <path d="m35.03 24.47s-0.8676-0.5625-1.427-0.6723c-1.139-0.2237-1.909-0.2254-3.481-0.1012" stroke-miterlimit="10" fill="none" stroke-linecap="round" stroke-linejoin="round" stroke="#43240a"/>
  <path d="m23.08 33.36 4.092-0.9811v0.8994z" fill="#43240a" stroke-width="0.4" stroke="#43240a"/>
  <path d="m31.93 33.36-4.092-0.9811v0.8994z" fill="#43240a" stroke-width="0.4" stroke="#43240a"/>
  <path d="m27.47 58.39 3.459-9.175 2.96-0.3513" fill="#255718"/>
  <path d="m27.4 58.4-3.459-9.175-3.062-0.3083" fill="#255718"/>
  <path d="m27.13 65 0.02044-6.559-6.303-9.213c0.249-2.484 3.289-0.06905 3.289-0.06905m6.793 0.05781s1.862-2.06 2.96 0.01116c-6.157 9.182-6.196 9.219-6.196 9.219l-0.04336 6.553" fill="none" stroke-linecap="round" stroke-linejoin="round" stroke-width="0.5" stroke="#2f6e1e"/>
  <path d="m36.6 46.5c-3.2 2.1-4.9 3-8.9 3.6 13.1 0.4 13.1 11.4 13.8 15.4h5.1s2-19-10-19" fill="#000" fill-opacity="0.2879"/>
  <path d="m8.2 64v-9c0-5 5-9 10-9 3.037 2.531 6.074 3.781 9.111 3.749 2.963-0.03048 5.926-1.28 8.889-3.749 5 0 10 4 10 9v9" fill="none" stroke-linecap="round" stroke-linejoin="round" stroke-width="2" stroke="#030404"/>
  <path d="m20.15 24.47s0.8676-0.5625 1.427-0.6723c1.139-0.2237 1.909-0.2254 3.481-0.1012" stroke-miterlimit="10" fill="none" stroke-linecap="round" stroke-linejoin="round" stroke="#43240a"/>
</svg>
