<?xml version="1.0" encoding="utf-8"?>
<!-- Generator: Adobe Illustrator 16.0.4, SVG Export Plug-In . SVG Version: 6.00 Build 0)  -->
<!DOCTYPE svg PUBLIC "-//W3C//DTD SVG 1.1//EN" "http://www.w3.org/Graphics/SVG/1.1/DTD/svg11.dtd">
<svg version="1.1" id="Ebene_1" xmlns="http://www.w3.org/2000/svg" xmlns:xlink="http://www.w3.org/1999/xlink" x="0px" y="0px"
	 width="55px" height="65px" viewBox="0 0 55 65" enable-background="new 0 0 55 65" xml:space="preserve">
<path fill="#AAAFB5" d="M46.1,65c-0.6,0,0-10.1,0-10.1c0-4.5-5.5-8.8-9.7-8.9C30.2,51,24.3,51,18.1,46c-4.2,0.2-9.9,3.4-9.9,7.8
	c0,0,0.4,11.2-0.1,11.2"/>
<path fill="#5A5E5F" d="M36.4,46.5c-3.2,2.1-4.9,3-8.9,3.6c13.1,0.4,13.4,10.8,14.2,14.8h5.1C46.7,64.9,48.4,46.5,36.4,46.5"/>
<path fill="none" stroke="#030404" stroke-width="2" stroke-linecap="round" stroke-linejoin="round" d="M8.1,64v-9c0-5,5-9,10-9
	c6,5,12,5,18,0c5,0,10,4,10,9v9"/>
<path fill="#1C1C1B" d="M33.5,27.9c0,1.1-0.9,2-2,2c-1.1,0-2-0.9-2-2c0-1.1,0.9-2,2-2C32.6,25.9,33.5,26.8,33.5,27.9"/>
<path fill="#1C1C1B" d="M25.5,27.9c0,1.1-0.9,2-2,2c-1.1,0-2-0.9-2-2c0-1.1,0.9-2,2-2C24.6,25.9,25.5,26.8,25.5,27.9"/>
<path fill="#FFE8BC" d="M15.3,28.4c-0.1,8,5.5,14.9,12.5,14.9c7.1,0,9.7-6.2,11.1-14c0.9-5.3-3.4-15.9-3.6-15.6
	c-9.5-8-13.1-2.3-17,2.3C18.2,16.1,15.3,23.4,15.3,28.4"/>
<path d="M33.5,27.9c0,1.1-0.9,2-2,2c-1.1,0-2-0.9-2-2c0-1.1,0.9-2,2-2C32.6,25.9,33.5,26.8,33.5,27.9"/>
<path d="M25.5,27.9c0,1.1-0.9,2-2,2c-1.1,0-2-0.9-2-2c0-1.1,0.9-2,2-2C24.6,25.9,25.5,26.8,25.5,27.9"/>
<path fill="none" stroke="#1C1C1B" stroke-width="2" stroke-linecap="round" stroke-linejoin="round" d="M24.5,37.2
	c2.1,0.8,4.1,0.8,6,0"/>
<path fill="#CC9966" d="M25,39.5l-6.3-2.3c0.4,2.9,11.5,11.3,18.1,0.1l-6.2,2.3H25z"/>
<path fill="none" stroke="#1C1C1B" stroke-linecap="round" stroke-linejoin="round" d="M25,39.5l-6.1-1.7
	c1.6,2.7,10.1,10.7,17.2-0.4l-5.6,2.1H25z"/>
<path fill="none" stroke="#CC9966" stroke-linecap="round" stroke-linejoin="round" stroke-miterlimit="10" d="M19.9,24.6l1.6-0.6
	c0,0,2.4-0.5,3.9,0.1"/>
<path fill="none" stroke="#CC9966" stroke-linecap="round" stroke-linejoin="round" stroke-miterlimit="10" d="M35.2,24.6L33.5,24
	c0,0-2.4-0.5-3.9,0.1"/>
<path fill="#CC9966" d="M28.8,35.3l3.9,0.1c0.5,0-3.6-6-11,0l4.6-0.1L28.8,35.3z"/>
<path fill="none" stroke="#1C1C1B" stroke-linecap="round" stroke-linejoin="round" d="M28.7,35.3l4,0.1c0.8-0.1-5.5-5.8-11,0
	l4.5-0.1L28.7,35.3z"/>
<path fill="none" stroke="#1C1C1B" stroke-width="2" stroke-linejoin="round" d="M38.5,24.6c0.1,3.6-0.2,9.4-1.7,12.6
	c-1.9,4-4.7,5.7-9.2,5.7c-3.6,0-8.2-3-9.7-6.6c-1.6-3.9-2-8.4-2-12.2c0-5.3,3.6-14,12.1-14C35.6,10.2,38.4,20.2,38.5,24.6z"/>
<path fill="#AAAFB5" d="M24.8,50.7l0.3,6.3l-6.9-7.6c0,0-0.2-2.7-0.3-4.5C20.9,47.6,24.8,50.7,24.8,50.7"/>
<path fill="none" stroke="#1D1D1B" stroke-width="2" stroke-linecap="round" stroke-linejoin="round" stroke-miterlimit="10" d="
	M24.8,50.7l0.3,6.3l-6.9-7.6c0,0-0.2-2.7-0.3-4.5C20.9,47.6,24.8,50.7,24.8,50.7z"/>
<path fill="#AAAFB5" d="M28.8,50.7L28.5,57l6.9-7.6c0,0,0.2-2.7,0.3-4.5C32.7,47.6,28.8,50.7,28.8,50.7"/>
<path fill="none" stroke="#1D1D1B" stroke-width="2" stroke-linecap="round" stroke-linejoin="round" stroke-miterlimit="10" d="
	M28.8,50.7L28.5,57l6.9-7.6c0,0,0.2-2.7,0.3-4.5C32.7,47.6,28.8,50.7,28.8,50.7z"/>
</svg>
