<?xml version="1.0" encoding="utf-8"?>
<!-- Generator: Adobe Illustrator 23.0.2, SVG Export Plug-In . SVG Version: 6.00 Build 0)  -->
<svg version="1.1" id="Ebene_1" xmlns="http://www.w3.org/2000/svg" xmlns:xlink="http://www.w3.org/1999/xlink" x="0px" y="0px"
	 viewBox="0 0 72 72" style="enable-background:new 0 0 72 72;" xml:space="preserve">
<style type="text/css">
	.st0{display:none;}
	.st1{display:inline;opacity:0.2;}
	.st2{fill:#1D1D1B;}
	.st3{fill:#69462E;}
	.st4{fill:#9B9B9A;}
	.st5{fill:#3F3F3F;}
	.st6{fill:none;stroke:#D22F27;stroke-linecap:round;stroke-linejoin:round;}
	.st7{fill:#EAD478;}
	.st8{fill:#000100;}
	.st9{fill:none;stroke:#000000;stroke-width:2;stroke-linecap:round;stroke-linejoin:round;}
</style>
<title>Daniel Quiros</title>
<g id="grid" class="st0">
	<g class="st1">
		<path class="st2" d="M68,4v64H4V4H68 M72,0H0v72h72V0z"/>
	</g>
</g>
<g id="line">
	<path class="st3" d="M43,18.5c0.3,0,0.7,0,1,0c0.6,0.1,1.9,0.3,2,0.8c0.2,0.9-3.7,2.2-3.9,2.3c-0.1,0-1.2,0.4-1.2,0.4l0,0
		c-5.7,1.7-6,1.5-10.5,0c0,0-2.4,0-6.1,6.7V29c-2.3-3.5-1.5-7.7,2-10.3c4-3.2,9.5-3.6,13.8-0.9h1v0.8H43z"/>
	<path class="st4" d="M54.8,61c0,0,2-14.6-10-14.6c-3.2,2.1-5.9,3.7-9,3.7h0.1c-3.1,0-5.8-1.5-9-3.7c-12,0-10,14.6-10,14.6"/>
	<path class="st5" d="M45.4,46.1c-3.1,2.1-5,3.2-9,3.8C49.3,50.3,49.3,57.1,50,61h5C55,61,57.2,46.1,45.4,46.1z"/>
	<path d="M54.5,61h-0.2c-0.5-0.1-0.9-0.6-0.8-1.1c0-0.1,0.8-5.7-2.1-9.3c-1.7-1.8-4.1-2.8-6.5-2.7c-3.3,2.2-6,3.5-9,3.6h-0.1
		c-3.1,0-5.8-1.4-9-3.6c-2.5-0.1-4.9,0.9-6.5,2.7c-3,3.4-2.1,9.2-2.1,9.3c0.1,0.5-0.3,1-0.8,1.1c-0.5,0.1-1-0.3-1.1-0.8c0,0,0,0,0,0
		c0-0.3-1-6.6,2.6-10.9c2.1-2.3,5.2-3.6,8.3-3.4c0.2,0,0.4,0.1,0.6,0.2c3.2,2.1,5.7,3.4,8.3,3.4s5.2-1.3,8.3-3.4
		c0.2-0.1,0.4-0.2,0.6-0.2c3.7,0,6.4,1.1,8.3,3.4c3.6,4.1,2.6,10.6,2.6,10.9C55.5,60.6,55,60.9,54.5,61z"/>
	<g id="_">
		<line class="st6" x1="39.2" y1="57.9" x2="32.2" y2="57.9"/>
		<line class="st6" x1="39.2" y1="59.1" x2="32.2" y2="59.1"/>
		<g>
			<path class="st6" d="M35.2,56.5L35.2,56.5c-0.5,0-1-0.4-1-1c0,0,0,0,0,0V54c0-0.5,0.4-1,1-1c0,0,0,0,0,0l0,0c0.5,0,1,0.4,1,1
				c0,0,0,0,0,0v1.6C36.2,56.1,35.7,56.5,35.2,56.5C35.2,56.5,35.2,56.5,35.2,56.5z"/>
			<path class="st6" d="M38.2,56.5L38.2,56.5c-0.5,0-1-0.4-1-1c0,0,0,0,0,0V54c0-0.5,0.4-1,1-1c0,0,0,0,0,0l0,0c0.5,0,1,0.4,1,1
				c0,0,0,0,0,0v1.6C39.2,56.1,38.8,56.5,38.2,56.5C38.2,56.5,38.2,56.5,38.2,56.5z"/>
			<polyline class="st6" points="32.2,53.7 33.1,53 33.1,56.5 			"/>
		</g>
	</g>
	<path class="st3" d="M47.3,32.3c0.2,3-0.4,6-1.9,8.6c-0.5,1-1.2,1.9-2.1,2.6c-2.1,1.7-4.7,2.6-7.4,2.4h-0.3
		c-2.7,0.2-5.3-0.7-7.4-2.4c-0.8-0.8-1.5-1.6-2.1-2.6c-1.5-2.6-2.1-5.6-1.9-8.6c0.1-1.1,0.1-2,0.1-2.3c0.5,1.9,1.2,3.8,2.1,5.6
		c0,0,2,2.9,2.7-1.2c4.3-1.2,8.8-1.2,13.1,0c0.8,4.1,2.7,1.2,2.7,1.2S46.8,32,47,30C47.2,30.8,47.3,31.5,47.3,32.3z M39,38l0.8-0.7
		c0,0.7-0.3,1.3-0.8,1.7c-0.6,0.4-1.3,0.1-3,0c-0.7,0-1.3,0-2,0c-0.9-0.7-1.8-1.4-1.6-1.9c0.4-1.4,7.5-1,7.6-0.1
		c0.1,0.9-6.4,1.4-6.9,1c0,0,0,0-0.1,0C34.8,39.3,37.2,39.3,39,38z"/>
	<path class="st7" d="M42.2,20.4c1.2,0.1,3.2,1.5,5,8.7v0.4c-0.5,2-1.2,4-2.1,5.8c-0.4,1.3-1.7,2.1-3,1.7c0,0,0,0-0.1,0
		c-0.7-0.4-1.1-1.2-1-2H31c0,0.8-0.4,1.5-1,2c-1,0.5-2.6,0-3.4-1.7c-0.9-1.8-1.6-3.8-2.1-5.8v-0.4C27.3,18,31,21,31,21
		c1.3,0.6,2.8,1,4.3,1C37.7,22.2,40.1,21.7,42.2,20.4z M42,29.1c0-1.1-0.9-2-2-2s-2,0.9-2,2s0.9,2,2,2C41.1,31.1,42,30.2,42,29.1z
		 M34,29.1c0-1.1-0.9-2-2-2c-1.1,0-2,0.9-2,2s0.9,2,2,2C33.1,31.1,34,30.2,34,29.1z"/>
	<g>
		<path class="st8" d="M40,27.1c1.1,0,2,0.9,2,2s-0.9,2-2,2s-2-0.9-2-2C38,28,38.9,27.1,40,27.1z"/>
		<path class="st8" d="M39.9,36.9c0.3,0.5,0.1,1-0.4,1.3c0,0,0,0,0,0c-1.1,0.6-2.3,0.9-3.5,0.9c-1.2,0-2.4-0.3-3.4-0.9
			c-0.5-0.3-0.6-0.8-0.4-1.3c0.2-0.5,0.8-0.6,1.3-0.4c1.6,0.9,3.5,0.9,5.1,0C39,36.2,39.6,36.4,39.9,36.9
			C39.9,36.9,39.9,36.9,39.9,36.9z"/>
		<path class="st8" d="M32,27.1c1.1,0,2,0.9,2,2s-0.9,2-2,2c-1.1,0-2-0.9-2-2C30,28,30.9,27.1,32,27.1z"/>
	</g>
	<g>
		<path class="st9" d="M24.3,29.4c0,0.4,0,1.4-0.1,2.4c-0.2,3.1,0.4,6.2,1.9,8.9c0.6,1,1.3,1.9,2.1,2.7c2,1.8,4.7,2.7,7.4,2.5"/>
		<path class="st9" d="M47.2,29.4c0,0.4,0.1,1.4,0.1,2.4c0.2,3.1-0.4,6.2-1.9,8.9c-0.5,1-1.2,1.9-2.1,2.7c-2,1.8-4.7,2.7-7.4,2.5
			h-0.3"/>
		<path class="st9" d="M24.3,28.4c-1.2-3.2-0.4-6.9,2-9.3c3.2-3.4,12.9-1.7,12.9-1.7c4.7,0.5,5.8,1.1,5.8,1.6
			c0.1,0.6-1.6,1.6-2.6,1.9c0,0-0.1,0-1.2,0.4l0,0c-1.9,1-4,1.4-6.1,1.2c-2.3-0.3-3.2-1.3-4.7-1.2c-1.6,0.1-3.8,1.3-6.3,6.7"/>
		<path class="st9" d="M44,19c0.1,0,1,2-1,2c1.2,0.1,2.4,0.8,4.3,8"/>
		<path class="st9" d="M46,29c0.1,1.7,0,5-2.2,7c-0.3,0.2-1.4,1.3-2.2,1c-0.7-0.3-0.4-1.3-1.1-2c-0.6-0.5-1.8-0.8-4.4,0"/>
		<path class="st9" d="M25,29c-0.1,1.7,0,5,2.4,7c0.3,0.2,1.6,1.3,2.4,1c0.8-0.3,0.4-1.3,1.2-2c0.6-0.5,1.9-0.8,4.9,0"/>
	</g>
</g>
</svg>
