<svg id="Sarah_Mager" data-name="Sarah Mager" xmlns="http://www.w3.org/2000/svg" viewBox="0 0 55 65">
  <title>Zeichenfläche 1</title>
  <path d="M8.6648,65.1366v-9.8c0-5,5.3-12.7,10.3-12.7,6,5,11.7,8.7,17.7,3.7,5,0,10,4,10,9v9.8Z" fill="#9e2a2a"/>
  <path d="M36.3067,43.1346c-3.4712,2.4318-5.3153,3.474-9.6543,4.1688,14.1018.4632,14.1018,13.2012,14.8611,17.8332h5.6407s2.1695-22.002-10.8475-22.002" fill="#7f1717"/>
  <path d="M21.9439,39.0492c-.8731,12.0612,2.3575,11.7323,5.4135,17.6532,4.3076-6.5714,8.2075-4.2762,7.7709-16.3375" fill="#ffe8bc"/>
  <path d="M8.8648,64.1366v-9c0-5,5.1-14.8,10.1-14.8.8.6,2,6,2.6,7.9,1.8,5.8,4.4,5.4,6.3,8.9,2-3.7,5.5-4,6.1-10a13.3017,13.3017,0,0,1,3.3-6.4c5,0,9.7,9.5,9.7,14.4v9" fill="none" stroke="#000" stroke-linecap="round" stroke-linejoin="round" stroke-width="2"/>
  <path d="M50.1132,43.93c-.6681-.2445-.8957-1.7607-.36-3.13s.5361-3.8148-.4368-4.5973A2.7375,2.7375,0,0,1,48.86,33.17c.3127-.5869-.3128-1.5162,0-2.25s.8489-2.5921,0-3.3257,0-1.8585,0-3.8147a3.2619,3.2619,0,0,0-1.6085-3.2279c-.8936-.5869,0-1.3694,0-1.3694s-1.7872,1.027-3.3063-3.6191-5.0041-4.6952-5.0041-4.6952c-1.0724-3.5212-3.5744-2.6409-3.5744-2.6409-2.9042-4.0593-6.5232-.6848-6.5232-.6848v.2364l-.0081-.0085s-6.3-4.6462-5.1829,0a5.98,5.98,0,0,0-6.1658,1.565c-2.5021,2.8366-5.8977,1.7607-6.1658,3.3257a18.8829,18.8829,0,0,0,0,4.5c.0893,1.2227-3.9765,1.076-4.2893,3.5213s.1788,4.206-.4467,4.7929c-.2108.1977-.1713.4748-.0694.7644l-.0068-.0059c-.0889-.0555-.2222.7536-.4606,1.4827a1.6706,1.6706,0,0,1-1.249-.4419c.1005.379.2377.9195.3932,1.4512-.0353.0431-.0562.0763-.0448.0889a.3529.3529,0,0,0,.0715.0036,6.7727,6.7727,0,0,0,.5616,1.45c.5808.9293-.5809,1.2716-.6255,2.152s.5808,2.7876.1787,4.01,0,4.1571.6255,4.2061c0,0,.932-1.7266,1.2132-2.2474l-.0515.0954c-1.1617,2.152.2125,2.6353-.5919,3.4666s-1.4634.984-.6591,2.2067,2.1892,2.25,1.8765,3.3257a9.8627,9.8627,0,0,0-.3574,2.054s.7149-1.5161,1.251-.6846,1.2064,2.0051.6255,3.0322-.67,3.0811.6255,3.5213c0,0-.2681-1.1738.1788-1.6629s.5361,3.0812,2.234,2.3475.0446,1.1739.4467,2.0542c.224.49.6924.6342,1.037.8406a1.24,1.24,0,0,0-.2756.4216,5.9272,5.9272,0,0,0,1.0532,3.2475c.8327,1.3449,2.5979-.7842,2.5979-.7842,3.07-1.1788,4.3356-3.2257,4.3629-7.4566.0393-6.1,4.3512-8.461,5.9261-16.1612,1.1569-5.6571,5.981,7.7154,6.4391,13.96a13.5875,13.5875,0,0,0,.4675,2.6795,21.5739,21.5739,0,0,0,2.7058,6.2532c.2764.3879.7981,1.8241,1.5661.8905a5.2089,5.2089,0,0,0,.5747-2.877c.4021-.1956.34.3237.34.3237a3.2627,3.2627,0,0,0,3.1936-3.2279c.8937,1.565,0,0,.5809,0s.8489-2.5432.8935-2.8367,2.2787-1.6139,2.86-2.7387-.9312-3.9281-.4467-3.9989a7.8008,7.8008,0,0,0,2.52-1.3136C49.8612,46.1,50.7813,44.1744,50.1132,43.93ZM6.585,27.627a1.835,1.835,0,0,1-.377.0669,2.2341,2.2341,0,0,0,.5371-.8871C6.8989,27.1745,6.9794,27.4975,6.585,27.627Z" fill="#997650"/>
  <path d="M17.6773,26.6337v1c0,7.7,4.7,13.8,10.8,13.8,6,0,9.8-6.2,9.8-13.9,0-4.7-1.2-10.4-6-12.6-6,1.1-9.2,1.9-12.5,3.6-2.8,1.4-1.6,7.3-2.1,8.1" fill="#ffe8bc"/>
  <path d="M25.2773,34.5337c1.4,2.1,4.2,2,6,0" fill="none" stroke="#000" stroke-linecap="round" stroke-linejoin="round" stroke-width="2"/>
  <path d="M17.3086,21.1243l-.0313,7.1094c0,8,5,14,11,14,5.7,0,9.9-7.3,9.8-12.6,0-2.1-.3665-7.7852-.3665-8.2852" fill="none" stroke="#000" stroke-linecap="round" stroke-linejoin="round" stroke-width="2"/>
  <path d="M34.1773,27.0337a2,2,0,1,1-2-2,2.0059,2.0059,0,0,1,2,2"/>
  <path d="M26.1773,27.0337a2,2,0,1,1-2-2,2.0059,2.0059,0,0,1,2,2"/>
  <path d="M21.4773,23.9337l1.1893-.4459a2.5237,2.5237,0,0,1,.9449-.16,6.6083,6.6083,0,0,1,2.2658.4061" fill="none" stroke="#895c3a" stroke-linecap="round" stroke-linejoin="round"/>
  <path d="M34.4773,23.9337l-1.2079-.453a2.4389,2.4389,0,0,0-.9069-.1535,6.6347,6.6347,0,0,0-2.2852.4065" fill="none" stroke="#895c3a" stroke-linecap="round" stroke-linejoin="round"/>
  <path d="M32.4777,15.04c-3.1,1.6-9.8,1.9-12.5,3.6a11.4149,11.4149,0,0,0-5.2,6.1" fill="none" stroke="#000" stroke-linecap="round" stroke-linejoin="round" stroke-width="2"/>
  <path d="M32.8193,15.04c4.4,1.6,7.8,12.4,7.2,20.5" fill="none" stroke="#000" stroke-linecap="round" stroke-linejoin="round" stroke-width="2"/>
  <path d="M14.5653,62.6548s-.7776-3.6691-1.4093-7.1405c-.4252-2.3362-3.8163,3.0078-3.7231-5.123,0,0-4.1242-4.0745-3.64-7.4727A26.0371,26.0371,0,0,0,5.1939,32.42c-.9205-2.9242.4491-4.4608,1.43-6.9448s-.9741-4.726.9454-5.893,3.2755-.524,3.7906-2.4212-1.4413-3.5,0-4.5,3.2614-.9028,4.7136-2.1142S18.5366,8.0479,19.8775,7.78a17.075,17.075,0,0,1,3.8138-.0089s-.8783-4.4608,5.1829,0c0,0,3.9268-3.3025,6.5313.4569,0,0,2.11-1.1673,3.5744,2.6409,0,0,4.1791.1354,5.79,6.5936a25.3121,25.3121,0,0,0,2.5207,3.09c1.0885,1.0284,1.4189,1.6924,1.5137,4.3675s.9728,2.5293.5338,4.2651-1.4127,4.4159-.6905,5.2a5.3124,5.3124,0,0,1,1.4989,4.411c-.3538,2.004-.7919,4.3091.0057,5.134s-3.3338,2.3263-3.1871,4.5378-2.5054,3.6219-2.7127,4.95.22,1.9395-.8936,2.8367-3.7038,2.5155-4.2221,4.11" fill="none" stroke="#000" stroke-linecap="round" stroke-linejoin="round" stroke-width="2.1403"/>
  <path d="M24.5169,45.84s-2.7338,4.3029-2.8917,7.1083-1.1091,6.4281-1.5245,6.8965" fill="none" stroke="#000" stroke-linecap="round" stroke-linejoin="round" stroke-width="2"/>
  <path d="M32.6464,45.84a81.1257,81.1257,0,0,0,1.7124,9.0524l.81,2.4873" fill="none" stroke="#000" stroke-linecap="round" stroke-linejoin="round" stroke-width="2"/>
</svg>
