<svg id="emoji" xmlns="http://www.w3.org/2000/svg" viewBox="0 0 40 50.82"><defs><style>.cls-1{fill:#212121;}.cls-2{fill:#ffe8bc;}.cls-11,.cls-3,.cls-4,.cls-5,.cls-8,.cls-9{fill:none;}.cls-3,.cls-5,.cls-6,.cls-8{stroke:#000;}.cls-11,.cls-3,.cls-4,.cls-5,.cls-7,.cls-9{stroke-linecap:round;}.cls-11,.cls-3,.cls-6,.cls-7,.cls-8{stroke-linejoin:round;stroke-width:2px;}.cls-4{stroke:#f1b31c;}.cls-4,.cls-5,.cls-9{stroke-miterlimit:10;}.cls-5,.cls-9{stroke-width:0.5px;}.cls-7{fill:#fece4b;stroke:#1d1d1b;}.cls-9{stroke:#d6af50;}.cls-10{fill:#111;opacity:0.8;}.cls-11{stroke:#030404;}</style></defs><title>FerdinandSorg</title><g id="line"><path class="cls-1" d="M55.18,60.92v-9c0-5-5-9-10-9H42.52V40.3a12,12,0,0,1-13.05,0v2.62H27.18c-5,0-10,4-10,9v9" transform="translate(-16.18 -10.23)"/><path class="cls-2" d="M28.44,15.22s5.68,1.2,14.81,0a37,37,0,0,1,2.43,8.45,16.45,16.45,0,0,1-.37,6.77c-1.61,5.58-5.83,7.78-9.53,7.78h.08c-1-.35-7.14-.54-9.52-8.78a14.14,14.14,0,0,1-.41-1.91,15.57,15.57,0,0,1,.74-7Z" transform="translate(-16.18 -10.23)"/><path class="cls-3" d="M39.13,32.33a9.52,9.52,0,0,1-5.9,0" transform="translate(-16.18 -10.23)"/><path class="cls-3" d="M32.84,32.46" transform="translate(-16.18 -10.23)"/><path class="cls-4" d="M38.41,20.27" transform="translate(-16.18 -10.23)"/><path class="cls-4" d="M42.92,21.68" transform="translate(-16.18 -10.23)"/><path d="M41.9,24.34a2,2,0,1,1-2-2,2,2,0,0,1,2,2" transform="translate(-16.18 -10.23)"/><path d="M34.16,24.34a2,2,0,1,1-2-2,2,2,0,0,1,2,2" transform="translate(-16.18 -10.23)"/><path class="cls-5" d="M37.9,21.71" transform="translate(-16.18 -10.23)"/><path class="cls-5" d="M42.42,21.24" transform="translate(-16.18 -10.23)"/><line class="cls-5" x1="13.47" y1="11.25" x2="17.99" y2="11.48"/><line class="cls-5" x1="26.15" y1="11.23" x2="21.63" y2="11.47"/><line class="cls-6" x1="12.27" y1="5" x2="27.08" y2="4.98"/><path class="cls-6" d="M43.25,15.21" transform="translate(-16.18 -10.23)"/><path class="cls-7" d="M33.41,53" transform="translate(-16.18 -10.23)"/><path class="cls-8" d="M31.92,12.18a11.33,11.33,0,0,1,3.35-.9A9,9,0,0,1,44.84,18a39.86,39.86,0,0,1,1,4.65,13.42,13.42,0,0,1-.37,6.77C43.61,34.79,40,38.2,36,38.2h.09c-3,.13-8.1-3.9-9.64-9.78a15.51,15.51,0,0,1-.48-6,21.32,21.32,0,0,1,1.5-5.62l.07-.17A8.3,8.3,0,0,1,31.92,12.18Z" transform="translate(-16.18 -10.23)"/><polygon class="cls-9" points="23.49 10.76 26.97 10.76 29.43 12.52 29.43 15.31 26.97 18.09 23.49 18.09 21.04 15.94 21.04 12.91 23.49 10.76"/><line class="cls-9" x1="18.46" y1="12.91" x2="21.04" y2="12.91"/><polygon class="cls-9" points="16.06 10.76 12.59 10.76 10.13 12.52 10.13 15.31 12.59 18.09 16.06 18.09 18.52 15.94 18.52 12.91 16.06 10.76"/><path class="cls-10" d="M55.18,60.83c-.1,0,3.54-20.8-11.9-17.91,0,0,3.87.51,4.54,6.28A70.1,70.1,0,0,1,48,60.92h7.17Z" transform="translate(-16.18 -10.23)"/><path class="cls-11" d="M17.18,60V51c0-5,5-9,10-9h2.29V39.42a12,12,0,0,0,13.05,0V42h2.66c5,0,10,4,10,9v9" transform="translate(-16.18 -10.23)"/><path d="M28.44,15.22l15.08.26s-3.08-5.2-7.34-4.25A20.07,20.07,0,0,0,28.44,15.22Z" transform="translate(-16.18 -10.23)"/></g></svg>