<svg id="emoji" xmlns="http://www.w3.org/2000/svg" viewBox="0 0 37.84 50.3"><defs><style>.cls-1{fill:#ffe8bc;}.cls-10,.cls-11,.cls-2,.cls-3,.cls-6,.cls-7,.cls-9{fill:none;}.cls-10,.cls-11,.cls-2,.cls-7,.cls-8{stroke:#000;}.cls-2,.cls-3,.cls-6,.cls-9{stroke-linecap:round;}.cls-10,.cls-11,.cls-2,.cls-6,.cls-7,.cls-8{stroke-linejoin:round;}.cls-2,.cls-6,.cls-7,.cls-8{stroke-width:2px;}.cls-3{stroke:#f1b31c;}.cls-3,.cls-9{stroke-miterlimit:10;}.cls-4{fill:#3f3f3f;}.cls-5{opacity:0.4;}.cls-6{stroke:#030404;}.cls-8{fill:#f9e664;}.cls-9{stroke:#f9e664;stroke-width:0.75px;}.cls-10{stroke-width:0.5px;}</style></defs><title>FlorianNagel</title><g id="line"><path class="cls-1" d="M29.94,16.57s4.3.65,12.92-.5a52.39,52.39,0,0,1,1.85,8,15.6,15.6,0,0,1-.35,6.38c-1.52,5.27-5.5,8.28-9,8.28h.08c-3.48,0-7.46-3-9-8.28a12.4,12.4,0,0,1-.38-1.79A14.57,14.57,0,0,1,26.78,22Z" transform="translate(-16.98 -10.77)"/><path class="cls-2" d="M38.85,31.84a5.85,5.85,0,0,1-6.51,0" transform="translate(-16.98 -10.77)"/><path class="cls-2" d="M32.6,32.34" transform="translate(-16.98 -10.77)"/><path class="cls-3" d="M37.85,20.84" transform="translate(-16.98 -10.77)"/><path class="cls-3" d="M42.11,22.18" transform="translate(-16.98 -10.77)"/><path class="cls-4" d="M53.82,61.07c-.57,0,0-9.53,0-9.53,0-4.24-5.23-8.3-9.23-8.39-5.9,4.71-11.51,4.71-17.41,0-4,.19-9.42,3.2-9.42,7.35,0,0,.38,10.57-.1,10.57" transform="translate(-16.98 -10.77)"/><path class="cls-5" d="M44.16,43.65A17.38,17.38,0,0,1,35.77,47c12.35.38,12.64,10.19,13.39,14H54c-.09,0,3-18-9.81-17.35" transform="translate(-16.98 -10.77)"/><path class="cls-6" d="M18,60.06V51.57c0-4.71,4.72-8.49,9.43-8.49q8.49,7.08,17,0c4.71,0,9.43,3.78,9.43,8.49v8.49" transform="translate(-16.98 -10.77)"/><path class="cls-7" d="M44.78,23.72a51.1,51.1,0,0,0-1.2-5.55,2.52,2.52,0,0,0-2.64-1.84,65.15,65.15,0,0,1-10.06-.16,2.5,2.5,0,0,0-2.55,1.62l-1.45,3.84a2.48,2.48,0,0,0-.16.81l-.11,3.61a11.81,11.81,0,0,0,2.6,7.78l1.56,2a6.12,6.12,0,0,0,4.77,2.28h.82a4.81,4.81,0,0,0,3.77-1.81l1.43-1.81a13.71,13.71,0,0,0,2.93-7.18l.3-2.9A2.73,2.73,0,0,0,44.78,23.72Z" transform="translate(-16.98 -10.77)"/><path d="M41.25,24.68a1.89,1.89,0,1,1-1.88-1.89,1.89,1.89,0,0,1,1.88,1.89" transform="translate(-16.98 -10.77)"/><path d="M33.71,24.68a1.89,1.89,0,1,1-1.89-1.89,1.89,1.89,0,0,1,1.89,1.89" transform="translate(-16.98 -10.77)"/><path class="cls-8" d="M45.21,23.5c.14.5-2.43-6.39-6.28-6.2a33.25,33.25,0,0,1-8,0,1.59,1.59,0,0,0-1.64.84l-3,6s-3.56-13.08,6.88-11.81C33.11,12.34,47.87,8,45.21,23.5Z" transform="translate(-16.98 -10.77)"/><path class="cls-2" d="M23.4,13.11" transform="translate(-16.98 -10.77)"/><path class="cls-2" d="M25.82,24" transform="translate(-16.98 -10.77)"/><path class="cls-9" d="M42.11,23.26A4.85,4.85,0,0,0,38.2,21.1" transform="translate(-16.98 -10.77)"/><path class="cls-9" d="M29.2,23.26a4.85,4.85,0,0,1,3.91-2.16" transform="translate(-16.98 -10.77)"/><path class="cls-10" d="M27.55,23H34a.64.64,0,0,1,.64.64v2.44a1.27,1.27,0,0,1-1.27,1.27h-5a.56.56,0,0,1-.54-.41L27,23.69A.56.56,0,0,1,27.55,23Z" transform="translate(-16.98 -10.77)"/><path class="cls-10" d="M43.72,23H37.14a.53.53,0,0,0-.53.52v2.55a1.28,1.28,0,0,0,1.28,1.28h4.94a.53.53,0,0,0,.51-.39l.85-3.35A.49.49,0,0,0,43.72,23Z" transform="translate(-16.98 -10.77)"/><polyline class="cls-11" points="18.52 12.73 18.52 12.73 18.52 12.73"/><line class="cls-11" x1="10.02" y1="12.23" x2="27.1" y2="12.23"/></g></svg>