<svg id="Ebene_2" data-name="Ebene 2" xmlns="http://www.w3.org/2000/svg" viewBox="0 0 55 65">
  <title>guemil</title>
  <path d="M29.1943,46.9275c.249-1.3671.5024-2.7726.7612-4.1771.5651-3.0665,1.1239-6.1342,1.7091-9.1969a.6424.6424,0,0,0-.4875-.8576c-2.0194-.769-4.0227-1.58-6.0432-2.3461a.7032.7032,0,0,1-.5584-.7759q.0358-3.0768.0015-6.1542a.7483.7483,0,0,1,.5013-.7589,5.0823,5.0823,0,0,1,4.1624-.3455c2.8935.8706,5.8461,1.5481,8.784,2.2654a.8253.8253,0,0,1,.7378.8569q.6214,6.77,1.271,13.5383c.2691,2.8343.5454,5.6679.8236,8.5549a2.2387,2.2387,0,0,0,.52.0449,2.6669,2.6669,0,0,1,2.4465.9757,22.8985,22.8985,0,0,1,6.76,15.6694c.0089.2443.0011.4892.0011.7722H45.6583C44.741,54.8317,39.2613,48.8869,29.1943,46.9275Z"/>
  <path d="M16.6037,47.5812c-.2489-2.51-.4872-4.9315-.73-7.3531-.4222-4.2167-.8515-8.4327-1.2551-12.6512a.6826.6826,0,0,1,.3062-.5513c2.3394-1.0125,4.6916-1.9953,7.0418-2.9826a1.6579,1.6579,0,0,1,.2943-.0457v1.2871c0,1.9156.014,3.8314-.01,5.7467a.7452.7452,0,0,0,.56.8475c1.9352.7368,3.8472,1.5347,5.78,2.2782.42.1615.5484.349.4632.798q-1.0887,5.7373-2.129,11.4838c-.0749.4167-.2044.5634-.6314.5961A18.0839,18.0839,0,0,0,9.6946,62.2652c-.14.8742-.1739,1.7656-.2624,2.7068H4.4427a19.1451,19.1451,0,0,1,.6023-5.4772A22.898,22.898,0,0,1,11.6842,48.08a1.6318,1.6318,0,0,1,1.2669-.5114C14.1521,47.609,15.3553,47.5812,16.6037,47.5812Z"/>
  <path d="M17.0048,65h-5.048c.1665-5.3136,2.232-9.6471,6.5854-12.6406,5.4366-3.7383,11.1892-3.94,16.9253-.6634A15.0772,15.0772,0,0,1,42.98,64.99H37.8978a10.45,10.45,0,0,0-4.2768-8.4012,9.9769,9.9769,0,0,0-6.7282-2.0107A10.6008,10.6008,0,0,0,17.0048,65Z"/>
  <path d="M30.3555,64.9723c-.3825-1.7644-1.3455-2.7164-2.7564-2.7488-1.5245-.0351-2.4786.85-2.9574,2.7719H19.5744a7.518,7.518,0,0,1,2.91-6.1187,7.49,7.49,0,0,1,8.6788-.8882,7.7476,7.7476,0,0,1,4.2341,6.9838Z"/>
  <path d="M52.8779,47.6205V60.7744a26.8367,26.8367,0,0,0-6.5638-13.1539Z"/>
  <path d="M2.1221,60.7361V47.6369h6.55A26.5152,26.5152,0,0,0,2.1221,60.7361Z"/>
</svg>
