<svg id="Layer_1" data-name="Layer 1" xmlns="http://www.w3.org/2000/svg" viewBox="0 0 68.79 74"><defs><style>.cls-1{fill:#6e2f37;}.cls-2{fill:#662b2b;}.cls-3{fill:#c7ac84;}.cls-4,.cls-5,.cls-7,.cls-8,.cls-9{fill:none;}.cls-4,.cls-5,.cls-8{stroke:#000;stroke-width:2px;}.cls-4,.cls-5{stroke-miterlimit:10;}.cls-5,.cls-7,.cls-8,.cls-9{stroke-linecap:round;}.cls-6{fill:#3a46d0;}.cls-7{stroke:#662b2b;}.cls-7,.cls-8,.cls-9{stroke-linejoin:round;}.cls-9{stroke:#000100;}</style></defs><title>Artboard 1</title><path class="cls-1" d="M24.68,43.93s4.59,3.91,7.84,4.16-.59,5.67-.59,5.67h0l-9.5-5.25Z"/><path class="cls-2" d="M42.35,10.68s-5.5-7.09-10.83-2.5l-14,6.41s-4.92.92-1.75,15.59c0,0,.25,10-2.34,12.83h0s-4.91,6.66.09,9.75S14.85,54,14.85,54l5.42-1.92,2.16-3.58,3.92-3s-4.83-8.92-4.92-13.25c0,0-.08-7.59,6.17-5.5s7.08-8.5,8-8.67,2-4.08,8.17,4.67,3.25,9.41,3.5,10.5S42.85,49.09,33.6,48.18,32,53.34,32,53.34s2.41,3.25,10.75-3c0,0,2.25-2.17,3.5.92h0s2.91.42,4.25,1.58,7.25-8.66,6.41-11.5h0s-6.16-10.75-5.5-19.25h0S52.1,12.76,42.35,10.68Z"/><path class="cls-3" d="M39.77,17.59S34,15.34,32.35,25.67c0,0-1.58,2-6,.67h0a5.13,5.13,0,0,0-5.17,4.08C20.1,34.76,24.68,48,33,48.09c0,0,14.5,1.08,13.5-20,0,0-2.25-6.31-6.46-10.36"/><path class="cls-4" d="M46.93,30.67c0,9.63-5.51,17.38-12.93,17.38S21.23,40.64,21.23,31"/><path class="cls-5" d="M40.06,17.73s7.33,6.12,6.79,14.54"/><path class="cls-6" d="M10.6,67.09S9.77,50.93,22,52.43c0,0-1.59-3.42.66-3.67h0l11.09,6.17,9-4.59s1.58-2.08,3.5.92h0S58.1,53.43,56.18,67"/><path class="cls-5" d="M22.53,52.33c-2.63-3.63.78-3.78.78-3.78,6.39,4,6.4,4.05,9.75,5.56s.81,4.81.81,4.81"/><path class="cls-4" d="M40.43,17.92s-5.62-3-6.87,4-6.25,4.5-6.25,4.5-5.63-1-6.13,4.88"/><path class="cls-5" d="M12.93,52.55c-4-2.38,1.13-11.13,1.13-11.13a27.63,27.63,0,0,0,.75-16.25c-2.25-9.37,4.75-11.62,4.75-11.62s5.12-.88,11.62-5.38,11.5,3,11.5,3"/><path class="cls-5" d="M42.06,10.67s10.37.13,9.5,14.63a29.16,29.16,0,0,0,4.25,13.62c4.12,6.5-3.5,11.88-3.5,11.88"/><path d="M28.48,56.16a1.5,1.5,0,1,0,3,0,1.5,1.5,0,1,0-3,0Z"/><path d="M36.48,56.16a1.5,1.5,0,1,0,3,0,1.5,1.5,0,1,0-3,0Z"/><path class="cls-5" d="M33.31,59.58s-10.13-.25-10.79-6.37c0,0,.54-1.38-1.75-1.34S9.89,53.66,11,66.62"/><path class="cls-5" d="M33.88,59.58S44,59.33,44.67,53.21c0,0-.54-1.38,1.75-1.34s10.88,1.79,9.8,14.75"/><path class="cls-5" d="M34.71,54.77l7.54-4.44s4.68-2.13,3.93,1.56"/><path class="cls-5" d="M30.23,56.5s1.75,5.59.62,10.09"/><path class="cls-5" d="M38.23,56.5s1.75,5.59.62,10.09"/><path class="cls-7" d="M42.13,26.25l-1.6-.61a8.62,8.62,0,0,0-3.87.05"/><path class="cls-8" d="M31.32,40.58a6.37,6.37,0,0,0,6,0"/><path d="M40.22,31.73a2,2,0,1,1-2-2,2,2,0,0,1,2,2"/><path d="M32.22,31.73a2,2,0,1,1-2-2,2,2,0,0,1,2,2"/><path class="cls-9" d="M40.85,30.74c-.1.1-.23.69-.83.79a2.15,2.15,0,0,1-1.6-.1"/><path class="cls-9" d="M40,29.36c-.3.38-.42.87-1,1s-.2,1.2-.6,1"/><path class="cls-9" d="M27.63,31a1.7,1.7,0,0,0,1,.5,2.15,2.15,0,0,0,1.6-.1"/><path class="cls-9" d="M28.58,29.55a1.84,1.84,0,0,0,1,.78c.6.2.2,1.2.6,1"/></svg>