<svg id="emoji" xmlns="http://www.w3.org/2000/svg" viewBox="0 0 37.84 54.51"><defs><style>.cls-1{fill:#bf926a;}.cls-2{fill:#ffe8bc;}.cls-3,.cls-4,.cls-7,.cls-8,.cls-9{fill:none;}.cls-3,.cls-8{stroke:#000;}.cls-3,.cls-4,.cls-7,.cls-9{stroke-linecap:round;}.cls-3,.cls-7,.cls-8{stroke-linejoin:round;stroke-width:2px;}.cls-4{stroke:#f1b31c;}.cls-4,.cls-9{stroke-miterlimit:10;}.cls-5{fill:#131311;}.cls-6{fill:#1d1d1b;}.cls-7{stroke:#030404;}.cls-9{stroke:#c96;stroke-width:0.75px;}</style></defs><title>JonasDunkel</title><g id="line"><path class="cls-1" d="M44.5,22.79l-1.42-6.46a46.23,46.23,0,0,1-13.9-1l-3,7.1s.86-9.13-2.79-9.8c0,0,2.07-4.23,9.44-1.85,0,0,1.42-7.06,9.33.16C42.17,10.91,50.48,10.75,44.5,22.79Z" transform="translate(-16.98 -6.56)"/><path class="cls-2" d="M29.18,14.73s5.06,2.49,13.68,1.34a52.39,52.39,0,0,1,1.85,8,15.6,15.6,0,0,1-.35,6.38c-1.52,5.27-5.5,8.28-9,8.28h.08c-3.48,0-7.46-3-9-8.28a12.4,12.4,0,0,1-.38-1.79A14.57,14.57,0,0,1,26.78,22Z" transform="translate(-16.98 -6.56)"/><path class="cls-3" d="M39.82,31.65a10.24,10.24,0,0,1-8.48,0" transform="translate(-16.98 -6.56)"/><path class="cls-3" d="M32.6,32.34" transform="translate(-16.98 -6.56)"/><path class="cls-4" d="M37.85,20.84" transform="translate(-16.98 -6.56)"/><path class="cls-4" d="M42.11,22.18" transform="translate(-16.98 -6.56)"/><path class="cls-3" d="M46.47,17.71c.5-1.82.59-4-.57-5.51a3.56,3.56,0,0,0-3.73-1.29,2.55,2.55,0,0,0-1.53,2.91h0" transform="translate(-16.98 -6.56)"/><path class="cls-3" d="M39.86,9s-2.59-2.56-5.43-.91a3.06,3.06,0,0,0-1.55,2.08,2.38,2.38,0,0,0,1.4,2.55" transform="translate(-16.98 -6.56)"/><path class="cls-5" d="M53.82,61.07c-.57,0,0-9.53,0-9.53,0-4.24-5.23-8.3-9.23-8.39-5.9,4.71-11.51,4.71-17.41,0-4,.19-9.42,3.2-9.42,7.35,0,0,.38,10.57-.1,10.57" transform="translate(-16.98 -6.56)"/><path class="cls-6" d="M44.16,43.43a17.49,17.49,0,0,1-8.39,3.4c12.35.37,12.64,10.18,13.39,14H54c-.09,0,1.51-17.35-9.81-17.35" transform="translate(-16.98 -6.56)"/><path class="cls-7" d="M18,60.06V51.57c0-4.71,4.72-8.49,9.43-8.49q8.49,7.08,17,0c4.71,0,9.43,3.78,9.43,8.49v8.49" transform="translate(-16.98 -6.56)"/><path class="cls-8" d="M28.92,14.73s10,3.34,14.47,1.34a50.88,50.88,0,0,1,2,8A14.63,14.63,0,0,1,45,30.42c-1.61,5.27-5.82,8.28-9.51,8.28h.09a10.08,10.08,0,0,1-9.51-8.28c-.78-4.32-.41-6.27.33-8.4Z" transform="translate(-16.98 -6.56)"/><path d="M41.25,24.68a1.89,1.89,0,1,1-1.88-1.89,1.89,1.89,0,0,1,1.88,1.89" transform="translate(-16.98 -6.56)"/><path d="M33.71,24.68a1.89,1.89,0,1,1-1.89-1.89,1.89,1.89,0,0,1,1.89,1.89" transform="translate(-16.98 -6.56)"/><path class="cls-3" d="M25.82,24s.68-9.63-2.42-10.93c0-.51,4.84-4.23,7.25-2.61" transform="translate(-16.98 -6.56)"/><path class="cls-9" d="M29.07,22.88a4.83,4.83,0,0,1,4.24-1.38" transform="translate(-16.98 -6.56)"/><path class="cls-9" d="M42.31,22.88a4.83,4.83,0,0,0-4.24-1.38" transform="translate(-16.98 -6.56)"/></g></svg>