<?xml version="1.0" encoding="utf-8"?>
<!-- Generator: Adobe Illustrator 16.0.4, SVG Export Plug-In . SVG Version: 6.00 Build 0)  -->
<!DOCTYPE svg PUBLIC "-//W3C//DTD SVG 1.1//EN" "http://www.w3.org/Graphics/SVG/1.1/DTD/svg11.dtd">
<svg version="1.1" id="Ebene_1" xmlns="http://www.w3.org/2000/svg" xmlns:xlink="http://www.w3.org/1999/xlink" x="0px" y="0px"
	 width="55px" height="65px" viewBox="0 0 55 65" enable-background="new 0 0 55 65" xml:space="preserve">
<path fill="#83674C" d="M24.6,12.2c-0.3-0.5-0.7-2.5-0.4-4.6c0.5-3.5,4.6-4.3,6.5-3.9c2,0.4,5.7,1.9,6.2,4.5
	c0.399,2.2-0.5,3.8-2.7,5.9"/>
<path fill="none" stroke="#1C1C1B" stroke-width="2" stroke-linecap="round" stroke-linejoin="round" d="M24.6,12.4
	c-0.3-0.5-0.7-2.5-0.4-4.6c0.5-3.5,4.6-4.3,6.5-3.9c2,0.4,5.7,1.9,6.2,4.5c0.399,2.2-0.5,3.8-2.7,5.9"/>
<path fill="#83674C" d="M16.2,33.3C12,16.1,17.9,9.8,26.7,9.8c10,0,15.5,7.3,11.1,22.9"/>
<path fill="#1C1C1B" d="M32.6,27.4c0,1.1-0.899,2-2,2c-1.1,0-2-0.9-2-2s0.9-2,2-2C31.7,25.4,32.6,26.3,32.6,27.4"/>
<path fill="#1C1C1B" d="M24.6,27.4c0,1.1-0.9,2-2,2s-2-0.9-2-2s0.9-2,2-2S24.6,26.3,24.6,27.4"/>
<path fill="#FFE8BC" d="M15.6,28.4c-0.1,8,4.1,14,11,14c7.1,0,11.1-6,11.1-14c0-5-3-10-3-10c-8,0-10,3-16,1
	C18.7,19.4,15.7,23.4,15.6,28.4"/>
<path d="M32.6,27.4c0,1.1-0.899,2-2,2c-1.1,0-2-0.9-2-2s0.9-2,2-2C31.7,25.4,32.6,26.3,32.6,27.4"/>
<path d="M24.6,27.4c0,1.1-0.9,2-2,2s-2-0.9-2-2s0.9-2,2-2S24.6,26.3,24.6,27.4"/>
<path fill="none" stroke="#1C1C1B" stroke-width="2" stroke-linecap="round" stroke-linejoin="round" d="M23.6,36.7
	c2.1,0.8,4.1,0.8,6,0"/>
<path fill="#83674C" d="M22.9,39.6l-5.1-3C16.3,39.8,29.3,47.9,35.9,36.7l-6.2,3.1L22.9,39.6z"/>
<path fill="none" stroke="#1C1C1B" stroke-linecap="round" stroke-linejoin="round" d="M22.9,39.6l-5.1-3
	C17.2,40.1,28.7,48.3,35.9,36.7l-6.2,3.1L22.9,39.6z"/>
<path fill="none" stroke="#1D1D1B" stroke-width="2" stroke-linecap="round" stroke-linejoin="round" stroke-miterlimit="10" d="
	M15.6,31.5C11.5,17.4,18.2,9.6,27,9.6c10,0,14.8,6.3,10.5,21.9"/>
<path fill="none" stroke="#F0B41A" stroke-linecap="round" stroke-linejoin="round" stroke-miterlimit="10" d="M25.2,27.3
	c-0.1,2.2-1.3,3.1-3.5,3.1c-2.2,0-4-1.3-4-3.5c0-1,0.1-1.7,0.1-1.7c0.7-0.7,2.7-0.7,3.8-0.7c1.3,0,3.6,0.2,3.6,0.2
	S25.2,26.2,25.2,27.3z"/>
<path fill="none" stroke="#F0B41A" stroke-linecap="round" stroke-linejoin="round" stroke-miterlimit="10" d="M27.7,27.3
	c0.1,2.2,1.3,3.1,3.5,3.1s4-1.3,4-3.5c0-1-0.101-1.7-0.101-1.7c-0.699-0.7-2.699-0.7-3.8-0.7c-1.3,0-3.6,0.2-3.6,0.2
	S27.6,26.2,27.7,27.3z"/>
<line fill="none" stroke="#F0B41A" stroke-linecap="round" stroke-linejoin="round" stroke-miterlimit="10" x1="15.6" y1="26.9" x2="17.7" y2="26.9"/>
<line fill="none" stroke="#F0B41A" stroke-linecap="round" stroke-linejoin="round" stroke-miterlimit="10" x1="35.6" y1="26.7" x2="37.7" y2="26.7"/>
<path fill="none" stroke="#1C1C1B" stroke-width="2" stroke-linejoin="round" d="M15.6,28.4c-0.1,8,4.9,14,11,14
	c5.9,0,11.1-6,11.1-14c0-5-3-11-3-11c-8,0-10,3-16,1C18.7,18.4,15.7,23.4,15.6,28.4z"/>
<path fill="#83674C" d="M27.9,34.9l6.2,0.5c0.5,0-7.6-6-15,0l6.3-0.4L27.9,34.9z"/>
<path fill="none" stroke="#1C1C1B" stroke-linecap="round" stroke-linejoin="round" d="M27.8,34.9l6.2,0.5c0.5,0-7.6-6-15,0l6.3-0.4
	L27.8,34.9z"/>
<path fill="#FFFFFF" d="M45.1,64.391c-0.6,0,0-9.99,0-9.99c0-4.5-5.5-8.801-9.699-8.9c-6.2,5-12.101,4.9-18.3-0.1
	C12.9,45.6,7.2,48.8,7.2,53.2c0,0,0.4,11.2-0.1,11.2"/>
<path fill="#9AD2F3" d="M7.1,64.4c-0.4-1.5-0.1-9,1-12.9c1.7-5.7,9.2-5.4,10.3-6c0.5,8.3,2.7,13.744,5.6,19.344"/>
<path fill="#9AD2F3" d="M45.1,64.391c0.4-1.5-0.2-8.04-1.3-11.94c-1.7-5.7-9.2-5.4-10.3-6c-0.5,8.3-2.225,12.794-5.125,18.394"/>
<path fill="#54B4E4" d="M32.6,51.9c5,3.6,7.397,9.725,7.997,12.625l4.503-0.135c0,0,3.4-20.091-11.699-18.49"/>
<path fill="none" stroke="#030404" stroke-width="2" stroke-linecap="round" stroke-linejoin="round" d="M7.1,63.4v-9c0-5,5-9,10-9
	c6,5,12,5,18,0c5,0,10,4,10,9v9"/>
<path fill="none" stroke="#030404" stroke-width="2" stroke-linecap="round" stroke-linejoin="round" d="M24,63.9
	c0,0-4.8-5.4-4.7-16.4"/>
<path fill="none" stroke="#030404" stroke-width="2" stroke-linecap="round" stroke-linejoin="round" d="M28.1,63.9
	c0,0,4.801-5.4,4.7-16.4"/>
</svg>
