<?xml version="1.0" encoding="utf-8"?>
<!-- Generator: Adobe Illustrator 24.1.0, SVG Export Plug-In . SVG Version: 6.00 Build 0)  -->
<svg version="1.1" id="Ebene_1" xmlns="http://www.w3.org/2000/svg" xmlns:xlink="http://www.w3.org/1999/xlink" x="0px" y="0px"
	 viewBox="0 0 55 65" style="enable-background:new 0 0 55 65;" xml:space="preserve">
<style type="text/css">
	.st0{fill:#92D3F5;}
	.st1{fill:#61B2E4;}
	.st2{fill:#A57939;}
	.st3{fill:#FADCBC;}
</style>
<g>
	<g id="color">
		<g>
			<path class="st0" d="M49.4,28L37,23c-0.2-4.5-2-11.8-11.1-12.1c-12.6,0-15.3,11.5-15.3,11.5l-1,2.1l-0.6,1.3L3.4,28"/>
		</g>
		<g>
			<path class="st1" d="M8.7,28l-2.4,6c-0.3,0.6-0.4,1.3-0.2,2l3,11.2c0.1,0.2,0.3,0.3,0.5,0.3c0.1,0,0.2-0.1,0.3-0.3l0.2-8.1
				l0.6-0.6l1-1.4l8.4-9.2"/>
		</g>
		<g>
			<path class="st0" d="M6.5,64.9v-4.2c0-5.2,4.9-9.8,10.1-9.8c6.3,5.2,13.6,5.1,19.9-0.1c5.2,0,9.8,4.6,9.8,9.9v4.2"/>
		</g>
		<g>
			<path class="st1" d="M36.5,64.9v-4.2c-0.1-2.8-1.7-5.6-3.9-7.3c1-0.6,2.8-1.6,3.8-2.5c5.2,0,9.8,4.6,9.8,9.9v4.2"/>
		</g>
		<g>
			<path class="st1" d="M44.6,43.5c-2.7-1.1-3.9-4.2-2.8-6.9c1.1-2.7,4.2-3.9,6.9-2.8c2.7,1.1,3.9,4.2,2.8,6.9
				c-0.5,1.1-1.3,2-2.4,2.6"/>
		</g>
		<g>
			<path class="st0" d="M46.6,35.1c-0.9,0.1-1.8,0.6-2.4,1.2c1.6-0.4,3.3-0.4,4.9,0C48.4,35.7,47.5,35.2,46.6,35.1z"/>
		</g>
		<g>
			<polyline class="st2" points="48.7,64.9 48.7,43.5 44.5,43.5 44.5,64.9 			"/>
		</g>
	</g>
	<g id="hair">
		<g>
			<path class="st2" d="M26.2,58c14-10.1,13.7-23.2,12.2-28.9h-1.8c0,0,1.7,8.3-10.2,8.3s-9.9-8.3-9.9-8.3h-1.8
				C13,34.1,12.1,45.6,26.2,58z"/>
		</g>
	</g>
	<g id="skin">
		<g>
			<path class="st3" d="M36.6,28.1c0,0,1.7,9.3-10.2,9.3s-9.9-9.3-9.9-9.3"/>
		</g>
	</g>
	<g id="line">
		<g>
			<path d="M9.5,48.5c-0.2,0-0.5-0.1-0.7-0.2c-0.3-0.2-0.6-0.5-0.7-0.9L5.2,36.2c-0.3-0.9-0.2-1.8,0.3-2.7l2.3-5.8
				c0.2-0.5,0.8-0.8,1.4-0.6c0.5,0.2,0.8,0.8,0.6,1.4l-2.3,5.9c0,0,0,0.1-0.1,0.1c-0.2,0.4-0.2,0.8-0.1,1.2L9,42.3L9,39.1
				c0-0.6,0.1-1.1,0.2-1.7c0.1-0.6,0.7-0.9,1.3-0.7c0.6,0.1,0.9,0.7,0.7,1.3c-0.1,0.4-0.2,0.8-0.2,1.2l-0.2,8.1c0,0.1,0,0.2,0,0.3
				c-0.1,0.5-0.5,0.8-1,1C9.8,48.5,9.6,48.5,9.5,48.5z M10.2,46.9L10.2,46.9L10.2,46.9z"/>
		</g>
		<g>
			<path d="M49.4,29.2h-46c-0.5,0-0.9-0.4-1-0.8c-0.1-0.5,0.2-1,0.6-1.2l5.6-2.3c0,0,0,0,0,0c0-0.2,2.6-15,16.9-15
				c10.3,0.4,12.1,8.9,12.4,12.5l11.9,4.9c0.5,0.2,0.7,0.7,0.6,1.2C50.4,28.8,49.9,29.2,49.4,29.2z M8.7,27.1h35.4l-7.6-3.1
				c-0.4-0.2-0.6-0.5-0.6-0.9c-0.2-3.2-1.5-10.8-10.4-11.1c-10.3,0-13.7,8.7-14.6,12l4-1.6c0.2-1.1,0.5-2.2,0.9-3.2
				c0.2-0.5,0.8-0.8,1.4-0.6c0.5,0.2,0.8,0.8,0.6,1.4c-0.4,1.1-0.7,2.2-0.9,3.3c-0.1,0.4-0.3,0.7-0.6,0.8L8.7,27.1z"/>
		</g>
		<g>
			<path d="M44.6,44.6c-0.1,0-0.3,0-0.4-0.1c-1.5-0.7-2.7-1.9-3.4-3.4c-0.6-1.6-0.6-3.3,0-4.8c0.7-1.5,1.9-2.7,3.4-3.4
				c1.6-0.6,3.3-0.6,4.8,0c3.2,1.3,4.7,5,3.3,8.2c-0.6,1.3-1.6,2.4-2.8,3.1c-0.5,0.3-1.1,0.1-1.4-0.4c-0.3-0.5-0.1-1.1,0.4-1.4
				c0.8-0.4,1.5-1.2,1.9-2.1c0.9-2.1-0.1-4.6-2.2-5.5c-1-0.4-2.2-0.4-3.2,0c-1,0.4-1.8,1.2-2.3,2.2c-0.4,1-0.4,2.2,0,3.2
				c0.4,1,1.2,1.8,2.2,2.3c0.5,0.2,0.8,0.8,0.6,1.4C45.4,44.4,45,44.6,44.6,44.6z"/>
		</g>
		<g>
			<path d="M48.7,65c-0.6,0-1-0.5-1-1V44.6h-2.1V64c0,0.6-0.5,1-1,1s-1-0.5-1-1V43.6c0-0.6,0.5-1,1-1h4.2c0.6,0,1,0.5,1,1V64
				C49.8,64.5,49.3,65,48.7,65z"/>
		</g>
		<g>
			<path d="M44.5,56.8c-0.3,0-0.6-0.1-0.8-0.4c-1.5-2-4-3.5-6.5-3.8c-0.6-0.1-1-0.6-0.9-1.2c0.1-0.6,0.6-1,1.2-0.9
				c3.1,0.5,6,2.2,7.9,4.7c0.3,0.5,0.3,1.1-0.2,1.5C45,56.7,44.8,56.8,44.5,56.8z"/>
		</g>
		<g>
			<path d="M6.5,64.9c-0.6,0-1-0.5-1-1v-3.1c0-5.7,5.1-9.7,10.1-10.4c0.6-0.1,1.1,0.3,1.2,0.9c0.1,0.6-0.3,1.1-0.9,1.2
				c-4,0.5-8.3,3.8-8.3,8.3v3.1C7.6,64.5,7.1,64.9,6.5,64.9z"/>
		</g>
		<g>
			<path d="M32.7,32.4c0,1.2-0.9,2.1-2.1,2.1c-1.2,0-2.1-0.9-2.1-2.1c0-1.2,0.9-2.1,2.1-2.1C31.7,30.3,32.7,31.2,32.7,32.4"/>
		</g>
		<g>
			<path d="M24.3,32.4c0,1.2-0.9,2.1-2.1,2.1c-1.2,0-2.1-0.9-2.1-2.1c0-1.2,0.9-2.1,2.1-2.1C23.4,30.3,24.3,31.2,24.3,32.4"/>
		</g>
		<g>
			<path d="M26.4,42.8c-1.2,0-2.5-0.3-3.6-0.9c-0.5-0.3-0.7-0.9-0.4-1.4c0.3-0.5,0.9-0.7,1.4-0.4c1.7,0.9,3.6,0.9,5.3,0
				c0.5-0.3,1.1-0.1,1.4,0.4c0.3,0.5,0.1,1.1-0.4,1.4C28.9,42.5,27.6,42.8,26.4,42.8z"/>
		</g>
		<g>
			<path d="M26.2,59.1c-0.2,0-0.5-0.1-0.7-0.3c-15.7-13.9-13-26.5-11.8-30c0.1-0.4,0.5-0.7,1-0.7h1.8c0.3,0,0.6,0.1,0.8,0.4
				c0.2,0.3,0.3,0.6,0.2,0.9c0,0-0.5,2.4,1,4.3c1.4,1.7,4.1,2.6,7.9,2.6c3.9,0,6.6-0.9,8-2.7c1.6-1.9,1.2-4.3,1.2-4.4
				c-0.1-0.3,0-0.6,0.2-0.9c0.2-0.2,0.5-0.4,0.8-0.4h1.8c0.5,0,0.9,0.3,1,0.8c0.8,2.9,3.7,18.2-12.6,30C26.6,59,26.4,59.1,26.2,59.1
				z M15.3,30.6c-1,4.2-1.8,14.5,10.9,26.1C38.8,47.2,38.5,35.6,37.7,31c-0.1,1.2-0.5,2.7-1.6,4.1c-1.9,2.3-5.1,3.4-9.7,3.4
				c-4.5,0-7.7-1.2-9.6-3.4C15.6,33.5,15.3,31.8,15.3,30.6z"/>
		</g>
	</g>
</g>
</svg>
