<svg id="emoji" xmlns="http://www.w3.org/2000/svg" viewBox="0 0 36.9 54.46"><defs><style>.cls-1{fill:#ffe8bc;}.cls-11,.cls-2,.cls-3,.cls-4,.cls-6{fill:none;}.cls-2,.cls-6,.cls-7,.cls-8,.cls-9{stroke:#000;}.cls-11,.cls-2,.cls-3,.cls-4,.cls-9{stroke-linecap:round;}.cls-11,.cls-2,.cls-6,.cls-7,.cls-8{stroke-linejoin:round;}.cls-11,.cls-2,.cls-6,.cls-7,.cls-8,.cls-9{stroke-width:2px;}.cls-3{stroke:#f1b31c;}.cls-3,.cls-4,.cls-9{stroke-miterlimit:10;}.cls-4{stroke:#843c20;stroke-width:0.5px;}.cls-5,.cls-8{fill:#c96343;}.cls-7,.cls-9{fill:#843c20;}.cls-10{fill:#1d1d1b;opacity:0.2;}.cls-11{stroke:#030404;}</style></defs><title>LauraDworatschek</title><g id="line"><path class="cls-1" d="M29.84,16.44S35,18,43.42,16.84A56.36,56.36,0,0,1,45.22,25a16.41,16.41,0,0,1-.34,6.51c-1.48,5.36-5.36,8.44-8.75,8.44h.08c-3.4,0-7.27-3.08-8.75-8.44a13,13,0,0,1-.37-1.84,15.52,15.52,0,0,1,.67-6.73Z" transform="translate(-17.95 -6.6)"/><path class="cls-2" d="M33.43,33.72" transform="translate(-17.95 -6.6)"/><path class="cls-3" d="M38.54,22.53" transform="translate(-17.95 -6.6)"/><path class="cls-3" d="M42.69,23.83" transform="translate(-17.95 -6.6)"/><path class="cls-4" d="M29.94,24.43a5.17,5.17,0,0,1,4.18-.83" transform="translate(-17.95 -6.6)"/><path class="cls-4" d="M42.72,24.43a5.17,5.17,0,0,0-4.18-.83" transform="translate(-17.95 -6.6)"/><path class="cls-5" d="M54.2,61c-.55,0,0-9.28,0-9.28,0-4.13-5.05-8.08-8.91-8.17-5.69,4.59-11.11,4.59-16.8,0-3.86.18-9.09,3.12-9.09,7.16,0,0,.36,10.29-.1,10.29" transform="translate(-17.95 -6.6)"/><path class="cls-6" d="M30.05,17.5a10.66,10.66,0,0,1,6.37-2.12c2.66.17,7.44,2.12,7.44,2.12a17.91,17.91,0,0,1,2.19,6.79,17,17,0,0,1-.36,6.81c-1.56,5.61-5.66,8.82-9.26,8.82h.09c-3.59,0-8.3-3.05-9.26-8.82-.76-4.61-.4-6.69.32-9Z" transform="translate(-17.95 -6.6)"/><path d="M41.86,26.27A1.84,1.84,0,1,1,40,24.43a1.84,1.84,0,0,1,1.84,1.84" transform="translate(-17.95 -6.6)"/><path d="M34.51,26.27a1.84,1.84,0,1,1-1.84-1.84,1.83,1.83,0,0,1,1.84,1.84" transform="translate(-17.95 -6.6)"/><path class="cls-7" d="M38.77,11.81S38.37,6,30.28,8c-7.54,1.84-4.62,9.42-9.43,10.6L26.34,20Z" transform="translate(-17.95 -6.6)"/><polygon class="cls-8" points="21.45 6.68 19.56 8.57 16.9 8.57 15.02 6.68 15.02 4.02 16.9 2.13 19.56 2.13 21.45 4.02 21.45 6.68"/><path class="cls-9" d="M36.21,16.44S28.76,26,26.66,27.06c0,0,.92,6.42,2.75,9a.82.82,0,0,1-.09,1l-2,2a1.15,1.15,0,0,1-1.42.17l-1.49-.89a.79.79,0,0,1-.39-.68V25.47c0-2.08,1.53-13.81,11.53-12.33a5.28,5.28,0,0,0,1.19,0" transform="translate(-17.95 -6.6)"/><path class="cls-9" d="M36.21,16.44S43.67,25,45.77,26c0,0,.11,7.32-2.38,10.12a.85.85,0,0,0,.06,1.22l2.4,2a.8.8,0,0,0,1,.12l1.55-.93a1.13,1.13,0,0,0,.56-1V25.47c0-2.08-1.53-13.81-11.54-12.33a5.16,5.16,0,0,1-1.18,0" transform="translate(-17.95 -6.6)"/><path class="cls-9" d="M33.52,33.43s2.3,2.12,5.76,0" transform="translate(-17.95 -6.6)"/><path class="cls-10" d="M44.41,44.08a17,17,0,0,1-8.17,3.31c12,.36,12.31,9.91,13,13.59H54c-.09,0,1.47-16.9-9.55-16.9" transform="translate(-17.95 -6.6)"/><path class="cls-11" d="M53.84,60.06V51.79c0-4.59-4.59-8.26-9.18-8.26" transform="translate(-17.95 -6.6)"/><path class="cls-11" d="M28.13,43.53c-4.59,0-9.18,3.67-9.18,8.26v8.27" transform="translate(-17.95 -6.6)"/><path class="cls-2" d="M28.13,43.53q8.27,6.88,16.53,0" transform="translate(-17.95 -6.6)"/><path d="M27.79,44.41V61H44.87L45,44.41S37.75,50.26,27.79,44.41Z" transform="translate(-17.95 -6.6)"/></g></svg>