<?xml version="1.0" encoding="utf-8"?>
<!-- Generator: Adobe Illustrator 23.0.1, SVG Export Plug-In . SVG Version: 6.00 Build 0)  -->
<svg version="1.1" id="emoji" xmlns="http://www.w3.org/2000/svg" xmlns:xlink="http://www.w3.org/1999/xlink" x="0px" y="0px"
	 viewBox="0 0 72 72" enable-background="new 0 0 72 72" xml:space="preserve">
<g id="grid" display="none">
	<path display="inline" fill="#B3B3B3" d="M68,4v64H4V4H68 M72,0H0v72h72V0L72,0z"/>
	<path display="inline" fill="none" stroke="#00A5FF" stroke-width="0.1" stroke-miterlimit="10" d="M59.0769,60.9583H12.9231
		c-1.0621,0-1.9231-0.861-1.9231-1.923V12.8814c0-1.0621,0.861-1.9231,1.9231-1.9231h46.1538c1.0621,0,1.9231,0.861,1.9231,1.9231
		v46.1539C61,60.0973,60.139,60.9583,59.0769,60.9583z"/>
	<path display="inline" fill="none" stroke="#00A5FF" stroke-width="0.1" stroke-miterlimit="10" d="M53.7463,68H18.2537
		C17.009,68,16,66.991,16,65.7463V6.2537C16,5.009,17.009,4,18.2537,4h35.4926C54.991,4,56,5.009,56,6.2537v59.4926
		C56,66.991,54.991,68,53.7463,68z"/>
	<path display="inline" fill="none" stroke="#00A5FF" stroke-width="0.1" stroke-miterlimit="10" d="M4,53.7463V18.2537
		C4,17.009,5.009,16,6.2537,16h59.4926C66.991,16,68,17.009,68,18.2537v35.4926C68,54.991,66.991,56,65.7463,56H6.2537
		C5.009,56,4,54.991,4,53.7463z"/>
	<circle display="inline" fill="none" stroke="#00A5FF" stroke-width="0.1" stroke-miterlimit="10" cx="36" cy="36" r="29"/>
</g>
<g id="hair">
</g>
<g id="hair_18_">
	<path fill="#513021" d="M18.7158,46.5534c0.3913,0.4511,0.9998,1.1,1.8262,1.7798c5.0114,4.1227,11.3559,3.8874,15.5544,3.6725
		c6.034-0.3088,12.6467-0.6473,16.0667-5.4442c1.2943-1.8154,2.3712-4.6058,2.3307-7.1923
		c-0.0324-2.0729-0.7912-4.4437-1.0709-5.1624c-0.2978-0.7652-0.426-1.0091-1.1573-2.6328
		c-0.6357-1.4115-1.0996-2.4415-1.4478-3.6417c-0.9288-3.2019-0.262-4.2541-0.9008-6.8822
		c-0.6517-2.6812-2.5847-5.8763-5.4985-7.2994c-2.0917-1.0215-2.3914-0.0079-7.5698-1.1896
		c-2.798-0.6385-3.366-1.0841-5.0142-0.9637c-2.4852,0.1815-4.2704,1.4192-5.4301,2.2233c-1.2095,0.8386-3.5596,2.468-4.6367,5.3647
		c-0.1103,0.2967-0.224,0.6302-0.3262,1.0198c-0.5932,2.2626,0.3351,3.3565-0.2383,5.156c-0.2892,0.9076-0.4997,0.588-0.792,1.4989
		c-0.6207,1.9342,0.4197,3.0893-0.1703,4.9435c-0.2126,0.6683-0.4007,0.8644-0.9176,1.6064
		c-0.4908,0.7045-1.8391,3.7065-1.795,7.4291C17.5567,43.228,18.15,45.1905,18.7158,46.5534z"/>
</g>
<g id="skin">
	<g id="skin_17_">
		<path fill="#FFE8BC" d="M25.3311,27.9547c-0.2237,1.2394-0.4474,2.4788-0.6711,3.7182
			c-0.2721,7.2091,5.3227,12.898,11.3426,12.9447c7.8336,0.0608,12.514-9.4629,11.1131-14.3684
			c-0.4242-1.4855-2.0683-3.2705-5.3564-6.8405c-1.8425-2.0004-3.4547-3.5762-4.5852-4.6434
			c-0.3301-0.1634-0.8205-0.3372-1.347-0.221c-1.0744,0.237-1.4886,1.5032-2.2181,2.7435c-0.8705,1.4799-1.879,2.2425-3.4733,3.7228
			C29.1956,25.8835,27.6811,27.0409,25.3311,27.9547z"/>
	</g>
</g>
<g id="color">
	<g id="color_12_">
		<path fill="#FFFFFF" stroke="#FFFFFF" stroke-miterlimit="10" d="M55.502,61.0407c-0.5518,0-1-0.4473-1-1v-3
			c0-4.4512-4.5-8.8106-8.6514-8.9922c-6.2051,5.0127-12.4912,5.0127-18.7002,0c-4.1563,0.1826-9.6524,4.541-9.6524,8.9922v3
			c0,0.5527-0.4472,1-1,1"/>
	</g>
	<g>
		<line stroke="#1F355B" stroke-linecap="round" stroke-linejoin="round" x1="55.3263" y1="60.4832" x2="17.1388" y2="60.4832"/>
		<line stroke="#1F355B" stroke-linecap="round" stroke-linejoin="round" x1="17.9631" y1="58.4823" x2="54.502" y2="58.4823"/>
		<line stroke="#1F355B" stroke-linecap="round" stroke-linejoin="round" x1="17.9631" y1="56.4814" x2="54.502" y2="56.4814"/>
		<line stroke="#1F355B" stroke-linecap="round" stroke-linejoin="round" x1="17.9631" y1="54.4806" x2="54.502" y2="54.4806"/>
		<line stroke="#1F355B" stroke-linecap="round" stroke-linejoin="round" x1="52.6433" y1="52.4797" x2="19.0787" y2="52.4797"/>
		<path stroke="#1F355B" stroke-linecap="round" stroke-linejoin="round" d="M29.9229,50.474c-0.1438,0-9.4886,0-9.6271,0"/>
		<path stroke="#1F355B" stroke-linecap="round" stroke-linejoin="round" d="M51.7438,50.4672c-3.2147,0-6.4294,0-9.6441,0"/>
	</g>
</g>
<g id="line">
	<g>
		<path fill="none" stroke="#000000" stroke-width="2" stroke-linecap="round" stroke-linejoin="round" d="M19.5614,46.0141
			c-1.8596-2.2771-2.1268-4.0153-2.0331-5.1751c0.1103-1.3648,0.6964-1.6345,1.0141-3.9581c0.23-1.6825-0.006-2.0623,0.3396-3.6
			c0.3509-1.5609,0.6624-1.473,1.0115-2.9519c0.491-2.0799-0.0908-2.3988,0.3884-4.3573c0.3493-1.4276,0.6996-1.4264,1.2493-3.252
			c0.1796-0.5965,0.272-1.0448,0.3241-1.2943c0.256-1.2264,0.4719-2.2603,0.8492-3.1608c0.3839-0.9162,0.8612-1.5196,1.229-1.9796
			c1.592-1.9909,4.5656-3.7238,7.9692-3.9505c2.3829-0.1587,4.317,0.4647,5.4993,0.9765c0.7758-0.3036,2.8159-0.9801,5.2436-0.3376
			c1.8408,0.4872,3.0028,1.4942,3.5855,2.0109c0.5954,0.528,2.4677,2.3189,3.1466,5.0927c0.377,1.5403,0.3401,2.5506,0.8719,3.8717
			c0.4904,1.2182,0.8092,1.4477,1.2711,2.805c0.4061,1.1933,0.2616,1.3761,0.6874,2.9315c0.5103,1.864,0.7761,1.8141,1.055,3.0333
			c0.3795,1.6588-0.0575,1.9919,0.0659,4.2861c0.1344,2.4975,0.6843,2.6995,0.5935,4.1213
			c-0.0751,1.1757-0.5654,2.8248-2.4965,4.7508"/>
		<path d="M42.002,29.9841c0,1.1044-0.8956,2-2,2c-1.1045,0-2-0.8956-2-2c0-1.1045,0.8955-2,2-2
			C41.1064,27.9841,42.002,28.8796,42.002,29.9841"/>
		<path d="M34.002,29.9841c0,1.1044-0.8956,2-2,2c-1.1045,0-2-0.8956-2-2c0-1.1045,0.8955-2,2-2
			C33.1064,27.9841,34.002,28.8796,34.002,29.9841"/>
		<path fill="none" stroke="#000000" stroke-width="2" stroke-linecap="round" stroke-linejoin="round" d="M33.002,38.2341
			c1.875,1,4.125,1,6,0"/>
		<path fill="none" stroke="#000000" stroke-width="2" stroke-linecap="round" stroke-miterlimit="10" d="M25.3311,27.9547
			c-0.2334,0.4375-0.5439,1.1082-0.7548,1.9686c-0.1568,0.6394-0.1441,0.9169-0.2544,2.1031
			c-0.2328,2.5055-0.4048,2.5121-0.3495,3.5432c0.067,1.247,0.2984,1.1438,0.3173,2.2663c0.0223,1.3247-0.3264,1.6519-0.336,2.9117
			c-0.0043,0.565,0.0592,1.3688,0.3794,2.3455"/>
		<path fill="none" stroke="#000000" stroke-width="2" stroke-linecap="round" stroke-miterlimit="10" d="M46.1488,27.2465
			c0.8668,0.7671,1.3149,1.5134,1.5599,2.0278c0.358,0.7518,0.2943,1.0338,0.839,3.8311c0.3021,1.5515,0.3365,1.6091,0.4117,2.2167
			c0.1637,1.3229-0.0376,1.3969,0.1354,2.5779c0.1652,1.1281,0.383,1.2937,0.4856,2.2178c0.1124,1.012-0.0331,1.8531-0.1638,2.3838"
			/>
		<path fill="none" stroke="#000000" stroke-linecap="round" stroke-miterlimit="10" d="M29.1904,29.2002
			c0.1664,0.1094,0.4002,0.2375,0.698,0.3294c0.4425,0.1365,0.8283,0.132,1.0705,0.1093"/>
		<path fill="none" stroke="#000000" stroke-linecap="round" stroke-miterlimit="10" d="M29.7879,27.8828
			c0.1214,0.1578,0.3004,0.3554,0.5517,0.5397c0.3734,0.2739,0.7394,0.3959,0.9757,0.4538"/>
		<path fill="none" stroke="#000000" stroke-linecap="round" stroke-miterlimit="10" d="M42.8135,29.2002
			c-0.1664,0.1094-0.4002,0.2375-0.698,0.3294c-0.4425,0.1365-0.8283,0.132-1.0705,0.1093"/>
		<path fill="none" stroke="#000000" stroke-linecap="round" stroke-miterlimit="10" d="M42.2161,27.8828
			c-0.1214,0.1578-0.3004,0.3554-0.5517,0.5397c-0.3734,0.2739-0.7394,0.3959-0.9757,0.4538"/>
		<path fill="none" stroke="#000000" stroke-width="2" stroke-linecap="round" stroke-linejoin="round" d="M17.002,59.9841v-3
			c0-4.9942,5.0078-9,10-9c6,5,12,5,18,0c4.9941,0,10,4.0058,10,9v3"/>
		<path fill="none" stroke="#000000" stroke-width="2" stroke-linejoin="round" d="M24.4035,30.8097
			c-0.7874,5.7027,4.1339,14.0528,11.5985,14.1744c8.0743,0.1316,13.2297-9.5453,11.8924-15.0038
			c-0.7513-3.0669-2.9851-2.487-7.8622-9.3019c-0.6238-0.8716-1.6166-2.3183-3.0407-2.3712
			c-0.853-0.0317-1.3441,0.5184-3.4556,2.4663c-0.0001,0.0001-0.1018,0.0944-4.5193,4.0469
			c-0.848,0.7587-2.101,1.8525-3.6856,3.1344C24.9256,28.7314,24.5584,29.6877,24.4035,30.8097z"/>
	</g>
	<path fill="none" stroke="#513021" stroke-linecap="round" stroke-miterlimit="10" d="M38.3952,27.0041
		c0.3228-0.2034,1.3851-0.8152,2.8112-0.6438c1.3478,0.1619,2.2074,0.9257,2.4884,1.1987"/>
	<path fill="none" stroke="#513021" stroke-linecap="round" stroke-miterlimit="10" d="M33.6088,27.0041
		c-0.3228-0.2034-1.3851-0.8152-2.8112-0.6438c-1.3478,0.1619-2.2074,0.9257-2.4884,1.1987"/>
</g>
</svg>
