<?xml version="1.0" encoding="utf-8"?>
<!-- Generator: Adobe Illustrator 16.0.4, SVG Export Plug-In . SVG Version: 6.00 Build 0)  -->
<!DOCTYPE svg PUBLIC "-//W3C//DTD SVG 1.1//EN" "http://www.w3.org/Graphics/SVG/1.1/DTD/svg11.dtd">
<svg version="1.1" id="Ebene_1" xmlns="http://www.w3.org/2000/svg" xmlns:xlink="http://www.w3.org/1999/xlink" x="0px" y="0px"
	 width="55px" height="65px" viewBox="0 0 55 65" enable-background="new 0 0 55 65" xml:space="preserve">
<path fill="#986714" d="M42.167,44.125C46.367,17.825,36.5,11,34.5,11c-7.9,0-16.3,2.2-19.6,6.5c-4.7,6.2-5.292,14.925-4.191,26.625
	"/>
<path fill="#FFE8BC" d="M16.4,27.5v1c0,7.7,4.7,13.8,10.8,13.8c6,0,10.8-6,10.8-13.8c0-4.7-3-7-6.6-10.6
	c-4.601-0.6-7.601,1.6-10.9,3.2C17.7,22.6,16.9,26.7,16.4,27.5"/>
<path fill="none" stroke="#000000" stroke-width="2" stroke-linecap="round" stroke-linejoin="round" stroke-miterlimit="10" d="
	M23.9,36.3c1.9,1,4.1,1,6,0"/>
<path fill="#1C1C1B" d="M32.9,27.9c0,1.1-0.9,2-2,2c-1.101,0-2-0.9-2-2s0.899-2,2-2C32,25.9,32.9,26.8,32.9,27.9"/>
<path fill="#1C1C1B" d="M24.9,27.9c0,1.1-0.9,2-2,2s-2-0.9-2-2s0.9-2,2-2S24.9,26.8,24.9,27.9"/>
<path d="M32.9,27.9c0,1.1-0.9,2-2,2c-1.101,0-2-0.9-2-2s0.899-2,2-2C32,25.9,32.9,26.8,32.9,27.9"/>
<path d="M24.9,27.9c0,1.1-0.9,2-2,2s-2-0.9-2-2s0.9-2,2-2S24.9,26.8,24.9,27.9"/>
<path fill="none" stroke="#1D1D1B" stroke-width="2" stroke-linecap="round" stroke-linejoin="round" stroke-miterlimit="10" d="
	M42.2,43.1C44.9,24.8,39,11.6,36.5,11c-7.7-1.8-18.3,2.2-21.6,6.5c-4.7,6.2-5.5,13.9-4.4,25.6"/>
<path fill="none" stroke="#986714" stroke-linecap="round" stroke-linejoin="round" stroke-miterlimit="10" d="M19.1,25.2l1.6-0.6
	c0,0,2.4-0.5,3.9,0"/>
<path fill="none" stroke="#986714" stroke-linecap="round" stroke-linejoin="round" stroke-miterlimit="10" d="M34.3,25.2l-1.6-0.6
	c0,0-2.4-0.5-3.9,0"/>
<path fill="#AAAFB5" d="M7.9,64.5v-9.8c0-5,5-9,10-9c6,5,12,5,18,0c5,0,10,4,10,9v9.8H7.9z"/>
<path fill="#5A5E5F" d="M36.3,45.5c-3.2,2.1-4.899,3-8.9,3.6c13.1,0.4,13.1,11.4,13.8,15.4h5.1C46.3,64.5,48.3,45.5,36.3,45.5"/>
<path fill="none" stroke="#030404" stroke-width="2" stroke-linejoin="round" d="M15.9,29.1c0,8,5,14,11,14c6,0,11-6,11-14
	c0-5-2.101-10.2-7.801-11.5c-9.2,1.5-14.2,8.5-14.2,10.5V29.1z"/>
<path fill="none" stroke="#000000" stroke-linecap="round" stroke-linejoin="round" stroke-miterlimit="10" d="M25.4,29.9
	c-0.1,2.2-1.3,3.1-3.5,3.1c-2.2,0-4-1.3-4-3.5c0-1.1,0.1-1.7,0.1-1.7c0.7-0.7,2.7-0.7,3.8-0.7c1.3,0,3.6,0.2,3.6,0.2
	S25.5,28.8,25.4,29.9z"/>
<path fill="none" stroke="#000000" stroke-linecap="round" stroke-linejoin="round" stroke-miterlimit="10" d="M27.9,29.9
	c0.1,2.2,1.3,3.1,3.5,3.1c2.199,0,4-1.3,4-3.5c0-1.1-0.101-1.7-0.101-1.7c-0.7-0.7-2.7-0.7-3.8-0.7c-1.3,0-3.6,0.2-3.6,0.2
	S27.8,28.8,27.9,29.9z"/>
<line fill="none" stroke="#000000" stroke-linecap="round" stroke-linejoin="round" stroke-miterlimit="10" x1="15" y1="29.5" x2="17.9" y2="29.5"/>
<line fill="none" stroke="#000000" stroke-linecap="round" stroke-linejoin="round" stroke-miterlimit="10" x1="35.8" y1="29.3" x2="38.7" y2="29.3"/>
<line fill="none" stroke="#FFFFFF" stroke-linecap="round" stroke-linejoin="round" stroke-miterlimit="10" x1="9.5" y1="50.1" x2="43.8" y2="50.1"/>
<line fill="none" stroke="#FFFFFF" stroke-linecap="round" stroke-linejoin="round" stroke-miterlimit="10" x1="8.5" y1="53.1" x2="45.9" y2="53.1"/>
<line fill="none" stroke="#FFFFFF" stroke-linecap="round" stroke-linejoin="round" stroke-miterlimit="10" x1="8.5" y1="56.1" x2="45.9" y2="56.1"/>
<line fill="none" stroke="#FFFFFF" stroke-linecap="round" stroke-linejoin="round" stroke-miterlimit="10" x1="8.5" y1="59.1" x2="45.9" y2="59.1"/>
<line fill="none" stroke="#FFFFFF" stroke-linecap="round" stroke-linejoin="round" stroke-miterlimit="10" x1="8.5" y1="62.1" x2="45.9" y2="62.1"/>
<line fill="none" stroke="#AAAFB5" stroke-linecap="round" stroke-linejoin="round" stroke-miterlimit="10" x1="34.3" y1="50.1" x2="44.9" y2="50.1"/>
<line fill="none" stroke="#AAAFB5" stroke-linecap="round" stroke-linejoin="round" stroke-miterlimit="10" x1="37.3" y1="53.1" x2="46.4" y2="53.1"/>
<line fill="none" stroke="#AAAFB5" stroke-linecap="round" stroke-linejoin="round" stroke-miterlimit="10" x1="37.3" y1="56.1" x2="46.4" y2="56.1"/>
<line fill="none" stroke="#AAAFB5" stroke-linecap="round" stroke-linejoin="round" stroke-miterlimit="10" x1="37.3" y1="59.1" x2="46.4" y2="59.1"/>
<line fill="none" stroke="#AAAFB5" stroke-linecap="round" stroke-linejoin="round" stroke-miterlimit="10" x1="37.3" y1="62.1" x2="46.4" y2="62.1"/>
<rect x="13.6" y="45.8" fill="#5A5E5F" width="3.5" height="19.2"/>
<line fill="none" stroke="#000100" stroke-linecap="round" stroke-linejoin="round" stroke-miterlimit="10" x1="13.6" y1="46.7" x2="13.6" y2="64.5"/>
<line fill="none" stroke="#000100" stroke-linecap="round" stroke-linejoin="round" stroke-miterlimit="10" x1="17" y1="45.8" x2="17" y2="64.5"/>
<rect x="37" y="45.8" fill="#5A5E5F" width="3.5" height="19.2"/>
<line fill="none" stroke="#000100" stroke-linecap="round" stroke-linejoin="round" stroke-miterlimit="10" x1="37" y1="45.8" x2="37" y2="64.5"/>
<line fill="none" stroke="#000100" stroke-linecap="round" stroke-linejoin="round" stroke-miterlimit="10" x1="40.5" y1="46.8" x2="40.5" y2="64.5"/>
<path fill="#FFE8BC" d="M20.2,48.4c-0.7,6,5,6.6,6.8,10.1c2-3.7,7-4.1,6.6-10.1"/>
<path fill="none" stroke="#1D1D1B" stroke-width="2" stroke-linecap="round" stroke-linejoin="round" stroke-miterlimit="10" d="
	M20.2,48.4c-0.7,6,5,6.6,6.8,10.1c2-3.7,7-4.1,6.6-10.1"/>
<path fill="none" stroke="#000000" stroke-width="2" stroke-linecap="round" stroke-linejoin="round" d="M8,63.5v-9c0-5,5-9,10-9
	c6,5,12,5,18,0c5,0,10,4,10,9v9"/>
</svg>
