<?xml version="1.0" encoding="utf-8"?>
<!-- Generator: Adobe Illustrator 23.0.1, SVG Export Plug-In . SVG Version: 6.00 Build 0)  -->
<svg version="1.1" id="Ebene_1" xmlns="http://www.w3.org/2000/svg" xmlns:xlink="http://www.w3.org/1999/xlink" x="0px" y="0px"
	 viewBox="0 0 55 65" style="enable-background:new 0 0 55 65;" xml:space="preserve">
<style type="text/css">
	.st0{fill:#FCEA2B;}
	.st1{fill:#FFE8BC;}
	.st2{fill:none;stroke:#030404;stroke-width:2;stroke-linecap:round;stroke-linejoin:round;}
	.st3{fill:none;stroke:#CC9966;stroke-linecap:round;stroke-linejoin:round;stroke-miterlimit:10;}
	.st4{fill:none;stroke:#A57939;stroke-linecap:round;stroke-linejoin:round;stroke-miterlimit:10;}
	.st5{fill:none;stroke:#030404;stroke-width:2;stroke-linejoin:round;}
	.st6{fill:#3F3F3F;}
	.st7{fill:none;stroke:#1C1C1B;stroke-width:2;stroke-linecap:round;stroke-linejoin:round;}
</style>
<path class="st0" d="M6.5,45.9C6.7,46.2,8,34.8,9.3,32.7c0.4-0.9,2.3-7.8,4.8-13.9c1.4-3.4,3.3-8,6.5-7.1c0.3,0.1,0.5-0.1,0.7-0.3
	c0.1-0.1,2.4-2.7,7.2-2.7c6.2,0,11.4,3.4,12.7,8.2c0.5,2,2.1,2.4,1.9,4.5c-0.2,2,1.6,7.7,1.8,8.5c0.8,3.6,3.2,9.1,3.7,11.9
	c1.6,9,1.4,21.3,1.4,21.3H4.9C4.9,63.1,3.9,47.3,6.5,45.9"/>
<path class="st1" d="M39.4,26.9c0,0-3.4,17.8-13.5,14.8c-5.4-1.6-8.4-6.6-8.4-13.9c0-4.4,1.7-8.7,5.1-12.1C26,16.8,30,18.8,33,20.4
	C35.4,21.8,38.9,26.1,39.4,26.9"/>
<path class="st2" d="M50.1,63.1c0.5-2.1-0.1-15.4-0.8-18.9s-2.5-9.8-4.3-14.4c-1.6-4.2-1.3-6.9-3.7-12.2c-1.8-3.9-3.5-8.1-12.7-9
	c-5.4-0.5-8,2-8,2c-7.7-0.3-8.4,15.2-10.8,20.9C8,35.6,7.2,44.4,6.1,47.3c-1,2.6-1.1,14-1,15.7"/>
<path class="st2" d="M24.5,35c1.9,1,4.1,1,6,0"/>
<path d="M33.7,26.9c0,1.1-0.9,2-2,2c-1.1,0-2-0.9-2-2s0.9-2,2-2C32.8,24.9,33.7,25.8,33.7,26.9"/>
<path d="M25.7,26.9c0,1.1-0.9,2-2,2s-2-0.9-2-2s0.9-2,2-2C24.8,24.9,25.7,25.8,25.7,26.9"/>
<path class="st3" d="M20.4,23.4l1.6-0.6c0,0,2.4-0.5,3.9,0"/>
<path class="st4" d="M35.6,23.4L34,22.8c0,0-2.4-0.5-3.9,0"/>
<path class="st5" d="M38.5,27.7c0,8-5,14-11,14s-11-6-11-14c0-5,2-8,6-12c7.2,1.5,16,9,16,11V27.7z"/>
<path class="st6" d="M8.3,63.7v-9.8c0-5,5-9,10-9c6,5,12,5,18,0c5,0,10,4,10,9v9.8H8.3z"/>
<path d="M36.8,44.7c-3.2,2.1-4.9,3-8.9,3.6C41,48.7,41,59.7,41.7,63.7h5.1C46.8,63.7,48.8,44.7,36.8,44.7"/>
<path class="st7" d="M8.4,62.7v-9c0-5,5-9,10-9c6,5,12,5,18,0c5,0,10,4,10,9v9"/>
</svg>
