<?xml version="1.0" encoding="utf-8"?>
<!-- Generator: Adobe Illustrator 16.0.4, SVG Export Plug-In . SVG Version: 6.00 Build 0)  -->
<!DOCTYPE svg PUBLIC "-//W3C//DTD SVG 1.1//EN" "http://www.w3.org/Graphics/SVG/1.1/DTD/svg11.dtd">
<svg version="1.1" id="Ebene_1" xmlns="http://www.w3.org/2000/svg" xmlns:xlink="http://www.w3.org/1999/xlink" x="0px" y="0px"
	 width="55px" height="65px" viewBox="0 0 55 65" enable-background="new 0 0 55 65" xml:space="preserve">
<path fill="#FFFFFF" d="M46.3,64.6c-0.6,0,0-10.1,0-10.1c0-4.5-5.5-8.8-9.7-8.9c-6.2,5-12.1,4.9-18.3-0.1c-4.2,0.2-9.9,3.4-9.9,7.8
	c0,0,0.4,11.2-0.1,11.2"/>
<path fill="#E37861" d="M8.1,64.1c-0.4-1.5,0-8.6,1.1-12.5c1.7-5.7,9.2-5.4,10.3-6c0.5,8.3-0.5,12.9,2.4,18.5"/>
<path fill="#E37861" d="M46.2,64.1c0.4-1.5,0-8.6-1.1-12.5c-1.7-5.7-9.2-5.4-10.3-6c-0.5,8.3,0.5,12.9-2.4,18.5"/>
<path fill="#83674C" d="M13.9,35.9c-1.1-0.4-4.7-2.3-2-6.4c2-3.1,1.7-7.5,2.7-9.8c4.8-11,7.9-8,12.7-8.1c0.6,0,5.5,0.2,9.5,4.6
	c2.9,3.2,2,7.3,2.9,12c0.8,3.8,2.1,3.3,2.4,5.2c0,0,0.6-0.2-0.6,4.8"/>
<path fill="#1C1C1B" d="M33,27.5c0,1.1-0.9,2-2,2c-1.1,0-2-0.9-2-2s0.9-2,2-2C32.1,25.5,33,26.4,33,27.5"/>
<path fill="#1C1C1B" d="M25,27.5c0,1.1-0.9,2-2,2c-1.1,0-2-0.9-2-2s0.9-2,2-2C24.1,25.5,25,26.4,25,27.5"/>
<path fill="#FFE8BC" d="M16.1,28.5c-0.1,8,4.1,14,11,14c7.1,0,9.9-6.1,10.1-13c0-1.2-6.2-8.7-6.2-8.7c-5.6-1.6-6.1-0.8-12.1-2.8
	C18.9,18,16.1,23.5,16.1,28.5"/>
<path d="M33,27.5c0,1.1-0.9,2-2,2c-1.1,0-2-0.9-2-2s0.9-2,2-2C32.1,25.5,33,26.4,33,27.5"/>
<path d="M25,27.5c0,1.1-0.9,2-2,2c-1.1,0-2-0.9-2-2s0.9-2,2-2C24.1,25.5,25,26.4,25,27.5"/>
<path fill="none" stroke="#1C1C1B" stroke-width="2" stroke-linecap="round" stroke-linejoin="round" d="M24,35.7
	c1.4,1.5,4.3,1.5,6,0"/>
<path fill="#CD4D41" d="M33.8,52c5,3.6,7.1,9.1,7.7,12h5.1c0,0,3.1-19.6-12-18"/>
<path fill="none" stroke="#030404" stroke-width="2" stroke-linecap="round" stroke-linejoin="round" d="M8.3,63.5v-9c0-5,5-9,10-9
	c6,5,12,5,18,0c5,0,10,4,10,9v9"/>
<path fill="#83674C" d="M24.3,40.1L18,36.8c0.4,2.9,10.8,11.3,17.4,0l-5.5,3.3H24.3z"/>
<path fill="none" stroke="#1C1C1B" stroke-linecap="round" stroke-linejoin="round" d="M24.3,40.1L18,36.8c0.1,2.5,10.1,11.6,17.4,0
	l-5.5,3.3H24.3z"/>
<path fill="none" stroke="#83674C" stroke-linecap="round" stroke-linejoin="round" stroke-miterlimit="10" d="M19.4,25.2l1.6-0.6
	c0,0,2.4-0.5,3.9,0.1"/>
<path fill="none" stroke="#83674C" stroke-linecap="round" stroke-linejoin="round" stroke-miterlimit="10" d="M34.6,25.2L33,24.6
	c0,0-2.4-0.5-3.9,0.1"/>
<path fill="none" stroke="#1C1C1B" stroke-width="2" stroke-linecap="round" stroke-linejoin="round" d="M39.9,29.5
	c2.6,4,3.5,4.2,1.5,8.7"/>
<path fill="none" stroke="#1C1C1B" stroke-width="2" stroke-linecap="round" stroke-linejoin="round" d="M13.9,35.9
	c-1.1-0.4-4.3-3-1.7-7.1c2-3.1,1.4-6.8,2.4-9.1c4.8-11,7.9-8,12.7-8.1"/>
<path fill="#003366" d="M39.9,29.5c-0.5-0.8,1.1-16.1-14.2-16.1c-13.9,0-12.8,14.4-13.9,16.1c1.1-1.7,2.6-9.8,13.9-9.8
	C37.5,19.6,39.5,28.6,39.9,29.5"/>
<path fill="#003366" d="M35.3,18.6c-0.3-0.5,0.8-8.5-9.5-8.5c-9.3,0-8.6,7.5-9.3,8.5c0.8-1,1.7-5.8,9.3-5.8
	C33.7,12.8,35,18.1,35.3,18.6"/>
<path fill="none" stroke="#1C1C1B" stroke-width="2" stroke-linecap="round" stroke-linejoin="round" d="M40.1,29.5
	c-0.5-0.8,1.1-16.1-14.2-16.1C12,13.4,13.1,27.8,12,29.5c1.1-1.7,2.6-9.8,13.9-9.8C37.6,19.6,39.6,28.6,40.1,29.5z"/>
<path fill="none" stroke="#1C1C1B" stroke-width="2" stroke-linecap="round" stroke-linejoin="round" d="M15.5,18
	c3.9-10.8,18-10.3,21.3-0.1"/>
<path fill="none" stroke="#1C1C1B" stroke-width="2" stroke-linecap="round" stroke-linejoin="round" d="M17.3,21.9
	c0,0-1.2,1.6-1.3,6.6c-0.1,8,4.9,14,11,14c4.2,0,5.4-1.3,8.3-6.8c1.3-2.5,1.4-5.9,0.7-7.6c-0.9-2.1-3.9-5.7-5-7.4"/>
<path fill="none" stroke="#030404" stroke-width="2" stroke-linecap="round" stroke-linejoin="round" d="M22.1,64
	c0,0-1.8-5.4-1.7-16.4"/>
<path fill="none" stroke="#030404" stroke-width="2" stroke-linecap="round" stroke-linejoin="round" d="M32.2,64
	c0,0,1.8-5.4,1.7-16.4"/>
</svg>
