<svg id="Ebene_1" data-name="Ebene 1" xmlns="http://www.w3.org/2000/svg" viewBox="0 0 59.1667 71.6667">
  <title>Zeichenfläche 1</title>
  <path d="M47.6667,40.5667c.2655-1.4439-1.76-2.9146-2-4.4-.302-1.8725,1.9428-4.1042,2-6,.0538-1.7855-2.0912-3.2352-2-5,.49-9.4911-3.7-14.8254-6-15-7.7-1.7582-17.7-2.5172-21,1.6829-.3967.5111-1.6512,1.41-2,1.9535-2.0183,3.1448-2.7513,9.3747-3.0359,13.7548-.0917,1.41-1.4206,2.49-.9641,3.8271,1,2.93.9823,5.073,0,8.791" fill="#fcea2b"/>
  <path d="M10.6667,62.1667v-9.8c0-5,5-9,10-9q9,7.5,18,0c5,0,10,4,10,9v9.8Z" fill="#ffa7c0"/>
  <path d="M39.1667,43.1667c-3.2,2.1-4.9,3-8.9,3.6,13,.4,13,11.4,13.8,15.4h5.1s2-19-10-19" fill="#e67a94"/>
  <path d="M22.9667,45.9667c-1.4084,6.5058,3.9284,5.3939,6.7,8.2,2.851-2.5412,7.6449-1.458,6.7-8.2" fill="#ffe8bc"/>
  <path d="M22.9667,45.9667c-1.67,6.3178,1.8339,5.7044,6.7,8.2,5.2607-2.4447,8.0229-1.8446,6.7-8.2" fill="none" stroke="#1e1e1c" stroke-linecap="round" stroke-linejoin="round" stroke-width="2"/>
  <path d="M10.8667,61.1667v-9c0-5,5-9,10-9q9,7.5,18,0c5,0,10,4,10,9v9" fill="none" stroke="#1d1d1c" stroke-linecap="round" stroke-linejoin="round" stroke-width="2"/>
  <path d="M18.6667,26.1667v1c0,7.7,5.7,13.8,11.8,13.8,6,0,10.5-8.1011,9.9-15.8.0556-1.2076-2.7818-9.441-9.7-11-5.3158-1.4305-6.6756,2.2841-9,5-2.7,1.4-2.5,6.1-3,7" fill="#ffe8bc"/>
  <path d="M36.3667,25.5667a2,2,0,1,1-2-2,2.0059,2.0059,0,0,1,2,2" fill="#010101"/>
  <path d="M28.3667,25.5667a2,2,0,1,1-2-2,2.0059,2.0059,0,0,1,2,2" fill="#010101"/>
  <path d="M18.6667,27.1667c0,8,5.8,13.6,11.8,13.6,5.1542,0,9.7343-4.9143,10.2-12.6" fill="none" stroke="#010101" stroke-linecap="round" stroke-linejoin="round" stroke-width="2"/>
  <path d="M27.1667,33.1667c1.4,1.69,4.2,1.61,6,0" fill="none" stroke="#010101" stroke-linecap="round" stroke-linejoin="round" stroke-width="2"/>
  <path d="M18.6667,33.1667c-.145-.0453-2.6377-18.56,11-19,12.3243-.3974,12.01,18.5705,12,19" fill="none" stroke="#010101" stroke-linecap="round" stroke-linejoin="round" stroke-width="2"/>
  <path d="M23.6667,22.1667s3-1,5,0" fill="none" stroke="#a57939" stroke-linecap="round" stroke-miterlimit="10"/>
  <path d="M31.6667,22.1667s3-1,5,0" fill="none" stroke="#a57939" stroke-linecap="round" stroke-miterlimit="10"/>
  <path d="M11.3053,39.93s3.3121-2.4939,2.7173-4.6493c-.4975-1.8031-3.5081-3.7167-1.3559-7.1135,1.1484-1.8127,1.6756-3.2614,1.596-8.0173-.101-6.0383,4.5591-12.0766,16.004-11.13" fill="none" stroke="#010101" stroke-linecap="round" stroke-miterlimit="10" stroke-width="2"/>
  <path d="M48.2667,39.93s-3.3121-2.4939-2.7173-4.6493c.4975-1.8031,3.5081-3.7167,1.3559-7.1135-1.1484-1.8127-1.6756-3.2614-1.596-8.0173C45.41,14.1111,40.75,8.0728,29.3053,9.02" fill="none" stroke="#010101" stroke-linecap="round" stroke-miterlimit="10" stroke-width="2"/>
</svg>
