<?xml version="1.0" encoding="utf-8"?>
<!-- Generator: Adobe Illustrator 16.0.4, SVG Export Plug-In . SVG Version: 6.00 Build 0)  -->
<!DOCTYPE svg PUBLIC "-//W3C//DTD SVG 1.1//EN" "http://www.w3.org/Graphics/SVG/1.1/DTD/svg11.dtd">
<svg version="1.1" id="Ebene_1" xmlns="http://www.w3.org/2000/svg" xmlns:xlink="http://www.w3.org/1999/xlink" x="0px" y="0px"
	 width="55px" height="65px" viewBox="0 0 55 65" enable-background="new 0 0 55 65" xml:space="preserve">
<path fill="#CD4D41" d="M10.4,45c-0.5-1.8-3.5-7.4-1.3-11.3c0.4-0.9,0.8-2.8,1.1-3.7c1.5-3.3,2.1-3.6,2.4-9.7c0-3.7,2.8-6.8,6.5-7.1
	c0.3,0,0.5-0.1,0.7-0.3c0.1-0.1,2.4-2.7,7.2-2.7c6.2,0,11.8,2.5,13.1,7.4c0.5,2,1.5,4.8,1.3,6.9c-0.2,2,1.6,4.4,2.3,6.3
	c0.2,0.8,0.8,4.1,1.3,4.7c2.5,4.9-1.5,10.6-1.3,10.3C28.5,58.1,10.5,45.3,10.4,45"/>
<path fill="#FFE8BC" d="M37.1,27.2c0,0,1.4,16.9-11,16c-5.6-0.4-10.3-6.1-10.3-13.4c0-4.4,2.6-9.1,6-12.6c2.7,2.1,5.4,4.1,8.4,5.6
	C32.7,24.3,36.7,26.4,37.1,27.2"/>
<path fill="none" stroke="#030404" stroke-width="2" stroke-linecap="round" stroke-linejoin="round" d="M43.1,45.2
	c4-6,2.1-11.4,0.3-16.1c-1.6-4.2-1.1-5.3-2.6-10.9c-1.5-5.5-7.3-9-13.7-9c-5.4,0-8,3-8,3c-4.2,0.4-7.4,3.9-7.4,8
	c-0.4,7.2,0,6.2-2.4,11.8c-1.8,4.1-1,8.8,1.8,12.1"/>
<path fill="none" stroke="#030404" stroke-width="2" stroke-linecap="round" stroke-linejoin="round" d="M23.2,36.5c1.9,1,4.1,1,6,0
	"/>
<path d="M32.4,28.4c0,1.1-0.9,2-2,2c-1.1,0-2-0.9-2-2s0.9-2,2-2C31.5,26.4,32.4,27.3,32.4,28.4"/>
<path d="M24.4,28.4c0,1.1-0.9,2-2,2s-2-0.9-2-2s0.9-2,2-2S24.4,27.3,24.4,28.4"/>
<path fill="none" stroke="#83674C" stroke-linecap="round" stroke-linejoin="round" stroke-miterlimit="10" d="M18.9,24.7l1.6-0.6
	c0,0,2.4-0.5,3.9,0"/>
<path fill="none" stroke="#83674C" stroke-linecap="round" stroke-linejoin="round" stroke-miterlimit="10" d="M34.1,24.7l-1.6-0.6
	c0,0-2.4-0.5-3.9,0"/>
<path fill="#D7D8DE" d="M7,65v-9.8c0-5,5-9,10-9c6,5,12,5,18,0c5,0,10,4,10,9V65H7z"/>
<path fill="#AAAFB5" d="M35.5,46c-3.2,2.1-4.9,3-8.9,3.6C39.6,50,39.6,61,40.3,65h5.1C45.5,65,47.5,46,35.5,46"/>
<path fill="#FFE8BC" d="M19.3,48.8c-0.7,6,5,6.6,6.8,10.1c2-3.7,7-4.1,6.6-10.1"/>
<path fill="none" stroke="#1D1D1B" stroke-width="2" stroke-linecap="round" stroke-linejoin="round" stroke-miterlimit="10" d="
	M19.3,48.8c-0.7,6,5,6.6,6.8,10.1c2-3.7,7-4.1,6.6-10.1"/>
<path fill="none" stroke="#1C1C1B" stroke-width="2" stroke-linecap="round" stroke-linejoin="round" d="M7.1,64v-9c0-5,5-9,10-9
	c6,5,12,5,18,0c5,0,10,4,10,9v9"/>
<path fill="none" stroke="#030404" stroke-width="2" stroke-linecap="round" stroke-linejoin="round" d="M37.1,27.2
	c0.6,10.4-5,16-11,16c-6,0-11-6-11-14c0-5,2-8,6-12c4,4,18.6,6.9,19.2,15.5"/>
</svg>
