<svg id="emoji" xmlns="http://www.w3.org/2000/svg" viewBox="0 0 72 72"><defs><style>.cls-1{fill:#e3e5c7;}.cls-2{fill:#ffe8bc;}.cls-3{fill:#ffe000;}.cls-4{fill:#f4aa41;}.cls-5,.cls-6,.cls-7,.cls-8{fill:none;stroke-linejoin:round;}.cls-5{stroke:#302310;}.cls-5,.cls-6,.cls-8{stroke-linecap:round;}.cls-6,.cls-7,.cls-8{stroke:#000;}.cls-6,.cls-7{stroke-width:2px;}</style></defs><title>190328_Openmoji_Nadine</title><g id="hair"><g id="hair-2" data-name="hair"><path class="cls-1" d="M52.39,44.6C52,41,51,32.2,50.6,25c0-4.18-2.83-9.49-7-9.86,0,0-2.6-3-8-3-6.43,0-12.22,3.47-13.7,9s-1.26,7.43-1.3,12c-1.83,4.72-1.34,7.48-1.92,11.34C23.49,46.53,43,47.41,52.39,44.6Z"/></g></g><g id="skin"><g id="skin-2" data-name="skin"><path class="cls-2" d="M25,32c0,8,4.81,12.88,10.81,12.88S47,40,47,32a14.52,14.52,0,0,0-1-6c-1.56-1.56-5.86-1.79-8-1.82-.1,0,.47-3.09.39-3.09-.45,0-2.86,2.93-2.86,2.93S30,24,26,26A14.52,14.52,0,0,0,25,32Z"/></g></g><g id="color"><g id="color-2" data-name="color"><path class="cls-3" d="M18,60.94V57a8.82,8.82,0,0,1,8.81-9q9,7.5,18,0A9.13,9.13,0,0,1,54,57v3.94Z"/><polygon class="cls-4" points="48.84 54.81 53.72 54.81 54 56.52 18.06 56.52 18 54.81 48.84 54.81"/><polygon class="cls-4" points="48.84 58.66 53.72 58.66 54 60.37 18.06 60.37 18 58.66 48.84 58.66"/><polygon class="cls-4" points="49.77 51.39 52.36 51.39 53.26 53.1 18.98 53.1 18.92 51.39 49.77 51.39"/><line class="cls-5" x1="25.18" y1="30.64" x2="27.26" y2="30.64"/><line class="cls-5" x1="45.17" y1="30.48" x2="47.25" y2="30.48"/><path class="cls-5" d="M34.72,31c-.13,2.23-1.31,3.07-3.47,3.07s-4-1.32-4-3.47a13.71,13.71,0,0,1,.09-1.7c.71-.74,2.71-.67,3.81-.67,1.29,0,3.61.2,3.61.2S34.78,30,34.72,31Z"/><path class="cls-5" d="M37.24,31c.13,2.23,1.31,3.07,3.47,3.07s4-1.32,4-3.47a13.71,13.71,0,0,0-.09-1.7c-.71-.74-2.71-.67-3.81-.67-1.3,0-3.62.2-3.62.2S37.17,30,37.24,31Z"/></g></g><g id="line"><g id="line-2" data-name="line"><path class="cls-6" d="M18,60V56.88a8.81,8.81,0,0,1,8.81-9q9,7.5,18,0a9.13,9.13,0,0,1,9.19,9V60"/><path d="M42,31a2,2,0,1,1-2-2,2,2,0,0,1,2,2"/><path d="M34,31a2,2,0,1,1-2-2,2,2,0,0,1,2,2"/><path class="cls-7" d="M25.61,24.72a5.33,5.33,0,0,0-.72,2.37c-.06,1-.14,2.69-.14,4.93,0,8,5.06,12.86,11.06,12.86s11.65-5.52,11.65-13.52c0-4-.11-5.42-.46-6.28l-8.55-.28.82-6.23-4.8,6.21Z"/><path class="cls-6" d="M32.81,38.25a6.37,6.37,0,0,0,6,0"/><path class="cls-6" d="M18.89,43.56c.86-4.55,1-17,2.47-22.59S27.57,12,34,12c5.4,0,4.7.93,6,.84,2.92-.22,6.38,2.44,8.55,5.74a13.24,13.24,0,0,1,2.05,6.47c.4,6.56,1,13.31,1.8,18.55"/><path class="cls-8" d="M28.94,29.32A2.22,2.22,0,0,0,31,30.43"/><path class="cls-8" d="M31.58,29.8a1.64,1.64,0,0,1-1.43-1.38"/><path class="cls-8" d="M43,29.32A2.2,2.2,0,0,1,41,30.43"/><path class="cls-8" d="M40.39,29.8a1.64,1.64,0,0,0,1.44-1.38"/><line class="cls-8" x1="18" y1="58.82" x2="54.36" y2="58.82"/><line class="cls-8" x1="18" y1="54.81" x2="53.72" y2="54.81"/><line class="cls-8" x1="19.43" y1="51.39" x2="51.45" y2="51.39"/><path class="cls-8" d="M27.66,28.27a6.64,6.64,0,0,1,6-.83"/><path class="cls-8" d="M44.09,28.27a6.61,6.61,0,0,0-6-.83"/></g></g></svg>