<?xml version="1.0" encoding="utf-8"?>
<!-- Generator: Adobe Illustrator 23.0.0, SVG Export Plug-In . SVG Version: 6.00 Build 0)  -->
<svg version="1.1" id="Ebene_1" xmlns="http://www.w3.org/2000/svg" xmlns:xlink="http://www.w3.org/1999/xlink" x="0px" y="0px"
	 viewBox="0 0 55 65" style="enable-background:new 0 0 55 65;" xml:space="preserve">
<style type="text/css">
	.st0{fill:#2D1D13;}
	.st1{fill:#1C1C1B;}
	.st2{fill:#FFE8BC;}
	.st3{fill:none;stroke:#000000;stroke-width:2;stroke-linejoin:round;}
	.st4{fill:none;stroke:#000000;stroke-width:2;stroke-linecap:round;stroke-linejoin:round;}
	.st5{fill:#FFFFFF;}
	.st6{fill:#D7D8DE;}
	.st7{fill:none;stroke:#030404;stroke-width:2;stroke-linecap:round;stroke-linejoin:round;}
	.st8{fill:none;stroke:#000000;stroke-linecap:round;stroke-linejoin:round;stroke-miterlimit:10;}
	.st9{fill:none;stroke:#000000;stroke-width:2;stroke-linecap:round;stroke-linejoin:round;stroke-miterlimit:10;}
	.st10{fill:#D0CFCE;}
	.st11{fill:#5A5E5F;}
</style>
<path class="st0" d="M17.4,36c-1.9-6.9-1.9-8.7-2.9-14.5C13.4,15.7,18.4,10,26.8,10s11.8,5.7,11.8,11.7c-1.1,6.6-0.5,7.8-2.4,14.3"
	/>
<path class="st1" d="M32.6,28.2c0,1.1-0.9,2-2,2s-2-0.9-2-2s0.9-2,2-2S32.6,27.1,32.6,28.2"/>
<path class="st1" d="M24.6,28.2c0,1.1-0.9,2-2,2s-2-0.9-2-2s0.9-2,2-2S24.6,27.1,24.6,28.2"/>
<path class="st2" d="M15.7,29.2c-0.1,8,4.1,14,11,14c7.1,0,11.1-6,11.1-14c0-5-3-10-3-10c-8,0-8.7-0.3-14.7-2.3
	C20.1,16.9,15.8,24.2,15.7,29.2"/>
<path d="M32.6,28.2c0,1.1-0.9,2-2,2s-2-0.9-2-2s0.9-2,2-2S32.6,27.1,32.6,28.2"/>
<path d="M24.6,28.2c0,1.1-0.9,2-2,2s-2-0.9-2-2s0.9-2,2-2S24.6,27.1,24.6,28.2"/>
<path class="st3" d="M15.7,29.2c-0.1,8,4.9,14,11,14c5.9,0,11.1-6,11.1-14c0-5-2.7-14.1-2.7-14.1c-8,0-9,3.8-15,1.8
	C20.1,16.9,15.8,24.2,15.7,29.2z"/>
<path class="st4" d="M23.6,37.2c2.1,0.8,4.1,0.8,6,0"/>
<path d="M26.6,38.8l-1.7,1.9L17.7,37c-0.7,0,7.8,14,18.1,0.2l-7.5,3.6L26.6,38.8z"/>
<path class="st0" d="M26.6,38.8l-1.7,1.9l-6.5-3.8c-0.7,0,6.4,13.6,16.7-0.2l-6.9,4.1L26.6,38.8z"/>
<path class="st5" d="M45.2,65c-0.6,0,0-10.1,0-10.1c0-4.5-5.5-8.8-9.7-8.9c-6.2,5-12.1,4.9-18.3-0.1c-4.2,0.2-9.9,3.4-9.9,7.8
	c0,0,0.4,11.2-0.1,11.2"/>
<path class="st6" d="M35.6,46.5c-3.2,2.1-4.9,3-8.9,3.6c13.1,0.4,13.1,11.4,13.8,15.4h5.1C45.6,65.5,47.6,46.5,35.6,46.5"/>
<path class="st7" d="M7.2,63.9v-9c0-5,5-9,10-9c6,5,12,5,18,0c5,0,10,4,10,9v9"/>
<path class="st8" d="M19.1,24.4l1.6-0.6c0,0,2.4-0.5,3.9,0"/>
<path class="st8" d="M34.3,24.4l-1.6-0.6c0,0-2.4-0.5-3.9,0"/>
<path class="st0" d="M31.8,34.4c-0.5-0.8-2.5-2.7-5.6-2.2c-1.7,0.1-3.5,0.7-5.3,2.6l4.6-0.1h2.4l4,0.1C32,34.8,32,34.6,31.8,34.4z"
	/>
<path class="st9" d="M15.8,31.9C11.6,17.8,18.3,10,27.1,10c10,0,14.8,6.3,10.5,21.9"/>
<path class="st10" d="M14.9,19.9c-1.1,0.3,0-14.1,11.1-14.1c12.9,0,12.2,12.9,12.2,14.1c-1.6-0.2-4.8-1-5.7-2
	c-3.9-4.5,2.3-4.8-5.9-6c-5.2,0.4-3.4,6.8-5.1,6.9C18.5,19.1,16.3,19.4,14.9,19.9"/>
<path class="st11" d="M15.1,15.1c-1.3,0.4-5,1.5-6.6,4c-2.1,3.1,0.1,7,5.5,9.5"/>
<path class="st9" d="M22.4,18.2c0-0.2-0.5-3.9,1.5-5.4c1.6-1.2,4.8-1.4,6.6,0c1.3,1.1,1.6,3.8,1.1,5.5 M27.2,18.3
	c5.1-0.2,8.7,1.1,11,1.5c0-1.2,0.7-14.1-12.2-14.1c-11.2,0-12.2,14.5-11.1,14.1C17.1,19.2,21.5,18.6,27.2,18.3z M14.8,14.9
	c-1.4,0.4-4.9,1.6-6.6,4.1c-2.3,3.2,0.1,7.3,6,9.9"/>
</svg>
