<?xml version="1.0" encoding="utf-8"?>
<!-- Generator: Adobe Illustrator 16.0.4, SVG Export Plug-In . SVG Version: 6.00 Build 0)  -->
<!DOCTYPE svg PUBLIC "-//W3C//DTD SVG 1.1//EN" "http://www.w3.org/Graphics/SVG/1.1/DTD/svg11.dtd">
<svg version="1.1" id="Ebene_1" xmlns="http://www.w3.org/2000/svg" xmlns:xlink="http://www.w3.org/1999/xlink" x="0px" y="0px"
	 width="55px" height="65px" viewBox="0 0 55 65" enable-background="new 0 0 55 65" xml:space="preserve">
<path fill="#83674C" d="M51.1,63.8c1.8-2.3,2.5-8.3-0.6-11.1c-2.3-2.1-0.2-4.7-0.2-7.3c0-2.6-2.2-5.1-2.3-6.2
	C45.3,19.9,43.4,10,27.7,11.5c-9.6,0.9-15.8,5.5-17.2,12.2c-1.3,6.5-3.8,15.5-6.1,21.4c-0.6,1.5,1.2,5.5-0.6,8.8
	c-2.8,5.3-0.5,8-0.7,10.1"/>
<path fill="#E4AE67" d="M17.2,26.8v1c0,7.7,4.7,13.8,10.8,13.8c6,0,10.8-6,10.8-13.8c0-4.7-1.9-8.4-6.6-10.6
	c-4.3,1-8.2,0.1-11.5,1.7C17.9,20.4,17.7,25.9,17.2,26.8"/>
<path fill="none" stroke="#000000" stroke-width="2" stroke-linecap="round" stroke-linejoin="round" stroke-miterlimit="10" d="
	M24.7,35.6c1.9,1,4.1,1,6,0"/>
<path fill="none" stroke="#030404" stroke-width="2" stroke-linejoin="round" d="M16.7,28.4c0,8,5,14,11,14s11.5-6,11-14
	c-0.7-10.6-4.1-10.9-11-10.3c-6.7-0.7-11,1.5-11,9.3V28.4z"/>
<path fill="none" stroke="#1D1D1B" stroke-width="2" stroke-linecap="round" stroke-linejoin="round" stroke-miterlimit="10" d="
	M51.1,63.7c1.9-3,1.9-5.2,1.6-6.6c-0.5-2.2-2-3-2.4-5.4c-0.4-2.5,1.1-5.2-0.7-8.6c-4.7-8.6-3-26.2-14.2-30.4
	c-3.1-1.1-4.3-1.2-7.6-1.2c-2.6,0-6.2,1-8.2,2.2c-12.4,7-8.8,16.6-14.4,29.4c-1.3,2.9,0.3,6.4-0.3,9c-0.5,2.7-2,3.6-2.4,6.2
	c-0.4,2.1,0.1,4,0.8,5.6"/>
<path fill="#1C1C1B" d="M33.7,27.1c0,1.1-0.9,2-2,2c-1.1,0-2-0.9-2-2c0-1.1,0.9-2,2-2C32.8,25.1,33.7,26,33.7,27.1"/>
<path fill="#1C1C1B" d="M25.7,27.1c0,1.1-0.9,2-2,2c-1.1,0-2-0.9-2-2c0-1.1,0.9-2,2-2C24.8,25.1,25.7,26,25.7,27.1"/>
<path d="M33.7,27.1c0,1.1-0.9,2-2,2c-1.1,0-2-0.9-2-2c0-1.1,0.9-2,2-2C32.8,25.1,33.7,26,33.7,27.1"/>
<path d="M25.7,27.1c0,1.1-0.9,2-2,2c-1.1,0-2-0.9-2-2c0-1.1,0.9-2,2-2C24.8,25.1,25.7,26,25.7,27.1"/>
<path fill="none" stroke="#000100" stroke-linecap="round" stroke-linejoin="round" stroke-miterlimit="10" d="M19.9,23.8l1.6-0.6
	c0,0,2.4-0.5,3.9,0"/>
<path fill="none" stroke="#000100" stroke-linecap="round" stroke-linejoin="round" stroke-miterlimit="10" d="M35.2,23.8l-1.6-0.6
	c0,0-2.4-0.5-3.9,0"/>
<path fill="#AAAFB5" d="M8.7,64.1v-9.8c0-5,5-9,10-9c6,5,12,5,18,0c5,0,10,4,10,9v9.8H8.7z"/>
<path fill="#5A5E5F" d="M37.1,45.1c-3.2,2.1-4.9,3-8.9,3.6C41.2,49.1,41.2,60.1,42,64.1h5.1C47.1,64.1,49.1,45.1,37.1,45.1"/>
<path fill="#E4AE67" d="M21,47.9c-0.7,6,5,6.6,6.8,10.1c2-3.7,7-4.1,6.6-10.1"/>
<path fill="none" stroke="#1D1D1B" stroke-width="2" stroke-linecap="round" stroke-linejoin="round" stroke-miterlimit="10" d="
	M21,47.9c-0.7,6,5,6.6,6.8,10.1c2-3.7,7-4.1,6.6-10.1"/>
<path fill="none" stroke="#1C1C1B" stroke-width="2" stroke-linecap="round" stroke-linejoin="round" d="M8.8,63.1v-9c0-5,5-9,10-9
	c6,5,12,5,18,0c5,0,10,4,10,9v9"/>
</svg>
