<?xml version="1.0" encoding="utf-8"?>
<!-- Generator: Adobe Illustrator 23.0.3, SVG Export Plug-In . SVG Version: 6.00 Build 0)  -->
<svg version="1.1" id="emoji" xmlns="http://www.w3.org/2000/svg" xmlns:xlink="http://www.w3.org/1999/xlink" x="0px" y="0px"
	 viewBox="0 0 72 72" style="enable-background:new 0 0 72 72;" xml:space="preserve">
<style type="text/css">
	.st0{fill:#281913;}
	.st1{fill:#A9FCF2;}
	.st2{fill:#F9DCBE;}
	.st3{fill:#6ECCBE;}
	.st4{fill:none;stroke:#000000;stroke-width:2;stroke-linecap:round;stroke-miterlimit:10;}
	.st5{fill:none;stroke:#000000;stroke-width:2;stroke-linecap:round;stroke-linejoin:round;}
	.st6{fill:none;stroke:#000000;stroke-width:2;stroke-linejoin:round;}
	.st7{fill:none;stroke:#281913;stroke-linecap:round;stroke-miterlimit:10;}
</style>
<title>Ricarda_emoji</title>
<g id="color">
	<path class="st0" d="M55.2,59.5c1.4-0.3,2.6-1.4,3-2.9c0.5-1.3,0.6-2.7,0.2-4c1.3-0.2,2.4-1.9,2.5-4s-0.7-4-1.9-4.5
		c0.7-0.9,1.1-2,1.2-3.2c0.1-2-0.5-3.7-1.6-4.3c0.1,0,0.2-0.1,0.3-0.1c1.4-0.7,1.8-3.1,0.9-5.3c-0.7-1.8-2-2.9-3.2-2.8
		c0.6-1.4,0.6-3,0-4.4c-0.8-2-2.4-3.2-3.8-2.8c0.6-1.4,0-3.4-1.5-4.8c-0.5-0.4-1.1-0.8-1.7-1c0-0.1,0-0.3,0-0.4
		c0-1.7-1.7-3.1-3.8-3.1c-0.7,0-1.4,0.2-2,0.5c-0.5-1.8-2.4-2.9-4.2-2.5c-0.8,0.2-1.5,0.6-2.1,1.2c-0.8-1.3-2.3-2-3.8-1.6
		c-1.3,0.3-2.3,1.1-2.9,2.3c-0.9-0.9-2.1-1.3-3.4-1c-2.1,0.4-3.5,2.4-3.1,4.6v0.1c-1.3-0.3-2.6,0.1-3.5,1c-1.5,1.4-2.2,3.4-1.5,4.8
		c-1.3-0.4-3,0.7-3.8,2.8c-0.6,1.4-0.6,3,0,4.4c-1.2,0-2.5,1.1-3.2,2.8c-0.9,2.2-0.5,4.6,0.9,5.3c0.1,0,0.2,0.1,0.3,0.1
		c-1.1,0.7-1.7,2.4-1.6,4.3c0.1,1.1,0.5,2.2,1.2,3.1c-1.2,0.5-2.1,2.4-1.9,4.5s1.3,3.8,2.6,4c-0.5,1.3-0.4,2.7,0.1,4
		c0.4,1.4,1.6,2.5,3,2.9"/>
	<g id="color-2">
		<path class="st1" d="M55.3,60.9c-0.6,0-1-0.4-1-1v-3c0-4.5-4.5-8.8-8.6-9c-6.2,5-12.5,5-18.7,0c-4.1,0.2-9.6,4.5-9.6,9v3
			c0,0.6-0.4,1-1,1"/>
	</g>
</g>
<g id="skin">
	<g id="skin-2">
		<path class="st2" d="M25.4,29.4v1C25.4,38,30,44,35.9,44s10.5-6,10.5-13.6c0-4.4-1.6-7.2-4.7-10.6c-0.3-0.4-0.8-0.6-1.3-0.5
			c-3.4,0.5-6.8,1.6-9.9,3.2C27.8,24,25.9,28.6,25.4,29.4z"/>
	</g>
</g>
<path class="st3" d="M41.6,50.8c0,0,2.5-1.4,3.5-2.3c0,0,9.4-1.7,9.7,12.4h-5.6C49.2,60.9,49.2,53.2,41.6,50.8z"/>
<g id="line">
	<path class="st4" d="M13.1,36.9c-1,1.1-1.5,2.6-1.3,4.1c0.1,1,0.4,1.9,0.9,2.8c0.1,0.2,0.1,0.4-0.1,0.5l0,0
		c-1.1,0.7-1.8,2.4-1.6,4.3s1.1,3.6,2.3,4c0.1,0,0.2,0.1,0.2,0.2l0,0c-0.4,1.3-0.3,2.6,0.2,3.8 M24.1,15.5c-1.2-0.2-2.5,0.1-3.4,1
		c-1.3,1-1.9,2.6-1.7,4.3c0,0.2-0.1,0.4-0.3,0.4h-0.1c-1.2,0-2.5,1.1-3.2,2.8c-0.5,1.2-0.6,2.6-0.2,3.9c0.1,0.2,0,0.4-0.2,0.5l0,0
		c-1.3,0.4-2.3,1.5-2.8,2.8c-0.9,2.2-0.5,4.6,0.9,5.3 M49.6,15.5c0-0.1,0-0.2,0-0.2c0-1.7-1.7-3.1-3.8-3.1c-0.6,0-1.1,0.1-1.6,0.3
		c-0.2,0.1-0.4,0-0.5-0.2l0,0c-0.7-1.6-2.4-2.5-4.1-2.1c-0.7,0.1-1.3,0.4-1.8,0.9c-0.2,0.1-0.4,0.1-0.6,0l0,0
		c-0.9-1.1-2.3-1.6-3.6-1.3c-1.1,0.2-2,0.9-2.6,1.9c-0.1,0.2-0.4,0.2-0.6,0.1l0,0c-0.8-0.7-1.9-0.9-3-0.7c-2.1,0.4-3.5,2.4-3.1,4.6
		 M58.7,36.6c0.1,0,0.1,0,0.2-0.1c1.4-0.7,1.8-3.1,0.9-5.3c-0.4-1.3-1.4-2.4-2.8-2.8c-0.2,0-0.3-0.2-0.3-0.4l0,0
		c0.4-1.3,0.3-2.7-0.2-3.9c-0.7-1.8-2-2.9-3.2-2.8c-0.2,0-0.4-0.2-0.4-0.4v-0.1c0.2-2.2-1-4.3-3.1-5.1l-0.2-0.1 M58.3,56.6
		c0.5-1.2,0.6-2.4,0.3-3.6c-0.1-0.2,0-0.4,0.2-0.5c1.2-0.4,2.1-2,2.2-4s-0.5-3.7-1.6-4.3c-0.2-0.1-0.2-0.3-0.1-0.5l0,0
		c0.5-0.8,0.8-1.7,0.9-2.7c0.2-1.4-0.2-2.9-1.2-4l-0.2-0.2"/>
	<g id="line-2">
		<path class="st5" d="M16.8,59.9v-3c0-5,5-9,10-9c6,5,12,5,18,0c5,0,10,4,10,9v3"/>
		<path d="M41.8,29.9c0,1.1-0.9,2-2,2s-2-0.9-2-2s0.9-2,2-2S41.8,28.8,41.8,29.9"/>
		<path d="M33.8,29.9c0,1.1-0.9,2-2,2c-1.1,0-2-0.9-2-2s0.9-2,2-2C32.9,27.9,33.8,28.8,33.8,29.9"/>
		<path class="st6" d="M24.8,30.9c0,8,5,14,11,14s11-6,11-14c0-4.8-1.8-7.7-5.4-11.4c-0.4-0.4-1-0.6-1.6-0.6
			c-6.6,0.9-14.5,5.4-15,11V30.9z"/>
		<path class="st5" d="M32.8,38.1c1.9,1,4.1,1,6,0"/>
	</g>
	<path class="st7" d="M33.5,26.2c-1.6-0.4-3.3-0.1-4.6,0.8"/>
	<path class="st7" d="M38.1,26.2c1.6-0.4,3.3-0.1,4.7,0.8"/>
</g>
</svg>
