<?xml version="1.0" encoding="utf-8"?>
<!-- Generator: Adobe Illustrator 22.1.0, SVG Export Plug-In . SVG Version: 6.00 Build 0)  -->
<svg version="1.1" id="Ebene_1" xmlns="http://www.w3.org/2000/svg" xmlns:xlink="http://www.w3.org/1999/xlink" x="0px" y="0px"
	 viewBox="0 0 55 65" style="enable-background:new 0 0 55 65;" xml:space="preserve">
<style type="text/css">
	.st0{fill:#1D1D1B;}
	.st1{fill:none;stroke:#030404;stroke-width:2;stroke-linecap:round;stroke-linejoin:round;}
	.st2{fill:#1C1C1B;}
	.st3{fill:#1E1E1E;}
	.st4{fill:none;stroke:#000000;stroke-width:2;stroke-miterlimit:10;}
	.st5{fill:#FFE8BC;}
	.st6{fill:none;stroke:#000000;stroke-width:2;stroke-linecap:round;stroke-linejoin:round;}
	.st7{fill:none;stroke:#000000;stroke-linecap:round;stroke-linejoin:round;stroke-miterlimit:10;}
	.st8{fill:none;stroke:#542E14;stroke-linecap:round;stroke-linejoin:round;stroke-miterlimit:10;}
	.st9{fill:#282828;stroke:#542E14;stroke-linecap:round;stroke-linejoin:round;stroke-miterlimit:10;}
	.st10{fill:none;stroke:#000000;stroke-width:2;stroke-linejoin:round;}
	.st11{fill:none;stroke:#000000;stroke-linecap:round;stroke-linejoin:round;}
	.st12{fill:#232E3F;}
	.st13{fill:none;stroke:#FFFFFF;stroke-width:0.25;stroke-miterlimit:10;}
	.st14{fill:#FFFFFF;}
</style>
<path class="st0" d="M45.8,64.9c-0.6,0,0-10.1,0-10.1c0-4.5-5.5-8.8-9.7-8.9c-6.2,5-12.1,5-18.3,0c-4.2,0.2-9.9,3.4-9.9,7.8
	c0,0,0.4,11.2-0.1,11.2"/>
<path d="M36.1,46.4c-3.2,2.1-4.9,3-8.9,3.6c13.1,0.4,13.4,10.8,14.2,14.8h4.4c0.4,0,0.7-0.3,0.7-0.7C46.7,60.8,46.8,46.4,36.1,46.4"
	/>
<path class="st1" d="M7.8,63.9v-9c0-5,5-9,10-9c6,5,12,5,18,0c5,0,10,4,10,9v9"/>
<path class="st2" d="M33.2,27.8c0,1.1-0.9,2-2,2c-1.1,0-2-0.9-2-2s0.9-2,2-2C32.3,25.8,33.2,26.7,33.2,27.8"/>
<path class="st2" d="M25.2,27.8c0,1.1-0.9,2-2,2s-2-0.9-2-2s0.9-2,2-2S25.2,26.7,25.2,27.8"/>
<path class="st3" d="M16.2,28.3c0,0-2.8-4.9-2.3-6.5c0.5-1.5,6.2-6,7.4-6c1.2,0,12,0,12,0s6.3,4.7,6.7,5.3s-1.9,7.6-1.9,7.6
	L16.2,28.3z"/>
<path class="st3" d="M16.2,28.3c0,0-2.8-4.9-2.3-6.5c0.5-1.5,6.2-6,7.4-6c1.2,0,12,0,12,0s6.3,4.7,6.7,5.3s-1.9,7.6-1.9,7.6
	L16.2,28.3z"/>
<path class="st4" d="M16.2,28.3c0,0-1.8-5.2-1.4-6.7c0.5-1.5,4.6-7.2,5.8-7.2s12.6-0.7,12.6-0.7s5.9,6.8,6.3,7.4s-1.5,7.5-1.5,7.5
	L16.2,28.3z"/>
<path class="st5" d="M16.2,28.2c-0.1,8,4.3,15,11.3,15c7.1,0,9.7-6.2,11.1-14c0.9-5.3-3.1-12.2-3.3-11.9c-9,0.3-11.7,3.3-16,1
	C19.2,18.4,16.2,23.2,16.2,28.2"/>
<path d="M33.2,27.8c0,1.1-0.9,2-2,2c-1.1,0-2-0.9-2-2s0.9-2,2-2C32.3,25.8,33.2,26.7,33.2,27.8"/>
<path d="M25.2,27.8c0,1.1-0.9,2-2,2s-2-0.9-2-2s0.9-2,2-2S25.2,26.7,25.2,27.8"/>
<path class="st6" d="M24.2,36.1c2.1,0.8,4.1,0.8,6,0"/>
<path class="st7" d="M19.6,24.7l1.6-0.6c0,0,2.4-0.5,3.9,0.1"/>
<path class="st7" d="M34.9,24.7l-1.7-0.6c0,0-2.4-0.5-3.9,0.1"/>
<path class="st8" d="M25.7,28.6c-0.1,2.2-1.3,3.1-3.5,3.1c-2.2,0-4-1.3-4-3.5c0-1,0.1-1.7,0.1-1.7c0.7-0.7,2.7-0.7,3.8-0.7
	c1.3,0,3.6,0.2,3.6,0.2S25.8,27.6,25.7,28.6z"/>
<path class="st8" d="M28.3,28.6c0.1,2.2,1.3,3.1,3.5,3.1c2.2,0,4-1.3,4-3.5c0-1-0.1-1.7-0.1-1.7c-0.7-0.7-2.7-0.7-3.8-0.7
	c-1.3,0-3.6,0.2-3.6,0.2S28.2,27.6,28.3,28.6z"/>
<line class="st8" x1="16.2" y1="28.2" x2="18.3" y2="28.2"/>
<line class="st9" x1="36.2" y1="28" x2="38.3" y2="28"/>
<path class="st10" d="M16.2,28.3c-0.1,8,4.9,14,11,14c5.9,0,11.1-6,11.1-14c0-5-3-11-3-11c-8,0-10,3-16,1
	C19.3,18.3,16.3,23.3,16.2,28.3z"/>
<path class="st3" d="M24.5,39.1l-6.3-2.3c0.4,2.8,11,10.9,17.6,0.8c0.2-0.2-0.1-0.5-0.4-0.4l-5.4,2L24.5,39.1z"/>
<path class="st11" d="M24.6,39.7l-6.5-3.2C18.2,39,28.4,49,35.6,37.4l-5.5,2.3C30.1,39.7,24.6,39.7,24.6,39.7z"/>
<path class="st12" d="M18.9,17.2c-1.1,6.1,2.5,5.1,2.5,5.1s3-1,5.9-1c0,0,4.3,0.3,5.1,0.7c0.8,0.4,3.9,0.5,2.2-4.8"/>
<path class="st12" d="M17.2,17.2c0,0,0.8-8.1,9.7-8.2c8.9-0.1,9.6,8.2,9.6,8.2s-4,0.8-9.3,0.8C23.9,18,17.2,17.2,17.2,17.2z"/>
<path class="st10" d="M17.1,17.2c0,0,0.8-8.1,9.7-8.2s9.6,8.2,9.6,8.2s-4,0.8-9.3,0.8C23.8,18,17.1,17.2,17.1,17.2z"/>
<path class="st10" d="M18.9,17.2c-1.1,6.1,2.5,5.1,2.5,5.1s3-1,5.9-1c0,0,4.3,0.3,5.1,0.7c0.8,0.4,3.9,0.5,2.2-4.8"/>
<path class="st13" d="M26.9,14c-0.5,0-1.4,0.3-1.4,1c0,0.7,0.4,1.2,1.4,1.2c0.9,0,1.3-0.6,1.3-1.1S27.7,14,26.9,14z"/>
<path class="st13" d="M25.6,14.6c0,0-0.3-0.4-0.1-0.5c0,0,0.2-0.2,0.5,0.2"/>
<path class="st13" d="M27.5,14.1c0.1-0.3,0.4-0.4,0.5-0.3c0,0,0.3,0.2-0.1,0.6"/>
<circle class="st14" cx="27.5" cy="14.9" r="0.2"/>
<circle class="st14" cx="26.3" cy="14.9" r="0.2"/>
<path class="st14" d="M27.1,15.2c0,0-0.2-0.1-0.4,0c0,0,0.1,0.2,0.2,0.2S27.1,15.2,27.1,15.2z"/>
</svg>
