<?xml version="1.0" encoding="utf-8"?>
<!-- Generator: Adobe Illustrator 23.0.3, SVG Export Plug-In . SVG Version: 6.00 Build 0)  -->
<svg version="1.1" id="Ebene_1" xmlns="http://www.w3.org/2000/svg" xmlns:xlink="http://www.w3.org/1999/xlink" x="0px" y="0px"
	 viewBox="0 0 55 65" style="enable-background:new 0 0 55 65;" xml:space="preserve">
<style type="text/css">
	.st0{fill:#D0CECF;}
	.st1{fill:#9B9B9A;}
	.st2{fill:none;stroke:#030404;stroke-width:2;stroke-linecap:round;stroke-linejoin:round;}
	.st3{fill:#A58667;}
	.st4{fill:#FFE8BC;}
	.st5{fill:none;stroke:#000000;stroke-width:2;stroke-linecap:round;stroke-linejoin:round;stroke-miterlimit:10;}
</style>
<title>sam_eckert</title>
<g id="body">
	<path id="Path" class="st0" d="M46.3,64.7c-0.6,0,0-10,0-10c0-4.4-5.5-8.7-9.7-8.9c-6.2,5-12.1,4.9-18.3-0.1
		c-4.2,0.2-9.9,3.4-9.9,7.8c0,0,0.4,11.2-0.1,11.2"/>
	<path class="st1" d="M36.6,44.7c-3.2,2.2-4.9,3.2-8.9,3.8c13.1,0.4,13.1,12,13.8,16.2h5.1C46.6,64.7,48.6,44.7,36.6,44.7"/>
	<path class="st2" d="M8.3,63.6v-9c0-5,5-9,10-9c6,5,12,5,18,0c5,0,10,4,10,9v9"/>
</g>
<path class="st3" d="M38,27.8c0,0,1.6-14.6-2.8-15.1c0,0-1.8-4.9-8.8-4s-7.3,4.1-7.3,4.1C12.9,18.5,17.4,28,17.4,28L38,27.8z"/>
<path class="st4" d="M34.8,15.7c-1,1.4-10.2-0.4-15.7,2.8c1.2,1.6-1.3,9.5-1.4,9.7c0,7.9,3.8,14.5,10.4,14.5
	c6.2-0.4,10.4-6.3,9.3-14.5c0,0-0.9-10.4-3.5-12"/>
<path class="st5" d="M34.8,15.7c-1,1.4-9.8-0.3-15.3,2.6c-0.2,0.1-0.3,0.3-0.2,0.5c0.7,1.9-1,7.7-1.4,9.1c-0.1,0.2-0.1,0.4-0.1,0.6
	c-0.3,4.6,1.3,8.1,3.2,10.5c1.9,2.4,3.1,3.8,7.3,3.9c3.9,0,6.2-2.6,7.3-4.9c1.6-3.5,2.1-6,2-9.9c0,0-0.9-10.4-3.5-12"/>
<path class="st5" d="M23.1,34.9c2.9,1.9,7.8,1.4,10.1-0.2"/>
<path d="M25.6,26.6c0,1.1-0.9,2-2,2s-2-0.9-2-2s0.9-2,2-2C24.7,24.6,25.6,25.5,25.6,26.6"/>
<path d="M34.3,26.6c0,1.1-0.9,2-2,2c-1.1,0-2-0.9-2-2s0.9-2,2-2C33.4,24.6,34.3,25.5,34.3,26.6"/>
<path class="st5" d="M37.4,28.2c0,0,4.1-12.4-2.2-15.4c0,0-1.8-4.9-8.8-4s-7.3,4.1-7.3,4.1c-7.1,3.7-1.5,16.6-1.5,16.6"/>
</svg>
