<svg id="Ebene_2" data-name="Ebene 2" xmlns="http://www.w3.org/2000/svg" viewBox="0 0 55 65">
  <title>sam_eckert</title>
  <g id="Page-1">
    <g id="sam">
      <g id="body">
        <path id="Path" d="M46.2845,64.7c-.553,0,0-10.0269,0-10.0269,0-4.4377-5.5-8.73-9.651-8.9093-6.205,4.997-12.139,4.9322-18.348-.0638-4.156.1814-9.898,3.3529-9.898,7.7906,0,0,.447,11.2084-.106,11.2084" fill="#d0cecf"/>
        <path d="M36.5935,44.7c-3.171,2.2242-4.875,3.1579-8.938,3.7768,13.063.4337,13.063,12.0126,13.825,16.2232h5.113s2-20-10-20" fill="#9b9b9a"/>
        <path d="M8.2855,63.6364v-9c0-4.994,5.008-9,10-9q9,7.5,18,0c4.993,0,10,4.006,10,9v9" fill="none" stroke="#030404" stroke-linecap="round" stroke-linejoin="round" stroke-width="2"/>
      </g>
      <g id="head">
        <path d="M17.9045,34.6c-4.2-17.2.1-23.9,9.5-23.5,10.5979.4509,14.5,6.3,10.1,21.9" fill="#9c9166"/>
        <path d="M33.2045,28.7a2,2,0,1,1-2-2,2.0059,2.0059,0,0,1,2,2" fill="#1c1c1b"/>
        <path d="M25.2045,28.7a2,2,0,1,1-2-2,2.0059,2.0059,0,0,1,2,2" fill="#1c1c1b"/>
        <path d="M17.3045,29.7c1.5,7.8,3.1,13,10,13,7.1,0,8.5-5.2,10.1-13,1-4.9-2-10-2-10-1.01,0-1.5618-1.9665-2.4-2-2.8078-.1125-5.1289,1.6267-7,2a44.3747,44.3747,0,0,1-6.6,1c-.1,0-4.1,4.1-3.1,9" fill="#ffe8bc"/>
        <path d="M33.2045,26.7a2,2,0,1,1-2-2,2.0059,2.0059,0,0,1,2,2"/>
        <path d="M25.2045,26.7a2,2,0,1,1-2-2,2.0059,2.0059,0,0,1,2,2"/>
        <path d="M19.76,19.803q-.1828-.045-.3559-.1026c-.1,0-3.7,5.2-2.1,10,2.7,8.2,3.9,13,10,13,5.9,0,7.8-4.5,10.1-13,1.3-4.8-4-12-4-12-.1419,0-.293-.993-.4524-.98" fill="none" stroke="#1c1c1b" stroke-linejoin="round" stroke-width="2"/>
        <path d="M24.2045,35.9a7.7957,7.7957,0,0,0,6,0" fill="none" stroke="#1c1c1b" stroke-linecap="round" stroke-linejoin="round" stroke-width="2"/>
        <path d="M18.3045,33.8c-2.3-7.1-3.304-15.1994-.7774-18.9228A6.7017,6.7017,0,0,1,21.0045,11.7a20.49,20.49,0,0,1,6.6-.8,19.7879,19.7879,0,0,1,5.4.8c.2275.0695.7934.6286,1,.7.3829.1323,1.1927.1728,1.4892.3,1.4094.6043,1.5108,1,2.6735,3.2094C40.0141,19.4193,39.273,25.9332,37.1045,33.8" fill="none" stroke="#1d1d1b" stroke-linecap="round" stroke-linejoin="round" stroke-width="2"/>
        <path id="Path-2" d="M19.4045,19.7q10,1,14.6-4" fill="none" stroke="#202328" stroke-linecap="round" stroke-width="2"/>
      </g>
    </g>
  </g>
</svg>
