<?xml version="1.0" encoding="UTF-8"?>
<svg width="41px" height="55px" viewBox="0 0 41 55" version="1.1" xmlns="http://www.w3.org/2000/svg" xmlns:xlink="http://www.w3.org/1999/xlink">
    <!-- Generator: Sketch 54.1 (76490) - https://sketchapp.com -->
    <title>sam</title>
    <desc>Created with Sketch.</desc>
    <g id="Page-1" stroke="none" stroke-width="1" fill="none" fill-rule="evenodd">
        <g id="sam" transform="translate(1.000000, -1.000000)">
            <g id="body" transform="translate(0.277000, 36.000000)">
                <path d="M38.003,20 C37.45,20 38.003,9.97308076 38.003,9.97308076 C38.003,5.53539382 32.503,1.24327019 28.352,1.06380857 C22.147,6.06081755 16.213,5.99601196 10.004,1 C5.848,1.18145563 0.106,4.35294118 0.106,8.79062812 C0.106,8.79062812 0.553,19.999003 0,19.999003" id="Path" fill="#D0CECF" fill-rule="nonzero"></path>
                <path d="M28.312,0 C25.141,2.22421053 23.437,3.15789474 19.374,3.77684211 C32.437,4.21052632 32.437,15.7894737 33.199,20 L38.312,20 C38.312,20 40.312,0 28.312,0" id="Path" fill="#9B9B9A" fill-rule="nonzero"></path>
                <path d="M0.004,18.936 L0.004,9.936 C0.004,4.942 5.012,0.936 10.004,0.936 C16.004,5.936 22.004,5.936 28.004,0.936 C32.997,0.936 38.004,4.942 38.004,9.936 L38.004,18.936" id="Path" stroke="#030404" stroke-width="2" stroke-linecap="round" stroke-linejoin="round"></path>
            </g>
            <g id="head" transform="translate(8.014565, 1.200000)">
                <path d="M1.88543522,24.7 C-2.31456478,7.5 1.98543522,0.8 11.3854352,1.2 C21.9833393,1.65097464 25.8854352,7.5 21.4854352,23.1" id="Path" fill="#9C9166" fill-rule="nonzero"></path>
                <path d="M17.1854352,18.8 C17.1854352,19.9 16.2854352,20.8 15.1854352,20.8 C14.0854352,20.8 13.1854352,19.9 13.1854352,18.8 C13.1854352,17.7 14.0854352,16.8 15.1854352,16.8 C16.2854352,16.8 17.1854352,17.7 17.1854352,18.8" id="Path" fill="#1C1C1B" fill-rule="nonzero"></path>
                <path d="M9.18543522,18.8 C9.18543522,19.9 8.28543522,20.8 7.18543522,20.8 C6.08543522,20.8 5.18543522,19.9 5.18543522,18.8 C5.18543522,17.7 6.08543522,16.8 7.18543522,16.8 C8.28543522,16.8 9.18543522,17.7 9.18543522,18.8" id="Path" fill="#1C1C1B" fill-rule="nonzero"></path>
                <path d="M1.28543522,19.8 C2.78543522,27.6 4.38543522,32.8 11.2854352,32.8 C18.3854352,32.8 19.7854352,27.6 21.3854352,19.8 C22.3854352,14.9 19.3854352,9.8 19.3854352,9.8 C18.3757809,9.8 17.8236458,7.83356584 16.9854352,7.8 C14.1776558,7.6875635 11.8565843,9.42675138 9.98543522,9.8 C7.98913603,10.198213 4.98543522,10.8 3.38543522,10.8 C3.28543522,10.8 -0.71456478,14.9 0.28543522,19.8" id="Path" fill="#FFE8BC" fill-rule="nonzero"></path>
                <path d="M17.1854352,16.8 C17.1854352,17.9 16.2854352,18.8 15.1854352,18.8 C14.0854352,18.8 13.1854352,17.9 13.1854352,16.8 C13.1854352,15.7 14.0854352,14.8 15.1854352,14.8 C16.2854352,14.8 17.1854352,15.7 17.1854352,16.8" id="Path" fill="#000000" fill-rule="nonzero"></path>
                <path d="M9.18543522,16.8 C9.18543522,17.9 8.28543522,18.8 7.18543522,18.8 C6.08543522,18.8 5.18543522,17.9 5.18543522,16.8 C5.18543522,15.7 6.08543522,14.8 7.18543522,14.8 C8.28543522,14.8 9.18543522,15.7 9.18543522,16.8" id="Path" fill="#000000" fill-rule="nonzero"></path>
                <path d="M3.74134029,9.90264322 C3.61947622,9.87258085 3.50076454,9.83844311 3.38543522,9.8 C3.28543522,9.8 -0.31456478,15 1.28543522,19.8 C3.98543522,28 5.18543522,32.8 11.2854352,32.8 C17.1854352,32.8 19.0854352,28.3 21.3854352,19.8 C22.6854352,15 17.3854352,7.8 17.3854352,7.8 C17.2435167,7.8 17.0924406,6.8070637 16.9329927,6.82040523" id="Path" stroke="#1C1C1B" stroke-width="2" stroke-linejoin="round"></path>
                <path d="M8.18543522,26 C10.2854352,26.8 12.2854352,26.8 14.1854352,26" id="Path" stroke="#1C1C1B" stroke-width="2" stroke-linecap="round" stroke-linejoin="round"></path>
                <path d="M2.28543522,23.9 C-0.0145647799,16.8 -1.01858203,8.70061284 1.50798883,4.97727312 C2.17095111,4.0002834 2.96684524,2.49651666 4.98543522,1.8 C7.46537946,0.94429255 10.2701619,1 11.5854352,1 C13.4588355,1 15.5172279,1.35121094 16.9854352,1.8 C17.2129014,1.86952991 17.7788453,2.42858609 17.9854352,2.5 C18.3683,2.63234856 19.1781083,2.67286492 19.4746136,2.8 C20.8840822,3.40434979 20.9854352,3.8 22.1481466,6.009398 C23.9950522,9.51890983 23.2539436,16.0328534 21.0854352,23.9" id="Path" stroke="#1D1D1B" stroke-width="2" stroke-linecap="round" stroke-linejoin="round"></path>
                <path d="M3.38543522,9.8 C10.0521019,10.4666667 14.9187686,9.13333333 17.9854352,5.8" id="Path-2" stroke="#202328" stroke-width="2" stroke-linecap="round" fill-rule="nonzero"></path>
            </g>
        </g>
    </g>
</svg>