<svg id="Sarah_Mager" data-name="Sarah Mager" xmlns="http://www.w3.org/2000/svg" viewBox="0 0 55 65">
  <title>Zeichenfläche 1</title>
  <g>
    <path d="M7.6885,64.94V55.2174c0-4.9606,5.2582-12.6,10.2187-12.6,5.9526,4.9606,11.6076,8.6313,17.56,3.6708,4.9606,0,9.9211,3.9684,9.9211,8.929V64.94Z" fill="#1d1e1c"/>
    <path d="M35.1121,43.1117c-3.4438,2.4126-5.2733,3.4466-9.578,4.1359,13.99.4595,13.99,13.0969,14.7437,17.6924H45.874s2.1524-21.8283-10.7619-21.8283"/>
    <path d="M20.565,39.4893c-.8662,11.966,2.3389,11.64,5.3707,17.5138,2.4255-7.3971,8.1427-4.2424,7.71-16.2084" fill="#ffe7bb"/>
    <path d="M7.887,63.9479v-8.929c0-4.9605,5.06-14.6831,10.02-14.6831.7937.5953,1.9842,5.9526,2.5795,7.8376,1.7858,5.7542,4.3652,5.3574,6.25,8.83,1.9842-3.6707,5.4566-3.9684,6.0519-9.921a13.1968,13.1968,0,0,1,3.2739-6.3495c4.9605,0,9.6234,9.425,9.6234,14.2863v8.929" fill="none" stroke="#000" stroke-linecap="round" stroke-linejoin="round" stroke-width="1.9842"/>
    <path d="M33.0864,27.24a1.9842,1.9842,0,1,1-1.9842-1.9842A1.99,1.99,0,0,1,33.0864,27.24" fill="#1d1d1b"/>
    <path d="M25.15,27.24a1.9842,1.9842,0,1,1-1.9842-1.9842A1.99,1.99,0,0,1,25.15,27.24" fill="#1d1d1b"/>
    <path d="M22.7427,60.3063c.4543-2.3741-.8473-3.5879-1.3557-5.7407s1.4405-2.8635,1.3557-5.6541S21.2175,45.802,21.387,42.852s12.1142-4.9449,13.0654-.794c1.0486,4.5757,5.35,6.219,3.611,13.5079-1.3574,5.6908,7.2188,7.9363,7.2188,5.1457s4.66-5.2622,3.8978-12.4379-.6779-5.82.1695-11.0029-1.0168-4.3054-2.5421-7.973S49.5189,16.94,39.0118,9.3651,16.896,10.8,10.88,13.83s-.2542,6.1393-3.7284,13.0759S8.1684,39.902,9.3546,43.9682a60.2118,60.2118,0,0,1,.9907,9.1c-.0608,2.312,1.84,5.3832,4.26,7.4979,1.1751,1.0271,2.7687.9385,4.27.9854C20.3791,61.5983,22.4417,61.88,22.7427,60.3063Z" fill="#dd833b"/>
    <path d="M44.1687,61.7625c.2542-1.7475,2.8929-5.2022,4.7571-8.6973s0-3.4156-.5084-8.7377,3.6436-6.1165,1.3558-10.4854q-.9617-1.8362-1.6457-3.1807a16.3365,16.3365,0,0,1-1.7665-6.54c-.6388-11.7963-7.74-16.8708-14.5516-17.6047-7.372-.7944-13.5576,2.86-20.8448,7.3079s.8474,3.5746-3.7283,13.0272,2.2031,10.962,2.2031,16.999c0,0,.5049,3.661.763,6.4958.2226,2.4452,2.508,7.4815,4.7545,10.29" fill="none" stroke="#000" stroke-linecap="round" stroke-linejoin="round" stroke-width="1.9211"/>
    <path d="M22.207,60.7771s-1.0742-5.0538-.5658-7.4264,1.1863-4.4392.8473-6.44a17.18,17.18,0,0,0-.6433-2.8078,4.85,4.85,0,0,1,.0356-2.4463" fill="none" stroke="#000" stroke-linecap="round" stroke-linejoin="round" stroke-width="1.9211"/>
    <path d="M16.7167,26.8432v.9921c0,7.6392,4.6629,13.691,10.7147,13.691,5.9526,0,9.7226-6.151,9.7226-13.79,0-4.6629-1.19-10.3179-5.9526-12.5-5.9526,1.0913-9.1274,1.885-12.4013,3.5716-2.7779,1.3889-1.5874,7.2423-2.0834,8.036" fill="#ffe7bb"/>
    <path d="M24.2567,34.6808c1.3889,2.0834,4.1668,1.9842,5.9526,0" fill="none" stroke="#000" stroke-linecap="round" stroke-linejoin="round" stroke-width="1.9842"/>
    <path d="M16.3509,21.3772,16.32,28.4306C16.32,36.3674,21.28,42.32,27.233,42.32c5.655,0,9.8218-7.2423,9.7226-12.5,0-2.0834-.3637-7.7238-.3637-8.22" fill="none" stroke="#000" stroke-linecap="round" stroke-linejoin="round" stroke-width="1.9842"/>
    <path d="M33.0864,27.24a1.9842,1.9842,0,1,1-1.9842-1.9842A1.99,1.99,0,0,1,33.0864,27.24"/>
    <path d="M25.15,27.24a1.9842,1.9842,0,1,1-1.9842-1.9842A1.99,1.99,0,0,1,25.15,27.24"/>
    <path d="M20.4867,24.1645l.9874-.37a3.4985,3.4985,0,0,1,1.4191-.22,6.172,6.172,0,0,1,1.9587.392" fill="none" stroke="#dd833b" stroke-linecap="round" stroke-linejoin="round" stroke-width="0.9921"/>
    <path d="M33.384,24.1645l-.875-.3281a3.9546,3.9546,0,0,0-1.6548-.2547,6.0038,6.0038,0,0,0-1.8354.3844" fill="none" stroke="#dd833b" stroke-linecap="round" stroke-linejoin="round" stroke-width="0.9921"/>
    <path d="M31.4,15.3414c-3.0755,1.5873-9.7226,1.885-12.4013,3.5715a11.3256,11.3256,0,0,0-5.159,6.0519" fill="none" stroke="#000" stroke-linecap="round" stroke-linejoin="round" stroke-width="1.9842"/>
    <path d="M31.7391,15.3414c4.3653,1.5873,7.7384,12.3021,7.1432,20.3381" fill="none" stroke="#000" stroke-linecap="round" stroke-linejoin="round" stroke-width="1.9842"/>
    <path d="M38.6079,59.0173s.5923-7.1962-.7449-9.36a56.2841,56.2841,0,0,1-2.8756-5.9946c-.6687-1.4043-1.6718-2.31-1.3374-4.5841" fill="none" stroke="#000" stroke-linecap="round" stroke-linejoin="round" stroke-width="1.9842"/>
  </g>
</svg>
