<?xml version="1.0" encoding="utf-8"?>
<!-- Generator: Adobe Illustrator 23.0.2, SVG Export Plug-In . SVG Version: 6.00 Build 0)  -->
<svg version="1.1" id="Ebene_1" xmlns="http://www.w3.org/2000/svg" xmlns:xlink="http://www.w3.org/1999/xlink" x="0px" y="0px"
	 viewBox="0 0 55 65" style="enable-background:new 0 0 55 65;" xml:space="preserve">
<style type="text/css">
	.st0{fill:#3F3F3F;}
	.st1{fill:#262626;}
	.st2{fill:none;stroke:#030404;stroke-width:2;stroke-linecap:round;stroke-linejoin:round;}
	.st3{fill:#1C1C1B;}
	.st4{fill:#FFE8BC;}
	.st5{fill:none;stroke:#9B9B9A;stroke-width:0.5;stroke-linecap:round;stroke-linejoin:round;}
	.st6{fill:#FEF07E;}
	.st7{fill:none;stroke:#1C1C1B;stroke-width:2;stroke-linecap:round;stroke-linejoin:round;}
	.st8{fill:none;stroke:#1C1C1B;stroke-linecap:round;stroke-linejoin:round;}
	.st9{fill:none;stroke:#1D1D1B;stroke-width:2;stroke-linecap:round;stroke-linejoin:round;}
</style>
<path class="st0" d="M46.1,65c-0.6,0,0-10.1,0-10.1c0-4.5-5.5-8.8-9.7-8.9c-6.2,5-12.1,5-18.3,0c-4.2,0.2-9.9,3.4-9.9,7.8
	c0,0,0.4,11.2-0.1,11.2"/>
<path class="st1" d="M36.4,46.5c-3.2,2.1-4.9,3-8.9,3.6c13.1,0.4,13.4,10.8,14.2,14.8h5.1C46.7,64.9,48.4,46.5,36.4,46.5"/>
<path class="st2" d="M8.1,64v-9c0-5,5-9,10-9c6,5,12,5,18,0c5,0,10,4,10,9v9"/>
<path class="st3" d="M33.5,27.9c0,1.1-0.9,2-2,2c-1.1,0-2-0.9-2-2s0.9-2,2-2C32.6,25.9,33.5,26.8,33.5,27.9"/>
<path class="st3" d="M25.5,27.9c0,1.1-0.9,2-2,2s-2-0.9-2-2s0.9-2,2-2S25.5,26.8,25.5,27.9"/>
<path class="st4" d="M15.3,28.4c-0.1,8,5.5,14.9,12.5,14.9c7.1,0,9.7-6.2,11.1-14c0.9-5.3-3.4-15.9-3.6-15.6c-9.5-8-13.1-2.3-17,2.3
	C18.2,16.1,15.3,23.4,15.3,28.4"/>
<g>
	<circle class="st5" cx="22.7" cy="28.4" r="3.9"/>
	<line class="st5" x1="18.6" y1="28.2" x2="16.4" y2="28.2"/>
	<g>
		<circle class="st5" cx="32.1" cy="28.4" r="3.9"/>
		<line class="st5" x1="36.1" y1="28.2" x2="38.3" y2="28.2"/>
	</g>
</g>
<path class="st6" d="M15.9,31.8c0,0-10.8,1.4-10.9,14.2c0.2,1.1,14.5-2.7,12.6-10.2L15.9,31.8z"/>
<path class="st6" d="M38.6,28.4c1.6-7.7,0.6-22.2-13.3-19.1s-9.4,17.2-9.4,17.2c0.2-2.3,2.5-10.8,10-8.7c4.5,1.3,5.9-3.2,5.9-3.2
	S40.2,19.8,38.6,28.4"/>
<path d="M33.5,27.9c0,1.1-0.9,2-2,2c-1.1,0-2-0.9-2-2s0.9-2,2-2C32.6,25.9,33.5,26.8,33.5,27.9"/>
<path d="M25.5,27.9c0,1.1-0.9,2-2,2s-2-0.9-2-2s0.9-2,2-2S25.5,26.8,25.5,27.9"/>
<path class="st7" d="M24.6,36.9c2.1,0.8,4.1,0.8,6,0"/>
<path class="st7" d="M38.5,25.8c0,3.6-0.8,7.9-2.2,10.7c-1.5,3.2-5.6,6.3-8.9,6.4c-3.2,0.1-7.8-3.2-9.3-6.8
	c-1.7-3.6-1.6-7.1-1.6-10.7"/>
<path class="st8" d="M20.2,24.2c1.3-1,2.5-1.6,5.1-0.1"/>
<path class="st8" d="M34.6,24.2c-1.3-1-2.5-1.6-5.1-0.1"/>
<path class="st9" d="M16.3,27.6"/>
<path class="st9" d="M38.5,27.7c0-2.3-0.5-5.6-1.5-7.6c-1.1-2.2-2.8-4.8-5.5-5.1c-0.5,0.8-1.6,3.2-6.5,2.7c-3.9-0.4-5.4,1.1-6.5,2.8
	c0,0-2.2,3.1-2.1,7.3"/>
<path class="st9" d="M16.4,31.2c-0.5-1.2-1.2-5.6-1.4-9.8c-0.2-5.2,4.6-12.9,12.8-13c7.8-0.1,12.5,6.6,12,13
	c-0.3,4.4-0.7,7.3-1.6,9.5"/>
<path class="st9" d="M16.5,31.7C9.7,33.9,4.3,39.6,4.9,46c4.4-0.5,8.8-3.3,11.3-6.5"/>
</svg>
