<svg id="Ebene_2" data-name="Ebene 2" xmlns="http://www.w3.org/2000/svg" viewBox="0 0 55 65">
  <title>sina_chlod</title>
  <polygon points="21.485 48.988 25.485 48.988 31.56 49.324 36.485 49.988 35.485 55.988 30.485 59.988 24.485 60.988 20.485 54.988 20.343 49.213 21.485 48.988" fill="#1c3d72"/>
  <path d="M8.2065,64.9509V55.1188c0-4.9931,5.0078-9,10-9q9,7.5,18,0c4.9912,0,10,4.0069,10,9v9.8321Z" fill="#f8ad00"/>
  <path d="M36.6694,45.988a18.03,18.03,0,0,1-8.9385,3.59c13.0635.41,13.0635,11.41,13.8242,15.41h5.1123c.002,0,2.002-19-9.998-19" fill="#f8ad00"/>
  <path d="M18.893,41.0173c-.958,11.0293,4.1592,4.6162,7.5918,9.9707,6-4,11,2,13-7" fill="#ffe6ba"/>
  <path d="M33.7572,47.8522a20.0419,20.0419,0,0,0,2.6036-1.8545c4.9941,0,10,4.0079,10,9v9" fill="none" stroke="#000100" stroke-linecap="round" stroke-linejoin="round" stroke-width="2"/>
  <path d="M8.36,63.9958v-9c0-4.9932,5.0078-9,10-9a20.5031,20.5031,0,0,0,2.25,1.6416" fill="none" stroke="#000100" stroke-linecap="round" stroke-linejoin="round" stroke-width="2"/>
  <path d="M40.5028,61.695c.1523-19.4385,5.0888-48.0635-6.749-49.1094-6.3358-.5595-14.6591,1.4727-19.0623,6.0723C9.0393,24.5642,10.9974,49.2458,12.69,61.6765c3.2875.039,1.5033-.0772,4.8324.0009-.0482-2.9248,4.0213-16.9316,3.9712-19.8564,5.9207-.2373,5.1492-.36,11.07-.6016.192,3.0664,3.1372,17.3955,3.3311,20.4649,1.77.1474,2.8412-.1367,4.6083.0107" fill="#5e4228"/>
  <path d="M16.7133,28.0583v.9658c0,7.7207,4.7295,13.7715,10.77,13.7715s10.3145-5.252,9.7793-12.9541c-.2646-3.8223.1553-10.4443-4.6718-12.6875-4.5645-.63-9.99,2.5566-13.2286,4.2432-2.7129,1.5283-2.1757,5.8164-2.6484,6.6611" fill="#ffe6ba"/>
  <path d="M24.2533,36.904a6.375,6.375,0,0,0,6,0" fill="none" stroke="#000100" stroke-linecap="round" stroke-linejoin="round" stroke-width="2"/>
  <path d="M33.2123,28.4226a2,2,0,1,1-2-2,2.0014,2.0014,0,0,1,2,2" fill="#1d1d1b"/>
  <path d="M25.21,28.4226a2,2,0,1,1-2-2,2.0007,2.0007,0,0,1,2,2" fill="#1d1d1b"/>
  <path d="M33.2123,28.4226a2,2,0,1,1-2-2,2.0014,2.0014,0,0,1,2,2" fill="#000100"/>
  <path d="M25.21,28.4226a2,2,0,1,1-2-2,2.0007,2.0007,0,0,1,2,2" fill="#000100"/>
  <path d="M40.5512,60.654c1.9277-13.1582,1.875-47.2813-4.7285-48.6191-8.6387-1.751-20.0244,3.07-22.9278,9.4414C9.682,28.529,11.7719,48.98,12.808,60.695" fill="none" stroke="#000100" stroke-linecap="round" stroke-linejoin="round" stroke-width="2"/>
  <path d="M16.2533,29.654c0,8,5,14,11,14s9.837-5.8135,10.0108-13.8125C37.34,26.2,33.8988,17.3454,33.8988,17.3454S16.2543,16.32,16.2543,28.654l-.001,1Z" fill="none" stroke="#000100" stroke-linejoin="round" stroke-width="2"/>
  <path d="M21.8764,42.0739C21.311,45.8864,18.19,56.8474,17.6235,60.66" fill="none" stroke="#000100" stroke-linecap="round" stroke-linejoin="round" stroke-width="2"/>
  <path d="M32.5785,41.76c.2852,3.8437,3.0625,15.1269,3.3487,18.9707" fill="none" stroke="#000100" stroke-linecap="round" stroke-linejoin="round" stroke-width="2"/>
  <path d="M20.4848,47.988s7.2724,4.8642,13,0" fill="none" stroke="#000100" stroke-linecap="round" stroke-linejoin="round" stroke-width="1.8574"/>
</svg>
