<?xml version="1.0" encoding="utf-8"?>
<!-- Generator: Adobe Illustrator 16.0.4, SVG Export Plug-In . SVG Version: 6.00 Build 0)  -->
<!DOCTYPE svg PUBLIC "-//W3C//DTD SVG 1.1//EN" "http://www.w3.org/Graphics/SVG/1.1/DTD/svg11.dtd">
<svg version="1.1" id="Ebene_1" xmlns="http://www.w3.org/2000/svg" xmlns:xlink="http://www.w3.org/1999/xlink" x="0px" y="0px"
	 width="55px" height="65px" viewBox="0 0 55 65" enable-background="new 0 0 55 65" xml:space="preserve">
<path fill="#E37861" d="M8.9,65v-9.8c0-5,5.3-12.7,10.3-12.7c6,5,11.7,8.7,17.7,3.7c5,0,10,4,10,9V65H8.9z"/>
<path fill="#CD4D41" d="M37.5,43.4c-3.2,2.1-5,5.6-9.1,6.2C41.5,50,41.5,61,42.2,65h5.1C47.3,65,49.5,43.4,37.5,43.4"/>
<path fill="#FFE8BC" d="M21.4,40c-1,11.6,2.8,11.3,6.4,17c2.9-7.1,7.2-3.9,6.6-15.6"/>
<path fill="none" stroke="#000000" stroke-width="2" stroke-linecap="round" stroke-linejoin="round" d="M9,64v-9
	c0-5,5.1-14.8,10.1-14.8c0.8,0.6,2,6,2.6,7.9c1.8,5.8,4.4,5.4,6.3,8.9c2-3.7,5.5-4,6.1-10c0.2-2.2,2.4-5.7,3.3-6.4
	c5,0,9.7,9.5,9.7,14.4v9"/>
<path fill="#FCDCA4" d="M43.3,50.8c0.2-19.4,3-38-8.8-39.1c-6.3-0.6-14.6,1.5-19,6.1c-5.6,5.9-5.7,20.6-4,33c3.3,0,3.5-0.1,6.8,0
	c0-2.9,1.8-9.2,1.7-12.2c5.9-0.2,8.5,0.6,14.4,0.4c0.2,3.1,2.5,8.8,2.7,11.8C39,51,41.6,50.6,43.3,50.8"/>
<path fill="#FFE8BC" d="M17.5,27.2v1c0,7.7,4.7,13.8,10.8,13.8c6,0,10.3-5.2,9.8-13c-0.3-3.8-0.8-9.2-5.7-11.4
	c-4.6-0.6-7.6,1.6-10.9,3.2C18.8,22.3,18,26.3,17.5,27.2"/>
<path fill="none" stroke="#000000" stroke-width="2" stroke-linecap="round" stroke-linejoin="round" stroke-miterlimit="10" d="
	M25,36c1.9,1,4.1,1,6,0"/>
<path fill="#1C1C1B" d="M34,27.5c0,1.1-0.9,2-2,2c-1.1,0-2-0.9-2-2c0-1.1,0.9-2,2-2C33.1,25.5,34,26.4,34,27.5"/>
<path fill="#1C1C1B" d="M26,27.5c0,1.1-0.9,2-2,2c-1.1,0-2-0.9-2-2c0-1.1,0.9-2,2-2C25.1,25.5,26,26.4,26,27.5"/>
<path d="M34,27.5c0,1.1-0.9,2-2,2c-1.1,0-2-0.9-2-2c0-1.1,0.9-2,2-2C33.1,25.5,34,26.4,34,27.5"/>
<path d="M26,27.5c0,1.1-0.9,2-2,2c-1.1,0-2-0.9-2-2c0-1.1,0.9-2,2-2C25.1,25.5,26,26.4,26,27.5"/>
<path fill="none" stroke="#000000" stroke-width="2" stroke-linecap="round" stroke-linejoin="round" stroke-miterlimit="10" d="
	M43.3,50.8c2.7-18.3-0.9-38.4-6.7-39.6c-8.6-1.8-20,3.1-22.9,9.4c-3.2,7.1-3.1,18.5-2.1,30.2"/>
<path fill="none" stroke="#83674C" stroke-linecap="round" stroke-linejoin="round" stroke-miterlimit="10" d="M20.1,25.1l1.6-0.6
	c0,0,2.4-0.5,3.9,0"/>
<path fill="none" stroke="#83674C" stroke-linecap="round" stroke-linejoin="round" stroke-miterlimit="10" d="M35.4,25.1l-1.6-0.6
	c0,0-2.4-0.5-3.9,0"/>
<path fill="none" stroke="#000000" stroke-width="2" stroke-linejoin="round" d="M17,28.8c0,8,5,14,11,14S37.9,37,38,29
	c0.1-3.6-4.1-11.2-4.1-11.2s-17,0.3-17,10V28.8z"/>
<path fill="none" stroke="#000000" stroke-width="2" stroke-linecap="round" stroke-linejoin="round" stroke-miterlimit="10" d="
	M34.5,40.2c0.6,3.8,2.1,6.8,2.7,10.6"/>
<path fill="none" stroke="#000000" stroke-width="2" stroke-linecap="round" stroke-linejoin="round" stroke-miterlimit="10" d="
	M20.9,39.5c-0.6,3.8-2,7.4-2.5,11.2"/>
</svg>
