<?xml version="1.0" encoding="utf-8"?>
<!-- Generator: Adobe Illustrator 16.0.4, SVG Export Plug-In . SVG Version: 6.00 Build 0)  -->
<!DOCTYPE svg PUBLIC "-//W3C//DTD SVG 1.1//EN" "http://www.w3.org/Graphics/SVG/1.1/DTD/svg11.dtd">
<svg version="1.1" id="Ebene_1" xmlns="http://www.w3.org/2000/svg" xmlns:xlink="http://www.w3.org/1999/xlink" x="0px" y="0px"
	 width="55px" height="65px" viewBox="0 0 55 65" enable-background="new 0 0 55 65" xml:space="preserve">
<path fill="#FCDCA4" d="M30,9.3c0.2-0.4,3.5-2.1,9-2.1c3.8,0,5.3,6.4,5,10.4c-0.2,3.1-0.5,3.1-0.5,7.5c0,0.8,0.1,1.7,0.4,2.6
	c0.2,0.8,0.8,3.1,2.4,4.5c-1.4-0.3-3.2-1-4.6-2.9c-1.2-1.5-2.6-3.4-3.3-4.3"/>
<path fill="none" stroke="#000000" stroke-width="2" stroke-linecap="round" stroke-linejoin="round" stroke-miterlimit="10" d="
	M30,9.3c0.2-0.3,3.9-4.3,9-2.1c5.6,2.4,5.2,11.6,5.1,16c-0.1,3.4,1.1,6.4,2.3,8.2"/>
<path fill="#FCDCA4" d="M16.2,33.2C12,16.1,17.8,9.7,26.6,9.7c10,0,15.5,7.3,11.1,22.9"/>
<path fill="#1C1C1B" d="M32.5,27.3c0,1.1-0.9,2-2,2c-1.1,0-2-0.9-2-2c0-1.1,0.9-2,2-2C31.6,25.3,32.5,26.2,32.5,27.3"/>
<path fill="#1C1C1B" d="M24.5,27.3c0,1.1-0.9,2-2,2c-1.1,0-2-0.9-2-2c0-1.1,0.9-2,2-2C23.6,25.3,24.5,26.2,24.5,27.3"/>
<path fill="#FFE8BC" d="M15.6,28.3c-0.1,8,4.1,14,11,14c7.1,0,11.1-6,11.1-14c0-5-3-10-3-10c-8,0-10,3-16,1
	C18.7,19.3,15.7,23.3,15.6,28.3"/>
<path d="M32.5,27.3c0,1.1-0.9,2-2,2c-1.1,0-2-0.9-2-2c0-1.1,0.9-2,2-2C31.6,25.3,32.5,26.2,32.5,27.3"/>
<path d="M24.5,27.3c0,1.1-0.9,2-2,2c-1.1,0-2-0.9-2-2c0-1.1,0.9-2,2-2C23.6,25.3,24.5,26.2,24.5,27.3"/>
<path fill="none" stroke="#1D1D1B" stroke-width="2" stroke-linecap="round" stroke-linejoin="round" stroke-miterlimit="10" d="
	M15.6,31.4C11.4,17.3,18.1,9.6,26.9,9.6c10,0,14.8,6.3,10.5,21.9"/>
<path fill="none" stroke="#1C1C1B" stroke-width="2" stroke-linejoin="round" d="M15.6,28.3c-0.1,8,4.9,14,11,14
	c5.9,0,11.1-6,11.1-14c0-5-3-11-3-11c-8,0-10,3-16,1C18.7,18.3,15.7,23.3,15.6,28.3z"/>
<path fill="#FFFFFF" d="M7.4,65v-9.8c0-5,5-9,10-9c6,5,12,5,18,0c5,0,10,4,10,9V65H7.4z"/>
<path fill="#D7D8DE" d="M35.8,46c-3.2,2.1-4.9,3-8.9,3.6C39.9,50,39.9,61,40.7,65h5.1C45.8,65,47.8,46,35.8,46"/>
<path fill="#FFE8BC" d="M19.7,48.8c-0.7,6,5,6.6,6.8,10.1c2-3.7,7-4.1,6.6-10.1"/>
<path fill="none" stroke="#1D1D1B" stroke-width="2" stroke-linecap="round" stroke-linejoin="round" stroke-miterlimit="10" d="
	M19.7,48.8c-0.7,6,5,6.6,6.8,10.1c2-3.7,7-4.1,6.6-10.1"/>
<path fill="none" stroke="#1C1C1B" stroke-width="2" stroke-linecap="round" stroke-linejoin="round" d="M7.5,64v-9c0-5,5-9,10-9
	c6,5,12,5,18,0c5,0,10,4,10,9v9"/>
<path fill="none" stroke="#FCDCA4" stroke-linecap="round" stroke-linejoin="round" stroke-miterlimit="10" d="M19.4,24.7
	c0,0,0.6-1.1,1.1-1.3c0.9-0.4,2.4-0.5,3.9,0"/>
<path fill="none" stroke="#FCDCA4" stroke-linecap="round" stroke-linejoin="round" stroke-miterlimit="10" d="M33.5,24.7
	c0,0-0.6-1.1-1.1-1.3c-0.9-0.4-2.4-0.5-3.9,0"/>
<path fill="none" stroke="#000000" stroke-width="2" stroke-linecap="round" stroke-linejoin="round" d="M22.9,35.1
	c1.3,1.8,5.5,1.7,6.9,0"/>
</svg>
