<?xml version="1.0" encoding="utf-8"?>
<!-- Generator: Adobe Illustrator 23.0.2, SVG Export Plug-In . SVG Version: 6.00 Build 0)  -->
<svg version="1.1" id="Ebene_1" xmlns="http://www.w3.org/2000/svg" xmlns:xlink="http://www.w3.org/1999/xlink" x="0px" y="0px"
	 viewBox="0 0 55 65" style="enable-background:new 0 0 55 65;" xml:space="preserve">
<style type="text/css">
	.st0{display:none;}
	.st1{display:inline;opacity:0.2;}
	.st2{fill:#1E1E1C;}
	.st3{fill:#1B3E72;}
	.st4{fill:#F9AE00;}
	.st5{fill:#FFE7BB;}
	.st6{fill:none;stroke:#010101;stroke-width:2;stroke-linecap:round;stroke-linejoin:round;}
	.st7{fill:#5E4229;}
	.st8{fill:none;stroke:#010101;stroke-width:2;stroke-linecap:round;stroke-linejoin:round;stroke-miterlimit:10;}
	.st9{fill:#1D1D1C;}
	.st10{fill:#010101;}
	.st11{fill:none;stroke:#010101;stroke-width:2;stroke-linejoin:round;}
	.st12{fill:none;stroke:#010101;stroke-width:1.8574;stroke-linecap:round;stroke-linejoin:round;}
	.st13{fill:none;stroke:#010101;stroke-linecap:round;stroke-linejoin:round;stroke-miterlimit:10;}
</style>
<g class="st0">
	<g class="st1">
		<path class="st2" d="M291.9,119.5v64h-64v-64H291.9 M295.9,115.5h-4h-64h-4v4v64v4h4h64h4v-4v-64V115.5L295.9,115.5z"/>
	</g>
</g>
<polygon class="st3" points="253.9,161.5 257.9,161.5 263.9,161.9 268.9,162.5 267.9,168.5 262.9,172.5 256.9,173.5 252.9,167.5
	252.7,161.7 "/>
<path class="st4" d="M240.6,177.5v-9.8c0-5,5-9,10-9c6,5,12,5,18,0c5,0,10,4,10,9v9.8H240.6z"/>
<path class="st4" d="M269.1,158.5c-3.2,2.1-4.9,3-8.9,3.6c13.1,0.4,13.1,11.4,13.8,15.4h5.1C279.1,177.5,281.1,158.5,269.1,158.5"/>
<path class="st5" d="M251.3,153.6c-1,11,4.2,4.6,7.6,10c6-4,11,2,13-7"/>
<path class="st6" d="M266.1,160.4c0.9-0.5,1.7-1.1,2.6-1.9c5,0,10,4,10,9v9"/>
<path class="st6" d="M259.7,171.5"/>
<path class="st6" d="M240.7,176.5v-9c0-5,5-9,10-9c0.8,0.6,1.5,1.2,2.2,1.6"/>
<path class="st7" d="M273.9,174.2c0.2-19.4,5.3-48.1-7-49.1c-6.5-0.6-15.1,1.5-19.7,6.1c-5.8,5.9-3.8,30.6-2.1,43c3.4,0,1.6-0.1,5,0
	c0-2.9,4.2-16.9,4.1-19.9c6.1-0.2,5.3-0.4,11.4-0.6c0.2,3.1,3.2,17.4,3.4,20.5C270.9,174.4,272,174.1,273.9,174.2"/>
<path class="st5" d="M249.1,140.6v1c0,7.7,4.7,13.8,10.8,13.8c6,0,10.3-5.3,9.8-13c-0.3-3.8,0.2-10.4-4.7-12.7
	c-4.6-0.6-10,2.6-13.2,4.2C249,135.5,249.6,139.7,249.1,140.6"/>
<path class="st8" d="M256.6,149.4c1.9,1,4.1,1,6,0"/>
<path class="st9" d="M265.6,141c0,1.1-0.9,2-2,2c-1.1,0-2-0.9-2-2c0-1.1,0.9-2,2-2C264.7,139,265.6,139.9,265.6,141"/>
<path class="st9" d="M257.6,141c0,1.1-0.9,2-2,2c-1.1,0-2-0.9-2-2c0-1.1,0.9-2,2-2C256.7,139,257.6,139.9,257.6,141"/>
<path class="st10" d="M265.6,141c0,1.1-0.9,2-2,2c-1.1,0-2-0.9-2-2c0-1.1,0.9-2,2-2C264.7,139,265.6,139.9,265.6,141"/>
<path class="st10" d="M257.6,141c0,1.1-0.9,2-2,2c-1.1,0-2-0.9-2-2c0-1.1,0.9-2,2-2C256.7,139,257.6,139.9,257.6,141"/>
<path class="st8" d="M272.9,173.2c1.9-13.2,1.9-47.3-4.7-48.6c-8.6-1.8-20,3.1-22.9,9.4c-3.2,7.1-1.1,27.5-0.1,39.2"/>
<path class="st11" d="M248.6,142.2c0,8,5,14,11,14c6,0,9.8-5.8,10-13.8c0.1-3.6-3.4-12.5-3.4-12.5s-17.6-1-17.6,11.3L248.6,142.2
	L248.6,142.2z"/>
<path class="st8" d="M254.3,154.6c-0.6,3.8-3.7,14.8-4.3,18.6"/>
<path class="st8" d="M265,154.3c0.3,3.8,3.1,15.1,3.3,19"/>
<path class="st12" d="M252.9,160.5c0,0,7.3,4.9,13,0"/>
<path class="st13" d="M250.4,140"/>
<path class="st13" d="M258.4,142"/>
<path class="st13" d="M254.4,138"/>
<path class="st13" d="M250.4,142"/>
</svg>
