<?xml version="1.0" encoding="utf-8"?>
<!-- Generator: Adobe Illustrator 16.0.4, SVG Export Plug-In . SVG Version: 6.00 Build 0)  -->
<!DOCTYPE svg PUBLIC "-//W3C//DTD SVG 1.1//EN" "http://www.w3.org/Graphics/SVG/1.1/DTD/svg11.dtd">
<svg version="1.1" id="Ebene_1" xmlns="http://www.w3.org/2000/svg" xmlns:xlink="http://www.w3.org/1999/xlink" x="0px" y="0px"
	 width="55px" height="65px" viewBox="0 0 55 65" enable-background="new 0 0 55 65" xml:space="preserve">
<path fill="#AAAFB5" d="M7.8,65v-9.8c0-5,5.3-12.7,10.3-12.7c6,5,11.7,8.7,17.7,3.7c5,0,10,4,10,9V65H7.8z"/>
<path fill="#5A5E5F" d="M36.3,46c-3.2,2.1-4.9,3-8.9,3.6C40.4,50,40.4,61,41.2,65h5.1C46.3,65,48.3,46,36.3,46"/>
<path fill="#FFE8BC" d="M20.8,40.9c-1,11,2.7,10.7,6.2,16.1c2.8-6.8,9.4-3.9,8.9-14.9"/>
<path fill="none" stroke="#000000" stroke-width="2" stroke-linecap="round" stroke-linejoin="round" d="M8,64v-9
	c0-5,5.1-14.8,10.1-14.8c0.8,0.6,2,6,2.6,7.9c1.8,5.8,4.4,5.4,6.3,8.9c2-3.7,5.5-4,6.1-10c0.2-2.2,2.4-5.7,3.3-6.4
	c5,0,9.7,9.5,9.7,14.4v9"/>
<path fill="#83674C" d="M30.9,39.8c4.2,2.6,1.9,8.8,3.6,10.7c4.5,4.8,2.7,9.4,1.6,10.8c5.6-1.2,4.1-9.8,4.1-10.1
	c2.2,3.2,1.4,6,2.3,8.4c0.2-2.7,3.9-7.8,3-12.4c-1-5.1-1.4-10.3-1.8-12.3C40.3,17.6,38,10.8,28.6,10.5c-14-0.5-16.4,8.2-17.7,14.9
	c-1.3,6.5-1.4,9.5-3.7,15.5c-0.6,1.5,2.4,8.7,0.7,11.9c-0.6,1-1.5,2.5-1.4,4.6c0.1,1.1,0,2.4,0.7,2.5c1.8,0.3,3.5,0.3,5.4,0.3
	c-0.6-1.1,3.6-4.5,3.6-10.3c0-5,8-8.4,10.8-8.5"/>
<path fill="#FFE8BC" d="M18.5,21.3l-1.9,8.4c0,7.7,4.2,11.7,10.3,11.7c6,0,9.8-6.2,9.8-13.9c0-4.7-3.8-13.5-9.9-12.2
	C20.8,16.3,19,20.4,18.5,21.3"/>
<path fill="none" stroke="#000000" stroke-width="2" stroke-linecap="round" stroke-linejoin="round" d="M16.4,29
	c0.3,5.3,1.2,6.9,3.5,9.6c2.2,2.7,4.5,3.6,6.8,3.6c2.3,0,6.2-2.6,7.4-4c1.8-2.2,2.5-6.5,2.5-9.6"/>
<path fill="none" stroke="#000000" stroke-width="2" stroke-linecap="round" stroke-linejoin="round" stroke-miterlimit="10" d="
	M42.5,59.6c1.9-3,4-12.6,2.4-17.8c-2.9-9.4-2.1-31.6-19.3-31.6c-15,0-14.3,16.7-17.5,28.2C6.8,43,8.9,50.2,7.9,52.7
	c-1.4,3.4-1.4,5.5-0.7,7"/>
<path fill="#1C1C1B" d="M32.6,27c0,1.1-0.9,2-2,2c-1.1,0-2-0.9-2-2c0-1.1,0.9-2,2-2C31.8,25,32.6,25.9,32.6,27"/>
<path fill="#1C1C1B" d="M24.6,27c0,1.1-0.9,2-2,2c-1.1,0-2-0.9-2-2c0-1.1,0.9-2,2-2C23.8,25,24.6,25.9,24.6,27"/>
<path d="M32.6,27c0,1.1-0.9,2-2,2c-1.1,0-2-0.9-2-2c0-1.1,0.9-2,2-2C31.8,25,32.6,25.9,32.6,27"/>
<path d="M24.6,27c0,1.1-0.9,2-2,2c-1.1,0-2-0.9-2-2c0-1.1,0.9-2,2-2C23.8,25,24.6,25.9,24.6,27"/>
<path fill="none" stroke="#000000" stroke-width="2" stroke-linecap="round" stroke-linejoin="round" stroke-miterlimit="10" d="
	M24.4,42.1c-3.3,2.3-9.8,5.1-9.3,10.9c0.3,3.4-1,5.4-2.5,7.2"/>
<path fill="none" stroke="#000000" stroke-width="2" stroke-linecap="round" stroke-linejoin="round" stroke-miterlimit="10" d="
	M31.3,40.8c2.7,3.2,1.2,8.1,3,10c4.5,4.8,2.6,8.4,1.5,9.8"/>
<path fill="none" stroke="#83674C" stroke-linecap="round" stroke-linejoin="round" stroke-miterlimit="10" d="M18.7,23.7
	c0,0,1.2-0.6,1.6-0.6c1-0.1,2.4,0.3,3.9,0.8"/>
<path fill="none" stroke="#83674C" stroke-linecap="round" stroke-linejoin="round" stroke-miterlimit="10" d="M34.6,23.7
	c0,0-1.2-0.6-1.6-0.6c-1-0.1-2.4,0.2-3.9,0.8"/>
<path fill="none" stroke="#000000" stroke-width="2" stroke-linecap="round" stroke-linejoin="round" d="M25.7,14.8
	c10.9,1.1,6.5,4,12.5,17.7"/>
<path fill="none" stroke="#000000" stroke-width="2" stroke-linecap="round" stroke-linejoin="round" stroke-miterlimit="10" d="
	M23.7,36c1.9,1,4.1,1,6,0"/>
<path fill="none" stroke="#000000" stroke-width="2" stroke-linecap="round" stroke-linejoin="round" d="M25.7,14.8
	C17.4,16.1,18.8,27,14.1,32"/>
</svg>
