<svg id="Ebene_2" data-name="Ebene 2" xmlns="http://www.w3.org/2000/svg" viewBox="0 0 55 65">
  <title>tonia_reinhardt</title>
  <g id="line">
    <g id="emoji-2">
      <path d="M6.7367,64.8938S4.6479,46.8257,17.1807,46.8257c3.3421,2.82,6.162,4.7,9.4,4.7h-.1044c3.2376,0,5.7442-2.82,9.0862-5.64,14.4128,0,11.1751,19.008,11.1751,19.008" fill="#d0cfce"/>
      <path d="M35.5935,45.8858c-3.3421,2.82-5.8487,5.64-8.9818,5.64h-.2089v.8356c13.6816.5222,13.6816,7.3107,14.4127,12.5327h5.953S49.7973,45.99,35.5935,45.8858Z" fill="#9b9b9a"/>
      <path d="M20.1364,50.3767s.4177,6.2664,6.58,7.2063h.2089c6.1619-1.0443,7.1019-7.1019,7.1019-7.1019" fill="#efd4a8"/>
      <path d="M46.4239,64.9983h-.1253a1.0445,1.0445,0,0,1-.9191-1.1489h0c0-.0835,1.0444-8.8147-2.9765-13.3056a8.084,8.084,0,0,0-6.0576-2.705c-3.4256,2.8617-6.2663,4.6371-9.6189,4.6894H26.58c-3.3421,0-6.1828-1.8277-9.6189-4.6894a8.0733,8.0733,0,0,0-6.0471,2.6423C6.9352,54.972,7.9274,63.7032,7.9378,63.7868a1.0525,1.0525,0,0,1-2.0888.2611c-.0627-.3969-1.1384-9.7443,3.4674-14.9558a10.1724,10.1724,0,0,1,8-3.3421,1.0446,1.0446,0,0,1,.6789.2507c3.2376,2.7363,5.8173,4.4282,8.6685,4.4491s5.4308-1.7128,8.6789-4.4491a1.0447,1.0447,0,0,1,.6684-.2507,10.1412,10.1412,0,0,1,8,3.3525c4.6058,5.222,3.53,14.5589,3.4779,14.9558A1.0445,1.0445,0,0,1,46.4239,64.9983Z"/>
      <path d="M27.0085,58.6379h-.4491c-5.6084-.8355-7.4779-6.59-7.6763-9.5249l2.0888-.1462c0,.2819.5431,6.7468,5.8277,7.6032h0c5.222-.9609,5.8382-7.5406,5.8382-7.6137l2.0888.1776c-.24,2.8825-2.1514,8.5745-7.6554,9.504Z"/>
      <path d="M32.5856,27.0762a6.2742,6.2742,0,0,0,.7415-.5222" fill="none" stroke="#000" stroke-linecap="round" stroke-linejoin="round"/>
      <path d="M33.2123,27.9952a8.4157,8.4157,0,0,0,.8877-.2089" fill="none" stroke="#000" stroke-linecap="round" stroke-linejoin="round"/>
      <path d="M29.8806,12.1s5.0549-4.5954,8.2821-2.4961,5.128,6.8408,5.128,16.5432,4.9609,14.1516,4.9609,14.1516.5326.6267-.1358.9191c-8.46-.6893-8.46-15.8331-9.8487-20.2613-1.2428-4.0732-4.5535-4.46-4.6058-4.2925" fill="#f1b31c"/>
      <path d="M29.2122,12.6739S39.7606,2.7,42.9878,15.5147a23.8275,23.8275,0,0,1,.3342,2.8512c.1149,2.59-.5326,10.8408,1.4517,15.3213a67.7626,67.7626,0,0,0,3.1332,6.5066" fill="none" stroke="#000" stroke-linecap="round" stroke-linejoin="round" stroke-width="2"/>
      <ellipse cx="26.6639" cy="28.5905" rx="11.9061" ry="15.4571" fill="#efd4a8"/>
      <path d="M33.066,28.9039a2.0888,2.0888,0,1,1-2.0888-2.0888,2.0888,2.0888,0,0,1,2.0888,2.0888"/>
      <path d="M24.7944,29.165a2.0888,2.0888,0,1,1-2.0888-2.0888,2.0888,2.0888,0,0,1,2.0888,2.0888"/>
      <path d="M26.8205,38.6794a7.1956,7.1956,0,0,1-3.5509-.94,1.0468,1.0468,0,0,1,.4261-2.05l.0125.0026a1.0442,1.0442,0,0,1,.5013.2716,5.3789,5.3789,0,0,0,5.3265,0,1.0444,1.0444,0,0,1,.94,1.7755A7.8326,7.8326,0,0,1,26.8205,38.6794Z"/>
      <path d="M26.7161,44.9563c-7.1437,0-12.9506-7.4048-12.9506-16.512s5.8069-16.5015,12.9506-16.5015,12.94,7.4048,12.94,16.5015S33.8911,44.9563,26.7161,44.9563Zm0-30.9142c-5.9844,0-10.8618,6.4648-10.8618,14.4022S20.7317,42.857,26.7161,42.857,37.5674,36.35,37.5674,28.4443,32.7,14.0421,26.7161,14.0421Z"/>
      <path d="M20.0842,27.0135a3.2166,3.2166,0,0,1,4.5213-.502l.0009.0007a3.1313,3.1313,0,0,1,.6058.6371" fill="none" stroke="#a57939" stroke-linecap="round" stroke-linejoin="round"/>
      <path d="M26.7161,12.9872a15.24,15.24,0,0,0-3.5092.376c-1.6293.3655-4.8773.7311-6.2142,2.6214a17.5483,17.5483,0,0,0-2.4021,5.3369c-.8355,2.5379-.8042,5.5876.3029,9.6712.3969-.93,4.93-10.444,9.5562-10.3187,2.36.0835,6.5171,0,8.4388.6684,2.3812.8042,5.8486,6.4126,5.6711,5.222S37.5674,14.0421,26.7161,12.9872Z" fill="#f1b31c" stroke="#000" stroke-linecap="round" stroke-linejoin="round" stroke-width="2"/>
      <path d="M16.6794,27.473s-3.1332,5.222-3.4674,9.055" fill="none" stroke="#000" stroke-linecap="round" stroke-linejoin="round" stroke-width="2"/>
      <path d="M33.7867,27.2119a3.2063,3.2063,0,0,0-4.4312-.962l-.018.0116a3.4844,3.4844,0,0,0-.6684.5744" fill="none" stroke="#a57939" stroke-linecap="round" stroke-linejoin="round"/>
      <path d="M21.9536,29.1963s-.8042-.1567-2.2768-.5222" fill="none" stroke="#000" stroke-linecap="round" stroke-linejoin="round"/>
      <path d="M22.5907,29.4887s-.7833.24-2.2663.5953" fill="none" stroke="#000" stroke-linecap="round" stroke-linejoin="round"/>
      <path d="M31.7188,29.04s.8146-.1044,2.3185-.376" fill="none" stroke="#000" stroke-linecap="round" stroke-linejoin="round"/>
      <path d="M31.0712,29.2381s.7729.2924,2.2246.7415" fill="none" stroke="#000" stroke-linecap="round" stroke-linejoin="round"/>
    </g>
  </g>
</svg>
