<svg id="emoji" xmlns="http://www.w3.org/2000/svg" viewBox="0 0 72 72"><defs><style>.cls-1{fill:#d0cfce;}.cls-2{fill:#9b9b9a;}.cls-3{fill:#efd4a8;}.cls-4,.cls-6,.cls-7{fill:none;}.cls-4,.cls-6,.cls-8{stroke:#000;}.cls-4,.cls-6,.cls-7,.cls-8{stroke-linecap:round;stroke-linejoin:round;}.cls-5,.cls-8{fill:#f1b31c;}.cls-6,.cls-8{stroke-width:2px;}.cls-7{stroke:#a57939;}</style></defs><title>Zeichenfläche 19</title><g id="line"><g id="emoji-2" data-name="emoji"><path class="cls-1" d="M15.48,62.33s-2-17.3,10-17.3c3.2,2.7,5.9,4.5,9,4.5h-.1c3.1,0,5.5-2.7,8.7-5.4,13.8,0,10.7,18.2,10.7,18.2"/><path class="cls-2" d="M43.11,44.13c-3.2,2.7-5.6,5.4-8.6,5.4h-.2v.8c13.1.5,13.1,7,13.8,12h5.7S56.71,44.23,43.11,44.13Z"/><path class="cls-3" d="M28.31,48.43s.4,6,6.3,6.9h.2c5.9-1,6.8-6.8,6.8-6.8"/><path d="M53.48,62.43h-.12a1,1,0,0,1-.88-1.1v0c0-.08,1-8.44-2.85-12.74A7.74,7.74,0,0,0,43.83,46c-3.28,2.74-6,4.44-9.21,4.49h-.14c-3.2,0-5.92-1.75-9.21-4.49a7.73,7.73,0,0,0-5.79,2.53c-3.81,4.3-2.86,12.66-2.85,12.74a1,1,0,1,1-2,.25c-.06-.38-1.09-9.33,3.32-14.32A9.74,9.74,0,0,1,25.61,44a1,1,0,0,1,.65.24c3.1,2.62,5.57,4.24,8.3,4.26s5.2-1.64,8.31-4.26a1,1,0,0,1,.64-.24,9.71,9.71,0,0,1,7.66,3.21c4.41,5,3.38,13.94,3.33,14.32A1,1,0,0,1,53.48,62.43Z"/><path d="M34.89,56.34h-.43c-5.37-.8-7.16-6.31-7.35-9.12l2-.14c0,.27.52,6.46,5.58,7.28h0c5-.92,5.59-7.22,5.59-7.29l2,.17c-.23,2.76-2.06,8.21-7.33,9.1Z"/><path class="cls-4" d="M40.23,26.12a6,6,0,0,0,.71-.5"/><path class="cls-4" d="M40.83,27a8.08,8.08,0,0,0,.85-.2"/><path class="cls-5" d="M37.64,11.78s4.84-4.4,7.93-2.39,4.91,6.55,4.91,15.84,4.75,13.55,4.75,13.55.51.6-.13.88C47,39,47,24.5,45.67,20.26c-1.19-3.9-4.36-4.27-4.41-4.11"/><path class="cls-6" d="M37,12.33s10.1-9.55,13.19,2.72a22.83,22.83,0,0,1,.32,2.73c.11,2.48-.51,10.38,1.39,14.67a64.85,64.85,0,0,0,3,6.23"/><ellipse class="cls-3" cx="34.56" cy="27.57" rx="11.4" ry="14.8"/><path d="M40.69,27.87a2,2,0,1,1-2-2,2,2,0,0,1,2,2"/><path d="M32.77,28.12a2,2,0,1,1-2-2,2,2,0,0,1,2,2"/><path d="M34.71,37.23a6.89,6.89,0,0,1-3.4-.9,1,1,0,0,1-.77-1.18,1,1,0,0,1,1.19-.78,1,1,0,0,1,.48.26,5.15,5.15,0,0,0,5.1,0,1,1,0,0,1,.9,1.7A7.5,7.5,0,0,1,34.71,37.23Z"/><path d="M34.61,43.24c-6.84,0-12.4-7.09-12.4-15.81s5.56-15.8,12.4-15.8S47,18.72,47,27.43,41.48,43.24,34.61,43.24Zm0-29.6c-5.73,0-10.4,6.19-10.4,13.79s4.67,13.8,10.4,13.8S45,35,45,27.43,40.34,13.64,34.61,13.64Z"/><path class="cls-7" d="M28.26,26.06a3.08,3.08,0,0,1,4.33-.48,3,3,0,0,1,.58.61"/><path class="cls-8" d="M34.61,12.63a14.59,14.59,0,0,0-3.36.36c-1.56.35-4.67.7-5.95,2.51A16.8,16.8,0,0,0,23,20.61c-.8,2.43-.77,5.35.29,9.26.38-.89,4.72-10,9.15-9.88,2.26.08,6.24,0,8.08.64,2.28.77,5.6,6.14,5.43,5S45,13.64,34.61,12.63Z"/><path class="cls-6" d="M25,26.5s-3,5-3.32,8.67"/><path class="cls-7" d="M41.38,26.25a3.07,3.07,0,0,0-4.26-.91,3.33,3.33,0,0,0-.64.55"/><path class="cls-4" d="M30.05,28.15s-.77-.15-2.18-.5"/><path class="cls-4" d="M30.66,28.43s-.75.23-2.17.57"/><path class="cls-4" d="M39.4,28s.78-.1,2.22-.36"/><path class="cls-4" d="M38.78,28.19s.74.28,2.13.71"/></g></g></svg>