<?xml version="1.0" encoding="utf-8"?>
<!-- Generator: Adobe Illustrator 16.0.4, SVG Export Plug-In . SVG Version: 6.00 Build 0)  -->
<!DOCTYPE svg PUBLIC "-//W3C//DTD SVG 1.1//EN" "http://www.w3.org/Graphics/SVG/1.1/DTD/svg11.dtd">
<svg version="1.1" id="Ebene_1" xmlns="http://www.w3.org/2000/svg" xmlns:xlink="http://www.w3.org/1999/xlink" x="0px" y="0px"
	 width="55px" height="65px" viewBox="0 0 55 65" enable-background="new 0 0 55 65" xml:space="preserve">
<path fill="#FFFFFF" d="M8.2,65v-9.8c0-5,5-9,10-9c6,5,12,5,18,0c5,0,10,4,10,9V65H8.2z"/>
<path fill="#D7D8DE" d="M36.7,46c-3.2,2.1-4.9,3-8.9,3.6C40.8,50,40.8,61,41.6,65h5.1C46.7,65,48.7,46,36.7,46"/>
<path fill="#FFE8BC" d="M18.9,41c-1,11,5,13,8.4,18.3c2.8-6.8,9.4-6.3,8.9-17.3"/>
<path fill="none" stroke="#000000" stroke-width="2" stroke-linecap="round" stroke-linejoin="round" d="M8.4,64v-9c0-5,5-9,10-9
	c0.8,0.6,1.5,1.2,2.3,1.6l-0.1,1.2c-0.7,6,5,6.6,6.8,10.2c2-3.7,7-4.1,6.6-10.2l-0.2-1c0.9-0.5,1.7-1.1,2.6-1.9c5,0,10,4,10,9v9"/>
<path fill="#68492D" d="M40.6,60.7c0.2-19.4,5-47-6.8-48.1c-6.3-0.6-14.6,1.5-19,6.1c-5.6,5.9-3.7,29.6-2,42c3.3,0,2.5-0.1,5.8,0
	c0-2.9,3-16,3-18.9c5.9-0.2,5.1-0.4,11-0.6c0.2,3.1,3.6,16.4,3.8,19.5C38.2,60.9,38.8,60.5,40.6,60.7"/>
<path fill="#FFE8BC" d="M16.7,28.1v1c0,7.7,4.7,13.8,10.8,13.8c6,0,10.3-5.2,9.8-13C37,26,37.4,19.4,32.6,17.2
	c-4.6-0.6-10,2.6-13.2,4.2C16.6,22.9,17.2,27.2,16.7,28.1"/>
<path fill="none" stroke="#000000" stroke-width="2" stroke-linecap="round" stroke-linejoin="round" stroke-miterlimit="10" d="
	M24.3,36.9c1.9,1,4.1,1,6,0"/>
<path fill="#1C1C1B" d="M33.2,28.4c0,1.1-0.9,2-2,2c-1.1,0-2-0.9-2-2c0-1.1,0.9-2,2-2C32.3,26.4,33.2,27.3,33.2,28.4"/>
<path fill="#1C1C1B" d="M25.2,28.4c0,1.1-0.9,2-2,2c-1.1,0-2-0.9-2-2c0-1.1,0.9-2,2-2C24.3,26.4,25.2,27.3,25.2,28.4"/>
<path d="M33.2,28.4c0,1.1-0.9,2-2,2c-1.1,0-2-0.9-2-2c0-1.1,0.9-2,2-2C32.3,26.4,33.2,27.3,33.2,28.4"/>
<path d="M25.2,28.4c0,1.1-0.9,2-2,2c-1.1,0-2-0.9-2-2c0-1.1,0.9-2,2-2C24.3,26.4,25.2,27.3,25.2,28.4"/>
<path fill="none" stroke="#000000" stroke-width="2" stroke-linecap="round" stroke-linejoin="round" stroke-miterlimit="10" d="
	M40.6,60.7c1.9-13.2,1.9-47.3-4.7-48.6c-8.6-1.8-20,3.1-22.9,9.4c-3.2,7.1-1.1,27.5-0.1,39.2"/>
<path fill="none" stroke="#83674C" stroke-linecap="round" stroke-linejoin="round" stroke-miterlimit="10" d="M19.4,25l1.6-0.6
	c0,0,2.4-0.5,3.9,0"/>
<path fill="none" stroke="#83674C" stroke-linecap="round" stroke-linejoin="round" stroke-miterlimit="10" d="M34.6,25L33,24.4
	c0,0-2.4-0.5-3.9,0"/>
<path fill="none" stroke="#000000" stroke-width="2" stroke-linejoin="round" d="M16.3,29.7c0,8,5,14,11,14s9.8-5.8,10-13.8
	c0.1-3.6-3.4-12.5-3.4-12.5s-17.6-1-17.6,11.3V29.7z"/>
<path fill="none" stroke="#000000" stroke-width="2" stroke-linecap="round" stroke-linejoin="round" stroke-miterlimit="10" d="
	M21.9,42.1c-0.6,3.8-3.7,14.8-4.3,18.6"/>
<path fill="none" stroke="#000000" stroke-width="2" stroke-linecap="round" stroke-linejoin="round" stroke-miterlimit="10" d="
	M32.6,41.8c0.3,3.8,3.1,15.1,3.3,19"/>
</svg>
