<?xml version="1.0" encoding="utf-8"?>
<!-- Generator: Adobe Illustrator 16.0.4, SVG Export Plug-In . SVG Version: 6.00 Build 0)  -->
<!DOCTYPE svg PUBLIC "-//W3C//DTD SVG 1.1//EN" "http://www.w3.org/Graphics/SVG/1.1/DTD/svg11.dtd">
<svg version="1.1" id="Ebene_1" xmlns="http://www.w3.org/2000/svg" xmlns:xlink="http://www.w3.org/1999/xlink" x="0px" y="0px"
	 width="55px" height="65px" viewBox="0 0 55 65" enable-background="new 0 0 55 65" xml:space="preserve">
<path fill="#AAAFB5" d="M9.019,64.963v-9.834c0-4.994,5.333-12.699,10.324-12.699c6,5,11.676,8.699,17.676,3.699
	c4.993,0,10,4.006,10,9v9.834H9.019z"/>
<path fill="#5A5E5F" d="M37.481,46c-3.171,2.113-4.875,3-8.938,3.588C41.606,50,41.606,61,42.368,65h5.113
	C47.481,65,49.481,46,37.481,46"/>
<path fill="#FFE8BC" d="M21.982,40.869c-0.958,11.031,2.734,10.736,6.169,16.094c2.796-6.756,9.423-3.879,8.895-14.908"/>
<path fill="none" stroke="#000000" stroke-width="2" stroke-linecap="round" stroke-linejoin="round" d="M9.172,64.006v-9
	c0-4.994,5.109-14.791,10.103-14.791c0.75,0.625,1.979,5.967,2.58,7.859c1.845,5.799,4.442,5.371,6.317,8.889
	c1.968-3.703,5.513-3.975,6.068-10.006c0.2-2.166,2.401-5.676,3.27-6.398c4.994,0,9.662,9.453,9.662,14.447v9"/>
<path fill="#83674C" d="M32.074,39.771c4.246,2.59,1.853,8.773,3.645,10.664c4.537,4.785,2.702,9.441,1.606,10.773
	c5.585-1.238,4.136-9.816,4.115-10.074c2.15,3.164,1.382,5.998,2.266,8.428c0.246-2.656,3.935-7.814,3.019-12.354
	c-1.027-5.092-1.359-10.311-1.754-12.258c-3.497-17.318-5.768-24.142-15.127-24.492c-14-0.52-16.411,8.214-17.727,14.896
	c-1.289,6.543-1.439,9.521-3.741,15.451c-0.572,1.473,2.417,8.672,0.675,11.939c-0.561,1.049-1.462,2.545-1.354,4.598
	c0.058,1.082-0.004,3.324,0.615,3.438c1.828,0.328,3.562,0.428,5.47,0.428c-0.563-1.096,3.562-5.559,3.562-11.309
	c0-5.023,8.048-8.441,10.771-8.539"/>
<path fill="#FFE8BC" d="M19.699,21.293l-1.873,8.377c0,7.72,4.25,11.691,10.29,11.691c6.038,0,9.762-6.203,9.762-13.923
	c0-4.697-3.791-13.535-9.915-12.238C21.963,16.298,20.172,20.449,19.699,21.293"/>
<path fill="none" stroke="#000000" stroke-width="2" stroke-linecap="round" stroke-linejoin="round" d="M17.621,28.99
	c0.287,5.262,1.234,6.872,3.467,9.633c2.22,2.744,4.548,3.596,6.798,3.596c2.283,0,6.179-2.59,7.358-4.016
	c1.846-2.234,2.51-6.474,2.476-9.623"/>
<path fill="none" stroke="#000000" stroke-width="2" stroke-linecap="round" stroke-linejoin="round" stroke-miterlimit="10" d="
	M43.706,59.562c1.868-3.029,4.03-12.574,2.403-17.779c-2.925-9.365-2.087-31.592-19.264-31.592
	c-15.034,0-14.258,16.743-17.494,28.176c-1.309,4.627,0.734,11.869-0.302,14.379c-1.401,3.395-1.358,5.459-0.692,7.016"/>
<path fill="#1C1C1B" d="M33.844,26.99c0,1.104-0.896,2-2,2c-1.104,0-2-0.896-2-2c0-1.104,0.896-2,2-2
	C32.947,24.99,33.844,25.885,33.844,26.99"/>
<path fill="#1C1C1B" d="M25.844,26.99c0,1.104-0.896,2-2,2c-1.104,0-2-0.896-2-2c0-1.104,0.896-2,2-2
	C24.947,24.99,25.844,25.885,25.844,26.99"/>
<path d="M33.844,26.99c0,1.104-0.896,2-2,2c-1.104,0-2-0.896-2-2c0-1.104,0.896-2,2-2C32.947,24.99,33.844,25.885,33.844,26.99"/>
<path d="M25.844,26.99c0,1.104-0.896,2-2,2c-1.104,0-2-0.896-2-2c0-1.104,0.896-2,2-2C24.947,24.99,25.844,25.885,25.844,26.99"/>
<path fill="none" stroke="#000000" stroke-width="2" stroke-linecap="round" stroke-linejoin="round" stroke-miterlimit="10" d="
	M25.615,42.072c-3.252,2.318-9.837,5.131-9.317,10.912c0.308,3.42-1.028,5.379-2.516,7.215"/>
<path fill="none" stroke="#000000" stroke-width="2" stroke-linecap="round" stroke-linejoin="round" stroke-miterlimit="10" d="
	M32.482,40.76c2.652,3.242,1.244,8.076,3.035,9.967c4.537,4.785,2.556,8.43,1.459,9.762"/>
<path fill="none" stroke="#83674C" stroke-linecap="round" stroke-linejoin="round" stroke-miterlimit="10" d="M19.857,23.664
	c0,0,1.175-0.571,1.602-0.606c1-0.081,2.426,0.29,3.873,0.85"/>
<path fill="none" stroke="#83674C" stroke-linecap="round" stroke-linejoin="round" stroke-miterlimit="10" d="M35.795,23.664
	c0,0-1.177-0.571-1.604-0.606c-1-0.081-2.426,0.24-3.872,0.8"/>
<path fill="none" stroke="#000000" stroke-width="2" stroke-linecap="round" stroke-linejoin="round" d="M26.846,14.809
	c10.924,1.107,6.541,4.031,12.507,17.669"/>
<path fill="none" stroke="#990033" stroke-width="2" stroke-linecap="round" stroke-linejoin="round" stroke-miterlimit="10" d="
	M24.853,36.025c1.875,1,4.125,1,6,0"/>
<path fill="none" stroke="#000000" stroke-width="2" stroke-linecap="round" stroke-linejoin="round" d="M26.846,14.809
	c-8.224,1.276-6.825,12.164-11.543,17.206"/>
</svg>
