<svg id="Ebene_2" data-name="Ebene 2" xmlns="http://www.w3.org/2000/svg" viewBox="0 0 55 65">
  <title>vincent_seitz</title>
  <path d="M17.5875,35.8876c-1.9-6.9-1.9-8.7-2.9-14.5-1.1-5.8,3.9-11.5,12.3-11.5s11.8,5.7,11.8,11.7c-1.1,6.6-.5,7.8-2.4,14.3" fill="#010101"/>
  <path d="M32.7875,28.0876a2,2,0,1,1-2-2,2,2,0,0,1,2,2" fill="#1d1d1c"/>
  <path d="M24.7875,28.0876a2,2,0,1,1-2-2,2,2,0,0,1,2,2" fill="#1d1d1c"/>
  <path d="M15.8875,29.0876c-.1,8,4.1,14,11,14,7.1,0,11.1-6,11.1-14,0-5-3-10-3-10-8,0-8.7-.3-14.7-2.3,0,0-4.3,7.3-4.4,12.3" fill="#ffe8bc"/>
  <path d="M32.7875,28.0876a2,2,0,1,1-2-2,2,2,0,0,1,2,2" fill="#010101"/>
  <path d="M24.7875,28.0876a2,2,0,1,1-2-2,2,2,0,0,1,2,2" fill="#010101"/>
  <path d="M15.8875,29.0876c-.1,8,4.9,14,11,14,5.9,0,11.1-6,11.1-14,0-5-2.7-14.1-2.7-14.1-8,0-9,3.8-15,1.8C20.2875,16.7876,15.9875,24.0876,15.8875,29.0876Z" fill="none" stroke="#010101" stroke-linejoin="round" stroke-width="2"/>
  <path d="M23.7875,36.7876a7.7955,7.7955,0,0,0,6,0" fill="none" stroke="#010101" stroke-linecap="round" stroke-linejoin="round" stroke-width="2"/>
  <path d="M19.2875,24.2876l1.6-.6a9.4083,9.4083,0,0,1,3.9,0" fill="none" stroke="#1d1d1b" stroke-linecap="round" stroke-linejoin="round"/>
  <path d="M34.4875,24.2876l-1.6-.6a9.4083,9.4083,0,0,0-3.9,0" fill="none" stroke="#1d1d1b" stroke-linecap="round" stroke-linejoin="round"/>
  <path d="M37.9875,29.0876c-.5-.9,9.1-17.1-11.1-16.7-17.3.3-12.6,15-11,16.7.5-2.6-.9-11.2,10.9-10.2,13,1.2,10.7,9.3,11.2,10.2" fill="#3f3f3f"/>
  <path d="M37.9875,16.4876c-.4-.5-.4-7.6-11.1-7.6-9.7,0-10,6-10.8,7.1.8-1,2.8-4.2,10.8-4.2,8.2-.1,10.7,4.2,11.1,4.7" fill="#3f3f3f"/>
  <path d="M37.9875,29.8876c2.2-3.6,5.1-17.5-11-17.5-16.8,0-13.1,16.4-11,18.1-.7-3.5-.9-11.6,10.9-11.6C39.1875,18.8876,37.4875,29.0876,37.9875,29.8876Z" fill="none" stroke="#1d1d1c" stroke-linecap="round" stroke-linejoin="round" stroke-width="2"/>
  <path d="M16.7875,15.9876c4-11.3,17.7-10.1,21.1.5" fill="none" stroke="#1d1d1c" stroke-linecap="round" stroke-linejoin="round" stroke-width="2"/>
  <path d="M45.8875,64.9876c-.6,0,0-10.1,0-10.1,0-4.5-5.5-8.8-9.7-8.9-6.2,5-12.1,4.9-18.3-.1-4.2.2-9.9,3.4-9.9,7.8,0,0,.4,11.2-.1,11.2" fill="#9b9b9a"/>
  <path d="M36.1875,45.9376c-3.2,2.1-4.9,3-8.9,3.6,13.1.4,13.1,11.4,13.8,15.4h5.1s2-19-10-19" fill="#3f3f3f"/>
  <path d="M7.8875,63.8876v-9c0-5,5-9,10-9q9,7.5,18,0c5,0,10,4,10,9v9" fill="none" stroke="#030404" stroke-linecap="round" stroke-linejoin="round" stroke-width="2"/>
  <path d="M24.3875,49.5876l.3,6.3-6.9-7.6s-.2-2.7-.3-4.5c3,2.7,6.9,5.8,6.9,5.8" fill="#9b9b9a"/>
  <path d="M24.3875,49.5876l.3,6.3-6.9-7.6s-.2-2.7-.3-4.5C20.4875,46.4876,24.3875,49.5876,24.3875,49.5876Z" fill="none" stroke="#1e1e1c" stroke-linecap="round" stroke-linejoin="round" stroke-width="2"/>
  <path d="M28.3875,49.5876l-.2,6.3,6.9-7.6s.2-2.7.3-4.5c-3.1,2.7-7,5.8-7,5.8" fill="#9b9b9a"/>
  <path d="M28.3875,49.5876l-.2,6.3,6.9-7.6s.2-2.7.3-4.5C32.2875,46.4876,28.3875,49.5876,28.3875,49.5876Z" fill="none" stroke="#1e1e1c" stroke-linecap="round" stroke-linejoin="round" stroke-width="2"/>
</svg>
