<svg id="Ebene_1" data-name="Ebene 1" xmlns="http://www.w3.org/2000/svg" viewBox="0 0 72 72">
  <title>Zeichenfläche 1</title>
  <path d="M27.4,37c-1.9-6.9-1.9-8.7-2.9-14.5C23.4,16.7,28.4,11,36.8,11s11.8,5.7,11.8,11.7c-1.1,6.6-.5,7.8-2.4,14.3" fill="#010101"/>
  <path d="M42.6,29.2a2,2,0,1,1-2-2,2.0059,2.0059,0,0,1,2,2" fill="#1d1d1c"/>
  <path d="M34.6,29.2a2,2,0,1,1-2-2,2.0059,2.0059,0,0,1,2,2" fill="#1d1d1c"/>
  <path d="M25.7,30.2c-.1,8,4.1,14,11,14,7.1,0,11.1-6,11.1-14,0-5-3-10-3-10-8,0-8.7-.3-14.7-2.3,0,0-4.3,7.3-4.4,12.3" fill="#ffe8bc"/>
  <path d="M42.6,29.2a2,2,0,1,1-2-2,2.0059,2.0059,0,0,1,2,2" fill="#010101"/>
  <path d="M34.6,29.2a2,2,0,1,1-2-2,2.0059,2.0059,0,0,1,2,2" fill="#010101"/>
  <path d="M25.7,30.2c-.1,8,4.9,14,11,14,5.9,0,11.1-6,11.1-14,0-5-2.7-14.1-2.7-14.1-8,0-9,3.8-15,1.8C30.1,17.9,25.8,25.2,25.7,30.2Z" fill="none" stroke="#010101" stroke-linejoin="round" stroke-width="2"/>
  <path d="M33.6,37.9a7.7957,7.7957,0,0,0,6,0" fill="none" stroke="#010101" stroke-linecap="round" stroke-linejoin="round" stroke-width="2"/>
  <path d="M29.1,25.4l1.6-.6a9.4068,9.4068,0,0,1,3.9,0" fill="none" stroke="#1d1d1b" stroke-linecap="round" stroke-linejoin="round"/>
  <path d="M44.3,25.4l-1.6-.6a9.4068,9.4068,0,0,0-3.9,0" fill="none" stroke="#1d1d1b" stroke-linecap="round" stroke-linejoin="round"/>
  <path d="M47.8,30.2c-.5-.9,9.1-17.1-11.1-16.7-17.3.3-12.6,15-11,16.7.5-2.6-.9-11.2,10.9-10.2,13,1.2,10.7,9.3,11.2,10.2" fill="#3f3f3f"/>
  <path d="M47.8,17.6c-.4-.5-.4-7.6-11.1-7.6-9.7,0-10,6-10.8,7.1.8-1,2.8-4.2,10.8-4.2,8.2-.1,10.7,4.2,11.1,4.7" fill="#3f3f3f"/>
  <path d="M47.8,31c2.2-3.6,5.1-17.5-11-17.5-16.8,0-13.1,16.4-11,18.1C25.1,28.1,24.9,20,36.7,20,49,20,47.3,30.2,47.8,31Z" fill="none" stroke="#1d1d1c" stroke-linecap="round" stroke-linejoin="round" stroke-width="2"/>
  <path d="M26.6,17.1c4-11.3,17.7-10.1,21.1.5" fill="none" stroke="#1d1d1c" stroke-linecap="round" stroke-linejoin="round" stroke-width="2"/>
  <path d="M55.7,66.1c-.6,0,0-10.1,0-10.1,0-4.5-5.5-8.8-9.7-8.9-6.2,5-12.1,4.9-18.3-.1-4.2.2-9.9,3.4-9.9,7.8,0,0,.4,11.2-.1,11.2" fill="#9b9b9a"/>
  <path d="M46,47.6c-3.2,2.1-4.9,3-8.9,3.6,13.1.4,13.1,11.4,13.8,15.4H56s2-19-10-19" fill="#3f3f3f"/>
  <path d="M17.7,65V56c0-5,5-9,10-9q9,7.5,18,0c5,0,10,4,10,9v9" fill="none" stroke="#030404" stroke-linecap="round" stroke-linejoin="round" stroke-width="2"/>
  <path d="M34.2,50.7l.3,6.3-6.9-7.6s-.2-2.7-.3-4.5c3,2.7,6.9,5.8,6.9,5.8" fill="#9b9b9a"/>
  <path d="M34.2,50.7l.3,6.3-6.9-7.6s-.2-2.7-.3-4.5C30.3,47.6,34.2,50.7,34.2,50.7Z" fill="none" stroke="#1e1e1c" stroke-linecap="round" stroke-linejoin="round" stroke-width="2"/>
  <path d="M38.2,50.7,38,57l6.9-7.6s.2-2.7.3-4.5c-3.1,2.7-7,5.8-7,5.8" fill="#9b9b9a"/>
  <path d="M38.2,50.7,38,57l6.9-7.6s.2-2.7.3-4.5C42.1,47.6,38.2,50.7,38.2,50.7Z" fill="none" stroke="#1e1e1c" stroke-linecap="round" stroke-linejoin="round" stroke-width="2"/>
</svg>
