<?xml version="1.0" encoding="utf-8"?>
<!-- Generator: Adobe Illustrator 16.0.0, SVG Export Plug-In . SVG Version: 6.00 Build 0)  -->
<!DOCTYPE svg PUBLIC "-//W3C//DTD SVG 1.1//EN" "http://www.w3.org/Graphics/SVG/1.1/DTD/svg11.dtd">
<svg version="1.1" id="Ebene_1" xmlns="http://www.w3.org/2000/svg" xmlns:xlink="http://www.w3.org/1999/xlink" x="0px" y="0px"
	 width="1600px" height="900px" viewBox="0 0 1600 900" enable-background="new 0 0 1600 900" xml:space="preserve">
<g>
	<rect fill="#FCEA2B" width="1600" height="900"/>
	<g>
		<defs>
			<rect id="SVGID_1_" width="1527.75" height="900"/>
		</defs>
		<clipPath id="SVGID_2_">
			<use xlink:href="#SVGID_1_"  overflow="visible"/>
		</clipPath>
		<g clip-path="url(#SVGID_2_)">
			<path fill="#B1CC33" d="M344.117,404.969l119.842-119.841l61.655,61.655L405.773,466.625
				c-13.616,13.616-21.812,31.396-22.577,48.979l-1.496,34.352c-1.217,27.992-14.261,56.295-35.938,77.971L143.551,830.139
				c-18.131,18.131-45.113,20.544-60.265,5.391l-108.072-108.07c-15.152-15.154-12.739-42.137,5.391-60.267l202.211-202.21
				c21.675-21.675,49.978-34.723,77.97-35.939l34.351-1.495C312.72,426.784,330.5,418.587,344.117,404.969"/>
			<path fill="#5B9E30" d="M92.782,779.617l72.452-72.45C245.278,627.12,272.648,579.132,281.5,552.902
				c7.913-23.443,21.801-45.391,40.029-63.618L494.82,315.991l30.794,30.792L405.773,466.625
				c-13.616,13.616-21.812,31.396-22.577,48.979l-1.494,34.353c-1.218,27.991-14.263,56.294-35.938,77.97L143.551,830.139
				c-18.131,18.132-45.113,20.545-60.265,5.393L29.285,781.53C58.799,811.049,92.782,779.617,92.782,779.617"/>
			<path fill="#B1CC33" d="M343.49,630.201l-199.941,199.94c-18.131,18.13-45.112,20.544-60.265,5.391L-24.788,727.461
				c-15.153-15.154-12.738-42.135,5.391-60.265l199.941-199.941L343.49,630.201z"/>
			<path fill="#5B9E30" d="M280.383,557.465l67.923,67.922L144.229,829.462c-18.506,18.506-46.092,20.923-61.615,5.4L27.292,779.54
				c30.24,30.241,64.929-1.837,64.929-1.837l73.951-73.949C237.555,632.367,267.863,585.933,280.383,557.465"/>
			
				<rect x="41.693" y="543.553" transform="matrix(0.7071 0.7071 -0.7071 0.7071 508.2881 80.5479)" fill="#D0CFCE" width="230.444" height="220.55"/>
			<path fill="#9B9B9A" d="M316.364,657.326L160.41,813.281l-56.547-56.549l77.977-77.975c30.041-30.041,55.012-56.653,75.77-80.187
				L316.364,657.326z"/>
			<path fill="#F7EA29" d="M344.117,404.969l119.842-119.841l61.655,61.655L405.773,466.625
				c-13.616,13.616-21.812,31.396-22.577,48.979l-41.742-0.055c-26.727-0.035-46.173-19.466-46.229-46.187l-0.088-41.817
				C312.72,426.784,330.5,418.587,344.117,404.969"/>
			<path fill="#EFB31A" d="M405.773,466.626c-13.616,13.616-21.812,31.396-22.577,48.982l-41.742-0.058
				c-12.975-0.017-24.225-4.615-32.382-12.389c3.885-4.821,8.038-9.462,12.457-13.878L494.82,315.99l30.794,30.793L405.773,466.626
				L405.773,466.626z"/>
			<path fill="#F7EA29" d="M448.915,312.24l47.523,47.523c9.689,9.689,32.626,2.607,50.971-15.738s25.427-41.282,15.739-50.972
				l-47.525-47.522c-9.688-9.69-32.625-2.608-50.97,15.737C446.309,279.614,439.225,302.553,448.915,312.24"/>
			<path fill="#EFB31A" d="M473.762,337.052c8.238,4.388,21.581,1.208,34.669-7.453c4.608-3.043,9.176-6.762,13.482-11.067
				c18.35-18.343,25.233-41.48,15.3-51.405l27.558,27.549c9.933,9.934,3.05,33.071-15.301,51.414
				c-12.853,12.853-28.056,20.487-39.416,20.487c-1.362,0-2.659-0.106-3.899-0.334c-3.197-0.571-5.954-1.893-8.09-4.037
				l-24.727-24.729L473.762,337.052z"/>
			<path fill="#F2AA40" d="M713.753,47.403l47.522,47.523c9.688,9.689,35.271-0.038,56.848-21.613
				c21.577-21.578,31.303-47.158,21.615-56.848l-47.525-47.524c-9.689-9.688-35.271,0.038-56.848,21.614
				C713.791,12.132,704.063,37.714,713.753,47.403"/>
			<path fill="#E27020" d="M792.631,47.819L792.631,47.819c21.577-21.576,31.104-47.355,21.173-57.287l27.558,27.558
				c9.932,9.93,0.404,35.71-21.173,57.287c-21.577,21.576-47.357,31.105-57.287,21.173l-27.558-27.557
				C745.275,78.926,771.054,69.396,792.631,47.819"/>
			
				<path fill="none" stroke="#000000" stroke-width="23.5023" stroke-linecap="round" stroke-linejoin="round" stroke-miterlimit="10" d="
				M792.213-31.059l21.593,21.593l-0.002-0.002l27.558,27.559c9.932,9.93,0.404,35.709-21.173,57.285
				c-21.577,21.578-47.357,31.105-57.287,21.176l-1.626-1.626l-47.522-47.523c-9.689-9.689,0.038-35.271,21.612-56.848
				C756.942-31.021,782.525-40.748,792.213-31.059z"/>
			<path fill="none" stroke="#000000" stroke-width="23.5023" stroke-linecap="round" stroke-miterlimit="10" d="M558.947,306.257
				c3.563,10.65-1.677,26.255-13.898,38.479c-10.541,10.541-23.536,15.739-33.763,14.723l-101.997,102
				c-1.702,1.7-3.318,3.468-4.848,5.293c-3.058,3.646-5.76,7.519-8.079,11.553c-3.476,6.047-6.083,12.45-7.714,18.979
				c-1.09,4.353-1.745,8.76-1.936,13.157l-1.495,34.352c-1.216,27.991-14.261,56.294-35.939,77.97l-2.272,2.274L147.066,824.973
				l-0.002,0.003c-18.131,18.13-45.112,20.542-60.264,5.39L-21.271,722.293c-9.472-9.471-12.08-23.562-8.277-37.227
				c2.281-8.197,6.869-16.24,13.668-23.04l202.21-202.21c21.676-21.676,49.979-34.724,77.97-35.939l34.352-1.497v-0.002
				c6.594-0.285,13.215-1.616,19.635-3.888c10.698-3.783,20.834-10.176,29.347-18.689l100.538-100.538
				c-2.852-10.601,2.325-25.491,14.121-37.287c13.712-13.712,31.688-18.636,42.138-12.197"/>
			
				<line fill="none" stroke="#000000" stroke-width="23.5023" stroke-linecap="round" stroke-linejoin="round" stroke-miterlimit="10" x1="159.163" y1="500.125" x2="311.927" y2="652.889"/>
			
				<line fill="none" stroke="#000000" stroke-width="23.5023" stroke-linecap="round" stroke-linejoin="round" stroke-miterlimit="10" x1="0.524" y1="658.765" x2="153.288" y2="811.528"/>
		</g>
	</g>
</g>
</svg>
