<?xml version="1.0" encoding="utf-8"?>
<!-- Generator: Adobe Illustrator 16.0.0, SVG Export Plug-In . SVG Version: 6.00 Build 0)  -->
<!DOCTYPE svg PUBLIC "-//W3C//DTD SVG 1.1//EN" "http://www.w3.org/Graphics/SVG/1.1/DTD/svg11.dtd">
<svg version="1.1" id="Ebene_1" xmlns="http://www.w3.org/2000/svg" xmlns:xlink="http://www.w3.org/1999/xlink" x="0px" y="0px"
	 width="1600px" height="900px" viewBox="0 0 1600 900" enable-background="new 0 0 1600 900" xml:space="preserve">
<rect fill="#E6E6E6" width="1600" height="900"/>
<g>
	<g>
		<path fill="#6BD3F6" d="M1209.448,791.894l-17.881,8.908c-7.756,3.865-16.736-3.389-13.758-11.288
			c12.281-32.575,56.344-51.324,56.344-51.324c-63.793-69.045-60.236-158.569-60.236-158.569
			c-3.648-132.238,80.291-164.42,80.291-164.42s106.443,34.522,102.793,166.762c0,0,0.502,71.97-80.395,156.228
			c0,0,43.873,18.948,54.557,51.841c2.559,7.878-6.242,14.794-13.861,10.999l-18.334-9.136
			C1270.897,777.908,1237.517,777.908,1209.448,791.894"/>
		<path fill="#6BD3F6" d="M1176.954,622.163c-5.656,0-51.104,0.99-58.387,2.056v-42.359c0,0,8.809-41.898,58.387-51.391"/>
		<path fill="#6BD3F6" d="M1350.06,521.521c55.393,1.526,71.27,54.199,71.27,54.199l-31.037,113.754
			c-5.551-8.39-13.07-10.63-21.189-13.145c0,0-24.094-7.2-40.879-5.435C1328.224,670.896,1366.401,589.318,1350.06,521.521"/>
		<path fill="#00B2E6" d="M1350.06,521.521c55.393,1.526,71.27,54.199,71.27,54.199l-31.037,113.754
			c-5.551-8.39-13.07-10.63-21.189-13.145c0,0-24.094-7.2-40.879-5.435C1328.224,670.896,1366.401,589.318,1350.06,521.521"/>
		<path fill="#00B2E6" d="M1252.317,781.43c0,0,71.162,19.014,78.514,19.014c0,0-2.607-34.781-49.355-61.943
			c0,0,76.072-97.388,75.619-168.008c-0.469-72.895-40.176-123.451-102.887-155.292c41.789,50.434,80.186,70.338,66.902,163.198
			C1321.11,578.398,1313.388,669.6,1252.317,781.43"/>
		<path d="M1302.896,509.077c0-10.341-8.383-18.725-18.723-18.725c-10.342,0-18.725,8.384-18.725,18.725s8.383,18.723,18.725,18.723
			C1294.513,527.8,1302.896,519.418,1302.896,509.077"/>
		
			<path fill="none" stroke="#000000" stroke-width="21.2" stroke-linecap="round" stroke-linejoin="round" stroke-miterlimit="10" d="
			M1373.698,666.644c8.121,2.512,15.764,7.277,21.311,15.667l26.32-106.59c0,0-15.877-52.673-71.27-54.199"/>
		
			<path fill="none" stroke="#000000" stroke-width="21.2" stroke-linecap="round" stroke-linejoin="round" stroke-miterlimit="10" d="
			M1209.448,791.894l-17.881,8.908c-7.756,3.865-16.736-3.389-13.758-11.288c12.281-32.575,56.344-51.324,56.344-51.324
			c-63.793-69.045-60.236-158.569-60.236-158.569c-3.648-132.238,80.291-164.42,80.291-164.42s106.443,34.522,102.793,166.762
			c0,0,0.502,71.97-80.395,156.228c0,0,43.873,18.948,54.557,51.841c2.559,7.878-6.242,14.794-13.861,10.999l-18.334-9.136
			C1270.897,777.908,1237.517,777.908,1209.448,791.894z"/>
		
			<path fill="none" stroke="#000000" stroke-width="21.2" stroke-linecap="round" stroke-linejoin="round" stroke-miterlimit="10" d="
			M1137.911,612.426c-5.645,0.301-12.061,0.887-19.344,1.837v-37.859c0,0,8.811-37.45,58.387-45.934"/>
		
			<path fill="none" stroke="#000000" stroke-width="21.2" stroke-linecap="round" stroke-linejoin="round" stroke-miterlimit="10" d="
			M1254.208,415.2l1.18-266.544c0,0-39.316-93.581-175.411-40.415c-125.928,49.194-193.1,295.087-224.938,429.335"/>
		<path fill="#B47A31" d="M873.557,586.305l-45.469,185.326c-37.639-0.843-60.778-14.911-60.778-14.911l45.467-185.326
			C812.777,571.394,840.49,586.305,873.557,586.305"/>
		<path fill="#76442A" d="M849.656,583.908c7.348,1.461,15.443,2.435,23.9,2.396l-45.469,185.326
			c-7.404-0.135-15.793-1.537-21.982-2.52L849.656,583.908z"/>
		
			<path fill="none" stroke="#000000" stroke-width="21.2" stroke-linecap="round" stroke-linejoin="round" stroke-miterlimit="10" d="
			M873.557,586.305l-45.469,185.326c-37.639-0.843-60.778-14.911-60.778-14.911l45.467-185.326
			C812.777,571.394,840.49,586.305,873.557,586.305z"/>
		
			<path fill="none" stroke="#000000" stroke-width="21.2" stroke-linecap="round" stroke-linejoin="round" stroke-miterlimit="10" d="
			M776.882,717.608c0,0,27.715,14.91,60.778,14.91"/>
	</g>
</g>
</svg>
