<svg id="Ebene_1" data-name="Ebene 1" xmlns="http://www.w3.org/2000/svg" viewBox="0 0 1920 1080">
  <rect width="1918" height="1080" fill="#92d3f5"/>
  <rect x="639" y="-12" width="638" height="1129" fill="#fff"/>
  <rect x="1275" y="-1" width="643" height="1081" fill="#ea5a47"/>
  <g>
    <g>
      <g id="color">
        <polygon points="825.788 580.098 306.786 580.098 297.518 505.954 835.056 505.954 825.788 580.098" fill="#fff"/>
        <path d="M305.14,577.6c14.0057,95.8347,55.739,173.9779,127.8238,217.3266H702.6087c72.0949-43.3487,113.83-121.4919,127.8367-217.3266Z" fill="#6a462f"/>
        <path d="M721.2344,577.6H305.14c14.0057,95.8347,55.739,173.9779,127.8238,217.3266h121.17C642.9744,748.4369,698.6837,633.1767,721.2344,577.6Z" fill="#a57939"/>
      </g>
      <g id="line">
        <path d="M794.6268,751.8343a112.5489,112.5489,0,0,1-30.8447-4.281,9.2706,9.2706,0,0,1,5.0864-17.83,93.8636,93.8636,0,0,0,61.8162-176.9181,9.2707,9.2707,0,0,1,7.1319-17.1148,112.39,112.39,0,0,1-43.19,216.1438Z" stroke="#000" stroke-miterlimit="10" stroke-width="7"/>
        <path d="M702.6085,804.1924H432.9616a9.319,9.319,0,0,1-4.7742-1.3214C339.364,749.4539,290.45,642.3663,290.45,501.3205a9.2684,9.2684,0,0,1,9.2679-9.2679H835.8707a9.2654,9.2654,0,0,1,9.2679,9.2679c0,141.0458-48.9189,248.1425-137.7513,301.5505A9.36,9.36,0,0,1,702.6085,804.1924ZM435.5637,785.6566H700.011C779.7565,736.4481,824.485,639.108,826.53,510.5884H309.0578C311.1033,639.108,355.8182,736.4481,435.5637,785.6566Z" stroke="#000" stroke-miterlimit="10" stroke-width="6"/>
      </g>
    </g>
    <g id="color-2" data-name="color">
      <path d="M1649.03,680.4316,1552.8491,737.63a59.8839,59.8839,0,1,0,96.1807-57.1986Z" fill="#f4aa41"/>
      <path d="M1443.8292,451.1825a23.9908,23.9908,0,0,1,23.99,23.99l-35.9845,179.9227a23.9908,23.9908,0,0,1-23.99,23.99h-71.9691a23.9908,23.9908,0,0,1-23.99-23.99l-35.9845-179.9227a23.9908,23.9908,0,0,1,23.99-23.99Z" fill="#f4aa41"/>
      <path d="M1581.7232,530.063l-110.4138-46.8554a24.8734,24.8734,0,0,0-4.8027-1.4634l-34.6723,173.3507a23.8967,23.8967,0,0,1-16.3994,22.6427,23.7767,23.7767,0,0,0,9.3248,7.2269l44.16,18.7419a23.9937,23.9937,0,0,0,31.4625-12.7086l94.0612-129.4723A23.9932,23.9932,0,0,0,1581.7232,530.063Z" fill="#f4aa41"/>
      <path d="M1664.68,636.8447l-69.04-66.65a23.1063,23.1063,0,0,0-4.9083-3.5613l-90.3487,124.365a23.7539,23.7539,0,0,1-10.6359,11.5966,23.89,23.89,0,0,0,6.7939,22.0094l17.2666,16.6692a23.9853,23.9853,0,0,0,33.9226-.5973l117.5351-69.9084A23.994,23.994,0,0,0,1664.68,636.8447Z" fill="#f4aa41"/>
      <path d="M1094.6905,680.4316l96.1806,57.1986a59.8838,59.8838,0,1,1-96.1806-57.1986Z" fill="#f4aa41"/>
      <path d="M1161.9971,530.063l110.4138-46.8554a24.8734,24.8734,0,0,1,4.8027-1.4634l34.6723,173.3507a23.8965,23.8965,0,0,0,16.3994,22.6427,23.777,23.777,0,0,1-9.3249,7.2269l-44.16,18.7419a23.9935,23.9935,0,0,1-31.4624-12.7086l-94.0612-129.4723A23.9932,23.9932,0,0,1,1161.9971,530.063Z" fill="#f4aa41"/>
      <path d="M1079.0408,636.8447l69.0411-66.65a23.0994,23.0994,0,0,1,4.9071-3.5613l90.3488,124.365a23.7537,23.7537,0,0,0,10.6358,11.5966,23.89,23.89,0,0,1-6.7939,22.0094l-17.2666,16.6692a23.9853,23.9853,0,0,1-33.9226-.5973l-117.5351-69.9084A23.994,23.994,0,0,1,1079.0408,636.8447Z" fill="#f4aa41"/>
    </g>
    <g id="line-2" data-name="line">
      <path d="M1619.7641,798.7984a72.8021,72.8021,0,0,1-71.7115-60.13,12.1536,12.1536,0,0,1,5.7612-12.5914l97.5356-58.0035a12.1538,12.1538,0,0,1,13.8149.9563,72.7421,72.7421,0,0,1-45.4,129.7683Zm-45.6616-56.483a48.59,48.59,0,0,0,94.3165-16.4994,47.9243,47.9243,0,0,0-12.4844-32.1674Z"/>
      <path d="M1412.98,689.3247H1339.998a36.5369,36.5369,0,0,1-36.4675-35.1667l-36.2774-181.393a11.9651,11.9651,0,0,1-.2376-2.3876,36.5311,36.5311,0,0,1,36.4913-36.4912h145.9649a36.5311,36.5311,0,0,1,36.4912,36.4912,12.4243,12.4243,0,0,1-.2376,2.3876l-36.2774,181.393A36.5328,36.5328,0,0,1,1412.98,689.3247ZM1291.3846,469.38l36.2121,181.0663a11.9724,11.9724,0,0,1,.2375,2.3876,12.18,12.18,0,0,0,12.1638,12.1637H1412.98a12.1757,12.1757,0,0,0,12.1638-12.1637,12.4163,12.4163,0,0,1,.2376-2.3876L1461.6,469.38a12.1891,12.1891,0,0,0-12.1281-11.166H1303.5068A12.1792,12.1792,0,0,0,1291.3846,469.38Zm182.4146.9978h0Z"/>
      <path d="M1484.3712,716.23a36.4454,36.4454,0,0,1-14.2069-2.8984l-44.7825-19.0059a36.2033,36.2033,0,0,1-14.2426-10.9758,12.1624,12.1624,0,0,1,5.678-19.089,12.096,12.096,0,0,0,8.327-11.4273,12.4163,12.4163,0,0,1,.2376-2.3876l35.1608-175.7922a12.1553,12.1553,0,0,1,14.3494-9.5326,37.6188,37.6188,0,0,1,7.21,2.2094l111.9563,47.5146a36.496,36.496,0,0,1,19.35,47.8532,12.4533,12.4533,0,0,1-1.3661,2.3995l-94.6491,130.285A36.5853,36.5853,0,0,1,1484.3712,716.23Zm-42.4068-41.3021,37.7028,16.0006a12.1393,12.1393,0,0,0,15.953-6.4383,12.4533,12.4533,0,0,1,1.3661-2.3995L1591.41,552.1085a12.1712,12.1712,0,0,0-6.854-14.8721h0L1481.58,493.5348,1449.4479,654.158A36.2571,36.2571,0,0,1,1441.9644,674.9278Zm160.243-116.981h0Z"/>
      <path d="M1537.3262,759.195a36.3766,36.3766,0,0,1-25.3372-10.2157L1494.48,732.076a36.3085,36.3085,0,0,1-10.37-33.4859,12.193,12.193,0,0,1,6.0938-8.2676,11.9969,11.9969,0,0,0,5.4166-5.8205,11.7853,11.7853,0,0,1,1.3661-2.4114l91.62-126.1156a12.1626,12.1626,0,0,1,15.7511-3.4745,35.0914,35.0914,0,0,1,7.5192,5.5l70.0009,67.5776s.0119,0,.0119.006a36.5517,36.5517,0,0,1,.8909,51.5949,12.188,12.188,0,0,1-2.542,2.0016L1562.307,749.3238A36.3789,36.3789,0,0,1,1537.3262,759.195Zm-29.4947-51.5415a11.9742,11.9742,0,0,0,3.54,6.9134l17.5092,16.9033a12.16,12.16,0,0,0,17.2-.297,11.8377,11.8377,0,0,1,2.542-2.0075l117.5393-69.9118a12.1917,12.1917,0,0,0-1.1879-16.1846L1600.5681,580.89l-83.1743,114.4924A35.72,35.72,0,0,1,1507.8315,707.6535Z"/>
      <path d="M1133.2144,798.7984a72.742,72.742,0,0,1-45.4-129.7683,12.1408,12.1408,0,0,1,13.8208-.9563l97.5356,58.0035a12.1591,12.1591,0,0,1,5.7552,12.5914A72.7926,72.7926,0,0,1,1133.2144,798.7984Zm-36.1705-105.15a47.8952,47.8952,0,0,0-12.4845,32.1674,48.59,48.59,0,0,0,94.3165,16.4994Z"/>
      <path d="M1268.6073,716.23a36.5518,36.5518,0,0,1-33.0227-20.8471l-94.655-130.285a12.0938,12.0938,0,0,1-1.3542-2.3995,36.4866,36.4866,0,0,1,19.3444-47.8532l111.9682-47.5146a37.1733,37.1733,0,0,1,7.2044-2.2094,12.1534,12.1534,0,0,1,14.3435,9.5326l35.1608,175.7922a11.9724,11.9724,0,0,1,.2375,2.3876,12.096,12.096,0,0,0,8.327,11.4273,12.1645,12.1645,0,0,1,5.672,19.089,36.0761,36.0761,0,0,1-14.2187,10.964l-44.8,19.0177A36.4453,36.4453,0,0,1,1268.6073,716.23ZM1161.5687,552.1085l94.4294,129.9821a12.0938,12.0938,0,0,1,1.3542,2.3995,12.1558,12.1558,0,0,0,15.9589,6.4383l37.7088-16.0006a36.18,36.18,0,0,1-7.4895-20.77l-32.1258-160.6232-102.982,43.7016h0a12.1712,12.1712,0,0,0-6.854,14.8721Zm2.1025-26.0677h0Z"/>
      <path d="M1215.6522,759.195a36.4038,36.4038,0,0,1-24.9867-9.8712L1072.7342,679.18a12.1181,12.1181,0,0,1-2.53-2.0016,36.5461,36.5461,0,0,1,.8849-51.5949c.006-.006.006-.006.0119-.006l70.0128-67.59a35.1856,35.1856,0,0,1,7.5014-5.4879,12.169,12.169,0,0,1,15.7629,3.4745l91.62,126.1156a12.0421,12.0421,0,0,1,1.36,2.4114,12.0425,12.0425,0,0,0,5.4107,5.8205,12.176,12.176,0,0,1,6.0938,8.2676,36.2636,36.2636,0,0,1-10.37,33.4859l-17.5032,16.9033A36.3869,36.3869,0,0,1,1215.6522,759.195Zm-128.8358-99.9411,117.5452,69.9118a11.7706,11.7706,0,0,1,2.53,2.0075,12.1721,12.1721,0,0,0,17.2.297l17.5151-16.9033a11.9383,11.9383,0,0,0,3.54-6.9134,35.7363,35.7363,0,0,1-9.5682-12.2707L1152.41,580.89l-64.412,62.1789h.0059A12.1982,12.1982,0,0,0,1086.8164,659.2539Z"/>
    </g>
    <g>
      <path d="M520.8387,390s-38.0724-42.0109-32.1646-71.55,19.6926-28.2261,17.7233-55.1393" fill="none" stroke="#000" stroke-linecap="round" stroke-linejoin="round" stroke-width="20"/>
      <path d="M603.5477,390s49.4536-10.42,22.3183-52.5137c-29.6835-46.0465-37.0642-60.0239-11.1591-104.3709" fill="none" stroke="#000" stroke-linecap="round" stroke-linejoin="round" stroke-width="20"/>
      <path d="M548.4084,324.3579s-10.54-93.62,11.1591-128.0021" fill="none" stroke="#000" stroke-linecap="round" stroke-linejoin="round" stroke-width="20"/>
    </g>
  </g>
</svg>
